<?xml version="1.0" encoding="utf-8"?>
<!-- Generator: Adobe Illustrator 24.2.1, SVG Export Plug-In . SVG Version: 6.00 Build 0)  -->
<svg version="1.1" id="Layer_1" xmlns="http://www.w3.org/2000/svg" xmlns:xlink="http://www.w3.org/1999/xlink" x="0px" y="0px"
	 viewBox="0 0 1774.5 1774.6" style="enable-background:new 0 0 1774.5 1774.6;" xml:space="preserve">
<style type="text/css">
	.st0{fill:#F8982D;}
	.st1{clip-path:url(#SVGID_2_);}
	.st2{fill:#FFFFFF;}
	.st3{clip-path:url(#SVGID_4_);}
	.st4{clip-path:url(#SVGID_6_);}
	.st5{fill:#005236;}
	.st6{fill:none;stroke:#005236;stroke-width:0.25;stroke-linecap:round;stroke-linejoin:bevel;stroke-miterlimit:10;}
	.st7{fill:none;stroke:#000000;stroke-width:0.25;stroke-miterlimit:10;}
</style>
<g>
	<g>
		<g>
			<circle class="st0" cx="887.2" cy="887.3" r="634.9"/>
		</g>
		<g>
			<g>
				<defs>
					<circle id="SVGID_1_" cx="887.2" cy="887.3" r="634.8"/>
				</defs>
				<clipPath id="SVGID_2_">
					<use xlink:href="#SVGID_1_"  style="overflow:visible;"/>
				</clipPath>
				<g class="st1">
					<polygon class="st2" points="25,1346.5 59.6,1296.3 95.5,1263.9 144.3,1227.4 164,1183.5 204.4,1174.4 268.2,1156.7 
						310.4,1121.3 339.5,1057.4 372.3,1043.8 378.9,1016.6 393.2,995.8 438.9,969 467.1,978.5 498,942.2 543.1,915.3 555.3,888.5 
						578.7,888.5 610.6,834.9 628.5,826.2 640.9,808.1 670.7,808.1 692.3,808.1 703.4,792 719.5,792 750.4,770.4 772,721.4 
						803.9,664.3 816.1,664.3 823.6,683.4 844.7,652.8 872.4,589.5 887.4,532.4 930.6,458.9 945.6,418.1 992.5,367.8 1030,389.6 
						1051.1,420.2 1113.5,548.7 1145.4,581.3 1154.8,607.2 1166.1,607.2 1190,641.9 1223.3,673.8 1235.5,713.3 1260.8,732.3 
						1284.3,766.3 1318,822.1 1329.3,857.1 1348.1,857.1 1360.4,875 1380.9,875 1394.1,894.1 1409.1,910.5 1426.9,910.5 
						1436.3,896.9 1451.3,907.8 1473.8,969 1509.9,1021.3 1517.9,1056 1561.1,1118.6 1580.8,1156.7 1618.8,1211.8 1676.5,1300.9 
						1723.4,1352.6 1748.7,1373 1781.5,1405.6 1787.2,1434.2 1800.3,1453.2 25,1463.5 					"/>
				</g>
			</g>
			<g>
				<defs>
					<circle id="SVGID_3_" cx="887.2" cy="887.3" r="634.8"/>
				</defs>
				<clipPath id="SVGID_4_">
					<use xlink:href="#SVGID_3_"  style="overflow:visible;"/>
				</clipPath>
				<g class="st3">
					<polygon class="st2" points="-120.7,1807.9 -82.4,1751.5 -42.5,1715.1 11.5,1674.2 33.3,1624.8 78,1614.6 148.6,1594.7 
						195.4,1555.1 227.6,1483.3 263.9,1468 271.2,1437.5 287.1,1414.1 337.7,1384 368.9,1394.7 403.1,1353.9 453,1323.8 
						466.5,1293.7 492.5,1293.7 527.8,1233.5 547.5,1223.7 561.3,1203.4 594.3,1203.4 618.2,1203.4 630.5,1185.3 648.3,1185.3 
						682.6,1161.1 706.5,1106.1 741.8,1042 755.3,1042 763.6,1063.3 787,1029 817.6,958 834.3,893.8 882.1,811.4 898.7,765.6 
						950.6,709.1 992.2,733.5 1015.6,767.8 1084.6,912.2 1120,948.8 1130.4,977.8 1142.8,977.8 1169.3,1016.8 1206.2,1052.7 
						1219.7,1096.9 1247.7,1118.3 1273.7,1156.5 1311.1,1219.1 1323.6,1258.5 1344.4,1258.5 1358,1278.5 1380.7,1278.5 1395.3,1300 
						1411.9,1318.4 1431.6,1318.4 1442,1303.1 1458.6,1315.3 1483.6,1384 1523.6,1442.8 1532.4,1481.8 1580.2,1552 1602,1594.8 
						1644.1,1656.6 1708,1756.7 1759.9,1814.7 1788,1837.6 1824.3,1874.2 1830.6,1906.3 1845.1,1927.7 -120.7,1939.2 					"/>
				</g>
			</g>
			<g>
				<defs>
					<circle id="SVGID_5_" cx="887.2" cy="887.3" r="634.8"/>
				</defs>
				<clipPath id="SVGID_6_">
					<use xlink:href="#SVGID_5_"  style="overflow:visible;"/>
				</clipPath>
				<g class="st4">
					<g>
						<path class="st5" d="M975.1,775.6v19.8l-5.6,6.6l5.6,6.6l-10.6,6v8h10.6v15.5l-7.9,9.4v16l-10.5,2.5l-6.5,7.7l15.4,4
							L954.4,891l14.9,7.7v13l-19.1-12.4l-11.2,7.4l14.9,17.6l-5.2,6.2h16.5v9l-17.3,8h-16.2l-2.6,11.1l14.1,10.5v15.5l-8.4,9.9
							l-18.3-7.4l-11.5-4.9v9.9l14.9,17.6h13.3v12.1h-12.5L905,1015v11.1l7.8,9.3l6.5,7.7h-9.7h-11.5l-11.5-5.3v8.7l9.1,10.8
							l14.9,9.6v7.4h-7.8l-9.4-6.8l-13.1-4.9l-7.3-8.7l-9.4,6.8c0,0,2.6,9.9,6.3,13.6s9.9,11.1,11.2,12.7c1.3,1.5,1.3,11.4,1.3,11.4
							l2.1,8c0,0,4.7-3.1,6.8-2.5s9.4,2.5,9.4,2.5s1,6.2-1,6.2s-6.8,0-8.9,0s-14.1-8-17.8-9.3s-17.8-5.6-17.8-5.6h-5.8
							c0,0-3.7,4.9-3.1,6.8c0.5,1.9,5.2,11.7,5.2,11.7s3.1-3.1,6.3,0c3.1,3.1,17.3,11.7,17.3,11.7l12,7.4l-6.8,14.8l18.8,7.1
							c0,0-3.7,6.5-7.3,7.2c-3.7,0.6,5.8,0-11.5,0s-5.8,4.9-22.5,0.3s-20.4-4.6-20.4-4.6s-9.4-13.1-6.3-2.8
							c3.1,10.2,7.3,15.2,7.3,15.2s-3.1,16.1,11.5,21s12,3.7,18.3,5.6s13.1,4.9,13.1,4.9l-5.2,4.3h-13.6c0,0-11,1.2-15.2,0
							s3.1,13.6-0.5,14.2s-9.4-0.6-12,0s-2.6,0.6-2.6,0.6s-4.4,0.6-1.7,5.6s-5.4-4.6,2.7,4.9c8.1,9.6,16.2,11.1,16.2,13
							s5.8,3.1,0,4.9c-5.8,1.9,3.7,1.9-5.8,1.9s-19.9,0-19.9,0s-9.4,13-13.6,9.3c-4.2-3.7-5.8-7.4-5.8-7.4s-4.2,10.5-4.2,12.4
							s-3.1,8,6.3,9.3c9.4,1.2,19.9,6.2,19.9,6.2l6.8,2.5l-5.2,6.8c13.1,6.2,12,5.6,16.2,6.2s17.3,3.1,17.3,3.1
							c-6.8,3.7-13.1,6.2-15.2,8s-2.6,4.9-6.8,4.9s-11.5-2.5-14.1-3.1s-1-0.6-6.3-1.2c-5.2-0.6-5.8-0.6-10.5-0.6s-8.9,0.6-8.9,0.6
							l-8.4,7.4l15.7,6.2c0,0,9.4,1.2,12.5,3.1s3.1,8.7,3.1,8.7c-34.5,0-42.9,0-42.9,0l-3.7,8.7c0,0-2.1,3.1,5.2,6.2
							s12.5,4.9,17.8,6.2c5.2,1.2,4.7,7.4,4.7,7.4l-3.7,6.2c0,0-12.5-2.5,5.8,0s19.3,1.2,23.5-3.7c4.2-4.9-13.6-4.3,9.9-3.7
							c23.5,0.6,38.1,3.1,36,3.1s-16.7,5.6-16.7,5.6l-18.3,4.9l-11.5,5.6h-7.3l-11,8c0,0-22.5,8-20.9,9.3c1.6,1.2-6.3,6.2,17.8,9.3
							c24,3.1,29.8,4.3,31.4,3.7s6.3,1.5,15.7,0.2s13.6,0.5,13.6,0.5s0,11.1,0,5.6s-8.9,4.3-8.9,4.3h-7.8l-18.3-3.1
							c0,0-9.4-1.9-11-1.2s-6.8,4.3-6.8,4.3v6.8c0,0,8.4,14.2,11.5,14.8c3.1,0.6,8.4,1.2,14.1,2.5c5.8,1.2,5.8,1.2,5.8,1.2l-9.4,6.8
							h-10.5c0,0-11.5,0-15.2,0s-8.9,0-8.9,0h-13.1c-5.8,6.2-12.5,10.5-9.4,11.7s-5.2-1.9,6.3,4.3c11.5,6.2,23,11.1,27.7,11.1
							s13.6,0,13.6,0s0-3.7,14.6,0s11,4.3,22.5,8s10.5,9.9,19.9,2.5s0-7.4,9.4-7.4s2.1,8,19.9,1.9c17.8-6.2,26.7-9.9,26.7-9.9
							s6.3-2.5,11-4.9c4.7-2.5,5.8-2.5,7.8-3.1s5.8-8,6.3,0s-1,19.8-1.6,22.9c-0.5,3.1-0.5,29.1-0.5,29.1v13.6l-3.1,39.3l-6.8,28.7
							l64.3,8l-10.5-50.1l-9.4-45.1l-6.8-26.6l0.5-27.2h5.2c0,0,1,6.8,6,7.1c5,0.3,15.4,5.3,19.1,5.3c3.7,0,12,4.3,14.1,6.8
							c2.1,2.5,7.8,2.5,7.8,2.5s7.8-11.1,9.4-9.3c1.6,1.9,7.3,12.4,13.6,14.2c6.3,1.9,4.7,10.5,20.4,8c15.7-2.5,20.4,0.6,21.4-4.9
							s0.8-5.3,7.6-13.3c6.8-8,3.9-0.9,12.8-8.3c8.9-7.4,8.9-3.1,8.9-7.4s3.7-12.4-4.7-11.1c-8.4,1.2-8.9,1.9-13.6,2.5
							s-5.2,0.6-15.2,0.6s-13.9-4.6-13.9-4.6l-2.4-9.6c-4.7-5.6-2.6-9.9,0-11.1c2.6-1.2,3.7-1.2,12-1.2c8.4,0-1,0,8.4,0
							c9.4,0,18.8,0.6,19.9-1.2c1.1-1.8-6.3-1.9,1-1.9s-1.6,3.7,7.3,0c8.9-3.7,11.5,5.6,14.1-3.7c2.6-9.3,6-13.3,6-13.3l-9.1-4.6
							l-25.1-3.7l-5.8-0.6c0,0,0,1.9-7.3-4.9s-7.3-6.8-7.3-6.8s-7.8-8.7-5.8-10.5c2.1-1.9,5.2-1.9,5.2-1.9s6.3,0,7.8,0
							c1.6,0,19.3-0.6,19.3-0.6c0-9.9,0.5-10.5-4.2-11.7s-13.6-11.7-13.6-11.7c6.8,0,27.7,0,27.7,0l20.4-8.7v-9.9c0,0-19.3,0-20.9,0
							c-1.6,0-13.6-0.6-17.3-3.1s-20.9-11.7-20.9-11.7l-9.9-2.5l-17.8-11.1c0,0,3.1-6.8,5.2-6.2c2.1,0.6,13.1,2.5,17.8,1.9
							c4.7-0.6,8.9-0.6,8.9-0.6l20.9-13.6c0,0-3.1,3.1,6.8,0.6c9.9-2.5,14.6-2.5,14.6-2.5s3.1-6.2,1.6-8.7
							c-1.6-2.5-8.4-6.8-10.5-7.4c-2.1-0.6-15.7-0.6-15.7-0.6s-4.2,0-16.7-2.5s-36.1-5.6-36.1-5.6s-10.5-3.7-5.2-6.2
							c5.2-2.5,13.6-0.6,17.8,0s0.3,5.3,4.2,0.6c3.9-4.6,2.4-6.5,1-8c-1.4-1.5-4.4,2.2-1.3-1.5c3.1-3.7,6.5-7.7,6.5-7.7l5.2-3.7
							c0,0,2.1-4.9-4.4-5.3c-6.5-0.3-17-4-17-4l-11-3.7c0,0,1.6-7.4,3.1-8c1.6-0.6,10.5,1.9,15.7-1.2s8.4-5.6,8.4-5.6
							s7.8-9.3,4.2-10.8c-3.7-1.5,2.6,9-14.1,0s-27.7-7.1-25.1-13.3c2.6-6.2,4.2-11.7,4.2-11.7l1.6-10.9l1-8.9l-17.8-0.6L1031,1133
							c0,0,1.6-3.1,6.3-3.7s20.9-5.6,20.9-5.6s5.8-6.2,7.8-15.5s8.9-9.3-2.6-9.3s-16.2,0.6-16.2,0.6s-25.1,8.7-18.8-2.5
							c6.3-11.1,15.7-13.6,22-14.2s9.4,0,12.5-6.8c3.1-6.8,3.1-6.8,3.1-6.8s-8.9,0-16.2-0.6c-7.3-0.6-6.3-0.6-14.1-0.6
							c-7.8,0-13.6-0.6-13.6-0.6s3.7-8.7,6.8-9.3s12.5-4.3,12.5-4.3l8.9-12.4c-9.9,0,4.2,5.6-13.6,0c-17.8-5.6-17.8-5.6-17.8-5.6
							s-4.2-2.5-3.7-4.9c0.5-2.5,13.6-8.7,13.6-8.7s3.1,3.1,5.8-2.5c2.6-5.6-1-1.2,2.6-5.6c3.7-4.3,6.3-6.8,4.7-7.4
							s-16.2-0.6-16.2-0.6s-2.1-0.6-5.8-1.9c-3.7-1.2-9.4-4.3-8.9-8.7c0.5-4.3,7.3-5.6,9.4-6.2s14.1-7.4,14.1-7.4s4.2-8,2.1-8.7
							c-2.1-0.7-3.7,0-11.5,0c-7.8,0-15.2,0-15.2,0c0-5.6-3.1-3.7-0.5-9.3c2.6-5.6-7.3,2.5,2.6-5.6s9.9-8,9.9-8l1-6.8l-17.3-1.2
							c0,0,3.1-1.9,0-6.8s-3.1,3.7-3.1-4.9s0-8.7,0-8.7l17.3-13c0,0-11-4.3-13.6-4.3s-9.4,1.2-10.5-3.7c-1-4.9-6.5-7.1-1-9.3
							s8.9-1.9,9.4-4.3c0.5-2.5,0-3.1-3.1-6.8s-3.1-2.5-3.1-6.8s0-11.1,0-11.1l-5.8-1.9c0,0-2.1-6.2-2.1-14.2s-1-6.8,2.9-11.4
							c3.9-4.6,3.9-5.9,3.9-9.6s-7.8-9.3-7.8-9.3s-3.4-4.9-2.5-10.5s0.9,0.6,0.9-5.6c0-6.2-4.2-19.8-4.2-19.8L975.1,775.6z"/>
					</g>
					<g>
						<path class="st5" d="M1185.6,896.3v13.4l-6,4.5l6,4.5l-11.4,4v5.4h11.4v10.4l-8.5,6.3v10.8l-11.3,1.7l-7,5.2l16.5,2.7l-12,9
							l15.9,5.2v8.8l-20.4-8.4l-12,5l15.9,11.9l-5.6,4.2h17.6v6.1l-18.4,5.4H1139l-2.8,7.5l15.1,7.1v10.4l-8.9,6.7l-19.5-5
							l-12.3-3.3v6.7l15.9,11.9h14.2v8.1h-13.4l-16.7-4.6v7.5l8.4,6.3l7,5.2h-10.3h-12.3l-12.3-3.6v5.9l9.8,7.3l15.9,6.5v5h-8.4
							l-10-4.6l-14-3.3l-7.8-5.9l-10,4.6c0,0,2.8,6.7,6.7,9.2c3.9,2.5,10.6,7.5,12,8.6c1.4,1,1.4,7.7,1.4,7.7l2.2,5.4
							c0,0,5-2.1,7.3-1.7c2.2,0.4,10,1.7,10,1.7s1.1,4.2-1.1,4.2s-7.3,0-9.5,0s-15.1-5.4-19-6.3c-3.9-0.8-19-3.8-19-3.8h-6.1
							c0,0-3.9,3.3-3.3,4.6c0.6,1.3,5.6,7.9,5.6,7.9s3.3-2.1,6.7,0c3.3,2.1,18.4,7.9,18.4,7.9l12.8,5l-7.3,10l20.1,4.8
							c0,0-3.9,4.4-7.8,4.8c-3.9,0.4,6.1,0-12.3,0c-18.4,0-6.1,3.3-24,0.2c-17.9-3.1-21.8-3.1-21.8-3.1s-10-8.8-6.7-1.9
							s7.8,10.3,7.8,10.3s-3.3,10.9,12.3,14.2c15.6,3.3,12.8,2.5,19.5,3.8s14,3.3,14,3.3l-5.6,2.9h-14.5c0,0-11.7,0.8-16.2,0
							s3.3,9.2-0.6,9.6c-3.9,0.4-10-0.4-12.8,0s-2.8,0.4-2.8,0.4s-4.7,0.4-1.8,3.8c2.9,3.3-5.7-3.1,2.9,3.3
							c8.7,6.5,17.3,7.5,17.3,8.8s6.1,2.1,0,3.3c-6.1,1.3,3.9,1.3-6.1,1.3s-21.2,0-21.2,0s-10,8.8-14.5,6.3s-6.1-5-6.1-5
							s-4.5,7.1-4.5,8.4s-3.3,5.4,6.7,6.3c10,0.8,21.2,4.2,21.2,4.2l7.3,1.7l-5.6,4.6c14,4.2,12.8,3.8,17.3,4.2
							c4.5,0.4,18.4,2.1,18.4,2.1c-7.3,2.5-14,4.2-16.2,5.4c-2.2,1.3-2.8,3.3-7.3,3.3s-12.3-1.7-15.1-2.1c-2.8-0.4-1.1-0.4-6.7-0.8
							c-5.6-0.4-6.1-0.4-11.2-0.4s-9.5,0.4-9.5,0.4l-9,5l16.7,4.2c0,0,10,0.8,13.4,2.1c3.3,1.3,3.3,5.9,3.3,5.9
							c-36.8,0-45.8,0-45.8,0l-3.9,5.9c0,0-2.2,2.1,5.6,4.2c7.8,2.1,13.4,3.3,19,4.2c5.6,0.8,5,5,5,5l-3.9,4.2c0,0-13.4-1.7,6.1,0
							c19.5,1.7,20.6,0.8,25.1-2.5s-14.5-2.9,10.6-2.5c25.1,0.4,40.6,2.1,38.5,2.1c-2.2,0-17.8,3.8-17.8,3.8l-19.5,3.3l-12.3,3.8
							h-7.8l-11.7,5.4c0,0-24,5.4-22.3,6.3c1.7,0.8-6.7,4.2,19,6.3c25.7,2.1,31.8,2.9,33.5,2.5s6.7,1,16.7,0.1s14.5,0.3,14.5,0.3
							s0,7.5,0,3.8c0-3.8-9.5,2.9-9.5,2.9h-8.4l-19.5-2.1c0,0-10-1.3-11.7-0.8c-1.7,0.4-7.3,2.9-7.3,2.9v4.6c0,0,8.9,9.6,12.3,10
							c3.3,0.4,8.9,0.8,15.1,1.7s6.1,0.8,6.1,0.8l-10,4.6h-11.2c0,0-12.3,0-16.2,0c-3.9,0-9.5,0-9.5,0h-14c-6.1,4.2-13.4,7.1-10,7.9
							c3.3,0.8-5.6-1.3,6.7,2.9c12.3,4.2,24.6,7.5,29.6,7.5s14.5,0,14.5,0s0-2.5,15.6,0c15.6,2.5,11.7,2.9,24,5.4s11.2,6.7,21.2,1.7
							s0-5,10-5s2.2,5.4,21.2,1.3c19-4.2,28.5-6.7,28.5-6.7s6.7-1.7,11.7-3.3c5-1.7,6.1-1.7,8.4-2.1s6.1-5.4,6.7,0
							c0.6,5.4-1.1,13.4-1.7,15.5c-0.6,2.1-0.6,19.6-0.6,19.6v9.2l-3.3,26.6l-7.3,19.4l68.6,5.4l-11.2-33.8l-10-30.5l-7.3-18
							l0.6-18.4h5.6c0,0,1.1,4.6,6.4,4.8c5.3,0.2,16.5,3.6,20.4,3.6c3.9,0,12.8,2.9,15.1,4.6c2.2,1.7,8.4,1.7,8.4,1.7
							s8.4-7.5,10-6.3c1.6,1.2,7.8,8.4,14.5,9.6s5,7.1,21.8,5.4s21.8,0.4,22.9-3.3c1.1-3.8,0.8-3.6,8.1-9s4.2-0.6,13.7-5.6
							s9.5-2.1,9.5-5s3.9-8.4-5-7.5c-8.9,0.8-9.5,1.3-14.5,1.7s-5.6,0.4-16.2,0.4c-10.6,0-14.8-3.1-14.8-3.1l-2.5-6.5
							c-5-3.8-2.8-6.7,0-7.5s3.9-0.8,12.8-0.8c8.9,0-1.1,0,8.9,0s20.1,0.4,21.2-0.8c1.1-1.3-6.7-1.3,1.1-1.3s-1.7,2.5,7.8,0
							s12.3,3.8,15.1-2.5c2.8-6.3,6.4-9,6.4-9l-9.8-3.1l-26.8-2.5l-6.1-0.4c0,0,0,1.3-7.8-3.3s-7.8-4.6-7.8-4.6s-8.4-5.9-6.1-7.1
							c2.2-1.3,5.6-1.3,5.6-1.3s6.7,0,8.4,0c1.7,0,20.6-0.4,20.6-0.4c0-6.7,0.6-7.1-4.5-7.9c-5-0.8-14.5-7.9-14.5-7.9
							c7.3,0,29.6,0,29.6,0l21.8-5.9v-6.7c0,0-20.6,0-22.3,0c-1.7,0-14.5-0.4-18.4-2.1c-3.9-1.7-22.3-7.9-22.3-7.9l-10.6-1.7
							l-19-7.5c0,0,3.3-4.6,5.6-4.2c2.2,0.4,14,1.7,19,1.3c5-0.4,9.5-0.4,9.5-0.4l22.3-9.2c0,0-3.3,2.1,7.3,0.4s15.6-1.7,15.6-1.7
							s3.3-4.2,1.7-5.9s-8.9-4.6-11.2-5c-2.2-0.4-16.7-0.4-16.7-0.4s-4.5,0-17.9-1.7c-13.4-1.7-38.5-3.8-38.5-3.8s-11.2-2.5-5.6-4.2
							c5.6-1.7,14.5-0.4,19,0s0.3,3.6,4.5,0.4c4.2-3.1,2.5-4.4,1.1-5.4c-1.4-1-4.7,1.5-1.4-1s7-5.2,7-5.2l5.6-2.5
							c0,0,2.2-3.3-4.7-3.6s-18.1-2.7-18.1-2.7l-11.7-2.5c0,0,1.7-5,3.3-5.4c1.7-0.4,11.2,1.3,16.7-0.8s8.9-3.8,8.9-3.8
							s8.4-6.3,4.5-7.3c-3.9-1,2.8,6.1-15.1,0c-17.9-6.1-29.6-4.8-26.8-9s4.5-7.9,4.5-7.9l1.7-7.3l1.1-6l-19-0.4l-16.2-10.4
							c0,0,1.7-2.1,6.7-2.5s22.3-3.8,22.3-3.8s6.1-4.2,8.4-10.4c2.2-6.3,9.5-6.3-2.8-6.3s-17.3,0.4-17.3,0.4s-26.8,5.9-20.1-1.7
							c6.7-7.5,16.7-9.2,23.4-9.6c6.7-0.4,10,0,13.4-4.6c3.3-4.6,3.3-4.6,3.3-4.6s-9.5,0-17.3-0.4s-6.7-0.4-15.1-0.4
							c-8.4,0-14.5-0.4-14.5-0.4s3.9-5.9,7.3-6.3c3.3-0.4,13.4-2.9,13.4-2.9l9.5-8.4c-10.6,0,4.5,3.8-14.5,0s-19-3.8-19-3.8
							s-4.5-1.7-3.9-3.3c0.6-1.6,14.5-5.9,14.5-5.9s3.3,2.1,6.1-1.7c2.8-3.8-1.1-0.8,2.8-3.8c3.9-2.9,6.7-4.6,5-5
							s-17.3-0.4-17.3-0.4s-2.2-0.4-6.1-1.3c-3.9-0.8-10-2.9-9.5-5.9s7.8-3.8,10-4.2c2.2-0.4,15.1-5,15.1-5s4.5-5.4,2.2-5.9
							c-2.2-0.4-3.9,0-12.3,0c-8.4,0-16.2,0-16.2,0c0-3.8-3.3-2.5-0.6-6.3c2.8-3.8-7.8,1.7,2.8-3.8c10.6-5.4,10.6-5.4,10.6-5.4
							l1.1-4.6l-18.4-0.8c0,0,3.3-1.3,0-4.6c-3.3-3.3-3.3,2.5-3.3-3.3c0-5.9,0-5.9,0-5.9l18.4-8.8c0,0-11.7-2.9-14.5-2.9
							s-10,0.8-11.2-2.5c-1.1-3.3-7-4.8-1.1-6.3c5.9-1.5,9.5-1.3,10-2.9c0.6-1.7,0-2.1-3.3-4.6s-3.3-1.7-3.3-4.6s0-7.5,0-7.5
							l-6.1-1.3c0,0-2.2-4.2-2.2-9.6s-1.1-4.6,3.1-7.7s4.2-4,4.2-6.5s-8.4-6.3-8.4-6.3s-3.6-3.3-2.7-7.1c1-3.8,1,0.4,1-3.8
							c0-4.2-4.5-13.4-4.5-13.4L1185.6,896.3z"/>
					</g>
					<g>
						<path class="st5" d="M1166.3,1162.1v13.4l-6,4.5l6,4.5l-11.4,4v5.4h11.4v10.4l-8.5,6.3v10.8l-11.3,1.7l-7,5.2l16.5,2.7l-12,9
							l15.9,5.2v8.8l-20.4-8.4l-12,5l15.9,11.9l-5.6,4.2h17.6v6.1l-18.4,5.4h-17.3l-2.8,7.5l15.1,7.1v10.4l-8.9,6.7l-19.5-5
							l-12.3-3.3v6.7l15.9,11.9h14.2v8.1H1108l-16.7-4.6v7.5l8.4,6.3l7,5.2h-10.3h-12.3l-12.3-3.6v5.9l9.8,7.3l15.9,6.5v5h-8.4
							l-10-4.6l-14-3.3l-7.8-5.9l-10,4.6c0,0,2.8,6.7,6.7,9.2c3.9,2.5,10.6,7.5,12,8.6c1.4,1,1.4,7.7,1.4,7.7l2.2,5.4
							c0,0,5-2.1,7.3-1.7c2.2,0.4,10,1.7,10,1.7s1.1,4.2-1.1,4.2s-7.3,0-9.5,0s-15.1-5.4-19-6.3c-3.9-0.8-19-3.8-19-3.8h-6.1
							c0,0-3.9,3.3-3.3,4.6c0.6,1.3,5.6,7.9,5.6,7.9s3.3-2.1,6.7,0c3.3,2.1,18.4,7.9,18.4,7.9l12.8,5l-7.3,10l20.1,4.8
							c0,0-3.9,4.4-7.8,4.8c-3.9,0.4,6.1,0-12.3,0c-18.4,0-6.1,3.3-24,0.2c-17.9-3.1-21.8-3.1-21.8-3.1s-10-8.8-6.7-1.9
							s7.8,10.3,7.8,10.3s-3.3,10.9,12.3,14.2c15.6,3.3,12.8,2.5,19.5,3.8s14,3.3,14,3.3l-5.6,2.9h-14.5c0,0-11.7,0.8-16.2,0
							s3.3,9.2-0.6,9.6c-3.9,0.4-10-0.4-12.8,0s-2.8,0.4-2.8,0.4s-4.7,0.4-1.8,3.8c2.9,3.3-5.7-3.1,2.9,3.3
							c8.7,6.5,17.3,7.5,17.3,8.8s6.1,2.1,0,3.3c-6.1,1.2,3.9,1.3-6.1,1.3c-10,0-21.2,0-21.2,0s-10,8.8-14.5,6.3s-6.1-5-6.1-5
							s-4.5,7.1-4.5,8.4s-3.3,5.4,6.7,6.3c10,0.8,21.2,4.2,21.2,4.2l7.3,1.7l-5.6,4.6c14,4.2,12.8,3.8,17.3,4.2
							c4.5,0.4,18.4,2.1,18.4,2.1c-7.3,2.5-14,4.2-16.2,5.4c-2.2,1.3-2.8,3.3-7.3,3.3c-4.5,0-12.3-1.7-15.1-2.1s-1.1-0.4-6.7-0.8
							s-6.1-0.4-11.2-0.4s-9.5,0.4-9.5,0.4l-9,5l16.7,4.2c0,0,10,0.8,13.4,2.1s3.3,5.9,3.3,5.9c-36.8,0-45.8,0-45.8,0l-3.9,5.9
							c0,0-2.2,2.1,5.6,4.2c7.8,2.1,13.4,3.3,19,4.2c5.6,0.8,5,5,5,5l-3.9,4.2c0,0-13.4-1.7,6.1,0s20.6,0.8,25.1-2.5
							s-14.5-2.9,10.6-2.5c25.1,0.4,40.6,2.1,38.5,2.1c-2.2,0-17.8,3.8-17.8,3.8l-19.5,3.3l-12.3,3.8h-7.8l-11.7,5.4
							c0,0-24,5.4-22.3,6.3c1.7,0.8-6.7,4.2,19,6.3s31.8,2.9,33.5,2.5s6.7,1,16.7,0.1s14.5,0.3,14.5,0.3s0,7.5,0,3.8
							c0-3.8-9.5,2.9-9.5,2.9h-8.4l-19.5-2.1c0,0-10-1.3-11.7-0.8c-1.7,0.4-7.3,2.9-7.3,2.9v4.6c0,0,8.9,9.6,12.3,10
							c3.3,0.4,8.9,0.8,15.1,1.7c6.2,0.9,6.1,0.8,6.1,0.8l-10,4.6h-11.2c0,0-12.3,0-16.2,0c-3.9,0-9.5,0-9.5,0h-14
							c-6.1,4.2-13.4,7.1-10,7.9c3.3,0.8-5.6-1.3,6.7,2.9c12.3,4.2,24.6,7.5,29.6,7.5s14.5,0,14.5,0s0-2.5,15.6,0
							c15.6,2.5,11.7,2.9,24,5.4s11.2,6.7,21.2,1.7s0-5,10-5s2.2,5.4,21.2,1.3s28.5-6.7,28.5-6.7s6.7-1.7,11.7-3.3s6.1-1.7,8.4-2.1
							s6.1-5.4,6.7,0c0.6,5.4-1.1,13.4-1.7,15.5c-0.6,2.1-0.6,19.6-0.6,19.6v9.2l-3.3,26.6l-7.3,19.4l68.6,5.4l-11.2-33.8l-10-30.5
							l-7.3-18l0.6-18.4h5.6c0,0,1.1,4.6,6.4,4.8c5.3,0.2,16.5,3.6,20.4,3.6c3.9,0,12.8,2.9,15.1,4.6c2.2,1.7,8.4,1.7,8.4,1.7
							s8.4-7.5,10-6.3c1.6,1.2,7.8,8.4,14.5,9.6c6.7,1.3,5,7.1,21.8,5.4s21.8,0.4,22.9-3.3c1.1-3.8,0.8-3.6,8.1-9s4.2-0.6,13.7-5.6
							s9.5-2.1,9.5-5s3.9-8.4-5-7.5c-8.9,0.8-9.5,1.3-14.5,1.7s-5.6,0.4-16.2,0.4c-10.6,0-14.8-3.1-14.8-3.1l-2.5-6.5
							c-5-3.8-2.8-6.7,0-7.5s3.9-0.8,12.8-0.8c8.9,0-1.1,0,8.9,0s20.1,0.4,21.2-0.8c1.1-1.3-6.7-1.3,1.1-1.3s-1.7,2.5,7.8,0
							s12.3,3.8,15.1-2.5c2.8-6.3,6.4-9,6.4-9l-9.8-3.1l-26.8-2.5l-6.1-0.4c0,0,0,1.3-7.8-3.3s-7.8-4.6-7.8-4.6s-8.4-5.9-6.1-7.1
							c2.2-1.3,5.6-1.3,5.6-1.3s6.7,0,8.4,0c1.7,0,20.6-0.4,20.6-0.4c0-6.7,0.6-7.1-4.5-7.9c-5-0.8-14.5-7.9-14.5-7.9
							c7.3,0,29.6,0,29.6,0l21.8-5.9v-6.7c0,0-20.6,0-22.3,0c-1.7,0-14.5-0.4-18.4-2.1c-3.9-1.7-22.3-7.9-22.3-7.9l-10.6-1.7
							l-19-7.5c0,0,3.3-4.6,5.6-4.2c2.2,0.4,14,1.7,19,1.3c5-0.4,9.5-0.4,9.5-0.4l22.3-9.2c0,0-3.3,2.1,7.3,0.4s15.6-1.7,15.6-1.7
							s3.3-4.2,1.7-5.9s-8.9-4.6-11.2-5c-2.2-0.4-16.7-0.4-16.7-0.4s-4.5,0-17.9-1.7c-13.4-1.7-38.5-3.8-38.5-3.8s-11.2-2.5-5.6-4.2
							c5.6-1.7,14.5-0.4,19,0s0.3,3.6,4.5,0.4c4.2-3.1,2.5-4.4,1.1-5.4c-1.4-1-4.7,1.5-1.4-1s7-5.2,7-5.2l5.6-2.5
							c0,0,2.2-3.3-4.7-3.6c-7-0.2-18.1-2.7-18.1-2.7l-11.7-2.5c0,0,1.7-5,3.3-5.4c1.7-0.4,11.2,1.3,16.7-0.8
							c5.6-2.1,8.9-3.8,8.9-3.8s8.4-6.3,4.5-7.3c-3.9-1,2.8,6.1-15.1,0c-17.9-6.1-29.6-4.8-26.8-9s4.5-7.9,4.5-7.9l1.7-7.3l1.1-6
							l-19-0.4l-16.2-10.4c0,0,1.7-2.1,6.7-2.5s22.3-3.8,22.3-3.8s6.1-4.2,8.4-10.4c2.2-6.3,9.5-6.3-2.8-6.3s-17.3,0.4-17.3,0.4
							s-26.8,5.9-20.1-1.7c6.7-7.5,16.7-9.2,23.4-9.6c6.7-0.4,10,0,13.4-4.6c3.3-4.6,3.3-4.6,3.3-4.6s-9.5,0-17.3-0.4
							s-6.7-0.4-15.1-0.4c-8.4,0-14.5-0.4-14.5-0.4s3.9-5.9,7.3-6.3c3.3-0.4,13.4-2.9,13.4-2.9l9.5-8.4c-10.6,0,4.5,3.8-14.5,0
							s-19-3.8-19-3.8s-4.5-1.7-3.9-3.3c0.6-1.6,14.5-5.9,14.5-5.9s3.3,2.1,6.1-1.7c2.8-3.8-1.1-0.8,2.8-3.8c3.9-2.9,6.7-4.6,5-5
							s-17.3-0.4-17.3-0.4s-2.2-0.4-6.1-1.3c-3.9-0.8-10-2.9-9.5-5.9c0.6-2.9,7.8-3.8,10-4.2c2.2-0.4,15.1-5,15.1-5s4.5-5.4,2.2-5.9
							c-2.2-0.4-3.9,0-12.3,0c-8.4,0-16.2,0-16.2,0c0-3.8-3.3-2.5-0.6-6.3c2.8-3.8-7.8,1.7,2.8-3.8c10.6-5.4,10.6-5.4,10.6-5.4
							l1.1-4.6l-18.4-0.8c0,0,3.3-1.3,0-4.6c-3.3-3.3-3.3,2.5-3.3-3.3s0-5.9,0-5.9l18.4-8.8c0,0-11.7-2.9-14.5-2.9s-10,0.8-11.2-2.5
							c-1.1-3.3-7-4.8-1.1-6.3c5.9-1.5,9.5-1.3,10-2.9c0.6-1.7,0-2.1-3.3-4.6s-3.3-1.7-3.3-4.6s0-7.5,0-7.5l-6.1-1.3
							c0,0-2.2-4.2-2.2-9.6s-1.1-4.6,3.1-7.7s4.2-4,4.2-6.5s-8.4-6.3-8.4-6.3s-3.6-3.3-2.7-7.1c1-3.8,1,0.4,1-3.8
							s-4.5-13.4-4.5-13.4L1166.3,1162.1z"/>
					</g>
					<g>
						<path class="st5" d="M849.2,1307.8v13.4l-6,4.5l6,4.5l-11.4,4v5.4h11.4v10.4l-8.5,6.3v10.8l-11.3,1.7l-7,5.2l16.5,2.7l-12,9
							l15.9,5.2v8.8l-20.4-8.4l-12,5l15.9,11.9l-5.6,4.2h17.6v6.1l-18.4,5.4h-17.3l-2.8,7.5l15.1,7.1v10.4l-8.9,6.7l-19.5-5
							l-12.3-3.3v6.7l15.9,11.9h14.2v8.1h-13.4l-16.7-4.6v7.5l8.4,6.3l7,5.2h-10.3H767l-12.3-3.6v5.9l9.8,7.3l15.9,6.5v5H772
							l-10-4.6l-14-3.3l-7.8-5.9l-10,4.6c0,0,2.8,6.7,6.7,9.2s10.6,7.5,12,8.6c1.4,1,1.4,7.7,1.4,7.7l2.2,5.4c0,0,5-2.1,7.3-1.7
							s10,1.7,10,1.7s1.1,4.2-1.1,4.2s-7.3,0-9.5,0s-15.1-5.4-19-6.3c-3.9-0.8-19-3.8-19-3.8h-6.1c0,0-3.9,3.3-3.3,4.6
							c0.6,1.3,5.6,7.9,5.6,7.9s3.3-2.1,6.7,0c3.3,2.1,18.4,7.9,18.4,7.9l12.8,5l-7.3,10l20.1,4.8c0,0-3.9,4.4-7.8,4.8s6.1,0-12.3,0
							s-6.1,3.3-24,0.2c-17.9-3.1-21.8-3.1-21.8-3.1s-10-8.8-6.7-1.9s7.8,10.3,7.8,10.3s-3.3,10.9,12.3,14.2s12.8,2.5,19.5,3.8
							s14,3.3,14,3.3l-5.6,2.9H729c0,0-11.7,0.8-16.2,0s3.3,9.2-0.6,9.6c-3.9,0.4-10-0.4-12.8,0s-2.8,0.4-2.8,0.4s-4.7,0.4-1.8,3.8
							s-5.7-3.1,2.9,3.3c8.7,6.5,17.3,7.5,17.3,8.8s6.1,2.1,0,3.3c-6.1,1.3,3.9,1.3-6.1,1.3s-21.2,0-21.2,0s-10,8.8-14.5,6.3
							s-6.1-5-6.1-5s-4.5,7.1-4.5,8.4s-3.3,5.4,6.7,6.3c10,0.8,21.2,4.2,21.2,4.2l7.3,1.7l-5.6,4.6c14,4.2,12.8,3.8,17.3,4.2
							c4.5,0.4,18.4,2.1,18.4,2.1c-7.3,2.5-14,4.2-16.2,5.4s-2.8,3.3-7.3,3.3s-12.3-1.7-15.1-2.1s-1.1-0.4-6.7-0.8
							c-5.6-0.4-6.1-0.4-11.2-0.4c-5,0-9.5,0.4-9.5,0.4l-9,5l16.7,4.2c0,0,10,0.8,13.4,2.1s3.3,5.9,3.3,5.9c-36.8,0-45.8,0-45.8,0
							l-3.9,5.9c0,0-2.2,2.1,5.6,4.2s13.4,3.3,19,4.2c5.6,0.8,5,5,5,5l-3.9,4.2c0,0-13.4-1.7,6.1,0s20.6,0.8,25.1-2.5
							s-14.5-2.9,10.6-2.5s40.6,2.1,38.5,2.1c-2.2,0-17.8,3.8-17.8,3.8l-19.5,3.3l-12.3,3.8h-7.8l-11.7,5.4c0,0-24,5.4-22.3,6.3
							c1.7,0.8-6.7,4.2,19,6.3c25.7,2.1,31.8,2.9,33.5,2.5s6.7,1,16.7,0.1s14.5,0.3,14.5,0.3s0,7.5,0,3.8c0-3.8-9.5,2.9-9.5,2.9H717
							l-19.5-2.1c0,0-10-1.3-11.7-0.8c-1.7,0.4-7.3,2.9-7.3,2.9v4.6c0,0,8.9,9.6,12.3,10c3.3,0.4,8.9,0.8,15.1,1.7
							c6.1,0.8,6.1,0.8,6.1,0.8l-10,4.6h-11.2c0,0-12.3,0-16.2,0s-9.5,0-9.5,0h-14c-6.1,4.2-13.4,7.1-10,7.9
							c3.3,0.8-5.6-1.3,6.7,2.9c12.3,4.2,24.6,7.5,29.6,7.5s14.5,0,14.5,0s0-2.5,15.6,0s11.7,2.9,24,5.4s11.2,6.7,21.2,1.7s0-5,10-5
							s2.2,5.4,21.2,1.3c19-4.2,28.5-6.7,28.5-6.7s6.7-1.7,11.7-3.3c5-1.7,6.1-1.7,8.4-2.1c2.2-0.4,6.1-5.4,6.7,0
							c0.6,5.4-1.1,13.4-1.7,15.5c-0.6,2.1-0.6,19.6-0.6,19.6v9.2l-3.3,26.6l-7.3,19.4l68.6,5.4l-11.2-33.8l-10-30.5l-7.3-18
							l0.6-18.4h5.6c0,0,1.1,4.6,6.4,4.8s16.5,3.6,20.4,3.6s12.8,2.9,15.1,4.6s8.4,1.7,8.4,1.7s8.4-7.5,10-6.3s7.8,8.4,14.5,9.6
							c6.7,1.3,5,7.1,21.8,5.4c16.7-1.7,21.8,0.4,22.9-3.3c1.1-3.8,0.8-3.6,8.1-9c7.3-5.4,4.2-0.6,13.7-5.6s9.5-2.1,9.5-5
							s3.9-8.4-5-7.5c-8.9,0.8-9.5,1.3-14.5,1.7c-5,0.4-5.6,0.4-16.2,0.4s-14.8-3.1-14.8-3.1l-2.5-6.5c-5-3.8-2.8-6.7,0-7.5
							s3.9-0.8,12.8-0.8s-1.1,0,8.9,0s20.1,0.4,21.2-0.8c1.1-1.3-6.7-1.3,1.1-1.3c7.8,0-1.7,2.5,7.8,0c9.5-2.5,12.3,3.8,15.1-2.5
							s6.4-9,6.4-9l-9.8-3.1l-26.8-2.5l-6.1-0.4c0,0,0,1.3-7.8-3.3c-7.8-4.6-7.8-4.6-7.8-4.6s-8.4-5.9-6.1-7.1
							c2.2-1.3,5.6-1.3,5.6-1.3s6.7,0,8.4,0s20.6-0.4,20.6-0.4c0-6.7,0.6-7.1-4.5-7.9c-5-0.8-14.5-7.9-14.5-7.9c7.3,0,29.6,0,29.6,0
							l21.8-5.9v-6.7c0,0-20.6,0-22.3,0c-1.7,0-14.5-0.4-18.4-2.1s-22.3-7.9-22.3-7.9l-10.6-1.7l-19-7.5c0,0,3.3-4.6,5.6-4.2
							c2.2,0.4,14,1.7,19,1.3c5-0.4,9.5-0.4,9.5-0.4l22.3-9.2c0,0-3.3,2.1,7.3,0.4c10.6-1.7,15.6-1.7,15.6-1.7s3.3-4.2,1.7-5.9
							c-1.7-1.7-8.9-4.6-11.2-5c-2.2-0.4-16.7-0.4-16.7-0.4s-4.5,0-17.9-1.7s-38.5-3.8-38.5-3.8s-11.2-2.5-5.6-4.2s14.5-0.4,19,0
							s0.3,3.6,4.5,0.4c4.2-3.1,2.5-4.4,1.1-5.4s-4.7,1.5-1.4-1c3.3-2.5,7-5.2,7-5.2l5.6-2.5c0,0,2.2-3.3-4.7-3.6
							c-7-0.2-18.1-2.7-18.1-2.7l-11.7-2.5c0,0,1.7-5,3.3-5.4c1.7-0.4,11.2,1.3,16.7-0.8c5.6-2.1,8.9-3.8,8.9-3.8s8.4-6.3,4.5-7.3
							s2.8,6.1-15.1,0s-29.6-4.8-26.8-9c2.8-4.2,4.5-7.9,4.5-7.9l1.7-7.3l1.1-6l-19-0.4l-16.2-10.4c0,0,1.7-2.1,6.7-2.5
							s22.3-3.8,22.3-3.8s6.1-4.2,8.4-10.4c2.2-6.3,9.5-6.3-2.8-6.3s-17.3,0.4-17.3,0.4s-26.8,5.9-20.1-1.7
							c6.7-7.5,16.7-9.2,23.4-9.6c6.7-0.4,10,0,13.4-4.6c3.3-4.6,3.3-4.6,3.3-4.6s-9.5,0-17.3-0.4s-6.7-0.4-15.1-0.4
							s-14.5-0.4-14.5-0.4s3.9-5.9,7.3-6.3c3.3-0.4,13.4-2.9,13.4-2.9l9.5-8.4c-10.6,0,4.5,3.8-14.5,0s-19-3.8-19-3.8
							s-4.5-1.7-3.9-3.3c0.6-1.7,14.5-5.9,14.5-5.9s3.3,2.1,6.1-1.7c2.8-3.8-1.1-0.8,2.8-3.8c3.9-2.9,6.7-4.6,5-5
							s-17.3-0.4-17.3-0.4s-2.2-0.4-6.1-1.3c-3.9-0.8-10-2.9-9.5-5.9s7.8-3.8,10-4.2c2.2-0.4,15.1-5,15.1-5s4.5-5.4,2.2-5.9
							c-2.2-0.4-3.9,0-12.3,0c-8.4,0-16.2,0-16.2,0c0-3.8-3.3-2.5-0.6-6.3c2.8-3.8-7.8,1.7,2.8-3.8c10.6-5.4,10.6-5.4,10.6-5.4
							l1.1-4.6l-18.4-0.8c0,0,3.3-1.3,0-4.6c-3.3-3.3-3.3,2.5-3.3-3.3c0-5.9,0-5.9,0-5.9l18.4-8.8c0,0-11.7-2.9-14.5-2.9
							s-10,0.8-11.2-2.5c-1.1-3.3-7-4.8-1.1-6.3s9.5-1.3,10-2.9s0-2.1-3.3-4.6s-3.3-1.7-3.3-4.6s0-7.5,0-7.5l-6.1-1.3
							c0,0-2.2-4.2-2.2-9.6s-1.1-4.6,3.1-7.7c4.2-3.1,4.2-4,4.2-6.5s-8.4-6.3-8.4-6.3s-3.6-3.3-2.7-7.1c1-3.8,1,0.4,1-3.8
							c0-4.2-4.5-13.4-4.5-13.4L849.2,1307.8z"/>
					</g>
					<g>
						<path class="st5" d="M980.9,1119.9v14.2l-6,4.7l6,4.7l-11.4,4.3v5.8h11.4v11.1l-8.5,6.7v11.4l-11.3,1.8l-7,5.5l16.5,2.9
							l-12,9.5l15.9,5.5v9.3l-20.4-8.9l-12,5.3l15.9,12.6l-5.6,4.4H970v6.4l-18.4,5.8h-17.3l-2.8,8l15.1,7.5v11.1l-8.9,7.1
							l-19.5-5.3l-12.3-3.5v7.1l15.9,12.6H936v8.6h-13.4l-16.7-4.9v8l8.4,6.6l7,5.5H911h-12.3l-12.3-3.8v6.2l9.8,7.7l15.9,6.9v5.3
							h-8.4l-10-4.9l-14-3.5l-7.8-6.2l-10,4.9c0,0,2.8,7.1,6.7,9.7c3.9,2.7,10.6,8,12,9.1s1.4,8.2,1.4,8.2l2.2,5.8
							c0,0,5-2.2,7.3-1.8c2.2,0.4,10,1.8,10,1.8s1.1,4.4-1.1,4.4s-7.3,0-9.5,0s-15.1-5.8-19-6.6c-3.9-0.9-19-4-19-4h-6.1
							c0,0-3.9,3.5-3.3,4.9s5.6,8.4,5.6,8.4s3.3-2.2,6.7,0c3.3,2.2,18.4,8.4,18.4,8.4l12.8,5.3l-7.3,10.6l20.1,5.1
							c0,0-3.9,4.7-7.8,5.1c-3.9,0.4,6.1,0-12.3,0s-6.1,3.5-24,0.2s-21.8-3.3-21.8-3.3s-10-9.4-6.7-2c3.3,7.3,7.8,10.9,7.8,10.9
							s-3.3,11.5,12.3,15.1c15.6,3.5,12.8,2.7,19.5,4s14,3.5,14,3.5l-5.6,3.1h-14.5c0,0-11.7,0.9-16.2,0s3.3,9.7-0.6,10.2
							s-10-0.4-12.8,0s-2.8,0.4-2.8,0.4s-4.7,0.4-1.8,4c2.9,3.5-5.7-3.3,2.9,3.5c8.7,6.9,17.3,8,17.3,9.3s6.1,2.2,0,3.5
							s3.9,1.3-6.1,1.3s-21.2,0-21.2,0s-10,9.3-14.5,6.6c-4.5-2.7-6.1-5.3-6.1-5.3s-4.5,7.5-4.5,8.9s-3.3,5.8,6.7,6.6
							c10,0.9,21.2,4.4,21.2,4.4l7.3,1.8l-5.6,4.9c14,4.4,12.8,4,17.3,4.4s18.4,2.2,18.4,2.2c-7.3,2.7-14,4.4-16.2,5.8
							s-2.8,3.5-7.3,3.5s-12.3-1.8-15.1-2.2s-1.1-0.4-6.7-0.9c-5.6-0.4-6.1-0.4-11.2-0.4c-5,0-9.5,0.4-9.5,0.4l-9,5.3l16.7,4.4
							c0,0,10,0.9,13.4,2.2s3.3,6.2,3.3,6.2c-36.8,0-45.8,0-45.8,0l-3.9,6.2c0,0-2.2,2.2,5.6,4.4c7.8,2.2,13.4,3.5,19,4.4
							s5,5.3,5,5.3l-3.9,4.4c0,0-13.4-1.8,6.1,0s20.6,0.9,25.1-2.7c4.5-3.5-14.5-3.1,10.6-2.7s40.6,2.2,38.5,2.2s-17.8,4-17.8,4
							l-19.5,3.5l-12.3,4h-7.5l-11.7,5.8c0,0-24,5.8-22.3,6.6c1.7,0.9-6.7,4.4,19,6.6s31.8,3.1,33.5,2.7s6.7,1.1,16.7,0.1
							s14.5,0.3,14.5,0.3s0,8,0,4s-9.5,3.1-9.5,3.1H849l-19.5-2.2c0,0-10-1.3-11.7-0.9s-7.3,3.1-7.3,3.1v4.9c0,0,8.9,10.2,12.3,10.6
							c3.3,0.4,8.9,0.9,15.1,1.8c6.1,0.9,6.1,0.9,6.1,0.9l-10,4.9h-11.2c0,0-12.3,0-16.2,0s-9.5,0-9.5,0h-14
							c-6.1,4.4-13.4,7.5-10,8.4c3.3,0.9-5.6-1.3,6.7,3.1s24.6,8,29.6,8s14.5,0,14.5,0s0-2.7,15.6,0s11.7,3.1,24,5.8
							c12.3,2.7,11.2,7.1,21.2,1.8c10-5.3,0-5.3,10-5.3s2.2,5.8,21.2,1.3c19-4.5,28.5-7.1,28.5-7.1s6.7-1.8,11.7-3.5
							s6.1-1.8,8.4-2.2c2.2-0.4,6.1-5.8,6.7,0s-1.1,14.2-1.7,16.4c-0.6,2.2-0.6,20.8-0.6,20.8v9.7l-3.3,28.2l-7.3,20.5l68.6,5.8
							l-11.2-35.9l-10-32.3l-7.3-19l0.6-19.5h5.6c0,0,1.1,4.9,6.4,5.1s16.5,3.8,20.4,3.8c3.9,0,12.8,3.1,15.1,4.9
							c2.2,1.8,8.4,1.8,8.4,1.8s8.4-8,10-6.6c1.6,1.4,7.8,8.9,14.5,10.2c6.7,1.3,5,7.5,21.8,5.8s21.8,0.4,22.9-3.5
							c1.1-3.9,0.8-3.8,8.1-9.5c7.3-5.8,4.2-0.7,13.7-6s9.5-2.2,9.5-5.3s3.9-8.9-5-8c-8.9,0.9-9.5,1.3-14.5,1.8
							c-5,0.4-5.6,0.4-16.2,0.4c-10.6,0-14.8-3.3-14.8-3.3l-2.5-6.9c-5-4-2.8-7.1,0-8s3.9-0.9,12.8-0.9c8.9,0-1.1,0,8.9,0
							s20.1,0.4,21.2-0.9c1.1-1.3-6.7-1.3,1.1-1.3c7.8,0-1.7,2.7,7.8,0s12.3,4,15.1-2.7c2.8-6.6,6.4-9.5,6.4-9.5l-9.8-3.3l-26.8-2.7
							l-6.1-0.4c0,0,0,1.3-7.8-3.5c-7.8-4.9-7.8-4.9-7.8-4.9s-8.4-6.2-6.1-7.5s5.6-1.3,5.6-1.3s6.7,0,8.4,0s20.6-0.4,20.6-0.4
							c0-7.1,0.6-7.5-4.5-8.4c-5.1-0.9-14.5-8.4-14.5-8.4c7.3,0,29.6,0,29.6,0l21.8-6.2v-7.1c0,0-20.6,0-22.3,0
							c-1.7,0-14.5-0.4-18.4-2.2c-3.9-1.8-22.3-8.4-22.3-8.4l-10.6-1.8l-19-8c0,0,3.3-4.9,5.6-4.4c2.2,0.4,14,1.8,19,1.3
							c5-0.4,9.5-0.4,9.5-0.4l22.3-9.7c0,0-3.3,2.2,7.3,0.4c10.6-1.8,15.6-1.8,15.6-1.8s3.3-4.4,1.7-6.2c-1.7-1.8-8.9-4.9-11.2-5.3
							c-2.2-0.4-16.7-0.4-16.7-0.4s-4.5,0-17.9-1.8c-13.4-1.8-38.5-4-38.5-4s-11.2-2.7-5.6-4.4c5.6-1.8,14.5-0.4,19,0
							s0.3,3.8,4.5,0.4s2.5-4.6,1.1-5.8c-1.4-1.1-4.7,1.5-1.4-1.1c3.3-2.7,7-5.5,7-5.5l5.6-2.7c0,0,2.2-3.5-4.7-3.8
							c-7-0.2-18.1-2.9-18.1-2.9l-11.7-2.7c0,0,1.7-5.3,3.3-5.8c1.7-0.4,11.2,1.3,16.7-0.9c5.6-2.2,8.9-4,8.9-4s8.4-6.6,4.5-7.7
							c-3.9-1.1,2.8,6.4-15.1,0c-17.9-6.4-29.6-5.1-26.8-9.5c2.8-4.4,4.5-8.4,4.5-8.4l1.7-7.8l1.1-6.4l-19-0.4l-16.2-11.1
							c0,0,1.7-2.2,6.7-2.7c5-0.4,22.3-4,22.3-4s6.1-4.4,8.4-11.1c2.2-6.6,9.5-6.6-2.8-6.6s-17.3,0.4-17.3,0.4s-26.8,6.2-20.1-1.8
							c6.7-8,16.7-9.7,23.4-10.2c6.7-0.4,10,0,13.4-4.9c3.3-4.9,3.3-4.9,3.3-4.9s-9.5,0-17.3-0.4s-6.7-0.4-15.1-0.4
							c-8.4,0-14.5-0.4-14.5-0.4s3.9-6.2,7.3-6.6c3.3-0.4,13.4-3.1,13.4-3.1l9.5-8.9c-10.6,0,4.5,4-14.5,0s-19-4-19-4
							s-4.5-1.8-3.9-3.5c0.6-1.8,14.5-6.2,14.5-6.2s3.3,2.2,6.1-1.8s-1.1-0.9,2.8-4c3.9-3.1,6.7-4.9,5-5.3s-17.3-0.4-17.3-0.4
							s-2.2-0.4-6.1-1.3c-3.9-0.9-10-3.1-9.5-6.2c0.6-3.1,7.8-4,10-4.4s15.1-5.3,15.1-5.3s4.5-5.8,2.2-6.2c-2.2-0.4-3.9,0-12.3,0
							c-8.4,0-16.2,0-16.2,0c0-4-3.3-2.7-0.6-6.6c2.8-4-7.8,1.8,2.8-4c10.6-5.8,10.6-5.8,10.6-5.8l1.1-4.9l-18.4-0.9
							c0,0,3.3-1.3,0-4.9c-3.3-3.5-3.3,2.7-3.3-3.5s0-6.2,0-6.2l18.4-9.3c0,0-11.7-3.1-14.5-3.1s-10,0.9-11.2-2.7
							c-1.1-3.5-7-5.1-1.1-6.6s9.5-1.3,10-3.1c0.6-1.8,0-2.2-3.3-4.9c-3.3-2.7-3.3-1.8-3.3-4.9s0-8,0-8l-6.1-1.3
							c0,0-2.2-4.4-2.2-10.2s-1.1-4.9,3.1-8.2c4.2-3.3,4.2-4.2,4.2-6.9s-8.4-6.6-8.4-6.6s-3.6-3.5-2.7-7.5c1-4,1,0.4,1-4
							s-4.5-14.2-4.5-14.2L980.9,1119.9z"/>
					</g>
					<g>
						<path class="st5" d="M787.7,1116.7v16.5l-5,5.5l5,5.5l-9.5,5v6.7h9.5v12.9l-7.1,7.8v13.3l-9.4,2.1l-5.8,6.4l13.8,3.3l-10,11.1
							l13.3,6.4v10.8l-17-10.3l-10,6.2l13.3,14.7l-4.7,5.2h14.7v7.5l-15.4,6.7h-14.5l-2.3,9.3l12.6,8.8v12.9l-7.5,8.2l-16.3-6.2
							l-10.3-4.1v8.2l13.3,14.7h11.8v10H739l-14-5.7v9.3l7,7.7l5.8,6.4h-8.6h-10.3l-10.3-4.4v7.2l8.2,9l13.3,8v6.2h-7l-8.4-5.7
							l-11.7-4.1l-6.5-7.2l-8.4,5.7c0,0,2.3,8.2,5.6,11.3c3.3,3.1,8.9,9.3,10,10.6s1.2,9.5,1.2,9.5l1.9,6.7c0,0,4.2-2.6,6.1-2.1
							c1.9,0.5,8.4,2.1,8.4,2.1s0.9,5.2-0.9,5.2s-6.1,0-7.9,0s-12.6-6.7-15.9-7.7c-3.3-1-15.9-4.6-15.9-4.6h-5.1
							c0,0-3.3,4.1-2.8,5.7c0.5,1.5,4.7,9.8,4.7,9.8s2.8-2.6,5.6,0s15.4,9.8,15.4,9.8l10.7,6.2l-6.1,12.4l16.8,5.9
							c0,0-3.3,5.4-6.5,6c-3.3,0.5,5.1,0-10.3,0c-15.4,0-5.1,4.1-20.1,0.2c-14.9-3.8-18.2-3.8-18.2-3.8s-8.4-10.9-5.6-2.4
							c2.8,8.5,6.5,12.7,6.5,12.7s-2.8,13.4,10.3,17.5s10.7,3.1,16.3,4.6s11.7,4.1,11.7,4.1l-4.7,3.6h-12.1c0,0-9.8,1-13.5,0
							s2.8,11.3-0.5,11.8s-8.4-0.5-10.7,0s-2.3,0.5-2.3,0.5s-3.9,0.5-1.5,4.6s-4.8-3.9,2.4,4.1s14.5,9.3,14.5,10.8s5.1,2.6,0,4.1
							s3.3,1.5-5.1,1.5s-17.7,0-17.7,0s-8.4,10.8-12.1,7.7s-5.1-6.2-5.1-6.2s-3.7,8.8-3.7,10.3s-2.8,6.7,5.6,7.7
							c8.4,1,17.7,5.2,17.7,5.2l6.1,2.1l-4.7,5.7c11.7,5.2,10.7,4.6,14.5,5.2c3.7,0.5,15.4,2.6,15.4,2.6c-6.1,3.1-11.7,5.2-13.5,6.7
							c-1.9,1.5-2.3,4.1-6.1,4.1s-10.3-2.1-12.6-2.6s-0.9-0.5-5.6-1c-4.7-0.5-5.1-0.5-9.3-0.5s-7.9,0.5-7.9,0.5l-7.5,6.2l14,5.2
							c0,0,8.4,1,11.2,2.6c2.8,1.5,2.8,7.2,2.8,7.2c-30.8,0-38.3,0-38.3,0l-3.3,7.2c0,0-1.9,2.6,4.7,5.2c6.5,2.6,11.2,4.1,15.9,5.2
							c4.7,1,4.2,6.2,4.2,6.2l-3.3,5.2c0,0-11.2-2.1,5.1,0s17.3,1,21-3.1s-12.1-3.6,8.9-3.1s34,2.6,32.2,2.6s-14.9,4.6-14.9,4.6
							l-16.3,4.1l-10.3,4.6h-6.5l-9.8,6.7c0,0-20.1,6.7-18.7,7.7c1.4,1-5.6,5.2,15.9,7.7c21.5,2.6,26.6,3.6,28,3.1s5.6,1.3,14,0.1
							c8.4-1.2,12.1,0.4,12.1,0.4s0,9.3,0,4.6s-7.9,3.6-7.9,3.6h-7l-16.3-2.6c0,0-8.4-1.5-9.8-1s-6.1,3.6-6.1,3.6v5.7
							c0,0,7.5,11.8,10.3,12.4c2.8,0.5,7.5,1,12.6,2.1c5.1,1,5.1,1,5.1,1l-8.4,5.7h-9.3c0,0-10.3,0-13.5,0s-7.9,0-7.9,0h-11.7
							c-5.1,5.2-11.2,8.8-8.4,9.8s-4.7-1.5,5.6,3.6c10.3,5.2,20.5,9.3,24.7,9.3s12.1,0,12.1,0s0-3.1,13.1,0s9.8,3.6,20.1,6.7
							s9.3,8.2,17.7,2.1c8.4-6.2,0-6.2,8.4-6.2s1.9,6.7,17.7,1.5c15.9-5.2,23.8-8.2,23.8-8.2s5.6-2.1,9.8-4.1c4.2-2.1,5.1-2.1,7-2.6
							s5.1-6.7,5.6,0s-0.9,16.5-1.4,19.1s-0.5,24.2-0.5,24.2v11.3l-2.8,32.8l-6.1,23.9l57.4,6.7l-9.3-41.7l-8.4-37.6l-6.1-22.1
							l0.5-22.7h4.7c0,0,0.9,5.7,5.4,5.9c4.4,0.3,13.8,4.4,17,4.4s10.7,3.6,12.6,5.7s7,2.1,7,2.1s7-9.3,8.4-7.7s6.5,10.3,12.1,11.8
							s4.2,8.8,18.2,6.7c14-2.1,18.2,0.5,19.1-4.1s0.7-4.4,6.8-11.1s3.5-0.8,11.4-7s7.9-2.6,7.9-6.2s3.3-10.3-4.2-9.3
							s-7.9,1.5-12.1,2.1s-4.7,0.5-13.5,0.5c-8.9,0-12.4-3.9-12.4-3.9l-2.1-8c-4.2-4.6-2.3-8.2,0-9.3c2.3-1,3.3-1,10.7-1
							s-0.9,0,7.5,0c8.4,0,16.8,0.5,17.7-1s-5.6-1.5,0.9-1.5s-1.4,3.1,6.5,0s10.3,4.6,12.6-3.1c2.3-7.7,5.4-11.1,5.4-11.1l-8.2-3.9
							l-22.4-3.1l-5.1-0.5c0,0,0,1.5-6.5-4.1c-6.5-5.7-6.5-5.7-6.5-5.7s-7-7.2-5.1-8.8c1.9-1.5,4.7-1.5,4.7-1.5s5.6,0,7,0
							s17.3-0.5,17.3-0.5c0-8.2,0.5-8.8-3.7-9.8s-12.1-9.8-12.1-9.8c6.1,0,24.7,0,24.7,0l18.2-7.2v-8.2c0,0-17.3,0-18.7,0
							s-12.1-0.5-15.4-2.6s-18.7-9.8-18.7-9.8l-8.9-2.1l-15.9-9.3c0,0,2.8-5.7,4.7-5.2s11.7,2.1,15.9,1.5s7.9-0.5,7.9-0.5l18.7-11.3
							c0,0-2.8,2.6,6.1,0.5s13.1-2.1,13.1-2.1s2.8-5.2,1.4-7.2s-7.5-5.7-9.3-6.2c-1.9-0.5-14-0.5-14-0.5s-3.7,0-14.9-2.1
							c-11.2-2.1-32.2-4.6-32.2-4.6s-9.3-3.1-4.7-5.2c4.7-2.1,12.1-0.5,15.9,0c3.7,0.5,0.2,4.4,3.7,0.5s2.1-5.4,0.9-6.7
							s-4,1.8-1.2-1.3c2.8-3.1,5.8-6.4,5.8-6.4l4.7-3.1c0,0,1.9-4.1-4-4.4c-5.8-0.3-15.2-3.3-15.2-3.3l-9.8-3.1c0,0,1.4-6.2,2.8-6.7
							c1.4-0.5,9.3,1.5,14-1c4.7-2.6,7.5-4.6,7.5-4.6s7-7.7,3.7-9s2.3,7.5-12.6,0c-14.9-7.5-24.7-5.9-22.4-11.1s3.7-9.8,3.7-9.8
							l1.4-9l0.9-7.4l-15.9-0.5l-13.5-12.9c0,0,1.4-2.6,5.6-3.1c4.2-0.5,18.7-4.6,18.7-4.6s5.1-5.2,7-12.9s7.9-7.7-2.3-7.7
							s-14.5,0.5-14.5,0.5s-22.4,7.2-16.8-2.1s14-11.3,19.6-11.8s8.4,0,11.2-5.7s2.8-5.7,2.8-5.7s-7.9,0-14.5-0.5s-5.6-0.5-12.6-0.5
							s-12.1-0.5-12.1-0.5s3.3-7.2,6.1-7.7s11.2-3.6,11.2-3.6l7.9-10.3c-8.9,0,3.7,4.6-12.1,0c-15.9-4.6-15.9-4.6-15.9-4.6
							s-3.7-2.1-3.3-4.1s12.1-7.2,12.1-7.2s2.8,2.6,5.1-2.1c2.3-4.6-0.9-1,2.3-4.6c3.3-3.6,5.6-5.7,4.2-6.2
							c-1.4-0.5-14.5-0.5-14.5-0.5s-1.9-0.5-5.1-1.5c-3.3-1-8.4-3.6-7.9-7.2s6.5-4.6,8.4-5.2s12.6-6.2,12.6-6.2s3.7-6.7,1.9-7.2
							c-1.9-0.5-3.3,0-10.3,0s-13.5,0-13.5,0c0-4.6-2.8-3.1-0.5-7.7s-6.5,2.1,2.3-4.6c8.9-6.7,8.9-6.7,8.9-6.7l0.9-5.7l-15.4-1
							c0,0,2.8-1.5,0-5.7c-2.8-4.1-2.8,3.1-2.8-4.1s0-7.2,0-7.2l15.4-10.8c0,0-9.8-3.6-12.1-3.6s-8.4,1-9.3-3.1
							c-0.9-4.1-5.8-5.9-0.9-7.7c4.9-1.8,7.9-1.5,8.4-3.6s0-2.6-2.8-5.7s-2.8-2.1-2.8-5.7s0-9.3,0-9.3l-5.1-1.5
							c0,0-1.9-5.2-1.9-11.8s-0.9-5.7,2.6-9.5c3.5-3.9,3.5-4.9,3.5-8s-7-7.7-7-7.7s-3-4.1-2.2-8.8s0.8,0.5,0.8-4.6
							s-3.7-16.5-3.7-16.5L787.7,1116.7z"/>
					</g>
					<g>
						<path class="st5" d="M634.3,1009.4v16.5l-6.3,5.5l6.3,5.5l-12,5v6.7h12v12.9l-9,7.8v13.3l-11.9,2.1l-7.4,6.4l17.4,3.3
							l-12.7,11.1l16.8,6.4v10.8l-21.6-10.3l-12.7,6.2l16.8,14.7l-5.9,5.2h18.6v7.5l-19.5,6.7h-18.3l-3,9.3l16,8.8v12.9l-9.5,8.2
							l-20.7-6.2l-13-4.1v8.2l16.8,14.7h15.1v10h-14.2l-17.7-5.7v9.3l8.9,7.7l7.4,6.4h-10.8h-13l-13-4.4v7.2l10.3,9l16.8,8v6.2h-8.9
							l-10.6-5.7l-14.8-4.1l-8.3-7.2l-10.6,5.7c0,0,3,8.2,7.1,11.3c4.1,3.1,11.2,9.3,12.7,10.6s1.5,9.5,1.5,9.5l2.4,6.7
							c0,0,5.3-2.6,7.7-2.1s10.6,2.1,10.6,2.1s1.2,5.2-1.2,5.2s-7.7,0-10,0c-2.4,0-16-6.7-20.1-7.7s-20.1-4.6-20.1-4.6h-6.5
							c0,0-4.1,4.1-3.5,5.7c0.6,1.5,5.9,9.8,5.9,9.8s3.5-2.6,7.1,0s19.5,9.8,19.5,9.8l13.6,6.2l-7.7,12.4l21.3,5.9
							c0,0-4.1,5.4-8.3,6c-4.1,0.5,6.5,0-13,0s-6.5,4.1-25.4,0.2c-18.9-3.8-23.1-3.8-23.1-3.8s-10.6-10.9-7.1-2.4s8.3,12.7,8.3,12.7
							s-3.5,13.4,13,17.5c16.6,4.1,13.6,3.1,20.7,4.6c7.1,1.5,14.8,4.1,14.8,4.1l-5.9,3.6H507c0,0-12.4,1-17.1,0
							c-4.7-1,3.5,11.3-0.6,11.8s-10.6-0.5-13.6,0s-3,0.5-3,0.5s-5,0.5-1.9,4.6s-6.1-3.9,3.1,4.1c9.2,8,18.3,9.3,18.3,10.8
							s6.5,2.6,0,4.1s4.1,1.5-6.5,1.5s-22.5,0-22.5,0s-10.6,10.8-15.4,7.7c-4.7-3.1-6.5-6.2-6.5-6.2s-4.7,8.8-4.7,10.3
							s-3.5,6.7,7.1,7.7s22.5,5.2,22.5,5.2l7.7,2.1l-5.9,5.7c14.8,5.2,13.6,4.6,18.3,5.2c4.7,0.5,19.5,2.6,19.5,2.6
							c-7.7,3.1-14.8,5.2-17.1,6.7c-2.4,1.5-3,4.1-7.7,4.1s-13-2.1-16-2.6s-1.2-0.5-7.1-1c-5.9-0.5-6.5-0.5-11.8-0.5s-10,0.5-10,0.5
							l-9.5,6.2l17.7,5.2c0,0,10.6,1,14.2,2.6c3.5,1.5,3.5,7.2,3.5,7.2c-39,0-48.5,0-48.5,0l-4.1,7.2c0,0-2.4,2.6,5.9,5.2
							c8.3,2.6,14.2,4.1,20.1,5.2c5.9,1,5.3,6.2,5.3,6.2l-4.1,5.2c0,0-14.2-2.1,6.5,0s21.9,1,26.6-3.1c4.7-4.1-15.4-3.6,11.2-3.1
							c26.6,0.5,43.1,2.6,40.7,2.6c-2.3,0-18.9,4.6-18.9,4.6l-20.7,4.1l-13,4.6h-8.3l-12.4,6.7c0,0-25.4,6.7-23.6,7.7
							c1.8,1-7.1,5.2,20.1,7.7s33.7,3.6,35.5,3.1s7.1,1.3,17.7,0.1c10.6-1.2,15.4,0.4,15.4,0.4s0,9.3,0,4.6c0-4.6-10,3.6-10,3.6
							h-8.9l-20.7-2.6c0,0-10.6-1.5-12.4-1s-7.7,3.6-7.7,3.6v5.7c0,0,9.5,11.8,13,12.4c3.5,0.5,9.5,1,16,2.1c6.5,1,6.5,1,6.5,1
							l-10.6,5.7h-11.8c0,0-13,0-17.1,0s-10,0-10,0h-14.8c-6.5,5.2-14.2,8.8-10.6,9.8c3.5,1-5.9-1.5,7.1,3.6s26,9.3,31.3,9.3
							s15.4,0,15.4,0s0-3.1,16.6,0s12.4,3.6,25.4,6.7s11.8,8.2,22.5,2.1c10.6-6.2,0-6.2,10.6-6.2s2.4,6.7,22.5,1.5
							s30.1-8.2,30.1-8.2s7.1-2.1,12.4-4.1s6.5-2.1,8.9-2.6s6.5-6.7,7.1,0s-1.2,16.5-1.8,19.1s-0.6,24.2-0.6,24.2v11.3l-3.5,32.8
							l-7.7,23.9l72.7,6.7l-11.8-41.7l-10.6-37.6l-7.7-22.1l0.6-22.7h5.9c0,0,1.2,5.7,6.8,5.9c5.6,0.3,17.4,4.4,21.6,4.4
							c4.1,0,13.6,3.6,16,5.7s8.9,2.1,8.9,2.1s8.9-9.3,10.6-7.7s8.3,10.3,15.4,11.8c7.1,1.5,5.3,8.8,23.1,6.7
							c17.7-2.1,23.1,0.5,24.2-4.1c1.2-4.6,0.9-4.4,8.6-11.1c7.7-6.7,4.4-0.8,14.5-7c10-6.2,10-2.6,10-6.2s4.1-10.3-5.3-9.3
							s-10,1.5-15.4,2.1s-5.9,0.5-17.1,0.5s-15.7-3.9-15.7-3.9l-2.7-8c-5.3-4.6-3-8.2,0-9.3c3-1,4.1-1,13.6-1s-1.2,0,9.5,0
							s21.3,0.5,22.5-1s-7.1-1.5,1.2-1.5s-1.8,3.1,8.3,0c10-3.1,13,4.6,16-3.1s6.8-11.1,6.8-11.1l-10.3-3.9l-28.4-3.1l-6.5-0.5
							c0,0,0,1.5-8.3-4.1c-8.3-5.7-8.3-5.7-8.3-5.7s-8.9-7.2-6.5-8.8c2.4-1.5,5.9-1.5,5.9-1.5s7.1,0,8.9,0s21.9-0.5,21.9-0.5
							c0-8.2,0.6-8.8-4.7-9.8s-15.4-9.8-15.4-9.8c7.7,0,31.3,0,31.3,0l23.1-7.2v-8.2c0,0-21.9,0-23.6,0s-15.4-0.5-19.5-2.6
							s-23.6-9.8-23.6-9.8l-11.2-2.1l-20.1-9.3c0,0,3.5-5.7,5.9-5.2s14.8,2.1,20.1,1.5c5.3-0.5,10-0.5,10-0.5l23.6-11.3
							c0,0-3.5,2.6,7.7,0.5s16.6-2.1,16.6-2.1s3.5-5.2,1.8-7.2s-9.5-5.7-11.8-6.2c-2.4-0.5-17.7-0.5-17.7-0.5s-4.7,0-18.9-2.1
							s-40.8-4.6-40.8-4.6s-11.8-3.1-5.9-5.2c5.9-2.1,15.4-0.5,20.1,0c4.7,0.5,0.3,4.4,4.7,0.5s2.7-5.4,1.2-6.7s-5,1.8-1.5-1.3
							s7.4-6.4,7.4-6.4l5.9-3.1c0,0,2.4-4.1-5-4.4S750,1382,750,1382l-12.4-3.1c0,0,1.8-6.2,3.5-6.7c1.8-0.5,11.8,1.5,17.7-1
							s9.5-4.6,9.5-4.6s8.9-7.7,4.7-9s3,7.5-16,0c-18.9-7.5-31.3-5.9-28.4-11.1s4.7-9.8,4.7-9.8l1.8-9l1.2-7.4l-20.1-0.5l-17.1-12.9
							c0,0,1.8-2.6,7.1-3.1s23.6-4.6,23.6-4.6s6.5-5.2,8.9-12.9c2.4-7.7,10-7.7-3-7.7s-18.3,0.5-18.3,0.5s-28.4,7.2-21.3-2.1
							s17.7-11.3,24.8-11.8s10.6,0,14.2-5.7s3.5-5.7,3.5-5.7s-10,0-18.3-0.5s-7.1-0.5-16-0.5s-15.4-0.5-15.4-0.5s4.1-7.2,7.7-7.7
							c3.5-0.5,14.2-3.6,14.2-3.6l10-10.3c-11.2,0,4.7,4.6-15.4,0s-20.1-4.6-20.1-4.6s-4.7-2.1-4.1-4.1c0.6-2.1,15.4-7.2,15.4-7.2
							s3.5,2.6,6.5-2.1s-1.2-1,3-4.6c4.1-3.6,7.1-5.7,5.3-6.2s-18.3-0.5-18.3-0.5s-2.4-0.5-6.5-1.5s-10.6-3.6-10-7.2
							s8.3-4.6,10.6-5.2s16-6.2,16-6.2s4.7-6.7,2.4-7.2c-2.4-0.5-4.1,0-13,0s-17.1,0-17.1,0c0-4.6-3.5-3.1-0.6-7.7s-8.3,2.1,3-4.6
							c11.2-6.7,11.2-6.7,11.2-6.7l1.2-5.7l-19.5-1c0,0,3.5-1.5,0-5.7c-3.5-4.1-3.5,3.1-3.5-4.1s0-7.2,0-7.2l19.5-10.8
							c0,0-12.4-3.6-15.4-3.6s-10.6,1-11.8-3.1s-7.4-5.9-1.2-7.7c6.2-1.8,10-1.5,10.6-3.6s0-2.6-3.5-5.7s-3.5-2.1-3.5-5.7
							s0-9.3,0-9.3l-6.5-1.5c0,0-2.4-5.2-2.4-11.8s-1.2-5.7,3.3-9.5s4.4-4.9,4.4-8s-8.9-7.7-8.9-7.7s-3.9-4.1-2.8-8.8s1,0.5,1-4.6
							s-4.7-16.5-4.7-16.5L634.3,1009.4z"/>
					</g>
					<g>
						<path class="st5" d="M474.5,1157.1v16.5l-6.3,5.5l6.3,5.5l-12,5v6.7h12v12.9l-9,7.8v13.3l-11.9,2.1l-7.4,6.4l17.4,3.3
							l-12.7,11.1l16.8,6.4v10.8l-21.6-10.3l-12.7,6.2l16.8,14.7l-5.9,5.2h18.6v7.5l-19.5,6.7h-18.2l-3,9.3l16,8.8v12.9l-9.5,8.2
							l-20.7-6.2l-13-4.1v8.2l16.8,14.7h15.1v10h-14.2l-17.7-5.7v9.3l8.9,7.7l7.4,6.4h-10.9h-13l-13-4.4v7.2l10.3,9l16.8,8v6.2h-8.9
							l-10.6-5.7l-14.8-4.1l-8.3-7.2l-10.6,5.7c0,0,3,8.2,7.1,11.3c4.1,3.1,11.2,9.3,12.7,10.6c1.5,1.3,1.5,9.5,1.5,9.5l2.4,6.7
							c0,0,5.3-2.6,7.7-2.1c2.4,0.5,10.6,2.1,10.6,2.1s1.2,5.2-1.2,5.2c-2.4,0-7.7,0-10,0c-2.4,0-16-6.7-20.1-7.7
							s-20.1-4.6-20.1-4.6h-6.5c0,0-4.1,4.1-3.5,5.7c0.6,1.5,5.9,9.8,5.9,9.8s3.5-2.6,7.1,0s19.5,9.8,19.5,9.8l13.6,6.2l-7.7,12.4
							l21.3,5.9c0,0-4.1,5.4-8.3,6c-4.1,0.5,6.5,0-13,0s-6.5,4.1-25.4,0.2c-18.9-3.8-23.1-3.8-23.1-3.8s-10.6-10.9-7.1-2.4
							s8.3,12.7,8.3,12.7s-3.5,13.4,13,17.5c16.6,4.1,13.6,3.1,20.7,4.6s14.8,4.1,14.8,4.1l-5.9,3.6h-15.4c0,0-12.4,1-17.1,0
							s3.5,11.3-0.6,11.8s-10.6-0.5-13.6,0s-3,0.5-3,0.5s-5,0.5-1.9,4.6s-6.1-3.9,3.1,4.1s18.3,9.3,18.3,10.8s6.5,2.6,0,4.1
							s4.1,1.5-6.5,1.5s-22.5,0-22.5,0s-10.6,10.8-15.4,7.7c-4.7-3.1-6.5-6.2-6.5-6.2s-4.7,8.8-4.7,10.3s-3.5,6.7,7.1,7.7
							s22.5,5.2,22.5,5.2l7.7,2.1l-5.9,5.7c14.8,5.2,13.6,4.6,18.3,5.2c4.7,0.5,19.5,2.6,19.5,2.6c-7.7,3.1-14.8,5.2-17.1,6.7
							c-2.4,1.5-3,4.1-7.7,4.1s-13-2.1-16-2.6s-1.2-0.5-7.1-1s-6.5-0.5-11.8-0.5s-10,0.5-10,0.5l-9.5,6.2l17.7,5.2
							c0,0,10.6,1,14.2,2.6c3.5,1.5,3.5,7.2,3.5,7.2c-39,0-48.5,0-48.5,0l-4.1,7.2c0,0-2.4,2.6,5.9,5.2s14.2,4.1,20.1,5.2
							c5.9,1,5.3,6.2,5.3,6.2l-4.1,5.2c0,0-14.2-2.1,6.5,0s21.9,1,26.6-3.1s-15.4-3.6,11.2-3.1s43.1,2.6,40.7,2.6
							c-2.3,0-18.9,4.6-18.9,4.6l-20.7,4.1l-13,4.6h-8.3l-12.4,6.7c0,0-25.4,6.7-23.6,7.7s-7.1,5.2,20.1,7.7
							c27.2,2.6,33.7,3.6,35.5,3.1s7.1,1.3,17.7,0.1c10.6-1.2,15.4,0.4,15.4,0.4s0,9.3,0,4.6s-10,3.6-10,3.6h-8.9L314,1694
							c0,0-10.6-1.5-12.4-1s-7.7,3.6-7.7,3.6v5.7c0,0,9.5,11.8,13,12.4s9.5,1,16,2.1c6.5,1,6.5,1,6.5,1l-10.6,5.7H307
							c0,0-13,0-17.1,0s-10,0-10,0h-14.8c-6.5,5.2-14.2,8.8-10.6,9.8c3.5,1-5.9-1.5,7.1,3.6c13,5.2,26,9.3,31.3,9.3s15.4,0,15.4,0
							s0-3.1,16.6,0s12.4,3.6,25.4,6.7s11.8,8.2,22.5,2.1c10.6-6.2,0-6.2,10.6-6.2s2.4,6.7,22.5,1.5c20.1-5.2,30.1-8.2,30.1-8.2
							s7.1-2.1,12.4-4.1c5.3-2.1,6.5-2.1,8.9-2.6s6.5-6.7,7.1,0s-1.2,16.5-1.8,19.1s-0.6,24.2-0.6,24.2v11.3l-3.5,32.8l-7.7,23.9
							l72.7,6.7l-11.8-41.7l-10.6-37.6l-7.7-22.1l0.6-22.7h5.9c0,0,1.2,5.7,6.8,5.9c5.6,0.3,17.4,4.4,21.6,4.4
							c4.1,0,13.6,3.6,16,5.7s8.9,2.1,8.9,2.1s8.9-9.3,10.6-7.7s8.3,10.3,15.4,11.8s5.3,8.8,23.1,6.7s23.1,0.5,24.2-4.1
							c1.2-4.6,0.9-4.4,8.6-11.1c7.7-6.7,4.4-0.8,14.5-7c10-6.2,10-2.6,10-6.2s4.1-10.3-5.3-9.3c-9.5,1-10,1.5-15.4,2.1
							s-5.9,0.5-17.1,0.5c-11.2,0-15.7-3.9-15.7-3.9l-2.7-8c-5.3-4.6-3-8.2,0-9.3c3-1,4.1-1,13.6-1s-1.2,0,9.5,0s21.3,0.5,22.5-1
							s-7.1-1.5,1.2-1.5s-1.8,3.1,8.3,0s13,4.6,16-3.1s6.8-11.1,6.8-11.1l-10.3-3.9l-28.4-3.1l-6.5-0.5c0,0,0,1.5-8.3-4.1
							c-8.3-5.7-8.3-5.7-8.3-5.7s-8.9-7.2-6.5-8.8c2.4-1.5,5.9-1.5,5.9-1.5s7.1,0,8.9,0s21.9-0.5,21.9-0.5c0-8.2,0.6-8.8-4.7-9.8
							s-15.4-9.8-15.4-9.8c7.7,0,31.3,0,31.3,0l23.1-7.2v-8.2c0,0-21.9,0-23.6,0s-15.4-0.5-19.5-2.6s-23.6-9.8-23.6-9.8l-11.2-2.1
							l-20.1-9.3c0,0,3.5-5.7,5.9-5.2s14.8,2.1,20.1,1.5s10-0.5,10-0.5l23.6-11.3c0,0-3.5,2.6,7.7,0.5s16.6-2.1,16.6-2.1
							s3.5-5.2,1.8-7.2c-1.8-2.1-9.5-5.7-11.8-6.2c-2.4-0.5-17.7-0.5-17.7-0.5s-4.7,0-18.9-2.1s-40.8-4.6-40.8-4.6
							s-11.8-3.1-5.9-5.2c5.9-2.1,15.4-0.5,20.1,0c4.7,0.5,0.3,4.4,4.7,0.5s2.7-5.4,1.2-6.7c-1.5-1.3-5,1.8-1.5-1.3s7.4-6.4,7.4-6.4
							l5.9-3.1c0,0,2.4-4.1-5-4.4s-19.2-3.3-19.2-3.3l-12.4-3.1c0,0,1.8-6.2,3.5-6.7c1.8-0.5,11.8,1.5,17.7-1
							c5.9-2.6,9.5-4.6,9.5-4.6s8.9-7.7,4.7-9c-4.1-1.3,3,7.5-16,0c-18.9-7.5-31.3-5.9-28.4-11.1s4.7-9.8,4.7-9.8l1.8-9l1.2-7.4
							l-20.1-0.5l-17.1-12.9c0,0,1.8-2.6,7.1-3.1s23.6-4.6,23.6-4.6s6.5-5.2,8.9-12.9c2.4-7.7,10-7.7-3-7.7s-18.3,0.5-18.3,0.5
							s-28.4,7.2-21.3-2.1s17.7-11.3,24.8-11.8s10.6,0,14.2-5.7c3.5-5.7,3.5-5.7,3.5-5.7s-10,0-18.3-0.5s-7.1-0.5-16-0.5
							s-15.4-0.5-15.4-0.5s4.1-7.2,7.7-7.7s14.2-3.6,14.2-3.6l10-10.3c-11.2,0,4.7,4.6-15.4,0s-20.1-4.6-20.1-4.6s-4.7-2.1-4.1-4.1
							c0.6-2.1,15.4-7.2,15.4-7.2s3.5,2.6,6.5-2.1c3-4.6-1.2-1,3-4.6c4.1-3.6,7.1-5.7,5.3-6.2s-18.3-0.5-18.3-0.5s-2.4-0.5-6.5-1.5
							s-10.6-3.6-10-7.2s8.3-4.6,10.6-5.2c2.4-0.5,16-6.2,16-6.2s4.7-6.7,2.4-7.2c-2.4-0.5-4.1,0-13,0s-17.1,0-17.1,0
							c0-4.6-3.5-3.1-0.6-7.7s-8.3,2.1,3-4.6c11.2-6.7,11.2-6.7,11.2-6.7l1.2-5.7l-19.5-1c0,0,3.5-1.5,0-5.7
							c-3.5-4.1-3.5,3.1-3.5-4.1s0-7.2,0-7.2l19.5-10.8c0,0-12.4-3.6-15.4-3.6s-10.6,1-11.8-3.1s-7.4-5.9-1.2-7.7
							c6.2-1.8,10-1.5,10.6-3.6s0-2.6-3.5-5.7s-3.5-2.1-3.5-5.7s0-9.3,0-9.3l-6.5-1.5c0,0-2.4-5.2-2.4-11.8s-1.2-5.7,3.3-9.5
							c4.4-3.9,4.4-4.9,4.4-8s-8.9-7.7-8.9-7.7s-3.9-4.1-2.8-8.8c1-4.6,1,0.5,1-4.6s-4.7-16.5-4.7-16.5L474.5,1157.1z"/>
					</g>
					<g>
						<path class="st5" d="M1352.9,995.2v16.5l-6,5.5l6,5.5l-11.4,5v6.7h11.4v12.9l-8.5,7.8v13.3l-11.3,2.1l-7,6.4l16.5,3.3
							l-12,11.1l15.9,6.4v10.8l-20.4-10.3l-12,6.2l15.9,14.7l-5.6,5.2h17.6v7.5l-18.4,6.7h-17.3l-2.8,9.3l15.1,8.8v12.9l-8.9,8.2
							l-19.5-6.2l-12.3-4.1v8.2l15.9,14.7h14.2v10h-13.4l-16.7-5.7v9.3l8.4,7.7l7,6.4H1283h-12.3l-12.3-4.4v7.2l9.8,9l15.9,8v6.2
							h-8.4l-10-5.7l-14-4.1l-7.8-7.2l-10,5.7c0,0,2.8,8.2,6.7,11.3c3.9,3.1,10.6,9.3,12,10.6c1.4,1.3,1.4,9.5,1.4,9.5l2.2,6.7
							c0,0,5-2.6,7.3-2.1c2.2,0.5,10,2.1,10,2.1s1.1,5.2-1.1,5.2s-7.3,0-9.5,0s-15.1-6.7-19-7.7c-3.9-1-19-4.6-19-4.6h-6.1
							c0,0-3.9,4.1-3.3,5.7c0.6,1.5,5.6,9.8,5.6,9.8s3.3-2.6,6.7,0c3.3,2.6,18.4,9.8,18.4,9.8l12.8,6.2l-7.3,12.4l20.1,5.9
							c0,0-3.9,5.4-7.8,6c-3.9,0.5,6.1,0-12.3,0c-18.4,0-6.1,4.1-24,0.2c-17.9-3.8-21.8-3.8-21.8-3.8s-10-10.9-6.7-2.4
							s7.8,12.7,7.8,12.7s-3.3,13.4,12.3,17.5c15.6,4.1,12.8,3.1,19.5,4.6s14,4.1,14,4.1l-5.6,3.6h-14.5c0,0-11.7,1-16.2,0
							s3.3,11.3-0.6,11.8c-3.9,0.5-10-0.5-12.8,0s-2.8,0.5-2.8,0.5s-4.7,0.5-1.8,4.6s-5.7-3.9,2.9,4.1c8.7,8,17.3,9.3,17.3,10.8
							s6.1,2.6,0,4.1c-6.1,1.5,3.9,1.5-6.1,1.5s-21.2,0-21.2,0s-10,10.8-14.5,7.7c-4.5-3.1-6.1-6.2-6.1-6.2s-4.5,8.8-4.5,10.3
							s-3.3,6.7,6.7,7.7s21.2,5.2,21.2,5.2l7.3,2.1l-5.6,5.7c14,5.2,12.8,4.6,17.3,5.2c4.5,0.5,18.4,2.6,18.4,2.6
							c-7.3,3.1-14,5.2-16.2,6.7s-2.8,4.1-7.3,4.1s-12.3-2.1-15.1-2.6c-2.8-0.5-1.1-0.5-6.7-1c-5.6-0.5-6.1-0.5-11.2-0.5
							c-5.1,0-9.5,0.5-9.5,0.5l-9,6.2l16.7,5.2c0,0,10,1,13.4,2.6c3.3,1.5,3.3,7.2,3.3,7.2c-36.8,0-45.8,0-45.8,0l-3.9,7.2
							c0,0-2.2,2.6,5.6,5.2c7.8,2.6,13.4,4.1,19,5.2c5.6,1,5,6.2,5,6.2l-3.9,5.2c0,0-13.4-2.1,6.1,0s20.6,1,25.1-3.1
							s-14.5-3.6,10.6-3.1c25.1,0.5,40.6,2.6,38.5,2.6c-2.2,0-17.8,4.6-17.8,4.6l-19.5,4.1l-12.3,4.6h-7.8l-11.7,6.7
							c0,0-24,6.7-22.3,7.7s-6.7,5.2,19,7.7s31.8,3.6,33.5,3.1s6.7,1.3,16.7,0.1c10-1.2,14.5,0.4,14.5,0.4s0,9.3,0,4.6
							c0-4.6-9.5,3.6-9.5,3.6h-8.4l-19.5-2.6c0,0-10-1.5-11.7-1s-7.3,3.6-7.3,3.6v5.7c0,0,8.9,11.8,12.3,12.4
							c3.3,0.5,8.9,1,15.1,2.1c6.1,1,6.1,1,6.1,1l-10,5.7h-11.2c0,0-12.3,0-16.2,0s-9.5,0-9.5,0h-14c-6.1,5.2-13.4,8.8-10,9.8
							c3.3,1-5.6-1.5,6.7,3.6c12.3,5.1,24.6,9.3,29.6,9.3s14.5,0,14.5,0s0-3.1,15.6,0c15.6,3.1,11.7,3.6,24,6.7s11.2,8.2,21.2,2.1
							c10-6.2,0-6.2,10-6.2s2.2,6.7,21.2,1.5s28.5-8.2,28.5-8.2s6.7-2.1,11.7-4.1s6.1-2.1,8.4-2.6c2.2-0.5,6.1-6.7,6.7,0
							c0.6,6.7-1.1,16.5-1.7,19.1c-0.6,2.6-0.6,24.2-0.6,24.2v11.3l-3.3,32.8l-7.3,23.9l68.6,6.7l-11.2-41.7l-10-37.6l-7.3-22.1
							l0.6-22.7h5.6c0,0,1.1,5.7,6.4,5.9c5.3,0.3,16.5,4.4,20.4,4.4c3.9,0,12.8,3.6,15.1,5.7c2.2,2.1,8.4,2.1,8.4,2.1
							s8.4-9.3,10-7.7c1.7,1.5,7.8,10.3,14.5,11.8s5,8.8,21.8,6.7c16.7-2.1,21.8,0.5,22.9-4.1c1.1-4.6,0.8-4.4,8.1-11.1
							c7.3-6.7,4.2-0.8,13.7-7s9.5-2.6,9.5-6.2s3.9-10.3-5-9.3c-8.9,1-9.5,1.5-14.5,2.1s-5.6,0.5-16.2,0.5
							c-10.6,0-14.8-3.9-14.8-3.9l-2.5-8c-5-4.6-2.8-8.2,0-9.3c2.8-1,3.9-1,12.8-1c8.9,0-1.1,0,8.9,0s20.1,0.5,21.2-1
							c1.1-1.5-6.7-1.5,1.1-1.5c7.8,0-1.7,3.1,7.8,0s12.3,4.6,15.1-3.1s6.4-11.1,6.4-11.1l-9.8-3.9l-26.8-3.1l-6.1-0.5
							c0,0,0,1.5-7.8-4.1c-7.8-5.7-7.8-5.7-7.8-5.7s-8.4-7.2-6.1-8.8c2.2-1.5,5.6-1.5,5.6-1.5s6.7,0,8.4,0s20.6-0.5,20.6-0.5
							c0-8.2,0.6-8.8-4.5-9.8c-5-1-14.5-9.8-14.5-9.8c7.3,0,29.6,0,29.6,0l21.8-7.2v-8.2c0,0-20.6,0-22.3,0
							c-1.7,0-14.5-0.5-18.4-2.6c-3.9-2.1-22.3-9.8-22.3-9.8l-10.6-2.1l-19-9.3c0,0,3.3-5.7,5.6-5.2c2.2,0.5,14,2.1,19,1.5
							c5-0.5,9.5-0.5,9.5-0.5l22.3-11.3c0,0-3.3,2.6,7.3,0.5c10.6-2.1,15.6-2.1,15.6-2.1s3.3-5.2,1.7-7.2c-1.7-2.1-8.9-5.7-11.2-6.2
							c-2.2-0.5-16.7-0.5-16.7-0.5s-4.5,0-17.9-2.1c-13.4-2.1-38.5-4.6-38.5-4.6s-11.2-3.1-5.6-5.2c5.6-2.1,14.5-0.5,19,0
							s0.3,4.4,4.5,0.5s2.5-5.4,1.1-6.7c-1.4-1.3-4.7,1.8-1.4-1.3c3.3-3.1,7-6.4,7-6.4l5.6-3.1c0,0,2.2-4.1-4.7-4.4
							c-7-0.3-18.1-3.3-18.1-3.3l-11.7-3.1c0,0,1.7-6.2,3.3-6.7s11.2,1.5,16.7-1s8.9-4.6,8.9-4.6s8.4-7.7,4.5-9
							c-3.9-1.3,2.8,7.5-15.1,0c-17.9-7.5-29.6-5.9-26.8-11.1c2.8-5.2,4.5-9.8,4.5-9.8l1.7-9l1.1-7.4l-19-0.5l-16.2-12.9
							c0,0,1.7-2.6,6.7-3.1s22.3-4.6,22.3-4.6s6.1-5.2,8.4-12.9c2.2-7.7,9.5-7.7-2.8-7.7s-17.3,0.5-17.3,0.5s-26.8,7.2-20.1-2.1
							c6.7-9.3,16.7-11.3,23.4-11.8c6.7-0.5,10,0,13.4-5.7c3.4-5.7,3.3-5.7,3.3-5.7s-9.5,0-17.3-0.5s-6.7-0.5-15.1-0.5
							c-8.4,0-14.5-0.5-14.5-0.5s3.9-7.2,7.3-7.7c3.3-0.5,13.4-3.6,13.4-3.6l9.5-10.3c-10.6,0,4.5,4.6-14.5,0s-19-4.6-19-4.6
							s-4.5-2.1-3.9-4.1c0.6-2.1,14.5-7.2,14.5-7.2s3.3,2.6,6.1-2.1c2.8-4.7-1.1-1,2.8-4.6c3.9-3.6,6.7-5.7,5-6.2
							s-17.3-0.5-17.3-0.5s-2.2-0.5-6.1-1.5c-3.9-1-10-3.6-9.5-7.2c0.6-3.6,7.8-4.6,10-5.2c2.2-0.5,15.1-6.2,15.1-6.2
							s4.5-6.7,2.2-7.2c-2.2-0.5-3.9,0-12.3,0c-8.4,0-16.2,0-16.2,0c0-4.6-3.3-3.1-0.6-7.7c2.8-4.6-7.8,2.1,2.8-4.6
							s10.6-6.7,10.6-6.7l1.1-5.7l-18.4-1c0,0,3.3-1.5,0-5.7c-3.3-4.1-3.3,3.1-3.3-4.1s0-7.2,0-7.2l18.4-10.8c0,0-11.7-3.6-14.5-3.6
							s-10,1-11.2-3.1c-1.1-4.1-7-5.9-1.1-7.7c5.9-1.8,9.5-1.5,10-3.6c0.6-2.1,0-2.6-3.3-5.7s-3.3-2.1-3.3-5.7s0-9.3,0-9.3l-6.1-1.5
							c0,0-2.2-5.2-2.2-11.8s-1.1-5.7,3.1-9.5c4.2-3.9,4.2-4.9,4.2-8s-8.4-7.7-8.4-7.7s-3.6-4.1-2.7-8.8c0.9-4.7,1,0.5,1-4.6
							s-4.5-16.5-4.5-16.5L1352.9,995.2z"/>
					</g>
				</g>
			</g>
		</g>
	</g>
	<g>
		<path class="st5" d="M201.2,534l-9.8,19.9c-2,4.1-3.5,7.4-4.6,10s-1.8,4.5-2.1,5.9c0,0.7,0.3,1.2,1,1.6c0.4,0.2,0.7,0.3,1.1,0.4
			c0.4,0.1,1,0.3,1.7,0.5c1.4,0.4,3,1,4.7,1.6c1.7,0.7,3.2,1.3,4.5,2c5.9,2.9,7.4,7.1,4.6,12.7c-2.8,5.7-7.5,7-14.1,3.8
			c-2.7-1.4-4.4-2.2-4.9-2.7l0.2,0.1c-3.2-2-5.4-3.3-6.5-3.9c-0.4-0.2-1-0.4-1.8-0.8c-0.9-0.3-1.8-0.6-2.9-0.9c-1-0.2-2-0.5-3.2-1
			s-2-0.9-2.6-1.2c-5.1-2.5-5.9-7.6-2.2-15.1c0.5-1,1-2.1,1.6-3.3c0.6-1.3,1.4-2.6,2.2-4.1c0.3-0.6,0.6-1.2,1-1.8s0.7-1.2,0.9-1.7
			c0.5-0.8,0.9-1.5,1.2-2.1c0.3-0.6,0.5-1.1,0.7-1.4l5.2-10.1l14.2-28.8c4.5-9.2,10.2-12.1,17-8.8c1.3,0.7,2.7,2.2,4.1,4.6
			c1.4,2.4,2.7,5.2,3.9,8.5l26.3,76.3l17-34.6c2.3-4.7,2.3-7.5,0-8.7l-3.2-1.6c-0.7-0.4-1.5-0.7-2.4-1.1c-0.9-0.3-1.6-0.7-2.2-1
			c-1-0.5-1.6-0.7-1.8-0.8c-0.3-0.1-0.5-0.1-0.8-0.2s-0.6-0.2-1.1-0.4s-1.4-0.7-2.9-1.4c-2.7-1.3-4.6-3.2-5.5-5.7s-0.8-5,0.5-7.6
			c2.7-5.5,7-6.8,13-3.8c1.1,0.5,2.1,1.1,3.1,1.6c1,0.6,2,1.2,3,1.8c3.8,2.3,6.5,3.9,8.1,4.7c0.6,0.3,1.4,0.7,2.4,1.1
			c1,0.4,2,0.8,2.9,1.3c0.6,0.3,1.3,0.6,2,0.9c0.7,0.3,1.4,0.6,2.1,0.8c0.6,0.2,1.2,0.4,1.6,0.6c0.5,0.2,0.6,0.2,0.5,0.1
			c6,2.9,7.1,7.8,3.5,14.6c-0.8,1.7-1.7,3.3-2.7,5s-1.9,3.3-2.7,5l-24,48.9c-1.8,3.7-4.4,6.2-7.7,7.5c-3.3,1.3-6.6,1.1-9.8-0.5
			c-3.6-1.8-6.2-5-7.8-9.9L201.2,534z"/>
		<path class="st5" d="M309.2,410.6c2.5,1.8,4.4,3.3,5.7,4.4c1.3,1.1,2.2,2.2,2.5,3.3c0.4,1.1,0.2,2.2-0.3,3.3
			c-0.6,1.1-1.5,2.6-2.9,4.4l-35.4,48.5c-0.3,0.4-0.4,0.7-0.3,0.8c7.2,5.3,14.6,7.4,22.2,6.5c7.5-0.6,13.5-3.9,17.9-9.9
			c2.9-4,4.5-8.4,4.7-13.2s-1-8.9-3.6-12.3l-3.3-4.6c-1.1-1.8-1.7-3.7-1.8-5.7s0.6-3.8,1.9-5.7c4.1-5.6,8.8-6.4,14.2-2.5
			c7.3,5.3,11,13.8,11.1,25.4c0.1,11.1-3.1,21.2-9.7,30.2c-8.5,11.6-19,18-31.6,19.2c-12.5,1.1-25-2.9-37.6-12.1
			c-12.7-9.3-20.6-20.5-23.9-33.7c-3-13.2-0.3-25.7,8.2-37.3c3.9-5.4,8.3-9.5,13.1-12.5c4.8-2.9,10.1-4.9,15.8-5.8
			C287.8,400.1,298.9,403.1,309.2,410.6z M292.5,425.4c-4.8-3.5-10.3-4.8-16.5-3.9c-6.3,1.2-11.1,4.1-14.5,8.7
			c-3.4,4.7-4.9,10.8-4.3,18.1c0.8,6.8,3.3,11.8,7.6,15L292.5,425.4z"/>
		<path class="st5" d="M325,332.6c3.6-3.4,7.1-3.8,10.5-1.4c0.9-9.6,5.3-18.1,13.3-25.6c5.4-5.1,11.8-8.5,19.1-10.3l-0.1,0.1
			c7.8-1.8,14.4-1.5,19.7,0.9c4.6,2,9.4,5.7,14.3,10.9l24.6,26.2l6.4,6.8c1.6,1.5,2.8,2.1,3.7,2c0.5-0.5,1.1-1.1,1.8-1.9
			s1.3-1.4,1.7-2c0.4-0.5,0.8-1,1.1-1.4c0.3-0.4,0.8-0.9,1.4-1.4c1.7-1.6,3.9-2.5,6.4-2.5c2.5-0.1,4.5,0.7,6.1,2.4
			c1.8,1.9,2.6,4.3,2.2,7.1c-0.3,2.8-1.6,5.2-3.8,7.3c-0.5,0.5-1.3,1.1-2.3,2c-1.1,0.9-2.2,1.8-3.5,2.6c-1.6,1.2-3.4,2.5-5.2,3.9
			c-1.8,1.5-3.4,2.8-4.7,3.9c-1,0.9-1.9,1.9-2.9,2.9s-1.8,1.9-2.5,2.7c-1.9,2.3-3.4,4.2-4.6,5.6c-1.2,1.4-1.9,2.2-2.1,2.4
			c-5.2,4.9-10,5.1-14.3,0.5c-3.8-4.1-3.4-8.3,1.3-12.7c0.5-0.3,0.9-0.6,1.3-1c0.4-0.4,0.8-0.7,1.2-0.9c0.4-0.3,0.8-0.6,1.2-1
			c0.6-0.4,1-0.7,1.4-0.9c0.3-0.2,0.6-0.4,0.8-0.6c0.4-0.2,0.6-0.3,0.7-0.4c0.7-0.6-0.7-2.8-4-6.6c-1.1-1.2-2.2-2.4-3.2-3.7
			s-2.1-2.5-3.2-3.7l-7.6-8.4l-9.8-10.5c-4.1-4.4-7.4-7.4-9.9-9.1c-1.7-1.2-3.4-2-5.4-2.5c-1.9-0.5-3.8-0.6-5.6-0.4l0.1,0.1
			c-4.6,0.7-8.5,2.5-11.6,5.4c-6.5,6.1-9,12.8-7.6,19.9c1.2,5.1,5.7,11.9,13.5,20.2l17.2,18.4c3.1,3.3,5.3,5.4,6.6,6.4
			c1.3,0.9,2.3,1.1,2.9,0.6c0.1-0.1,0.3-0.4,0.7-1c0.4-0.5,0.8-1.1,1.3-1.8c0.4-0.7,0.8-1.4,1.3-2c0.4-0.6,1-1.3,1.8-2
			c4.5-4.2,8.7-4.1,12.8,0.3c4.1,4.4,3.5,9-1.7,13.9c-0.5,0.5-1.5,1.2-3.1,2.4c-1.6,1.1-3.3,2.4-5.3,3.9c-2.2,1.5-4.5,3.4-6.8,5.6
			c-0.9,0.8-1.9,1.8-3,3.1c-1.1,1.2-2.4,2.7-3.9,4.5l-2.9,3.3c-0.7,1-1.4,1.9-2.1,2.7s-1.2,1.3-1.4,1.4c-5.4,5.1-10.3,5.4-14.4,0.9
			c-3.9-4.2-3.6-8.4,0.8-12.5c0.5-0.5,0.9-0.8,1.3-1.1s0.8-0.5,1.3-0.8c1.5-0.9,3-2,4.3-3.2c1.2-1.1-0.1-3.7-3.7-7.7
			c-2.4-2.5-4.7-5.1-7-7.8s-4.7-5.3-7-7.8l-15.7-16.6l-4.8-4.5c-2.2-2-3.8-3.3-4.9-4s-1.9-1-2.6-0.7c-0.1,0.3-0.5,0.8-1.1,1.4
			c-0.6,0.7-1.1,1.3-1.4,1.7c-0.5,0.6-1,1.2-1.4,1.7s-0.9,1-1.4,1.4c-4.9,4.6-9.3,4.7-13.3,0.4s-3.2-9,2.4-14.3
			c0.4-0.4,0.7-0.7,0.9-1c0.2-0.3,0.6-0.5,1.1-0.7l5.4-3.9c0.5-0.5,1-1,1.6-1.6c0.6-0.6,1.1-1.3,1.6-1.9c0.7-0.8,1.3-1.5,1.8-2.1
			C323.6,334,324.3,333.4,325,332.6z"/>
		<path class="st5" d="M459.5,220c6.2-3.9,12.2-6.1,18-6.3c-1-3.8,0.5-6.9,4.4-9.4c5.3-3.4,9.5-2.6,12.6,2.3
			c0.1,0.2,0.3,0.5,0.3,0.7c0.1,0.3,0.3,0.7,0.7,1.2c0.3,0.5,0.6,1,0.9,1.7c0.3,0.7,0.7,1.3,1,1.8c0.4,1.2,0.9,2.3,1.4,3.3
			c0.5,1.1,1.1,2.1,1.7,3c0.9,1.5,2.2,3.1,3.8,4.9c1,1.1,1.9,2.1,2.6,3c0.7,0.9,1.3,1.7,1.8,2.5c3.6,5.6,2.8,10.1-2.5,13.5
			c-5.2,3.3-9.4,2.6-12.7-2.1l-3.6-5.3c-1.8-2.5-4.7-3.7-8.9-3.7c-4.2,0.1-8.3,1.4-12.5,4.1c-4,2.6-6.8,5.8-8.3,9.6
			c-1.5,3.8-1.2,7.3,0.8,10.4c1.7,2.7,4.2,4.2,7.3,4.4c3.2,0.3,6.7-0.4,10.6-1.9c1.7-0.8,3.4-1.5,5.1-2.3c1.7-0.7,3.3-1.5,5-2.3
			c21.4-9.9,36.5-8.1,45.3,5.6c5.2,8.2,6.3,17.1,3.2,26.9c-3.3,9.1-9.9,16.8-19.8,23.1c-7.4,4.7-15.2,7.4-23.4,7.9
			c2.2,4.6,0.8,8.5-4,11.6c-5.7,3.7-10.4,2.6-14.2-3.2c-0.9-1.8-1.5-3.3-2-4.4c-0.5-1.1-0.9-2.1-1.3-3c-0.4-0.9-0.8-1.7-1.3-2.6
			c-0.5-0.9-1.2-2.1-2.2-3.7c-0.8-1.2-1.7-2.5-2.8-3.8s-2.1-2.5-3.1-3.6c-1.3-1.2-2.4-2.6-3.4-4.2c-3.3-5.2-2.3-9.4,2.9-12.8
			c3.6-2.3,6.4-2.7,8.4-1.3c1.9,1.2,4.3,4,7.3,8.4c2.6,3.9,6.8,5.7,12.4,5.5c5.7-0.2,11.8-2.4,18.4-6.6c4.4-2.8,7.3-6.2,8.7-10.2
			c1.5-4,1.1-7.8-1.2-11.2c-3.8-5.9-11-6.2-21.5-0.9c-6.3,3.1-12,5.5-17.1,7.3c-5.2,1.8-9.8,2.8-14.1,2.8c-4.2,0.1-8-0.8-11.5-2.7
			c-3.4-1.9-6.6-5-9.4-9.4c-2.6-4-4.1-8.2-4.7-12.7c-0.5-4.4-0.1-8.7,1.3-12.9c1.4-4.2,3.7-8.3,6.9-12.2
			C450.5,226.7,454.5,223.1,459.5,220z"/>
		<path class="st5" d="M595.5,226c1.3,2.8,2.3,5,3,6.6s1.3,2.7,1.7,3.3c2,3.5,3.4,5,4.1,4.7c-0.1,0,0.2-0.1,0.8-0.6
			c0.7-0.5,1.5-1,2.5-1.8l-0.1,0.3c0.3-0.3,0.7-0.6,1.2-1s1.2-0.7,2-1.1c6.3-2.9,10.6-1.7,13.1,3.6c1.1,2.4,1,4.9-0.2,7.4
			c-1.3,2.5-3.4,4.4-6.4,5.8c-1,0.4-2.2,0.9-3.7,1.5s-3.3,1.2-5.3,1.8c-1.9,0.6-3.6,1.1-5,1.5c-1.4,0.4-2.5,0.8-3.4,1.2
			c-1.3,0.6-2.8,1.4-4.4,2.2c-1.6,0.9-3.2,1.8-4.9,2.9c-2.1,1.2-3.8,2.3-5.2,3.2s-2.6,1.5-3.6,2c-6.5,3-11.1,1.7-13.6-3.8
			c-2.5-5.3-0.7-9.3,5.2-12.1c0.2-0.1,1-0.4,2.2-0.8s2.2-0.7,3-0.9c1-0.1,1.7-0.3,2.2-0.6c0.5-0.2,0.8-0.4,1.1-0.5
			c1-0.5,0.3-3.7-2-9.6l-20.1-43.7c-3-5.5-5-8-6.1-7.5c-0.2,0.1-0.6,0.4-1.2,0.8c-0.5,0.4-1.2,0.9-1.9,1.5c-0.5,0.5-1.1,1-1.9,1.4
			c-0.8,0.4-1.4,0.7-1.9,1c-6.2,2.8-10.5,1.6-12.9-3.7c-2.5-5.4-0.3-9.8,6.8-13c1.3-0.6,2.4-1.1,3.3-1.5c0.8-0.4,1.5-0.6,1.9-0.7
			c1.8-0.5,3.3-1,4.5-1.4s2-0.7,2.4-0.9c0.2-0.1,0.7-0.4,1.5-0.8s1.5-0.9,2.1-1.3l4.5-2.7c5.2-2.4,9.2-0.6,12,5.5l1.2,2.5
			c0.1,0.5,0.2,1,0.4,1.3c0.1,0.3,0.2,0.5,0.3,0.6c0,0.4,0.8,2.1,2.2,5.2c0.4,0.8,0.8,1.7,1.1,2.7c0.4,0.9,0.8,1.9,1.2,2.9
			c1,2.5,2,4.9,3.1,7.2c1.1,2.4,2.2,4.7,3.3,7.2L595.5,226z M553.7,166.6c-3.5,1.6-7,1.8-10.5,0.7c-3.5-1.2-6-3.5-7.6-6.9
			s-1.6-6.8-0.3-10.1c1.4-3.4,3.8-5.8,7.3-7.4s7-1.9,10.5-0.8c3.5,1.1,6,3.3,7.6,6.7s1.6,6.8,0.2,10.2
			C559.6,162.5,557.2,165,553.7,166.6z"/>
		<path class="st5" d="M641.3,112.2c0.5,2.6,0.9,4.9,1.3,6.9c0.4,2,0.8,4,1.2,6c0.5,2,1,4.2,1.5,6.6c0.6,2.4,1.3,5.3,2.3,8.8
			c2.4-4.3,5.2-7.5,8.4-9.7s7.6-4.1,12.9-5.6c13.2-3.8,24.9-2.3,35.2,4.5c10.3,6.9,17.6,17.6,21.8,32.1c2.2,7.7,3.2,15.1,2.8,22.3
			s-1.7,13.7-4,19.7c-2.6,6-6.2,11-11,15s-10.6,7-17.5,9c-9.8,2.9-18.5,2.6-25.8-0.8c0.2,4.4-2.2,7.3-7.2,8.8
			c-6.4,1.9-10.7-1.1-13-8.9c-0.3-0.9-0.5-1.7-0.7-2.5s-0.3-1.4-0.4-2c-0.4-1.4-0.8-2.8-1.2-4.2c-0.4-1.4-0.7-2.8-1-4.3l-3.5-14.2
			c-0.7-2.6-1.6-5.6-2.5-9.2s-1.7-6.6-2.5-9.2l-14.5-48.4c-1.1-3.4-2-5.7-2.7-6.8s-1.4-1.6-2.2-1.3c-0.5,0.1-1.9,0.8-4.2,2
			c-0.6,0.3-1.2,0.6-1.9,0.7c-0.6,0.2-1.3,0.4-1.9,0.6c-6.1,1.8-10-0.1-11.6-5.6c-1.7-5.8,1-9.6,7.9-11.6c0.6-0.2,1.4-0.4,2.2-0.6
			c0.8-0.2,1.5-0.4,2.1-0.4l3.8-0.5c0.2-0.1,0.6-0.1,1-0.2c0.4,0,0.7-0.1,1-0.2c0.7-0.1,1.2-0.2,1.7-0.3c0.4-0.1,0.9-0.2,1.2-0.4
			c0.5-0.2,1.3-0.4,2.2-0.9c1-0.4,2-0.9,3.1-1.5c1.8-0.9,3.6-1.7,5.4-2.2c4.7-1.4,7.8,0.5,9.3,5.6L641.3,112.2z M656.5,165.4
			c0.1,3.8,1.2,9.2,3.2,16.1c3.3,11.2,6.5,18.9,9.6,23c5.7,6.8,13,8.9,22,6.3c7.5-2.2,12.6-7,15.1-14.4s2.2-16.2-0.8-26.6
			c-3.1-10.6-7.5-18.3-13.4-23.1c-5.8-4.8-12.3-6.2-19.5-4.1c-2.6,0.7-4.9,1.9-6.9,3.4c-2.1,1.5-3.8,3.3-5.3,5.3s-2.6,4.2-3.3,6.7
			C656.6,160.3,656.3,162.8,656.5,165.4z"/>
		<path class="st5" d="M801.7,179.8c0.7,4.6,1.7,6.8,2.7,6.7c0.3,0,0.6-0.2,1-0.3c0.3,0,0.6-0.1,0.9-0.2c0.3-0.1,0.7-0.3,1.2-0.5
			c0.3,0,0.5-0.1,0.8-0.2c0.2-0.1,0.5-0.2,0.8-0.2s0.4-0.1,0.4-0.2s0.1-0.1,0.4-0.2c0.2-0.2,0.6-0.3,1.1-0.3
			c0.5-0.1,0.8-0.1,1.1-0.1c6.2-0.8,9.7,1.7,10.5,7.7c0.8,5.9-2.4,9.4-9.7,10.4c-1.1,0.1-2.4,0.3-4.1,0.3c-1.7,0.1-3.6,0.2-5.9,0.2
			c-2.1,0-4.1,0.1-5.7,0.2c-1.7,0.1-3,0.2-4.1,0.3c-0.9,0.1-2.1,0.4-3.5,0.7c-1.4,0.3-3.1,0.7-5.1,1.3c-1.8,0.5-3.5,0.9-5.1,1.3
			c-1.6,0.3-2.9,0.6-3.9,0.7l-1,0.1c-7.4,1-11.5-1.7-12.4-8c-0.7-5.5,2.1-8.7,8.6-9.6l2-0.3c0.5,0.1,1.1,0.1,1.6,0
			c1.6,0,2.8,0.1,3.4,0.1c0.7,0,1.1,0,1.4,0c0.5-0.1,0.9-0.5,1.1-1.2c0.1-1,0.1-2.6-0.1-5c-0.2-2.4-0.5-5.6-0.9-9.5
			c-0.3-2.2-0.6-4.5-0.8-6.6c-0.2-2.2-0.5-4.3-0.8-6.4l-3.3-29.2c-0.3-2.1-0.6-4.6-1-7.5s-0.8-5.9-1.3-9.1c-0.5-3.2-0.9-6.2-1.3-9.1
			c-0.4-2.9-0.7-5.4-1-7.5l-1.6-7.4c-0.3-0.4-0.7-0.7-1.1-1.1c-0.5-0.3-0.9-0.5-1.3-0.4c-0.1,0-1.7,0.5-4.6,1.4
			c-0.6,0.2-1.2,0.4-1.7,0.4c-0.5,0.1-1,0.1-1.7,0.2c-6.5,0.9-10.1-1.5-10.8-7.2c-0.8-5.9,2.4-9.4,9.5-10.3c0.7-0.1,1.4-0.2,2.3-0.3
			c0.9-0.1,1.5-0.1,1.9-0.1l4,0.1c0.3,0,0.5,0,0.8,0s0.5,0,0.8,0c0.7,0,1.3,0,1.9,0c0.6-0.1,1.2-0.2,1.7-0.2c0.3,0,0.9-0.2,1.9-0.4
			s2-0.5,3-0.9c1.1-0.4,2.2-0.8,3.2-1c1-0.3,2-0.5,3-0.6c4.9-0.7,7.7,1.7,8.4,7.1c0.1,0.8,0.2,1.4,0.3,1.8c0.1,0.4,0.1,0.9-0.1,1.4
			c0.5,9.9,1.9,23.4,4.3,40.7L801.7,179.8z"/>
		<path class="st5" d="M896.3,173c3.5-9.1,7-18.1,10.6-27s7.1-17.9,10.4-27v0.2c0.4-1.3,0.6-2.5,0.7-3.4c0-0.4-0.3-0.6-1-0.6
			c-0.9,0-1.9,0.1-3,0.3c-0.5,0-1.1,0-1.7,0.1s-1,0.1-1.3,0.1s-0.5,0-0.8,0.1s-0.5,0.1-0.8,0.1c-6.3-0.1-9.3-3.1-9.2-8.9
			c0.1-6,3.9-8.9,11.3-8.8c0.3,0,0.7,0,1.4,0c0.7,0,1.3,0.1,1.8,0.2c0.1,0,0.2,0,0.3,0.1c0.1,0.1,0.2,0.1,0.5,0.1l6.8,1.1
			c0.9,0.2,1.8,0.2,2.7,0.2c0.9,0,1.8,0,2.9,0c0.9,0,2.1,0,3.6,0s3.3-0.2,5.4-0.4s4-0.4,5.7-0.5s3.1-0.2,4.3-0.1
			c7.4,0.1,11.1,3.1,11,9s-3.3,8.7-9.5,8.6c-1.9,0-3.1-0.2-3.6-0.5c-0.4-0.1-0.8-0.2-1.1-0.2c-0.3,0-0.6-0.1-0.9-0.2
			c-0.3,0-0.5-0.1-0.6-0.2c-0.9,0-2.4,2.6-4.5,7.9l-26.8,63.8c-5.7,13.9-11.4,24.4-17.1,31.5c-9.2,11.4-20.8,17-34.8,16.8
			c-8.7-0.1-15.7-2.4-21.3-6.7c-6-4.6-9-10.1-8.9-16.3c0.1-4.7,1.6-8.5,4.5-11.4c2.9-3,6.7-4.4,11.3-4.3c3.9,0.1,7,1.2,9.4,3.4
			c2.4,2.2,3.6,5,3.6,8.3c-0.1,3.7-1.4,6.4-3.9,8.1c0.8,0.5,1.6,0.9,2.5,0.9c0.9,0.1,2,0.1,3.3,0.2c5.9,0.1,11.1-2.1,15.9-6.5
			c4.9-4.3,7.3-9.2,7.4-14.6c0-2.8-1.5-8.3-4.7-16.7L858.2,127c-0.1-0.5-0.3-1.1-0.6-1.6s-0.5-1.2-0.8-1.9s-0.5-1.6-0.8-2.7
			c-1.8-4.6-3.2-6.8-4.3-6.9c-0.3,0-0.6,0-1.1,0.1s-1,0.1-1.7,0.3c-1.1,0.1-2.3,0.3-3.7,0.4c-1.4,0.2-2,0.3-1.7,0.3
			c-6.4-0.1-9.5-3.1-9.4-8.9c0.1-6,4.1-8.9,12.1-8.8c0.9,0,1.9,0,2.8,0c0.9,0,1.6,0.1,2,0.2c1.2,0.2,2.4,0.3,3.5,0.6
			s2.3,0.4,3.5,0.6h2.2c0.7,0.1,1.2,0.2,1.6,0.2c2.3,0,4.6,0,6.9-0.1c2.3-0.1,4.8-0.2,7.3-0.5c4-0.3,6.7-0.5,8.2-0.5
			c7.4,0.1,11.1,3.1,11,9c-0.1,6-3.6,8.9-10.5,8.8c-0.5,0-1.2,0-1.9-0.1s-1.4-0.2-2.1-0.3c-0.4,0-0.8,0-1.3-0.1s-0.9-0.1-1.3-0.1
			c0,0.8,0.2,1.6,0.6,2.4L896.3,173z"/>
		<path class="st5" d="M1188.9,154.2c1.2,0.5,2.5,1.1,3.7,1.7c1.2,0.7,2.4,1.4,3.6,2.1c3.1-4.8,7.1-7.8,12.1-9.1
			c4.9-1.3,10.7-0.6,17.4,2.1c6.3,2.6,10.8,6.3,13.6,11.2c2.8,4.9,3.2,9.9,1.1,14.9c-1.5,3.6-3.9,6.1-7.3,7.6
			c-3.4,1.5-6.7,1.5-9.9,0.2c-2.6-1.1-4.5-2.9-5.8-5.5s-1.4-5.2-0.4-7.6c0.5-1.1,1-2.1,1.7-2.9s1.9-1.4,3.5-1.9
			c-0.4-0.5-0.8-0.9-1.3-1.3s-1-0.7-1.5-0.9c-3.9-1.6-7.2,0.2-9.8,5.4c3,5,4.8,10,5.3,15.1c0.6,5.1-0.2,10.2-2.3,15.3
			c-3.6,8.7-10,14.7-19.2,17.8c-8.9,3.1-18.3,2.6-28.1-1.5c-3.6-1.5-7-3.3-10.2-5.5s-6.2-4.9-9.1-8.1c-1.6-1.4-2.6-2.2-3.1-2.4
			c-0.9-0.4-1.8-0.2-2.9,0.4c-1.1,0.6-1.9,1.6-2.4,3c-1.8,4.4,2.4,8.8,12.6,13l1.1,0.5c0.4,0.2,0.8,0.3,1.2,0.5
			c0.4,0.2,1,0.3,1.6,0.5l2.4,1c11.3,4.7,20.1,9.6,26.5,14.8c6.1,5.1,10.3,10.8,12.5,17c2.2,6.3,2.1,12.3-0.3,18.2
			c-1.9,4.7-4.7,8.4-8.4,11.2c-3.7,2.8-8.1,4.7-13.2,5.6c-5.1,0.9-10.9,0.8-17.2-0.2c-6.3-1-13.1-3-20.2-6
			c-14.4-5.9-24.6-13.1-30.6-21.5c-6-8.4-7.2-17.1-3.5-26.1c3.6-8.7,10.7-13.7,21.2-14.8c-5.8-7-7.1-14.1-4.1-21.4
			c1.6-3.9,4.2-7,7.9-9.1c3.6-2.1,7.8-3.3,12.5-3.5c-0.5-2.6-0.5-5.1-0.1-7.4c0.4-2.3,1.2-4.6,2.2-7.1c3.5-8.5,9.9-14.3,19.1-17.6
			C1169.5,149.4,1178.9,150.1,1188.9,154.2z M1154.8,238.6c-8.5-3.5-15.6-5-21.4-4.6s-9.5,2.6-11.1,6.5c-1.7,4.1-0.7,8.2,3.1,12.4
			c3.7,4.2,9.6,8,17.6,11.3c8.5,3.5,15.6,5.1,21.5,4.8c5.8-0.3,9.6-2.5,11.2-6.4c1.7-4.1,0.7-8.2-3-12.5
			C1169,245.9,1163.1,242,1154.8,238.6z M1182.6,170.9c-4.3-1.8-8.5-2-12.7-0.7c-4.1,1.3-7.1,3.9-9,7.7l-0.3,0.7
			c-1.9,4.6-1.9,8.8,0,12.6c1.9,3.9,5.1,6.8,9.8,8.7c5,2.1,9.6,2.4,13.8,1.1c4.2-1.4,7.1-4.2,8.9-8.5s1.6-8.5-0.4-12.6
			C1190.7,175.8,1187.3,172.8,1182.6,170.9z"/>
		<path class="st5" d="M1298.6,213.5c3.7,2.4,4.9,5.2,3.7,8.6c8.6-1.3,16.7,0.5,24.3,5.4c4.2,2.7,7.5,5.7,10.1,9
			c2.6,3.3,4.4,6.9,5.5,10.6c1.1,3.8,1.3,7.6,0.7,11.5c-0.6,3.9-2.1,7.7-4.4,11.4c-3.4,5.4-7.6,8.8-12.6,10.3
			c-4.9,1.5-9.7,0.8-14.4-2.3c-3.2-2.1-5.4-4.8-6.3-8.1c-1-3.3-0.5-6.4,1.2-9.2c1.4-2.2,3.7-3.7,6.7-4.3c3-0.6,5.7-0.2,8,1.4
			c0.2,0.1,0.2,0.1,0-0.2c-0.2-0.3-0.1-0.1,0.3,0.4l0.5-0.8c1.6-2.5,1.8-5.2,0.7-8.3c-1.1-3.1-3.3-5.7-6.5-7.7
			c-7.1-4.5-13.8-4.3-20.4,0.7c-4.4,3.5-9.5,9.6-15.1,18.3l-6.8,10.6c-2.1,3.2-3.7,5.8-5,7.7c-1.2,1.9-1.9,3.1-2.1,3.6
			c-2.6,5.3-3.4,8.2-2.6,8.8c0.7,0.4,1.3,0.8,1.9,1.1c0.6,0.3,1.2,0.6,1.8,0.8c1.7,0.5,3.2,1.1,4.3,1.8c5.2,3.3,6.2,7.4,3.1,12.2
			c-3.4,5.3-8.1,5.9-14.3,2l-0.5-0.3c-0.9-0.6-2-1.3-3.2-2.3c-1.2-0.9-2.6-2.1-4.1-3.4c-3-2.4-5.2-4.1-6.6-4.9
			c-2.1-1.4-4-2.5-5.6-3.5c-1.6-1-3.1-1.8-4.4-2.4l-9.6-5c-6.2-4-7.6-8.6-4.2-13.8c3-4.7,7.4-5.2,13.3-1.5c0.6,0.4,1,0.6,1.5,0.8
			c0.4,0.2,0.8,0.6,1.3,1.2l1.7,1.8l1.3,0.9c0,0.2,0.2,0.3,0.4,0.5l0.2,0.1c1,0.6,2.6-0.7,4.9-4c0.9-1.3,1.8-2.7,2.7-3.9
			c1-1.3,1.9-2.6,2.8-3.9l22.7-36.4c2.4-4.3,3.4-7,2.8-8.1c-0.2-0.1-0.8-0.4-1.8-0.9s-1.6-0.8-2-1l0.3,0.2c-1.6-0.5-3.1-1.2-4.5-2.2
			c-5.3-3.4-6.3-7.5-3.2-12.5c3.3-5.2,8.1-5.7,14.4-1.7c0.1,0.2,0.8,0.8,1.9,1.5c1.1,0.8,2,1.5,2.9,2.2c0.8,0.7,1.6,1.3,2.5,1.9
			c0.8,0.6,1.4,1,1.9,1.3c0.2,0.1,0.5,0.3,0.9,0.6c0.4,0.2,0.9,0.5,1.5,0.7c0.2,0.1,0.4,0.2,0.6,0.3c0.2,0.1,0.5,0.2,0.8,0.4
			C1296.1,212.1,1297.4,212.7,1298.6,213.5z"/>
		<path class="st5" d="M1423.4,364.1c-2.1,2.3-3.7,4-5,5.2s-2.5,1.9-3.6,2.1c-1.1,0.2-2.2,0-3.3-0.7s-2.4-1.8-4.1-3.3l-44.5-40.4
			c-0.4-0.4-0.6-0.5-0.7-0.4c-6,6.6-8.9,13.7-8.9,21.3c-0.2,7.5,2.5,13.8,8,18.8c3.6,3.3,7.8,5.3,12.6,6c4.7,0.7,8.9,0,12.6-2.3
			l5-2.8c1.9-0.9,3.9-1.3,5.8-1.2c1.9,0.1,3.7,1,5.4,2.5c5.1,4.7,5.4,9.4,1,14.4c-6.1,6.7-14.9,9.5-26.4,8.3
			c-11.1-1.1-20.7-5.4-29-12.9c-10.6-9.7-15.9-20.8-15.7-33.4c0.2-12.5,5.6-24.6,16.1-36.1c10.6-11.6,22.6-18.3,36.1-20.1
			c13.5-1.6,25.6,2.5,36.2,12.1c4.9,4.5,8.6,9.2,11,14.3c2.4,5.1,3.8,10.5,4,16.3C1436.2,343.9,1432,354.6,1423.4,364.1z
			 M1410.5,345.9c4-4.4,5.9-9.8,5.6-16c-0.5-6.4-2.9-11.5-7.1-15.3c-4.3-3.9-10.2-6-17.5-6.2c-6.9,0-12.1,2-15.7,6L1410.5,345.9z"/>
		<path class="st5" d="M1505.6,464.3c-2.4,1.9-4.4,3.3-5.8,4.2c-1.4,1-2.7,1.5-3.9,1.5c-1.1,0-2.2-0.4-3.1-1.2
			c-0.9-0.9-2.1-2.2-3.5-4l-36.9-47.4c-0.3-0.4-0.5-0.6-0.7-0.5c-7,5.5-11.2,12-12.4,19.5c-1.5,7.4,0,14,4.6,19.9
			c3,3.9,6.8,6.6,11.4,8.1c4.5,1.5,8.8,1.5,12.8-0.1l5.4-1.9c2.1-0.6,4-0.7,5.9-0.2c1.9,0.5,3.5,1.6,4.9,3.4
			c4.2,5.5,3.7,10.2-1.5,14.3c-7.1,5.6-16.3,6.8-27.5,3.7c-10.7-3-19.5-8.9-26.4-17.7c-8.8-11.3-12.1-23.2-9.8-35.6
			c2.4-12.3,9.7-23.2,22-32.8c12.4-9.6,25.4-14.2,39-13.6c13.6,0.7,24.8,6.8,33.6,18.1c4.1,5.2,6.9,10.6,8.4,16s1.9,11,1.2,16.8
			C1521.6,446.6,1515.7,456.4,1505.6,464.3z M1496,444.2c4.7-3.7,7.5-8.6,8.3-14.8c0.6-6.4-0.8-11.8-4.4-16.3
			c-3.6-4.6-9-7.7-16.2-9.1c-6.8-1.1-12.3-0.1-16.5,3.2L1496,444.2z"/>
		<path class="st5" d="M1576.2,501.1c2.2,4.4,1.7,7.9-1.6,10.5c9,3.5,15.9,10.1,20.9,19.8c3.4,6.6,4.9,13.7,4.6,21.2l-0.1-0.2
			c-0.4,8-2.5,14.2-6.4,18.7c-3.2,3.9-8.1,7.5-14.5,10.7l-32,16.3l-8.4,4.3c-1.8,1.1-2.8,2.1-2.9,3.1c0.3,0.6,0.7,1.3,1.3,2.3
			c0.5,0.9,1,1.6,1.5,2.2c0.4,0.5,0.8,1,1.1,1.5c0.3,0.4,0.6,1,1,1.7c1.1,2.1,1.3,4.4,0.7,6.8c-0.6,2.4-2,4.1-4,5.2
			c-2.4,1.2-4.8,1.3-7.4,0.2c-2.6-1.1-4.5-3-5.9-5.7c-0.3-0.6-0.7-1.5-1.3-2.8c-0.6-1.3-1.1-2.6-1.5-4c-0.7-1.9-1.5-3.9-2.3-6.1
			c-0.9-2.2-1.7-4-2.5-5.6c-0.6-1.2-1.3-2.4-2-3.6c-0.7-1.2-1.3-2.3-1.9-3.2c-1.7-2.4-3-4.4-4.1-6c-1-1.6-1.6-2.5-1.7-2.7
			c-3.3-6.4-2.1-11,3.5-13.9c5-2.5,8.9-1,11.8,4.7c0.1,0.5,0.3,1,0.5,1.5s0.4,0.9,0.6,1.4c0.1,0.4,0.3,0.9,0.6,1.4
			c0.2,0.7,0.3,1.2,0.5,1.6s0.2,0.7,0.4,0.9c0.1,0.4,0.1,0.7,0.2,0.8c0.4,0.8,2.9,0.2,7.5-2c1.4-0.7,2.9-1.4,4.4-2s3-1.3,4.4-2
			l10.2-5l12.8-6.5c5.3-2.7,9.1-5,11.5-7c1.6-1.3,2.9-2.7,3.9-4.4s1.6-3.4,1.9-5.2l-0.2,0.1c0.6-4.6,0-8.9-2-12.7
			c-4.1-7.9-9.8-12.2-17.1-12.8c-5.2-0.3-13,2.1-23.1,7.3l-22.4,11.4c-4,2.1-6.7,3.6-8,4.6s-1.7,1.9-1.4,2.6c0.1,0.1,0.3,0.4,0.7,1
			c0.4,0.5,0.9,1.1,1.4,1.8c0.6,0.6,1.1,1.2,1.6,1.8s0.9,1.4,1.4,2.3c2.8,5.4,1.5,9.5-3.8,12.3c-5.3,2.7-9.6,0.9-12.9-5.5
			c-0.3-0.6-0.8-1.8-1.4-3.6c-0.6-1.8-1.4-3.9-2.2-6.1c-0.9-2.6-2-5.3-3.5-8.1c-0.5-1.1-1.3-2.3-2.1-3.7c-0.8-1.4-1.9-3.1-3.2-5
			l-2.4-3.7c-0.8-1-1.4-1.9-2-2.8c-0.5-0.9-0.9-1.5-1-1.7c-3.4-6.6-2.4-11.3,3.1-14.1c5.1-2.6,9-1.2,11.8,4.3
			c0.3,0.6,0.5,1.1,0.7,1.6c0.1,0.4,0.3,0.9,0.4,1.5c0.4,1.7,1.1,3.4,1.9,5.1c0.7,1.4,3.5,1,8.5-1.4c3.1-1.6,6.2-3.1,9.4-4.6
			c3.2-1.5,6.3-3,9.4-4.6l20.4-10.4l5.7-3.4c2.5-1.6,4.2-2.8,5.2-3.6s1.5-1.6,1.4-2.3c-0.2-0.2-0.6-0.7-1.1-1.5s-0.9-1.4-1.3-1.8
			c-0.5-0.7-0.9-1.3-1.3-1.8c-0.4-0.6-0.7-1.1-1-1.7c-3-5.9-1.9-10.2,3.3-12.9s9.6-0.6,13.1,6.3c0.2,0.5,0.5,0.8,0.7,1.1
			s0.3,0.7,0.3,1.3l2.3,6.2c0.3,0.6,0.7,1.3,1.1,2c0.5,0.7,0.9,1.4,1.4,2.1c0.6,0.9,1.1,1.6,1.5,2.3
			C1575.3,499.4,1575.7,500.2,1576.2,501.1z"/>
	</g>
	<g>
		<path class="st5" d="M345.8,1396.7c-1.2,1.1-2.2,2-3,2.6c-0.7,0.6-1.4,0.9-2.1,1c-0.6,0.1-1.2-0.1-1.7-0.5s-1.2-1.1-2.1-2
			l-22.1-24.4c-0.2-0.2-0.3-0.3-0.4-0.2c-3.6,3.3-5.6,7-6,11.1c-0.5,4.1,0.6,7.7,3.3,10.7c1.8,2,4,3.3,6.5,4c2.5,0.6,4.9,0.4,7-0.6
			l2.8-1.2c1.1-0.4,2.2-0.5,3.2-0.3s2,0.7,2.8,1.7c2.5,2.8,2.5,5.4-0.2,7.9c-3.7,3.3-8.6,4.4-14.9,3.1c-6-1.2-11-4-15.1-8.6
			c-5.3-5.8-7.5-12.2-6.8-19.1c0.8-6.8,4.4-13.1,10.7-18.8c6.4-5.8,13.3-8.8,20.7-9c7.4-0.1,13.8,2.7,19.1,8.5
			c2.4,2.7,4.2,5.5,5.2,8.4s1.5,5.9,1.3,9.1C353.8,1386.4,351,1392.1,345.8,1396.7z M339.7,1386.2c2.4-2.2,3.7-5,3.9-8.4
			c0.1-3.5-1-6.4-3-8.7c-2.2-2.4-5.2-3.8-9.2-4.3c-3.7-0.3-6.7,0.5-8.9,2.4L339.7,1386.2z"/>
		<path class="st5" d="M401.3,1415.7c3,2.7,5,5.5,6,8.6c1.8-1.1,3.7-0.8,5.6,0.9c2.5,2.3,2.7,4.6,0.6,7c-0.1,0.1-0.2,0.2-0.3,0.3
			c-0.1,0.1-0.3,0.3-0.5,0.5s-0.4,0.5-0.7,0.7c-0.3,0.3-0.6,0.5-0.8,0.8c-0.5,0.4-1.1,0.8-1.6,1.2c-0.5,0.4-0.9,0.9-1.3,1.3
			c-0.6,0.7-1.3,1.6-2,2.7c-0.4,0.7-0.8,1.3-1.2,1.8s-0.7,1-1,1.3c-2.4,2.7-4.9,2.9-7.5,0.6c-2.5-2.2-2.7-4.6-0.8-7l2.3-2.7
			c1.1-1.3,1.3-3,0.6-5.2c-0.6-2.2-2-4.2-4-6c-2-1.7-4-2.7-6.3-3c-2.2-0.2-4,0.4-5.4,1.9c-1.2,1.3-1.6,2.8-1.3,4.5
			c0.3,1.7,1.2,3.5,2.6,5.3c0.7,0.8,1.3,1.6,1.9,2.3c0.6,0.8,1.3,1.5,2,2.3c8.4,9.9,9.6,18.1,3.7,24.7c-3.5,4-8.1,5.8-13.7,5.6
			c-5.3-0.4-10.3-2.8-15.1-7.1c-3.6-3.2-6.1-6.9-7.6-11.2c-2.1,1.8-4.3,1.7-6.7-0.4c-2.8-2.5-2.9-5.1-0.4-7.9c0.8-0.7,1.5-1.3,2-1.7
			c0.5-0.4,1-0.8,1.4-1.1c0.4-0.3,0.8-0.7,1.2-1.1c0.4-0.4,0.9-1,1.6-1.7c0.5-0.6,1.1-1.3,1.6-2s1-1.5,1.4-2.2
			c0.5-0.8,1-1.7,1.7-2.4c2.2-2.5,4.6-2.6,7.2-0.3c1.7,1.6,2.4,3,1.9,4.2c-0.3,1.2-1.5,2.8-3.4,5.1c-1.7,2-2,4.4-1.1,7.4
			s3,5.9,6.2,8.8c2.1,1.9,4.3,2.9,6.7,3.1c2.3,0.2,4.2-0.6,5.8-2.2c2.6-2.9,1.7-6.7-2.6-11.5c-2.5-2.9-4.7-5.5-6.4-8
			c-1.7-2.5-2.9-4.8-3.6-7s-0.7-4.4-0.2-6.4c0.5-2.1,1.7-4.2,3.6-6.3c1.7-2,3.7-3.4,6-4.3c2.2-0.9,4.6-1.3,7-1.2
			c2.4,0.1,4.9,0.7,7.5,1.8C396.5,1411.9,398.9,1413.6,401.3,1415.7z"/>
		<path class="st5" d="M442.9,1492.8c2.4-3,5-3.4,7.9-1.3s3.1,4.8,0.6,8.2c-2.3,3.2-4.5,5.7-6.6,7.5s-4,3.1-5.9,3.9
			c-4.9,1.8-10.1,0.7-15.4-3.2c-2.5-1.8-4.3-3.8-5.5-5.9s-1.7-4.4-1.7-6.7c0.2-3.6,2.1-7.9,5.9-12.9l14.7-19.9
			c0.3-0.4,0.4-0.7,0.3-0.7l-2.6-1.9c-1.3-1-2.1-2.1-2.3-3.6c-0.3-1.4,0-2.7,0.9-3.9c0.8-1.1,1.9-1.7,3.4-1.9
			c1.5-0.2,2.8,0.1,3.9,0.9l3.2,2.4l6.6-9c2.2-2.9,4.8-3.3,7.9-1c2.9,2.2,3.3,4.7,1.2,7.6l-6.6,8.9c0,0.1,0,0.1,0,0.2l9.1,6.7
			c3,2.2,3.6,4.7,1.6,7.4c-2.1,2.8-4.7,3-7.9,0.7l-9.2-6.8c0.1,0.2,0,0.5-0.2,0.8l-15.1,20.5c-3.7,5-4.1,8.6-1.3,10.7
			c3.1,2.3,6.1,1.5,9-2.5L442.9,1492.8z"/>
		<path class="st5" d="M503.1,1559.4c-4.6-2.7-6.8-6.2-6.6-10.3c-5.3,1.4-10.9,0.4-16.8-3.1c-5.3-3.2-8.8-7-10.4-11.4
			c-1.6-4.4-1.1-8.8,1.5-13.2c1.6-2.6,3.6-4.6,6.1-5.9s5.2-1.9,8.1-1.8c2.2,0.1,4.1,0.3,5.5,0.7c1.4,0.4,4,1.5,7.9,3.2
			c5.1,2.3,8.5,3.5,10.3,3.4c1.5-0.1,2.9-1.2,4.1-3.3c1.2-2,1.4-4,0.7-6s-2.3-3.8-4.9-5.3c-2.5-1.5-5.1-2.1-7.9-1.9l0.1-0.1
			c-0.7,0.2-1.1,0.3-1.1,0.4l0.1,0.1c0.6,1.9,0.5,3.6-0.4,5.2s-2.3,2.5-4,2.8s-3.5,0-5.3-1.1c-2-1.2-3.3-2.8-3.8-4.9
			c-0.6-2.1-0.3-4.1,0.9-6c2.2-3.8,6-5.8,11.2-6.2c5-0.5,10.1,0.8,15.2,3.8c11.8,7,14.4,16.1,7.8,27.3l-10.6,18
			c-0.7,1.3-1.4,2.3-1.8,3.2c-0.5,0.9-0.8,1.5-0.9,1.8c-0.5,1.6-0.4,2.6,0.3,3c1.1,0.6,2.5-0.5,4.2-3.5l2.6-4.4
			c1.6-2.7,3.8-3.2,6.6-1.5c3,1.8,3.4,4.5,1.3,8.1l-0.3,0.5l-3.1,5C515.5,1562.3,510.1,1563.5,503.1,1559.4z M505.2,1530.2
			c-0.5-0.1-0.9-0.2-1.3-0.2c-0.4,0-0.9-0.1-1.4-0.3c-2-0.4-4.9-1.6-8.8-3.4c-6.2-2.9-10.4-2.6-12.6,1.1c-1.1,1.8-1.3,3.7-0.6,5.6
			s2.2,3.6,4.6,5c3.6,2.1,6.9,2.8,10,2s5.7-2.8,7.8-6.2L505.2,1530.2z"/>
		<path class="st5" d="M584,1523.6c-0.7,1.3-1.4,2.4-1.9,3.3c-0.5,1-1.1,1.9-1.6,2.9s-1.1,2.1-1.7,3.3c-0.6,1.2-1.3,2.7-2.1,4.5
			c2.5-1,4.8-1.3,6.9-1.1c2.1,0.2,4.6,1,7.4,2.2c6.8,3.1,11.2,7.9,13.1,14.4c1.9,6.5,1.1,13.5-2.3,21.1c-1.8,4-4,7.4-6.7,10.3
			s-5.6,5.1-8.6,6.8c-3.2,1.6-6.5,2.4-9.9,2.4s-6.9-0.8-10.5-2.5c-5.1-2.3-8.6-5.5-10.5-9.5c-1.5,1.9-3.5,2.2-6.1,1.1
			c-3.3-1.5-4.1-4.3-2.3-8.3c0.2-0.5,0.4-0.9,0.6-1.3c0.2-0.4,0.4-0.7,0.5-1c0.3-0.7,0.7-1.5,1-2.2s0.7-1.5,1.1-2.2l3.6-7.1
			c0.6-1.3,1.3-2.9,2.2-4.7c0.9-1.8,1.6-3.4,2.2-4.7l11.1-25.3c0.7-1.8,1.2-3.1,1.3-3.8c0.1-0.7,0-1.2-0.4-1.3
			c-0.3-0.1-1.1-0.3-2.5-0.6c-0.4-0.1-0.7-0.2-1-0.3c-0.3-0.2-0.7-0.3-1-0.5c-3.2-1.4-4.2-3.6-2.9-6.4c1.3-3,3.8-3.7,7.4-2.1
			c0.3,0.1,0.7,0.3,1.1,0.5c0.4,0.2,0.8,0.4,1,0.6l1.8,1.2c0.1,0.1,0.3,0.2,0.5,0.3c0.2,0.1,0.3,0.2,0.5,0.3
			c0.3,0.2,0.6,0.4,0.8,0.5s0.4,0.2,0.6,0.3c0.3,0.1,0.7,0.3,1.2,0.4c0.6,0.2,1.2,0.3,1.8,0.5c1.1,0.2,2.1,0.6,3,1
			c2.5,1.1,3.1,3,1.9,5.6L584,1523.6z M571.5,1551.1c-1.3,1.7-2.8,4.3-4.4,7.9c-2.6,5.8-4,10.2-4.2,13c0,4.9,2.3,8.3,6.9,10.4
			c3.9,1.8,7.7,1.5,11.4-0.6c3.7-2.2,6.7-6,9.1-11.4c2.5-5.5,3.4-10.3,2.6-14.4c-0.7-4.1-2.9-6.9-6.7-8.6c-1.3-0.6-2.7-1-4.1-1.1
			c-1.4-0.1-2.8,0-4.1,0.3s-2.6,0.9-3.7,1.6C573.4,1549,572.4,1550,571.5,1551.1z"/>
		<path class="st5" d="M644.4,1606.4c-0.7,2.4-0.9,3.8-0.3,3.9c0.1,0,0.3,0.1,0.5,0.1c0.1,0,0.3,0.1,0.5,0.1s0.4,0,0.7,0.1
			c0.1,0,0.3,0.1,0.4,0.1c0.1,0,0.3,0,0.4,0.1c0.1,0,0.2,0,0.2,0s0.1,0,0.2,0c0.2,0,0.4,0,0.6,0.1c0.2,0.1,0.4,0.1,0.6,0.2
			c3.2,1.1,4.3,3.2,3.3,6.3c-1,3.1-3.5,4-7.3,2.7c-0.6-0.2-1.2-0.5-2.1-0.8c-0.8-0.4-1.8-0.8-3-1.3c-1.1-0.5-2-1-2.8-1.3
			c-0.8-0.4-1.5-0.6-2.1-0.8c-0.5-0.2-1.1-0.3-1.9-0.5c-0.8-0.2-1.7-0.4-2.8-0.6c-1-0.2-1.9-0.4-2.8-0.6c-0.9-0.2-1.6-0.4-2.1-0.6
			l-0.5-0.2c-3.9-1.3-5.2-3.6-4.1-6.9c1-2.9,3.2-3.8,6.5-2.6l1,0.3c0.2,0.2,0.5,0.3,0.8,0.4c0.8,0.4,1.3,0.7,1.7,0.9
			c0.3,0.2,0.5,0.3,0.7,0.4c0.3,0.1,0.5,0,0.8-0.3c0.3-0.4,0.7-1.3,1.2-2.5s1.1-2.9,1.9-4.9c0.4-1.2,0.8-2.3,1.2-3.4
			s0.8-2.2,1.2-3.3l5.5-15.1c0.4-1.1,0.8-2.4,1.3-3.9s1-3.1,1.6-4.8c0.5-1.7,1-3.3,1.6-4.8c0.5-1.5,1-2.8,1.3-3.9l1-4
			c-0.1-0.2-0.2-0.5-0.3-0.8s-0.3-0.4-0.5-0.5c-0.1,0-1-0.2-2.6-0.4c-0.4,0-0.7-0.1-0.9-0.2s-0.5-0.2-0.9-0.3
			c-3.4-1.1-4.6-3.2-3.6-6.2c1.1-3.1,3.4-4,7.2-2.8c0.3,0.1,0.7,0.2,1.2,0.4c0.5,0.2,0.8,0.3,1,0.4l2,1c0.1,0,0.3,0.1,0.4,0.2
			c0.1,0.1,0.3,0.1,0.4,0.2c0.3,0.2,0.6,0.3,1,0.4c0.3,0.1,0.6,0.2,0.9,0.3c0.1,0,0.5,0.1,1,0.3c0.5,0.1,1.1,0.2,1.7,0.3
			c0.7,0.1,1.3,0.2,1.8,0.3c0.5,0.1,1.1,0.2,1.6,0.4c2.5,0.9,3.3,2.7,2.4,5.5c-0.1,0.4-0.2,0.7-0.3,1c0,0.2-0.2,0.4-0.4,0.7
			c-2.1,5-4.7,12-7.8,21L644.4,1606.4z"/>
		<path class="st5" d="M701.9,1617.4c-0.4,1.6-0.7,2.9-1,3.9c-0.2,1-0.4,1.6-0.4,2c-0.3,2.2-0.3,3.3,0.1,3.4c-0.1,0,0.1,0,0.6,0
			c0.4,0,1,0.1,1.7,0.1l-0.1,0.1c0.2,0,0.5,0,0.9,0c0.3,0,0.7,0.1,1.2,0.2c3.7,0.9,5.1,3,4.3,6.1c-0.4,1.4-1.2,2.4-2.6,3
			c-1.4,0.6-3,0.7-4.7,0.2c-0.6-0.1-1.3-0.4-2.1-0.7c-0.8-0.3-1.8-0.6-2.9-1.1c-1-0.4-1.9-0.8-2.7-1.1c-0.7-0.3-1.4-0.5-1.9-0.7
			c-0.8-0.2-1.7-0.4-2.6-0.6s-2-0.3-3.1-0.5c-1.3-0.2-2.4-0.3-3.3-0.5c-0.9-0.1-1.6-0.3-2.2-0.4c-3.8-1-5.3-3.1-4.5-6.3
			c0.8-3.1,2.9-4.2,6.4-3.3c0.1,0,0.5,0.2,1.2,0.4c0.6,0.2,1.2,0.5,1.6,0.6c0.5,0.3,0.8,0.4,1.1,0.5s0.5,0.1,0.6,0.2
			c0.6,0.1,1.4-1.5,2.5-4.8l6.6-25.5c0.6-3.4,0.6-5.1,0-5.3c-0.1,0-0.4-0.1-0.8-0.1c-0.4,0-0.8,0-1.4,0c-0.4,0.1-0.8,0-1.3,0
			c-0.5-0.1-0.8-0.2-1.1-0.2c-3.6-0.9-5-2.9-4.2-6c0.8-3.2,3.3-4.2,7.4-3.2c0.8,0.2,1.4,0.4,1.9,0.5s0.8,0.2,1,0.4
			c0.9,0.4,1.7,0.7,2.4,1c0.7,0.2,1.1,0.4,1.3,0.4c0.1,0,0.4,0.1,0.9,0.2s0.9,0.1,1.4,0.2l2.8,0.4c3,0.8,4.1,2.9,3.2,6.5l-0.4,1.5
			c-0.1,0.3-0.2,0.5-0.3,0.7c0,0.2-0.1,0.3-0.1,0.4c-0.1,0.2-0.4,1.2-0.9,2.9c-0.1,0.5-0.3,1-0.4,1.5s-0.3,1.1-0.5,1.6
			c-0.4,1.4-0.8,2.8-1.2,4.2c-0.4,1.4-0.7,2.8-1.1,4.2L701.9,1617.4z M704.6,1577.7c-2-0.5-3.6-1.6-4.7-3.3
			c-1.1-1.7-1.3-3.5-0.8-5.5s1.6-3.4,3.4-4.4c1.7-0.9,3.6-1.2,5.7-0.6c2,0.5,3.6,1.6,4.7,3.3c1.1,1.7,1.4,3.5,0.9,5.5
			s-1.7,3.4-3.4,4.4C708.6,1578,706.7,1578.2,704.6,1577.7z"/>
		<path class="st5" d="M768.6,1592c3.9,0.6,7.2,2,9.6,4c1-1.9,2.7-2.7,5.2-2.2c3.4,0.6,4.8,2.4,4.3,5.6c0,0.1-0.1,0.3-0.1,0.4
			c-0.1,0.1-0.1,0.4-0.2,0.7c0,0.3-0.1,0.6-0.2,1c-0.1,0.4-0.2,0.8-0.2,1.1c-0.2,0.6-0.5,1.3-0.6,1.9c-0.2,0.6-0.3,1.2-0.4,1.8
			c-0.2,0.9-0.2,2.1-0.2,3.4c0,0.8,0,1.5,0,2.2c0,0.6-0.1,1.2-0.2,1.7c-0.6,3.6-2.6,5.1-5.9,4.6c-3.3-0.5-4.8-2.4-4.4-5.5l0.5-3.5
			c0.2-1.7-0.6-3.2-2.3-4.7s-3.9-2.5-6.6-2.9c-2.6-0.4-4.9-0.1-6.9,0.9s-3.2,2.5-3.5,4.5c-0.3,1.7,0.2,3.2,1.4,4.5s2.9,2.3,5,3.1
			c1,0.3,2,0.6,2.9,0.9c1,0.3,1.9,0.6,2.9,0.9c12.4,3.8,17.8,10.1,16.4,18.8c-0.9,5.2-3.7,9.3-8.5,12.1c-4.7,2.5-10.2,3.2-16.5,2.2
			c-4.7-0.8-8.9-2.6-12.4-5.4c-0.8,2.7-2.7,3.8-5.8,3.3c-3.7-0.6-5.2-2.8-4.6-6.5c0.3-1.1,0.6-1.9,0.8-2.5s0.4-1.2,0.6-1.7
			s0.3-1,0.4-1.5c0.1-0.5,0.3-1.3,0.4-2.3c0.1-0.8,0.2-1.6,0.2-2.6c0-0.9,0.1-1.8,0-2.6c-0.1-1,0-2,0.2-3c0.5-3.3,2.5-4.7,5.9-4.1
			c2.3,0.4,3.6,1.2,3.9,2.5c0.3,1.2,0.3,3.2-0.1,6.1c-0.3,2.5,0.7,4.8,3,6.8c2.4,2,5.7,3.4,9.9,4.1c2.8,0.5,5.2,0.1,7.3-1
			s3.3-2.8,3.6-5c0.6-3.8-2.2-6.6-8.4-8.2c-3.7-1-6.9-2.1-9.6-3.3c-2.8-1.2-5-2.5-6.8-4c-1.7-1.5-3-3.3-3.7-5.3s-0.8-4.4-0.4-7.3
			c0.4-2.6,1.3-4.9,2.7-6.9s3.2-3.6,5.3-4.8c2.1-1.2,4.5-2,7.3-2.5C762.5,1591.4,765.5,1591.4,768.6,1592z"/>
		<path class="st5" d="M839.3,1588.4l-1.2,16.2c2.3-1.6,4.5-2.6,6.7-3.2s4.7-0.8,7.4-0.7c3.3,0.2,6.2,0.8,8.8,1.9s4.7,2.5,6.5,4.4
			s3.1,4,4,6.5s1.3,5.2,1.1,8.2l-0.9,17.2c-0.1,2.1-0.2,3.7-0.2,4.9c-0.1,1.2,0,1.8,0,2c0.1,2.3,0.4,3.5,0.8,3.5c0.2,0,0.5,0,0.8,0
			s0.7,0,1.1-0.2s0.8-0.2,1.1-0.2s0.7,0,1.1,0.1c3.7,0.2,5.5,1.9,5.3,5.1c-0.2,3.3-2.5,4.8-7,4.6c-0.9,0-2.3-0.2-4-0.5
			c-1.5-0.2-2.8-0.4-3.9-0.6c-1.2-0.2-2.1-0.3-2.9-0.3c-0.7,0-1.4-0.1-2.1,0c-0.7,0-1.3,0-1.8,0.1c-2.8,0.3-4.7,0.4-5.6,0.4
			c-1.7-0.1-3.2-0.7-4.3-1.7c-1.1-1.1-1.6-2.4-1.6-3.9c0.1-1.2,0.6-2.3,1.7-3.1c1.1-0.9,2.4-1.2,3.8-1.2c0.9,0,2,0.3,3.2,0.8
			c0.1,0,0.3,0,0.5,0.1c0.2,0,0.4,0.1,0.7,0.1c0.8,0,1.4-1.7,1.7-5.2c0-0.4,0-1,0.1-1.9c0-0.9,0.1-1.9,0.3-3c0-0.6,0.1-1.3,0.2-2.2
			c0.1-0.9,0.1-1.6,0.2-2.2l0.3-5.6c0.3-6.7-0.1-11.2-1.2-13.5c-1.5-3.2-4.4-4.9-8.7-5.1c-4.8-0.2-8.4,1.2-10.7,4.4
			c-1.6,2.2-2.6,6-3,11.4c-0.1,1.2-0.1,2.5-0.2,3.7c-0.1,1.2-0.2,2.5-0.2,3.7c0,0.2,0,0.6-0.1,1c0,0.5-0.1,0.9-0.2,1.2l-0.1,1.7
			c-0.1,1.9-0.2,3.4-0.2,4.5c-0.1,1.1-0.1,1.8,0,2.1c0.1,2.5,0.5,3.7,1.1,3.8c0.1,0,0.4,0,0.8-0.1c0.4-0.1,0.8-0.1,1.3-0.2
			c0.4-0.1,0.8-0.2,1.3-0.2s0.9,0,1.2,0c3.4,0.2,5,1.8,4.9,4.8c-0.2,3.4-2.4,5-6.6,4.8c-1.1,0-2.6-0.2-4.6-0.5
			c-1.2-0.2-2.4-0.4-3.5-0.5s-2.1-0.2-2.9-0.3c-1.1,0-2.7,0-4.7,0.1c-1.5,0.1-2.7,0.1-3.6,0.2c-0.9,0-1.5,0-1.9,0
			c-4-0.2-5.9-2-5.7-5.5c0.2-3,2.1-4.4,5.9-4.2c1,0,1.8,0.2,2.4,0.3h-0.1c0.6,0.2,1,0.3,1.4,0.3s0.6,0,0.8,0c0.1,0,0.3-0.6,0.4-1.8
			c0.5-1.9,0.9-6.1,1.4-12.6c0.2-3.1,0.3-6.1,0.5-9.3c0.2-3.1,0.4-6.2,0.5-9.3c0.5-10.1,0.6-16.6,0.3-19.3c-0.1-1.8-0.4-2.7-0.8-2.9
			c-0.1,0.1-0.3,0.1-0.7,0.1s-0.7,0.1-1,0.1c-0.4,0.1-0.9,0.2-1.4,0.1c-0.5,0-1,0-1.4-0.1c-3.5-0.2-5.2-1.8-5-4.9
			c0.1-1.5,0.7-2.6,1.9-3.5s2.7-1.3,4.3-1.2c0.5,0,1.7,0.2,3.7,0.5h-0.1c0.7,0.1,1.3,0.2,2,0.3c0.7,0.1,1.4,0.1,2.2,0.2
			c0.1,0,0.5,0,1,0s1.1,0,1.6-0.1c0.4-0.1,0.7-0.1,1.2-0.1c0.4,0,0.8,0,1.2,0c2.8,0.1,4.1,1.8,3.9,5.1L839.3,1588.4z"/>
		<path class="st5" d="M961.1,1622.8c0.1,1.7,0.2,3,0.1,3.9c0,0.9-0.2,1.7-0.5,2.2s-0.8,0.9-1.5,1c-0.7,0.2-1.6,0.3-2.9,0.3
			l-32.8,2.1c-0.3,0-0.4,0.1-0.4,0.1c0.3,4.9,2,8.7,5,11.6c2.9,3,6.4,4.3,10.4,4c2.7-0.2,5.1-1.1,7.2-2.7s3.4-3.5,3.9-5.8l0.8-3
			c0.4-1.1,0.9-2,1.7-2.7c0.8-0.7,1.8-1.1,3-1.2c3.8-0.2,5.8,1.5,6,5.1c0.3,4.9-1.9,9.5-6.8,13.6c-4.6,3.9-10,6.1-16.1,6.5
			c-7.9,0.5-14.2-1.7-19.1-6.5c-4.8-4.9-7.5-11.6-8.1-20.1c-0.6-8.6,1.4-15.9,5.8-21.8c4.5-5.9,10.7-9.1,18.5-9.6
			c3.6-0.2,6.9,0.1,9.8,1.1s5.6,2.5,8,4.6C958,1610.2,960.6,1615.9,961.1,1622.8z M949,1621c-0.2-3.3-1.6-6-4.2-8.3
			c-2.7-2.2-5.6-3.2-8.7-3c-3.2,0.2-6.2,1.7-9.1,4.5c-2.6,2.7-3.8,5.5-3.6,8.4L949,1621z"/>
		<path class="st5" d="M1011.8,1591c2.7-0.5,5.3-0.5,7.7-0.1c2.4,0.4,4.6,1.2,6.6,2.3l-1-5.7c-0.2-1.3-0.4-2.3-0.6-3.1
			c-0.2-0.7-0.3-1.3-0.5-1.6c-0.4-0.9-0.8-1.5-1.2-1.7c-0.3,0.1-0.7,0.2-1.2,0.4c-0.5,0.1-0.9,0.2-1.2,0.3h0.2
			c-0.4,0.2-0.8,0.4-1.3,0.5s-0.9,0.2-1.2,0.3c-3.7,0.7-5.9-0.6-6.4-3.7c-0.6-3.2,1.4-5.3,6-6.1c0.1,0,0.4-0.1,0.8-0.1
			c0.4-0.1,0.7-0.1,1.1-0.1c0.2,0,0.4-0.1,0.7-0.1c0.2,0,0.4,0,0.7-0.1l3.3-0.2c0.1,0,0.5-0.1,0.9-0.2c0.5-0.1,0.9-0.3,1.4-0.4
			c0.6-0.2,1.1-0.3,1.5-0.4c0.5-0.1,0.9-0.2,1.3-0.3c3.1-0.6,5,1,5.6,4.8l0.3,1.6c-0.1,0.1,0,0.8,0.3,2.2c0.1,0.4,0.1,0.8,0.2,1.2
			c0,0.5,0.1,1,0.2,1.5c0.1,0.6,0.5,3.2,1.1,8c0.1,0.4,0.1,0.8,0.2,1.2c0,0.4,0.1,0.8,0.1,1.1c0.1,1.2,0.3,2.2,0.4,3.1
			c0.2,0.9,0.3,1.7,0.4,2.3l1.8,10l3.3,17c0.5,2.3,0.9,4.1,1.2,5.3c0.3,1.3,0.6,2.1,0.8,2.5c0.1,0.4,0.4,0.6,0.9,0.5
			c0.4-0.1,0.7-0.1,0.9-0.2s0.5-0.2,0.8-0.3c0.2,0,0.4-0.1,0.6-0.2s0.4-0.1,0.5-0.2c0.1-0.1,0.4-0.2,0.7-0.2
			c0.3-0.1,0.6-0.1,0.7-0.1c3.7-0.7,5.8,0.6,6.3,3.7c0.6,3.3-1.2,5.3-5.5,6.1c-0.4,0.1-0.8,0.1-1.5,0.2c-0.6,0.1-1.2,0.1-1.8,0.2
			c-0.3,0-0.6,0.1-0.9,0.1s-0.7,0-1,0c-0.4,0-0.8,0-1.2,0.1c-0.1,0-0.1,0-0.2,0.1c-0.1,0-0.2,0.1-0.3,0.1c-0.1,0-0.3,0.1-0.5,0.1
			s-0.5,0.1-0.8,0.3h0.2c-0.8,0.4-1.7,0.6-2.5,0.8c-2.3,0.4-3.9-0.4-4.9-2.6c-3,3.7-7.4,6.1-13.3,7.1c-7.6,1.4-14.1-0.2-19.4-4.9
			c-5.4-4.4-8.9-10.9-10.5-19.4c-0.7-4.2-0.8-8.1-0.3-11.8c0.6-3.7,1.6-7,3.3-9.9C998.9,1596,1004.3,1592.3,1011.8,1591z
			 M1031.3,1625.9c-0.1-1.2-0.2-2.5-0.4-3.9c-0.2-1.4-0.4-3-0.7-4.7c-0.4-2.2-0.8-4.1-1.2-5.5c-0.4-1.5-0.7-2.6-1-3.3
			c-1.2-3.2-2.8-5.4-5.1-6.5c-2.9-1.5-5.9-2.1-8.8-1.5c-4.2,0.8-7.2,3-9,6.8s-2.1,8.5-1.1,14.3c1.1,6.1,3.2,10.6,6.3,13.6
			c3.1,3,6.8,4.1,11.1,3.3c3.2-0.6,5.7-2,7.5-4.3S1031.5,1629.1,1031.3,1625.9z"/>
		<path class="st5" d="M1239.6,1550.3c-0.7,1-1.2,2.1-1.6,3.2c-0.4,1.1-0.7,2.2-0.8,3.3c1.3-1.8,3.2-3.4,5.5-4.7
			c3.8-2,8.4-2.5,13.9-1.5c5.3,1,8.9,0.9,10.8-0.1c1.1-0.6,1.8-1.4,2.1-2.5c0.3-1.1,0.1-2.3-0.4-3.6c-0.4,0.5-1,1-1.7,1.4
			c-3.4,1.8-5.9,1.2-7.6-2c-0.9-1.6-1-3.3-0.3-5s2-3.1,4-4.2c2.5-1.4,5-1.6,7.4-0.8c2.4,0.8,4.4,2.7,6,5.6c2,3.8,2.6,7.6,1.6,11.5
			c-1,4.1-3.3,7.1-6.9,9c-3.3,1.8-8.1,2.2-14.2,1.2c-5.5-0.9-9.7-0.6-12.6,0.9c-1.6,0.8-2.6,1.9-3,3.1c1.9-0.6,3.4,0.1,4.5,2
			c1.8,3.3,0.8,6-2.9,8c-2.3,1.2-4.6,1.3-7,0.3c-2.4-1-4.4-3-6.1-6.1c-5.6-10.4-2.5-21.7,9.3-33.7l4.9-5.3c2.3-2.5,3.8-5.1,4.6-7.6
			c0.7-2.6,0.5-5-0.7-7.2c-1.7-3.1-4.1-5-7.3-5.6c-3.1-0.6-6.6,0.1-10.4,2.2c-3.2,1.7-5.5,3.7-7,5.9c-1.5,2.2-2.1,4.5-1.7,6.9
			c3.2-1,5.5-0.1,7,2.7c1,1.8,1.1,3.7,0.5,5.7c-0.6,2-2,3.5-3.9,4.5c-2.3,1.3-4.6,1.5-6.9,0.7s-4.1-2.4-5.4-4.9
			c-2.6-4.8-2.6-10.2,0.1-16.1c2.6-5.5,7.1-10,13.6-13.5c6.2-3.4,12.3-4.5,18.1-3.5c6,1.2,10.4,4.4,13.2,9.6c2,3.7,2.7,7.4,2.2,11.2
			c-0.5,3.8-2.2,7.4-4.9,10.7h0.1c-0.4,0.4-1.3,1.4-2.7,2.9c-1.4,1.5-3.3,3.6-5.7,6.1h0.1c-1.6,1.7-3,3.3-4.3,4.9
			C1241.5,1547.6,1240.4,1549.1,1239.6,1550.3z"/>
		<path class="st5" d="M1334.9,1520.3c-7.2,5-14.5,6.3-22.1,4c-7.4-2.3-14.2-7.9-20.4-16.8c-6.3-9-9.1-17.5-8.6-25.6
			c0.5-8.2,4.4-14.9,11.6-19.9c7-4.9,14.3-6.1,21.8-3.8c3.8,1.1,7.4,3,10.7,5.6c3.3,2.7,6.5,6.2,9.4,10.4c6.4,9.2,9.4,18,9,26.2
			C1346,1508.5,1342.1,1515.2,1334.9,1520.3z M1300.8,1470c-8.7,6.1-8.5,16,0.6,29.9l0.9,1.2c4.5,6.5,9.2,10.7,13.9,12.7
			c4.7,1.9,9.2,1.4,13.4-1.5c2.1-1.5,3.7-3.3,4.7-5.5s1.4-4.6,1.3-7.3c-0.1-2.7-0.8-5.6-2-8.7s-3.1-6.4-5.4-9.8
			c-4.5-6.5-9.1-10.7-13.8-12.5C1309.5,1466.5,1305,1467.1,1300.8,1470z"/>
		<path class="st5" d="M1381.6,1454.5c-0.4,1.2-0.7,2.3-0.9,3.5c-0.2,1.2-0.2,2.3-0.1,3.4c0.9-2.1,2.3-4,4.3-5.8
			c3.2-2.8,7.6-4.4,13.2-4.6c5.4-0.2,8.9-1.1,10.5-2.5c0.9-0.8,1.4-1.8,1.5-2.9c0-1.1-0.4-2.2-1.2-3.4c-0.3,0.6-0.7,1.2-1.4,1.7
			c-2.9,2.5-5.5,2.5-7.9-0.2c-1.2-1.4-1.7-3-1.4-4.8c0.3-1.8,1.2-3.5,2.9-4.9c2.1-1.9,4.5-2.7,7-2.4c2.5,0.3,4.9,1.7,7.1,4.2
			c2.8,3.2,4.2,6.9,4.1,10.9c0,4.2-1.6,7.6-4.7,10.3c-2.8,2.5-7.4,3.9-13.6,4.4c-5.6,0.3-9.6,1.6-12.1,3.7c-1.3,1.2-2.1,2.4-2.2,3.7
			c1.8-1,3.4-0.7,4.8,0.9c2.5,2.8,2.1,5.7-1.1,8.4c-1.9,1.7-4.2,2.3-6.7,1.9c-2.5-0.5-5-2-7.3-4.6c-7.8-8.9-7.3-20.5,1.5-34.9
			l3.7-6.2c1.7-3,2.6-5.8,2.7-8.5c0.1-2.7-0.6-4.9-2.3-6.8c-2.4-2.7-5.1-4-8.3-3.9c-3.2,0.1-6.4,1.6-9.7,4.4
			c-2.7,2.4-4.5,4.8-5.5,7.3s-1,4.9-0.1,7.1c2.9-1.6,5.3-1.3,7.4,1c1.4,1.5,1.9,3.3,1.7,5.4c-0.2,2-1.1,3.8-2.8,5.3
			c-2,1.7-4.2,2.5-6.6,2.2c-2.4-0.2-4.5-1.5-6.4-3.6c-3.6-4.1-4.8-9.4-3.5-15.7c1.3-6,4.7-11.4,10.2-16.2c5.3-4.7,11-7.1,16.9-7.4
			c6.1-0.2,11.1,2,15,6.4c2.7,3.1,4.3,6.6,4.6,10.4c0.3,3.8-0.5,7.7-2.4,11.6l0.1-0.1c-0.3,0.5-0.9,1.6-2,3.4
			c-1,1.8-2.4,4.2-4.2,7.2l0.1-0.1c-1.2,2-2.2,3.9-3.1,5.7C1382.9,1451.5,1382.1,1453.1,1381.6,1454.5z"/>
		<path class="st5" d="M1467.7,1404.2c-5.9,6.5-12.8,9.4-20.7,8.8c-7.8-0.6-15.6-4.6-23.6-11.9c-8.1-7.4-12.8-15.1-14.1-23
			c-1.4-8.1,1-15.5,6.9-22c5.8-6.3,12.6-9.1,20.4-8.5c3.9,0.2,7.8,1.2,11.7,3.1c3.8,1.9,7.7,4.6,11.5,8c8.3,7.6,13.2,15.4,14.6,23.5
			C1475.9,1390.3,1473.6,1397.7,1467.7,1404.2z M1423.3,1362.8c-7.1,7.8-4.7,17.5,7.2,29l1.1,1c5.9,5.4,11.3,8.4,16.4,9.3
			c5,0.8,9.3-0.7,12.7-4.4c1.7-1.9,2.9-4,3.3-6.4c0.5-2.3,0.4-4.8-0.3-7.4s-2-5.3-3.9-8.1c-1.9-2.8-4.4-5.6-7.5-8.4
			c-5.9-5.4-11.3-8.4-16.2-9.2C1431,1357.4,1426.8,1359,1423.3,1362.8z"/>
	</g>
	<g>
		<path class="st5" d="M1104.9,1609.3c-0.5,0-1.1-0.1-1.6-0.3c-2.6-0.9-3.9-3.7-3-6.3c5.6-15.8,25.6-16.6,43.3-17.3
			c13.5-0.5,27.5-1.1,29.2-8.3c0.6-2.6,3.2-4.3,5.9-3.7c2.6,0.6,4.3,3.2,3.7,5.9c-3.3,14.6-21.1,15.3-38.4,16
			c-15.3,0.6-31,1.3-34.4,10.8C1108.8,1608.1,1106.9,1609.3,1104.9,1609.3z"/>
	</g>
	<g>
		<path class="st5" d="M1136.1,1619.3c-1,0-2.1-0.3-3-1c-8.6-6.5-5.4-18.6-2.7-28.3c1.4-5.3,3.6-13.2,1.5-14.5
			c-2.3-1.4-3.1-4.4-1.7-6.7c1.4-2.3,4.4-3.1,6.7-1.7c8.6,5.1,5.7,16,3,25.6c-2,7.2-4.2,15.3-0.9,17.8c2.2,1.6,2.6,4.7,1,6.9
			C1139.1,1618.6,1137.6,1619.3,1136.1,1619.3z"/>
	</g>
	<g>
		<path class="st5" d="M1153.1,1616.6c-0.9,0-1.9-0.3-2.7-0.8c-9-6-6.4-18.3-4.3-28.1c1.1-5.3,2.9-13.4,0.7-14.6
			c-2.4-1.2-3.4-4.2-2.1-6.6c1.2-2.4,4.2-3.4,6.6-2.1c8.9,4.6,6.5,15.6,4.4,25.4c-1.6,7.3-3.3,15.5,0.1,17.8
			c2.3,1.5,2.9,4.6,1.4,6.8C1156.2,1615.8,1154.7,1616.6,1153.1,1616.6z"/>
	</g>
	<g>
		<path class="st6" d="M887.2,252.4"/>
	</g>
	<g>
		<path class="st7" d="M887.2,1611.7"/>
	</g>
	<g>
		<path class="st5" d="M288.4,1335.1c-3,0-6-1.4-7.9-4c-94.8-129.4-145-282.9-145-443.8c0-80.5,12.6-159.5,37.5-234.6
			c1.7-5.2,7.2-8,12.4-6.2c5.2,1.7,8,7.3,6.2,12.4c-24.2,73.2-36.5,150-36.5,228.5c0,156.7,48.8,306.2,141.2,432.2
			c3.2,4.4,2.3,10.5-2.1,13.8C292.4,1334.5,290.4,1335.1,288.4,1335.1z"/>
	</g>
	<g>
		<path class="st5" d="M1486,1335.1c-2,0-4.1-0.6-5.8-1.9c-4.4-3.2-5.3-9.4-2.1-13.8c92.4-126,141.2-275.4,141.2-432.2
			c0-78.3-12.2-155.2-36.4-228.5c-1.7-5.2,1.1-10.7,6.3-12.4s10.7,1.1,12.4,6.3c24.8,75.3,37.4,154.2,37.4,234.6
			c0,160.9-50.1,314.4-145,443.8C1492,1333.7,1489.1,1335.1,1486,1335.1z"/>
	</g>
	<g>
		<g>
			<path class="st5" d="M887.2,0C398,0,0,398,0,887.3s398,887.3,887.2,887.3c489.3,0,887.3-398,887.3-887.3S1376.4,0,887.2,0z
				 M887.2,1736.5c-469,0-849.2-380.1-849.2-849.2c0-469,380.2-849.2,849.2-849.2s849.2,380.2,849.2,849.2
				C1736.5,1356.4,1356.2,1736.5,887.2,1736.5z"/>
		</g>
	</g>
	<g>
		<path class="st5" d="M288.4,1326.5c-0.4,0-0.7-0.2-1-0.5c-93.8-127.9-143.3-279.6-143.3-438.7c0-79.6,12.5-157.7,37.1-231.9
			c0.2-0.6,0.9-1,1.6-0.8c0.6,0.2,1,0.9,0.8,1.6c-24.5,74-36.9,151.8-36.9,231.2c0,158.6,49.4,309.8,142.8,437.3
			c0.4,0.5,0.3,1.3-0.3,1.7C288.9,1326.4,288.6,1326.5,288.4,1326.5z"/>
	</g>
	<g>
		<path class="st5" d="M1486,1326.5c-0.3,0-0.5-0.1-0.7-0.2c-0.5-0.4-0.7-1.2-0.3-1.7c93.4-127.5,142.8-278.7,142.8-437.3
			c0-79.3-12.4-157-36.8-231.2c-0.2-0.6,0.1-1.3,0.8-1.6c0.6-0.2,1.3,0.1,1.6,0.8c24.5,74.4,37,152.4,37,231.9
			c0,159.1-49.6,310.8-143.3,438.7C1486.8,1326.4,1486.4,1326.5,1486,1326.5z"/>
	</g>
</g>
</svg>
