<?xml version="1.0" encoding="UTF-8"?>
<svg width="219px" height="310px" viewBox="0 0 219 310" version="1.1" xmlns="http://www.w3.org/2000/svg" xmlns:xlink="http://www.w3.org/1999/xlink">
    <title>Group 45</title>
    <defs>
        <polygon id="path-1" points="0.527417476 0.377085961 216.001049 0.377085961 216.001049 215.991591 0.527417476 215.991591"></polygon>
        <polygon id="path-3" points="0 0.09246875 15.884 0.09246875 15.884 24.3004549 0 24.3004549"></polygon>
        <polygon id="path-5" points="0.0677966102 308.503788 217.067797 308.503788 217.067797 0.503787879 0.0677966102 0.503787879"></polygon>
    </defs>
    <g id="Academic" stroke="none" stroke-width="1" fill="none" fill-rule="evenodd">
        <g id="Desktop" transform="translate(-631.000000, -1582.000000)">
            <g id="PII" transform="translate(0.000000, 1457.000000)">
                <g id="Group-45" transform="translate(631.932203, 125.496212)">
                    <path d="M119.982081,130.164872 C112.656011,134.365592 103.478482,134.471633 96.594286,130.433651 C89.6796519,126.375719 86.0848398,118.845711 86.1897978,108.648912 L86.1897978,108.562819 C86.1897978,101.263792 88.5104196,95.4986954 93.1033824,91.431315 C97.1977946,87.8059499 102.826693,85.8100567 108.954142,85.8100567 C124.718836,85.8100567 131.766767,96.8604384 131.766767,107.815278 C131.766767,117.867188 127.58524,125.809814 119.982081,130.164872 M135.583041,79.086385 C128.477383,72.9191695 119.041657,69.5132371 108.992977,69.5037879 L108.954142,69.5037879 C98.8477346,69.5037879 89.3731745,72.9569666 82.296905,79.2302237 C80.9345499,80.4386787 79.5060713,81.8781156 78.1353196,83.5947307 C73.7722148,88.9955064 69.8877186,97.0336748 69.8877186,108.486175 L68.9483444,200.197519 L17.3688262,200.197519 L17.3688262,125.541035 L8.21123923,136.322638 C5.21993575,140.178985 2.88042156,143.402232 1.06779661,146.039624 L1.06779661,216.503788 L85.0866891,216.503788 L85.8350397,142.894071 C86.6505635,143.459977 87.4849797,143.996485 88.3477346,144.505695 C100.180701,151.43935 115.772215,151.373205 128.08484,144.323009 C140.790008,137.041831 148.067797,123.737277 148.067797,107.815278 C148.067797,96.1128972 143.752973,86.1848772 135.583041,79.086385" id="Fill-1" fill="#1D639A"></path>
                    <g id="Group-5" transform="translate(0.067797, 0.503788)">
                        <mask id="mask-2" fill="white">
                            <use xlink:href="#path-1"></use>
                        </mask>
                        <g id="Clip-4"></g>
                        <path d="M199.85033,198.575457 L139.412272,199.254212 C146.855883,189.895148 153.436544,178.823485 158.581748,166.794443 C167.538408,145.913308 171.724194,123.519639 170.689282,102.026787 C170.37367,95.5566201 169.558951,88.4663566 167.931612,80.9728206 C181.53332,89.4038342 192.617476,100.456643 199.85033,113.318416 L199.85033,198.575457 Z M119.399767,47.8426765 C84.0711845,43.976498 50.5712621,52.9532388 23.9497864,72.8298587 C21.5066796,74.648251 19.1306796,76.5514877 16.8133981,78.5521382 L16.8133981,16.645098 L105.787573,16.645098 C120.732466,27.4884143 131.259845,39.3833815 138.608039,51.2877758 C132.37235,49.7186792 125.953165,48.5601873 119.399767,47.8426765 L119.399767,47.8426765 Z M215.196816,107.452635 C214.123107,105.423703 212.974951,103.442954 211.756544,101.490487 C208.816427,96.8114784 205.444311,92.3513894 201.698913,88.1594505 C190.883184,76.0445166 176.89666,66.0726878 160.947262,58.9719497 C154.529126,43.9000333 144.269126,28.3106712 128.204388,13.8515195 C123.644272,9.74651988 118.614408,5.7357917 113.06866,1.85075885 L110.961087,0.376981215 L0.527417476,0.376981215 L0.527417476,120.409727 L7.66380583,112.01747 L14.8777864,103.538273 C15.5194951,102.792481 16.1612039,102.045641 16.8133981,101.317656 C19.5427573,98.2747814 22.3979417,95.3942637 25.3862913,92.6960041 C25.3967767,92.686577 25.4156505,92.6771498 25.4250874,92.6677227 C42.4576311,77.2689985 63.5511845,67.5757944 86.5709126,64.3977977 C86.6002718,64.389418 86.6380194,64.389418 86.6673786,64.3789434 C94.1487379,63.3450994 101.831417,63.0109593 109.648311,63.3932826 C112.292738,63.5179304 114.956039,63.7284701 117.628777,64.0154744 C128.348039,65.1928206 138.656272,67.6805405 148.244155,71.3078979 C152.296777,82.6770396 153.973398,93.5004542 154.424272,102.80086 C156.474175,145.645158 135.38901,183.952902 114.937165,201.417219 L97.8658252,215.991591 L215.866835,215.991591 L215.99266,118.611237 L216.001049,108.974596 L215.196816,107.452635 Z" id="Fill-3" fill="#28AB9F" mask="url(#mask-2)"></path>
                    </g>
                    <path d="M216.067797,0.503787879 L215.971622,79.5037879 C211.1681,73.7631512 205.6579,68.4812628 199.58215,63.7251542 L199.764047,16.7704961 L153.148452,16.0153421 C148.782944,10.7418326 143.787072,5.55630223 138.067797,0.503787879 L216.067797,0.503787879 Z" id="Fill-6" fill="#1D639A"></path>
                    <g id="Group-10" transform="translate(0.067797, 223.503788)">
                        <mask id="mask-4" fill="white">
                            <use xlink:href="#path-3"></use>
                        </mask>
                        <g id="Clip-9"></g>
                        <path d="M5.24189474,5.16226042 L7.19978947,5.16226042 C8.46294737,5.16226042 9.41031579,5.37753819 10.0208421,5.78656597 C10.3050526,5.99107986 10.6418947,6.33552431 10.6418947,7.30427431 C10.6418947,8.25149653 10.2945263,8.63899653 9.99978947,8.86503819 C9.44189474,9.29559375 8.47347368,9.52163542 7.19978947,9.52163542 L5.24189474,9.52163542 L5.24189474,5.16226042 Z M15.2418947,4.13969097 C14.7997895,3.20323264 14.1682105,2.41746875 13.3471579,1.79316319 C12.5787368,1.20114931 11.6629474,0.759829861 10.6208421,0.490732639 C9.63136842,0.221635417 8.54715789,0.09246875 7.37873684,0.09246875 L-0.000210526316,0.09246875 L-0.000210526316,24.3004549 L5.24189474,24.3004549 L5.24189474,14.5591354 L7.32610526,14.5591354 C8.49452632,14.5591354 9.59978947,14.4192049 10.5892632,14.1393437 C11.6418947,13.8594826 12.5576842,13.4073993 13.3261053,12.8261493 C14.1261053,12.2126076 14.7682105,11.4268437 15.2103158,10.5011493 C15.6629474,9.57545486 15.884,8.49906597 15.884,7.30427431 C15.884,6.12024653 15.6629474,5.05462153 15.2418947,4.13969097 L15.2418947,4.13969097 Z" id="Fill-8" fill="#1D639A" mask="url(#mask-4)"></path>
                    </g>
                    <polygon id="Fill-11" fill="#1D639A" points="37.0677966 223.503788 37.0677966 247.503788 31.9717193 247.503788 31.9717193 237.664748 24.1638739 237.664748 24.1638739 247.503788 19.0677966 247.503788 19.0677966 223.503788 24.1638739 223.503788 24.1638739 232.521129 31.9717193 232.521129 31.9717193 223.503788"></polygon>
                    <mask id="mask-6" fill="white">
                        <use xlink:href="#path-5"></use>
                    </mask>
                    <g id="Clip-14"></g>
                    <polygon id="Fill-13" fill="#1D639A" mask="url(#mask-6)" points="41.0677966 247.503788 46.0677966 247.503788 46.0677966 223.503788 41.0677966 223.503788"></polygon>
                    <path d="M72.9315631,237.004515 L75.0437554,231.782895 L77.1559477,237.004515 L72.9315631,237.004515 Z M77.1147342,223.725805 L75.1364858,223.725805 L75.0437554,223.503788 L74.951025,223.725805 L73.0964171,223.725805 L65.2040302,242.470353 L56.1988785,242.470353 L56.1988785,223.725805 L51.0677966,223.725805 L51.0677966,247.503788 L68.7071784,247.503788 L70.8914944,242.09081 L79.2063198,242.09081 L81.4215459,247.503788 L87.0677966,247.503788 L77.1147342,223.725805 Z" id="Fill-15" fill="#1D639A" mask="url(#mask-6)"></path>
                    <path d="M93.083832,245.334272 L97.0894564,245.334272 C98.5826653,245.334272 99.8856629,245.051982 100.996415,244.485286 C102.107167,243.921761 103.026691,243.180616 103.754986,242.267136 C104.484299,241.350484 105.029503,240.305902 105.393651,239.131277 C105.757798,237.955594 105.939872,236.746079 105.939872,235.503788 C105.939872,234.259383 105.757798,233.050924 105.393651,231.876299 C105.029503,230.700616 104.484299,229.656035 103.754986,228.741497 C103.026691,227.824845 102.107167,227.085814 100.996415,226.520176 C99.8856629,225.956651 98.5826653,225.672246 97.0894564,225.672246 L93.083832,225.672246 L93.083832,245.334272 Z M91.0677966,223.503788 L97.6499183,223.503788 C98.8827311,223.503788 100.118595,223.752246 101.360563,224.249162 C102.601513,224.746079 103.72142,225.498854 104.7213,226.502202 C105.720163,227.508722 106.527798,228.7637 107.143187,230.266079 C107.760611,231.769515 108.067797,233.514008 108.067797,235.503788 C108.067797,237.514713 107.760611,239.266607 107.143187,240.758413 C106.527798,242.249162 105.720163,243.497797 104.7213,244.503259 C103.72142,245.508722 102.601513,246.261497 101.360563,246.758413 C100.118595,247.253215 98.8827311,247.503788 97.6499183,247.503788 L91.0677966,247.503788 L91.0677966,223.503788 Z" id="Fill-16" fill="#28AB9F" mask="url(#mask-6)"></path>
                    <polygon id="Fill-17" fill="#28AB9F" mask="url(#mask-6)" points="115.142855 245.334272 126.067797 245.334272 126.067797 247.503788 113.067797 247.503788 113.067797 223.503788 125.722303 223.503788 125.722303 225.672246 115.142855 225.672246 115.142855 233.910484 125.030267 233.910484 125.030267 236.078942 115.142855 236.078942"></polygon>
                    <polygon id="Fill-18" fill="#28AB9F" mask="url(#mask-6)" points="134.216694 245.334272 144.067797 245.334272 144.067797 247.503788 132.067797 247.503788 132.067797 223.503788 134.216694 223.503788"></polygon>
                    <path d="M151.035531,234.282643 L154.371346,234.282643 C155.920117,234.282643 157.095595,233.910484 157.897779,233.164052 C158.699963,232.418678 159.100063,231.334977 159.100063,229.909779 C159.100063,228.417973 158.686064,227.328986 157.857074,226.639647 C157.027092,225.94925 155.86452,225.604581 154.371346,225.604581 L151.035531,225.604581 L151.035531,234.282643 Z M149.067797,223.503788 L154.535158,223.503788 C155.520018,223.503788 156.411554,223.634889 157.213739,223.892863 C158.015923,224.152951 158.703935,224.548369 159.278767,225.080176 C159.851614,225.610924 160.293411,226.278061 160.604158,227.080528 C160.912919,227.881938 161.067797,228.825021 161.067797,229.909779 C161.067797,230.996651 160.908948,231.938678 160.590259,232.741145 C160.271569,233.543612 159.824808,234.210748 159.249976,234.741497 C158.676136,235.273303 157.984153,235.671894 157.173034,235.943612 C156.361914,236.21533 155.464421,236.35066 154.480554,236.35066 L151.035531,236.35066 L151.035531,247.503788 L149.067797,247.503788 L149.067797,223.503788 Z" id="Fill-19" fill="#28AB9F" mask="url(#mask-6)"></path>
                    <polygon id="Fill-20" fill="#28AB9F" mask="url(#mask-6)" points="167.067797 223.503788 169.240893 223.503788 169.240893 233.911541 180.8947 233.911541 180.8947 223.503788 183.067797 223.503788 183.067797 247.503788 180.8947 247.503788 180.8947 236.147665 169.240893 236.147665 169.240893 247.503788 167.067797 247.503788"></polygon>
                    <polygon id="Fill-21" fill="#28AB9F" mask="url(#mask-6)" points="189.067797 247.503788 191.067797 247.503788 191.067797 223.503788 189.067797 223.503788"></polygon>
                    <path d="M201.449125,238.961057 L210.626652,238.961057 L206.037888,226.214625 L201.449125,238.961057 Z M198.392086,247.503788 L196.067797,247.503788 L205.066942,223.503788 L207.126331,223.503788 L216.067797,247.503788 L213.713599,247.503788 L211.420285,241.198237 L200.65656,241.198237 L198.392086,247.503788 Z" id="Fill-22" fill="#28AB9F" mask="url(#mask-6)"></path>
                    <polygon id="Fill-23" fill="#28AB9F" mask="url(#mask-6)" points="1.06779661 270.503788 3.06779661 270.503788 3.06779661 252.503788 1.06779661 252.503788"></polygon>
                    <polygon id="Fill-24" fill="#28AB9F" mask="url(#mask-6)" points="21.1410827 267.834052 21.1937369 267.834052 21.1937369 252.503788 23.0677966 252.503788 23.0677966 270.503788 20.7241474 270.503788 9.99451056 255.020368 9.94293093 255.020368 9.94293093 270.503788 8.06779661 270.503788 8.06779661 252.503788 10.4114459 252.503788"></polygon>
                    <polygon id="Fill-25" fill="#28AB9F" mask="url(#mask-6)" points="34.9914665 270.503788 33.1451848 270.503788 33.1451848 254.130806 27.0677966 254.130806 27.0677966 252.503788 41.0677966 252.503788 41.0677966 254.130806 34.9914665 254.130806"></polygon>
                    <polygon id="Fill-26" fill="#28AB9F" mask="url(#mask-6)" points="46.9836246 268.87677 57.0677966 268.87677 57.0677966 270.503788 45.0677966 270.503788 45.0677966 252.503788 56.748309 252.503788 56.748309 254.129757 46.9836246 254.129757 46.9836246 260.308438 56.1104316 260.308438 56.1104316 261.935456 46.9836246 261.935456"></polygon>
                    <path d="M63.8828265,260.512996 L67.0333856,260.512996 C68.4958108,260.512996 69.6212334,260.245498 70.4106934,259.7126 C71.2011935,259.178652 71.5964436,258.378256 71.5964436,257.308264 C71.5964436,256.716621 71.4872297,256.216242 71.2688021,255.810274 C71.0503744,255.403258 70.7476961,255.07177 70.3607671,254.817909 C69.973838,254.564048 69.5036985,254.376275 68.9493083,254.258785 C68.394918,254.141296 67.7822804,254.080453 67.1093152,254.080453 L63.8828265,254.080453 L63.8828265,260.512996 Z M63.8828265,270.503788 L62.0677966,270.503788 L62.0677966,252.503788 L67.3100606,252.503788 C68.1848114,252.503788 68.9961142,252.588758 69.7439689,252.757649 C70.4907835,252.929687 71.1377455,253.203479 71.6838146,253.585319 C72.2298838,253.96716 72.6552977,254.461245 72.9569359,255.07177 C73.2596142,255.682295 73.4104333,256.428142 73.4104333,257.308264 C73.4104333,257.971239 73.2939386,258.572323 73.0578287,259.114663 C72.8227589,259.657002 72.5034385,260.128008 72.0998673,260.526633 C71.6973364,260.925258 71.2188757,261.24101 70.6634454,261.479136 C70.108015,261.716213 69.5036985,261.869369 68.8484155,261.935456 L74.0677966,270.503788 L71.8481555,270.503788 L66.9075296,262.088612 L63.8828265,262.088612 L63.8828265,270.503788 Z" id="Fill-27" fill="#28AB9F" mask="url(#mask-6)"></path>
                    <polygon id="Fill-28" fill="#28AB9F" mask="url(#mask-6)" points="92.1410827 267.834052 92.1926623 267.834052 92.1926623 252.503788 94.0677966 252.503788 94.0677966 270.503788 91.7241474 270.503788 80.9945106 255.020368 80.9429309 255.020368 80.9429309 270.503788 79.0677966 270.503788 79.0677966 252.503788 81.4114459 252.503788"></polygon>
                    <path d="M102.642458,264.09747 L110.442592,264.09747 L106.542525,254.537822 L102.642458,264.09747 Z M100.043102,270.503788 L98.0677966,270.503788 L105.717332,252.503788 L107.466741,252.503788 L115.067797,270.503788 L113.066704,270.503788 L111.117187,265.77589 L101.966832,265.77589 L100.043102,270.503788 Z" id="Fill-29" fill="#28AB9F" mask="url(#mask-6)"></path>
                    <polygon id="Fill-30" fill="#28AB9F" mask="url(#mask-6)" points="123.991467 270.503788 122.145185 270.503788 122.145185 254.130806 116.067797 254.130806 116.067797 252.503788 130.067797 252.503788 130.067797 254.130806 123.991467 254.130806"></polygon>
                    <polygon id="Fill-31" fill="#28AB9F" mask="url(#mask-6)" points="134.067797 270.503788 136.067797 270.503788 136.067797 252.503788 134.067797 252.503788"></polygon>
                    <path d="M158.112133,262.016433 C158.112133,260.962634 157.938981,259.960471 157.596926,259.007837 C157.252746,258.056256 156.755597,257.218486 156.102293,256.496633 C155.450051,255.773727 154.656525,255.20046 153.721716,254.774725 C152.785844,254.350044 151.735246,254.137177 150.567797,254.137177 C149.401409,254.137177 148.349749,254.350044 147.41494,254.774725 C146.479068,255.20046 145.68448,255.773727 145.0333,256.496633 C144.381058,257.218486 143.882847,258.056256 143.538668,259.007837 C143.19555,259.960471 143.024523,260.962634 143.024523,262.016433 C143.024523,263.070233 143.19555,264.07345 143.538668,265.02503 C143.882847,265.976611 144.381058,266.81122 145.0333,267.524642 C145.68448,268.238064 146.479068,268.807116 147.41494,269.232851 C148.349749,269.657532 149.401409,269.869345 150.567797,269.869345 C151.735246,269.869345 152.785844,269.657532 153.721716,269.232851 C154.656525,268.807116 155.450051,268.238064 156.102293,267.524642 C156.755597,266.81122 157.252746,265.976611 157.596926,265.02503 C157.938981,264.07345 158.112133,263.070233 158.112133,262.016433 M160.067797,262.003788 C160.067797,263.383211 159.826658,264.651985 159.347568,265.810111 C158.866354,266.967182 158.201365,267.967238 157.351538,268.809223 C156.502774,269.652263 155.497854,270.312995 154.338903,270.789312 C153.181014,271.264575 151.92327,271.503788 150.567797,271.503788 C149.211261,271.503788 147.95458,271.264575 146.797753,270.789312 C145.63774,270.312995 144.633882,269.652263 143.785117,268.809223 C142.935291,267.967238 142.269239,266.967182 141.789087,265.810111 C141.308935,264.651985 141.067797,263.383211 141.067797,262.003788 C141.067797,260.624365 141.308935,259.357698 141.789087,258.197465 C142.269239,257.040394 142.935291,256.039284 143.785117,255.197299 C144.633882,254.354259 145.63774,253.695635 146.797753,253.21721 C147.95458,252.741947 149.211261,252.503788 150.567797,252.503788 C151.92327,252.503788 153.181014,252.741947 154.338903,253.21721 C155.497854,253.695635 156.502774,254.354259 157.351538,255.197299 C158.201365,256.039284 158.866354,257.040394 159.347568,258.197465 C159.826658,259.357698 160.067797,260.624365 160.067797,262.003788" id="Fill-32" fill="#28AB9F" mask="url(#mask-6)"></path>
                    <polygon id="Fill-33" fill="#28AB9F" mask="url(#mask-6)" points="178.140008 267.834052 178.191588 267.834052 178.191588 252.503788 180.067797 252.503788 180.067797 270.503788 177.723073 270.503788 166.994511 255.020368 166.941856 255.020368 166.941856 270.503788 165.067797 270.503788 165.067797 252.503788 167.411446 252.503788"></polygon>
                    <path d="M188.642736,264.09747 L196.443343,264.09747 L192.543039,254.537822 L188.642736,264.09747 Z M186.04219,270.503788 L184.067797,270.503788 L191.716765,252.503788 L193.468343,252.503788 L201.067797,270.503788 L199.066583,270.503788 L197.117979,265.77589 L187.969132,265.77589 L186.04219,270.503788 Z" id="Fill-34" fill="#28AB9F" mask="url(#mask-6)"></path>
                    <polygon id="Fill-35" fill="#28AB9F" mask="url(#mask-6)" points="207.859852 268.87677 216.067797 268.87677 216.067797 270.503788 206.067797 270.503788 206.067797 252.503788 207.859852 252.503788"></polygon>
                    <polygon id="Fill-36" fill="#1D639A" mask="url(#mask-6)" points="0.0677966102 308.503788 4.06779661 308.503788 4.06779661 277.503788 0.0677966102 277.503788"></polygon>
                    <polygon id="Fill-37" fill="#1D639A" mask="url(#mask-6)" points="38.0677966 277.503788 38.0677966 308.503788 33.528074 308.503788 17.1136142 283.840568 17.1136142 308.503788 13.0677966 308.503788 13.0677966 277.503788 17.6180278 277.503788 34.021979 301.92123 34.021979 277.503788"></polygon>
                    <path d="M65.0677966,299.495345 C65.0677966,301.040731 64.7644493,302.407398 64.168215,303.542784 C63.582441,304.678169 62.7979221,305.624324 61.8564995,306.359171 C60.9150769,307.085607 59.8272108,307.642787 58.624282,307.989711 C57.4318133,308.335583 56.2288845,308.503788 55.0259556,308.503788 C54.1054535,308.503788 53.1849514,308.409172 52.2749096,308.220993 C51.3544075,308.042275 50.4652861,307.757377 49.6389263,307.379966 C48.8021062,307.001505 48.0071272,306.517914 47.2853698,305.939709 C46.5740728,305.361503 45.9255372,304.678169 45.3711439,303.921246 L45.0677966,303.500733 L48.5092192,300.935602 L48.8125665,301.429705 C49.3983405,302.407398 50.2351606,303.237912 51.3021062,303.889707 C52.3585916,304.541503 53.624282,304.877913 55.0677966,304.877913 C55.7581732,304.877913 56.4694703,304.762272 57.1912276,304.541503 C57.9025246,304.331246 58.5406,303.993784 59.1054535,303.552245 C59.6703071,303.110707 60.1410184,302.565091 60.5071272,301.923808 C60.8627757,301.293039 61.0406,300.546628 61.0406,299.70455 C61.0406,298.779421 60.8627757,298.013036 60.5175874,297.413805 C60.1514786,296.803009 59.6703071,296.287881 59.0740728,295.878932 C58.4569179,295.446854 57.7247004,295.079957 56.919261,294.795059 C56.0719807,294.490187 55.1723991,294.185315 54.2414368,293.880443 C53.2895539,293.587135 52.3167506,293.229699 51.3544075,292.82916 C50.3711439,292.420211 49.4715623,291.884057 48.6870435,291.232261 C47.8920644,290.55944 47.2435288,289.728927 46.751897,288.750182 C46.2602652,287.763028 46.0196795,286.553001 46.0196795,285.145333 C46.0196795,283.641999 46.3230267,282.327895 46.9297213,281.234561 C47.5259556,280.141227 48.3313949,279.226611 49.293738,278.522251 C50.2456209,277.828404 51.3230267,277.302763 52.4841146,276.987378 C53.624282,276.671993 54.7749096,276.503788 55.8941564,276.503788 C57.9548259,276.503788 59.7435288,276.881198 61.2184242,277.627609 C62.6933196,278.363507 63.8230267,279.268662 64.5866251,280.297868 L64.8899723,280.698407 L61.710056,283.284563 L61.3857882,282.83146 C60.8000142,282.01251 60.0364159,281.349151 59.1159138,280.845586 C58.2058719,280.351483 57.0761648,280.099175 55.7686334,280.099175 C55.0991774,280.099175 54.4088008,280.203252 53.7288845,280.404047 C53.0385079,280.614304 52.4108928,280.929689 51.8669598,281.338638 C51.3230267,281.74969 50.8732359,282.275331 50.5385079,282.906101 C50.2142401,283.515845 50.0468761,284.251743 50.0468761,285.103282 C50.0468761,285.943257 50.1933196,286.638155 50.5071272,287.163796 C50.8209347,287.710464 51.249805,288.18249 51.7832778,288.562003 C52.3376711,288.970952 52.9757464,289.297901 53.6765832,289.560721 C54.4297213,289.834055 55.2142401,290.117901 56.0406,290.391235 C57.0447841,290.716081 58.0908092,291.085082 59.1368343,291.474056 C60.2037799,291.884057 61.1870435,292.409698 62.0552443,293.061493 C62.9339054,293.734315 63.666123,294.585854 64.2205163,295.605598 C64.7853698,296.634804 65.0677966,297.939446 65.0677966,299.495345" id="Fill-38" fill="#1D639A" mask="url(#mask-6)"></path>
                    <polygon id="Fill-39" fill="#1D639A" mask="url(#mask-6)" points="93.0677966 277.503788 93.0677966 281.275935 83.1067347 281.275935 83.1067347 308.503788 79.0182391 308.503788 79.0182391 281.275935 69.0677966 281.275935 69.0677966 277.503788"></polygon>
                    <polygon id="Fill-40" fill="#1D639A" mask="url(#mask-6)" points="99.0677966 308.503788 103.067797 308.503788 103.067797 277.503788 99.0677966 277.503788"></polygon>
                    <polygon id="Fill-41" fill="#1D639A" mask="url(#mask-6)" points="133.067797 277.503788 133.067797 281.275935 123.11114 281.275935 123.11114 308.503788 119.024453 308.503788 119.024453 281.275935 109.067797 281.275935 109.067797 277.503788"></polygon>
                    <path d="M162.067797,277.503788 L162.067797,296.352038 C162.067797,297.582859 161.900295,298.928418 161.575762,300.32613 C161.24076,301.744703 160.633568,303.080874 159.775125,304.289791 C158.895744,305.49975 157.702298,306.521957 156.215726,307.31469 C154.717637,308.107422 152.823828,308.503788 150.562562,308.503788 C148.280359,308.503788 146.364565,308.107422 144.888461,307.31469 C143.412357,306.521957 142.229381,305.49975 141.35,304.289791 C140.491556,303.080874 139.884365,301.744703 139.549362,300.32613 C139.224829,298.928418 139.067797,297.59329 139.067797,296.352038 L139.067797,277.503788 L143.087824,277.503788 L143.087824,296.018256 C143.087824,297.155201 143.223919,298.271285 143.496108,299.335215 C143.74736,300.378283 144.176581,301.317045 144.752366,302.130638 C145.328152,302.923371 146.092376,303.580504 147.034569,304.081177 C147.976763,304.571419 149.170209,304.821756 150.562562,304.821756 C151.954915,304.821756 153.147314,304.571419 154.090555,304.081177 C155.032749,303.580504 155.796973,302.923371 156.372758,302.130638 C156.947496,301.317045 157.377765,300.378283 157.629016,299.335215 C157.901206,298.271285 158.036254,297.155201 158.036254,296.018256 L158.036254,277.503788 L162.067797,277.503788 Z" id="Fill-42" fill="#1D639A" mask="url(#mask-6)"></path>
                    <polygon id="Fill-43" fill="#1D639A" mask="url(#mask-6)" points="192.067797 277.503788 192.067797 281.275935 182.11114 281.275935 182.11114 308.503788 178.024453 308.503788 178.024453 281.275935 168.067797 281.275935 168.067797 277.503788"></polygon>
                    <polygon id="Fill-44" fill="#1D639A" mask="url(#mask-6)" points="217.067797 304.732579 217.067797 308.503788 197.067797 308.503788 197.067797 277.503788 216.55854 277.503788 216.55854 281.276065 201.153522 281.276065 201.153522 290.475934 215.549575 290.475934 215.549575 294.258898 201.153522 294.258898 201.153522 304.732579"></polygon>
                </g>
            </g>
        </g>
    </g>
</svg>