<?xml version="1.0" encoding="UTF-8"?>
<svg width="296px" height="297px" viewBox="0 0 296 297" version="1.1" xmlns="http://www.w3.org/2000/svg" xmlns:xlink="http://www.w3.org/1999/xlink">
    <title>Group 9</title>
    <defs>
        <polygon id="path-1" points="0 0.222718447 295.278536 0.222718447 295.278536 295.999569 0 295.999569"></polygon>
        <polygon id="path-3" points="0.017568 0.222302632 107.46144 0.222302632 107.46144 108.400357 0.017568 108.400357"></polygon>
    </defs>
    <g id="Academic" stroke="none" stroke-width="1" fill="none" fill-rule="evenodd">
        <g id="Desktop" transform="translate(-364.000000, -865.000000)">
            <g id="Group-9" transform="translate(364.000000, 865.000000)">
                <path d="M162.597083,177.944747 C152.579804,183.688589 140.030938,183.833585 130.617853,178.312261 C121.163149,172.763661 116.247794,162.467528 116.391308,148.524966 L116.391308,148.407247 C116.391308,138.426945 119.564403,130.544057 125.844576,124.982537 C131.443058,120.025405 139.139716,117.296327 147.518064,117.296327 C169.07387,117.296327 178.710837,132.406032 178.710837,147.385098 C178.710837,161.129547 172.993238,171.989872 162.597083,177.944747 M183.929007,108.102735 C174.213108,99.6700116 161.311197,95.0129204 147.571164,95 L147.518064,95 C133.699099,95 120.744088,99.7216933 111.068373,108.299412 C109.205561,109.95179 107.252335,111.919999 105.378042,114.267208 C99.4121637,121.651942 94.1007097,132.642907 94.1007097,148.302448 L92.8162592,273.703673 L22.2891629,273.703673 L22.2891629,171.622358 L9.7675644,186.36455 C5.67741475,191.637514 2.47848718,196.044811 0,199.651042 L0,296 L114.882975,296 L115.90623,195.34998 C117.021334,196.123769 118.162271,196.857361 119.341956,197.553628 C135.521727,207.03434 156.840735,206.943897 173.676365,197.303833 C191.048738,187.347937 201,169.155995 201,147.385098 C201,131.383884 195.100139,117.808836 183.929007,108.102735" id="Fill-1" fill="#FEFEFE"></path>
                <g id="Group-5">
                    <mask id="mask-2" fill="white">
                        <use xlink:href="#path-1"></use>
                    </mask>
                    <g id="Clip-4"></g>
                    <path d="M273.14607,272.108346 L190.323546,273.039452 C200.52405,260.200812 209.541992,245.01285 216.592827,228.511569 C228.866769,199.867103 234.602847,169.147763 233.184633,139.664151 C232.752128,130.788462 231.635662,121.062132 229.405604,110.782598 C248.044983,122.348151 263.234381,137.510249 273.14607,155.15386 L273.14607,272.108346 Z M162.899002,65.3351029 C114.485759,60.0315301 68.5784583,72.3457049 32.0971767,99.6121903 C28.7492155,102.1052 25.4932155,104.717472 22.3176816,107.461938 L22.3176816,22.5386757 L144.245254,22.5386757 C164.725293,37.4133942 179.151701,53.7307534 189.221449,70.0610447 C180.676245,67.9085786 171.879584,66.3193748 162.899002,65.3351029 L162.899002,65.3351029 Z M294.176439,147.107258 C292.70506,144.323996 291.131662,141.606831 289.461992,138.928462 C285.432944,132.50986 280.811895,126.391569 275.679313,120.641122 C260.857759,104.022016 241.691041,90.3427922 219.834458,80.6020932 C211.039235,59.9266369 196.979235,38.5413553 174.964594,18.7064816 C168.715546,13.0752971 161.822769,7.57343301 154.223041,2.24399612 L151.334885,0.222287379 L-0.00014368932,0.222287379 L-0.00014368932,164.881627 L9.77935146,153.369239 L19.6651767,141.737588 C20.5445553,140.71452 21.423934,139.690016 22.3176816,138.691375 C26.0579146,134.5172 29.9705748,130.565744 34.0657204,126.864307 C34.0800893,126.851375 34.1059534,126.838443 34.1188854,126.825511 C57.4597786,105.701744 86.3657592,92.404734 117.911313,88.0452 C117.951546,88.0337049 118.003274,88.0337049 118.043507,88.0193359 C128.29574,86.6011223 138.823856,86.1427534 149.535895,86.6672194 C153.15974,86.8382097 156.809449,87.1270252 160.472089,87.520734 C175.161449,89.1358019 189.287546,92.5484233 202.426497,97.5243845 C207.980089,113.120423 210.277682,127.967841 210.895546,140.726016 C213.704672,199.499258 184.810186,252.049317 156.783584,276.006637 L133.389526,295.999569 L295.094614,295.999569 L295.267041,162.414482 L295.278536,149.193627 L294.176439,147.107258 Z" id="Fill-3" fill="#FEFEFE" mask="url(#mask-2)"></path>
                </g>
                <g id="Group-8" transform="translate(188.000000, 0.000000)">
                    <mask id="mask-4" fill="white">
                        <use xlink:href="#path-3"></use>
                    </mask>
                    <g id="Clip-7"></g>
                    <path d="M107.461728,0.222159211 L107.329248,108.400357 C100.712448,100.539449 93.122208,93.306725 84.752928,86.793975 L85.003488,22.4968829 L20.791008,21.4628171 C14.777568,14.2415671 7.895808,7.14079079 0.017568,0.222159211 L107.461728,0.222159211 Z" id="Fill-6" fill="#FEFEFE" mask="url(#mask-4)"></path>
                </g>
            </g>
        </g>
    </g>
</svg>