<?xml version="1.0" encoding="UTF-8"?>
<svg width="95px" height="69px" viewBox="0 0 95 69" version="1.1" xmlns="http://www.w3.org/2000/svg" xmlns:xlink="http://www.w3.org/1999/xlink">
    <title>Group 8</title>
    <g id="Academic" stroke="none" stroke-width="1" fill="none" fill-rule="evenodd">
        <g id="Desktop" transform="translate(-407.000000, -2088.000000)" fill="#231F20">
            <g id="PII" transform="translate(0.000000, 1457.000000)">
                <g id="Group-2" transform="translate(47.000000, 611.000000)">
                    <g id="Group-8" transform="translate(360.000000, 20.571320)">
                        <path d="M30.1941,24.811 L37.4861,20.718 C37.4861,20.718 39.0371,25.567 39.5021,25.724 C39.9681,25.88 45.7081,28.662 46.3281,28.366 C46.9491,28.07 52.6891,25.039 52.6891,25.039 L54.8611,19.78 L61.0661,22.439 L57.3431,30.886 L47.8801,34.64 L38.2611,33.702 L30.1941,24.811 Z" id="Fill-1"></path>
                        <polygon id="Fill-3" points="27.8672 25.5673 35.7792 35.5783 47.7242 37.6123 59.6702 32.9193 63.8582 23.3773 74.8732 33.0763 66.9612 36.8763 52.9992 41.0533 34.6932 41.0533 21.6612 36.8763 16.2322 30.4163"></polygon>
                        <polygon id="Fill-4" points="14.009 28.75 26.479 22.31 37.561 17.166 56.366 17.166 68.568 22.426 77.545 31.478 74.146 17.166 55.146 6.783 20.633 14.516"></polygon>
                        <polyline id="Fill-5" points="14.009 31.4775 14.628 32.3495 20.807 41.0535 35.275 44.5715 56.018 44.5715 76.935 35.3555 72.229 45.4505 47.999 53.5355 18.715 49.8445"></polyline>
                        <polygon id="Fill-6" points="45.5526 -0.0002 27.2336 0.8348 8.0226 6.7828 -0.0004 26.0178 5.2036 54.4408 21.6836 67.5588 49.0046 67.5588 46.8046 57.4228 15.3956 51.8178 8.8906 30.4158 17.9976 12.1248 36.9796 8.6448"></polygon>
                        <polygon id="Fill-7" points="50.0886 -0.0002 43.3616 6.7828 56.3766 3.1068 78.7316 13.5558 81.9626 35.3558 74.8736 50.0678 51.3886 57.5018 52.6906 66.6848 83.9146 56.4078 94.3226 30.4158 83.4806 -0.0002"></polygon>
                    </g>
                </g>
            </g>
        </g>
    </g>
</svg>