<?xml version="1.0" encoding="utf-8"?>
<!-- Generator: Adobe Illustrator 24.2.1, SVG Export Plug-In . SVG Version: 6.00 Build 0)  -->
<svg version="1.1" id="Layer_1" xmlns="http://www.w3.org/2000/svg" xmlns:xlink="http://www.w3.org/1999/xlink" x="0px" y="0px"
	 viewBox="0 0 288 288" style="enable-background:new 0 0 288 288;" xml:space="preserve">
<path d="M106,102.8v153.9H63.3V145.5C63.3,121.9,82.5,102.8,106,102.8L106,102.8z"/>
<path d="M157.7,83.5v61.3c0,22.7-19.1,41.2-42.7,41.2V83.5H157.7z"/>
<rect x="166.6" y="82.9" width="42.7" height="102.3"/>
<path d="M187.9,74L187.9,74c-11.8,0-21.4-9.6-21.4-21.4v0c0-11.8,9.6-21.4,21.4-21.4h0c11.8,0,21.4,9.6,21.4,21.4v0
	C209.3,64.5,199.7,74,187.9,74z"/>
<path d="M157.7,52.6L157.7,52.6c0,11.8-9.6,21.4-21.4,21.4h0c-11.8,0-21.4-9.6-21.4-21.4v0c0-11.8,9.6-21.4,21.4-21.4h0
	C148.1,31.3,157.7,40.8,157.7,52.6z"/>
</svg>
