<?xml version="1.0" encoding="UTF-8"?>
<svg width="95px" height="99px" viewBox="0 0 95 99" version="1.1" xmlns="http://www.w3.org/2000/svg" xmlns:xlink="http://www.w3.org/1999/xlink">
    <title>Group 9</title>
    <defs>
        <polygon id="path-1" points="0 0.0722174957 94.5537837 0.0722174957 94.5537837 95.9792417 0 95.9792417"></polygon>
        <polygon id="path-3" points="0.00568043704 0.0721174715 34.7465815 0.0721174715 34.7465815 35.1662937 0.00568043704 35.1662937"></polygon>
    </defs>
    <g id="Academic" stroke="none" stroke-width="1" fill="none" fill-rule="evenodd">
        <g id="Desktop" transform="translate(-755.000000, -2075.000000)">
            <g id="PII" transform="translate(0.000000, 1457.000000)">
                <g id="Group-2" transform="translate(47.000000, 611.000000)">
                    <g id="Group-9" transform="translate(708.000000, 7.571320)">
                        <path d="M52.4620416,58.6438932 C49.2299609,60.5205035 45.181062,60.5678761 42.1439248,58.7639663 C39.0933592,56.9511448 37.5074171,53.5872235 37.5537219,49.0319526 L37.5537219,48.9934917 C37.5537219,45.7327582 38.5775229,43.1572853 40.6038245,41.3402425 C42.4101779,39.7206636 44.8935087,38.8290274 47.5967877,38.8290274 C54.5517809,38.8290274 57.6611537,43.7656241 57.6611537,48.6595385 C57.6611537,53.1500826 55.8163672,56.6983348 52.4620416,58.6438932 M59.3447992,35.8253253 C56.2099587,33.0702119 52.0471498,31.5486613 47.6139205,31.54444 L47.5967877,31.54444 C43.1380906,31.54444 38.958149,33.0870971 35.8362739,35.8895831 C35.2352365,36.4294428 34.6050271,37.0724902 34.0002853,37.8393629 C32.0753914,40.2520806 30.3616477,43.8430149 30.3616477,48.9592521 L29.9472191,89.9299557 L7.19161114,89.9299557 L7.19161114,56.5782617 L3.15151023,61.3947853 C1.83182111,63.117552 0.799685303,64.5574904 0,65.7357071 L0,97.2145431 L37.0670576,97.2145431 L37.3972114,64.3304774 C37.7570004,64.5832874 38.1251242,64.8229644 38.5057503,65.0504466 C43.7261626,68.1479558 50.6047528,68.1184065 56.0367784,64.9688344 C61.6419843,61.7160745 64.8527648,55.772459 64.8527648,48.6595385 C64.8527648,43.4316709 62.9491711,38.996473 59.3447992,35.8253253" id="Fill-1" fill="#231F20"></path>
                        <g id="Group-5" transform="translate(0.000000, 0.224852)">
                            <mask id="mask-2" fill="white">
                                <use xlink:href="#path-1"></use>
                            </mask>
                            <g id="Clip-4"></g>
                            <path d="M87.4665486,88.232401 L60.9452065,88.5343167 C64.2116015,84.3713275 67.0993174,79.4465603 69.3571284,74.0959427 C73.2874772,64.8078409 75.1242779,54.8469516 74.6701391,45.2867529 C74.5316428,42.4087692 74.1741292,39.2549613 73.4600223,35.9217744 C79.4287046,39.6719591 84.2926378,44.5883399 87.4665486,50.3093633 L87.4665486,88.232401 Z M52.1633479,21.185212 C36.66051,19.4655038 21.9601221,23.4584324 10.2781243,32.2997176 C9.2060437,33.1080876 8.16341079,33.955129 7.14654462,34.8450349 L7.14654462,7.30827079 L46.1900643,7.30827079 C52.7481609,12.1314677 57.3677701,17.4224476 60.5922942,22.7176207 C57.8559579,22.0196736 55.0391006,21.5043668 52.1633479,21.185212 L52.1633479,21.185212 Z M94.2008713,47.700215 C93.729708,46.7977293 93.2258761,45.9166759 92.6912161,45.0482022 C91.4010384,42.9669406 89.9212911,40.9830561 88.2777409,39.118447 C83.5315986,33.729624 77.3940521,29.294072 70.3951601,26.1356049 C67.5787629,19.4314917 63.0764844,12.4972143 56.0269792,6.06566395 C54.0259154,4.2397261 51.8187177,2.455721 49.3851407,0.727626214 L48.4602986,0.0720777199 L-4.60120438e-05,0.0720777199 L-4.60120438e-05,53.4636371 L3.13153369,49.7306915 L6.2971623,45.9590745 C6.578756,45.62734 6.86034971,45.2951395 7.14654462,44.9713255 C8.34423812,43.6178299 9.59714607,42.3365517 10.9084893,41.1363436 C10.9130905,41.1321503 10.9213727,41.127957 10.9255138,41.1237637 C18.3997102,34.2742837 27.655953,29.9626662 37.7574371,28.549067 C37.7703205,28.5453397 37.7868848,28.5453397 37.7997682,28.5406805 C41.0827275,28.0808181 44.4540299,27.9321898 47.8842278,28.1022504 C49.0446515,28.1576948 50.2133575,28.2513446 51.3862044,28.3790065 C56.0900157,28.9026998 60.6134597,30.0092582 64.820801,31.6227368 C66.5991665,36.6798252 67.3348991,41.4941696 67.5327508,45.6310673 C68.4322863,64.6885656 59.1797244,81.7281672 50.2050753,89.4964401 L42.7138544,95.9792417 L94.4948882,95.9792417 L94.5501027,52.6636536 L94.5537837,48.3767299 L94.2008713,47.700215 Z" id="Fill-3" fill="#231F20" mask="url(#mask-2)"></path>
                        </g>
                        <g id="Group-8" transform="translate(59.864091, 0.224852)">
                            <mask id="mask-4" fill="white">
                                <use xlink:href="#path-3"></use>
                            </mask>
                            <g id="Clip-7"></g>
                            <path d="M34.7466747,0.0720709441 L34.7038386,35.1662937 C32.5643625,32.6161268 30.1101343,30.26975 27.4040114,28.1569407 L27.4850274,7.29824159 L6.72256443,6.96277903 C4.77817877,4.62012439 2.55303052,2.31655277 0.00568043704,0.0720709441 L34.7466747,0.0720709441 Z" id="Fill-6" fill="#231F20" mask="url(#mask-4)"></path>
                        </g>
                    </g>
                </g>
            </g>
        </g>
    </g>
</svg>