<?xml version="1.0" encoding="UTF-8"?>
<svg width="101px" height="101px" viewBox="0 0 101 101" version="1.1" xmlns="http://www.w3.org/2000/svg" xmlns:xlink="http://www.w3.org/1999/xlink">
    <title>Group 6</title>
    <defs>
        <polygon id="path-1" points="5.67677814e-05 0.604685783 100.304 0.604685783 100.304 98.7843034 5.67677814e-05 98.7843034"></polygon>
        <polygon id="path-3" points="0 99.1776485 100.304 99.1776485 100.304 0.998030892 0 0.998030892"></polygon>
    </defs>
    <g id="Academic" stroke="none" stroke-width="1" fill="none" fill-rule="evenodd">
        <g id="Desktop" transform="translate(-638.000000, -2068.000000)">
            <g id="PII" transform="translate(0.000000, 1457.000000)">
                <g id="Group-2" transform="translate(47.000000, 611.000000)">
                    <g id="Group-6" transform="translate(591.000000, 0.571320)">
                        <g id="Group-3" transform="translate(0.000000, 0.393345)">
                            <mask id="mask-2" fill="white">
                                <use xlink:href="#path-1"></use>
                            </mask>
                            <g id="Clip-2"></g>
                            <path d="M50.1527,37.7392779 C43.3817,37.7392779 37.8727,43.1036191 37.8727,49.6972885 C37.8727,56.2909579 43.3817,61.6552991 50.1527,61.6552991 C56.9237,61.6552991 62.4317,56.2909579 62.4317,49.6972885 C62.4317,43.1036191 56.9237,37.7392779 50.1527,37.7392779 L50.1527,37.7392779 Z M50.1527,66.6444557 C40.6247,66.6444557 32.8727,59.0419789 32.8727,49.6972885 C32.8727,40.3525981 40.6247,32.7501213 50.1527,32.7501213 C59.6807,32.7501213 67.4317,40.3525981 67.4317,49.6972885 C67.4317,59.0419789 59.6807,66.6444557 50.1527,66.6444557 L50.1527,66.6444557 Z M49.4727,5.59913092 C27.2127,5.9204326 8.8027,22.0543673 5.5207,42.9898663 C15.6337,31.7981902 31.3187,25.2085121 49.0707,25.0089459 C55.4997,24.9410933 61.7747,25.7493367 67.6607,27.3438712 C63.8577,18.1189206 57.6137,10.5274198 49.4727,5.59913092 L49.4727,5.59913092 Z M73.7527,29.3255642 C81.9807,32.4687328 89.2247,37.2293861 94.8287,43.2852244 C92.0687,24.8433059 77.5797,10.0704131 59.0187,6.44828537 C65.7207,12.4123232 70.7587,20.2772297 73.7527,29.3255642 L73.7527,29.3255642 Z M75.4197,35.4273027 C76.3427,39.6620989 76.8467,44.1004526 76.8977,48.6795006 C77.0917,66.2323514 70.2717,82.4710584 58.6807,93.0071593 C78.8147,89.2323634 94.2377,72.3540466 95.2517,51.8456193 C90.5467,44.8238803 83.6377,39.20609 75.4197,35.4273027 L75.4197,35.4273027 Z M5.0517,51.8126909 C6.1767,74.9214666 25.5967,93.429242 49.4427,93.7904569 C63.5047,84.8379143 72.0797,67.648274 71.8707,48.7343813 C71.8097,43.2752461 71.0537,38.0396251 69.6707,33.1552408 C63.2967,31.0248709 56.3417,29.9252608 49.1267,29.9981025 C30.0387,30.2126362 13.6307,38.3519463 5.0517,51.8126909 L5.0517,51.8126909 Z M50.1547,98.7856006 C50.1407,98.7856006 50.1267,98.7846027 50.1127,98.7846027 C23.1347,98.7636483 1.0737,77.7832468 0.0387,51.6161181 C-0.0023,51.3826256 -0.0113,51.1431461 0.0147,50.9046644 C0.0057,50.5025384 5.67677814e-05,50.0994145 5.67677814e-05,49.694295 C5.67677814e-05,22.6410921 22.4757,0.629930916 50.1097,0.604541652 C50.1297,0.604541652 50.1537,0.604541652 50.1687,0.604541652 C50.1937,0.604541652 50.2107,0.604541652 50.2297,0.604541652 C77.8487,0.645896217 100.304343,22.6510704 100.304343,49.694295 C100.304343,50.0994145 100.2987,50.5025384 100.2897,50.9046644 C100.3157,51.1431461 100.3067,51.3826256 100.2657,51.6161181 C99.2307,77.7722707 77.1877,98.7456873 50.2267,98.7846027 C50.2087,98.7846027 50.1917,98.7846027 50.1687,98.7856006 L50.1547,98.7856006 Z" id="Fill-1" fill="#231F20" mask="url(#mask-2)"></path>
                        </g>
                        <mask id="mask-4" fill="white">
                            <use xlink:href="#path-3"></use>
                        </mask>
                        <g id="Clip-5"></g>
                        <polygon id="Fill-4" fill="#231F20" mask="url(#mask-4)" points="32.872 98.3394702 37.872 98.3394702 37.872 50.0913321 32.872 50.0913321"></polygon>
                    </g>
                </g>
            </g>
        </g>
    </g>
</svg>