<?xml version="1.0" encoding="UTF-8"?>
<svg width="201px" height="52px" viewBox="0 0 201 52" version="1.1" xmlns="http://www.w3.org/2000/svg" xmlns:xlink="http://www.w3.org/1999/xlink">
    <title>Group 25</title>
    <g id="Academic" stroke="none" stroke-width="1" fill="none" fill-rule="evenodd">
        <g id="Desktop" transform="translate(-47.000000, -4079.000000)">
            <g id="WNDR" transform="translate(-16.000000, 2997.000000)">
                <g id="Group-25" transform="translate(64.000000, 1083.000000)">
                    <path d="M193,48.4995 C193.253692,48.5005 193.512598,48.5005 193.76629,48.5005 C194.054735,48.5005 194.337967,48.5005 194.612511,48.5005 C194.739357,48.5005 194.873154,48.4995 195,48.4995 L193,48.4995 Z" id="Fill-1" fill="#231F20"></path>
                    <path d="M193,48.4995 C193.253692,48.5005 193.512598,48.5005 193.76629,48.5005 C194.054735,48.5005 194.337967,48.5005 194.612511,48.5005 C194.739357,48.5005 194.873154,48.4995 195,48.4995 L193,48.4995 Z" id="Stroke-3" stroke="#231F20" stroke-width="0.25"></path>
                    <path d="M141.707301,39.1512612 L141.707301,3.32660336 L130.975552,3.32660336 C126.349684,3.32660336 122.257416,4.22780333 118.705387,6.01975456 C115.150702,7.83390928 112.36058,10.2815161 110.333693,13.37433 C108.305479,16.4671438 107.292699,20.0001088 107.292699,23.9745313 C107.292699,27.9463416 108.305479,31.4910615 110.333693,34.6047727 C112.36058,37.7171778 115.150702,40.1765394 118.705387,41.9789393 C121.389319,43.341188 124.370582,44.1796958 127.661121,44.5166662 L145.978762,44.5166662 L145.978762,45.9703409 C145.990708,46.0447879 145.997345,46.1205409 146,46.1976001 L146,46.2184975 C146,46.2994748 145.993363,46.3817583 145.978762,46.4627357 L145.978762,48 L127.661121,48 L127.661121,47.8628609 C124.827196,47.6290713 122.17512,47.0857392 119.70622,46.2472314 C116.297546,45.0808958 113.338849,43.4221654 110.83411,41.2618976 C108.330699,39.1199151 106.399383,36.5821882 105.040161,33.6513292 C103.680938,30.7243885 103,27.4970477 103,23.9745313 C103,20.4507088 103.680938,17.2338168 105.040161,14.3251612 C106.399383,11.4165057 108.330699,8.87877881 110.83411,6.73679628 C113.338849,4.58567114 116.297546,2.92694076 119.70622,1.74885037 C123.117549,0.59165737 126.873993,0 130.975552,0 L145.978762,0 L145.978762,1.56077386 C145.993363,1.65350603 146,1.75146255 146,1.85203124 L146,39.1512612 C146,40.1334385 145.036333,40.9340698 143.85365,40.9340698 C142.673622,40.9340698 141.707301,40.1334385 141.707301,39.1512612" id="Fill-5" fill="#231F20"></path>
                    <path d="M141.707301,39.1512612 L141.707301,3.32660336 L130.975552,3.32660336 C126.349684,3.32660336 122.257416,4.22780333 118.705387,6.01975456 C115.150702,7.83390928 112.36058,10.2815161 110.333693,13.37433 C108.305479,16.4671438 107.292699,20.0001088 107.292699,23.9745313 C107.292699,27.9463416 108.305479,31.4910615 110.333693,34.6047727 C112.36058,37.7171778 115.150702,40.1765394 118.705387,41.9789393 C121.389319,43.341188 124.370582,44.1796958 127.661121,44.5166662 L145.978762,44.5166662 L145.978762,45.9703409 C145.990708,46.0447879 145.997345,46.1205409 146,46.1976001 L146,46.2184975 C146,46.2994748 145.993363,46.3817583 145.978762,46.4627357 L145.978762,48 L127.661121,48 L127.661121,47.8628609 C124.827196,47.6290713 122.17512,47.0857392 119.70622,46.2472314 C116.297546,45.0808958 113.338849,43.4221654 110.83411,41.2618976 C108.330699,39.1199151 106.399383,36.5821882 105.040161,33.6513292 C103.680938,30.7243885 103,27.4970477 103,23.9745313 C103,20.4507088 103.680938,17.2338168 105.040161,14.3251612 C106.399383,11.4165057 108.330699,8.87877881 110.83411,6.73679628 C113.338849,4.58567114 116.297546,2.92694076 119.70622,1.74885037 C123.117549,0.59165737 126.873993,0 130.975552,0 L145.978762,0 L145.978762,1.56077386 C145.993363,1.65350603 146,1.75146255 146,1.85203124 L146,39.1512612 C146,40.1334385 145.036333,40.9340698 143.85365,40.9340698 C142.673622,40.9340698 141.707301,40.1334385 141.707301,39.1512612 Z" id="Stroke-7" stroke="#231F20" stroke-width="0.25"></path>
                    <path d="M92,1.9857124 L92,48.0050271 C92,49.1043789 91.0436431,50 89.8715469,50 C88.703397,50 87.7470402,49.1043789 87.7470402,48.0050271 L87.7470402,37.0035719 L62.2516444,7.04325969 L62.2516444,47.7973277 L62.2555908,47.7973277 L62.2555908,50 L58,50 L58,0 L61.1887333,0 L61.6623075,0.552983199 C61.6938791,0.579441725 61.7241353,0.608546104 61.7557069,0.638973409 L62.2555908,1.22767562 L63.5447651,2.74374917 L63.6092239,2.81915597 L87.7470402,31.1985712 L87.7470402,2.20399524 L87.719415,2.20399524 L87.719415,0 L91.9763213,0 L91.9763213,1.68276227 C91.9934226,1.78198174 92,1.88120122 92,1.9857124" id="Fill-9" fill="#231F20"></path>
                    <path d="M92,1.9857124 L92,48.0050271 C92,49.1043789 91.0436431,50 89.8715469,50 C88.703397,50 87.7470402,49.1043789 87.7470402,48.0050271 L87.7470402,37.0035719 L62.2516444,7.04325969 L62.2516444,47.7973277 L62.2555908,47.7973277 L62.2555908,50 L58,50 L58,0 L61.1887333,0 L61.6623075,0.552983199 C61.6938791,0.579441725 61.7241353,0.608546104 61.7557069,0.638973409 L62.2555908,1.22767562 L63.5447651,2.74374917 L63.6092239,2.81915597 L87.7470402,31.1985712 L87.7470402,2.20399524 L87.719415,2.20399524 L87.719415,0 L91.9763213,0 L91.9763213,1.68276227 C91.9934226,1.78198174 92,1.88120122 92,1.9857124 Z" id="Stroke-11" stroke="#231F20" stroke-width="0.25"></path>
                    <path d="M43,0 L43,47.8038261 C43,47.8792369 42.9933636,47.9559707 42.9853999,48.0313815 C42.9787635,48.1094383 42.9654906,48.184849 42.9508905,48.2615828 C42.9243448,48.3925595 42.8831991,48.5301511 42.8301077,48.6637737 C42.7955984,48.7457995 42.7571071,48.8278253 42.7079977,48.905882 C42.6668519,48.9733549 42.6283607,49.0368587 42.5792512,49.0990395 C42.5381054,49.1665123 42.485014,49.2300161 42.4319227,49.285582 C42.3828132,49.3490858 42.3230855,49.4046517 42.2620304,49.4602175 C42.2421212,49.4800624 42.2155755,49.5012304 42.1956663,49.5157833 C42.1478841,49.5567962 42.1014291,49.5911941 42.0523197,49.624269 C41.8518999,49.7645067 41.6355527,49.8624084 41.4125691,49.9219432 C41.351514,49.9444342 41.290459,49.9589871 41.2227675,49.9656021 C41.1736581,49.9775091 41.1205667,49.985447 41.0741118,49.985447 C40.9997839,49.993385 40.9241288,50 40.8511282,50 C40.7635275,50 40.6759268,50 40.5936352,49.9775091 C40.5259438,49.9775091 40.4648887,49.9656021 40.4038337,49.9510491 C40.2764145,49.9219432 40.1489953,49.8888683 40.0202488,49.8253645 C39.9525573,49.7989046 39.8915023,49.7697986 39.8317745,49.7367237 C39.7707195,49.7023258 39.7096645,49.6679279 39.6539186,49.624269 L39.5132265,49.5210753 C39.4986264,49.5157833 39.4866809,49.5012304 39.4654443,49.4800624 C39.4256258,49.4377266 39.3778436,49.3967137 39.3380251,49.3557008 C39.304843,49.3199799 39.2703337,49.278967 39.243788,49.2445691 C39.2225515,49.2300161 39.2092786,49.2181092 39.2026422,49.2035562 C39.1561873,49.1479904 39.1150415,49.0924245 39.0738957,49.0289207 C39.0884958,49.0580266 39.1084051,49.0844865 39.1269871,49.1188844 L21.5019909,28.407377 L3.82257616,49.1810653 L3.76152113,49.2525071 C3.70046609,49.3199799 3.63941106,49.3821607 3.5796833,49.4456645 C3.53322839,49.4866774 3.48013705,49.5276903 3.43102756,49.5647342 C3.3965182,49.5911941 3.36333611,49.6203001 3.32882674,49.638822 C3.28369911,49.6732199 3.22928049,49.7089408 3.17353459,49.7367237 C3.11247955,49.7697986 3.0527518,49.7989046 2.98373306,49.8253645 C2.85764114,49.8809303 2.72889465,49.9219432 2.59351174,49.9510491 C2.51785659,49.9656021 2.44485601,49.9775091 2.37052814,49.985447 C2.29752755,49.993385 2.2218724,50 2.14621724,50 C2.07454394,50 1.99888879,49.993385 1.9258882,49.985447 C1.87677871,49.985447 1.82368738,49.9775091 1.77590518,49.9656021 C1.70954101,49.9589871 1.64715869,49.9444342 1.58610365,49.9219432 C1.36444733,49.8624084 1.14942742,49.7645067 0.945025774,49.624269 C0.898570855,49.5911941 0.850788653,49.5567962 0.804333735,49.5157833 C0.781769917,49.5012304 0.755224249,49.4800624 0.736642282,49.4602175 C0.675587246,49.4046517 0.62249591,49.3490858 0.566750008,49.285582 C0.512331389,49.2300161 0.459240053,49.1665123 0.418094268,49.0990395 C0.376948483,49.0514116 0.342439115,49.0024608 0.315893447,48.9468949 C0.269438528,48.8688381 0.221656326,48.7868124 0.187146958,48.6968486 C0.134055622,48.571164 0.0876007038,48.4481253 0.061055036,48.3145027 C0.0199092509,48.1504511 0,47.9758156 0,47.8038261 L0,0 L4.29508905,0 L4.29508905,41.9350144 L18.6523135,25.0694573 L19.6451215,23.9038975 L19.6451215,23.8972826 L20.1839985,23.2609213 L21.5006636,21.951155 L22.8385653,23.2873813 L22.8398926,23.2900273 L23.352224,23.8853756 L23.3601877,23.9038975 L24.3463592,25.0615193 L38.7102201,41.9350144 L38.7102201,2.20278888 L38.7022564,2.20278888 L38.7022564,0 L43,0 Z" id="Fill-13" fill="#231F20"></path>
                    <path d="M43,0 L43,47.8038261 C43,47.8792369 42.9933636,47.9559707 42.9853999,48.0313815 C42.9787635,48.1094383 42.9654906,48.184849 42.9508905,48.2615828 C42.9243448,48.3925595 42.8831991,48.5301511 42.8301077,48.6637737 C42.7955984,48.7457995 42.7571071,48.8278253 42.7079977,48.905882 C42.6668519,48.9733549 42.6283607,49.0368587 42.5792512,49.0990395 C42.5381054,49.1665123 42.485014,49.2300161 42.4319227,49.285582 C42.3828132,49.3490858 42.3230855,49.4046517 42.2620304,49.4602175 C42.2421212,49.4800624 42.2155755,49.5012304 42.1956663,49.5157833 C42.1478841,49.5567962 42.1014291,49.5911941 42.0523197,49.624269 C41.8518999,49.7645067 41.6355527,49.8624084 41.4125691,49.9219432 C41.351514,49.9444342 41.290459,49.9589871 41.2227675,49.9656021 C41.1736581,49.9775091 41.1205667,49.985447 41.0741118,49.985447 C40.9997839,49.993385 40.9241288,50 40.8511282,50 C40.7635275,50 40.6759268,50 40.5936352,49.9775091 C40.5259438,49.9775091 40.4648887,49.9656021 40.4038337,49.9510491 C40.2764145,49.9219432 40.1489953,49.8888683 40.0202488,49.8253645 C39.9525573,49.7989046 39.8915023,49.7697986 39.8317745,49.7367237 C39.7707195,49.7023258 39.7096645,49.6679279 39.6539186,49.624269 L39.5132265,49.5210753 C39.4986264,49.5157833 39.4866809,49.5012304 39.4654443,49.4800624 C39.4256258,49.4377266 39.3778436,49.3967137 39.3380251,49.3557008 C39.304843,49.3199799 39.2703337,49.278967 39.243788,49.2445691 C39.2225515,49.2300161 39.2092786,49.2181092 39.2026422,49.2035562 C39.1561873,49.1479904 39.1150415,49.0924245 39.0738957,49.0289207 C39.0884958,49.0580266 39.1084051,49.0844865 39.1269871,49.1188844 L21.5019909,28.407377 L3.82257616,49.1810653 L3.76152113,49.2525071 C3.70046609,49.3199799 3.63941106,49.3821607 3.5796833,49.4456645 C3.53322839,49.4866774 3.48013705,49.5276903 3.43102756,49.5647342 C3.3965182,49.5911941 3.36333611,49.6203001 3.32882674,49.638822 C3.28369911,49.6732199 3.22928049,49.7089408 3.17353459,49.7367237 C3.11247955,49.7697986 3.0527518,49.7989046 2.98373306,49.8253645 C2.85764114,49.8809303 2.72889465,49.9219432 2.59351174,49.9510491 C2.51785659,49.9656021 2.44485601,49.9775091 2.37052814,49.985447 C2.29752755,49.993385 2.2218724,50 2.14621724,50 C2.07454394,50 1.99888879,49.993385 1.9258882,49.985447 C1.87677871,49.985447 1.82368738,49.9775091 1.77590518,49.9656021 C1.70954101,49.9589871 1.64715869,49.9444342 1.58610365,49.9219432 C1.36444733,49.8624084 1.14942742,49.7645067 0.945025774,49.624269 C0.898570855,49.5911941 0.850788653,49.5567962 0.804333735,49.5157833 C0.781769917,49.5012304 0.755224249,49.4800624 0.736642282,49.4602175 C0.675587246,49.4046517 0.62249591,49.3490858 0.566750008,49.285582 C0.512331389,49.2300161 0.459240053,49.1665123 0.418094268,49.0990395 C0.376948483,49.0514116 0.342439115,49.0024608 0.315893447,48.9468949 C0.269438528,48.8688381 0.221656326,48.7868124 0.187146958,48.6968486 C0.134055622,48.571164 0.0876007038,48.4481253 0.061055036,48.3145027 C0.0199092509,48.1504511 0,47.9758156 0,47.8038261 L0,0 L4.29508905,0 L4.29508905,41.9350144 L18.6523135,25.0694573 L19.6451215,23.9038975 L19.6451215,23.8972826 L20.1839985,23.2609213 L21.5006636,21.951155 L22.8385653,23.2873813 L22.8398926,23.2900273 L23.352224,23.8853756 L23.3601877,23.9038975 L24.3463592,25.0615193 L38.7102201,41.9350144 L38.7102201,2.20278888 L38.7022564,2.20278888 L38.7022564,0 L43,0 Z" id="Stroke-15" stroke="#231F20" stroke-width="0.25"></path>
                    <path d="M39.568,49.5165 C39.573,49.5195 39.584,49.5245 39.601,49.5295 L39.399,49.4705 C39.464,49.4855 39.508,49.5015 39.568,49.5165" id="Fill-17" fill="#231F20"></path>
                    <path d="M39.568,49.5165 C39.573,49.5195 39.584,49.5245 39.601,49.5295 L39.399,49.4705 C39.464,49.4855 39.508,49.5015 39.568,49.5165 Z" id="Stroke-19" stroke="#231F20" stroke-width="0.25"></path>
                    <path d="M199,48 L198.013733,47.9738761 L193.04722,47.9738761 L192.933871,47.8589311 L190.3985,45.3066289 L176.202507,28.9530859 L166.199127,28.9530859 L166.199127,45.8251878 L166.205641,45.8251878 L166.205641,48 L162,48 L162,27.0277566 C162,26.0755415 162.885947,25.2970502 163.992077,25.2565582 L177.471495,25.2565582 C177.834994,25.2565582 178.191979,25.2513334 178.543752,25.2304343 C180.716927,25.1181017 182.660798,24.6661587 184.367548,23.8798302 C186.351808,22.9498204 187.917849,21.6997932 189.063066,20.0918689 C190.205676,18.50615 190.773724,16.6657233 190.773724,14.5705889 C190.773724,12.4427996 190.205676,10.5592685 189.063066,8.91085229 C187.917849,7.28333515 186.351808,5.9993469 184.367548,5.06803091 C182.383288,4.15630783 180.082432,3.6978339 177.471495,3.6978339 L166.199127,3.6978339 L166.199127,19.7849135 C166.199127,20.767171 165.253248,21.5665614 164.096306,21.5665614 C162.945878,21.5665614 162,20.767171 162,19.7849135 L162,0 L177.471495,0 C180.877179,0 183.903729,0.630891477 186.536815,1.87438772 C189.173809,3.1309459 191.244058,4.84075324 192.738441,7.01556547 C194.232825,9.18254055 194.979365,11.7048003 194.979365,14.5705889 C194.979365,17.3566997 194.232825,19.8384674 192.738441,22.0054425 C191.244058,24.1802547 189.173809,25.8822249 186.536815,27.0995973 C185.491919,27.590726 182.972182,28.494612 181.380084,28.494612 L192.513046,41.3240448 L193.544914,42.512681 L199,48 Z" id="Fill-21" fill="#231F20"></path>
                    <path d="M199,48 L198.013733,47.9738761 L193.04722,47.9738761 L192.933871,47.8589311 L190.3985,45.3066289 L176.202507,28.9530859 L166.199127,28.9530859 L166.199127,45.8251878 L166.205641,45.8251878 L166.205641,48 L162,48 L162,27.0277566 C162,26.0755415 162.885947,25.2970502 163.992077,25.2565582 L177.471495,25.2565582 C177.834994,25.2565582 178.191979,25.2513334 178.543752,25.2304343 C180.716927,25.1181017 182.660798,24.6661587 184.367548,23.8798302 C186.351808,22.9498204 187.917849,21.6997932 189.063066,20.0918689 C190.205676,18.50615 190.773724,16.6657233 190.773724,14.5705889 C190.773724,12.4427996 190.205676,10.5592685 189.063066,8.91085229 C187.917849,7.28333515 186.351808,5.9993469 184.367548,5.06803091 C182.383288,4.15630783 180.082432,3.6978339 177.471495,3.6978339 L166.199127,3.6978339 L166.199127,19.7849135 C166.199127,20.767171 165.253248,21.5665614 164.096306,21.5665614 C162.945878,21.5665614 162,20.767171 162,19.7849135 L162,0 L177.471495,0 C180.877179,0 183.903729,0.630891477 186.536815,1.87438772 C189.173809,3.1309459 191.244058,4.84075324 192.738441,7.01556547 C194.232825,9.18254055 194.979365,11.7048003 194.979365,14.5705889 C194.979365,17.3566997 194.232825,19.8384674 192.738441,22.0054425 C191.244058,24.1802547 189.173809,25.8822249 186.536815,27.0995973 C185.491919,27.590726 182.972182,28.494612 181.380084,28.494612 L192.513046,41.3240448 L193.544914,42.512681 L199,48 Z" id="Stroke-23" stroke="#231F20" stroke-width="0.25"></path>
                </g>
            </g>
        </g>
    </g>
</svg>