<?xml version="1.0" encoding="UTF-8"?>
<svg width="198px" height="76px" viewBox="0 0 198 76" version="1.1" xmlns="http://www.w3.org/2000/svg" xmlns:xlink="http://www.w3.org/1999/xlink">
    <title>Group 3</title>
    <defs>
        <polygon id="path-1" points="0 0 198 0 198 76 0 76"></polygon>
    </defs>
    <g id="Academic" stroke="none" stroke-width="1" fill="none" fill-rule="evenodd">
        <g id="Desktop" transform="translate(-48.000000, -4230.000000)">
            <g id="WNDR" transform="translate(-16.000000, 2997.000000)">
                <g id="Group-3" transform="translate(64.000000, 1233.000000)">
                    <mask id="mask-2" fill="white">
                        <use xlink:href="#path-1"></use>
                    </mask>
                    <g id="Clip-2"></g>
                    <path d="M58.755982,0 L47.2424187,0 L41.3868487,45.0031726 C41.1892723,46.7925712 41.1892723,48.6794995 40.9903426,51.9575803 C40.7914129,48.6794995 40.7914129,46.7925712 40.5938365,45.0031726 L34.0426893,0 L24.7132927,0 L18.1634988,45.0031726 C17.9645691,46.6923324 17.9645691,48.6794995 17.7656394,51.9575803 C17.568063,48.6794995 17.568063,46.6923324 17.3691333,45.0031726 L11.5135634,0 L0,0 L11.115704,76 L22.2327613,76 L28.9814849,32.98264 C29.1790613,31.393719 29.1790613,29.3076676 29.377991,26.0282323 C29.5769207,29.3076676 29.5769207,31.393719 29.7744971,32.98264 L36.524574,76 L47.640278,76 L58.755982,0 Z M103.516516,75.8997612 L103.516516,0 L92.4996002,0 L92.4996002,41.3282002 C92.4996002,43.3153673 93.1951775,46.7925712 93.1951775,46.7925712 L75.0316787,0 L65.1068463,0 L65.1068463,75.8997612 L76.1237621,75.8997612 L76.1237621,33.5786547 C76.1237621,31.5914875 75.429538,28.1142837 75.429538,28.1142837 L93.5916836,75.8997612 L103.516516,75.8997612 Z M150.459863,61.5940541 L150.459863,14.4045913 C150.459863,5.66213952 145.002153,0 135.771545,0 L112.646983,0 L112.646983,75.8997612 L135.771545,75.8997612 C144.902011,75.8997612 150.459863,70.3365059 150.459863,61.5940541 L150.459863,61.5940541 Z M139.046442,59.7071258 C139.046442,63.6801055 136.664698,66.1644031 132.098788,66.1644031 L123.960263,66.1644031 L123.960263,9.73535807 L132.396506,9.73535807 C136.465769,9.73535807 139.046442,12.0205326 139.046442,16.0937511 L139.046442,59.7071258 Z M198,75.8997612 L198,75.5028696 L185.494495,41.5259687 L189.364827,41.5259687 C193.731808,41.4270844 196.114904,39.0430257 196.114904,34.5729156 L196.114904,6.95440773 C196.114904,2.48429758 193.731808,0 189.266039,0 L159.193824,0 L159.193824,75.8997612 L170.508458,75.8997612 L170.508458,9.73535807 L184.800271,9.73535807 L184.800271,33.7777778 L173.684567,33.7777778 L173.684567,40.6319467 L186.190072,75.8997612 L198,75.8997612 Z" id="Fill-1" fill="#231F20" mask="url(#mask-2)"></path>
                </g>
            </g>
        </g>
    </g>
</svg>