<?xml version="1.0" encoding="UTF-8"?>
<svg width="199px" height="56px" viewBox="0 0 199 56" version="1.1" xmlns="http://www.w3.org/2000/svg" xmlns:xlink="http://www.w3.org/1999/xlink">
    <title>Group 13</title>
    <g id="Academic" stroke="none" stroke-width="1" fill="none" fill-rule="evenodd">
        <g id="Desktop" transform="translate(-48.000000, -4152.000000)" fill="#231F20">
            <g id="WNDR" transform="translate(-16.000000, 2997.000000)">
                <g id="Group-13" transform="translate(64.000000, 1155.000000)">
                    <g id="Group-11" transform="translate(23.000000, 0.000000)">
                        <path d="M175.243715,55.2384 L174.257201,55.2084465 L169.29209,55.2084465 L169.177561,55.0808186 L166.643598,52.222214 L152.452362,33.910214 L142.44926,33.910214 L142.44926,52.8030512 L142.457068,52.8030512 L142.457068,55.2384 L138.252017,55.2384 L138.252017,29.7701209 L153.719995,29.7701209 C154.083105,29.7701209 154.44101,29.766214 154.791105,29.7414698 C156.965862,29.6151442 158.908958,29.1085395 160.613885,28.2294698 C162.597326,27.1876093 164.162995,25.7889116 165.306988,23.986493 C166.45098,22.2127256 167.018421,20.1524465 167.018421,17.8056558 C167.018421,15.4224 166.45098,13.3139349 165.306988,11.4672372 C164.162995,9.64528372 162.597326,8.20751628 160.613885,7.16435349 C158.630443,6.14333023 156.330745,5.63021395 153.719995,5.63021395 L142.44926,5.63021395 L142.44926,23.6439814 C142.44926,24.7444465 141.504392,25.6391442 140.347385,25.6391442 C139.196885,25.6391442 138.252017,24.7444465 138.252017,23.6439814 L138.252017,1.4888186 L153.719995,1.4888186 C157.12334,1.4888186 160.150561,2.1959814 162.782135,3.58816744 C165.420215,4.9959814 167.488252,6.90909767 168.983642,9.34444651 C170.47773,11.7719814 171.223473,14.5967256 171.223473,17.8056558 C171.223473,20.9260279 170.47773,23.7038884 168.983642,26.1314233 C167.488252,28.5667721 165.420215,30.4720744 162.782135,31.834307 C161.737054,32.3851907 159.22001,33.3970977 157.628311,33.3970977 L168.758488,47.7643535 L169.787951,49.0940279 L175.243715,55.2384 Z" id="Fill-1"></path>
                        <path d="M118.870126,45.3306977 L118.870126,5.21516279 L108.36856,5.21516279 C103.844649,5.21516279 99.841325,6.22446512 96.3650971,8.23265116 C92.8875676,10.2629767 90.1583838,13.0043721 88.1736412,16.4672558 C86.1902,19.9288372 85.1997809,23.8853023 85.1997809,28.3366512 C85.1997809,32.784093 86.1902,36.7535814 88.1736412,40.2412093 C90.1583838,43.7262326 92.8875676,46.4793488 96.3650971,48.4979535 C98.9901632,50.0216744 101.90806,50.9619535 105.126597,51.3396279 L123.047847,51.3396279 L123.047847,52.9675349 C123.060862,53.0495814 123.067369,53.1342326 123.069972,53.2214884 L123.069972,53.2449302 C123.069972,53.336093 123.062163,53.4272558 123.047847,53.5171163 L123.047847,55.2387907 L105.126597,55.2387907 C101.809149,55.2387907 96.8479426,53.7020465 93.9508691,51.6717209 C92.0051706,50.5777674 90.2416779,49.252 88.6629941,47.6944186 C86.2136265,45.2968372 84.3251926,42.4538605 82.9950897,39.172 C81.6649868,35.8940465 80.9999353,32.280093 80.9999353,28.3366512 C80.9999353,24.391907 81.6649868,20.7896744 82.9950897,17.5312558 C84.3251926,14.2741395 86.2136265,11.4324651 88.6629941,9.03488372 C91.1149647,6.6255814 94.0081338,4.76716279 97.3438029,3.4492093 C100.680774,2.15469767 104.357428,1.4892093 108.36856,1.4892093 L123.047847,1.4892093 L123.047847,3.23693023 C123.062163,3.3424186 123.069972,3.45051163 123.069972,3.56381395 L123.069972,45.3306977 C123.069972,46.4311628 122.126406,47.3271628 120.9707,47.3271628 C119.814994,47.3271628 118.870126,46.4311628 118.870126,45.3306977" id="Fill-3"></path>
                        <path d="M18.9477699,0.727739535 L18.9477699,55.9971349 L15.8854096,55.9971349 L14.7544316,55.9997395 L14.7492257,55.9997395 L14.7492257,55.9932279 L0.780541912,37.6265302 C0.753211029,37.5939721 0.727181618,37.5601116 0.702453676,37.5236465 C0.443461029,37.1668093 0.2898875,36.7083907 0.2898875,36.2109023 C0.2898875,35.0544372 1.12022574,34.1167628 2.14578456,34.1167628 C2.69110074,34.1167628 3.18175515,34.3824372 3.52143897,34.8030884 C3.5422625,34.8278326 3.56178456,34.8551814 3.58130662,34.8812279 L10.5741081,44.0821581 L12.258211,46.297414 L14.7492257,49.5753674 L14.7492257,3.16308837 L14.7427184,3.16308837 L14.7427184,0.727739535 L18.9477699,0.727739535 Z" id="Fill-5"></path>
                        <path d="M67.0991882,39.9784 C67.0991882,40.2141209 67.0718574,40.4420279 67.0211,40.658214 L67.043225,40.6881674 L67.0028794,40.7298419 C66.9156809,41.0632372 66.7738206,41.3679814 66.5864088,41.6336558 C66.1530191,42.2431442 65.4879676,42.6351442 64.7409235,42.6351442 C63.9938794,42.6351442 63.3288279,42.2444465 62.8967397,41.6349581 L62.8967397,41.6336558 C62.8928353,41.6297488 62.8889309,41.6258419 62.8863279,41.6206326 L37.7080779,8.51291163 L37.7080779,53.5642605 L37.7132838,53.5642605 L37.7132838,55.9996093 L33.5069309,55.9996093 L33.5069309,0.727609302 L36.6577912,0.727609302 L37.1263206,1.3384 C37.1575559,1.36705116 37.1874897,1.3996093 37.2174235,1.43477209 L37.7132838,2.08463256 L38.9861221,3.75942326 L39.0498941,3.84407442 L59.2786515,30.4557953 L62.8967397,35.2157953 L62.8967397,3.16295814 L62.8707103,3.16295814 L62.8707103,0.727609302 L67.0757618,0.727609302 L67.0757618,2.58863256 C67.0926809,2.69802791 67.0991882,2.80872558 67.0991882,2.92333023 L67.0991882,39.9784 Z" id="Fill-7"></path>
                        <path d="M67.0991882,46.6466977 L67.0991882,55.9973953 L65.1040338,55.9973953 C65.0675926,55.9986977 65.0324529,56 64.9960118,56 C64.9608721,56 64.9244309,55.9986977 64.8892912,55.9973953 L62.8967397,55.9973953 L62.8967397,46.6466977 L67.0991882,46.6466977 Z" id="Fill-9"></path>
                    </g>
                    <polygon id="Fill-12" points="0 1 0 55.9974082 0.0012745913 55.9974082 0 56 4.11565531 56 4.11565531 55.9974082 20.6050429 33.9668245 23 30.7697981 20.6050429 27.5688839 18.6982544 30.117952 18.2113605 30.7697981 4.11565531 49.6098348 4.11565531 1"></polygon>
                </g>
            </g>
        </g>
    </g>
</svg>