<?xml version="1.0" encoding="UTF-8"?>
<svg width="471px" height="162px" viewBox="0 0 471 162" version="1.1" xmlns="http://www.w3.org/2000/svg" xmlns:xlink="http://www.w3.org/1999/xlink">
    <title>Group 19</title>
    <g id="Academic" stroke="none" stroke-width="1" fill="none" fill-rule="evenodd">
        <g id="Desktop" transform="translate(-277.000000, -3245.000000)" fill="#FFFFFF">
            <g id="WNDR" transform="translate(-16.000000, 2997.000000)">
                <g id="Group-19" transform="translate(293.000000, 248.000000)">
                    <g id="Group-14" transform="translate(154.000000, 0.000000)">
                        <path d="M167.4123,0 L118.0683,0 L118.0683,20.761 L160.8253,20.761 C168.3123,20.761 174.3813,26.83 174.3813,34.318 L174.3813,127.271 C174.3813,135.74 169.2943,141.033 159.5603,141.033 L142.2113,141.033 L142.2113,35.788 C128.8773,35.788 118.0683,46.597 118.0683,59.93 L118.0683,161.794 L167.4123,161.794 C186.8793,161.794 198.7303,149.914 198.7303,131.3 L198.7303,30.7 C198.7303,12.086 187.0853,0 167.4123,0" id="Fill-1"></path>
                        <path d="M310.6804,146.3852 L289.6544,89.3372 L289.1844,88.0722 L289.5664,87.9842 C300.7414,86.1312 308.5924,79.6912 312.0034,69.9872 C313.2684,66.4292 313.9154,62.4302 313.9154,58.0482 L313.9154,30.7002 C313.9154,26.2892 313.2684,22.2602 312.0034,18.6732 C308.6214,8.9392 300.8294,2.4402 289.5664,0.5592 C287.3614,0.1762 285.0384,0.0002 282.5674,0.0002 L233.2534,0.0002 L233.2534,28.6422 C233.2534,41.9592 244.0494,52.7552 257.3664,52.7552 L257.3664,20.7612 L276.0104,20.7612 C281.0684,20.7612 285.4494,23.4962 287.8024,27.5832 C288.9194,29.5532 289.5664,31.8762 289.5664,34.3172 L289.5664,54.0192 C289.5664,56.8422 289.0074,59.3422 287.8614,61.3712 C285.6264,65.4292 281.2154,67.7822 274.7454,67.7822 L233.2534,67.7822 L233.2534,161.7942 L257.3664,161.7942 L257.3664,88.5432 L264.8354,88.5432 L282.8614,139.3272 L290.5664,161.0292 L290.8314,161.7942 L316.0324,161.7942 L316.0324,160.9412 L310.6804,146.3852 Z" id="Fill-9"></path>
                        <path d="M0.766,80.9852 L0.766,80.9852 C13.742,80.9852 24.262,91.5042 24.262,104.4812 L24.262,161.7942 L0.766,161.7942 L0.766,80.9852 Z" id="Fill-12"></path>
                    </g>
                    <polygon id="Fill-15" points="213.1965 0 213.1965 95.894 209.1085 85.396 178.2625 0 154.7655 0 178.2625 65.047 213.1965 161.794 236.7215 161.794 236.7215 0"></polygon>
                    <polygon id="Fill-16" points="100.7757 0 88.8657 90.719 72.6337 0 52.7257 0 36.4047 91.042 23.7017 162 47.4327 162 60.4887 78.838 61.0187 75.369 61.2247 74.163 62.6657 65.253 64.6357 77.427 65.0767 80.221 77.9277 162 101.6287 162 125.3597 0"></polygon>
                    <path d="M0,0 L24.554,0 L30.612,46.639 L31.599,54.203 C33.266,66.982 24.552,78.8 11.851,80.985 L7.087,48.491" id="Fill-17"></path>
                </g>
            </g>
        </g>
    </g>
</svg>