<?xml version="1.0" encoding="UTF-8"?>
<svg width="199px" height="68px" viewBox="0 0 199 68" version="1.1" xmlns="http://www.w3.org/2000/svg" xmlns:xlink="http://www.w3.org/1999/xlink">
    <title>Group 19 Copy</title>
    <g id="Academic" stroke="none" stroke-width="1" fill="none" fill-rule="evenodd">
        <g id="Desktop" transform="translate(-48.000000, -4328.000000)" fill="#000000">
            <g id="WNDR" transform="translate(-16.000000, 2997.000000)">
                <g id="Group-19-Copy" transform="translate(64.000000, 1331.000000)">
                    <g id="Group-14" transform="translate(65.000000, 0.000000)">
                        <path d="M70.7673445,0 L49.9089975,0 L49.9089975,8.71449383 L67.9829344,8.71449383 C71.1477861,8.71449383 73.7132309,11.2619753 73.7132309,14.4050864 L73.7132309,53.4223951 C73.7132309,56.977284 71.5628902,59.199037 67.4482025,59.199037 L60.1145558,59.199037 L60.1145558,15.0221235 C54.4781016,15.0221235 49.9089975,19.5592346 49.9089975,25.1558025 L49.9089975,67.9135309 L70.7673445,67.9135309 C78.9962972,67.9135309 84.0058681,62.9268642 84.0058681,55.1135802 L84.0058681,12.8864198 C84.0058681,5.0731358 79.083376,0 70.7673445,0" id="Fill-1"></path>
                        <path d="M131.328623,61.4456395 L122.440661,37.4995654 L122.241986,36.9685778 L122.403462,36.9316395 C127.127279,36.153837 130.445999,33.4506272 131.887873,29.3773432 C132.422604,27.8838617 132.6961,26.2052691 132.6961,24.3659111 L132.6961,12.8865037 C132.6961,11.0349728 132.422604,9.34378765 131.887873,7.83813333 C130.458257,3.75225679 127.164478,1.02428148 122.403462,0.234725926 C121.47138,0.0739604938 120.489418,8.39506173e-05 119.444895,8.39506173e-05 L98.599229,8.39506173e-05 L98.599229,12.0226519 C98.599229,17.6125037 103.162838,22.144158 108.792106,22.144158 L108.792106,8.71457778 L116.673166,8.71457778 C118.811248,8.71457778 120.663153,9.86260247 121.657797,11.5781333 C122.129967,12.4050469 122.403462,13.3801333 122.403462,14.4047506 L122.403462,22.6747259 C122.403462,23.8596889 122.167166,24.9090716 121.682737,25.7607506 C120.737974,27.4641086 118.873387,28.4517877 116.138434,28.4517877 L98.599229,28.4517877 L98.599229,67.9136148 L108.792106,67.9136148 L108.792106,37.1662815 L111.949349,37.1662815 L119.569172,58.4830222 L122.826175,67.5925037 L122.938194,67.9136148 L133.590983,67.9136148 L133.590983,67.5555654 L131.328623,61.4456395 Z" id="Fill-9"></path>
                        <path d="M0.323798107,33.9937877 L0.323798107,33.9937877 C5.80892114,33.9937877 10.2558612,38.4091704 10.2558612,43.8563062 L10.2558612,67.9136148 L0.323798107,67.9136148 L0.323798107,33.9937877 Z" id="Fill-12"></path>
                    </g>
                    <polygon id="Fill-15" points="89.9534506 0 89.9534506 40.303052 88.2076358 35.8908736 75.0345917 0 65 0 75.0345917 27.3384427 89.9534506 68 100 68 100 0"></polygon>
                    <polygon id="Fill-16" points="42.6012906 0 37.5635169 38.0795802 30.6975939 0 22.2767711 0 15.3732023 38.2151605 10 68 20.0379016 68 25.5604183 33.0924938 25.7846013 31.6363704 25.8717366 31.1301481 26.4812607 27.3901481 27.3145448 32.5002222 27.5010821 33.6730123 32.9368864 68 42.9620984 68 53 0"></polygon>
                    <path d="M0,0 L10.0367868,0 L12.513078,19.5804902 L12.9165279,22.7560906 C13.5979372,28.1211088 10.0359693,33.0826696 4.84426001,34 L2.89690918,20.3580169" id="Fill-17"></path>
                </g>
            </g>
        </g>
    </g>
</svg>