<?xml version="1.0" encoding="UTF-8"?>
<svg width="199px" height="52px" viewBox="0 0 199 52" version="1.1" xmlns="http://www.w3.org/2000/svg" xmlns:xlink="http://www.w3.org/1999/xlink">
    <title>Group 12</title>
    <defs>
        <polygon id="path-1" points="0 51 198.704246 51 198.704246 0.33915 0 0.33915"></polygon>
    </defs>
    <g id="Academic" stroke="none" stroke-width="1" fill="none" fill-rule="evenodd">
        <g id="Desktop" transform="translate(-47.000000, -4006.000000)">
            <g id="WNDR" transform="translate(-16.000000, 2997.000000)">
                <g id="Group-12" transform="translate(63.000000, 1009.000000)">
                    <polygon id="Fill-1" fill="#231F20" points="45.9350143 0 29.0939368 36.3994906 28.9781324 36.3994906 27.1776709 0 22.7640043 0 5.34263713 36.3994906 5.22641015 36.3994906 3.94833605 0 0 0 1.91626586 42 6.27118501 42 23.8096244 4.90002123 23.9262741 4.90002123 25.7842151 42 30.1391343 42 50 0"></polygon>
                    <polygon id="Fill-2" fill="#231F20" points="92.0105102 9 84.1510658 45.6915193 84.0332381 45.6915193 67.4912636 9 62.9749647 9 54 51 57.988636 51 65.7900204 14.3666431 65.9074211 14.3666431 82.3913357 51 87.0246084 51 96 9"></polygon>
                    <g id="Group-11">
                        <path d="M116.396621,38.9978725 L125.859472,38.9978725 C127.639065,38.9978725 129.343451,38.8911975 130.968407,38.6769975 C132.593362,38.4627975 134.296481,37.9272975 136.076918,37.0709225 C137.624133,36.3696725 138.979107,35.4163975 140.140574,34.2089725 C141.302041,33.0028225 142.297464,31.6891475 143.130644,30.2675225 C143.962135,28.8467475 144.640256,27.3575475 145.16205,25.7999225 C145.684689,24.2435725 146.100857,22.7441725 146.410976,21.3034225 C146.719827,19.7853225 146.942487,18.2378975 147.077689,16.6611475 C147.213313,15.0839725 147.165148,13.5862725 146.93277,12.1646475 C146.700814,10.7438725 146.236058,9.4399725 145.540192,8.2520975 C144.843058,7.0646475 143.856508,6.0820475 142.579697,5.3025975 C141.455833,4.6412975 140.072973,4.2133225 138.428583,4.0178225 C136.782502,3.8240225 135.090368,3.7262725 133.348801,3.7262725 L123.88595,3.7262725 L116.396621,38.9978725 Z M111.752443,42.3846975 L120.634349,0.3394475 L134.915451,0.3394475 C136.076918,0.3394475 137.209232,0.3683475 138.312394,0.4269975 C139.41471,0.4852225 140.488719,0.6220725 141.533574,0.8354225 C142.579697,1.0496225 143.574697,1.3713475 144.523222,1.7993225 C145.471324,2.2277225 146.35267,2.7921225 147.165148,3.4925225 C148.326615,4.5052975 149.197821,5.7407725 149.77792,7.2010725 C150.358443,8.6605225 150.745035,10.1990225 150.938542,11.8144475 C151.132472,13.4298725 151.151063,15.0652725 150.996848,16.7193725 C150.841366,18.3747475 150.628424,19.9017725 150.358443,21.3034225 C150.047901,22.7050725 149.661309,24.1266975 149.197821,25.5665975 C148.733065,27.0073475 148.161415,28.4187725 147.484984,29.8000225 C146.807286,31.1825475 146.00368,32.5068475 145.075436,33.7712225 C144.146347,35.0368725 143.101492,36.1949975 141.940869,37.2460225 C140.740109,38.3361475 139.502591,39.2120725 138.224935,39.8737975 C136.948124,40.5359475 135.631175,41.0518975 134.277046,41.4212225 C132.921649,41.7913975 131.558224,42.0442725 130.185082,42.1802725 C128.810249,42.3175475 127.42739,42.3846975 126.033967,42.3846975 L111.752443,42.3846975 Z" id="Fill-3" fill="#231F20"></path>
                        <path d="M182.222061,28.517075 C183.691957,28.517075 185.095519,28.362375 186.430636,28.05 C187.766175,27.7389 188.965245,27.2425 190.029959,26.561225 C191.093827,25.880375 192.003904,25.013375 192.758076,23.96235 C193.513515,22.911325 194.044604,21.646525 194.355146,20.166675 C194.70329,18.6099 194.70329,17.32555 194.355146,16.31235 C194.007424,15.300425 193.426056,14.50185 192.613579,13.9179 C191.801101,13.33395 190.803989,12.925525 189.623931,12.691775 C188.442606,12.458025 187.194948,12.34115 185.879689,12.34115 L173.339732,12.34115 L169.914059,28.517075 L182.222061,28.517075 Z M169.218192,31.904325 L165.154536,51 L161.206224,50.941775 L170.088976,8.95475 L186.459789,8.95475 C191.065519,8.95475 194.403311,9.8209 196.47401,11.552775 C198.544286,13.285925 199.173396,16.099 198.360496,19.99115 C197.817999,22.639325 196.842012,24.741375 195.429154,26.29815 C194.015874,27.855775 191.993763,29.17965 189.361978,30.26935 C190.523445,30.698175 191.365498,31.320375 191.887292,32.138075 C192.410354,32.95535 192.73864,33.8895 192.87511,34.94095 C193.010311,35.991975 193.000171,37.101225 192.845957,38.26955 C192.690475,39.43745 192.516403,40.5671 192.322895,41.6568 C192.012776,43.2531 191.790538,44.57655 191.655759,45.627575 C191.519713,46.6786 191.452957,47.535825 191.452957,48.197125 C191.452957,48.859275 191.509995,49.375225 191.627029,49.74455 C191.742373,50.114725 191.916445,50.396925 192.148823,50.59115 L192.091362,50.941775 L187.737023,51 C187.465352,50.260925 187.368598,49.277475 187.446339,48.0505 C187.523657,46.8248 187.658859,45.530675 187.852789,44.1677 C188.046296,42.805575 188.259239,41.47235 188.491617,40.1676 C188.723995,38.863275 188.840184,37.822875 188.840184,37.043425 C188.840184,35.914625 188.645831,35.00895 188.259239,34.327675 C187.872647,33.64725 187.359725,33.13045 186.72132,32.78025 C186.082914,32.43005 185.31818,32.1963 184.427538,32.079425 C183.536897,31.96255 182.608653,31.904325 181.641116,31.904325 L169.218192,31.904325 Z" id="Fill-5" fill="#231F20"></path>
                        <mask id="mask-2" fill="white">
                            <use xlink:href="#path-1"></use>
                        </mask>
                        <g id="Clip-8"></g>
                        <polygon id="Fill-7" fill="#231F20" mask="url(#mask-2)" points="45.9199894 3.725975 123.885739 3.725975 123.885739 0.33915 45.9199894 0.33915"></polygon>
                        <polygon id="Fill-9" fill="#231F20" mask="url(#mask-2)" points="83.2403057 51 165.154367 51 165.154367 47.613175 83.2403057 47.613175"></polygon>
                        <polygon id="Fill-10" fill="#231F20" mask="url(#mask-2)" points="116.396621 38.9978725 112.467744 38.9978725 119.919048 3.7262725 123.88595 3.7262725"></polygon>
                    </g>
                </g>
            </g>
        </g>
    </g>
</svg>