<?xml version="1.0" encoding="utf-8"?>
<!-- Generator: Adobe Illustrator 24.3.0, SVG Export Plug-In . SVG Version: 6.00 Build 0)  -->
<svg version="1.1" id="Layer_1" xmlns="http://www.w3.org/2000/svg" xmlns:xlink="http://www.w3.org/1999/xlink" x="0px" y="0px"
	 viewBox="0 0 567.1 202.1" style="enable-background:new 0 0 567.1 202.1;" xml:space="preserve">
<style type="text/css">
	.st0{fill:#58595B;}
	.st1{fill:#FFDE17;}
</style>
<path class="st0" d="M85.8,24.2v0.6c-0.1-0.2-0.1-0.4-0.1-0.6C85.7,24.3,85.8,24.2,85.8,24.2z"/>
<path class="st0" d="M86.2,26.7c-0.2,0-0.3,0-0.5-0.1c0.1-0.6,0.1-1.2,0.1-1.8c0,0,0,0.1,0.1,0.2C86.1,25.6,86.2,26.2,86.2,26.7z"/>
<path class="st0" d="M90.7,22.4c0,0.3,0,0.6-0.3,0.9c-0.7,0.3-1.3,0.7-1.6,1C88.2,25,87.2,25,86.5,24c0-0.1,0-0.1,0-0.2
	c1.3-0.7,2.6-1.3,4-2C90.6,22.1,90.7,22.3,90.7,22.4z"/>
<g>
	<path d="M386.2,7.4L386.2,7.4c-0.1-0.1-0.2-0.3-0.3-0.4c0-0.3-0.3-0.4-0.6-0.4c0.1,0.5,0.2,1,0.5,1.6c0,0.1,0.1,0.1,0.1,0.2
		c0-0.1,0-0.2,0-0.2c0.1-0.1,0.1-0.1,0.2-0.2C386.3,7.8,386.3,7.6,386.2,7.4z M378.9,0.3C378.6,0.1,378.3,0,378,0
		c0,0.3,0.1,0.7,0.2,1c0.2,0.3,0.3,0.5,0.5,0.7C378.9,1.3,379.1,0.8,378.9,0.3z"/>
</g>
<path class="st1" d="M566.9,79.6c0-0.7-0.1-1.5-0.2-2.3c0-1-0.1-2-0.3-3c-0.8-7.5-2.8-14.8-5.8-21.8c-0.1-0.3-0.2-0.5-0.3-0.8
	c-4.1-9.6-9.7-18-16.8-25.1c-0.5-0.5-0.9-1-1.4-1.4c-1.9-2-3.9-3.7-6-5.4c-4.9-4-10.2-7.3-16.1-10.1c-0.6-0.4-1.3-0.7-2-1
	c-5.4-2.5-11.1-4.3-16.9-5.4c-4.3-0.8-8.7-1.2-13.1-1.3c-0.3,0-0.7,0-1.1,0h-62.7v126.7l-0.4-1l-8.7-22.9l-15.9-41.8l-16.4-43.1
	l-6.8-17.8h-46.3l-6.8,17.8l-1.6,4.3h0l-0.3,0.8l-5.6,14.6l-1.4,3.8l-0.3,0.8l-2.2,5.9l-7.4,19.3l-3,7.9l-7.7,20.1l-9.9,26.1
	l-2.1,5.6V2.1H239V65h-61.2V2.1h-42.4v127.1H90.8c-7.2,0-13.7-1.1-19.4-3.4s-10.6-5.5-14.6-9.5c-3.9-4-7-8.8-9.2-14.4
	c-0.6-1.4-1-2.8-1.4-4.2c-0.8-2.9-1.4-6-1.7-9.1c0-0.5-0.1-1.1-0.1-1.7c0-1.1-0.1-2.1-0.1-3.2c0-6.6,1.1-12.7,3.1-18.2
	c2.1-5.5,5.1-10.4,9.1-14.4c1.3-1.3,2.7-2.5,4.1-3.6v0c0.6-0.5,1.2-0.9,1.9-1.3c2.6-1.8,5.5-3.3,8.6-4.5c4.3-1.8,9.1-2.8,14.2-3.2
	c1.3-0.1,2.7-0.2,4-0.2c0.5,0,0.9,0,1.4,0h9.7V2.1H80.2C69,2.1,58.5,4.3,48.8,8.8c-1.9,0.9-3.7,1.8-5.5,2.8c-4.1,2.2-8,4.8-11.6,7.6
	c-0.3,0.2-0.6,0.5-0.9,0.7c-0.5,0.4-0.9,0.8-1.4,1.2c-2.1,1.7-4.2,3.6-6.1,5.6c-7.3,7.5-13,16.2-17.1,26C2.1,62.7,0,72.9,0,83.6
	c0,10.8,2.1,21.2,6.3,31s9.9,18.5,17.2,25.9c7.3,7.4,15.8,13.4,25.5,17.8c9.7,4.5,20.1,6.7,31.2,6.7h97.6V97.9H239v67.2h68.3
	c0.1-0.4,0.2-0.8,0.5-1.2c1.1-2.3-0.1-1.5-2.3-1.4c-2,0.1-4,0.5-3.5-2.1c0.4-2.5,3.1-1.7,3.7-3.5c0.6-1.8-1.8-2.2-2.2-3.6
	c-1.5-4.6,9-1.2,10.8-1.4c-1.1-0.4-4.3-1.6-3.3-2.7c-2.5-0.6-4.7-1.6-4.6-3.5c0-0.3,0.1-0.7,0.2-1.1c1.5-0.3,2.9,0.7,4.4,1.1
	c0.2,0,0.4,0.1,0.7,0.1c-0.1-0.1-0.2-0.2-0.3-0.4c-0.9-1.3,1.6-2.9,2.7-3.1c0.6-0.1,1.1,0,1.6,0.2c1.1,0.5,2.1,1.6,3.3,1.7
	c0-1.4,0.2-2.9,1.6-3c0.3,0,0.5,0,0.7,0.1l1.3-3.8l0.2-0.7h1.8c-0.1-0.1-0.1-0.2-0.2-0.3c-0.4-1.1,0.6-2,2-2.2c0,0-0.1,0-0.1-0.1
	c-1.9,0-3.4-0.1-5.2-1c-1-0.5-4.6-2.7-1.6-3c-2.7-1-5.7-1.4-5.7-5.5c1.2-0.3,2.1,0.4,3.2,0.6c-0.5-0.5-1.2-1.2-1.8-2
	c-0.8-1-1.6-2.2-2-3.4c-0.1-0.3-0.2-0.5-0.2-0.8c-0.6-3.3,2.9-2.5,4.5-1c0.5,0.4,1.2,2,1.8,2c0.8-0.1,0.7-1.6,1.2-2.1
	c2.2-1.8,3.7,1.2,5,2.7c0.6,0.7,1.7,2.1,2.8,1.8c1.1-0.4,0.5-2,1.3-2.7c0.3-0.3,0.6-0.4,0.9-0.5c0.1-0.1,0.2-0.2,0.3-0.4
	c-1.1-0.5-5.3-0.1-5.4-1.9c-0.1-1.7,2-1.5,2.9-1.2c-1.3-0.5-8.5-3.8-6.7-6.6c0-0.2,0-0.5,0-1c0.4-2.1,2.4-1.4,2.9-2.9
	c0.5-1.5-1.3-1.8-1.6-2.9c-1.1-3.7,6.9-1.1,8.2-1.2c-0.9-0.4-3.3-1.3-2.5-2.2c-0.8-0.2-1.6-0.5-2.1-0.9c-0.5-0.2-0.9-0.6-1.1-1
	c-0.3-0.5-0.3-1.1,0-1.8c1.3-0.2,2.5,0.9,3.8,1c-1.3-1.1,0.9-2.7,1.8-2.8c1.5-0.3,2.4,1.5,3.7,1.6c0-1.1,0.2-2.4,1.3-2.5
	c0.6-0.1,1.2,0.5,1.7,1l1.5-4.3c-0.3-0.3-0.4-0.5-0.4-0.8c0-0.6,0.5-1.1,1.1-1.4l0.1-0.2c-1.3,0-2.3-0.1-3.5-0.8
	c-0.7-0.4-3.4-2.1-1.1-2.4c-0.2-0.1-0.4-0.2-0.6-0.2c-1.8-0.6-3.7-1.2-3.6-4.2c0.9-0.2,1.6,0.3,2.4,0.5c-1-1.2-2.7-3.1-3-4.9
	c0-0.3,0-0.6,0-0.8c0-0.4,0.2-0.7,0.5-0.9c0.7-0.5,2.1,0.1,3,0.9c0.3,0.3,0.9,1.6,1.3,1.6c0.6-0.1,0.5-1.2,1-1.6
	c1.7-1.5,2.7,0.9,3.7,2.1c0.4,0.5,1.3,1.7,2,1.4c0.9-0.3,0.4-1.5,1.1-2.1c0.1-0.2,0.3-0.2,0.4-0.3c0.1-0.2,0.3-0.4,0.4-0.6
	c-0.9-0.4-4,0-4.1-1.5c-0.1-1.2,1.2-1.2,2-1.1c-1.4-0.6-6.4-3.2-4.5-5.4c1,0.2,1.5,1.3,2.4,1.8c-0.5-1.1,1.2-1.5,1.9-1.4
	c1.1,0.3,1.3,1.7,2.1,2.2c0.3-0.8,0.7-1.5,1.4-1.3c0.5,0.2,0.8,0.8,1.1,1.5l0.8-2.4c-0.4-0.2-0.8-0.4-1.1-0.7c0,0,0,0,0,0
	c-1.5-0.5-3-1.3-2.8-2.5c0.2-0.2,0.5-0.2,0.9-0.2c-1-0.4-1.5-1,0.2-1.8c-1-0.4-2.5-2.3-3.2-4c-0.2-0.6-0.4-1.1-0.4-1.5
	c0.4,0,0.7,0,1.1,0.1c-0.4-0.4-1-1.8-1.3-3.1c-0.4-1.2-0.4-2.5,0.4-2.6c0.5-0.1,1.1,0.7,1.7,1.8c0.8,1.3,1.5,3,1.6,3.6
	c-0.1-1.1,0.1-2.1,1.1-1.8c0.8,0.3,1.1,1.8,1.5,2.8c-0.1-0.5,0-0.9,0.2-1c-0.2-0.5-0.2-1.1-0.2-1.8c0-2.9,1.7-0.1,2.4,0.7
	c-0.2-0.6-0.5-1.2-0.7-1.8c-0.5-1.4-0.9-2.7-0.5-4.3c0.6,0.2,0.9,1.2,1.3,1.9c0-1.6-2.1-4.8-1.4-6.6c0.6-1.5,2,0.8,2.5,1.9
	c-0.2-1.9-1-5.1-0.1-6.7c0.5,0.3,0.8,1.1,1.2,1.6c-0.5-1.8-1-3.8-0.7-5.8c0.1-1.1,0.7-3.9,1.5-3c0.1-0.9,0.3-1.9,0.6-3
	c0.4,0.5,0.5,1.8,0.6,3.2c0.9-1.4,1.5,1.6,1.6,2.8c0.2,2.1-0.2,4.1-0.7,5.8c0.4-0.5,0.7-1.2,1.2-1.6c0.9,1.7,0.1,4.9,0,6.7
	c0.4-1.2,1.9-3.4,2.5-1.9c0.7,1.8-1.3,4.9-1.4,6.6c0.3-0.7,0.7-1.7,1.2-1.9c0.1,0.6,0.2,1.1,0.1,1.6c0,1.6-0.7,3-1.2,4.5
	c0.6-0.7,2.2-3.3,2.3-1c0,0.1,0,0.2,0,0.4c0,0.7-0.1,1.2-0.2,1.8c0.2,0.2,0.2,0.7,0,1.2c0.4-1,0.7-2.8,1.6-3.1
	c1.1-0.4,1.2,0.7,1.1,1.8c0.2-0.6,0.8-2.1,1.5-3.3c0.7-1.2,1.4-2.1,1.9-2.1c0.5,0.1,0.6,0.6,0.6,1.3c-0.1,1.5-1.1,3.8-1.5,4.3
	c0.4-0.1,0.7-0.1,1.1-0.1c0,1.6-2.3,5-3.6,5.4c1.8,0.8,1.2,1.5,0.2,1.8c0.3,0,0.6,0,0.9,0.2c0.1,1.2-1.4,2.1-2.9,2.5c0,0,0,0,0,0
	c-0.3,0.3-0.6,0.5-1,0.7l0.8,2.3c0.3-0.5,0.5-1.2,1.1-1.4c0.7-0.2,1.1,0.5,1.4,1.3c0.9-0.5,1.1-1.9,2.1-2.2c0.6-0.1,2.4,0.2,1.9,1.4
	c0.8-0.5,1.4-1.6,2.4-1.8c1.9,2.1-3.2,4.7-4.5,5.4c0.7-0.2,2-0.2,2,1.1c-0.1,1.5-3.2,1.1-4.1,1.5c0.2,0.2,0.3,0.4,0.4,0.6
	c0.2,0,0.4,0.2,0.5,0.3c0.6,0.6,0.1,1.8,1,2.1c0.7,0.3,1.6-0.9,2-1.4c0.9-1.2,2-3.6,3.7-2.1c0.4,0.4,0.3,1.6,0.9,1.6
	c0.4,0,1-1.2,1.4-1.6c1.2-1.2,3.8-1.9,3.4,0.8c-0.3,1.8-2,3.7-3,4.9c0.8-0.2,1.6-0.7,2.4-0.5c0,1.6-0.5,2.5-1.2,3
	c-0.8,0.7-2,1-3,1.4c2.1,0.2,0.1,1.7-0.9,2.3c-0.1,0-0.2,0.1-0.2,0.1c-0.3,0.2-0.6,0.3-0.9,0.4c-0.9,0.3-1.6,0.4-2.6,0.4l0.1,0.2
	c0.2,0.1,0.4,0.2,0.5,0.3c0.6,0.5,0.8,1.2,0.2,1.9l1.5,4.3c0.5-0.5,1.1-1.1,1.8-1c0.9,0.2,1.2,1.1,1.2,2.1v0.4
	c0.4-0.1,0.7-0.2,1.1-0.5c0.9-0.5,1.6-1.3,2.7-1.2c0.3,0.1,0.8,0.3,1.2,0.6c0.8,0.5,1.4,1.5,0.6,2.2c1.3-0.1,2.5-1.2,3.8-1
	c0.9,2.1-1,3.1-3.2,3.7c0.9,0.9-1.6,1.9-2.4,2.2c1.3,0.2,9.2-2.5,8.2,1.2c-0.3,1.1-2.1,1.4-1.6,2.9c0.3,1,1.3,1,2.1,1.5
	c0.4,0.3,0.7,0.7,0.9,1.4c0,0.4,0,0.8,0,1.1c1.7,2.7-5.5,6-6.7,6.5c0.9-0.3,3-0.5,2.9,1.2c-0.1,1.8-4.3,1.4-5.4,1.9
	c0.1,0.2,0.2,0.3,0.3,0.4c0.3,0.1,0.5,0.2,0.9,0.5c0.9,0.7,0.2,2.3,1.3,2.7c1.1,0.4,2.1-1.1,2.8-1.8c1.3-1.5,2.7-4.5,5-2.7
	c0.6,0.5,0.5,2,1.2,2.1c0.6,0.1,1.4-1.6,1.8-2c1.7-1.5,5.1-2.3,4.6,1c-0.4,2.3-2.7,4.7-4.1,6.2c1.1-0.2,2-0.9,3.2-0.6
	c0,4.1-3,4.6-5.7,5.5c3,0.3-0.5,2.5-1.5,3c-1.8,0.9-3.3,1-5.2,1c0,0-0.1,0-0.1,0.1c1.5,0.3,2.7,1.3,1.9,2.5h1.8l1.6,4.5
	c0.2-0.1,0.4-0.1,0.7-0.1c1.4,0.2,1.6,1.7,1.5,3c1.8-0.2,3-2.3,4.9-2c1.1,0.2,4,2.1,2.4,3.4c1.7-0.2,3.3-1.5,5-1.2
	c1.1,2.5-1.4,3.8-4.3,4.5c1.1,1.1-2.2,2.4-3.3,2.7c1.8,0.2,12.2-3.2,10.8,1.4c-0.1,0.2-0.2,0.4-0.3,0.5c-0.7,1-2.4,1.5-1.9,3
	c0.6,1.8,3.3,1,3.7,3.5c0.5,2.7-1.5,2.3-3.5,2.1c-0.6,0-1.2-0.1-1.6-0.2c-1.1-0.1-1.5-0.1-0.7,1.6c0.3,0.5,0.4,0.9,0.5,1.2h39.6v0
	h48.9c11.2,0,21.7-2.2,31.4-6.7c4-1.8,7.8-3.9,11.3-6.3c5.2-3.3,9.9-7.2,14.2-11.7c7.3-7.5,13-16.2,17.1-26c0.7-1.6,1.2-3.1,1.8-4.7
	c0.6-1.7,1.2-3.4,1.6-5.2c1.8-6.6,2.7-13.3,2.8-20.3v-0.7C567,82.2,567,80.9,566.9,79.6z M495.9,125.7c-5.8,2.3-12.3,3.4-19.7,3.4
	h-9.7V38H478c4.2,0.1,8.2,0.6,11.9,1.6c2,0.5,3.9,1.1,5.8,1.9c1.6,0.6,3.1,1.4,4.6,2.1v0c3.1,1.6,6,3.6,8.5,5.9c0.5,0.5,1,1,1.5,1.5
	c3.2,3.2,5.8,6.9,7.8,11.2c0.5,1.1,1,2.1,1.5,3.3c0.3,0.9,0.7,1.9,1,2.9c1.1,3.5,1.8,7.2,2.1,11c0.2,1.4,0.2,2.9,0.2,4.3
	c0,2.1-0.1,4.2-0.3,6.2c-0.3,3.2-0.9,6.3-1.8,9.1c-0.3,1-0.7,2-1.1,3c-2.1,5.5-5.1,10.3-9,14.4c-3.2,3.2-7,6-11.4,8.1
	C498.1,124.8,497,125.3,495.9,125.7z"/>
<g>
	<g>
		<path d="M93.9,195l-0.1,0.6c-0.2,0.9-0.5,1.7-0.9,2.5c-0.4,0.8-0.9,1.5-1.6,2.1s-1.4,1.1-2.3,1.4s-2,0.5-3.2,0.5
			c-1.4,0-2.6-0.3-3.6-0.8c-1-0.5-1.8-1.2-2.5-2.1c-0.6-0.9-1.1-1.9-1.4-3c-0.3-1.1-0.4-2.3-0.4-3.6c0-1.7,0.2-3.1,0.6-4.4
			c0.4-1.2,1-2.2,1.8-3s1.7-1.4,2.7-1.7c1-0.4,2.1-0.5,3.4-0.5c0.9,0,1.8,0.1,2.6,0.4c0.8,0.2,1.6,0.6,2.2,1.1
			c0.6,0.5,1.2,1.1,1.6,1.9c0.4,0.7,0.7,1.6,0.8,2.5l0.1,0.6H91L91,189c-0.3-1.3-0.9-2.3-1.7-2.8c-0.8-0.6-1.9-0.9-3.3-0.9
			c-0.9,0-1.8,0.2-2.4,0.6c-0.7,0.4-1.2,0.9-1.7,1.5c-0.4,0.6-0.8,1.4-1,2.3c-0.2,0.9-0.3,1.8-0.3,2.8c0,0.9,0.1,1.8,0.3,2.7
			c0.2,0.9,0.5,1.6,0.9,2.3c0.4,0.6,1,1.2,1.7,1.6c0.7,0.4,1.6,0.6,2.7,0.6c0.7,0,1.3-0.1,1.8-0.3c0.5-0.2,1-0.5,1.4-0.9
			c0.4-0.4,0.8-0.8,1.1-1.4c0.3-0.5,0.5-1.1,0.7-1.8l0.1-0.4L93.9,195L93.9,195z"/>
	</g>
	<g>
		<path d="M111.8,188.8c-0.4-1.2-0.9-2.2-1.6-3.1c-0.7-0.9-1.6-1.6-2.7-2.1c-1.1-0.5-2.3-0.8-3.7-0.8c-1.4,0-2.6,0.3-3.6,0.8
			c-1.1,0.5-1.9,1.2-2.6,2.1s-1.3,1.9-1.6,3.1c-0.4,1.1-0.5,2.4-0.5,3.7c0,1.3,0.2,2.5,0.5,3.6c0.4,1.1,0.9,2.2,1.6,3
			s1.6,1.6,2.7,2.1c1.1,0.5,2.3,0.8,3.7,0.8c1.4,0,2.6-0.2,3.7-0.8s2-1.2,2.7-2.1s1.2-1.9,1.6-3c0.4-1.1,0.5-2.4,0.5-3.6
			C112.4,191.2,112.2,190,111.8,188.8z M103.9,199.7c-1.1,0-1.9-0.2-2.7-0.6s-1.3-0.9-1.8-1.5c-0.5-0.6-0.8-1.4-1.1-2.3
			c-0.2-0.9-0.4-1.8-0.4-2.8c0-1,0.1-1.9,0.4-2.8c0.2-0.9,0.6-1.6,1.1-2.3c0.5-0.6,1.1-1.2,1.8-1.6c0.7-0.4,1.6-0.6,2.6-0.6
			c0.9,0,1.8,0.2,2.5,0.5c0.7,0.3,1.4,0.8,1.9,1.4c0.5,0.6,0.9,1.4,1.2,2.3c0.3,0.9,0.4,1.9,0.4,3.1c0,1-0.1,1.9-0.4,2.8
			c-0.2,0.9-0.6,1.6-1.1,2.3c-0.5,0.6-1.1,1.1-1.8,1.5C105.8,199.5,104.9,199.7,103.9,199.7z"/>
	</g>
	<g>
		<polygon points="131.7,183.4 131.7,201.6 129.1,201.6 129.1,188.4 124.3,201.6 122,201.6 117.2,188.4 117.2,201.6 114.5,201.6 
			114.5,183.4 117.9,183.4 123.2,197.7 128.4,183.4 		"/>
	</g>
	<g>
		<path d="M147.1,186.7c-0.2-0.7-0.5-1.2-1-1.8c-0.5-0.5-1.1-0.9-1.9-1.2c-0.8-0.3-1.8-0.4-2.9-0.4h-6.8v18.2h2.6V194h3.2
			c0.8,0,1.7-0.1,2.5-0.2c0.8-0.1,1.6-0.4,2.3-0.8c0.7-0.4,1.3-0.9,1.7-1.6c0.4-0.7,0.7-1.6,0.7-2.6
			C147.4,188,147.3,187.4,147.1,186.7z M140.3,191.6h-3.2v-5.9h3.7c1.4,0,2.5,0.2,3.1,0.7c0.6,0.5,0.9,1.1,0.9,2.1
			c0,0.6-0.1,1.2-0.3,1.5c-0.2,0.4-0.5,0.7-0.8,0.9c-0.4,0.2-0.8,0.4-1.4,0.5C141.8,191.6,141.1,191.6,140.3,191.6z"/>
	</g>
	<g>
		<path d="M157.1,183.4h-2.5l-7.2,18.2h2.8l2-5.4h7.1l2,5.4h2.8L157.1,183.4z M153.1,193.8l2.7-7.1l2.6,7.1H153.1z"/>
	</g>
	<g>
		<polygon points="180.9,183.4 194.4,183.4 194.4,185.8 189,185.8 189,201.6 186.3,201.6 186.3,185.8 180.9,185.8 		"/>
		<polygon points="214.2,183.4 216.8,183.4 216.8,201.6 214.2,201.6 214.2,193.2 205,193.2 205,201.6 202.4,201.6 202.4,183.4 
			205,183.4 205,190.8 214.2,190.8 		"/>
		<path d="M177.6,195h2.7l-0.1,0.6c-0.2,0.9-0.5,1.7-0.9,2.5c-0.4,0.8-0.9,1.5-1.5,2.1c-0.6,0.6-1.4,1.1-2.3,1.4s-2,0.5-3.2,0.5
			c-1.4,0-2.6-0.3-3.6-0.8c-1-0.5-1.9-1.2-2.5-2.1c-0.6-0.9-1.1-1.9-1.4-3c-0.3-1.1-0.4-2.3-0.4-3.6c0-1.7,0.2-3.1,0.6-4.4
			c0.4-1.2,1-2.2,1.8-3s1.7-1.4,2.7-1.7c1-0.4,2.1-0.5,3.3-0.5c0.9,0,1.8,0.1,2.6,0.4c0.8,0.2,1.5,0.6,2.2,1.1s1.2,1.1,1.6,1.9
			c0.4,0.7,0.7,1.6,0.8,2.5l0.1,0.6h-2.7l-0.1-0.4c-0.3-1.3-0.9-2.3-1.7-2.8c-0.8-0.6-1.9-0.9-3.3-0.9c-0.9,0-1.8,0.2-2.4,0.6
			c-0.7,0.4-1.2,0.9-1.7,1.5c-0.5,0.6-0.8,1.4-1,2.3c-0.2,0.9-0.3,1.8-0.3,2.8c0,0.9,0.1,1.8,0.3,2.7c0.2,0.9,0.5,1.6,0.9,2.3
			c0.4,0.6,1,1.2,1.7,1.6c0.7,0.4,1.6,0.6,2.7,0.6c0.7,0,1.3-0.1,1.8-0.3c0.5-0.2,1-0.5,1.4-0.9c0.4-0.4,0.8-0.8,1-1.4
			c0.3-0.5,0.5-1.1,0.7-1.8L177.6,195z"/>
		<path d="M235.5,188.8c-0.4-1.2-0.9-2.2-1.6-3.1c-0.7-0.9-1.6-1.6-2.7-2.1c-1.1-0.5-2.3-0.8-3.7-0.8c-1.4,0-2.6,0.3-3.6,0.8
			c-1,0.5-1.9,1.2-2.6,2.1s-1.2,1.9-1.6,3.1c-0.4,1.1-0.5,2.4-0.5,3.7c0,1.3,0.2,2.5,0.5,3.6c0.4,1.1,0.9,2.2,1.6,3s1.6,1.6,2.7,2.1
			s2.3,0.8,3.7,0.8c1.4,0,2.6-0.2,3.7-0.8s2-1.2,2.7-2.1s1.2-1.9,1.6-3c0.4-1.1,0.5-2.4,0.5-3.6C236.1,191.2,235.9,190,235.5,188.8z
			 M230.2,199.1c-0.7,0.4-1.6,0.6-2.6,0.6c-1,0-2-0.2-2.7-0.6s-1.3-0.9-1.8-1.5c-0.5-0.6-0.8-1.4-1.1-2.3c-0.2-0.9-0.4-1.8-0.4-2.8
			c0-1,0.1-1.9,0.4-2.8c0.2-0.9,0.6-1.6,1.1-2.3c0.5-0.6,1.1-1.2,1.8-1.6c0.7-0.4,1.6-0.6,2.6-0.6c0.9,0,1.8,0.2,2.5,0.5
			c0.7,0.3,1.4,0.8,1.9,1.4c0.5,0.6,0.9,1.4,1.2,2.3c0.3,0.9,0.4,1.9,0.4,3.1c0,1-0.1,1.9-0.4,2.8c-0.2,0.9-0.6,1.6-1.1,2.3
			C231.5,198.2,230.9,198.7,230.2,199.1z"/>
	</g>
	<g>
		<path d="M250.4,194.3c0.3,0.6,0.5,1.4,0.5,2.3c0,1.8-0.6,3.1-1.8,4.1c-1.2,0.9-2.9,1.4-5,1.4c-0.9,0-1.8-0.1-2.6-0.4
			c-0.8-0.2-1.6-0.6-2.2-1.1c-0.6-0.5-1.1-1.2-1.4-1.9c-0.3-0.8-0.5-1.6-0.5-2.7v-0.5h2.5l0,0.5c0.1,0.7,0.2,1.3,0.5,1.8
			c0.2,0.5,0.6,0.9,0.9,1.1s0.8,0.5,1.3,0.6c1.1,0.3,2.6,0.3,3.5,0c0.5-0.2,0.9-0.4,1.2-0.7c0.3-0.3,0.5-0.6,0.6-1
			c0.1-0.4,0.2-0.8,0.2-1.2c0-0.6-0.1-1-0.4-1.3c-0.3-0.4-0.6-0.6-1-0.9c-0.4-0.2-1-0.4-1.6-0.6c-0.6-0.2-1.3-0.3-1.9-0.5
			c-0.7-0.2-1.4-0.3-2-0.5c-0.7-0.2-1.3-0.5-1.8-0.9c-0.5-0.4-1-0.9-1.3-1.5c-0.3-0.6-0.5-1.4-0.5-2.3c0-0.7,0.1-1.3,0.4-1.9
			c0.3-0.6,0.7-1.2,1.2-1.7c0.5-0.5,1.2-0.9,2-1.1c0.8-0.3,1.7-0.4,2.7-0.4c1,0,1.9,0.1,2.7,0.4c0.8,0.3,1.5,0.7,2,1.2
			c0.5,0.5,0.9,1.1,1.2,1.8c0.3,0.7,0.4,1.4,0.4,2.2v0.5h-2.5v-0.5c0-0.6-0.1-1.1-0.3-1.5c-0.2-0.4-0.5-0.7-0.8-1
			c-0.4-0.3-0.8-0.5-1.2-0.6c-1.2-0.3-2.5-0.2-3.4,0.1c-0.5,0.2-0.9,0.5-1.2,0.8s-0.5,0.6-0.6,1c-0.1,0.4-0.1,0.8-0.1,1.1
			c0.1,0.5,0.2,0.8,0.5,1.1c0.3,0.3,0.7,0.5,1.1,0.7c0.5,0.2,1,0.4,1.6,0.5c0.6,0.1,1.2,0.3,1.9,0.4c0.6,0.2,1.3,0.3,1.9,0.5
			c0.6,0.2,1.2,0.5,1.7,0.9C249.7,193.1,250.1,193.6,250.4,194.3z"/>
		<polygon points="265.6,199.2 265.6,201.6 252.9,201.6 252.9,183.4 265.4,183.4 265.4,185.8 255.5,185.8 255.5,191 264.4,191 
			264.4,193.4 255.5,193.4 255.5,199.2 		"/>
	</g>
	<g>
		<path d="M282.1,183.4h-2.5l-7.2,18.2h2.8l2-5.4h7.2l2,5.4h2.8L282.1,183.4z M278.1,193.8l2.7-7.1l2.6,7.1H278.1z"/>
	</g>
	<g>
		<path d="M317.4,196.6c0,1.8-0.6,3.1-1.8,4.1c-1.2,0.9-2.9,1.4-5,1.4c-0.9,0-1.8-0.1-2.6-0.4c-0.8-0.2-1.6-0.6-2.2-1.1
			c-0.6-0.5-1.1-1.2-1.4-1.9c-0.3-0.8-0.5-1.6-0.5-2.7v-0.5h2.5l0,0.5c0.1,0.7,0.2,1.3,0.5,1.8c0.2,0.5,0.6,0.9,0.9,1.1
			s0.8,0.5,1.3,0.6c1.1,0.3,2.6,0.3,3.5,0c0.5-0.2,0.9-0.4,1.2-0.7c0.3-0.3,0.5-0.6,0.6-1c0.1-0.4,0.2-0.8,0.2-1.2
			c0-0.6-0.1-1-0.4-1.3c-0.3-0.4-0.6-0.6-1-0.9c-0.4-0.2-1-0.4-1.6-0.6c-0.6-0.2-1.3-0.3-1.9-0.5c-0.7-0.2-1.4-0.3-2-0.5
			c-0.7-0.2-1.3-0.5-1.8-0.9c-0.5-0.4-1-0.9-1.3-1.5c-0.4-0.6-0.5-1.4-0.5-2.3c0-0.7,0.1-1.3,0.4-1.9c0.3-0.6,0.7-1.2,1.2-1.7
			c0.5-0.5,1.2-0.9,2-1.1c0.8-0.3,1.7-0.4,2.7-0.4c1,0,2,0.1,2.7,0.4c0.8,0.3,1.5,0.7,2,1.2c0.5,0.5,0.9,1.1,1.2,1.8
			s0.4,1.4,0.4,2.2v0.5h-2.5v-0.5c0-0.6-0.1-1.1-0.3-1.5c-0.2-0.4-0.5-0.7-0.8-1c-0.4-0.3-0.8-0.5-1.2-0.6c-1.2-0.3-2.5-0.2-3.4,0.1
			c-0.5,0.2-0.9,0.5-1.2,0.8c-0.3,0.3-0.5,0.6-0.6,1c-0.1,0.4-0.1,0.8-0.1,1.1c0.1,0.5,0.2,0.8,0.5,1.1c0.3,0.3,0.7,0.5,1.1,0.7
			c0.5,0.2,1,0.4,1.6,0.5c0.6,0.1,1.2,0.3,1.9,0.4c0.7,0.2,1.3,0.3,1.9,0.5c0.6,0.2,1.2,0.5,1.7,0.9c0.5,0.4,0.9,0.9,1.2,1.5
			C317.3,194.9,317.4,195.6,317.4,196.6z"/>
		<path d="M302.3,194.3c0.3,0.6,0.5,1.4,0.5,2.3c0,1.8-0.6,3.1-1.8,4.1c-1.2,0.9-2.9,1.4-5,1.4c-0.9,0-1.8-0.1-2.6-0.4
			c-0.8-0.2-1.5-0.6-2.2-1.1c-0.6-0.5-1.1-1.2-1.4-1.9c-0.3-0.8-0.5-1.6-0.5-2.7v-0.5h2.5l0,0.5c0,0.7,0.2,1.3,0.5,1.8
			c0.2,0.5,0.5,0.9,0.9,1.1c0.4,0.3,0.8,0.5,1.4,0.6c1.1,0.3,2.6,0.3,3.5,0c0.5-0.2,0.9-0.4,1.2-0.7c0.3-0.3,0.5-0.6,0.7-1
			c0.1-0.4,0.2-0.8,0.2-1.2c0-0.6-0.1-1-0.4-1.3c-0.3-0.4-0.6-0.6-1-0.9c-0.5-0.2-1-0.4-1.6-0.6c-0.6-0.2-1.3-0.3-1.9-0.5
			c-0.7-0.2-1.4-0.3-2-0.5c-0.7-0.2-1.3-0.5-1.8-0.9c-0.5-0.4-1-0.9-1.3-1.5c-0.3-0.6-0.5-1.4-0.5-2.3c0-0.7,0.1-1.3,0.4-1.9
			c0.3-0.6,0.7-1.2,1.2-1.7c0.5-0.5,1.2-0.9,2-1.1c0.8-0.3,1.7-0.4,2.7-0.4c1,0,1.9,0.1,2.7,0.4c0.8,0.3,1.5,0.7,2,1.2
			c0.5,0.5,0.9,1.1,1.2,1.8c0.3,0.7,0.4,1.4,0.4,2.2v0.5h-2.6v-0.5c0-0.6-0.1-1.1-0.3-1.5c-0.2-0.4-0.5-0.7-0.8-1
			c-0.4-0.3-0.8-0.5-1.2-0.6c-1.2-0.3-2.5-0.2-3.4,0.1c-0.5,0.2-0.9,0.5-1.2,0.8c-0.3,0.3-0.5,0.6-0.6,1c-0.1,0.4-0.1,0.8-0.1,1.1
			c0.1,0.5,0.2,0.8,0.5,1.1c0.3,0.3,0.7,0.5,1.1,0.7c0.5,0.2,1,0.4,1.6,0.5c0.6,0.1,1.2,0.3,1.9,0.4c0.6,0.2,1.3,0.3,1.9,0.5
			c0.6,0.2,1.2,0.5,1.7,0.9C301.6,193.1,302,193.6,302.3,194.3z"/>
	</g>
	<g>
		<polygon points="332.1,199.2 332.1,201.6 319.4,201.6 319.4,183.4 331.9,183.4 331.9,185.8 322,185.8 322,191 330.9,191 
			330.9,193.4 322,193.4 322,199.2 		"/>
	</g>
	<g>
		<polygon points="351.2,183.4 351.2,201.6 348.5,201.6 348.5,188.4 343.7,201.6 341.5,201.6 336.6,188.4 336.6,201.6 334,201.6 
			334,183.4 337.3,183.4 342.6,197.7 347.8,183.4 		"/>
	</g>
	<g>
		<path d="M366.6,193.1c-0.4-0.5-0.9-0.9-1.6-1.2c0.3-0.2,0.5-0.4,0.8-0.7c0.3-0.3,0.5-0.8,0.7-1.2c0.2-0.5,0.3-1.1,0.3-1.7
			c0-0.7-0.1-1.3-0.3-1.9c-0.2-0.6-0.6-1.1-1.1-1.6c-0.5-0.4-1.2-0.8-1.9-1c-0.8-0.2-1.7-0.3-2.7-0.3H354v18.2h7.5
			c0.9,0,1.6-0.1,2.4-0.3c0.8-0.2,1.4-0.5,2-0.9c0.5-0.4,1-1,1.3-1.7c0.3-0.7,0.5-1.5,0.5-2.5C367.6,195,367.3,193.9,366.6,193.1z
			 M360.2,199.2h-3.6v-5.8h3.8c0.7,0,1.4,0,2,0.1c0.6,0.1,1,0.2,1.4,0.4c0.4,0.2,0.6,0.5,0.8,0.8c0.2,0.4,0.3,0.9,0.3,1.5
			c0,0.7-0.1,1.2-0.3,1.6c-0.2,0.4-0.4,0.6-0.8,0.8c-0.4,0.2-0.9,0.4-1.5,0.4C361.9,199.2,361.1,199.2,360.2,199.2z M356.6,185.8
			h3.3c0.9,0,1.6,0,2.2,0.1c0.5,0.1,1,0.2,1.3,0.4c0.3,0.2,0.5,0.4,0.6,0.7c0.1,0.3,0.2,0.7,0.2,1.2c0,0.5-0.1,0.9-0.2,1.2
			c-0.1,0.3-0.3,0.6-0.6,0.8c-0.3,0.2-0.7,0.4-1.2,0.5c-0.5,0.1-1.2,0.2-2,0.2h-3.6V185.8z"/>
	</g>
	<g>
		<polygon points="397,183.4 390.4,193.8 390.4,201.6 387.7,201.6 387.7,193.9 381.2,183.4 384.2,183.4 389,191.2 393.9,183.4 		"/>
		<polygon points="372.6,199.2 381.8,199.2 381.8,201.6 369.9,201.6 369.9,183.4 372.6,183.4 		"/>
	</g>
	<g>
		<path d="M419.5,190.5c-0.1-0.7-0.2-1.4-0.5-2.1c-0.2-0.7-0.5-1.4-0.9-2c-0.4-0.6-0.9-1.2-1.5-1.7c-0.4-0.3-0.9-0.6-1.3-0.8
			c-0.5-0.2-0.9-0.3-1.4-0.4c-0.5-0.1-1-0.1-1.4-0.2c-0.5,0-1,0-1.4,0h-6.4v18.2h6.4c0.6,0,1.2,0,1.8-0.1c0.6,0,1.2-0.2,1.7-0.3
			c0.6-0.2,1.1-0.4,1.6-0.7c0.5-0.3,1-0.7,1.4-1.2c0.4-0.5,0.8-1,1.1-1.5c0.3-0.5,0.5-1.1,0.7-1.7c0.2-0.6,0.3-1.2,0.4-1.8
			c0.1-0.6,0.1-1.2,0.1-1.8C419.6,191.9,419.5,191.2,419.5,190.5z M407.1,185.8h3.4c0.7,0,1.4,0,2.1,0.1c0.6,0.1,1.2,0.2,1.6,0.5
			c0.6,0.3,1,0.6,1.3,1.1c0.3,0.4,0.6,0.9,0.8,1.5c0.2,0.5,0.3,1.1,0.4,1.7c0.1,0.6,0.1,1.2,0.1,1.8c0,0.6,0,1.2-0.1,1.8
			c-0.1,0.6-0.2,1.2-0.4,1.7c-0.2,0.5-0.5,1-0.8,1.5c-0.3,0.4-0.7,0.8-1.2,1c-0.6,0.3-1.2,0.5-1.8,0.6c-0.6,0.1-1.3,0.1-2,0.1h-3.4
			L407.1,185.8L407.1,185.8z"/>
	</g>
	<g>
		<polygon points="424.4,199.2 434.5,199.2 434.5,201.6 421.8,201.6 421.8,183.4 434.3,183.4 434.3,185.8 424.4,185.8 424.4,191 
			433.3,191 433.3,193.4 424.4,193.4 		"/>
	</g>
	<g>
		<rect x="451.6" y="183.4" width="2.6" height="18.2"/>
		<polygon points="447.1,183.4 449.9,183.4 443.5,201.6 441,201.6 434.7,183.4 437.5,183.4 442.3,197.6 		"/>
		<path d="M472.9,195l-0.1,0.6c-0.2,0.9-0.5,1.7-0.9,2.5c-0.4,0.8-0.9,1.5-1.5,2.1c-0.6,0.6-1.4,1.1-2.3,1.4c-0.9,0.4-2,0.5-3.2,0.5
			c-1.4,0-2.6-0.3-3.6-0.8c-1-0.5-1.8-1.2-2.5-2.1c-0.6-0.9-1.1-1.9-1.4-3c-0.3-1.1-0.4-2.3-0.4-3.6c0-1.7,0.2-3.1,0.6-4.4
			c0.4-1.2,1-2.2,1.8-3c0.8-0.8,1.7-1.4,2.7-1.7c1-0.4,2.1-0.5,3.3-0.5c0.9,0,1.8,0.1,2.6,0.4s1.5,0.6,2.2,1.1
			c0.6,0.5,1.2,1.1,1.6,1.9c0.4,0.7,0.7,1.6,0.8,2.5l0.1,0.6H470l-0.1-0.4c-0.3-1.3-0.9-2.3-1.7-2.8c-0.8-0.6-1.9-0.9-3.3-0.9
			c-0.9,0-1.8,0.2-2.4,0.6c-0.7,0.4-1.2,0.9-1.7,1.5c-0.5,0.6-0.8,1.4-1,2.3c-0.2,0.9-0.3,1.8-0.3,2.8c0,0.9,0.1,1.8,0.3,2.7
			c0.2,0.9,0.5,1.6,0.9,2.3c0.4,0.6,1,1.2,1.7,1.6c0.7,0.4,1.6,0.6,2.7,0.6c0.7,0,1.3-0.1,1.8-0.3c0.5-0.2,1-0.5,1.4-0.9
			c0.4-0.4,0.8-0.8,1-1.4c0.3-0.5,0.5-1.1,0.7-1.8l0.1-0.4L472.9,195L472.9,195z"/>
	</g>
	<g>
		<polygon points="487.7,199.2 487.7,201.6 475,201.6 475,183.4 487.4,183.4 487.4,185.8 477.6,185.8 477.6,191 486.5,191 
			486.5,193.4 477.6,193.4 477.6,199.2 		"/>
	</g>
</g>
<path d="M85.8,23.9v0.9C85.6,24.6,85.6,24.2,85.8,23.9z"/>
</svg>
