<?xml version="1.0" encoding="utf-8"?>
<!-- Generator: Adobe Illustrator 24.2.0, SVG Export Plug-In . SVG Version: 6.00 Build 0)  -->
<svg version="1.1" id="Layer_1" xmlns="http://www.w3.org/2000/svg" xmlns:xlink="http://www.w3.org/1999/xlink" x="0px" y="0px"
	 viewBox="0 0 576 576" style="enable-background:new 0 0 576 576;" xml:space="preserve">
<style type="text/css">
	.st0{fill:#FFDE17;}
	.st1{stroke:#000000;stroke-miterlimit:10;}
</style>
<path class="st0" d="M542.7,271.5c0-0.7-0.1-1.4-0.1-2c0-0.9-0.1-1.8-0.2-2.7c-0.7-6.8-2.5-13.3-5.2-19.6c-0.1-0.2-0.2-0.5-0.3-0.7
	c-3.7-8.6-8.8-16.2-15.1-22.6c-0.4-0.4-0.8-0.9-1.3-1.2c-1.7-1.8-3.5-3.3-5.4-4.8c-4.4-3.6-9.2-6.6-14.5-9.1
	c-0.6-0.3-1.2-0.6-1.8-0.9c-4.9-2.3-10-3.9-15.2-4.9c-3.8-0.7-7.8-1.1-11.8-1.2c-0.3,0-0.7,0-1,0h-56.4v114l-0.4-0.9l-7.8-20.6
	l-14.3-37.6l-14.8-38.8l-6.1-16h-41.6l-6.1,16l-1.5,3.9h0l-0.2,0.7l-5,13.2l-1.3,3.4l-0.3,0.7l-2,5.3l-6.6,17.4l-2.7,7.1l-6.9,18.1
	l-8.9,23.5l-1.9,5V201.8h-38.1v56.6h-55.1v-56.6h-38.1v114.4h-40.2c-6.5,0-12.3-1-17.5-3.1c-5.2-2.1-9.6-4.9-13.1-8.6
	c-3.6-3.6-6.3-8-8.3-13c-0.5-1.2-0.9-2.5-1.2-3.8c-0.7-2.6-1.2-5.4-1.5-8.2c0-0.5-0.1-1-0.1-1.5c0-1-0.1-1.9-0.1-2.9
	c0-5.9,1-11.4,2.8-16.4c1.9-5,4.6-9.3,8.2-13c1.2-1.2,2.4-2.3,3.7-3.2v0c0.6-0.4,1.1-0.8,1.7-1.2c2.3-1.6,4.9-3,7.7-4.1
	c3.9-1.6,8.2-2.5,12.8-2.9c1.2-0.1,2.4-0.1,3.6-0.2c0.4,0,0.8,0,1.2,0h8.8v-32.3h-18.3c-10.1,0-19.5,2-28.3,6
	c-1.7,0.8-3.3,1.6-4.9,2.5c-3.7,2-7.2,4.3-10.4,6.9c-0.3,0.2-0.6,0.4-0.8,0.6c-0.4,0.4-0.8,0.7-1.3,1.1c-1.9,1.5-3.8,3.2-5.5,5.1
	c-6.5,6.7-11.7,14.5-15.4,23.4c-3.7,8.9-5.6,18.1-5.6,27.7c0,9.7,1.9,19,5.7,27.9c3.8,8.9,8.9,16.7,15.5,23.3
	c6.5,6.7,14.2,12,23,16.1c8.8,4,18.1,6.1,28.1,6.1h87.8V288h55.1v60.5H309c0.1-0.3,0.2-0.7,0.4-1.1c1-2.1-0.1-1.3-2.1-1.3
	c-1.8,0.1-3.6,0.5-3.2-1.9c0.4-2.3,2.8-1.5,3.3-3.2c0.5-1.7-1.6-2-2-3.2c-1.3-4.1,8.1-1.1,9.7-1.3c-1-0.4-3.9-1.5-3-2.5
	c-2.3-0.5-4.2-1.4-4.1-3.1c0-0.3,0.1-0.6,0.2-1c1.4-0.2,2.6,0.6,3.9,1c0.2,0,0.4,0.1,0.6,0.1c-0.1-0.1-0.2-0.2-0.3-0.3
	c-0.8-1.2,1.4-2.6,2.4-2.8c0.5-0.1,1,0,1.4,0.2c1,0.5,1.9,1.4,3,1.5c0-1.2,0.1-2.6,1.4-2.7c0.2,0,0.5,0,0.6,0.1l1.2-3.4l0.2-0.6h1.6
	c-0.1-0.1-0.1-0.2-0.1-0.2c-0.4-1,0.6-1.8,1.8-2c0,0-0.1,0-0.1-0.1c-1.7,0-3-0.1-4.6-0.9c-0.9-0.4-4.1-2.4-1.4-2.7
	c-2.4-0.9-5.1-1.3-5.1-5c1.1-0.2,1.9,0.3,2.9,0.5c-0.5-0.5-1.1-1.1-1.7-1.8c-0.7-0.9-1.4-2-1.8-3c-0.1-0.2-0.2-0.5-0.2-0.7
	c-0.5-3,2.6-2.2,4.1-0.9c0.4,0.4,1.1,1.8,1.7,1.8c0.7-0.1,0.6-1.4,1.1-1.9c2-1.7,3.3,1.1,4.5,2.4c0.6,0.6,1.5,1.9,2.5,1.6
	c1-0.3,0.5-1.8,1.2-2.4c0.3-0.2,0.5-0.4,0.8-0.5c0.1-0.1,0.2-0.2,0.3-0.4c-1-0.5-4.8-0.1-4.9-1.7c-0.1-1.5,1.8-1.4,2.6-1.1
	c-1.2-0.5-7.7-3.4-6.1-5.9c0-0.2,0-0.5,0-0.9c0.4-1.9,2.2-1.3,2.6-2.6c0.4-1.4-1.2-1.6-1.5-2.6c-1-3.3,6.2-1,7.4-1.1
	c-0.8-0.3-3-1.2-2.2-2c-0.7-0.2-1.4-0.5-1.9-0.8c-0.4-0.2-0.8-0.5-1-0.9c-0.2-0.4-0.3-1,0-1.6c1.2-0.2,2.2,0.8,3.4,0.9
	c-1.2-1,0.8-2.4,1.6-2.5c1.4-0.2,2.1,1.3,3.3,1.5c0-1,0.2-2.1,1.2-2.3c0.6-0.1,1.1,0.4,1.5,0.9l1.4-3.9c-0.2-0.3-0.4-0.5-0.4-0.7
	c0-0.5,0.4-1,1-1.2l0.1-0.2c-1.2,0-2.1-0.1-3.2-0.7c-0.7-0.4-3.1-1.9-1-2.2c-0.2-0.1-0.4-0.1-0.6-0.2c-1.7-0.6-3.3-1.1-3.3-3.8
	c0.8-0.2,1.4,0.2,2.2,0.4c-0.9-1.1-2.4-2.8-2.7-4.4c0-0.3,0-0.5,0-0.7c0-0.4,0.2-0.6,0.5-0.8c0.6-0.5,1.9,0.1,2.7,0.8
	c0.3,0.3,0.8,1.4,1.2,1.4c0.6-0.1,0.5-1.1,0.9-1.5c1.5-1.3,2.5,0.8,3.3,1.9c0.4,0.5,1.2,1.5,1.8,1.3c0.8-0.3,0.4-1.3,1-1.9
	c0.1-0.1,0.2-0.2,0.4-0.3c0.1-0.2,0.2-0.3,0.4-0.5c-0.8-0.4-3.6,0-3.7-1.4c-0.1-1.1,1.1-1.1,1.8-1c-1.2-0.6-5.8-2.9-4.1-4.8
	c0.9,0.2,1.4,1.2,2.1,1.6c-0.5-1,1.1-1.3,1.7-1.2c1,0.2,1.2,1.5,1.9,2c0.2-0.7,0.6-1.4,1.2-1.2c0.5,0.1,0.7,0.7,1,1.3l0.7-2.1
	c-0.4-0.1-0.7-0.4-1-0.6c0,0,0,0,0,0c-1.4-0.4-2.7-1.2-2.5-2.3c0.2-0.1,0.5-0.2,0.8-0.1c-0.9-0.4-1.4-0.9,0.2-1.7
	c-0.9-0.3-2.3-2.1-2.9-3.6c-0.2-0.5-0.4-1-0.4-1.3c0.3,0,0.7,0,1,0.1c-0.3-0.3-0.9-1.6-1.2-2.8c-0.3-1.1-0.4-2.2,0.3-2.3
	c0.5-0.1,1,0.7,1.5,1.6c0.7,1.2,1.3,2.7,1.5,3.2c-0.1-1,0.1-1.9,1-1.6c0.7,0.3,1,1.6,1.3,2.5c-0.1-0.4,0-0.8,0.2-0.9
	c-0.1-0.5-0.2-1-0.2-1.6c0-2.6,1.5-0.1,2.1,0.6c-0.2-0.5-0.4-1.1-0.6-1.6c-0.5-1.2-0.8-2.4-0.5-3.9c0.5,0.2,0.8,1.1,1.2,1.7
	c0-1.5-1.9-4.3-1.3-5.9c0.6-1.4,1.8,0.7,2.3,1.7c-0.2-1.7-0.9-4.6-0.1-6c0.5,0.3,0.7,1,1.1,1.4c-0.5-1.6-0.9-3.4-0.6-5.2
	c0.1-1,0.6-3.5,1.3-2.7c0.1-0.8,0.3-1.7,0.5-2.7c0.3,0.5,0.4,1.6,0.5,2.9c0.8-1.3,1.3,1.5,1.4,2.5c0.2,1.9-0.2,3.7-0.7,5.2
	c0.4-0.4,0.7-1.1,1.1-1.4c0.8,1.5,0.1,4.4,0,6c0.4-1.1,1.7-3.1,2.2-1.7c0.7,1.6-1.2,4.4-1.2,5.9c0.3-0.6,0.6-1.5,1.1-1.7
	c0.1,0.5,0.1,1,0.1,1.5c0,1.4-0.6,2.7-1.1,4c0.5-0.7,2-3,2.1-0.9c0,0.1,0,0.2,0,0.3c0,0.6-0.1,1.1-0.2,1.7c0.2,0.2,0.2,0.6,0,1.1
	c0.4-0.9,0.6-2.5,1.4-2.8c1-0.3,1.1,0.7,1,1.6c0.1-0.5,0.7-1.9,1.3-3c0.6-1.1,1.3-1.9,1.7-1.9c0.5,0.1,0.6,0.6,0.5,1.2
	c-0.1,1.4-1,3.4-1.3,3.9c0.3-0.1,0.7-0.1,1-0.1c0,1.5-2.1,4.5-3.3,4.9c1.6,0.7,1.1,1.3,0.2,1.7c0.3,0,0.6,0,0.8,0.1
	c0.1,1.1-1.2,1.9-2.6,2.3c0,0,0,0,0,0c-0.2,0.2-0.6,0.5-0.9,0.6l0.7,2.1c0.3-0.5,0.5-1.1,1-1.2c0.6-0.2,1,0.5,1.2,1.2
	c0.8-0.5,1-1.7,1.9-2c0.6-0.1,2.2,0.2,1.7,1.2c0.7-0.5,1.2-1.4,2.1-1.6c1.7,1.9-2.9,4.3-4.1,4.8c0.7-0.1,1.8-0.1,1.8,1
	c-0.1,1.3-2.9,1-3.7,1.4c0.1,0.2,0.3,0.4,0.4,0.5c0.1,0,0.3,0.1,0.5,0.3c0.6,0.6,0.1,1.6,0.9,1.9c0.7,0.2,1.4-0.8,1.8-1.3
	c0.8-1.1,1.8-3.3,3.3-1.9c0.4,0.4,0.3,1.4,0.8,1.5c0.4,0,0.9-1.1,1.2-1.4c1.1-1.1,3.4-1.7,3.1,0.7c-0.2,1.7-1.8,3.3-2.7,4.4
	c0.7-0.2,1.4-0.6,2.2-0.4c0,1.4-0.4,2.3-1.1,2.7c-0.7,0.6-1.8,0.9-2.7,1.3c1.9,0.2,0.1,1.5-0.8,2.1c-0.1,0-0.1,0.1-0.2,0.1
	c-0.3,0.1-0.6,0.3-0.8,0.4c-0.8,0.3-1.5,0.4-2.3,0.4l0.1,0.2c0.2,0.1,0.4,0.2,0.5,0.2c0.5,0.5,0.7,1.1,0.2,1.7l1.3,3.9
	c0.5-0.5,1-1,1.6-0.9c0.8,0.1,1.1,1,1.1,1.9v0.3c0.4-0.1,0.7-0.2,1-0.4c0.8-0.5,1.4-1.2,2.4-1.1c0.3,0.1,0.7,0.2,1.1,0.6
	c0.7,0.5,1.3,1.3,0.6,2c1.2-0.1,2.2-1.1,3.4-0.9c0.8,1.9-0.9,2.8-2.9,3.3c0.8,0.8-1.4,1.7-2.2,2c1.2,0.1,8.3-2.3,7.4,1.1
	c-0.3,1-1.9,1.2-1.4,2.6c0.3,0.9,1.2,0.9,1.9,1.4c0.4,0.2,0.7,0.6,0.8,1.2c0,0.4,0,0.7,0,1c1.5,2.5-4.9,5.4-6.1,5.8
	c0.8-0.2,2.7-0.4,2.6,1.1c-0.1,1.7-3.8,1.2-4.9,1.7c0.1,0.2,0.2,0.3,0.3,0.4c0.2,0.1,0.5,0.2,0.8,0.5c0.8,0.6,0.2,2.1,1.2,2.4
	c1,0.3,1.9-1,2.5-1.6c1.2-1.4,2.5-4.1,4.5-2.4c0.5,0.5,0.4,1.8,1.1,1.9c0.5,0.1,1.2-1.4,1.7-1.8c1.5-1.3,4.6-2.1,4.1,0.9
	c-0.4,2.1-2.4,4.2-3.7,5.6c1-0.2,1.8-0.8,2.9-0.5c0,3.7-2.7,4.1-5.1,5c2.7,0.3-0.5,2.3-1.4,2.7c-1.7,0.8-3,0.9-4.6,0.9
	c0,0-0.1,0-0.1,0.1c1.4,0.2,2.4,1.2,1.7,2.2h1.6l1.4,4c0.2-0.1,0.4-0.1,0.6-0.1c1.2,0.2,1.4,1.5,1.4,2.7c1.6-0.2,2.7-2,4.4-1.8
	c1,0.2,3.6,1.9,2.1,3.1c1.5-0.2,3-1.3,4.5-1.1c1,2.3-1.3,3.4-3.9,4.1c1,1-2,2.1-3,2.5c1.6,0.1,11-2.9,9.7,1.3
	c-0.1,0.2-0.1,0.3-0.3,0.5c-0.7,0.9-2.2,1.3-1.7,2.7c0.5,1.6,3,0.9,3.3,3.2c0.4,2.4-1.4,2-3.2,1.9c-0.6,0-1.1-0.1-1.4-0.1
	c-1-0.1-1.4-0.1-0.6,1.4c0.2,0.4,0.4,0.8,0.5,1.1h35.6v0h44c10.1,0,19.5-2,28.3-6.1c3.6-1.6,7-3.5,10.2-5.6c4.6-3,8.9-6.5,12.8-10.5
	c6.5-6.8,11.7-14.6,15.3-23.4c0.6-1.4,1.1-2.8,1.6-4.2c0.6-1.5,1.1-3.1,1.5-4.7c1.6-5.9,2.4-12,2.5-18.2v-0.6
	C542.8,273.9,542.7,272.7,542.7,271.5z M478.8,313c-5.2,2.1-11.1,3.1-17.7,3.1h-8.8v-82.1h10.3c3.8,0.1,7.4,0.6,10.7,1.4
	c1.8,0.5,3.5,1,5.2,1.7c1.4,0.6,2.8,1.2,4.2,1.9v0c2.8,1.5,5.4,3.2,7.6,5.3c0.5,0.5,0.9,0.9,1.4,1.3c2.9,2.9,5.2,6.2,7,10.1
	c0.5,1,0.9,1.9,1.3,3c0.3,0.8,0.6,1.7,0.9,2.6c1,3.2,1.6,6.4,1.9,9.9c0.1,1.3,0.2,2.6,0.2,3.9c0,1.9-0.1,3.8-0.3,5.6
	c-0.3,2.9-0.8,5.6-1.6,8.2c-0.3,0.9-0.6,1.8-1,2.7c-1.9,5-4.6,9.3-8.1,12.9c-2.9,2.9-6.3,5.4-10.2,7.3
	C480.8,312.2,479.8,312.7,478.8,313z"/>
<g>
	<path class="st1" d="M122,368.5c-0.3-1.3-0.9-2.3-1.7-2.8c-0.8-0.6-1.9-0.8-3.2-0.8c-0.9,0-1.7,0.2-2.4,0.6
		c-0.7,0.4-1.2,0.9-1.7,1.5c-0.4,0.6-0.8,1.4-1,2.2c-0.2,0.8-0.3,1.7-0.3,2.6c0,0.9,0.1,1.7,0.3,2.5c0.2,0.8,0.5,1.6,0.9,2.2
		c0.4,0.7,1,1.2,1.7,1.6c0.7,0.4,1.6,0.6,2.6,0.6c0.7,0,1.3-0.1,1.8-0.3c0.5-0.2,1-0.5,1.4-0.9c0.4-0.4,0.8-0.8,1-1.3
		c0.3-0.5,0.5-1.1,0.6-1.7h1.5c-0.2,0.7-0.4,1.5-0.8,2.1c-0.3,0.7-0.8,1.3-1.3,1.8c-0.5,0.5-1.2,0.9-2,1.2c-0.8,0.3-1.7,0.4-2.7,0.4
		c-1.2,0-2.2-0.2-3.1-0.7c-0.8-0.4-1.5-1-2.1-1.8c-0.5-0.7-0.9-1.6-1.2-2.6c-0.2-1-0.4-2-0.4-3.1c0-1.5,0.2-2.7,0.5-3.8
		c0.4-1,0.9-1.9,1.5-2.5c0.6-0.7,1.4-1.1,2.3-1.4c0.9-0.3,1.8-0.4,2.9-0.4c0.8,0,1.5,0.1,2.2,0.3c0.7,0.2,1.3,0.5,1.8,0.9
		c0.5,0.4,1,0.9,1.3,1.5c0.3,0.6,0.6,1.3,0.7,2.1H122z"/>
	<path class="st1" d="M126,371.8c0-1.1,0.2-2.2,0.5-3.2c0.3-1,0.8-1.9,1.4-2.6s1.4-1.3,2.2-1.8s1.9-0.6,3.1-0.6
		c1.2,0,2.3,0.2,3.2,0.6c0.9,0.4,1.7,1,2.3,1.7c0.6,0.7,1.1,1.6,1.4,2.6c0.3,1,0.5,2.1,0.5,3.2c0,1.1-0.2,2.2-0.5,3.2
		c-0.3,1-0.8,1.8-1.4,2.6c-0.6,0.7-1.4,1.3-2.3,1.8c-0.9,0.4-2,0.6-3.1,0.6c-1.2,0-2.2-0.2-3.1-0.6c-0.9-0.4-1.7-1-2.3-1.8
		c-0.6-0.7-1.1-1.6-1.4-2.6C126.1,373.9,126,372.9,126,371.8z M133.2,378.7c1,0,1.9-0.2,2.6-0.6c0.7-0.4,1.3-0.9,1.8-1.5
		c0.5-0.6,0.8-1.4,1-2.2c0.2-0.8,0.3-1.7,0.3-2.6c0-1.1-0.1-2-0.4-2.9c-0.3-0.9-0.7-1.6-1.2-2.2c-0.5-0.6-1.1-1.1-1.8-1.4
		c-0.7-0.3-1.5-0.5-2.4-0.5c-1,0-1.8,0.2-2.6,0.6c-0.7,0.4-1.3,0.9-1.8,1.5c-0.5,0.6-0.8,1.4-1,2.2c-0.2,0.8-0.3,1.7-0.3,2.6
		c0,0.9,0.1,1.8,0.3,2.6c0.2,0.8,0.6,1.6,1,2.2c0.5,0.6,1.1,1.1,1.8,1.5C131.3,378.5,132.2,378.7,133.2,378.7z"/>
	<path class="st1" d="M143.3,379.5V364h2.2l5.1,13.7h0l5-13.7h2.2v15.5h-1.5v-13.8h0l-5.1,13.8h-1.4l-5.1-13.8h0v13.8H143.3z"/>
	<path class="st1" d="M161.2,379.5V364h5.7c1,0,1.8,0.1,2.5,0.3c0.7,0.2,1.2,0.5,1.6,0.9c0.4,0.4,0.6,0.9,0.8,1.4s0.2,1.1,0.2,1.6
		c0,0.9-0.2,1.6-0.5,2.1c-0.4,0.6-0.8,1-1.4,1.3c-0.6,0.3-1.2,0.5-1.9,0.7c-0.7,0.1-1.4,0.2-2.1,0.2h-3.3v6.8H161.2z M166,371.4
		c0.7,0,1.3,0,1.9-0.1c0.5-0.1,1-0.2,1.4-0.5c0.4-0.2,0.7-0.6,0.9-1c0.2-0.4,0.3-0.9,0.3-1.6c0-1-0.3-1.7-1-2.2
		c-0.6-0.5-1.7-0.8-3-0.8h-3.8v6.2H166z"/>
	<path class="st1" d="M173,379.5l6.1-15.5h1.7l5.9,15.5h-1.5l-1.8-4.9h-7.1l-1.8,4.9H173z M176.9,373.4h6.1l-3-8.1L176.9,373.4z"/>
	<path class="st1" d="M199.8,368.5c-0.3-1.3-0.9-2.3-1.7-2.8c-0.8-0.6-1.9-0.8-3.2-0.8c-0.9,0-1.7,0.2-2.4,0.6
		c-0.7,0.4-1.2,0.9-1.7,1.5c-0.4,0.6-0.8,1.4-1,2.2c-0.2,0.8-0.3,1.7-0.3,2.6c0,0.9,0.1,1.7,0.3,2.5c0.2,0.8,0.5,1.6,0.9,2.2
		c0.4,0.7,1,1.2,1.7,1.6c0.7,0.4,1.6,0.6,2.6,0.6c0.7,0,1.3-0.1,1.8-0.3c0.5-0.2,1-0.5,1.4-0.9c0.4-0.4,0.8-0.8,1-1.3
		s0.5-1.1,0.6-1.7h1.5c-0.2,0.7-0.4,1.5-0.8,2.1c-0.3,0.7-0.8,1.3-1.3,1.8c-0.5,0.5-1.2,0.9-2,1.2c-0.8,0.3-1.7,0.4-2.7,0.4
		c-1.2,0-2.2-0.2-3.1-0.7c-0.8-0.4-1.5-1-2.1-1.8c-0.5-0.7-0.9-1.6-1.2-2.6c-0.2-1-0.4-2-0.4-3.1c0-1.5,0.2-2.7,0.5-3.8
		c0.4-1,0.9-1.9,1.5-2.5c0.6-0.7,1.4-1.1,2.3-1.4c0.9-0.3,1.8-0.4,2.9-0.4c0.8,0,1.5,0.1,2.2,0.3c0.7,0.2,1.3,0.5,1.8,0.9
		c0.5,0.4,1,0.9,1.3,1.5c0.3,0.6,0.6,1.3,0.7,2.1H199.8z"/>
	<path class="st1" d="M203,364h11.3v1.2h-4.9v14.3h-1.5v-14.3H203V364z"/>
	<path class="st1" d="M222.3,379.5V364h1.5v6.7h9.2V364h1.5v15.5h-1.5v-7.6h-9.2v7.6H222.3z"/>
	<path class="st1" d="M237.3,371.8c0-1.1,0.2-2.2,0.5-3.2c0.3-1,0.8-1.9,1.4-2.6c0.6-0.7,1.4-1.3,2.2-1.8s1.9-0.6,3.1-0.6
		c1.2,0,2.3,0.2,3.2,0.6c0.9,0.4,1.7,1,2.3,1.7c0.6,0.7,1.1,1.6,1.4,2.6c0.3,1,0.5,2.1,0.5,3.2c0,1.1-0.2,2.2-0.5,3.2
		c-0.3,1-0.8,1.8-1.4,2.6c-0.6,0.7-1.4,1.3-2.3,1.8c-0.9,0.4-2,0.6-3.1,0.6c-1.2,0-2.2-0.2-3.1-0.6c-0.9-0.4-1.7-1-2.3-1.8
		c-0.6-0.7-1.1-1.6-1.4-2.6C237.4,373.9,237.3,372.9,237.3,371.8z M244.5,378.7c1,0,1.9-0.2,2.6-0.6c0.7-0.4,1.3-0.9,1.8-1.5
		c0.5-0.6,0.8-1.4,1-2.2c0.2-0.8,0.3-1.7,0.3-2.6c0-1.1-0.1-2-0.4-2.9c-0.3-0.9-0.7-1.6-1.2-2.2c-0.5-0.6-1.1-1.1-1.8-1.4
		c-0.7-0.3-1.5-0.5-2.4-0.5c-1,0-1.8,0.2-2.6,0.6c-0.7,0.4-1.3,0.9-1.8,1.5c-0.5,0.6-0.8,1.4-1,2.2c-0.2,0.8-0.3,1.7-0.3,2.6
		c0,0.9,0.1,1.8,0.3,2.6c0.2,0.8,0.6,1.6,1,2.2c0.5,0.6,1.1,1.1,1.8,1.5C242.6,378.5,243.5,378.7,244.5,378.7z"/>
	<path class="st1" d="M255.2,374.9c0.1,0.7,0.2,1.3,0.5,1.8c0.3,0.5,0.6,0.9,1,1.2c0.4,0.3,0.9,0.5,1.4,0.7s1.1,0.2,1.7,0.2
		c0.7,0,1.3-0.1,1.8-0.3c0.5-0.2,0.9-0.4,1.2-0.7s0.5-0.6,0.7-1c0.1-0.4,0.2-0.8,0.2-1.2c0-0.6-0.1-1.1-0.4-1.5
		c-0.3-0.4-0.6-0.7-1.1-0.9c-0.4-0.2-0.9-0.4-1.5-0.6c-0.6-0.1-1.1-0.3-1.7-0.4c-0.6-0.1-1.2-0.3-1.7-0.5c-0.6-0.2-1.1-0.4-1.5-0.8
		c-0.4-0.3-0.8-0.7-1.1-1.2c-0.3-0.5-0.4-1.1-0.4-1.9c0-0.5,0.1-1,0.3-1.5c0.2-0.5,0.6-0.9,1-1.3c0.4-0.4,1-0.7,1.6-0.9
		c0.7-0.2,1.4-0.3,2.3-0.3c0.9,0,1.6,0.1,2.3,0.4c0.7,0.2,1.2,0.6,1.6,1c0.4,0.4,0.8,0.9,1,1.5c0.2,0.6,0.3,1.2,0.3,1.8h-1.4
		c0-0.6-0.1-1.1-0.3-1.5s-0.5-0.8-0.9-1.1c-0.4-0.3-0.8-0.5-1.2-0.6c-0.5-0.1-0.9-0.2-1.4-0.2c-0.7,0-1.4,0.1-1.9,0.3
		c-0.5,0.2-0.9,0.5-1.2,0.8c-0.3,0.3-0.5,0.7-0.6,1.1c-0.1,0.4-0.1,0.8-0.1,1.2c0.1,0.5,0.3,0.9,0.6,1.2c0.3,0.3,0.7,0.5,1.2,0.7
		c0.5,0.2,1,0.4,1.5,0.5c0.6,0.1,1.1,0.2,1.7,0.4c0.6,0.1,1.1,0.3,1.7,0.5c0.5,0.2,1,0.4,1.4,0.8c0.4,0.3,0.8,0.7,1,1.2
		c0.3,0.5,0.4,1.1,0.4,1.9c0,1.4-0.5,2.5-1.5,3.3c-1,0.8-2.4,1.2-4.2,1.2c-0.8,0-1.6-0.1-2.2-0.3c-0.7-0.2-1.3-0.5-1.8-0.9
		c-0.5-0.4-0.9-0.9-1.2-1.6c-0.3-0.6-0.4-1.4-0.4-2.2H255.2z"/>
	<path class="st1" d="M267.8,379.5V364h10.3v1.2h-8.9v5.6h8v1.2h-8v6.2h9.1v1.2H267.8z"/>
	<path class="st1" d="M285.5,379.5l6.1-15.5h1.7l5.9,15.5h-1.5l-1.8-4.9h-7.1l-1.8,4.9H285.5z M289.3,373.4h6.1l-3-8.1L289.3,373.4z
		"/>
	<path class="st1" d="M301.9,374.9c0.1,0.7,0.2,1.3,0.5,1.8c0.3,0.5,0.6,0.9,1,1.2c0.4,0.3,0.9,0.5,1.4,0.7s1.1,0.2,1.7,0.2
		c0.7,0,1.3-0.1,1.8-0.3c0.5-0.2,0.9-0.4,1.2-0.7s0.5-0.6,0.7-1c0.1-0.4,0.2-0.8,0.2-1.2c0-0.6-0.1-1.1-0.4-1.5
		c-0.3-0.4-0.6-0.7-1.1-0.9c-0.4-0.2-0.9-0.4-1.5-0.6c-0.6-0.1-1.1-0.3-1.7-0.4c-0.6-0.1-1.2-0.3-1.7-0.5c-0.6-0.2-1.1-0.4-1.5-0.8
		c-0.4-0.3-0.8-0.7-1.1-1.2c-0.3-0.5-0.4-1.1-0.4-1.9c0-0.5,0.1-1,0.3-1.5c0.2-0.5,0.6-0.9,1-1.3c0.4-0.4,1-0.7,1.6-0.9
		c0.7-0.2,1.4-0.3,2.3-0.3c0.9,0,1.6,0.1,2.3,0.4c0.7,0.2,1.2,0.6,1.6,1c0.4,0.4,0.8,0.9,1,1.5c0.2,0.6,0.3,1.2,0.3,1.8h-1.4
		c0-0.6-0.1-1.1-0.3-1.5s-0.5-0.8-0.9-1.1c-0.4-0.3-0.8-0.5-1.2-0.6c-0.5-0.1-0.9-0.2-1.4-0.2c-0.7,0-1.4,0.1-1.9,0.3
		c-0.5,0.2-0.9,0.5-1.2,0.8c-0.3,0.3-0.5,0.7-0.6,1.1c-0.1,0.4-0.1,0.8-0.1,1.2c0.1,0.5,0.3,0.9,0.6,1.2c0.3,0.3,0.7,0.5,1.2,0.7
		c0.5,0.2,1,0.4,1.5,0.5c0.6,0.1,1.1,0.2,1.7,0.4c0.6,0.1,1.1,0.3,1.7,0.5c0.5,0.2,1,0.4,1.4,0.8c0.4,0.3,0.8,0.7,1,1.2
		c0.3,0.5,0.4,1.1,0.4,1.9c0,1.4-0.5,2.5-1.5,3.3c-1,0.8-2.4,1.2-4.2,1.2c-0.8,0-1.6-0.1-2.2-0.3c-0.7-0.2-1.3-0.5-1.8-0.9
		c-0.5-0.4-0.9-0.9-1.2-1.6c-0.3-0.6-0.4-1.4-0.4-2.2H301.9z"/>
	<path class="st1" d="M315.1,374.9c0.1,0.7,0.2,1.3,0.5,1.8c0.3,0.5,0.6,0.9,1,1.2c0.4,0.3,0.9,0.5,1.4,0.7s1.1,0.2,1.7,0.2
		c0.7,0,1.3-0.1,1.8-0.3c0.5-0.2,0.9-0.4,1.2-0.7s0.5-0.6,0.7-1c0.1-0.4,0.2-0.8,0.2-1.2c0-0.6-0.1-1.1-0.4-1.5
		c-0.3-0.4-0.6-0.7-1.1-0.9c-0.4-0.2-0.9-0.4-1.5-0.6c-0.6-0.1-1.1-0.3-1.7-0.4c-0.6-0.1-1.2-0.3-1.7-0.5c-0.6-0.2-1.1-0.4-1.5-0.8
		c-0.4-0.3-0.8-0.7-1.1-1.2c-0.3-0.5-0.4-1.1-0.4-1.9c0-0.5,0.1-1,0.3-1.5c0.2-0.5,0.6-0.9,1-1.3c0.4-0.4,1-0.7,1.6-0.9
		c0.7-0.2,1.4-0.3,2.3-0.3c0.9,0,1.6,0.1,2.3,0.4c0.7,0.2,1.2,0.6,1.6,1c0.4,0.4,0.8,0.9,1,1.5c0.2,0.6,0.3,1.2,0.3,1.8h-1.4
		c0-0.6-0.1-1.1-0.3-1.5s-0.5-0.8-0.9-1.1c-0.4-0.3-0.8-0.5-1.2-0.6c-0.5-0.1-0.9-0.2-1.4-0.2c-0.7,0-1.4,0.1-1.9,0.3
		c-0.5,0.2-0.9,0.5-1.2,0.8c-0.3,0.3-0.5,0.7-0.6,1.1c-0.1,0.4-0.1,0.8-0.1,1.2c0.1,0.5,0.3,0.9,0.6,1.2c0.3,0.3,0.7,0.5,1.2,0.7
		c0.5,0.2,1,0.4,1.5,0.5c0.6,0.1,1.1,0.2,1.7,0.4c0.6,0.1,1.1,0.3,1.7,0.5c0.5,0.2,1,0.4,1.4,0.8c0.4,0.3,0.8,0.7,1,1.2
		c0.3,0.5,0.4,1.1,0.4,1.9c0,1.4-0.5,2.5-1.5,3.3c-1,0.8-2.4,1.2-4.2,1.2c-0.8,0-1.6-0.1-2.2-0.3c-0.7-0.2-1.3-0.5-1.8-0.9
		c-0.5-0.4-0.9-0.9-1.2-1.6c-0.3-0.6-0.4-1.4-0.4-2.2H315.1z"/>
	<path class="st1" d="M327.6,379.5V364h10.3v1.2h-8.9v5.6h8v1.2h-8v6.2h9.1v1.2H327.6z"/>
	<path class="st1" d="M340.7,379.5V364h2.2l5.1,13.7h0l5-13.7h2.2v15.5h-1.5v-13.8h0l-5.1,13.8h-1.4l-5.1-13.8h0v13.8H340.7z"/>
	<path class="st1" d="M358.7,379.5V364h5.6c0.9,0,1.7,0.1,2.3,0.3c0.6,0.2,1.2,0.5,1.6,0.8c0.4,0.3,0.7,0.8,0.9,1.2
		c0.2,0.5,0.3,1,0.3,1.6c0,0.5-0.1,1-0.2,1.4c-0.1,0.4-0.3,0.7-0.6,1c-0.2,0.3-0.5,0.5-0.8,0.6c-0.3,0.1-0.6,0.3-0.9,0.3v0
		c1.1,0.2,1.9,0.6,2.4,1.3c0.5,0.7,0.8,1.6,0.8,2.6c0,0.8-0.1,1.5-0.4,2c-0.3,0.6-0.6,1-1,1.4c-0.4,0.3-1,0.6-1.6,0.7
		c-0.6,0.2-1.3,0.2-2,0.2H358.7z M360.2,370.8h3.7c0.8,0,1.4-0.1,1.9-0.2c0.5-0.1,0.9-0.3,1.3-0.6c0.3-0.2,0.5-0.6,0.7-0.9
		c0.1-0.4,0.2-0.8,0.2-1.3c0-0.5-0.1-0.9-0.2-1.2c-0.2-0.3-0.4-0.6-0.8-0.8c-0.3-0.2-0.8-0.4-1.3-0.5c-0.6-0.1-1.2-0.1-2-0.1h-3.4
		V370.8z M360.2,378.3h3.7c0.8,0,1.5,0,2.1-0.1c0.6-0.1,1.1-0.2,1.5-0.4c0.4-0.2,0.7-0.5,0.9-0.9c0.2-0.4,0.3-1,0.3-1.6
		c0-0.6-0.1-1.2-0.3-1.6c-0.2-0.4-0.5-0.7-0.9-0.9c-0.4-0.2-0.9-0.4-1.4-0.4c-0.6-0.1-1.2-0.1-1.9-0.1h-3.9V378.3z"/>
	<path class="st1" d="M373.1,379.5V364h1.5v14.3h8.3v1.2H373.1z"/>
	<path class="st1" d="M389.8,371.5l4.7-7.5h1.7l-5.6,8.7v6.8h-1.5v-6.7l-5.5-8.9h1.7L389.8,371.5z"/>
	<path class="st1" d="M404.2,379.5V364h5.3c0.4,0,0.9,0,1.3,0c0.4,0,0.8,0.1,1.2,0.2c0.4,0.1,0.8,0.2,1.2,0.4s0.8,0.4,1.1,0.6
		c0.5,0.4,0.9,0.8,1.3,1.4c0.3,0.5,0.6,1.1,0.8,1.7c0.2,0.6,0.3,1.2,0.4,1.8c0.1,0.6,0.1,1.2,0.1,1.7s0,1-0.1,1.6
		c-0.1,0.5-0.2,1.1-0.3,1.6c-0.1,0.5-0.3,1-0.6,1.5c-0.2,0.5-0.5,0.9-0.9,1.3c-0.4,0.4-0.7,0.7-1.2,1c-0.4,0.2-0.9,0.4-1.3,0.6
		c-0.5,0.1-1,0.2-1.5,0.3c-0.5,0-1,0.1-1.5,0.1H404.2z M405.7,378.3h3.5c0.7,0,1.3,0,1.9-0.1c0.6-0.1,1.2-0.3,1.8-0.6
		c0.5-0.3,0.9-0.6,1.3-1.1c0.3-0.4,0.6-0.9,0.8-1.5c0.2-0.5,0.3-1.1,0.4-1.6c0.1-0.6,0.1-1.1,0.1-1.7c0-0.6,0-1.1-0.1-1.7
		c-0.1-0.6-0.2-1.1-0.4-1.7c-0.2-0.5-0.5-1-0.8-1.4s-0.8-0.8-1.3-1.1c-0.5-0.2-1-0.4-1.6-0.5c-0.6-0.1-1.3-0.1-1.9-0.1h-3.5V378.3z"
		/>
	<path class="st1" d="M419.8,379.5V364h10.3v1.2h-8.9v5.6h8v1.2h-8v6.2h9.1v1.2H419.8z"/>
	<path class="st1" d="M431.6,364h1.5l4.7,13.8l4.7-13.8h1.5l-5.4,15.5h-1.6L431.6,364z"/>
	<path class="st1" d="M446.6,379.5V364h1.5v15.5H446.6z"/>
	<path class="st1" d="M463.1,368.5c-0.3-1.3-0.9-2.3-1.7-2.8c-0.8-0.6-1.9-0.8-3.2-0.8c-0.9,0-1.7,0.2-2.4,0.6
		c-0.7,0.4-1.2,0.9-1.7,1.5c-0.4,0.6-0.8,1.4-1,2.2c-0.2,0.8-0.3,1.7-0.3,2.6c0,0.9,0.1,1.7,0.3,2.5c0.2,0.8,0.5,1.6,0.9,2.2
		c0.4,0.7,1,1.2,1.7,1.6c0.7,0.4,1.6,0.6,2.6,0.6c0.7,0,1.3-0.1,1.8-0.3c0.5-0.2,1-0.5,1.4-0.9c0.4-0.4,0.8-0.8,1-1.3
		s0.5-1.1,0.6-1.7h1.5c-0.2,0.7-0.4,1.5-0.8,2.1c-0.3,0.7-0.8,1.3-1.3,1.8c-0.5,0.5-1.2,0.9-2,1.2c-0.8,0.3-1.7,0.4-2.7,0.4
		c-1.2,0-2.2-0.2-3.1-0.7c-0.8-0.4-1.5-1-2.1-1.8c-0.5-0.7-0.9-1.6-1.2-2.6c-0.2-1-0.4-2-0.4-3.1c0-1.5,0.2-2.7,0.5-3.8
		c0.4-1,0.9-1.9,1.5-2.5c0.6-0.7,1.4-1.1,2.3-1.4c0.9-0.3,1.8-0.4,2.9-0.4c0.8,0,1.5,0.1,2.2,0.3c0.7,0.2,1.3,0.5,1.8,0.9
		c0.5,0.4,1,0.9,1.3,1.5c0.3,0.6,0.6,1.3,0.7,2.1H463.1z"/>
	<path class="st1" d="M467.6,379.5V364h10.3v1.2h-8.9v5.6h8v1.2h-8v6.2h9.1v1.2H467.6z"/>
</g>
</svg>
