<?xml version="1.0" encoding="utf-8"?>
<!-- Generator: Adobe Illustrator 24.2.1, SVG Export Plug-In . SVG Version: 6.00 Build 0)  -->
<svg version="1.1" id="Layer_1" xmlns="http://www.w3.org/2000/svg" xmlns:xlink="http://www.w3.org/1999/xlink" x="0px" y="0px"
	 viewBox="0 0 288 288" style="enable-background:new 0 0 288 288;" xml:space="preserve">
<path d="M164.1,198.9c-0.6-12.8-4.2-45.9,2.9-58c7-12,25.4-17,36-18.2c10.7-1.2,37.6-3.3,47.8,4.5c10.3,7.8,10.5,11.2,18.6,11.3
	c8.1,0.1,2.3-11.3,2.3-11.3c-5.5-11.6-9.3-21.1-48.9-22.8c-39.6-1.8-74.9,10.4-74.9,10.4c-6.2,2.2-4.4,5.5,1.7,10
	c6.1,4.6,8.1,74,8.1,74C157.7,203.7,164.3,203.8,164.1,198.9z"/>
<path d="M174.4,137c6.6-7.3,15.1-3.9,12,0.8c-1.7,2.7-14,14.5-10.8,20.5c3.2,6-2.6,3.5-3.9,1.1C169.7,154.6,169.3,142.7,174.4,137z"
	/>
<path d="M180.8,164.8c7.3,2,16.3,2,20.9,3.2c6.7,1.7,32.7,2.5,39.5-5.7c6.8-8.2,12.1-8.3,14-8.1c1.8,0.2,7.6-0.6,7.6-0.6
	c3-1.5,6,0,3,5.7c-3,5.7-12.2,20.1-31.4,21.4c-22.6,1.6-41-0.3-49.9-6C176,169.2,171.4,162.2,180.8,164.8z"/>
<path d="M181.8,156.9c6.5-9.6,17.1-16.3,27.9-19s24.5,0.2,31.5,4.9c7,4.6,7.2,6.3,10.5,8.1c3.3,1.8,9.4,0.1,9.4,0.1
	c3.4-0.8,6.8-5.1-0.6-7.6c-7.4-2.5-10.8-14.4-27.2-15.6c-16.5-1.3-33.8-1.7-45.2,13.1C176.5,155.7,179,161.2,181.8,156.9z"/>
<path d="M183.9,158.8c4.4-6.6,14.2-13.7,14.2-13.7s1.6-1.4,1.3,2.4c-0.3,3.8,4,16.5,16.1,15.2c12.1-1.3,17.3-12.2,13.7-20.5
	c-0.5-1.7,0.2-1.4,1.5-1c2.1,0.6,10.6,4.9,13.9,8c3.3,3,2.3,4.3,1.3,5.2c-1.6,1.4-8.8,9.2-24.9,11.2c-13.9,1.8-16.6-2.5-28.6-1.6
	C181.1,164.8,181.7,161.5,183.9,158.8z"/>
<path d="M51.4,140.7c-1.2,1.9-3,21.9,14.5,22.4c16.9-2.6,17.2-16.1,16.1-19.7c-0.7-2.6,1.8-0.4,6.3,2.4c4.5,2.8,13,11.4,14.6,14.7
	s-0.3,4.5-3.6,3.4s-19.7,4.7-26.5,5.1c-6.9,0.4-23.5-2.1-33.3-9.3c-5-3.7-6.3-4.7-7.5-5.6c-1.3-0.8-4.5-2.6,0.1-5.3
	c4.3-2.6,15.7-9,17.1-9.4C50.1,138.6,51.8,139.3,51.4,140.7z"/>
<path d="M29.6,147.6c11.7-14.6,39.1-14.8,46.7-11.5c17,7.4,24.4,14.9,28.7,22.3c4.3,7.4,6.4,6.6,7,2.7c0.6-3.9-7.2-23.8-30.7-33.2
	s-45.3,0.2-52.8,6.6s-10.6,17-7.4,18.5C24.3,154.4,29.6,147.6,29.6,147.6z"/>
<path d="M21.6,155.6l4.8-2.2c1.4-0.8,1.6-0.5,2.4,0.8c0.4,1.1,9.1,10.1,21.6,14.3c12.5,4.2,30.3,4.2,40.1,0
	c4.7-2.2,14.8-1.7,16.6-1.5c1.8,0.1,5.2,0.6,1.8,3.9c-3.3,3.3-18.4,12.1-31.8,14.6c-13.4,2.5-38,1.9-47.5-6.6
	c-9.4-8.4-9.6-20.7-9.6-20.7C19.9,156.9,20.7,155.9,21.6,155.6z"/>
<path d="M18,142.8c18.5-26.8,37-23.6,50.7-23.1s38.5,8.3,45.9,16.6c7.4,8.3,8.7,40.6,8.7,55.5c0,14.9,8.3,10.2,8.5,2.9
	c0.2-7.2,0.2-61.1-2.7-65.2c-2.9-4.1-11.6-10.1-11.6-16.2c0-6-73.7-24.4-87.9-9.9s-18.5,30.2-19.3,38.4
	C9.6,149.9,11.9,151.6,18,142.8z"/>
<path d="M139.5,116.2c-0.6,4.4,3.8,8.6,6.9,10c3.1,1.5,3.1,12.8,3.1,12.8c0.8,20.2,3.8,61.6,3.8,61.6c1.3,6.3-19,20.1-18.2-1.3
	c0.8-21.3-0.8-64.2-0.8-64.2c0-8.6-4.4-11.3-4.4-11.3c-5.6-1.7-7.3-6.9-7.3-6.9C122.2,110.2,140.1,111.8,139.5,116.2z"/>
<path d="M74,146.7c-0.3,4.4-4.2,7.7-8.6,7.3c-4.4-0.3-7.7-4.2-7.3-8.6c0.1-1.3,0.5-2.5,1.2-3.6l0,0c4.9-2.2,13.4-0.7,14.4,1.8
	c0,0.1,0,0.2,0.1,0.2c0,0.1,0,0.1,0,0.2C74,144.8,74.1,145.7,74,146.7z"/>
<path d="M222.3,146.1c0.6,4.4-2.4,8.4-6.7,9.1c-4.4,0.6-8.4-2.4-9.1-6.7c-0.2-1.3-0.1-2.6,0.3-3.8l0,0c4.3-3.2,12.9-3.7,14.4-1.5
	c0,0.1,0.1,0.1,0.1,0.2c0,0,0.1,0.1,0.1,0.2C221.9,144.3,222.2,145.2,222.3,146.1z"/>
</svg>
