<?xml version="1.0" encoding="UTF-8"?>
<svg width="105px" height="106px" viewBox="0 0 105 106" version="1.1" xmlns="http://www.w3.org/2000/svg" xmlns:xlink="http://www.w3.org/1999/xlink">
    <title>Group 3</title>
    <defs>
        <polygon id="path-1" points="0.1603737 0.504807692 104.160374 0.504807692 104.160374 104.495192 0.1603737 104.495192"></polygon>
    </defs>
    <g id="Academic" stroke="none" stroke-width="1" fill="none" fill-rule="evenodd">
        <g id="Desktop" transform="translate(-518.000000, -2068.000000)">
            <g id="PII" transform="translate(0.000000, 1457.000000)">
                <g id="Group-2" transform="translate(47.000000, 611.000000)">
                    <g id="Group-3" transform="translate(471.000000, 0.571320)">
                        <mask id="mask-2" fill="white">
                            <use xlink:href="#path-1"></use>
                        </mask>
                        <g id="Clip-2"></g>
                        <path d="M52.1603737,42.9427622 C46.8777569,42.9427622 42.5807101,47.230162 42.5807101,52.5001727 C42.5807101,57.7701834 46.8777569,62.0575832 52.1603737,62.0575832 C57.4429905,62.0575832 61.7400373,57.7701834 61.7400373,52.5001727 C61.7400373,47.230162 57.4429905,42.9427622 52.1603737,42.9427622 L52.1603737,42.9427622 Z M52.1603737,65.9801814 C44.7336073,65.9801814 38.6928597,59.9334963 38.6928597,52.5001727 C38.6928597,45.0678298 44.7336073,39.020164 52.1603737,39.020164 C59.5871401,39.020164 65.6278877,45.0678298 65.6278877,52.5001727 C65.6278877,59.9334963 59.5871401,65.9801814 52.1603737,65.9801814 L52.1603737,65.9801814 Z M61.1529718,30.9798184 C71.5413083,33.029376 81.1579064,39.0515448 88.5632896,48.5334453 C95.2989905,38.0257854 99.9585793,23.5111915 100.256972,4.42873193 L54.2549531,4.42873193 C55.0461307,13.7292122 57.2340186,23.1601189 61.1529718,30.9798184 L61.1529718,30.9798184 Z M63.8764111,35.7114525 C68.6409718,42.9211879 75.2843363,48.0705787 84.1622429,49.3091391 C78.4325232,42.5809025 71.4353644,37.9630238 63.8764111,35.7114525 L63.8764111,35.7114525 Z M20.1585045,55.6912063 C25.8882242,62.4204235 32.8844111,67.0373216 40.4433644,69.2879123 C35.6788036,62.0791575 29.0354391,56.9297667 20.1585045,55.6912063 L20.1585045,55.6912063 Z M45.8280373,70.4764595 C51.6034391,71.3158955 57.5917008,70.8187062 63.5128971,68.8848653 C71.001869,66.4391254 78.7066167,61.3828963 85.1157382,53.3503959 C75.3514017,52.3432688 65.3236634,46.7398373 58.4917382,34.5238859 C52.7202242,33.6873918 46.7300186,34.1816392 40.8088223,36.1154801 C33.3198503,38.56122 25.6141307,43.6174491 19.2050092,51.6499495 C28.9683737,52.6570766 38.996112,58.2614888 45.8280373,70.4764595 L45.8280373,70.4764595 Z M4.04822417,4.42873193 L4.04822417,73.2036459 C10.8675139,49.9014514 25.5927475,36.9617806 39.6113644,32.3831279 C45.2166728,30.5522552 50.8725232,29.8873748 56.391327,30.3237639 C53.3383924,23.4856946 51.1816073,14.9393338 50.3505793,4.42873193 L4.04822417,4.42873193 Z M4.06377557,100.572594 L50.0667662,100.572594 C49.2746167,91.2721138 47.0857569,81.8402265 43.1668036,74.020527 C32.7774952,71.9719501 23.163813,65.9488006 15.7574578,56.4678808 C9.02175688,66.97456 4.36216809,81.4911152 4.06377557,100.572594 L4.06377557,100.572594 Z M53.9701681,100.572594 L100.272523,100.572594 L100.272523,31.7966995 C93.4532335,55.098894 78.7289718,68.0375841 64.710355,72.6172175 C59.1031027,74.4480902 53.4365606,75.109048 47.9294204,74.6756009 C50.981383,81.5146508 53.1391401,90.0619923 53.9701681,100.572594 L53.9701681,100.572594 Z M52.1584298,104.495192 L52.1428784,104.495192 L2.10429893,104.495192 C1.03028024,104.495192 0.1603737,103.617511 0.1603737,102.533893 L0.1603737,2.46743283 C0.1603737,1.38479573 1.03028024,0.505398252 2.10429893,0.505398252 L52.100112,0.505398252 C52.1409344,0.505398252 52.1827288,0.505398252 52.2245232,0.505398252 L102.155215,0.505398252 C103.243813,0.478675551 104.160374,1.36224079 104.160374,2.46645218 L104.160374,2.46743283 L104.160374,102.533893 C104.160374,103.617511 103.289495,104.495192 102.216448,104.495192 L52.1739812,104.495192 L52.1584298,104.495192 Z" id="Fill-1" fill="#231F20" mask="url(#mask-2)"></path>
                    </g>
                </g>
            </g>
        </g>
    </g>
</svg>