<?xml version="1.0" encoding="UTF-8"?>
<svg width="101px" height="103px" viewBox="0 0 101 103" version="1.1" xmlns="http://www.w3.org/2000/svg" xmlns:xlink="http://www.w3.org/1999/xlink">
    <title>Group 9</title>
    <g id="Academic" stroke="none" stroke-width="1" fill="none" fill-rule="evenodd">
        <g id="Desktop" transform="translate(-290.000000, -2071.000000)" fill="#231F20">
            <g id="PII" transform="translate(0.000000, 1457.000000)">
                <g id="Group-2" transform="translate(47.000000, 611.000000)">
                    <g id="Group-9" transform="translate(243.000000, 3.571320)">
                        <polygon id="Fill-1" points="0 -0.0003 0 101.7057 8.041 101.7057 23.461 101.7057 11.746 83.3737 13.86 37.7447 23.022 16.2447 79.872 21.5007 97.961 -0.0003"></polygon>
                        <polygon id="Fill-2" points="19.9681 36.5507 26.3111 21.5007 68.8311 23.4117 75.8791 35.3557 59.4341 29.0257 32.1841 29.0257"></polygon>
                        <polygon id="Fill-3" points="36.4125 32.9672 38.0565 39.4172 46.2795 42.7622 53.7965 39.8952 59.0155 32.8182 53.7965 31.9412 48.9805 36.5502 43.6945 36.5502 41.2775 31.9412"></polygon>
                        <polygon id="Fill-4" points="33.1237 34.1617 34.5337 41.8067 42.9907 45.3897 55.6757 42.7617 61.3127 33.6937 72.3557 37.8647 65.5757 44.0227 54.4347 48.4957 42.2857 48.4957 27.9557 44.9117 19.9677 41.3287"></polygon>
                        <polygon id="Fill-5" points="19.9681 44.673 36.4121 51.123 52.8571 52.079 66.4821 46.106 74.9391 41.329 79.6381 54.707 77.0531 63.784 47.9231 71.429 28.8951 63.546 21.1431 52.795"></polygon>
                        <polygon id="Fill-6" points="96.408 10.1904 84.15 22.6564 76.776 27.3424 80.647 42.7614 84.15 56.9604 80.279 66.1464 72.355 70.4574 100.003 101.0124 98.897 5.4104"></polygon>
                        <polygon id="Fill-7" points="16.9109 50.853 22.3909 60.141 36.4129 71.429 52.7289 73.277 67.0169 70.093 75.8789 78.054 82.7999 85.092 53.3159 90.395 28.4589 98.157 16.9109 84.822"></polygon>
                        <polygon id="Fill-8" points="54.4905 93.9768 31.0035 99.1518 32.9605 101.7058 94.5795 100.7798 82.8005 88.8028"></polygon>
                    </g>
                </g>
            </g>
        </g>
    </g>
</svg>