<?xml version="1.0" encoding="utf-8"?>
<!-- Generator: Adobe Illustrator 24.2.1, SVG Export Plug-In . SVG Version: 6.00 Build 0)  -->
<svg version="1.1" id="Layer_1" xmlns="http://www.w3.org/2000/svg" xmlns:xlink="http://www.w3.org/1999/xlink" x="0px" y="0px"
	 viewBox="0 0 288 288" style="enable-background:new 0 0 288 288;" xml:space="preserve">
<g>
	<polygon points="78.3,175.3 82.8,168.3 86.9,164.3 90.9,160.2 90.9,165.8 93.7,171.1 97,175.3 88.9,177 80.6,177 	"/>
</g>
<g>
	<polygon points="97.2,156.1 103.6,148.4 111.4,143.8 116.2,141.6 113.1,150.3 114.2,156.1 120.7,167.3 132.7,172.9 144.4,172.9 
		154.2,167.3 159.9,161.6 162.6,151.7 161.5,140.8 158.1,133.5 168.2,134.9 185.5,145.5 190.1,150.1 192.7,156.1 188.6,163.7 
		176.3,172.1 161.5,176.8 148.3,179.9 127.1,179.9 116.2,177.4 105.3,175.7 99.1,169.5 97.2,162.8 	"/>
</g>
<g>
	<polygon points="150.4,151.4 144.6,158.1 134.6,158.9 126.8,153.9 125.1,148.4 127.9,139.4 145,135.5 146.2,136.7 149.9,141.9 	"/>
</g>
<g>
	<polygon points="78.5,165.6 86.6,153.6 101.1,139.1 114.5,132.7 127.1,128.2 147.2,123.2 162.3,125.1 175.7,128.2 186.6,133.2 
		195.8,147.5 213.4,153.6 218.4,151.4 219.8,146.4 214.3,140.8 205.6,134.3 200.6,126.5 192.7,120.7 183.8,113.9 169,110 
		151.4,108.4 131.8,112.3 112.8,118.7 84.9,138.5 80.4,151.4 73.2,168.7 	"/>
</g>
<g>
	<polygon points="73.2,183.3 77.1,182.2 82.1,185.3 89.8,186.1 99.1,183.3 107,185.3 115.4,187.8 134.1,190 155.9,188.1 179.3,183 
		190.5,172.7 195.5,163.5 208.4,166.8 215.7,168.5 221,167.7 223.8,170.5 222.6,176.8 211.5,199.3 200.3,204.6 179.1,211.8 
		159.2,212.9 149.9,211.8 129.6,211 107.2,205.1 94.1,201.5 84.1,195.6 78.8,189.5 73.2,187.2 	"/>
</g>
<g>
	<polygon points="263,127.2 249.6,140.6 231.9,141.3 215.4,130.8 193.8,108.4 173.8,101.3 152.7,101 114,109.5 95.4,120 74.8,140.6 
		67.5,166.2 59.7,179.9 46.4,177 40.1,160.2 44.1,127.5 55.4,102 80.6,84 119.5,75.1 180.2,76.3 213.5,84.5 239.5,95.6 261.1,106 	
		"/>
</g>
</svg>
