<?xml version="1.0" encoding="utf-8"?>
<!-- Generator: Adobe Illustrator 24.3.0, SVG Export Plug-In . SVG Version: 6.00 Build 0)  -->
<svg version="1.1" id="Layer_1" xmlns="http://www.w3.org/2000/svg" xmlns:xlink="http://www.w3.org/1999/xlink" x="0px" y="0px"
	 viewBox="0 0 288 288" style="enable-background:new 0 0 288 288;" xml:space="preserve">
<style type="text/css">
	.st0{fill:#F7DD33;}
	.st1{fill:#F7BF2D;}
	.st2{fill:#F8982D;}
	.st3{fill:#F58120;}
	.st4{fill:#D85227;}
	.st5{fill:#BB5127;}
	.st6{fill:#BC3D26;}
	.st7{fill:#005236;}
	.st8{clip-path:url(#SVGID_2_);}
	.st9{fill:#6CC5A6;}
</style>
<g id="XMLID_12_">
	<g>
		<path class="st0" d="M2.8,144h282.5c0,3.1-0.1,6.2-0.3,9.2H3.1C2.9,150.2,2.8,147.1,2.8,144z"/>
		<path class="st1" d="M284.9,134.8c0.2,3,0.3,6.1,0.3,9.2v0H2.8v0c0-3.1,0.1-6.2,0.3-9.2H284.9z"/>
		<path class="st2" d="M284.9,134.8H3.1c0.3-5.1,0.9-10.2,1.8-15.1h278.2C284,124.6,284.6,129.7,284.9,134.8z"/>
		<path class="st1" d="M3.1,153.2h281.9c-0.3,5.3-1,10.5-1.9,15.7H5C4,163.8,3.4,158.5,3.1,153.2z"/>
		<path class="st3" d="M283.1,119.7H4.9c1.5-8.7,3.8-17.1,6.8-25.2h264.6C279.3,102.5,281.6,111,283.1,119.7z"/>
		<path class="st2" d="M5,168.9H283c-0.7,4.2-1.7,8.3-2.8,12.3H7.7C6.6,177.2,5.7,173.1,5,168.9z"/>
		<path class="st3" d="M7.7,181.2h272.5c-2,7.5-4.7,14.8-7.9,21.8h0H15.7h0C12.4,196,9.8,188.8,7.7,181.2z"/>
		<path class="st4" d="M276.3,94.5H11.7C17.2,79.7,25.2,66.1,35,54.2h0H253h0C262.8,66.1,270.8,79.7,276.3,94.5z"/>
		<path class="st4" d="M15.7,203h256.7c-5.7,12.5-13.2,23.9-22.2,34.1H37.8C28.9,226.9,21.4,215.5,15.7,203z"/>
		<path class="st5" d="M253,54.2L253,54.2H35h0c15.7-19,36.2-33.8,59.7-42.6v0h98.6v0C216.8,20.4,237.3,35.2,253,54.2z"/>
		<path class="st5" d="M37.8,237.1h212.3c-10.6,12.1-23.3,22.4-37.5,30.3H75.3C61.1,259.5,48.5,249.2,37.8,237.1z"/>
		<path class="st6" d="M75.3,267.4h137.4c-20.3,11.3-43.7,17.8-68.7,17.8C119.1,285.2,95.7,278.8,75.3,267.4z"/>
		<path class="st6" d="M193.3,11.6L193.3,11.6l-98.6,0v0c15.3-5.7,31.9-8.8,49.3-8.8C161.3,2.8,177.9,5.9,193.3,11.6z"/>
	</g>
	<g>
	</g>
</g>
<path class="st7" d="M169.1,42.9v2.2l-0.7,0.7l0.7,0.7l-1.4,0.7v0.9h1.4v1.7l-1.1,1v1.8l-1.4,0.3l-0.9,0.9l2,0.4l-1.5,1.5l2,0.9V58
	l-2.5-1.4l-1.5,0.8l2,2l-0.7,0.7h2.2v1l-2.3,0.9h-2.1l-0.3,1.2l1.9,1.2V66l-1.1,1.1l-2.4-0.8l-1.5-0.5v1.1l2,2h1.8v1.3h-1.7
	l-2.1-0.8v1.2l1,1l0.9,0.9h-1.3h-1.5l-1.5-0.6v1l1.2,1.2l2,1.1V76h-1l-1.2-0.8l-1.7-0.5l-1-1l-1.2,0.8c0,0,0.3,1.1,0.8,1.5
	s1.3,1.2,1.5,1.4s0.2,1.3,0.2,1.3l0.3,0.9c0,0,0.6-0.3,0.9-0.3c0.3,0.1,1.2,0.3,1.2,0.3s0.1,0.7-0.1,0.7s-0.9,0-1.2,0
	s-1.9-0.9-2.4-1c-0.5-0.1-2.4-0.6-2.4-0.6h-0.8c0,0-0.5,0.5-0.4,0.8s0.7,1.3,0.7,1.3s0.4-0.3,0.8,0c0.4,0.3,2.3,1.3,2.3,1.3l1.6,0.8
	l-0.9,1.6l2.5,0.8c0,0-0.5,0.7-1,0.8c-0.5,0.1,0.8,0-1.5,0s-0.8,0.5-3,0s-2.7-0.5-2.7-0.5s-1.2-1.4-0.8-0.3c0.4,1.1,1,1.7,1,1.7
	s-0.4,1.8,1.5,2.3s1.6,0.4,2.4,0.6s1.7,0.5,1.7,0.5l-0.7,0.5h-1.8c0,0-1.5,0.1-2,0c-0.6-0.1,0.4,1.5-0.1,1.6c-0.5,0.1-1.2-0.1-1.6,0
	c-0.3,0.1-0.3,0.1-0.3,0.1s-0.6,0.1-0.2,0.6s-0.7-0.5,0.4,0.5c1.1,1.1,2.1,1.2,2.1,1.4c0,0.2,0.8,0.3,0,0.5
	c-0.8,0.2,0.5,0.2-0.8,0.2c-1.2,0-2.6,0-2.6,0s-1.2,1.4-1.8,1s-0.8-0.8-0.8-0.8s-0.6,1.2-0.6,1.4c0,0.2-0.4,0.9,0.8,1
	c1.2,0.1,2.6,0.7,2.6,0.7l0.9,0.3l-0.7,0.8c1.7,0.7,1.6,0.6,2.1,0.7s2.3,0.3,2.3,0.3c-0.9,0.4-1.7,0.7-2,0.9s-0.3,0.5-0.9,0.5
	s-1.5-0.3-1.9-0.3c-0.3-0.1-0.1-0.1-0.8-0.1c-0.7-0.1-0.8-0.1-1.4-0.1c-0.6,0-1.2,0.1-1.2,0.1l-1.1,0.8l2.1,0.7c0,0,1.2,0.1,1.7,0.3
	c0.4,0.2,0.4,1,0.4,1c-4.6,0-5.7,0-5.7,0l-0.5,1c0,0-0.3,0.3,0.7,0.7c1,0.3,1.7,0.5,2.4,0.7c0.7,0.1,0.6,0.8,0.6,0.8l-0.5,0.7
	c0,0-1.7-0.3,0.8,0c2.4,0.3,2.6,0.1,3.1-0.4c0.6-0.5-1.8-0.5,1.3-0.4c3.1,0.1,5,0.3,4.8,0.3s-2.2,0.6-2.2,0.6l-2.4,0.5l-1.5,0.6h-1
	l-1.5,0.9c0,0-3,0.9-2.8,1c0.2,0.1-0.8,0.7,2.4,1c3.2,0.3,3.9,0.5,4.2,0.4c0.2-0.1,0.8,0.2,2.1,0c1.2-0.2,1.8,0.1,1.8,0.1
	s0,1.2,0,0.6c0-0.6-1.2,0.5-1.2,0.5h-1l-2.4-0.3c0,0-1.2-0.2-1.5-0.1s-0.9,0.5-0.9,0.5v0.8c0,0,1.1,1.6,1.5,1.6
	c0.4,0.1,1.1,0.1,1.9,0.3c0.8,0.1,0.8,0.1,0.8,0.1l-1.2,0.8h-1.4c0,0-1.5,0-2,0s-1.2,0-1.2,0h-1.7c-0.8,0.7-1.7,1.2-1.2,1.3
	c0.4,0.1-0.7-0.2,0.8,0.5c1.5,0.7,3,1.2,3.7,1.2c0.6,0,1.8,0,1.8,0s0-0.4,1.9,0c1.9,0.4,1.5,0.5,3,0.9c1.5,0.4,1.4,1.1,2.6,0.3
	c1.2-0.8,0-0.8,1.2-0.8c1.2,0,0.3,0.9,2.6,0.2c2.4-0.7,3.5-1.1,3.5-1.1s0.8-0.3,1.5-0.5c0.6-0.3,0.8-0.3,1-0.3
	c0.3-0.1,0.8-0.9,0.8,0c0.1,0.9-0.1,2.2-0.2,2.5c-0.1,0.3-0.1,3.2-0.1,3.2v1.5l-0.4,4.4l-0.9,3.2l8.5,0.9l-1.4-5.5l-1.2-5l-0.9-2.9
	l0.1-3h0.7c0,0,0.1,0.8,0.8,0.8s2,0.6,2.5,0.6c0.5,0,1.6,0.5,1.9,0.8s1,0.3,1,0.3s1-1.2,1.2-1c0.2,0.2,1,1.4,1.8,1.6
	c0.8,0.2,0.6,1.2,2.7,0.9c2.1-0.3,2.7,0.1,2.8-0.5c0.1-0.6,0.1-0.6,1-1.5c0.9-0.9,0.5-0.1,1.7-0.9c1.2-0.8,1.2-0.3,1.2-0.8
	c0-0.5,0.5-1.4-0.6-1.2c-1.1,0.1-1.2,0.2-1.8,0.3c-0.6,0.1-0.7,0.1-2,0.1s-1.8-0.5-1.8-0.5l-0.3-1.1c-0.6-0.6-0.3-1.1,0-1.2
	c0.3-0.1,0.5-0.1,1.6-0.1s-0.1,0,1.1,0c1.2,0,2.5,0.1,2.6-0.1c0.1-0.2-0.8-0.2,0.1-0.2c1,0-0.2,0.4,1,0c1.2-0.4,1.5,0.6,1.9-0.4
	c0.3-1,0.8-1.5,0.8-1.5l-1.2-0.5l-3.3-0.4l-0.8-0.1c0,0,0,0.2-1-0.5c-1-0.8-1-0.8-1-0.8s-1-1-0.8-1.2s0.7-0.2,0.7-0.2s0.8,0,1,0
	c0.2,0,2.6-0.1,2.6-0.1c0-1.1,0.1-1.2-0.6-1.3c-0.6-0.1-1.8-1.3-1.8-1.3c0.9,0,3.7,0,3.7,0l2.7-1v-1.1c0,0-2.6,0-2.8,0
	c-0.2,0-1.8-0.1-2.3-0.3s-2.8-1.3-2.8-1.3l-1.3-0.3l-2.4-1.2c0,0,0.4-0.8,0.7-0.7c0.3,0.1,1.7,0.3,2.4,0.2s1.2-0.1,1.2-0.1l2.8-1.5
	c0,0-0.4,0.3,0.9,0.1c1.3-0.3,1.9-0.3,1.9-0.3s0.4-0.7,0.2-1c-0.2-0.3-1.1-0.8-1.4-0.8c-0.3-0.1-2.1-0.1-2.1-0.1s-0.6,0-2.2-0.3
	c-1.7-0.3-4.8-0.6-4.8-0.6s-1.4-0.4-0.7-0.7c0.7-0.3,1.8-0.1,2.4,0s0,0.6,0.6,0.1c0.5-0.5,0.3-0.7,0.1-0.9c-0.2-0.2-0.6,0.2-0.2-0.2
	c0.4-0.4,0.9-0.9,0.9-0.9l0.7-0.4c0,0,0.3-0.5-0.6-0.6c-0.9,0-2.2-0.4-2.2-0.4l-1.5-0.4c0,0,0.2-0.8,0.4-0.9
	c0.2-0.1,1.4,0.2,2.1-0.1c0.7-0.3,1.1-0.6,1.1-0.6s1-1,0.6-1.2c-0.5-0.2,0.3,1-1.9,0c-2.2-1-3.7-0.8-3.3-1.5
	c0.3-0.7,0.6-1.3,0.6-1.3l0.2-1.2l0.1-1l-2.4-0.1l-2-1.7c0,0,0.2-0.3,0.8-0.4c0.6-0.1,2.8-0.6,2.8-0.6s0.8-0.7,1-1.7s1.2-1-0.3-1
	c-1.5,0-2.1,0.1-2.1,0.1s-3.3,1-2.5-0.3s2.1-1.5,2.9-1.6s1.2,0,1.7-0.8c0.4-0.8,0.4-0.8,0.4-0.8s-1.2,0-2.1-0.1
	c-1-0.1-0.8-0.1-1.9-0.1s-1.8-0.1-1.8-0.1s0.5-1,0.9-1c0.4-0.1,1.7-0.5,1.7-0.5l1.2-1.4c-1.3,0,0.6,0.6-1.8,0
	c-2.4-0.6-2.4-0.6-2.4-0.6s-0.6-0.3-0.5-0.5c0.1-0.3,1.8-1,1.8-1s0.4,0.3,0.8-0.3c0.3-0.6-0.1-0.1,0.3-0.6c0.5-0.5,0.8-0.8,0.6-0.8
	c-0.2-0.1-2.1-0.1-2.1-0.1s-0.3-0.1-0.8-0.2c-0.5-0.1-1.2-0.5-1.2-1c0.1-0.5,1-0.6,1.2-0.7s1.9-0.8,1.9-0.8s0.6-0.9,0.3-1
	c-0.3-0.1-0.5,0-1.5,0s-2,0-2,0c0-0.6-0.4-0.4-0.1-1c0.3-0.6-1,0.3,0.3-0.6s1.3-0.9,1.3-0.9l0.1-0.8l-2.3-0.1c0,0,0.4-0.2,0-0.8
	c-0.4-0.5-0.4,0.4-0.4-0.5s0-1,0-1l2.3-1.4c0,0-1.5-0.5-1.8-0.5s-1.2,0.1-1.4-0.4c-0.1-0.5-0.9-0.8-0.1-1c0.7-0.2,1.2-0.2,1.2-0.5
	s0-0.3-0.4-0.8c-0.4-0.4-0.4-0.3-0.4-0.8s0-1.2,0-1.2l-0.8-0.2c0,0-0.3-0.7-0.3-1.6s-0.1-0.8,0.4-1.3c0.5-0.5,0.5-0.7,0.5-1.1
	s-1-1-1-1s-0.5-0.5-0.3-1.2c0.1-0.6,0.1,0.1,0.1-0.6c0-0.7-0.6-2.2-0.6-2.2L169.1,42.9z"/>
<g>
	<defs>
		<circle id="SVGID_1_" cx="144" cy="144" r="141.2"/>
	</defs>
	<clipPath id="SVGID_2_">
		<use xlink:href="#SVGID_1_"  style="overflow:visible;"/>
	</clipPath>
	<g class="st8">
		<polygon class="st9" points="140.7,289.5 136,283.5 131.1,279.6 124.5,275.3 121.8,270 116.3,269 107.6,266.8 101.8,262.6 
			97.8,255 93.4,253.4 92.5,250.2 90.5,247.7 84.3,244.5 80.4,245.6 76.2,241.3 70.1,238.1 68.4,234.9 65.2,234.9 60.9,228.5 
			58.4,227.5 56.7,225.3 52.7,225.3 49.7,225.3 48.2,223.4 46,223.4 41.8,220.8 38.9,215 34.5,208.2 32.9,208.2 31.8,210.5 
			29,206.8 25.2,199.3 23.1,192.5 17.2,183.7 15.2,178.9 8.8,172.9 3.7,175.5 0.8,179.1 -7.7,194.4 -12,198.3 -13.3,201.4 
			-14.9,201.4 -18.1,205.5 -22.7,209.3 -24.3,214 -27.8,216.3 -31,220.3 -35.6,227 -37.1,231.2 -39.7,231.2 -41.4,233.3 
			-44.2,233.3 -46,235.6 -48,237.5 -50.4,237.5 -51.7,235.9 -53.8,237.2 -56.8,244.5 -61.8,250.7 -62.8,254.9 -68.7,262.3 
			-71.4,266.8 -76.6,273.4 -84.5,284 -90.9,290.2 -94.3,292.6 -98.8,296.5 -99.6,299.9 -101.3,302.2 140.7,303.4 		"/>
	</g>
	<g class="st8">
		<polygon class="st9" points="441.2,306.7 435.7,298.7 430,293.5 422.2,287.7 419.1,280.7 412.7,279.3 402.5,276.5 395.8,270.8 
			391.2,260.7 386,258.5 384.9,254.2 382.7,250.9 375.4,246.6 370.9,248.1 366,242.3 358.8,238.1 356.9,233.8 353.2,233.8 
			348.1,225.3 345.2,223.9 343.3,221 338.5,221 335.1,221 333.3,218.5 330.8,218.5 325.8,215 322.4,207.2 317.3,198.2 315.4,198.2 
			314.2,201.2 310.8,196.3 306.4,186.3 304.1,177.2 297.2,165.5 294.8,159 287.3,151 281.4,154.4 278,159.3 268.1,179.8 263,185 
			261.5,189.1 259.7,189.1 255.9,194.6 250.6,199.7 248.7,205.9 244.7,209 240.9,214.4 235.5,223.2 233.8,228.8 230.8,228.8 
			228.8,231.7 225.5,231.7 223.5,234.7 221.1,237.3 218.2,237.3 216.7,235.1 214.4,236.9 210.8,246.6 205,254.9 203.8,260.5 
			196.9,270.4 193.8,276.5 187.7,285.2 178.5,299.4 171.1,307.6 167,310.9 161.8,316.1 160.9,320.6 158.8,323.6 441.2,325.3 		"/>
	</g>
	<g class="st8">
		<polygon class="st7" points="22,279.7 27.3,272 32.8,267.1 40.2,261.5 43.2,254.8 49.4,253.4 59.1,250.7 65.5,245.4 70,235.6 
			75,233.5 76,229.4 78.2,226.2 85.1,222.1 89.4,223.6 94.2,218 101,213.9 102.9,209.9 106.5,209.9 111.3,201.7 114,200.3 
			115.9,197.6 120.5,197.6 123.8,197.6 125.5,195.1 127.9,195.1 132.6,191.8 135.9,184.4 140.8,175.7 142.7,175.7 143.8,178.6 
			147,173.9 151.2,164.3 153.5,155.5 160.1,144.3 162.4,138.1 169.6,130.4 175.3,133.8 178.5,138.4 188,158 192.9,163 194.3,167 
			196,167 199.7,172.2 204.8,177.1 206.6,183.1 210.5,186 214.1,191.2 219.2,199.7 220.9,205.1 223.8,205.1 225.7,207.8 
			228.8,207.8 230.8,210.7 233.1,213.2 235.8,213.2 237.2,211.1 239.5,212.8 243,222.1 248.5,230.1 249.7,235.4 256.3,244.9 
			259.3,250.8 265.1,259.2 273.9,272.7 281,280.6 284.9,283.7 289.9,288.7 290.7,293.1 292.8,296 22,297.5 		"/>
	</g>
</g>
</svg>
