<?xml version="1.0" encoding="utf-8"?>
<!-- Generator: Adobe Illustrator 24.3.0, SVG Export Plug-In . SVG Version: 6.00 Build 0)  -->
<svg version="1.1" id="Layer_1" xmlns="http://www.w3.org/2000/svg" xmlns:xlink="http://www.w3.org/1999/xlink" x="0px" y="0px"
	 viewBox="0 0 288 288" style="enable-background:new 0 0 288 288;" xml:space="preserve">
<style type="text/css">
	.st0{fill:url(#SVGID_1_);}
	.st1{fill:#FFFFFF;}
	.st2{fill:#005236;}
</style>
<linearGradient id="SVGID_1_" gradientUnits="userSpaceOnUse" x1="144" y1="286.3964" x2="144" y2="-9.094947e-13">
	<stop  offset="0" style="stop-color:#BB5127"/>
	<stop  offset="0.3225" style="stop-color:#F8982D"/>
	<stop  offset="0.5902" style="stop-color:#F7DD33"/>
	<stop  offset="0.7978" style="stop-color:#F8982D"/>
	<stop  offset="1" style="stop-color:#BB5127"/>
</linearGradient>
<circle class="st0" cx="144" cy="143.2" r="143.2"/>
<g>
	<g id="XMLID_10_">
		<path class="st1" d="M272.6,208.6c-0.8,1.5-1.5,3-2.3,4.4c-1.6,2.9-3.2,5.7-5,8.5c-1.8,2.9-3.8,5.7-5.8,8.5
			c-2.2,2.9-4.4,5.7-6.8,8.5c-2.1,2.4-4.3,4.8-6.5,7l-3.1-7l-1.9-4.2l-1.9-4.3l-3.4-7.5l0.5-0.9l4.3-8.5l0.5-1l3.8-7.4l1.5-3
			l-1.2-5.5l-1.8-8.5l-1.8-8.5l-0.4-2v0l2,2.1l16.9,16.9l8.5,8.5L272.6,208.6z"/>
		<path class="st2" d="M242.9,238.5l3.1,7c-0.1,0.1-0.1,0.2-0.2,0.2l-7.2-7.2l-8.5-8.5l-8.5-8.5l-8.5-8.5l-4-4l21.4-21.4l5.2-5.2
			l3.2-3.3l2-2.1l0,0l0.4,2l1.8,8.5l1.8,8.5l1.2,5.5l-1.5,3l-3.8,7.4l-0.5,1l-4.3,8.5l-0.5,0.9l3.4,7.5l1.9,4.3L242.9,238.5z"/>
		<path class="st1" d="M245.9,245.7c-0.4,0.4-0.8,0.9-1.3,1.3c-3,3-6.2,5.8-9.4,8.5c-3.6,3-7.5,5.8-11.4,8.5
			c-4.6,3.1-9.4,5.9-14.4,8.5c-6.5,3.3-13.3,6.2-20.3,8.5c-10.6,3.5-21.7,5.8-33.2,6.7l-3-6.7l-3.8-8.5l-3.8-8.5l-0.3-0.7l-3.5-7.8
			l-3.8-8.5l-3.7-8.3l0.1-0.2l4.3-8.5l4.3-8.5l2.3-4.5l2-4l4.3-8.5l4.3-8.5l0.3-0.7l-1.3-7.8l-1.4-8.5l-1.5-8.5l-1.4-8.5l-1.5-8.5
			l-1.1-6.2l6.2,6.2l8.5,8.5l8.5,8.5l8.5,8.5l8.5,8.5l8.5,8.5l8.5,8.5l4.4,4.4l4,4l8.5,8.5l8.5,8.5l8.5,8.5L245.9,245.7z"/>
		<path class="st2" d="M134,238.5l-0.1,0.2l3.7,8.3l3.8,8.5l3.5,7.8l0.3,0.7l3.8,8.5l3.8,8.5l3,6.7c-3.8,0.3-7.7,0.5-11.6,0.5
			c-12.4,0-24.4-1.6-35.9-4.5c-0.4-0.1-0.7-0.2-1.1-0.3c-0.1,0-0.3-0.1-0.4-0.1c-2.5-0.7-5-1.4-7.4-2.3c-7-2.3-13.7-5.1-20.1-8.5
			c-5-2.6-9.7-5.4-14.3-8.5c-3.9-2.6-7.7-5.5-11.4-8.5c-3.2-2.7-6.4-5.5-9.4-8.5c-0.3-0.3-0.5-0.5-0.8-0.8l7.7-7.7l8.5-8.5l8.5-8.5
			l7.3-7.3l1.1-1.1l8.5-8.5l8.5-8.5l16.9-16.9l8.5-8.5l23.2-23.2v-13.9h-21.5l3.3-5.3l5.3-8.5l5.3-8.5l2-3.2h-8.3l3.3-5.3l5.3-8.5
			l2.2-3.5h-5.4l3.1-5l4.1-6.6l1.2-1.9l2.5-4l2.5,4l1.2,1.9l4.1,6.6l3.1,5h-5.4l2.2,3.5l5.3,8.5l3.3,5.3h-8.3l2,3.2l5.3,8.5l5.3,8.5
			l3.3,5.3h-21.5v13.9l1.1,6.2l1.5,8.5l1.4,8.5l1.5,8.5l1.4,8.5h-0.4l1.7,7.8l-0.3,0.7l-4.3,8.5l-4.3,8.5l-2,4l-2.3,4.5l-4.3,8.5
			L134,238.5z"/>
		<polygon class="st1" points="75.4,214.2 68.1,221.5 59.6,230 51.1,238.5 43.6,246 40.2,238.5 38.4,234.3 36.4,230 33.1,222.5 
			33.5,221.5 37.8,213.1 38.4,212.1 42.2,204.6 43.7,201.6 42.5,196.1 40.6,187.6 38.8,179.2 38.4,177.2 38.4,177.1 40.4,179.2 
			43.7,182.5 48.9,187.6 57.3,196.1 65.8,204.6 74.3,213.1 		"/>
		<path class="st2" d="M40.2,238.5l3.4,7.5l-0.2,0.2c-2.5-2.5-4.9-5-7.1-7.7c-2.4-2.7-4.6-5.6-6.8-8.5c-2-2.8-4-5.6-5.8-8.5
			c-1.7-2.8-3.4-5.6-5-8.5c-1.5-2.8-2.9-5.6-4.2-8.5c-0.4-0.8-0.7-1.6-1.1-2.4l6-6l8.5-8.5l8.5-8.5l2-2v0l0.4,2l1.8,8.5l1.8,8.5
			l1.2,5.5l-1.5,3l-3.8,7.5l-0.5,1l-4.3,8.5l-0.5,1l3.4,7.5l1.9,4.3L40.2,238.5z"/>
	</g>
</g>
</svg>
