<?xml version="1.0" encoding="utf-8"?>
<!-- Generator: Adobe Illustrator 24.3.0, SVG Export Plug-In . SVG Version: 6.00 Build 0)  -->
<svg version="1.1" id="Layer_1" xmlns="http://www.w3.org/2000/svg" xmlns:xlink="http://www.w3.org/1999/xlink" x="0px" y="0px"
	 viewBox="0 0 288 288" style="enable-background:new 0 0 288 288;" xml:space="preserve">
<style type="text/css">
	.st0{filter:url(#Adobe_OpacityMaskFilter);}
	.st1{mask:url(#SVGID_1_);}
	.st2{fill:#005236;}
	.st3{fill:#F8982D;}
	.st4{clip-path:url(#SVGID_3_);}
	.st5{fill:#FFFFFF;}
	.st6{filter:url(#Adobe_OpacityMaskFilter_1_);}
	.st7{clip-path:url(#SVGID_3_);mask:url(#SVGID_4_);}
	.st8{filter:url(#Adobe_OpacityMaskFilter_2_);}
	.st9{mask:url(#SVGID_5_);}
</style>
<defs>
	<filter id="Adobe_OpacityMaskFilter" filterUnits="userSpaceOnUse" x="0" y="178.3" width="288" height="53.1">
		<feFlood  style="flood-color:white;flood-opacity:1" result="back"/>
		<feBlend  in="SourceGraphic" in2="back" mode="normal"/>
	</filter>
</defs>
<mask maskUnits="userSpaceOnUse" x="0" y="178.3" width="288" height="53.1" id="SVGID_1_">
	<g class="st0">
		
			<image style="overflow:visible;" width="4680" height="6000" xlink:href="75F2084BA12E6A82.png"  transform="matrix(0.1505 0 0 0.1505 -349.9507 -82.3859)">
		</image>
	</g>
</mask>
<g class="st1">
	<rect y="178.3" class="st2" width="288" height="53.1"/>
</g>
<g>
	<g>
		<circle class="st3" cx="144" cy="158.2" r="105.8"/>
	</g>
	<g>
		<defs>
			<circle id="SVGID_2_" cx="144" cy="158.2" r="105.8"/>
		</defs>
		<clipPath id="SVGID_3_">
			<use xlink:href="#SVGID_2_"  style="overflow:visible;"/>
		</clipPath>
		<g class="st4">
			<polygon class="st5" points="0.3,234.7 6.1,226.4 12.1,221 20.2,214.9 23.5,207.6 30.2,206 40.8,203.1 47.9,197.2 52.7,186.6 
				58.2,184.3 59.3,179.8 61.7,176.3 69.3,171.8 74,173.4 79.2,167.4 86.7,162.9 88.7,158.4 92.6,158.4 97.9,149.5 100.9,148 
				103,145 107.9,145 111.5,145 113.4,142.3 116,142.3 121.2,138.7 124.8,130.6 130.1,121.1 132.2,121.1 133.4,124.2 136.9,119.1 
				141.5,108.6 144,99.1 151.2,86.8 153.7,80 161.5,71.6 167.8,75.3 171.3,80.4 181.7,101.8 187,107.2 188.6,111.5 190.5,111.5 
				194.5,117.3 200,122.6 202,129.2 206.3,132.4 210.2,138.1 215.8,147.3 217.7,153.2 220.8,153.2 222.8,156.2 226.3,156.2 
				228.5,159.3 231,162.1 233.9,162.1 235.5,159.8 238,161.6 241.7,171.8 247.8,180.5 249.1,186.3 256.3,196.8 259.6,203.1 
				265.9,212.3 275.5,227.1 283.3,235.7 287.6,239.1 293,244.6 294,249.3 296.2,252.5 0.3,254.2 			"/>
		</g>
		<g class="st4">
			<polygon class="st5" points="-24,311.6 -17.6,302.2 -10.9,296.2 -1.9,289.3 1.7,281.1 9.2,279.4 20.9,276.1 28.7,269.5 
				34.1,257.5 40.1,255 41.4,249.9 44,246 52.4,241 57.6,242.8 63.3,236 71.6,230.9 73.9,225.9 78.2,225.9 84.1,215.9 87.4,214.3 
				89.7,210.9 95.2,210.9 99.2,210.9 101.2,207.9 104.2,207.9 109.9,203.8 113.9,194.7 119.8,184 122,184 123.4,187.5 127.3,181.8 
				132.4,170 135.2,159.3 143.1,145.6 145.9,137.9 154.6,128.5 161.5,132.6 165.4,138.3 176.9,162.4 182.8,168.5 184.5,173.3 
				186.6,173.3 191,179.8 197.2,185.8 199.4,193.1 204.1,196.7 208.4,203.1 214.6,213.5 216.7,220.1 220.2,220.1 222.4,223.4 
				226.2,223.4 228.7,227 231.4,230 234.7,230 236.5,227.5 239.2,229.5 243.4,241 250,250.8 251.5,257.3 259.5,269 263.1,276.1 
				270.1,286.4 280.8,303.1 289.4,312.7 294.1,316.6 300.2,322.7 301.2,328 303.6,331.6 -24,333.5 			"/>
		</g>
		<defs>
			<filter id="Adobe_OpacityMaskFilter_1_" filterUnits="userSpaceOnUse" x="23.9" y="139.6" width="230.6" height="182.8">
				<feFlood  style="flood-color:white;flood-opacity:1" result="back"/>
				<feBlend  in="SourceGraphic" in2="back" mode="normal"/>
			</filter>
		</defs>
		<mask maskUnits="userSpaceOnUse" x="23.9" y="139.6" width="230.6" height="182.8" id="SVGID_4_">
			<g class="st6">
				<g class="st4">
					
						<image style="overflow:visible;" width="4680" height="6000" xlink:href="75F2084BA12E6A85.png"  transform="matrix(0.2023 0 0 0.1902 -90.0244 -279.5642)">
					</image>
				</g>
			</g>
		</mask>
		<g class="st7">
			<g>
				<path class="st2" d="M158.7,139.6v3.3l-0.9,1.1l0.9,1.1l-1.8,1v1.3h1.8v2.6l-1.3,1.6v2.7l-1.8,0.4l-1.1,1.3l2.6,0.7l-1.9,2.2
					l2.5,1.3v2.2l-3.2-2.1l-1.9,1.2l2.5,2.9l-0.9,1h2.7v1.5l-2.9,1.3h-2.7l-0.4,1.9l2.4,1.8v2.6l-1.4,1.6l-3-1.2l-1.9-0.8v1.6
					l2.5,2.9h2.2v2h-2.1l-2.6-1.1v1.9l1.3,1.5l1.1,1.3h-1.6h-1.9l-1.9-0.9v1.4l1.5,1.8l2.5,1.6v1.2h-1.3l-1.6-1.1l-2.2-0.8l-1.2-1.4
					l-1.6,1.1c0,0,0.4,1.6,1,2.3c0.6,0.6,1.7,1.9,1.9,2.1s0.2,1.9,0.2,1.9l0.3,1.3c0,0,0.8-0.5,1.1-0.4c0.3,0.1,1.6,0.4,1.6,0.4
					s0.2,1-0.2,1s-1.1,0-1.5,0c-0.3,0-2.4-1.3-3-1.5s-3-0.9-3-0.9h-1c0,0-0.6,0.8-0.5,1.1c0.1,0.3,0.9,2,0.9,2s0.5-0.5,1,0
					s2.9,2,2.9,2l2,1.2l-1.1,2.5l3.1,1.2c0,0-0.6,1.1-1.2,1.2s1,0-1.9,0s-1,0.8-3.7,0s-3.4-0.8-3.4-0.8s-1.6-2.2-1-0.5
					c0.5,1.7,1.2,2.5,1.2,2.5s-0.5,2.7,1.9,3.5c2.4,0.8,2,0.6,3,0.9c1,0.3,2.2,0.8,2.2,0.8l-0.9,0.7h-2.3c0,0-1.8,0.2-2.5,0
					c-0.7-0.2,0.5,2.3-0.1,2.4c-0.6,0.1-1.6-0.1-2,0s-0.4,0.1-0.4,0.1s-0.7,0.1-0.3,0.9c0.5,0.8-0.9-0.8,0.5,0.8
					c1.4,1.6,2.7,1.9,2.7,2.2c0,0.3,1,0.5,0,0.8c-1,0.3,0.6,0.3-1,0.3c-1.6,0-3.3,0-3.3,0s-1.6,2.2-2.3,1.5c-0.7-0.6-1-1.2-1-1.2
					s-0.7,1.8-0.7,2.1c0,0.3-0.5,1.3,1,1.5c1.6,0.2,3.3,1,3.3,1l1.1,0.4l-0.9,1.1c2.2,1,2,0.9,2.7,1s2.9,0.5,2.9,0.5
					c-1.1,0.6-2.2,1-2.5,1.3c-0.3,0.3-0.4,0.8-1.1,0.8c-0.7,0-1.9-0.4-2.4-0.5c-0.4-0.1-0.2-0.1-1-0.2c-0.9-0.1-1-0.1-1.7-0.1
					c-0.8,0-1.5,0.1-1.5,0.1L128,230l2.6,1c0,0,1.6,0.2,2.1,0.5c0.5,0.3,0.5,1.4,0.5,1.4c-5.7,0-7.1,0-7.1,0l-0.6,1.4
					c0,0-0.3,0.5,0.9,1s2.1,0.8,3,1c0.9,0.2,0.8,1.2,0.8,1.2l-0.6,1c0,0-2.1-0.4,1,0c3,0.4,3.2,0.2,3.9-0.6c0.7-0.8-2.3-0.7,1.7-0.6
					c3.9,0.1,6.3,0.5,6,0.5s-2.8,0.9-2.8,0.9l-3,0.8l-1.9,0.9h-1.2l-1.8,1.3c0,0-3.7,1.3-3.5,1.5c0.3,0.2-1,1,3,1.5
					c4,0.5,5,0.7,5.2,0.6c0.3-0.1,1,0.3,2.6,0c1.6-0.2,2.3,0.1,2.3,0.1s0,1.9,0,0.9c0-0.9-1.5,0.7-1.5,0.7h-1.3l-3-0.5
					c0,0-1.6-0.3-1.8-0.2c-0.3,0.1-1.1,0.7-1.1,0.7v1.1c0,0,1.4,2.4,1.9,2.5s1.4,0.2,2.4,0.4c1,0.2,1,0.2,1,0.2l-1.6,1.1H134
					c0,0-1.9,0-2.5,0s-1.5,0-1.5,0h-2.2c-1,1-2.1,1.8-1.6,2s-0.9-0.3,1,0.7c1.9,1,3.8,1.9,4.6,1.9s2.3,0,2.3,0s0-0.6,2.4,0
					c2.4,0.6,1.8,0.7,3.7,1.3c1.9,0.6,1.7,1.6,3.3,0.4c1.6-1.2,0-1.2,1.6-1.2c1.6,0,0.3,1.3,3.3,0.3c3-1,4.4-1.6,4.4-1.6
					s1-0.4,1.8-0.8c0.8-0.4,1-0.4,1.3-0.5c0.3-0.1,1-1.3,1,0c0.1,1.3-0.2,3.3-0.3,3.8c-0.1,0.5-0.1,4.8-0.1,4.8v2.3l-0.5,6.6
					l-1.1,4.8l10.7,1.3l-1.7-8.3l-1.6-7.5l-1.1-4.4l0.1-4.5h0.9c0,0,0.2,1.1,1,1.2s2.6,0.9,3.2,0.9s2,0.7,2.4,1.1
					c0.3,0.4,1.3,0.4,1.3,0.4s1.3-1.9,1.6-1.5c0.3,0.3,1.2,2.1,2.3,2.4s0.8,1.8,3.4,1.3c2.6-0.4,3.4,0.1,3.6-0.8
					c0.2-0.9,0.1-0.9,1.3-2.2c1.1-1.3,0.7-0.2,2.1-1.4c1.5-1.2,1.5-0.5,1.5-1.2c0-0.7,0.6-2.1-0.8-1.9c-1.4,0.2-1.5,0.3-2.3,0.4
					c-0.8,0.1-0.9,0.1-2.5,0.1s-2.3-0.8-2.3-0.8l-0.4-1.6c-0.8-0.9-0.4-1.6,0-1.9c0.4-0.2,0.6-0.2,2-0.2c1.4,0-0.2,0,1.4,0
					c1.6,0,3.1,0.1,3.3-0.2c0.2-0.3-1-0.3,0.2-0.3c1.2,0-0.3,0.6,1.2,0c1.5-0.6,1.9,0.9,2.4-0.6s1-2.2,1-2.2l-1.5-0.8l-4.2-0.6
					l-1-0.1c0,0,0,0.3-1.2-0.8s-1.2-1.1-1.2-1.1s-1.3-1.4-1-1.8c0.3-0.3,0.9-0.3,0.9-0.3s1,0,1.3,0c0.3,0,3.2-0.1,3.2-0.1
					c0-1.6,0.1-1.8-0.7-2c-0.8-0.2-2.3-2-2.3-2c1.1,0,4.6,0,4.6,0l3.4-1.4v-1.6c0,0-3.2,0-3.5,0c-0.3,0-2.3-0.1-2.9-0.5
					s-3.5-2-3.5-2l-1.7-0.4l-3-1.9c0,0,0.5-1.1,0.9-1c0.3,0.1,2.2,0.4,3,0.3c0.8-0.1,1.5-0.1,1.5-0.1l3.5-2.3c0,0-0.5,0.5,1.1,0.1
					c1.7-0.4,2.4-0.4,2.4-0.4s0.5-1,0.3-1.4c-0.3-0.4-1.4-1.1-1.7-1.2s-2.6-0.1-2.6-0.1s-0.7,0-2.8-0.4c-2.1-0.4-6-0.9-6-0.9
					s-1.7-0.6-0.9-1c0.9-0.4,2.3-0.1,3,0c0.7,0.1,0,0.9,0.7,0.1c0.7-0.8,0.4-1.1,0.2-1.3s-0.7,0.4-0.2-0.3c0.5-0.6,1.1-1.3,1.1-1.3
					l0.9-0.6c0,0,0.3-0.8-0.7-0.9c-1.1-0.1-2.8-0.7-2.8-0.7l-1.8-0.6c0,0,0.3-1.2,0.5-1.3c0.3-0.1,1.7,0.3,2.6-0.2
					c0.9-0.5,1.4-0.9,1.4-0.9s1.3-1.5,0.7-1.8s0.4,1.5-2.4,0s-4.6-1.2-4.2-2.2c0.4-1,0.7-2,0.7-2l0.3-1.8l0.2-1.5l-3-0.1l-2.5-2.6
					c0,0,0.3-0.5,1-0.6c0.8-0.1,3.5-0.9,3.5-0.9s1-1,1.3-2.6c0.3-1.5,1.5-1.5-0.4-1.5c-1.9,0-2.7,0.1-2.7,0.1s-4.2,1.4-3.1-0.4
					c1-1.9,2.6-2.3,3.7-2.4c1-0.1,1.6,0,2.1-1.1c0.5-1.1,0.5-1.1,0.5-1.1s-1.5,0-2.7-0.1s-1-0.1-2.4-0.1s-2.3-0.1-2.3-0.1
					s0.6-1.4,1.1-1.5s2.1-0.7,2.1-0.7l1.5-2.1c-1.7,0,0.7,0.9-2.3,0c-3-0.9-3-0.9-3-0.9s-0.7-0.4-0.6-0.8s2.3-1.4,2.3-1.4
					s0.5,0.5,1-0.4c0.4-0.9-0.2-0.2,0.4-0.9c0.6-0.7,1-1.1,0.8-1.2c-0.3-0.1-2.7-0.1-2.7-0.1s-0.3-0.1-1-0.3
					c-0.6-0.2-1.6-0.7-1.5-1.4s1.2-0.9,1.6-1c0.3-0.1,2.4-1.2,2.4-1.2s0.7-1.3,0.3-1.4c-0.3-0.1-0.6,0-1.9,0s-2.5,0-2.5,0
					c0-0.9-0.5-0.6-0.1-1.5c0.4-0.9-1.2,0.4,0.4-0.9s1.7-1.3,1.7-1.3l0.2-1.1l-2.9-0.2c0,0,0.5-0.3,0-1.1c-0.5-0.8-0.5,0.6-0.5-0.8
					s0-1.4,0-1.4l2.9-2.2c0,0-1.8-0.7-2.3-0.7c-0.4,0-1.6,0.2-1.7-0.6c-0.2-0.8-1.1-1.2-0.2-1.5c0.9-0.4,1.5-0.3,1.6-0.7
					c0.1-0.4,0-0.5-0.5-1.1c-0.5-0.6-0.5-0.4-0.5-1.1c0-0.7,0-1.9,0-1.9l-1-0.3c0,0-0.3-1-0.3-2.4s-0.2-1.1,0.5-1.9
					c0.7-0.8,0.7-1,0.7-1.6c0-0.6-1.3-1.5-1.3-1.5s-0.6-0.8-0.4-1.8c0.2-0.9,0.2,0.1,0.2-0.9c0-1-0.7-3.3-0.7-3.3L158.7,139.6z"/>
			</g>
			<g>
				<path class="st2" d="M193.7,159.7v2.2l-1,0.7l1,0.7l-1.9,0.7v0.9h1.9v1.7l-1.4,1.1v1.8l-1.9,0.3l-1.2,0.9l2.7,0.5l-2,1.5
					l2.7,0.9v1.5l-3.4-1.4l-2,0.8l2.7,2l-0.9,0.7h2.9v1l-3.1,0.9H186l-0.5,1.3l2.5,1.2v1.7l-1.5,1.1l-3.3-0.8l-2-0.6v1.1l2.7,2h2.4
					v1.4H184l-2.8-0.8v1.3l1.4,1l1.2,0.9h-1.7h-2l-2-0.6v1l1.6,1.2l2.7,1.1v0.8h-1.4l-1.7-0.8l-2.3-0.6l-1.3-1l-1.7,0.8
					c0,0,0.5,1.1,1.1,1.5s1.8,1.3,2,1.4c0.2,0.2,0.2,1.3,0.2,1.3l0.4,0.9c0,0,0.8-0.3,1.2-0.3c0.4,0.1,1.7,0.3,1.7,0.3
					s0.2,0.7-0.2,0.7s-1.2,0-1.6,0s-2.5-0.9-3.2-1s-3.2-0.6-3.2-0.6h-1c0,0-0.7,0.6-0.6,0.8c0.1,0.2,0.9,1.3,0.9,1.3s0.6-0.3,1.1,0
					c0.6,0.3,3.1,1.3,3.1,1.3l2.1,0.8l-1.2,1.7l3.3,0.8c0,0-0.7,0.7-1.3,0.8c-0.7,0.1,1,0-2,0c-3.1,0-1,0.5-4,0
					c-3-0.5-3.6-0.5-3.6-0.5s-1.7-1.5-1.1-0.3c0.6,1.2,1.3,1.7,1.3,1.7s-0.6,1.8,2,2.4c2.6,0.6,2.1,0.4,3.3,0.6
					c1.1,0.2,2.3,0.6,2.3,0.6l-0.9,0.5h-2.4c0,0-2,0.1-2.7,0c-0.7-0.1,0.6,1.5-0.1,1.6c-0.7,0.1-1.7-0.1-2.1,0
					c-0.5,0.1-0.5,0.1-0.5,0.1s-0.8,0.1-0.3,0.6c0.5,0.6-1-0.5,0.5,0.6c1.4,1.1,2.9,1.3,2.9,1.5c0,0.2,1,0.3,0,0.6
					c-1,0.2,0.7,0.2-1,0.2c-1.7,0-3.5,0-3.5,0s-1.7,1.5-2.4,1c-0.7-0.4-1-0.8-1-0.8s-0.7,1.2-0.7,1.4c0,0.2-0.6,0.9,1.1,1
					c1.7,0.1,3.5,0.7,3.5,0.7l1.2,0.3l-0.9,0.8c2.3,0.7,2.1,0.6,2.9,0.7c0.7,0.1,3.1,0.3,3.1,0.3c-1.2,0.4-2.3,0.7-2.7,0.9
					c-0.4,0.2-0.5,0.6-1.2,0.6c-0.7,0-2-0.3-2.5-0.3c-0.5-0.1-0.2-0.1-1.1-0.1c-0.9-0.1-1-0.1-1.9-0.1c-0.8,0-1.6,0.1-1.6,0.1
					l-1.5,0.8l2.8,0.7c0,0,1.7,0.1,2.2,0.3c0.6,0.2,0.6,1,0.6,1c-6.1,0-7.6,0-7.6,0l-0.7,1c0,0-0.4,0.3,0.9,0.7
					c1.3,0.3,2.2,0.6,3.2,0.7s0.8,0.8,0.8,0.8l-0.7,0.7c0,0-2.2-0.3,1,0s3.4,0.1,4.2-0.4c0.7-0.6-2.4-0.5,1.8-0.4
					c4.2,0.1,6.8,0.3,6.4,0.3s-3,0.6-3,0.6l-3.3,0.6l-2,0.6h-1.3l-2,0.9c0,0-4,0.9-3.7,1s-1.1,0.7,3.2,1c4.3,0.3,5.3,0.5,5.6,0.4
					c0.3-0.1,1.1,0.2,2.8,0c1.7-0.2,2.4,0.1,2.4,0.1s0,1.3,0,0.6s-1.6,0.5-1.6,0.5h-1.4l-3.3-0.3c0,0-1.7-0.2-2-0.1
					c-0.3,0.1-1.2,0.5-1.2,0.5v0.8c0,0,1.5,1.6,2,1.7c0.6,0.1,1.5,0.1,2.5,0.3c1,0.1,1,0.1,1,0.1l-1.7,0.8h-1.9c0,0-2,0-2.7,0
					c-0.7,0-1.6,0-1.6,0h-2.3c-1,0.7-2.2,1.2-1.7,1.3s-0.9-0.2,1.1,0.5c2,0.7,4.1,1.3,4.9,1.3s2.4,0,2.4,0s0-0.4,2.6,0s2,0.5,4,0.9
					c2,0.4,1.9,1.1,3.5,0.3c1.7-0.8,0-0.8,1.7-0.8s0.4,0.9,3.5,0.2s4.7-1.1,4.7-1.1s1.1-0.3,2-0.6c0.8-0.3,1-0.3,1.4-0.3
					c0.4-0.1,1-0.9,1.1,0s-0.2,2.2-0.3,2.6c-0.1,0.3-0.1,3.3-0.1,3.3v1.5l-0.6,4.4l-1.2,3.2l11.4,0.9l-1.9-5.6l-1.7-5.1l-1.2-3
					l0.1-3.1h0.9c0,0,0.2,0.8,1.1,0.8c0.9,0,2.7,0.6,3.4,0.6s2.1,0.5,2.5,0.8s1.4,0.3,1.4,0.3s1.4-1.3,1.7-1
					c0.3,0.2,1.3,1.4,2.4,1.6c1.1,0.2,0.8,1.2,3.6,0.9c2.8-0.3,3.6,0.1,3.8-0.6c0.2-0.6,0.1-0.6,1.3-1.5c1.2-0.9,0.7-0.1,2.3-0.9
					c1.6-0.8,1.6-0.3,1.6-0.8s0.7-1.4-0.8-1.3c-1.5,0.1-1.6,0.2-2.4,0.3c-0.8,0.1-0.9,0.1-2.7,0.1s-2.5-0.5-2.5-0.5l-0.4-1.1
					c-0.8-0.6-0.5-1.1,0-1.3c0.5-0.1,0.7-0.1,2.1-0.1s-0.2,0,1.5,0c1.7,0,3.3,0.1,3.5-0.1c0.2-0.2-1.1-0.2,0.2-0.2
					c1.3,0-0.3,0.4,1.3,0c1.6-0.4,2,0.6,2.5-0.4s1.1-1.5,1.1-1.5l-1.6-0.5l-4.5-0.4l-1-0.1c0,0,0,0.2-1.3-0.6
					c-1.3-0.8-1.3-0.8-1.3-0.8s-1.4-1-1-1.2c0.4-0.2,0.9-0.2,0.9-0.2s1.1,0,1.4,0s3.4-0.1,3.4-0.1c0-1.1,0.1-1.2-0.7-1.3
					c-0.8-0.1-2.4-1.3-2.4-1.3c1.2,0,4.9,0,4.9,0l3.6-1v-1.1c0,0-3.4,0-3.7,0c-0.3,0-2.4-0.1-3.1-0.3c-0.7-0.3-3.7-1.3-3.7-1.3
					l-1.8-0.3l-3.2-1.3c0,0,0.6-0.8,0.9-0.7c0.4,0.1,2.3,0.3,3.2,0.2c0.8-0.1,1.6-0.1,1.6-0.1l3.7-1.5c0,0-0.6,0.3,1.2,0.1
					s2.6-0.3,2.6-0.3s0.6-0.7,0.3-1c-0.3-0.3-1.5-0.8-1.9-0.8c-0.4-0.1-2.8-0.1-2.8-0.1s-0.7,0-3-0.3c-2.2-0.3-6.4-0.6-6.4-0.6
					s-1.9-0.4-0.9-0.7s2.4-0.1,3.2,0c0.7,0.1,0,0.6,0.7,0.1s0.4-0.7,0.2-0.9s-0.8,0.2-0.2-0.2c0.6-0.4,1.2-0.9,1.2-0.9l0.9-0.4
					c0,0,0.4-0.6-0.8-0.6c-1.2,0-3-0.5-3-0.5l-2-0.4c0,0,0.3-0.8,0.6-0.9c0.3-0.1,1.9,0.2,2.8-0.1s1.5-0.6,1.5-0.6s1.4-1,0.7-1.2
					c-0.7-0.2,0.5,1-2.5,0s-4.9-0.8-4.5-1.5s0.7-1.3,0.7-1.3l0.3-1.2l0.2-1l-3.2-0.1l-2.7-1.7c0,0,0.3-0.3,1.1-0.4
					c0.8-0.1,3.7-0.6,3.7-0.6s1-0.7,1.4-1.7c0.4-1,1.6-1-0.5-1s-2.9,0.1-2.9,0.1s-4.5,1-3.3-0.3c1.1-1.3,2.8-1.5,3.9-1.6
					c1.1-0.1,1.7,0,2.2-0.8c0.6-0.8,0.6-0.8,0.6-0.8s-1.6,0-2.9-0.1c-1.3-0.1-1.1-0.1-2.5-0.1s-2.4-0.1-2.4-0.1s0.7-1,1.2-1
					c0.6-0.1,2.2-0.5,2.2-0.5l1.6-1.4c-1.8,0,0.7,0.6-2.4,0c-3.2-0.6-3.2-0.6-3.2-0.6s-0.7-0.3-0.7-0.6s2.4-1,2.4-1s0.6,0.3,1-0.3
					c0.5-0.6-0.2-0.1,0.5-0.6c0.7-0.5,1.1-0.8,0.8-0.8c-0.3-0.1-2.9-0.1-2.9-0.1s-0.4-0.1-1-0.2s-1.7-0.5-1.6-1
					c0.1-0.5,1.3-0.6,1.7-0.7c0.4-0.1,2.5-0.8,2.5-0.8s0.7-0.9,0.4-1c-0.4-0.1-0.7,0-2,0s-2.7,0-2.7,0c0-0.6-0.6-0.4-0.1-1
					c0.5-0.6-1.3,0.3,0.5-0.6s1.8-0.9,1.8-0.9l0.2-0.8l-3.1-0.1c0,0,0.6-0.2,0-0.8s-0.6,0.4-0.6-0.6c0-1,0-1,0-1l3.1-1.5
					c0,0-2-0.5-2.4-0.5c-0.5,0-1.7,0.1-1.9-0.4c-0.2-0.6-1.2-0.8-0.2-1c1-0.2,1.6-0.2,1.7-0.5c0.1-0.3,0-0.3-0.6-0.8
					c-0.6-0.4-0.6-0.3-0.6-0.8s0-1.3,0-1.3l-1-0.2c0,0-0.4-0.7-0.4-1.6s-0.2-0.8,0.5-1.3s0.7-0.7,0.7-1.1s-1.4-1-1.4-1
					s-0.6-0.6-0.4-1.2c0.2-0.6,0.2,0.1,0.2-0.6c0-0.7-0.7-2.2-0.7-2.2L193.7,159.7z"/>
			</g>
			<g>
				<path class="st2" d="M190.5,204v2.2l-1,0.7l1,0.7l-1.9,0.7v0.9h1.9v1.7l-1.4,1.1v1.8l-1.9,0.3L186,215l2.7,0.5l-2,1.5l2.7,0.9
					v1.5l-3.4-1.4l-2,0.8l2.7,2l-0.9,0.7h2.9v1l-3.1,0.9h-2.9l-0.5,1.3l2.5,1.2v1.7l-1.5,1.1l-3.3-0.8l-2-0.6v1.1l2.7,2h2.4v1.4
					h-2.2L178,231v1.3l1.4,1l1.2,0.9h-1.7h-2l-2-0.6v1l1.6,1.2l2.7,1.1v0.8h-1.4l-1.7-0.8l-2.3-0.6l-1.3-1l-1.7,0.8
					c0,0,0.5,1.1,1.1,1.5s1.8,1.3,2,1.4c0.2,0.2,0.2,1.3,0.2,1.3l0.4,0.9c0,0,0.8-0.3,1.2-0.3c0.4,0.1,1.7,0.3,1.7,0.3
					s0.2,0.7-0.2,0.7s-1.2,0-1.6,0s-2.5-0.9-3.2-1s-3.2-0.6-3.2-0.6h-1c0,0-0.7,0.6-0.6,0.8c0.1,0.2,0.9,1.3,0.9,1.3s0.6-0.3,1.1,0
					c0.6,0.3,3.1,1.3,3.1,1.3l2.1,0.8l-1.2,1.7l3.3,0.8c0,0-0.7,0.7-1.3,0.8c-0.7,0.1,1,0-2,0c-3.1,0-1,0.5-4,0
					c-3-0.5-3.6-0.5-3.6-0.5s-1.7-1.5-1.1-0.3c0.6,1.2,1.3,1.7,1.3,1.7s-0.6,1.8,2,2.4c2.6,0.6,2.1,0.4,3.3,0.6
					c1.1,0.2,2.3,0.6,2.3,0.6l-0.9,0.5h-2.4c0,0-2,0.1-2.7,0c-0.7-0.1,0.6,1.5-0.1,1.6c-0.7,0.1-1.7-0.1-2.1,0
					c-0.5,0.1-0.5,0.1-0.5,0.1s-0.8,0.1-0.3,0.6c0.5,0.6-1-0.5,0.5,0.6c1.4,1.1,2.9,1.3,2.9,1.5s1,0.3,0,0.6s0.7,0.2-1,0.2
					c-1.7,0-3.5,0-3.5,0s-1.7,1.5-2.4,1c-0.7-0.4-1-0.8-1-0.8s-0.7,1.2-0.7,1.4s-0.6,0.9,1.1,1c1.7,0.1,3.5,0.7,3.5,0.7l1.2,0.3
					l-0.9,0.8c2.3,0.7,2.1,0.6,2.9,0.7c0.7,0.1,3.1,0.3,3.1,0.3c-1.2,0.4-2.3,0.7-2.7,0.9c-0.4,0.2-0.5,0.6-1.2,0.6
					c-0.7,0-2-0.3-2.5-0.3c-0.5-0.1-0.2-0.1-1.1-0.1s-1-0.1-1.9-0.1c-0.8,0-1.6,0.1-1.6,0.1l-1.5,0.8l2.8,0.7c0,0,1.7,0.1,2.2,0.3
					s0.6,1,0.6,1c-6.1,0-7.6,0-7.6,0l-0.7,1c0,0-0.4,0.3,0.9,0.7c1.3,0.3,2.2,0.6,3.2,0.7c0.9,0.1,0.8,0.8,0.8,0.8l-0.7,0.7
					c0,0-2.2-0.3,1,0s3.4,0.1,4.2-0.4c0.7-0.6-2.4-0.5,1.8-0.4c4.2,0.1,6.8,0.3,6.4,0.3s-3,0.6-3,0.6l-3.3,0.6l-2,0.6h-1.3l-2,0.9
					c0,0-4,0.9-3.7,1c0.3,0.1-1.1,0.7,3.2,1c4.3,0.3,5.3,0.5,5.6,0.4c0.3-0.1,1.1,0.2,2.8,0c1.7-0.2,2.4,0.1,2.4,0.1s0,1.3,0,0.6
					s-1.6,0.5-1.6,0.5h-1.4l-3.3-0.3c0,0-1.7-0.2-2-0.1s-1.2,0.5-1.2,0.5v0.8c0,0,1.5,1.6,2,1.7c0.6,0.1,1.5,0.1,2.5,0.3
					s1,0.1,1,0.1l-1.7,0.8h-1.9c0,0-2,0-2.7,0c-0.7,0-1.6,0-1.6,0h-2.3c-1,0.7-2.2,1.2-1.7,1.3c0.6,0.1-0.9-0.2,1.1,0.5
					c2,0.7,4.1,1.3,4.9,1.3s2.4,0,2.4,0s0-0.4,2.6,0s2,0.5,4,0.9c2,0.4,1.9,1.1,3.5,0.3c1.7-0.8,0-0.8,1.7-0.8s0.4,0.9,3.5,0.2
					s4.7-1.1,4.7-1.1s1.1-0.3,2-0.6c0.8-0.3,1-0.3,1.4-0.3c0.4-0.1,1-0.9,1.1,0c0.1,0.9-0.2,2.2-0.3,2.6c-0.1,0.3-0.1,3.3-0.1,3.3
					v1.5l-0.6,4.4l-1.2,3.2l11.4,0.9l-1.9-5.6l-1.7-5.1l-1.2-3l0.1-3.1h0.9c0,0,0.2,0.8,1.1,0.8c0.9,0,2.7,0.6,3.4,0.6
					c0.7,0,2.1,0.5,2.5,0.8c0.4,0.3,1.4,0.3,1.4,0.3s1.4-1.3,1.7-1c0.3,0.2,1.3,1.4,2.4,1.6c1.1,0.2,0.8,1.2,3.6,0.9
					c2.8-0.3,3.6,0.1,3.8-0.6c0.2-0.6,0.1-0.6,1.3-1.5c1.2-0.9,0.7-0.1,2.3-0.9s1.6-0.3,1.6-0.8c0-0.5,0.7-1.4-0.8-1.3
					c-1.5,0.1-1.6,0.2-2.4,0.3s-0.9,0.1-2.7,0.1s-2.5-0.5-2.5-0.5l-0.4-1.1c-0.8-0.6-0.5-1.1,0-1.3c0.5-0.1,0.7-0.1,2.1-0.1
					s-0.2,0,1.5,0c1.7,0,3.3,0.1,3.5-0.1c0.2-0.2-1.1-0.2,0.2-0.2c1.3,0-0.3,0.4,1.3,0c1.6-0.4,2,0.6,2.5-0.4s1.1-1.5,1.1-1.5
					l-1.6-0.5l-4.5-0.4l-1-0.1c0,0,0,0.2-1.3-0.6c-1.3-0.8-1.3-0.8-1.3-0.8s-1.4-1-1-1.2c0.4-0.2,0.9-0.2,0.9-0.2s1.1,0,1.4,0
					s3.4-0.1,3.4-0.1c0-1.1,0.1-1.2-0.7-1.3c-0.8-0.1-2.4-1.3-2.4-1.3c1.2,0,4.9,0,4.9,0l3.6-1v-1.1c0,0-3.4,0-3.7,0
					c-0.3,0-2.4-0.1-3.1-0.3s-3.7-1.3-3.7-1.3l-1.8-0.3l-3.2-1.3c0,0,0.6-0.8,0.9-0.7c0.4,0.1,2.3,0.3,3.2,0.2s1.6-0.1,1.6-0.1
					l3.7-1.5c0,0-0.6,0.3,1.2,0.1s2.6-0.3,2.6-0.3s0.6-0.7,0.3-1c-0.3-0.3-1.5-0.8-1.9-0.8c-0.4-0.1-2.8-0.1-2.8-0.1s-0.7,0-3-0.3
					c-2.2-0.3-6.4-0.6-6.4-0.6s-1.9-0.4-0.9-0.7s2.4-0.1,3.2,0c0.7,0.1,0,0.6,0.7,0.1c0.7-0.5,0.4-0.7,0.2-0.9s-0.8,0.2-0.2-0.2
					c0.6-0.4,1.2-0.9,1.2-0.9l0.9-0.4c0,0,0.4-0.6-0.8-0.6c-1.2,0-3-0.5-3-0.5l-2-0.4c0,0,0.3-0.8,0.6-0.9c0.3-0.1,1.9,0.2,2.8-0.1
					c0.9-0.3,1.5-0.6,1.5-0.6s1.4-1,0.7-1.2c-0.7-0.2,0.5,1-2.5,0c-3-1-4.9-0.8-4.5-1.5s0.7-1.3,0.7-1.3l0.3-1.2l0.2-1l-3.2-0.1
					l-2.7-1.7c0,0,0.3-0.3,1.1-0.4c0.8-0.1,3.7-0.6,3.7-0.6s1-0.7,1.4-1.7c0.4-1,1.6-1-0.5-1s-2.9,0.1-2.9,0.1s-4.5,1-3.3-0.3
					c1.1-1.3,2.8-1.5,3.9-1.6c1.1-0.1,1.7,0,2.2-0.8c0.6-0.8,0.6-0.8,0.6-0.8s-1.6,0-2.9-0.1c-1.3-0.1-1.1-0.1-2.5-0.1
					s-2.4-0.1-2.4-0.1s0.7-1,1.2-1c0.6-0.1,2.2-0.5,2.2-0.5l1.6-1.4c-1.8,0,0.7,0.6-2.4,0c-3.2-0.6-3.2-0.6-3.2-0.6
					s-0.7-0.3-0.7-0.6s2.4-1,2.4-1s0.6,0.3,1-0.3c0.5-0.6-0.2-0.1,0.5-0.6c0.7-0.5,1.1-0.8,0.8-0.8c-0.3-0.1-2.9-0.1-2.9-0.1
					s-0.4-0.1-1-0.2s-1.7-0.5-1.6-1c0.1-0.5,1.3-0.6,1.7-0.7c0.4-0.1,2.5-0.8,2.5-0.8s0.7-0.9,0.4-1c-0.4-0.1-0.7,0-2,0
					s-2.7,0-2.7,0c0-0.6-0.6-0.4-0.1-1c0.5-0.6-1.3,0.3,0.5-0.6s1.8-0.9,1.8-0.9l0.2-0.8l-3.1-0.1c0,0,0.6-0.2,0-0.8
					s-0.6,0.4-0.6-0.6c0-1,0-1,0-1l3.1-1.5c0,0-2-0.5-2.4-0.5c-0.5,0-1.7,0.1-1.9-0.4c-0.2-0.6-1.2-0.8-0.2-1c1-0.2,1.6-0.2,1.7-0.5
					c0.1-0.3,0-0.3-0.6-0.8c-0.6-0.4-0.6-0.3-0.6-0.8c0-0.5,0-1.3,0-1.3l-1-0.2c0,0-0.4-0.7-0.4-1.6s-0.2-0.8,0.5-1.3
					c0.7-0.5,0.7-0.7,0.7-1.1s-1.4-1-1.4-1s-0.6-0.6-0.4-1.2c0.2-0.6,0.2,0.1,0.2-0.6s-0.7-2.2-0.7-2.2L190.5,204z"/>
			</g>
			<g>
				<path class="st2" d="M137.7,228.3v2.2l-1,0.7l1,0.7l-1.9,0.7v0.9h1.9v1.7l-1.4,1.1v1.8l-1.9,0.3l-1.2,0.9l2.7,0.5l-2,1.5
					l2.7,0.9v1.5l-3.4-1.4l-2,0.8l2.7,2l-0.9,0.7h2.9v1l-3.1,0.9h-2.9l-0.5,1.3l2.5,1.2v1.7l-1.5,1.1l-3.3-0.8l-2-0.6v1.1l2.7,2h2.4
					v1.4H128l-2.8-0.8v1.3l1.4,1l1.2,0.9H126h-2l-2-0.6v1l1.6,1.2l2.7,1.1v0.8h-1.4l-1.7-0.8l-2.3-0.6l-1.3-1l-1.7,0.8
					c0,0,0.5,1.1,1.1,1.5c0.7,0.4,1.8,1.3,2,1.4c0.2,0.2,0.2,1.3,0.2,1.3l0.4,0.9c0,0,0.8-0.3,1.2-0.3c0.4,0.1,1.7,0.3,1.7,0.3
					s0.2,0.7-0.2,0.7c-0.4,0-1.2,0-1.6,0c-0.4,0-2.5-0.9-3.2-1c-0.7-0.1-3.2-0.6-3.2-0.6h-1c0,0-0.7,0.6-0.6,0.8
					c0.1,0.2,0.9,1.3,0.9,1.3s0.6-0.3,1.1,0c0.6,0.3,3.1,1.3,3.1,1.3l2.1,0.8l-1.2,1.7l3.3,0.8c0,0-0.7,0.7-1.3,0.8
					c-0.7,0.1,1,0-2,0c-3.1,0-1,0.5-4,0c-3-0.5-3.6-0.5-3.6-0.5s-1.7-1.5-1.1-0.3c0.6,1.2,1.3,1.7,1.3,1.7s-0.6,1.8,2,2.4
					s2.1,0.4,3.3,0.6c1.1,0.2,2.3,0.6,2.3,0.6l-0.9,0.5h-2.4c0,0-2,0.1-2.7,0c-0.7-0.1,0.6,1.5-0.1,1.6c-0.7,0.1-1.7-0.1-2.1,0
					c-0.5,0.1-0.5,0.1-0.5,0.1s-0.8,0.1-0.3,0.6s-1-0.5,0.5,0.6s2.9,1.3,2.9,1.5c0,0.2,1,0.3,0,0.6c-1,0.2,0.7,0.2-1,0.2
					c-1.7,0-3.5,0-3.5,0s-1.7,1.5-2.4,1c-0.7-0.4-1-0.8-1-0.8s-0.7,1.2-0.7,1.4c0,0.2-0.6,0.9,1.1,1c1.7,0.1,3.5,0.7,3.5,0.7
					l1.2,0.3l-0.9,0.8c2.3,0.7,2.1,0.6,2.9,0.7c0.7,0.1,3.1,0.3,3.1,0.3c-1.2,0.4-2.3,0.7-2.7,0.9c-0.4,0.2-0.5,0.6-1.2,0.6
					s-2-0.3-2.5-0.3c-0.5-0.1-0.2-0.1-1.1-0.1c-0.9-0.1-1-0.1-1.9-0.1c-0.8,0-1.6,0.1-1.6,0.1l-1.5,0.8l2.8,0.7c0,0,1.7,0.1,2.2,0.3
					c0.6,0.2,0.6,1,0.6,1c-6.1,0-7.6,0-7.6,0l-0.7,1c0,0-0.4,0.3,0.9,0.7c1.3,0.3,2.2,0.6,3.2,0.7c0.9,0.1,0.8,0.8,0.8,0.8l-0.7,0.7
					c0,0-2.2-0.3,1,0s3.4,0.1,4.2-0.4c0.7-0.6-2.4-0.5,1.8-0.4c4.2,0.1,6.8,0.3,6.4,0.3c-0.4,0-3,0.6-3,0.6l-3.3,0.6l-2,0.6h-1.3
					l-2,0.9c0,0-4,0.9-3.7,1c0.3,0.1-1.1,0.7,3.2,1c4.3,0.3,5.3,0.5,5.6,0.4s1.1,0.2,2.8,0c1.7-0.2,2.4,0.1,2.4,0.1s0,1.3,0,0.6
					s-1.6,0.5-1.6,0.5h-1.4l-3.3-0.3c0,0-1.7-0.2-2-0.1c-0.3,0.1-1.2,0.5-1.2,0.5v0.8c0,0,1.5,1.6,2,1.7c0.6,0.1,1.5,0.1,2.5,0.3
					c1,0.1,1,0.1,1,0.1l-1.7,0.8h-1.9c0,0-2,0-2.7,0c-0.7,0-1.6,0-1.6,0h-2.3c-1,0.7-2.2,1.2-1.7,1.3c0.6,0.1-0.9-0.2,1.1,0.5
					s4.1,1.3,4.9,1.3c0.8,0,2.4,0,2.4,0s0-0.4,2.6,0c2.6,0.4,2,0.5,4,0.9c2,0.4,1.9,1.1,3.5,0.3s0-0.8,1.7-0.8s0.4,0.9,3.5,0.2
					c3.2-0.7,4.7-1.1,4.7-1.1s1.1-0.3,2-0.6c0.8-0.3,1-0.3,1.4-0.3c0.4-0.1,1-0.9,1.1,0c0.1,0.9-0.2,2.2-0.3,2.6s-0.1,3.3-0.1,3.3
					v1.5l-0.6,4.4l-1.2,3.2l11.4,0.9l-1.9-5.6l-1.7-5.1l-1.2-3l0.1-3.1h0.9c0,0,0.2,0.8,1.1,0.8c0.9,0,2.7,0.6,3.4,0.6
					s2.1,0.5,2.5,0.8c0.4,0.3,1.4,0.3,1.4,0.3s1.4-1.3,1.7-1s1.3,1.4,2.4,1.6c1.1,0.2,0.8,1.2,3.6,0.9s3.6,0.1,3.8-0.6
					c0.2-0.6,0.1-0.6,1.3-1.5s0.7-0.1,2.3-0.9c1.6-0.8,1.6-0.3,1.6-0.8s0.7-1.4-0.8-1.3c-1.5,0.1-1.6,0.2-2.4,0.3
					c-0.8,0.1-0.9,0.1-2.7,0.1s-2.5-0.5-2.5-0.5l-0.4-1.1c-0.8-0.6-0.5-1.1,0-1.3c0.5-0.1,0.7-0.1,2.1-0.1s-0.2,0,1.5,0
					c1.7,0,3.3,0.1,3.5-0.1c0.2-0.2-1.1-0.2,0.2-0.2c1.3,0-0.3,0.4,1.3,0c1.6-0.4,2,0.6,2.5-0.4c0.5-1,1.1-1.5,1.1-1.5l-1.6-0.5
					l-4.5-0.4l-1-0.1c0,0,0,0.2-1.3-0.6c-1.3-0.8-1.3-0.8-1.3-0.8s-1.4-1-1-1.2c0.4-0.2,0.9-0.2,0.9-0.2s1.1,0,1.4,0
					s3.4-0.1,3.4-0.1c0-1.1,0.1-1.2-0.7-1.3c-0.8-0.1-2.4-1.3-2.4-1.3c1.2,0,4.9,0,4.9,0l3.6-1V291c0,0-3.4,0-3.7,0
					s-2.4-0.1-3.1-0.3c-0.7-0.3-3.7-1.3-3.7-1.3l-1.8-0.3l-3.2-1.3c0,0,0.6-0.8,0.9-0.7c0.4,0.1,2.3,0.3,3.2,0.2s1.6-0.1,1.6-0.1
					l3.7-1.5c0,0-0.6,0.3,1.2,0.1s2.6-0.3,2.6-0.3s0.6-0.7,0.3-1s-1.5-0.8-1.9-0.8c-0.4-0.1-2.8-0.1-2.8-0.1s-0.7,0-3-0.3
					c-2.2-0.3-6.4-0.6-6.4-0.6s-1.9-0.4-0.9-0.7s2.4-0.1,3.2,0c0.7,0.1,0,0.6,0.7,0.1s0.4-0.7,0.2-0.9c-0.2-0.2-0.8,0.2-0.2-0.2
					c0.6-0.4,1.2-0.9,1.2-0.9l0.9-0.4c0,0,0.4-0.6-0.8-0.6s-3-0.5-3-0.5l-2-0.4c0,0,0.3-0.8,0.6-0.9c0.3-0.1,1.9,0.2,2.8-0.1
					c0.9-0.3,1.5-0.6,1.5-0.6s1.4-1,0.7-1.2c-0.7-0.2,0.5,1-2.5,0s-4.9-0.8-4.5-1.5c0.5-0.7,0.7-1.3,0.7-1.3l0.3-1.2l0.2-1l-3.2-0.1
					l-2.7-1.7c0,0,0.3-0.3,1.1-0.4c0.8-0.1,3.7-0.6,3.7-0.6s1-0.7,1.4-1.7c0.4-1,1.6-1-0.5-1s-2.9,0.1-2.9,0.1s-4.5,1-3.3-0.3
					c1.1-1.3,2.8-1.5,3.9-1.6c1.1-0.1,1.7,0,2.2-0.8c0.6-0.8,0.6-0.8,0.6-0.8s-1.6,0-2.9-0.1c-1.3-0.1-1.1-0.1-2.5-0.1
					c-1.4,0-2.4-0.1-2.4-0.1s0.7-1,1.2-1s2.2-0.5,2.2-0.5l1.6-1.4c-1.8,0,0.7,0.6-2.4,0s-3.2-0.6-3.2-0.6s-0.7-0.3-0.7-0.6
					s2.4-1,2.4-1s0.6,0.3,1-0.3c0.5-0.6-0.2-0.1,0.5-0.6s1.1-0.8,0.8-0.8c-0.3-0.1-2.9-0.1-2.9-0.1s-0.4-0.1-1-0.2s-1.7-0.5-1.6-1
					c0.1-0.5,1.3-0.6,1.7-0.7s2.5-0.8,2.5-0.8s0.7-0.9,0.4-1c-0.4-0.1-0.7,0-2,0s-2.7,0-2.7,0c0-0.6-0.6-0.4-0.1-1
					c0.5-0.6-1.3,0.3,0.5-0.6s1.8-0.9,1.8-0.9l0.2-0.8l-3.1-0.1c0,0,0.6-0.2,0-0.8c-0.6-0.6-0.6,0.4-0.6-0.6s0-1,0-1l3.1-1.5
					c0,0-2-0.5-2.4-0.5c-0.5,0-1.7,0.1-1.9-0.4c-0.2-0.6-1.2-0.8-0.2-1s1.6-0.2,1.7-0.5c0.1-0.3,0-0.3-0.6-0.8
					c-0.6-0.4-0.6-0.3-0.6-0.8c0-0.5,0-1.3,0-1.3l-1-0.2c0,0-0.4-0.7-0.4-1.6c0-0.9-0.2-0.8,0.5-1.3s0.7-0.7,0.7-1.1s-1.4-1-1.4-1
					s-0.6-0.6-0.4-1.2c0.2-0.6,0.2,0.1,0.2-0.6s-0.7-2.2-0.7-2.2L137.7,228.3z"/>
			</g>
			<g>
				<path class="st2" d="M159.6,197v2.4l-1,0.8l1,0.8l-1.9,0.7v1h1.9v1.8l-1.4,1.1v1.9l-1.9,0.3l-1.2,0.9l2.7,0.5l-2,1.6l2.7,0.9
					v1.5l-3.4-1.5l-2,0.9l2.7,2.1l-0.9,0.7h2.9v1.1l-3.1,1h-2.9l-0.5,1.3l2.5,1.3v1.8l-1.5,1.2l-3.3-0.9l-2-0.6v1.2l2.7,2.1h2.4v1.4
					h-2.2l-2.8-0.8v1.3l1.4,1.1l1.2,0.9H148h-2l-2-0.6v1l1.6,1.3l2.7,1.1v0.9h-1.4l-1.7-0.8l-2.3-0.6l-1.3-1l-1.7,0.8
					c0,0,0.5,1.2,1.1,1.6s1.8,1.3,2,1.5c0.2,0.2,0.2,1.4,0.2,1.4l0.4,1c0,0,0.8-0.4,1.2-0.3c0.4,0.1,1.7,0.3,1.7,0.3
					s0.2,0.7-0.2,0.7c-0.4,0-1.2,0-1.6,0c-0.4,0-2.5-1-3.2-1.1c-0.7-0.1-3.2-0.7-3.2-0.7h-1c0,0-0.7,0.6-0.6,0.8
					c0.1,0.2,0.9,1.4,0.9,1.4s0.6-0.4,1.1,0c0.6,0.4,3.1,1.4,3.1,1.4l2.1,0.9l-1.2,1.8l3.3,0.8c0,0-0.7,0.8-1.3,0.9
					c-0.7,0.1,1,0-2,0s-1,0.6-4,0c-3-0.5-3.6-0.5-3.6-0.5s-1.7-1.6-1.1-0.3s1.3,1.8,1.3,1.8s-0.6,1.9,2,2.5s2.1,0.4,3.3,0.7
					c1.1,0.2,2.3,0.6,2.3,0.6l-0.9,0.5h-2.4c0,0-2,0.1-2.7,0c-0.7-0.1,0.6,1.6-0.1,1.7c-0.7,0.1-1.7-0.1-2.1,0
					c-0.5,0.1-0.5,0.1-0.5,0.1s-0.8,0.1-0.3,0.7c0.5,0.6-1-0.6,0.5,0.6s2.9,1.3,2.9,1.5c0,0.2,1,0.4,0,0.6c-1,0.2,0.7,0.2-1,0.2
					c-1.7,0-3.5,0-3.5,0s-1.7,1.5-2.4,1.1c-0.7-0.4-1-0.9-1-0.9s-0.7,1.3-0.7,1.5c0,0.2-0.6,1,1.1,1.1c1.7,0.1,3.5,0.7,3.5,0.7
					l1.2,0.3l-0.9,0.8c2.3,0.7,2.1,0.7,2.9,0.7c0.7,0.1,3.1,0.4,3.1,0.4c-1.2,0.4-2.3,0.7-2.7,1c-0.4,0.2-0.5,0.6-1.2,0.6
					c-0.7,0-2-0.3-2.5-0.4c-0.5-0.1-0.2-0.1-1.1-0.1c-0.9-0.1-1-0.1-1.9-0.1s-1.6,0.1-1.6,0.1l-1.5,0.9l2.8,0.7c0,0,1.7,0.1,2.2,0.4
					s0.6,1,0.6,1c-6.1,0-7.6,0-7.6,0l-0.7,1c0,0-0.4,0.4,0.9,0.7s2.2,0.6,3.2,0.7c0.9,0.1,0.8,0.9,0.8,0.9l-0.7,0.7c0,0-2.2-0.3,1,0
					c3.3,0.3,3.4,0.1,4.2-0.4c0.7-0.6-2.4-0.5,1.8-0.4s6.8,0.4,6.4,0.4c-0.4,0-3,0.7-3,0.7l-3.3,0.6l-2,0.7h-1.3l-2,1
					c0,0-4,1-3.7,1.1c0.3,0.1-1.1,0.7,3.2,1.1c4.3,0.4,5.3,0.5,5.6,0.4s1.1,0.2,2.8,0c1.7-0.2,2.4,0.1,2.4,0.1s0,1.3,0,0.7
					c0-0.7-1.6,0.5-1.6,0.5h-1.4l-3.3-0.4c0,0-1.7-0.2-2-0.1c-0.3,0.1-1.2,0.5-1.2,0.5v0.8c0,0,1.5,1.7,2,1.8
					c0.6,0.1,1.5,0.1,2.5,0.3c1,0.1,1,0.1,1,0.1l-1.7,0.8h-1.9c0,0-2,0-2.7,0s-1.6,0-1.6,0h-2.3c-1,0.7-2.2,1.3-1.7,1.4
					c0.6,0.1-0.9-0.2,1.1,0.5c2,0.7,4.1,1.3,4.9,1.3c0.8,0,2.4,0,2.4,0s0-0.4,2.6,0c2.6,0.4,2,0.5,4,1c2,0.4,1.9,1.2,3.5,0.3
					s0-0.9,1.7-0.9c1.7,0,0.4,1,3.5,0.2c3.2-0.7,4.7-1.2,4.7-1.2s1.1-0.3,2-0.6s1-0.3,1.4-0.4c0.4-0.1,1-1,1.1,0
					c0.1,1-0.2,2.4-0.3,2.7c-0.1,0.4-0.1,3.5-0.1,3.5v1.6l-0.6,4.7l-1.2,3.4l11.4,1l-1.9-6l-1.7-5.4l-1.2-3.2l0.1-3.2h0.9
					c0,0,0.2,0.8,1.1,0.8c0.9,0,2.7,0.6,3.4,0.6s2.1,0.5,2.5,0.8c0.4,0.3,1.4,0.3,1.4,0.3s1.4-1.3,1.7-1.1c0.3,0.2,1.3,1.5,2.4,1.7
					c1.1,0.2,0.8,1.3,3.6,1c2.8-0.3,3.6,0.1,3.8-0.6c0.2-0.7,0.1-0.6,1.3-1.6s0.7-0.1,2.3-1c1.6-0.9,1.6-0.4,1.6-0.9
					c0-0.5,0.7-1.5-0.8-1.3c-1.5,0.1-1.6,0.2-2.4,0.3s-0.9,0.1-2.7,0.1s-2.5-0.6-2.5-0.6l-0.4-1.1c-0.8-0.7-0.5-1.2,0-1.3
					c0.5-0.1,0.7-0.1,2.1-0.1s-0.2,0,1.5,0c1.7,0,3.3,0.1,3.5-0.1s-1.1-0.2,0.2-0.2c1.3,0-0.3,0.4,1.3,0c1.6-0.4,2,0.7,2.5-0.4
					c0.5-1.1,1.1-1.6,1.1-1.6l-1.6-0.6l-4.5-0.4l-1-0.1c0,0,0,0.2-1.3-0.6c-1.3-0.8-1.3-0.8-1.3-0.8s-1.4-1-1-1.3
					c0.4-0.2,0.9-0.2,0.9-0.2s1.1,0,1.4,0s3.4-0.1,3.4-0.1c0-1.2,0.1-1.3-0.7-1.4c-0.8-0.1-2.4-1.4-2.4-1.4c1.2,0,4.9,0,4.9,0l3.6-1
					v-1.2c0,0-3.4,0-3.7,0s-2.4-0.1-3.1-0.4s-3.7-1.4-3.7-1.4l-1.8-0.3l-3.2-1.3c0,0,0.6-0.8,0.9-0.7c0.4,0.1,2.3,0.3,3.2,0.2
					c0.8-0.1,1.6-0.1,1.6-0.1l3.7-1.6c0,0-0.6,0.4,1.2,0.1s2.6-0.3,2.6-0.3s0.6-0.7,0.3-1s-1.5-0.8-1.9-0.9
					c-0.4-0.1-2.8-0.1-2.8-0.1s-0.7,0-3-0.3c-2.2-0.3-6.4-0.7-6.4-0.7s-1.9-0.4-0.9-0.7c0.9-0.3,2.4-0.1,3.2,0
					c0.7,0.1,0,0.6,0.7,0.1c0.7-0.6,0.4-0.8,0.2-1c-0.2-0.2-0.8,0.3-0.2-0.2s1.2-0.9,1.2-0.9l0.9-0.4c0,0,0.4-0.6-0.8-0.6
					c-1.2,0-3-0.5-3-0.5l-2-0.4c0,0,0.3-0.9,0.6-1c0.3-0.1,1.9,0.2,2.8-0.1c0.9-0.4,1.5-0.7,1.5-0.7s1.4-1.1,0.7-1.3
					c-0.7-0.2,0.5,1.1-2.5,0c-3-1.1-4.9-0.8-4.5-1.6c0.5-0.7,0.7-1.4,0.7-1.4l0.3-1.3l0.2-1.1l-3.2-0.1l-2.7-1.8
					c0,0,0.3-0.4,1.1-0.4c0.8-0.1,3.7-0.7,3.7-0.7s1-0.7,1.4-1.8c0.4-1.1,1.6-1.1-0.5-1.1s-2.9,0.1-2.9,0.1s-4.5,1-3.3-0.3
					c1.1-1.3,2.8-1.6,3.9-1.7c1.1-0.1,1.7,0,2.2-0.8s0.6-0.8,0.6-0.8s-1.6,0-2.9-0.1c-1.3-0.1-1.1-0.1-2.5-0.1
					c-1.4,0-2.4-0.1-2.4-0.1s0.7-1,1.2-1.1c0.6-0.1,2.2-0.5,2.2-0.5l1.6-1.5c-1.8,0,0.7,0.7-2.4,0c-3.2-0.7-3.2-0.7-3.2-0.7
					s-0.7-0.3-0.7-0.6c0.1-0.3,2.4-1,2.4-1s0.6,0.4,1-0.3c0.5-0.7-0.2-0.1,0.5-0.7c0.7-0.5,1.1-0.8,0.8-0.9
					c-0.3-0.1-2.9-0.1-2.9-0.1s-0.4-0.1-1-0.2s-1.7-0.5-1.6-1c0.1-0.5,1.3-0.7,1.7-0.7c0.4-0.1,2.5-0.9,2.5-0.9s0.7-1,0.4-1
					c-0.4-0.1-0.7,0-2,0c-1.4,0-2.7,0-2.7,0c0-0.7-0.6-0.4-0.1-1.1c0.5-0.7-1.3,0.3,0.5-0.7s1.8-1,1.8-1l0.2-0.8l-3.1-0.1
					c0,0,0.6-0.2,0-0.8s-0.6,0.4-0.6-0.6s0-1,0-1l3.1-1.5c0,0-2-0.5-2.4-0.5c-0.5,0-1.7,0.1-1.9-0.4s-1.2-0.8-0.2-1.1
					s1.6-0.2,1.7-0.5s0-0.4-0.6-0.8s-0.6-0.3-0.6-0.8c0-0.5,0-1.3,0-1.3l-1-0.2c0,0-0.4-0.7-0.4-1.7c0-1-0.2-0.8,0.5-1.4
					s0.7-0.7,0.7-1.1s-1.4-1.1-1.4-1.1s-0.6-0.6-0.4-1.3c0.2-0.7,0.2,0.1,0.2-0.7s-0.7-2.4-0.7-2.4L159.6,197z"/>
			</g>
			<g>
				<path class="st2" d="M127.4,196.4v2.7l-0.8,0.9l0.8,0.9l-1.6,0.8v1.1h1.6v2.1l-1.2,1.3v2.2l-1.6,0.3l-1,1.1l2.3,0.6l-1.7,1.8
					l2.2,1.1v1.8l-2.8-1.7l-1.7,1l2.2,2.4l-0.8,0.9h2.5v1.2l-2.6,1.1h-2.4l-0.4,1.5l2.1,1.5v2.1l-1.2,1.4l-2.7-1l-1.7-0.7v1.4
					l2.2,2.4h2v1.7h-1.9l-2.3-0.9v1.5l1.2,1.3l1,1.1h-1.4H116l-1.7-0.7v1.2l1.4,1.5l2.2,1.3v1h-1.2l-1.4-0.9l-1.9-0.7l-1.1-1.2
					l-1.4,0.9c0,0,0.4,1.4,0.9,1.9s1.5,1.5,1.7,1.8c0.2,0.2,0.2,1.6,0.2,1.6l0.3,1.1c0,0,0.7-0.4,1-0.3c0.3,0.1,1.4,0.3,1.4,0.3
					s0.2,0.9-0.2,0.9s-1,0-1.3,0s-2.1-1.1-2.6-1.3s-2.6-0.8-2.6-0.8h-0.9c0,0-0.5,0.7-0.5,0.9c0.1,0.3,0.8,1.6,0.8,1.6
					s0.5-0.4,0.9,0c0.5,0.4,2.6,1.6,2.6,1.6l1.8,1l-1,2.1l2.8,1c0,0-0.5,0.9-1.1,1c-0.5,0.1,0.9,0-1.7,0s-0.9,0.7-3.3,0
					c-2.5-0.6-3-0.6-3-0.6s-1.4-1.8-0.9-0.4s1.1,2.1,1.1,2.1s-0.5,2.2,1.7,2.9c2.2,0.7,1.8,0.5,2.7,0.8c0.9,0.3,1.9,0.7,1.9,0.7
					l-0.8,0.6h-2c0,0-1.6,0.2-2.3,0c-0.6-0.2,0.5,1.9-0.1,2s-1.4-0.1-1.8,0c-0.4,0.1-0.4,0.1-0.4,0.1s-0.7,0.1-0.3,0.8
					c0.4,0.7-0.8-0.6,0.4,0.7c1.2,1.3,2.4,1.5,2.4,1.8s0.9,0.4,0,0.7s0.5,0.3-0.9,0.3c-1.4,0-3,0-3,0s-1.4,1.8-2,1.3
					c-0.6-0.5-0.9-1-0.9-1s-0.6,1.5-0.6,1.7s-0.5,1.1,0.9,1.3c1.4,0.2,3,0.9,3,0.9l1,0.3l-0.8,0.9c1.9,0.9,1.8,0.8,2.4,0.9
					s2.6,0.4,2.6,0.4c-1,0.5-1.9,0.9-2.3,1.1c-0.3,0.3-0.4,0.7-1,0.7c-0.6,0-1.7-0.3-2.1-0.4c-0.4-0.1-0.2-0.1-0.9-0.2
					s-0.9-0.1-1.6-0.1s-1.3,0.1-1.3,0.1l-1.2,1l2.3,0.9c0,0,1.4,0.2,1.9,0.4s0.5,1.2,0.5,1.2c-5.1,0-6.4,0-6.4,0l-0.5,1.2
					c0,0-0.3,0.4,0.8,0.9c1.1,0.4,1.9,0.7,2.6,0.9c0.8,0.2,0.7,1,0.7,1l-0.5,0.9c0,0-1.9-0.3,0.9,0s2.9,0.2,3.5-0.5
					c0.6-0.7-2-0.6,1.5-0.5c3.5,0.1,5.7,0.4,5.4,0.4s-2.5,0.8-2.5,0.8l-2.7,0.7l-1.7,0.8h-1.1l-1.6,1.1c0,0-3.3,1.1-3.1,1.3
					c0.2,0.2-0.9,0.9,2.6,1.3c3.6,0.4,4.4,0.6,4.7,0.5s0.9,0.2,2.3,0c1.4-0.2,2,0.1,2,0.1s0,1.5,0,0.8c0-0.8-1.3,0.6-1.3,0.6H109
					l-2.7-0.4c0,0-1.4-0.3-1.6-0.2c-0.2,0.1-1,0.6-1,0.6v0.9c0,0,1.2,2,1.7,2.1c0.5,0.1,1.2,0.2,2.1,0.3c0.9,0.2,0.9,0.2,0.9,0.2
					l-1.4,0.9h-1.6c0,0-1.7,0-2.3,0s-1.3,0-1.3,0h-1.9c-0.9,0.9-1.9,1.5-1.4,1.6c0.5,0.2-0.8-0.3,0.9,0.6c1.7,0.9,3.4,1.5,4.1,1.5
					s2,0,2,0s0-0.5,2.2,0c2.2,0.5,1.6,0.6,3.3,1.1c1.7,0.5,1.6,1.4,3,0.3c1.4-1,0-1,1.4-1s0.3,1.1,3,0.3c2.6-0.9,4-1.4,4-1.4
					s0.9-0.3,1.6-0.7c0.7-0.3,0.9-0.3,1.2-0.4c0.3-0.1,0.9-1.1,0.9,0c0.1,1.1-0.2,2.7-0.2,3.2c-0.1,0.4-0.1,4-0.1,4v1.9l-0.5,5.5
					l-1,4l9.6,1.1l-1.6-7l-1.4-6.3l-1-3.7l0.1-3.8h0.8c0,0,0.2,0.9,0.9,1c0.7,0,2.3,0.7,2.8,0.7s1.8,0.6,2.1,0.9s1.2,0.3,1.2,0.3
					s1.2-1.5,1.4-1.3s1.1,1.7,2,2s0.7,1.5,3,1.1s3,0.1,3.2-0.7s0.1-0.7,1.1-1.8c1-1.1,0.6-0.1,1.9-1.2c1.3-1,1.3-0.4,1.3-1
					s0.5-1.7-0.7-1.5c-1.2,0.2-1.3,0.3-2,0.3s-0.8,0.1-2.3,0.1s-2.1-0.6-2.1-0.6l-0.4-1.3c-0.7-0.8-0.4-1.4,0-1.5
					c0.4-0.2,0.5-0.2,1.8-0.2s-0.2,0,1.2,0s2.8,0.1,3-0.2s-0.9-0.3,0.2-0.3c1.1,0-0.2,0.5,1.1,0c1.3-0.5,1.7,0.8,2.1-0.5
					c0.4-1.3,0.9-1.8,0.9-1.8l-1.4-0.6l-3.7-0.5l-0.9-0.1c0,0,0,0.3-1.1-0.7s-1.1-0.9-1.1-0.9s-1.2-1.2-0.9-1.5
					c0.3-0.3,0.8-0.3,0.8-0.3s0.9,0,1.2,0s2.9-0.1,2.9-0.1c0-1.4,0.1-1.5-0.6-1.6c-0.7-0.2-2-1.6-2-1.6c1,0,4.1,0,4.1,0l3-1.2v-1.4
					c0,0-2.9,0-3.1,0s-2-0.1-2.6-0.4s-3.1-1.6-3.1-1.6l-1.5-0.3l-2.6-1.5c0,0,0.5-0.9,0.8-0.9c0.3,0.1,1.9,0.3,2.6,0.3
					s1.3-0.1,1.3-0.1l3.1-1.9c0,0-0.5,0.4,1,0.1c1.5-0.3,2.2-0.3,2.2-0.3s0.5-0.9,0.2-1.2s-1.2-0.9-1.6-1c-0.3-0.1-2.3-0.1-2.3-0.1
					s-0.6,0-2.5-0.3s-5.4-0.8-5.4-0.8s-1.6-0.5-0.8-0.9s2-0.1,2.6,0c0.6,0.1,0,0.7,0.6,0.1c0.6-0.6,0.4-0.9,0.2-1.1
					c-0.2-0.2-0.7,0.3-0.2-0.2c0.5-0.5,1-1.1,1-1.1l0.8-0.5c0,0,0.3-0.7-0.7-0.7c-1,0-2.5-0.6-2.5-0.6l-1.6-0.5c0,0,0.2-1,0.5-1.1
					s1.6,0.3,2.3-0.2c0.8-0.4,1.2-0.8,1.2-0.8s1.2-1.3,0.6-1.5s0.4,1.2-2.1,0c-2.5-1.2-4.1-1-3.7-1.8s0.6-1.6,0.6-1.6l0.2-1.5
					l0.2-1.2l-2.6-0.1l-2.3-2.1c0,0,0.2-0.4,0.9-0.5c0.7-0.1,3.1-0.8,3.1-0.8s0.9-0.9,1.2-2.1s1.3-1.3-0.4-1.3s-2.4,0.1-2.4,0.1
					s-3.7,1.2-2.8-0.3c0.9-1.5,2.3-1.9,3.3-2c0.9-0.1,1.4,0,1.9-0.9s0.5-0.9,0.5-0.9s-1.3,0-2.4-0.1c-1.1-0.1-0.9-0.1-2.1-0.1
					s-2-0.1-2-0.1s0.5-1.2,1-1.3c0.5-0.1,1.9-0.6,1.9-0.6l1.3-1.7c-1.5,0,0.6,0.8-2,0s-2.6-0.8-2.6-0.8s-0.6-0.3-0.5-0.7
					s2-1.2,2-1.2s0.5,0.4,0.9-0.3c0.4-0.8-0.2-0.2,0.4-0.8s0.9-0.9,0.7-1c-0.2-0.1-2.4-0.1-2.4-0.1s-0.3-0.1-0.9-0.3
					s-1.4-0.6-1.3-1.2c0.1-0.6,1.1-0.8,1.4-0.9c0.3-0.1,2.1-1,2.1-1s0.6-1.1,0.3-1.2c-0.3-0.1-0.5,0-1.7,0s-2.3,0-2.3,0
					c0-0.8-0.5-0.5-0.1-1.3s-1.1,0.3,0.4-0.8s1.5-1.1,1.5-1.1l0.2-0.9l-2.6-0.2c0,0,0.5-0.3,0-0.9s-0.5,0.5-0.5-0.7
					c0-1.2,0-1.2,0-1.2l2.6-1.8c0,0-1.6-0.6-2-0.6s-1.4,0.2-1.6-0.5s-1-1-0.2-1.3c0.8-0.3,1.3-0.3,1.4-0.6s0-0.4-0.5-0.9
					s-0.5-0.3-0.5-0.9s0-1.5,0-1.5l-0.9-0.3c0,0-0.3-0.9-0.3-2s-0.2-0.9,0.4-1.6c0.6-0.6,0.6-0.8,0.6-1.3s-1.2-1.3-1.2-1.3
					s-0.5-0.7-0.4-1.5c0.1-0.8,0.1,0.1,0.1-0.8s-0.6-2.7-0.6-2.7L127.4,196.4z"/>
			</g>
			<g>
				<path class="st2" d="M101.9,178.6v2.7l-1.1,0.9l1.1,0.9l-2,0.8v1.1h2v2.1l-1.5,1.3v2.2l-2,0.3l-1.2,1.1l2.9,0.6l-2.1,1.8
					l2.8,1.1v1.8l-3.6-1.7l-2.1,1l2.8,2.4l-1,0.9h3.1v1.2l-3.3,1.1h-3.1l-0.5,1.5l2.7,1.5v2.1l-1.6,1.4l-3.4-1l-2.2-0.7v1.4l2.8,2.4
					h2.5v1.7h-2.4l-3-0.9v1.5l1.5,1.3l1.2,1.1h-1.8h-2.2l-2.2-0.7v1.2l1.7,1.5l2.8,1.3v1h-1.5l-1.8-0.9l-2.5-0.7l-1.4-1.2l-1.8,0.9
					c0,0,0.5,1.4,1.2,1.9c0.7,0.5,1.9,1.5,2.1,1.8c0.2,0.2,0.2,1.6,0.2,1.6l0.4,1.1c0,0,0.9-0.4,1.3-0.3c0.4,0.1,1.8,0.3,1.8,0.3
					s0.2,0.9-0.2,0.9s-1.3,0-1.7,0s-2.7-1.1-3.3-1.3s-3.3-0.8-3.3-0.8h-1.1c0,0-0.7,0.7-0.6,0.9c0.1,0.3,1,1.6,1,1.6s0.6-0.4,1.2,0
					c0.6,0.4,3.3,1.6,3.3,1.6l2.3,1l-1.3,2.1l3.5,1c0,0-0.7,0.9-1.4,1c-0.7,0.1,1.1,0-2.2,0c-3.3,0-1.1,0.7-4.2,0
					c-3.2-0.6-3.8-0.6-3.8-0.6s-1.8-1.8-1.2-0.4c0.6,1.4,1.4,2.1,1.4,2.1s-0.6,2.2,2.2,2.9c2.8,0.7,2.3,0.5,3.4,0.8
					c1.2,0.3,2.5,0.7,2.5,0.7l-1,0.6h-2.6c0,0-2.1,0.2-2.9,0s0.6,1.9-0.1,2c-0.7,0.1-1.8-0.1-2.3,0c-0.5,0.1-0.5,0.1-0.5,0.1
					s-0.8,0.1-0.3,0.8s-1-0.6,0.5,0.7c1.5,1.3,3.1,1.5,3.1,1.8c0,0.3,1.1,0.4,0,0.7c-1.1,0.3,0.7,0.3-1.1,0.3c-1.8,0-3.7,0-3.7,0
					s-1.8,1.8-2.6,1.3s-1.1-1-1.1-1s-0.8,1.5-0.8,1.7s-0.6,1.1,1.2,1.3c1.8,0.2,3.7,0.9,3.7,0.9l1.3,0.3l-1,0.9
					c2.5,0.9,2.3,0.8,3.1,0.9s3.3,0.4,3.3,0.4c-1.3,0.5-2.5,0.9-2.9,1.1c-0.4,0.3-0.5,0.7-1.3,0.7s-2.2-0.3-2.7-0.4
					c-0.5-0.1-0.2-0.1-1.2-0.2c-1-0.1-1.1-0.1-2-0.1c-0.9,0-1.7,0.1-1.7,0.1l-1.6,1l3,0.9c0,0,1.8,0.2,2.4,0.4
					c0.6,0.3,0.6,1.2,0.6,1.2c-6.5,0-8.1,0-8.1,0l-0.7,1.2c0,0-0.4,0.4,1,0.9c1.4,0.4,2.4,0.7,3.3,0.9c1,0.2,0.9,1,0.9,1l-0.7,0.9
					c0,0-2.4-0.3,1.1,0s3.6,0.2,4.4-0.5s-2.6-0.6,1.9-0.5c4.4,0.1,7.2,0.4,6.8,0.4s-3.1,0.8-3.1,0.8l-3.4,0.7l-2.2,0.8H73l-2.1,1.1
					c0,0-4.2,1.1-3.9,1.3c0.3,0.2-1.2,0.9,3.3,1.3s5.6,0.6,5.9,0.5c0.3-0.1,1.2,0.2,3,0c1.8-0.2,2.6,0.1,2.6,0.1s0,1.5,0,0.8
					s-1.7,0.6-1.7,0.6h-1.5l-3.4-0.4c0,0-1.8-0.3-2.1-0.2c-0.3,0.1-1.3,0.6-1.3,0.6v0.9c0,0,1.6,2,2.2,2.1c0.6,0.1,1.6,0.2,2.7,0.3
					c1.1,0.2,1.1,0.2,1.1,0.2l-1.8,0.9h-2c0,0-2.2,0-2.9,0s-1.7,0-1.7,0H67c-1.1,0.9-2.4,1.5-1.8,1.6c0.6,0.2-1-0.3,1.2,0.6
					s4.3,1.5,5.2,1.5c0.9,0,2.6,0,2.6,0s0-0.5,2.8,0c2.8,0.5,2.1,0.6,4.2,1.1c2.2,0.5,2,1.4,3.7,0.3s0-1,1.8-1
					c1.8,0,0.4,1.1,3.7,0.3c3.3-0.9,5-1.4,5-1.4s1.2-0.3,2.1-0.7s1.1-0.3,1.5-0.4c0.4-0.1,1.1-1.1,1.2,0c0.1,1.1-0.2,2.7-0.3,3.2
					s-0.1,4-0.1,4v1.9l-0.6,5.5l-1.3,4l12.1,1.1l-2-7l-1.8-6.3l-1.3-3.7l0.1-3.8h1c0,0,0.2,0.9,1.1,1s2.9,0.7,3.6,0.7
					c0.7,0,2.3,0.6,2.7,0.9s1.5,0.3,1.5,0.3s1.5-1.5,1.8-1.3c0.3,0.3,1.4,1.7,2.6,2c1.2,0.3,0.9,1.5,3.8,1.1c3-0.3,3.8,0.1,4-0.7
					c0.2-0.8,0.1-0.7,1.4-1.8c1.3-1.1,0.7-0.1,2.4-1.2c1.7-1,1.7-0.4,1.7-1c0-0.6,0.7-1.7-0.9-1.5c-1.6,0.2-1.7,0.3-2.6,0.3
					c-0.9,0.1-1,0.1-2.9,0.1s-2.6-0.6-2.6-0.6l-0.4-1.3c-0.9-0.8-0.5-1.4,0-1.5c0.5-0.2,0.7-0.2,2.3-0.2s-0.2,0,1.6,0
					c1.8,0,3.5,0.1,3.7-0.2c0.2-0.3-1.2-0.3,0.2-0.3s-0.3,0.5,1.4,0c1.7-0.5,2.2,0.8,2.7-0.5s1.1-1.8,1.1-1.8l-1.7-0.6l-4.7-0.5
					l-1.1-0.1c0,0,0,0.3-1.4-0.7c-1.4-0.9-1.4-0.9-1.4-0.9s-1.5-1.2-1.1-1.5s1-0.3,1-0.3s1.2,0,1.5,0c0.3,0,3.6-0.1,3.6-0.1
					c0-1.4,0.1-1.5-0.8-1.6c-0.9-0.2-2.6-1.6-2.6-1.6c1.3,0,5.2,0,5.2,0l3.8-1.2v-1.4c0,0-3.6,0-3.9,0s-2.6-0.1-3.3-0.4
					c-0.7-0.3-3.9-1.6-3.9-1.6l-1.9-0.3l-3.3-1.5c0,0,0.6-0.9,1-0.9c0.4,0.1,2.5,0.3,3.3,0.3c0.9-0.1,1.7-0.1,1.7-0.1l3.9-1.9
					c0,0-0.6,0.4,1.3,0.1s2.8-0.3,2.8-0.3s0.6-0.9,0.3-1.2s-1.6-0.9-2-1c-0.4-0.1-3-0.1-3-0.1s-0.8,0-3.2-0.3s-6.8-0.8-6.8-0.8
					s-2-0.5-1-0.9c1-0.3,2.6-0.1,3.3,0c0.8,0.1,0,0.7,0.8,0.1c0.7-0.6,0.4-0.9,0.2-1.1c-0.2-0.2-0.8,0.3-0.2-0.2
					c0.6-0.5,1.2-1.1,1.2-1.1l1-0.5c0,0,0.4-0.7-0.8-0.7c-1.2,0-3.2-0.6-3.2-0.6l-2.1-0.5c0,0,0.3-1,0.6-1.1c0.3-0.1,2,0.3,3-0.2
					c1-0.4,1.6-0.8,1.6-0.8s1.5-1.3,0.8-1.5c-0.7-0.2,0.5,1.2-2.7,0c-3.2-1.2-5.2-1-4.7-1.8s0.8-1.6,0.8-1.6l0.3-1.5l0.2-1.2
					l-3.3-0.1l-2.9-2.1c0,0,0.3-0.4,1.2-0.5c0.9-0.1,3.9-0.8,3.9-0.8s1.1-0.9,1.5-2.1s1.7-1.3-0.5-1.3s-3.1,0.1-3.1,0.1
					s-4.7,1.2-3.5-0.3c1.2-1.5,3-1.9,4.1-2c1.2-0.1,1.8,0,2.4-0.9c0.6-0.9,0.6-0.9,0.6-0.9s-1.7,0-3.1-0.1c-1.4-0.1-1.2-0.1-2.7-0.1
					c-1.5,0-2.6-0.1-2.6-0.1s0.7-1.2,1.3-1.3c0.6-0.1,2.4-0.6,2.4-0.6l1.7-1.7c-1.9,0,0.8,0.8-2.6,0s-3.3-0.8-3.3-0.8
					s-0.8-0.3-0.7-0.7c0.1-0.3,2.6-1.2,2.6-1.2s0.6,0.4,1.1-0.3s-0.2-0.2,0.5-0.8s1.2-0.9,0.9-1c-0.3-0.1-3.1-0.1-3.1-0.1
					s-0.4-0.1-1.1-0.3c-0.7-0.2-1.8-0.6-1.7-1.2c0.1-0.6,1.4-0.8,1.8-0.9c0.4-0.1,2.7-1,2.7-1s0.8-1.1,0.4-1.2c-0.4-0.1-0.7,0-2.2,0
					s-2.9,0-2.9,0c0-0.8-0.6-0.5-0.1-1.3c0.5-0.8-1.4,0.3,0.5-0.8c1.9-1.1,1.9-1.1,1.9-1.1l0.2-0.9l-3.3-0.2c0,0,0.6-0.3,0-0.9
					c-0.6-0.7-0.6,0.5-0.6-0.7s0-1.2,0-1.2l3.3-1.8c0,0-2.1-0.6-2.6-0.6s-1.8,0.2-2-0.5c-0.2-0.7-1.2-1-0.2-1.3
					c1-0.3,1.7-0.3,1.8-0.6c0.1-0.3,0-0.4-0.6-0.9c-0.6-0.5-0.6-0.3-0.6-0.9s0-1.5,0-1.5l-1.1-0.3c0,0-0.4-0.9-0.4-2
					s-0.2-0.9,0.5-1.6c0.7-0.6,0.7-0.8,0.7-1.3c0-0.5-1.5-1.3-1.5-1.3s-0.6-0.7-0.5-1.5c0.2-0.8,0.2,0.1,0.2-0.8s-0.8-2.7-0.8-2.7
					L101.9,178.6z"/>
			</g>
			<g>
				<path class="st2" d="M72,191.8v2.8l-1.3,0.9l1.3,0.9l-2.6,0.8v1.1H72v2.2l-1.9,1.3v2.3l-2.5,0.4l-1.6,1.1l3.7,0.6l-2.7,1.9
					l3.6,1.1v1.8l-4.6-1.8l-2.7,1.1l3.6,2.5l-1.3,0.9h4v1.3l-4.2,1.1h-3.9l-0.6,1.6l3.4,1.5v2.2l-2,1.4l-4.4-1.1l-2.8-0.7v1.4
					l3.6,2.5h3.2v1.7h-3l-3.8-1v1.6l1.9,1.3l1.6,1.1h-2.3h-2.8l-2.8-0.7v1.2l2.2,1.5l3.6,1.4v1.1h-1.9l-2.3-1l-3.2-0.7l-1.8-1.2
					l-2.3,1c0,0,0.6,1.4,1.5,1.9s2.4,1.6,2.7,1.8s0.3,1.6,0.3,1.6l0.5,1.1c0,0,1.1-0.4,1.6-0.4s2.3,0.4,2.3,0.4s0.3,0.9-0.3,0.9
					c-0.5,0-1.6,0-2.1,0c-0.5,0-3.4-1.1-4.3-1.3c-0.9-0.2-4.3-0.8-4.3-0.8h-1.4c0,0-0.9,0.7-0.8,1c0.1,0.3,1.3,1.7,1.3,1.7
					s0.8-0.4,1.5,0c0.8,0.4,4.2,1.7,4.2,1.7l2.9,1.1l-1.6,2.1l4.5,1c0,0-0.9,0.9-1.8,1s1.4,0-2.8,0s-1.4,0.7-5.4,0s-4.9-0.7-4.9-0.7
					s-2.3-1.9-1.5-0.4s1.8,2.2,1.8,2.2s-0.8,2.3,2.8,3c3.5,0.7,2.9,0.5,4.4,0.8c1.5,0.3,3.2,0.7,3.2,0.7l-1.3,0.6h-3.3
					c0,0-2.7,0.2-3.7,0c-1-0.2,0.8,1.9-0.1,2c-0.9,0.1-2.3-0.1-2.9,0s-0.6,0.1-0.6,0.1s-1.1,0.1-0.4,0.8c0.7,0.7-1.3-0.7,0.7,0.7
					c2,1.4,3.9,1.6,3.9,1.8c0,0.3,1.4,0.4,0,0.7c-1.4,0.3,0.9,0.3-1.4,0.3c-2.3,0-4.8,0-4.8,0s-2.3,1.8-3.3,1.3s-1.4-1.1-1.4-1.1
					s-1,1.5-1,1.8s-0.8,1.1,1.5,1.3s4.8,0.9,4.8,0.9l1.6,0.4l-1.3,1c3.2,0.9,2.9,0.8,3.9,0.9s4.2,0.4,4.2,0.4
					c-1.6,0.5-3.2,0.9-3.7,1.1c-0.5,0.3-0.6,0.7-1.6,0.7c-1,0-2.8-0.4-3.4-0.4c-0.6-0.1-0.3-0.1-1.5-0.2c-1.3-0.1-1.4-0.1-2.5-0.1
					c-1.1,0-2.1,0.1-2.1,0.1l-2,1.1l3.8,0.9c0,0,2.3,0.2,3,0.4s0.8,1.2,0.8,1.2c-8.3,0-10.4,0-10.4,0l-0.9,1.2c0,0-0.5,0.4,1.3,0.9
					c1.8,0.4,3,0.7,4.3,0.9s1.1,1.1,1.1,1.1l-0.9,0.9c0,0-3-0.4,1.4,0s4.7,0.2,5.7-0.5c1-0.7-3.3-0.6,2.4-0.5s9.2,0.4,8.7,0.4
					c-0.5,0-4,0.8-4,0.8l-4.4,0.7l-2.8,0.8H35l-2.7,1.1c0,0-5.4,1.1-5.1,1.3s-1.5,0.9,4.3,1.3c5.8,0.4,7.2,0.6,7.6,0.5
					c0.4-0.1,1.5,0.2,3.8,0c2.3-0.2,3.3,0.1,3.3,0.1s0,1.6,0,0.8c0-0.8-2.1,0.6-2.1,0.6h-1.9l-4.4-0.4c0,0-2.3-0.3-2.7-0.2
					c-0.4,0.1-1.6,0.6-1.6,0.6v1c0,0,2,2,2.8,2.1s2,0.2,3.4,0.4s1.4,0.2,1.4,0.2l-2.3,1h-2.5c0,0-2.8,0-3.7,0c-0.9,0-2.1,0-2.1,0
					h-3.2c-1.4,0.9-3,1.5-2.3,1.7s-1.3-0.3,1.5,0.6s5.6,1.6,6.7,1.6c1.1,0,3.3,0,3.3,0s0-0.5,3.5,0c3.5,0.5,2.7,0.6,5.4,1.1
					c2.8,0.5,2.5,1.4,4.8,0.4c2.3-1.1,0-1.1,2.3-1.1c2.3,0,0.5,1.1,4.8,0.3s6.4-1.4,6.4-1.4s1.5-0.4,2.7-0.7
					c1.1-0.4,1.4-0.4,1.9-0.4c0.5-0.1,1.4-1.1,1.5,0c0.1,1.1-0.3,2.8-0.4,3.2s-0.1,4.1-0.1,4.1v1.9l-0.8,5.6l-1.6,4.1l15.5,1.1
					l-2.5-7.1l-2.3-6.4L76,293l0.1-3.9h1.3c0,0,0.3,1,1.5,1s3.7,0.7,4.6,0.7c0.9,0,2.9,0.6,3.4,1c0.5,0.4,1.9,0.4,1.9,0.4
					s1.9-1.6,2.3-1.3s1.8,1.8,3.3,2s1.1,1.5,4.9,1.1c3.8-0.4,4.9,0.1,5.2-0.7c0.3-0.8,0.2-0.7,1.8-1.9c1.6-1.1,0.9-0.1,3.1-1.2
					c2.1-1.1,2.1-0.4,2.1-1.1s0.9-1.8-1.1-1.6s-2.1,0.3-3.3,0.4s-1.3,0.1-3.7,0.1s-3.3-0.7-3.3-0.7l-0.6-1.4c-1.1-0.8-0.6-1.4,0-1.6
					c0.6-0.2,0.9-0.2,2.9-0.2c2,0-0.3,0,2,0c2.3,0,4.5,0.1,4.8-0.2s-1.5-0.3,0.3-0.3s-0.4,0.5,1.8,0c2.1-0.5,2.8,0.8,3.4-0.5
					c0.6-1.3,1.5-1.9,1.5-1.9l-2.2-0.7l-6.1-0.5l-1.4-0.1c0,0,0,0.3-1.8-0.7s-1.8-1-1.8-1s-1.9-1.2-1.4-1.5s1.3-0.3,1.3-0.3
					s1.5,0,1.9,0c0.4,0,4.7-0.1,4.7-0.1c0-1.4,0.1-1.5-1-1.7c-1.1-0.2-3.3-1.7-3.3-1.7c1.6,0,6.7,0,6.7,0l4.9-1.2v-1.4
					c0,0-4.7,0-5.1,0c-0.4,0-3.3-0.1-4.2-0.4c-0.9-0.4-5.1-1.7-5.1-1.7l-2.4-0.4l-4.3-1.6c0,0,0.8-1,1.3-0.9s3.2,0.4,4.3,0.3
					c1.1-0.1,2.1-0.1,2.1-0.1l5.1-1.9c0,0-0.8,0.4,1.6,0.1c2.4-0.4,3.5-0.4,3.5-0.4s0.8-0.9,0.4-1.2s-2-1-2.5-1.1
					c-0.5-0.1-3.8-0.1-3.8-0.1s-1,0-4-0.4s-8.7-0.8-8.7-0.8s-2.5-0.5-1.3-0.9c1.3-0.4,3.3-0.1,4.3,0c1,0.1,0.1,0.7,1,0.1
					s0.6-0.9,0.3-1.1c-0.3-0.2-1.1,0.3-0.3-0.2c0.8-0.5,1.6-1.1,1.6-1.1l1.3-0.5c0,0,0.5-0.7-1.1-0.7c-1.6,0-4.1-0.6-4.1-0.6
					l-2.7-0.5c0,0,0.4-1.1,0.8-1.1s2.5,0.3,3.8-0.2c1.3-0.4,2-0.8,2-0.8s1.9-1.3,1-1.5c-0.9-0.2,0.6,1.3-3.4,0c-4-1.3-6.7-1-6.1-1.9
					c0.6-0.9,1-1.7,1-1.7l0.4-1.5l0.3-1.3l-4.3-0.1l-3.7-2.2c0,0,0.4-0.4,1.5-0.5c1.1-0.1,5.1-0.8,5.1-0.8s1.4-0.9,1.9-2.2
					c0.5-1.3,2.1-1.3-0.6-1.3c-2.8,0-3.9,0.1-3.9,0.1s-6.1,1.2-4.5-0.4s3.8-1.9,5.3-2c1.5-0.1,2.3,0,3-1c0.8-1,0.8-1,0.8-1
					s-2.1,0-3.9-0.1c-1.8-0.1-1.5-0.1-3.4-0.1s-3.3-0.1-3.3-0.1s0.9-1.2,1.6-1.3c0.8-0.1,3-0.6,3-0.6l2.1-1.8c-2.4,0,1,0.8-3.3,0
					c-4.3-0.8-4.3-0.8-4.3-0.8s-1-0.4-0.9-0.7c0.1-0.4,3.3-1.2,3.3-1.2s0.8,0.4,1.4-0.4c0.6-0.8-0.3-0.2,0.6-0.8
					c0.9-0.6,1.5-1,1.1-1.1s-3.9-0.1-3.9-0.1s-0.5-0.1-1.4-0.3c-0.9-0.2-2.3-0.6-2.1-1.2c0.1-0.6,1.8-0.8,2.3-0.9
					c0.5-0.1,3.4-1.1,3.4-1.1s1-1.1,0.5-1.2c-0.5-0.1-0.9,0-2.8,0s-3.7,0-3.7,0c0-0.8-0.8-0.5-0.1-1.3c0.6-0.8-1.8,0.4,0.6-0.8
					s2.4-1.1,2.4-1.1l0.3-1l-4.2-0.2c0,0,0.8-0.3,0-1c-0.8-0.7-0.8,0.5-0.8-0.7c0-1.2,0-1.2,0-1.2l4.2-1.8c0,0-2.7-0.6-3.3-0.6
					c-0.6,0-2.3,0.2-2.5-0.5s-1.6-1-0.3-1.3c1.3-0.3,2.1-0.3,2.3-0.6s0-0.4-0.8-1c-0.8-0.5-0.8-0.4-0.8-1c0-0.6,0-1.6,0-1.6
					l-1.4-0.3c0,0-0.5-0.9-0.5-2c0-1.1-0.3-1,0.7-1.6c0.9-0.7,0.9-0.8,0.9-1.4c0-0.5-1.9-1.3-1.9-1.3s-0.8-0.7-0.6-1.5
					c0.2-0.8,0.2,0.1,0.2-0.8c0-0.9-1-2.8-1-2.8L72,191.8z"/>
			</g>
			<g>
				<path class="st2" d="M221.6,176.2v2.7l-1,0.9l1,0.9l-1.9,0.8v1.1h1.9v2.1l-1.4,1.3v2.2l-1.9,0.3l-1.2,1.1l2.7,0.6l-2,1.8
					l2.7,1.1v1.8l-3.4-1.7l-2,1l2.7,2.4l-0.9,0.9h2.9v1.2l-3.1,1.1h-2.9l-0.5,1.5l2.5,1.5v2.1l-1.5,1.4l-3.3-1l-2-0.7v1.4l2.7,2.4
					h2.4v1.7h-2.2l-2.8-0.9v1.5l1.4,1.3l1.2,1.1h-1.7h-2l-2-0.7v1.2l1.6,1.5l2.7,1.3v1h-1.4l-1.7-0.9l-2.3-0.7l-1.3-1.2l-1.7,0.9
					c0,0,0.5,1.4,1.1,1.9c0.7,0.5,1.8,1.5,2,1.8c0.2,0.2,0.2,1.6,0.2,1.6l0.4,1.1c0,0,0.8-0.4,1.2-0.3c0.4,0.1,1.7,0.3,1.7,0.3
					s0.2,0.9-0.2,0.9c-0.4,0-1.2,0-1.6,0s-2.5-1.1-3.2-1.3s-3.2-0.8-3.2-0.8h-1c0,0-0.7,0.7-0.6,0.9c0.1,0.3,0.9,1.6,0.9,1.6
					s0.6-0.4,1.1,0s3.1,1.6,3.1,1.6l2.1,1l-1.2,2.1l3.3,1c0,0-0.7,0.9-1.3,1c-0.7,0.1,1,0-2,0c-3.1,0-1,0.7-4,0
					c-3-0.6-3.6-0.6-3.6-0.6s-1.7-1.8-1.1-0.4c0.6,1.4,1.3,2.1,1.3,2.1s-0.6,2.2,2,2.9c2.6,0.7,2.1,0.5,3.3,0.8
					c1.1,0.3,2.3,0.7,2.3,0.7l-0.9,0.6h-2.4c0,0-2,0.2-2.7,0c-0.7-0.2,0.6,1.9-0.1,2c-0.7,0.1-1.7-0.1-2.1,0
					c-0.5,0.1-0.5,0.1-0.5,0.1s-0.8,0.1-0.3,0.8s-1-0.6,0.5,0.7c1.4,1.3,2.9,1.5,2.9,1.8c0,0.3,1,0.4,0,0.7c-1,0.3,0.7,0.3-1,0.3
					c-1.7,0-3.5,0-3.5,0s-1.7,1.8-2.4,1.3c-0.7-0.5-1-1-1-1s-0.7,1.5-0.7,1.7c0,0.3-0.6,1.1,1.1,1.3c1.7,0.2,3.5,0.9,3.5,0.9
					l1.2,0.3l-0.9,0.9c2.3,0.9,2.1,0.8,2.9,0.9c0.7,0.1,3.1,0.4,3.1,0.4c-1.2,0.5-2.3,0.9-2.7,1.1c-0.4,0.3-0.5,0.7-1.2,0.7
					c-0.7,0-2-0.3-2.5-0.4c-0.5-0.1-0.2-0.1-1.1-0.2c-0.9-0.1-1-0.1-1.9-0.1s-1.6,0.1-1.6,0.1l-1.5,1l2.8,0.9c0,0,1.7,0.2,2.2,0.4
					c0.6,0.3,0.6,1.2,0.6,1.2c-6.1,0-7.6,0-7.6,0l-0.7,1.2c0,0-0.4,0.4,0.9,0.9c1.3,0.4,2.2,0.7,3.2,0.9c0.9,0.2,0.8,1,0.8,1
					l-0.7,0.9c0,0-2.2-0.3,1,0s3.4,0.2,4.2-0.5c0.7-0.7-2.4-0.6,1.8-0.5c4.2,0.1,6.8,0.4,6.4,0.4c-0.4,0-3,0.8-3,0.8l-3.3,0.7
					l-2,0.8h-1.3l-2,1.1c0,0-4,1.1-3.7,1.3c0.3,0.2-1.1,0.9,3.2,1.3c4.3,0.4,5.3,0.6,5.6,0.5s1.1,0.2,2.8,0c1.7-0.2,2.4,0.1,2.4,0.1
					s0,1.5,0,0.8c0-0.8-1.6,0.6-1.6,0.6h-1.4l-3.3-0.4c0,0-1.7-0.3-2-0.2c-0.3,0.1-1.2,0.6-1.2,0.6v0.9c0,0,1.5,2,2,2.1
					c0.6,0.1,1.5,0.2,2.5,0.3c1,0.2,1,0.2,1,0.2l-1.7,0.9h-1.9c0,0-2,0-2.7,0c-0.7,0-1.6,0-1.6,0h-2.3c-1,0.9-2.2,1.5-1.7,1.6
					s-0.9-0.3,1.1,0.6c2,0.9,4.1,1.5,4.9,1.5s2.4,0,2.4,0s0-0.5,2.6,0c2.6,0.5,2,0.6,4,1.1c2,0.5,1.9,1.4,3.5,0.3c1.7-1,0-1,1.7-1
					s0.4,1.1,3.5,0.3c3.2-0.9,4.7-1.4,4.7-1.4s1.1-0.3,2-0.7c0.8-0.3,1-0.3,1.4-0.4c0.4-0.1,1-1.1,1.1,0s-0.2,2.7-0.3,3.2
					c-0.1,0.4-0.1,4-0.1,4v1.9l-0.6,5.5l-1.2,4l11.4,1.1l-1.9-7l-1.7-6.3l-1.2-3.7l0.1-3.8h0.9c0,0,0.2,0.9,1.1,1
					c0.9,0,2.7,0.7,3.4,0.7s2.1,0.6,2.5,0.9c0.4,0.3,1.4,0.3,1.4,0.3s1.4-1.5,1.7-1.3s1.3,1.7,2.4,2s0.8,1.5,3.6,1.1
					c2.8-0.3,3.6,0.1,3.8-0.7c0.2-0.8,0.1-0.7,1.3-1.8c1.2-1.1,0.7-0.1,2.3-1.2s1.6-0.4,1.6-1s0.7-1.7-0.8-1.5
					c-1.5,0.2-1.6,0.3-2.4,0.3c-0.8,0.1-0.9,0.1-2.7,0.1s-2.5-0.6-2.5-0.6l-0.4-1.3c-0.8-0.8-0.5-1.4,0-1.5c0.5-0.2,0.7-0.2,2.1-0.2
					s-0.2,0,1.5,0c1.7,0,3.3,0.1,3.5-0.2c0.2-0.3-1.1-0.3,0.2-0.3c1.3,0-0.3,0.5,1.3,0c1.6-0.5,2,0.8,2.5-0.5
					c0.5-1.3,1.1-1.8,1.1-1.8l-1.6-0.6l-4.5-0.5l-1-0.1c0,0,0,0.3-1.3-0.7c-1.3-0.9-1.3-0.9-1.3-0.9s-1.4-1.2-1-1.5
					c0.4-0.3,0.9-0.3,0.9-0.3s1.1,0,1.4,0s3.4-0.1,3.4-0.1c0-1.4,0.1-1.5-0.7-1.6c-0.8-0.2-2.4-1.6-2.4-1.6c1.2,0,4.9,0,4.9,0
					l3.6-1.2v-1.4c0,0-3.4,0-3.7,0s-2.4-0.1-3.1-0.4c-0.7-0.3-3.7-1.6-3.7-1.6l-1.8-0.3l-3.2-1.5c0,0,0.6-0.9,0.9-0.9
					c0.4,0.1,2.3,0.3,3.2,0.3c0.8-0.1,1.6-0.1,1.6-0.1l3.7-1.9c0,0-0.6,0.4,1.2,0.1c1.8-0.3,2.6-0.3,2.6-0.3s0.6-0.9,0.3-1.2
					s-1.5-0.9-1.9-1c-0.4-0.1-2.8-0.1-2.8-0.1s-0.7,0-3-0.3c-2.2-0.3-6.4-0.8-6.4-0.8s-1.9-0.5-0.9-0.9c0.9-0.3,2.4-0.1,3.2,0
					c0.7,0.1,0,0.7,0.7,0.1c0.7-0.6,0.4-0.9,0.2-1.1c-0.2-0.2-0.8,0.3-0.2-0.2s1.2-1.1,1.2-1.1l0.9-0.5c0,0,0.4-0.7-0.8-0.7
					s-3-0.6-3-0.6l-2-0.5c0,0,0.3-1,0.6-1.1c0.3-0.1,1.9,0.3,2.8-0.2c0.9-0.4,1.5-0.8,1.5-0.8s1.4-1.3,0.7-1.5
					c-0.7-0.2,0.5,1.2-2.5,0c-3-1.2-4.9-1-4.5-1.8c0.5-0.9,0.7-1.6,0.7-1.6l0.3-1.5l0.2-1.2l-3.2-0.1l-2.7-2.1c0,0,0.3-0.4,1.1-0.5
					c0.8-0.1,3.7-0.8,3.7-0.8s1-0.9,1.4-2.1c0.4-1.3,1.6-1.3-0.5-1.3s-2.9,0.1-2.9,0.1s-4.5,1.2-3.3-0.3c1.1-1.5,2.8-1.9,3.9-2
					c1.1-0.1,1.7,0,2.2-0.9c0.6-0.9,0.6-0.9,0.6-0.9s-1.6,0-2.9-0.1c-1.3-0.1-1.1-0.1-2.5-0.1c-1.4,0-2.4-0.1-2.4-0.1
					s0.7-1.2,1.2-1.3c0.6-0.1,2.2-0.6,2.2-0.6l1.6-1.7c-1.8,0,0.7,0.8-2.4,0c-3.2-0.8-3.2-0.8-3.2-0.8s-0.7-0.3-0.7-0.7
					s2.4-1.2,2.4-1.2s0.6,0.4,1-0.3c0.5-0.8-0.2-0.2,0.5-0.8c0.7-0.6,1.1-0.9,0.8-1c-0.3-0.1-2.9-0.1-2.9-0.1s-0.4-0.1-1-0.3
					s-1.7-0.6-1.6-1.2c0.1-0.6,1.3-0.8,1.7-0.9c0.4-0.1,2.5-1,2.5-1s0.7-1.1,0.4-1.2c-0.4-0.1-0.7,0-2,0s-2.7,0-2.7,0
					c0-0.8-0.6-0.5-0.1-1.3c0.5-0.8-1.3,0.3,0.5-0.8s1.8-1.1,1.8-1.1l0.2-0.9l-3.1-0.2c0,0,0.6-0.3,0-0.9c-0.6-0.7-0.6,0.5-0.6-0.7
					c0-1.2,0-1.2,0-1.2l3.1-1.8c0,0-2-0.6-2.4-0.6c-0.5,0-1.7,0.2-1.9-0.5c-0.2-0.7-1.2-1-0.2-1.3c1-0.3,1.6-0.3,1.7-0.6
					c0.1-0.3,0-0.4-0.6-0.9s-0.6-0.3-0.6-0.9c0-0.6,0-1.5,0-1.5l-1-0.3c0,0-0.4-0.9-0.4-2c0-1.1-0.2-0.9,0.5-1.6s0.7-0.8,0.7-1.3
					s-1.4-1.3-1.4-1.3s-0.6-0.7-0.4-1.5c0.2-0.8,0.2,0.1,0.2-0.8c0-0.9-0.7-2.7-0.7-2.7L221.6,176.2z"/>
			</g>
		</g>
	</g>
</g>
<g>
	<path class="st5" d="M11,184.1h9.7v2.4h-6.1v1.8h5.6v2.3h-5.6v2.2h6.3v2.5H11V184.1z"/>
	<path class="st5" d="M10.4,206.4l3.5-0.2c0.1,0.5,0.2,0.9,0.5,1.2c0.4,0.5,0.9,0.7,1.6,0.7c0.5,0,0.9-0.1,1.2-0.3
		c0.3-0.2,0.4-0.5,0.4-0.8c0-0.3-0.1-0.5-0.4-0.8c-0.3-0.2-0.9-0.4-1.9-0.6c-1.6-0.3-2.7-0.8-3.4-1.4c-0.7-0.6-1-1.3-1-2.2
		c0-0.6,0.2-1.1,0.5-1.6c0.3-0.5,0.9-0.9,1.6-1.2c0.7-0.3,1.7-0.4,2.9-0.4c1.5,0,2.6,0.3,3.4,0.8c0.8,0.5,1.3,1.4,1.4,2.5l-3.4,0.2
		c-0.1-0.5-0.3-0.9-0.6-1.1c-0.3-0.2-0.7-0.3-1.2-0.3c-0.4,0-0.7,0.1-1,0.3c-0.2,0.2-0.3,0.4-0.3,0.6c0,0.2,0.1,0.3,0.3,0.5
		c0.2,0.1,0.6,0.3,1.2,0.4c1.6,0.3,2.7,0.7,3.4,1c0.7,0.3,1.2,0.7,1.5,1.2c0.3,0.5,0.5,1,0.5,1.7c0,0.7-0.2,1.4-0.6,2
		c-0.4,0.6-1,1.1-1.7,1.4c-0.7,0.3-1.7,0.5-2.8,0.5c-2,0-3.4-0.4-4.1-1.1S10.5,207.5,10.4,206.4z"/>
	<path class="st5" d="M10.2,213.7h11v2.8h-3.7v8.4h-3.6v-8.4h-3.7V213.7z"/>
</g>
<g>
	<path class="st5" d="M277.4,216.7v8.7c-0.8-0.1-1.6-0.4-2.3-0.9c-0.7-0.5-1.6-1.5-2.6-2.9c-0.6-0.9-1.1-1.4-1.4-1.6
		c-0.3-0.2-0.6-0.4-0.9-0.4c-0.3,0-0.6,0.1-0.8,0.4c-0.2,0.2-0.3,0.5-0.3,0.9c0,0.4,0.1,0.7,0.3,0.9c0.2,0.2,0.6,0.4,1.2,0.5
		l-0.2,2.9c-0.8-0.1-1.4-0.3-1.8-0.6c-0.4-0.3-0.8-0.7-1-1.3s-0.4-1.3-0.4-2.3c0-1,0.1-1.8,0.3-2.4c0.2-0.6,0.6-1,1-1.3
		c0.5-0.3,1-0.5,1.5-0.5c0.6,0,1.2,0.2,1.7,0.6c0.6,0.4,1.2,1.1,1.8,2c0.4,0.6,0.7,1,0.8,1.2c0.2,0.2,0.4,0.4,0.6,0.7v-4.6H277.4z"
		/>
	<path class="st5" d="M272.4,213.9c-1.9,0-3.2-0.4-4-1.1c-0.8-0.7-1.1-1.8-1.1-3.3c0-0.7,0.1-1.3,0.2-1.7c0.2-0.5,0.4-0.8,0.6-1.1
		c0.3-0.3,0.5-0.5,0.8-0.7c0.3-0.2,0.6-0.3,1-0.4c0.7-0.2,1.5-0.3,2.3-0.3c1.8,0,3.1,0.3,4,1c0.8,0.6,1.3,1.8,1.3,3.3
		c0,0.9-0.1,1.6-0.4,2.1s-0.7,1-1.2,1.3c-0.4,0.3-0.9,0.4-1.5,0.6S273.2,213.9,272.4,213.9z M272.4,211c1.3,0,2.1-0.1,2.6-0.4
		c0.5-0.2,0.7-0.6,0.7-1c0-0.3-0.1-0.6-0.3-0.8s-0.5-0.4-0.9-0.5c-0.4-0.1-1.1-0.2-2-0.2c-1.3,0-2.2,0.1-2.7,0.4
		c-0.5,0.2-0.7,0.6-0.7,1.1c0,0.5,0.2,0.8,0.7,1C270.3,210.9,271.1,211,272.4,211z"/>
	<path class="st5" d="M277.4,194.2v8.7c-0.8-0.1-1.6-0.4-2.3-0.9c-0.7-0.5-1.6-1.5-2.6-2.9c-0.6-0.9-1.1-1.4-1.4-1.6
		c-0.3-0.2-0.6-0.4-0.9-0.4c-0.3,0-0.6,0.1-0.8,0.4c-0.2,0.2-0.3,0.5-0.3,0.9c0,0.4,0.1,0.7,0.3,0.9c0.2,0.2,0.6,0.4,1.2,0.5
		l-0.2,2.9c-0.8-0.1-1.4-0.3-1.8-0.6c-0.4-0.3-0.8-0.7-1-1.3c-0.2-0.6-0.4-1.3-0.4-2.3c0-1,0.1-1.8,0.3-2.4c0.2-0.6,0.6-1,1-1.3
		c0.5-0.3,1-0.5,1.5-0.5c0.6,0,1.2,0.2,1.7,0.6c0.6,0.4,1.2,1.1,1.8,2c0.4,0.6,0.7,1,0.8,1.2c0.2,0.2,0.4,0.4,0.6,0.7v-4.6H277.4z"
		/>
	<path class="st5" d="M272.4,191.4c-1.9,0-3.2-0.4-4-1.1c-0.8-0.7-1.1-1.8-1.1-3.3c0-0.7,0.1-1.3,0.2-1.7c0.2-0.5,0.4-0.8,0.6-1.1
		c0.3-0.3,0.5-0.5,0.8-0.7c0.3-0.2,0.6-0.3,1-0.4c0.7-0.2,1.5-0.3,2.3-0.3c1.8,0,3.1,0.3,4,1c0.8,0.6,1.3,1.8,1.3,3.3
		c0,0.9-0.1,1.6-0.4,2.1s-0.7,1-1.2,1.3c-0.4,0.3-0.9,0.4-1.5,0.6S273.2,191.4,272.4,191.4z M272.4,188.5c1.3,0,2.1-0.1,2.6-0.4
		c0.5-0.2,0.7-0.6,0.7-1c0-0.3-0.1-0.6-0.3-0.8c-0.2-0.2-0.5-0.4-0.9-0.5c-0.4-0.1-1.1-0.2-2-0.2c-1.3,0-2.2,0.1-2.7,0.4
		c-0.5,0.2-0.7,0.6-0.7,1.1c0,0.5,0.2,0.8,0.7,1C270.3,188.4,271.1,188.5,272.4,188.5z"/>
</g>
<defs>
	<filter id="Adobe_OpacityMaskFilter_2_" filterUnits="userSpaceOnUse" x="1.3" y="14.5" width="285.5" height="156.5">
		<feFlood  style="flood-color:white;flood-opacity:1" result="back"/>
		<feBlend  in="SourceGraphic" in2="back" mode="normal"/>
	</filter>
</defs>
<mask maskUnits="userSpaceOnUse" x="1.3" y="14.5" width="285.5" height="156.5" id="SVGID_5_">
	<g class="st8">
		
			<image style="overflow:visible;" width="4680" height="6000" xlink:href="75F2084BA12E6A87.png"  transform="matrix(0.1115 0 0 0.1159 -48.8351 -57.3452)">
		</image>
	</g>
</mask>
<g class="st9">
	<path class="st2" d="M1.3,169.6l0-23.6l5.4,0l15.8,15.2l0-15.7l5.8,0l-0.1,25.6l-5.6,0L7.1,156l0,13.5L1.3,169.6z"/>
	<path class="st2" d="M2.9,133.1l5.6-21.7l5.6,1.4l-3.5,13.6l4.2,1.1l3.2-12.6l5.3,1.4L20,128.9l5.2,1.3l3.6-13.9l5.9,1.5l-5.7,22
		L2.9,133.1z"/>
	<path class="st2" d="M13.5,98.4l3.9-6.8l18-1.4l-13-7.4l3.9-6.8l23.4,13.4l-3.9,6.8L28,97.7l12.9,7.4l-3.9,6.8L13.5,98.4z"/>
	<path class="st2" d="M47.2,78.4l5.3-6c1,0.8,2,1.2,2.8,1.3c1.4,0.2,2.6-0.3,3.8-1.4c0.8-0.8,1.3-1.7,1.4-2.5
		c0.1-0.9-0.2-1.5-0.7-2.1c-0.5-0.5-1.2-0.7-2-0.7c-0.8,0-2.2,0.7-4.1,1.9c-3.2,2-5.8,3.1-7.9,3.2c-2.1,0.1-3.9-0.5-5.3-2
		c-1-1-1.6-2.2-1.9-3.6c-0.3-1.4-0.1-3,0.5-4.6c0.6-1.6,2-3.5,4-5.4c2.4-2.4,4.8-3.8,6.9-4.2c2.2-0.4,4.4,0.3,6.6,2.1l-5.2,5.9
		c-1-0.7-1.9-1-2.8-0.9c-0.9,0.1-1.7,0.5-2.5,1.4c-0.7,0.7-1.1,1.3-1.1,2s0.1,1.2,0.5,1.6c0.3,0.3,0.7,0.4,1.2,0.4
		c0.5,0,1.4-0.4,2.7-1.3c3.1-2,5.5-3.3,7.2-3.8c1.7-0.5,3.2-0.6,4.6-0.3c1.3,0.3,2.5,1,3.6,2.1c1.2,1.2,2,2.7,2.4,4.4
		c0.4,1.7,0.2,3.4-0.5,5.2c-0.7,1.7-2,3.5-3.8,5.4c-3.3,3.2-6.1,4.9-8.6,4.9C51.5,81.1,49.2,80.2,47.2,78.4z"/>
	<path class="st2" d="M61.6,41.3l7-4.6l14.9,22.5l-7,4.6L61.6,41.3z"/>
	<path class="st2" d="M80.4,29.6L95,23.9c2.4-1,4.5-1.1,6.3-0.4c1.8,0.7,3,1.9,3.7,3.7c0.6,1.5,0.6,2.9,0.1,4.4c-0.3,1-1,1.9-2,2.7
		c2-0.3,3.6-0.1,4.9,0.7c1.3,0.7,2.2,1.9,2.9,3.5c0.5,1.3,0.7,2.6,0.5,3.9c-0.2,1.3-0.7,2.4-1.5,3.4c-0.5,0.6-1.4,1.3-2.6,2
		c-1.7,0.9-2.8,1.5-3.3,1.7l-13.4,5.3L80.4,29.6z M92.1,36.4l3.4-1.3c1.2-0.5,2-1,2.3-1.6c0.3-0.6,0.3-1.3,0-2.1
		c-0.3-0.7-0.8-1.2-1.4-1.4c-0.6-0.2-1.5-0.1-2.7,0.4l-3.4,1.4L92.1,36.4z M96,46.2l4-1.6c1.3-0.5,2.2-1.1,2.5-1.8
		c0.4-0.7,0.4-1.4,0.1-2.2c-0.3-0.7-0.8-1.2-1.5-1.5c-0.7-0.2-1.8-0.1-3.1,0.4L94,41.1L96,46.2z"/>
	<path class="st2" d="M116.4,17.6l8.3-1l2.5,20.2l12.9-1.6l0.8,6.6l-21.2,2.6L116.4,17.6z"/>
	<path class="st2" d="M143.9,14.5l9.2,0.9l4.5,9.6l6.3-8.5l9.2,0.9l-12,14.6L160,43.3l-8.3-0.8l1.1-11.2L143.9,14.5z"/>
	<path class="st2" d="M205.8,48.7l2.7-4.9l11.3,6.3l-5.6,10c-3,0.3-5.4,0.2-7.4-0.2c-2-0.4-4.1-1.2-6.3-2.5c-2.8-1.6-4.8-3.3-6-5.3
		c-1.2-1.9-1.8-4.1-1.7-6.6c0.1-2.4,0.8-4.9,2.2-7.3c1.4-2.6,3.2-4.5,5.3-5.8c2.1-1.3,4.5-1.9,7.1-1.7c2,0.1,4.4,1,7.1,2.5
		c2.6,1.5,4.4,2.8,5.4,4c1,1.2,1.7,2.5,2,4c0.3,1.5,0.2,3.1-0.2,4.8l-7.7-2.7c0.2-1.1,0.1-2-0.3-2.9c-0.4-0.9-1.2-1.6-2.2-2.2
		c-1.6-0.9-3.2-1-4.7-0.5c-1.6,0.6-3,2.1-4.4,4.5c-1.4,2.6-2,4.6-1.6,6.3c0.3,1.6,1.4,2.9,3.1,3.9c0.8,0.5,1.7,0.8,2.5,0.9
		c0.9,0.2,1.9,0.2,3.2,0.2l1.2-2.2L205.8,48.7z"/>
	<path class="st2" d="M217.6,67.9l19.1-19.1l9.8,9.8c1.8,1.8,3.1,3.4,3.7,4.6c0.7,1.3,0.9,2.6,0.6,4.1c-0.3,1.4-1,2.8-2.2,4
		c-1.1,1.1-2.2,1.7-3.4,2.1c-1.2,0.3-2.5,0.3-3.7,0c-0.8-0.2-1.8-0.6-2.8-1.3c0.5,0.9,0.7,1.7,0.8,2.2c0.1,0.4,0,1-0.1,1.9
		c-0.1,0.9-0.2,1.6-0.4,2l-2.7,8.4l-6.7-6.7l2.7-9c0.4-1.2,0.5-2,0.4-2.5c-0.1-0.7-0.5-1.3-1-1.9l-0.5-0.5l-7.7,7.7L217.6,67.9z
		 M234.9,62.4l2.5,2.5c0.3,0.3,0.9,0.7,1.8,1.3c0.5,0.3,1,0.4,1.6,0.4c0.6-0.1,1.1-0.3,1.5-0.7c0.6-0.6,0.9-1.3,0.8-2
		c-0.1-0.7-0.6-1.6-1.7-2.7l-2.6-2.6L234.9,62.4z"/>
	<path class="st2" d="M262.1,77l11.3,19.3l-5,2.9l-7-12.1l-3.7,2.2l6.5,11.2l-4.8,2.8L252.9,92l-4.6,2.7l7.2,12.4l-5.3,3.1
		l-11.5-19.7L262.1,77z"/>
	<path class="st2" d="M278.6,108.8l6.1,21.5l-5.5,1.6l-3.8-13.5l-4.1,1.2l3.5,12.5l-5.3,1.5l-3.5-12.5l-5.1,1.4l3.9,13.9l-5.9,1.7
		l-6.2-21.9L278.6,108.8z"/>
	<path class="st2" d="M286.6,144.1l0.1,7.8l-14.8,10.3l14.9-0.1l0.1,7.9l-27,0.2l-0.1-7.9l14.7-10.2l-14.8,0.1l-0.1-7.8L286.6,144.1
		z"/>
</g>
</svg>
