<?xml version="1.0" encoding="utf-8"?>
<!-- Generator: Adobe Illustrator 24.3.0, SVG Export Plug-In . SVG Version: 6.00 Build 0)  -->
<svg version="1.1" id="Layer_1" xmlns="http://www.w3.org/2000/svg" xmlns:xlink="http://www.w3.org/1999/xlink" x="0px" y="0px"
	 viewBox="0 0 288 288" style="enable-background:new 0 0 288 288;" xml:space="preserve">
<style type="text/css">
	.st0{fill:url(#SVGID_1_);}
	.st1{clip-path:url(#SVGID_3_);}
	.st2{fill:#005236;}
	.st3{clip-path:url(#SVGID_3_);fill:#FFFFFF;}
</style>
<linearGradient id="SVGID_1_" gradientUnits="userSpaceOnUse" x1="144" y1="281.5331" x2="144" y2="4.3229">
	<stop  offset="0" style="stop-color:#BB5127"/>
	<stop  offset="0.3225" style="stop-color:#F8982D"/>
	<stop  offset="0.5902" style="stop-color:#F7DD33"/>
	<stop  offset="0.7978" style="stop-color:#F8982D"/>
	<stop  offset="1" style="stop-color:#BB5127"/>
</linearGradient>
<circle class="st0" cx="144" cy="142.9" r="138.6"/>
<g>
	<defs>
		<circle id="SVGID_2_" cx="144" cy="143.1" r="138.6"/>
	</defs>
	<clipPath id="SVGID_3_">
		<use xlink:href="#SVGID_2_"  style="overflow:visible;"/>
	</clipPath>
	<g class="st1">
		<polygon class="st2" points="-30.8,256.7 -23.7,246.5 -16.4,239.9 -6.4,232.4 -2.4,223.5 5.8,221.6 18.8,218 27.4,210.8 
			33.3,197.8 40,195 41.3,189.5 44.3,185.2 53.6,179.8 59.3,181.7 65.6,174.3 74.8,168.9 77.3,163.4 82.1,163.4 88.6,152.5 
			92.2,150.7 94.7,147 100.8,147 105.2,147 107.5,143.7 110.7,143.7 117,139.3 121.4,129.4 127.9,117.7 130.4,117.7 131.9,121.6 
			136.2,115.4 141.9,102.5 144.9,90.8 153.7,75.9 156.8,67.6 166.4,57.3 174,61.7 178.3,68 191,94.2 197.5,100.8 199.4,106.1 
			201.7,106.1 206.6,113.1 213.4,119.7 215.9,127.7 221,131.6 225.8,138.5 232.7,149.9 235,157 238.8,157 241.3,160.6 245.5,160.6 
			248.2,164.5 251.2,167.9 254.9,167.9 256.8,165.1 259.8,167.3 264.4,179.8 271.8,190.5 273.4,197.5 282.2,210.3 286.2,218 
			293.9,229.3 305.7,247.4 315.3,257.9 320.4,262.1 327.1,268.7 328.3,274.6 330.9,278.4 -30.8,280.5 		"/>
	</g>
	<path class="st3" d="M171.2,164.4v3.2l-1.1,1.1l1.1,1.1l-2.1,1v1.3h2.1v2.5l-1.6,1.5v2.6l-2.1,0.4l-1.3,1.3l3,0.7l-2.2,2.2l2.9,1.3
		v2.1l-3.7-2l-2.2,1.2l2.9,2.9l-1,1h3.2v1.5l-3.4,1.3h-3.2l-0.5,1.8l2.8,1.7v2.5l-1.6,1.6l-3.6-1.2l-2.2-0.8v1.6l2.9,2.9h2.6v2h-2.5
		l-3.1-1.1v1.8l1.5,1.5l1.3,1.3h-1.9h-2.2l-2.2-0.9v1.4l1.8,1.8l2.9,1.6v1.2h-1.5l-1.8-1.1l-2.6-0.8l-1.4-1.4l-1.8,1.1
		c0,0,0.5,1.6,1.2,2.2c0.7,0.6,1.9,1.8,2.2,2.1c0.3,0.3,0.3,1.9,0.3,1.9l0.4,1.3c0,0,0.9-0.5,1.3-0.4c0.4,0.1,1.8,0.4,1.8,0.4
		s0.2,1-0.2,1s-1.3,0-1.7,0s-2.8-1.3-3.5-1.5c-0.7-0.2-3.5-0.9-3.5-0.9h-1.1c0,0-0.7,0.8-0.6,1.1c0.1,0.3,1,1.9,1,1.9s0.6-0.5,1.2,0
		c0.6,0.5,3.4,1.9,3.4,1.9l2.4,1.2l-1.3,2.4l3.7,1.2c0,0-0.7,1.1-1.4,1.2s1.1,0-2.2,0c-3.4,0-1.1,0.8-4.4,0c-3.3-0.8-4-0.8-4-0.8
		s-1.8-2.1-1.2-0.5c0.6,1.7,1.4,2.5,1.4,2.5s-0.6,2.6,2.2,3.4c2.9,0.8,2.4,0.6,3.6,0.9s2.6,0.8,2.6,0.8l-1,0.7h-2.7c0,0-2.1,0.2-3,0
		c-0.8-0.2,0.6,2.2-0.1,2.3s-1.8-0.1-2.4,0c-0.5,0.1-0.5,0.1-0.5,0.1s-0.9,0.1-0.3,0.9c0.5,0.8-1.1-0.8,0.5,0.8
		c1.6,1.6,3.2,1.8,3.2,2.1s1.1,0.5,0,0.8s0.7,0.3-1.1,0.3s-3.9,0-3.9,0s-1.8,2.1-2.7,1.5c-0.8-0.6-1.1-1.2-1.1-1.2s-0.8,1.7-0.8,2
		s-0.6,1.3,1.2,1.5s3.9,1,3.9,1l1.3,0.4l-1,1.1c2.6,1,2.4,0.9,3.2,1c0.8,0.1,3.4,0.5,3.4,0.5c-1.3,0.6-2.6,1-3,1.3
		c-0.4,0.3-0.5,0.8-1.3,0.8c-0.8,0-2.2-0.4-2.8-0.5c-0.5-0.1-0.2-0.1-1.2-0.2c-1-0.1-1.1-0.1-2-0.1s-1.7,0.1-1.7,0.1l-1.6,1.2l3.1,1
		c0,0,1.8,0.2,2.5,0.5c0.6,0.3,0.6,1.4,0.6,1.4c-6.7,0-8.4,0-8.4,0l-0.7,1.4c0,0-0.4,0.5,1,1c1.4,0.5,2.5,0.8,3.5,1
		c1,0.2,0.9,1.2,0.9,1.2l-0.7,1c0,0-2.5-0.4,1.1,0c3.6,0.4,3.8,0.2,4.6-0.6c0.8-0.8-2.7-0.7,1.9-0.6c4.6,0.1,7.4,0.5,7,0.5
		c-0.4,0-3.3,0.9-3.3,0.9l-3.6,0.8l-2.2,0.9h-1.4l-2.1,1.3c0,0-4.4,1.3-4.1,1.5c0.3,0.2-1.2,1,3.5,1.5c4.7,0.5,5.8,0.7,6.1,0.6
		c0.3-0.1,1.2,0.3,3.1,0c1.8-0.2,2.7,0.1,2.7,0.1s0,1.8,0,0.9c0-0.9-1.7,0.7-1.7,0.7h-1.5l-3.6-0.5c0,0-1.8-0.3-2.1-0.2
		c-0.3,0.1-1.3,0.7-1.3,0.7v1.1c0,0,1.6,2.3,2.2,2.4c0.6,0.1,1.6,0.2,2.8,0.4s1.1,0.2,1.1,0.2l-1.8,1.1h-2c0,0-2.2,0-3,0
		c-0.7,0-1.7,0-1.7,0H135c-1.1,1-2.5,1.7-1.8,1.9s-1-0.3,1.2,0.7c2.2,1,4.5,1.8,5.4,1.8s2.7,0,2.7,0s0-0.6,2.9,0s2.1,0.7,4.4,1.3
		s2,1.6,3.9,0.4c1.8-1.2,0-1.2,1.8-1.2c1.8,0,0.4,1.3,3.9,0.3s5.2-1.6,5.2-1.6s1.2-0.4,2.1-0.8c0.9-0.4,1.1-0.4,1.5-0.5
		c0.4-0.1,1.1-1.3,1.2,0s-0.2,3.2-0.3,3.7c-0.1,0.5-0.1,4.8-0.1,4.8v2.2l-0.6,6.4l-1.3,4.7l12.6,1.3l-2-8.2l-1.8-7.4l-1.3-4.4
		l0.1-4.5h1c0,0,0.2,1.1,1.2,1.2c1,0.1,3,0.9,3.7,0.9c0.7,0,2.4,0.7,2.8,1.1s1.5,0.4,1.5,0.4s1.5-1.8,1.8-1.5c0.3,0.3,1.4,2,2.7,2.3
		c1.2,0.3,0.9,1.7,4,1.3s4,0.1,4.2-0.8c0.2-0.9,0.2-0.9,1.5-2.2s0.8-0.2,2.5-1.4c1.7-1.2,1.7-0.5,1.7-1.2c0-0.7,0.7-2-0.9-1.8
		c-1.6,0.2-1.7,0.3-2.7,0.4c-0.9,0.1-1,0.1-3,0.1s-2.7-0.8-2.7-0.8l-0.5-1.6c-0.9-0.9-0.5-1.6,0-1.8c0.5-0.2,0.7-0.2,2.4-0.2
		c1.6,0-0.2,0,1.6,0c1.8,0,3.7,0.1,3.9-0.2c0.2-0.3-1.2-0.3,0.2-0.3c1.4,0-0.3,0.6,1.4,0s2.2,0.9,2.8-0.6c0.5-1.5,1.2-2.2,1.2-2.2
		l-1.8-0.8l-4.9-0.6l-1.1-0.1c0,0,0,0.3-1.4-0.8c-1.4-1.1-1.4-1.1-1.4-1.1s-1.5-1.4-1.1-1.7c0.4-0.3,1-0.3,1-0.3s1.2,0,1.5,0
		c0.3,0,3.8-0.1,3.8-0.1c0-1.6,0.1-1.7-0.8-1.9s-2.7-1.9-2.7-1.9c1.3,0,5.4,0,5.4,0l4-1.4v-1.6c0,0-3.8,0-4.1,0s-2.7-0.1-3.4-0.5
		c-0.7-0.4-4.1-1.9-4.1-1.9l-1.9-0.4l-3.5-1.8c0,0,0.6-1.1,1-1s2.6,0.4,3.5,0.3s1.7-0.1,1.7-0.1l4.1-2.2c0,0-0.6,0.5,1.3,0.1
		c1.9-0.4,2.9-0.4,2.9-0.4s0.6-1,0.3-1.4c-0.3-0.4-1.6-1.1-2-1.2c-0.4-0.1-3.1-0.1-3.1-0.1s-0.8,0-3.3-0.4s-7.1-0.9-7.1-0.9
		s-2-0.6-1-1s2.7-0.1,3.5,0c0.8,0.1,0.1,0.9,0.8,0.1s0.5-1.1,0.2-1.3c-0.3-0.3-0.9,0.4-0.3-0.3s1.3-1.3,1.3-1.3l1-0.6
		c0,0,0.4-0.8-0.9-0.9c-1.3-0.1-3.3-0.7-3.3-0.7l-2.1-0.6c0,0,0.3-1.2,0.6-1.3c0.3-0.1,2,0.3,3.1-0.2c1-0.5,1.6-0.9,1.6-0.9
		s1.5-1.5,0.8-1.8c-0.7-0.3,0.5,1.5-2.8,0s-5.4-1.2-4.9-2.2c0.5-1,0.8-1.9,0.8-1.9l0.3-1.8l0.2-1.5l-3.5-0.1l-3-2.5
		c0,0,0.3-0.5,1.2-0.6s4.1-0.9,4.1-0.9s1.1-1,1.5-2.5c0.4-1.5,1.7-1.5-0.5-1.5c-2.2,0-3.2,0.1-3.2,0.1s-4.9,1.4-3.7-0.4
		c1.2-1.8,3.1-2.2,4.3-2.3c1.2-0.1,1.8,0,2.5-1.1s0.6-1.1,0.6-1.1s-1.7,0-3.2-0.1c-1.4-0.1-1.2-0.1-2.8-0.1s-2.7-0.1-2.7-0.1
		s0.7-1.4,1.3-1.5c0.6-0.1,2.5-0.7,2.5-0.7l1.7-2c-1.9,0,0.8,0.9-2.7,0c-3.5-0.9-3.5-0.9-3.5-0.9s-0.8-0.4-0.7-0.8
		c0.1-0.4,2.7-1.4,2.7-1.4s0.6,0.5,1.1-0.4s-0.2-0.2,0.5-0.9c0.7-0.7,1.2-1.1,0.9-1.2c-0.3-0.1-3.2-0.1-3.2-0.1s-0.4-0.1-1.1-0.3
		s-1.8-0.7-1.7-1.4c0.1-0.7,1.4-0.9,1.8-1s2.8-1.2,2.8-1.2s0.8-1.3,0.4-1.4s-0.7,0-2.2,0c-1.5,0-3,0-3,0c0-0.9-0.6-0.6-0.1-1.5
		c0.5-0.9-1.4,0.4,0.5-0.9c1.9-1.3,1.9-1.3,1.9-1.3l0.2-1.1l-3.4-0.2c0,0,0.6-0.3,0-1.1c-0.6-0.8-0.6,0.6-0.6-0.8c0-1.4,0-1.4,0-1.4
		l3.4-2.1c0,0-2.1-0.7-2.7-0.7c-0.5,0-1.8,0.2-2-0.6c-0.2-0.8-1.3-1.2-0.2-1.5c1.1-0.4,1.7-0.3,1.8-0.7c0.1-0.4,0-0.5-0.6-1.1
		s-0.6-0.4-0.6-1.1c0-0.7,0-1.8,0-1.8l-1.1-0.3c0,0-0.4-1-0.4-2.3c0-1.3-0.2-1.1,0.6-1.9c0.8-0.8,0.8-1,0.8-1.6
		c0-0.6-1.5-1.5-1.5-1.5s-0.7-0.8-0.5-1.7s0.2,0.1,0.2-0.9c0-1-0.8-3.2-0.8-3.2L171.2,164.4z"/>
	<path class="st3" d="M138.9,194v3.1l-0.8,1l0.8,1l-1.5,0.9v1.3h1.5v2.4l-1.1,1.5v2.5l-1.5,0.4l-0.9,1.2l2.2,0.6l-1.6,2.1l2.1,1.2v2
		l-2.7-1.9l-1.6,1.2l2.1,2.8l-0.7,1h2.3v1.4l-2.4,1.3h-2.3l-0.4,1.7l2,1.6v2.4l-1.2,1.5l-2.6-1.2l-1.6-0.8v1.5l2.1,2.8h1.9v1.9h-1.8
		l-2.2-1.1v1.7l1.1,1.5l0.9,1.2h-1.4h-1.6l-1.6-0.8v1.4l1.3,1.7l2.1,1.5v1.2h-1.1l-1.3-1.1l-1.9-0.8l-1-1.4l-1.3,1.1
		c0,0,0.4,1.5,0.9,2.1s1.4,1.7,1.6,2s0.2,1.8,0.2,1.8l0.3,1.3c0,0,0.7-0.5,1-0.4c0.3,0.1,1.3,0.4,1.3,0.4s0.1,1-0.1,1
		c-0.3,0-1,0-1.3,0c-0.3,0-2-1.3-2.5-1.5s-2.5-0.9-2.5-0.9H121c0,0-0.5,0.8-0.4,1.1c0.1,0.3,0.7,1.8,0.7,1.8s0.4-0.5,0.9,0
		c0.4,0.5,2.4,1.8,2.4,1.8l1.7,1.2l-1,2.3l2.7,1.1c0,0-0.5,1-1,1.1c-0.5,0.1,0.8,0-1.6,0c-2.4,0-0.8,0.8-3.2,0
		c-2.4-0.7-2.9-0.7-2.9-0.7s-1.3-2-0.9-0.4c0.4,1.6,1,2.4,1,2.4s-0.4,2.5,1.6,3.3c2.1,0.8,1.7,0.6,2.6,0.9c0.9,0.3,1.9,0.8,1.9,0.8
		l-0.7,0.7h-1.9c0,0-1.6,0.2-2.2,0c-0.6-0.2,0.4,2.1-0.1,2.2c-0.5,0.1-1.3-0.1-1.7,0c-0.4,0.1-0.4,0.1-0.4,0.1s-0.6,0.1-0.2,0.9
		c0.4,0.8-0.8-0.7,0.4,0.8c1.2,1.5,2.3,1.7,2.3,2c0,0.3,0.8,0.5,0,0.8c-0.8,0.3,0.5,0.3-0.8,0.3s-2.8,0-2.8,0s-1.3,2-1.9,1.5
		c-0.6-0.6-0.8-1.2-0.8-1.2s-0.6,1.6-0.6,1.9s-0.4,1.3,0.9,1.5c1.3,0.2,2.8,1,2.8,1l1,0.4l-0.7,1.1c1.9,1,1.7,0.9,2.3,1
		c0.6,0.1,2.4,0.5,2.4,0.5c-1,0.6-1.9,1-2.2,1.3s-0.4,0.8-1,0.8s-1.6-0.4-2-0.5c-0.4-0.1-0.1-0.1-0.9-0.2s-0.8-0.1-1.5-0.1
		c-0.7,0-1.3,0.1-1.3,0.1l-1.2,1.2l2.2,1c0,0,1.3,0.2,1.8,0.5s0.4,1.4,0.4,1.4c-4.9,0-6.1,0-6.1,0l-0.5,1.4c0,0-0.3,0.5,0.7,1
		c1,0.5,1.8,0.8,2.5,1c0.7,0.2,0.7,1.2,0.7,1.2l-0.5,1c0,0-1.8-0.4,0.8,0c2.6,0.4,2.7,0.2,3.3-0.6s-1.9-0.7,1.4-0.6
		c3.3,0.1,5.4,0.5,5.1,0.5s-2.4,0.9-2.4,0.9l-2.6,0.8l-1.6,0.9h-1l-1.6,1.3c0,0-3.2,1.3-3,1.5c0.2,0.2-0.9,1,2.5,1.5
		c3.4,0.5,4.2,0.7,4.5,0.6c0.2-0.1,0.9,0.2,2.2,0c1.3-0.2,1.9,0.1,1.9,0.1s0,1.7,0,0.9c0-0.9-1.3,0.7-1.3,0.7h-1.1l-2.6-0.5
		c0,0-1.3-0.3-1.6-0.2s-1,0.7-1,0.7v1.1c0,0,1.2,2.2,1.6,2.3c0.4,0.1,1.2,0.2,2,0.4c0.8,0.2,0.8,0.2,0.8,0.2l-1.3,1.1h-1.5
		c0,0-1.6,0-2.2,0s-1.3,0-1.3,0h-1.9c-0.8,1-1.8,1.6-1.3,1.8c0.4,0.2-0.7-0.3,0.9,0.7c1.6,1,3.3,1.7,3.9,1.7s1.9,0,1.9,0
		s0-0.6,2.1,0c2.1,0.6,1.6,0.7,3.2,1.3c1.6,0.6,1.5,1.5,2.8,0.4c1.3-1.2,0-1.2,1.3-1.2c1.3,0,0.3,1.3,2.8,0.3c2.5-1,3.8-1.5,3.8-1.5
		s0.9-0.4,1.6-0.8s0.8-0.4,1.1-0.5c0.3-0.1,0.8-1.3,0.9,0c0.1,1.3-0.1,3.1-0.2,3.6c-0.1,0.5-0.1,4.5-0.1,4.5v2.1l-0.4,6.2l-1,4.5
		l9.1,1.3l-1.5-7.8l-1.3-7.1l-1-4.2l0.1-4.3h0.7c0,0,0.1,1.1,0.9,1.1s2.2,0.8,2.7,0.8c0.5,0,1.7,0.7,2,1.1s1.1,0.4,1.1,0.4
		s1.1-1.7,1.3-1.5c0.2,0.3,1,1.9,1.9,2.2s0.7,1.6,2.9,1.3c2.2-0.4,2.9,0.1,3-0.8s0.1-0.8,1.1-2.1s0.6-0.1,1.8-1.3
		c1.3-1.2,1.3-0.5,1.3-1.2c0-0.7,0.5-1.9-0.7-1.7c-1.2,0.2-1.3,0.3-1.9,0.4s-0.7,0.1-2.2,0.1s-2-0.7-2-0.7l-0.3-1.5
		c-0.7-0.9-0.4-1.5,0-1.7c0.4-0.2,0.5-0.2,1.7-0.2s-0.1,0,1.2,0s2.7,0.1,2.8-0.2s-0.9-0.3,0.1-0.3c1,0-0.2,0.6,1,0
		c1.3-0.6,1.6,0.9,2-0.6s0.9-2.1,0.9-2.1l-1.3-0.7l-3.6-0.6l-0.8-0.1c0,0,0,0.3-1-0.8s-1-1.1-1-1.1s-1.1-1.4-0.8-1.6
		s0.7-0.3,0.7-0.3s0.9,0,1.1,0s2.7-0.1,2.7-0.1c0-1.5,0.1-1.6-0.6-1.8c-0.7-0.2-1.9-1.8-1.9-1.8c1,0,3.9,0,3.9,0l2.9-1.4V281
		c0,0-2.7,0-3,0s-1.9-0.1-2.4-0.5s-3-1.8-3-1.8l-1.4-0.4l-2.5-1.7c0,0,0.4-1.1,0.7-1c0.3,0.1,1.9,0.4,2.5,0.3
		c0.7-0.1,1.3-0.1,1.3-0.1l3-2.1c0,0-0.4,0.5,1,0.1c1.4-0.4,2.1-0.4,2.1-0.4s0.4-1,0.2-1.4s-1.2-1.1-1.5-1.2
		c-0.3-0.1-2.2-0.1-2.2-0.1s-0.6,0-2.4-0.4s-5.1-0.9-5.1-0.9s-1.5-0.6-0.7-1s1.9-0.1,2.5,0c0.6,0.1,0,0.8,0.6,0.1s0.3-1,0.1-1.3
		c-0.2-0.2-0.6,0.3-0.2-0.2c0.4-0.6,0.9-1.2,0.9-1.2l0.7-0.6c0,0,0.3-0.8-0.6-0.8s-2.4-0.6-2.4-0.6l-1.6-0.6c0,0,0.2-1.2,0.4-1.3
		s1.5,0.3,2.2-0.2c0.7-0.5,1.2-0.9,1.2-0.9s1.1-1.5,0.6-1.7c-0.5-0.2,0.4,1.4-2,0c-2.4-1.4-3.9-1.1-3.6-2.1c0.4-1,0.6-1.8,0.6-1.8
		l0.2-1.7l0.1-1.4l-2.5-0.1l-2.2-2.4c0,0,0.2-0.5,0.9-0.6c0.7-0.1,3-0.9,3-0.9s0.8-1,1.1-2.4c0.3-1.5,1.3-1.5-0.4-1.5
		s-2.3,0.1-2.3,0.1s-3.6,1.4-2.7-0.4s2.2-2.1,3.1-2.2c0.9-0.1,1.3,0,1.8-1.1c0.4-1.1,0.4-1.1,0.4-1.1s-1.3,0-2.3-0.1
		c-1-0.1-0.9-0.1-2-0.1s-1.9-0.1-1.9-0.1s0.5-1.4,1-1.5c0.4-0.1,1.8-0.7,1.8-0.7l1.3-1.9c-1.4,0,0.6,0.9-1.9,0
		c-2.5-0.9-2.5-0.9-2.5-0.9s-0.6-0.4-0.5-0.8s1.9-1.4,1.9-1.4s0.4,0.5,0.8-0.4c0.4-0.9-0.1-0.2,0.4-0.9c0.5-0.7,0.9-1.1,0.7-1.2
		c-0.2-0.1-2.3-0.1-2.3-0.1s-0.3-0.1-0.8-0.3c-0.5-0.2-1.3-0.7-1.3-1.4c0.1-0.7,1-0.9,1.3-1c0.3-0.1,2-1.2,2-1.2s0.6-1.3,0.3-1.4
		c-0.3-0.1-0.5,0-1.6,0c-1.1,0-2.2,0-2.2,0c0-0.9-0.4-0.6-0.1-1.5c0.4-0.9-1,0.4,0.4-0.9c1.4-1.3,1.4-1.3,1.4-1.3l0.1-1.1l-2.4-0.2
		c0,0,0.4-0.3,0-1.1s-0.4,0.6-0.4-0.8s0-1.4,0-1.4l2.4-2c0,0-1.6-0.7-1.9-0.7s-1.3,0.2-1.5-0.6s-0.9-1.1-0.1-1.5s1.3-0.3,1.3-0.7
		s0-0.5-0.4-1.1s-0.4-0.4-0.4-1.1c0-0.7,0-1.7,0-1.7l-0.8-0.3c0,0-0.3-1-0.3-2.2c0-1.3-0.1-1.1,0.4-1.8s0.6-0.9,0.6-1.5
		s-1.1-1.5-1.1-1.5s-0.5-0.8-0.4-1.6c0.1-0.9,0.1,0.1,0.1-0.9s-0.6-3.1-0.6-3.1L138.9,194z"/>
	<path class="st3" d="M168.6,204.8v3.1l-0.8,1l0.8,1l-1.5,0.9v1.3h1.5v2.4l-1.1,1.5v2.5L166,219l-0.9,1.2l2.2,0.6l-1.6,2.1l2.1,1.2
		v2l-2.7-1.9l-1.6,1.2l2.1,2.8l-0.7,1h2.3v1.4l-2.4,1.3h-2.3l-0.4,1.7l2,1.6v2.4l-1.2,1.5l-2.6-1.2l-1.6-0.8v1.5l2.1,2.8h1.9v1.9
		h-1.8l-2.2-1.1v1.7l1.1,1.5l0.9,1.2h-1.4h-1.6l-1.6-0.8v1.4l1.3,1.7l2.1,1.5v1.2h-1.1l-1.3-1.1l-1.9-0.8l-1-1.4l-1.3,1.1
		c0,0,0.4,1.5,0.9,2.1s1.4,1.7,1.6,2c0.2,0.2,0.2,1.8,0.2,1.8l0.3,1.3c0,0,0.7-0.5,1-0.4s1.3,0.4,1.3,0.4s0.1,1-0.1,1s-1,0-1.3,0
		s-2-1.3-2.5-1.5c-0.5-0.2-2.5-0.9-2.5-0.9h-0.8c0,0-0.5,0.8-0.4,1.1c0.1,0.3,0.7,1.8,0.7,1.8s0.4-0.5,0.9,0s2.4,1.8,2.4,1.8
		l1.7,1.2l-1,2.3l2.7,1.1c0,0-0.5,1-1,1.1c-0.5,0.1,0.8,0-1.6,0c-2.4,0-0.8,0.8-3.2,0s-2.9-0.7-2.9-0.7s-1.3-2-0.9-0.4
		c0.4,1.6,1,2.4,1,2.4s-0.4,2.5,1.6,3.3s1.7,0.6,2.6,0.9c0.9,0.3,1.9,0.8,1.9,0.8l-0.7,0.7h-1.9c0,0-1.6,0.2-2.2,0
		c-0.6-0.2,0.4,2.1-0.1,2.2s-1.3-0.1-1.7,0s-0.4,0.1-0.4,0.1s-0.6,0.1-0.2,0.9s-0.8-0.7,0.4,0.8c1.2,1.5,2.3,1.7,2.3,2
		s0.8,0.5,0,0.8s0.5,0.3-0.8,0.3s-2.8,0-2.8,0s-1.3,2-1.9,1.5c-0.6-0.6-0.8-1.2-0.8-1.2s-0.6,1.6-0.6,1.9c0,0.3-0.4,1.3,0.9,1.5
		c1.3,0.2,2.8,1,2.8,1l1,0.4l-0.7,1.1c1.9,1,1.7,0.9,2.3,1c0.6,0.1,2.4,0.5,2.4,0.5c-1,0.6-1.9,1-2.2,1.3s-0.4,0.8-1,0.8
		s-1.6-0.4-2-0.5c-0.4-0.1-0.1-0.1-0.9-0.2c-0.7-0.1-0.8-0.1-1.5-0.1s-1.3,0.1-1.3,0.1l-1.2,1.2l2.2,1c0,0,1.3,0.2,1.8,0.5
		s0.4,1.4,0.4,1.4c-4.9,0-6.1,0-6.1,0l-0.5,1.4c0,0-0.3,0.5,0.7,1c1,0.5,1.8,0.8,2.5,1c0.7,0.2,0.7,1.2,0.7,1.2l-0.5,1
		c0,0-1.8-0.4,0.8,0c2.6,0.4,2.7,0.2,3.3-0.6s-1.9-0.7,1.4-0.6c3.3,0.1,5.4,0.5,5.1,0.5c-0.3,0-2.4,0.9-2.4,0.9l-2.6,0.8l-1.6,0.9
		h-1l-1.6,1.3c0,0-3.2,1.3-3,1.5c0.2,0.2-0.9,1,2.5,1.5c3.4,0.5,4.2,0.7,4.5,0.6c0.2-0.1,0.9,0.2,2.2,0c1.3-0.2,1.9,0.1,1.9,0.1
		s0,1.7,0,0.9s-1.3,0.7-1.3,0.7h-1.1l-2.6-0.5c0,0-1.3-0.3-1.6-0.2c-0.2,0.1-1,0.7-1,0.7v1.1c0,0,1.2,2.2,1.6,2.3
		c0.4,0.1,1.2,0.2,2,0.4c0.8,0.2,0.8,0.2,0.8,0.2l-1.3,1.1h-1.5c0,0-1.6,0-2.2,0s-1.3,0-1.3,0h-1.9c-0.8,1-1.8,1.6-1.3,1.8
		c0.4,0.2-0.7-0.3,0.9,0.7c1.6,1,3.3,1.7,3.9,1.7s1.9,0,1.9,0s0-0.6,2.1,0c2.1,0.6,1.6,0.7,3.2,1.3c1.6,0.6,1.5,1.5,2.8,0.4
		c1.3-1.2,0-1.2,1.3-1.2s0.3,1.3,2.8,0.3c2.5-1,3.8-1.5,3.8-1.5s0.9-0.4,1.6-0.8s0.8-0.4,1.1-0.5c0.3-0.1,0.8-1.3,0.9,0
		c0.1,1.3-0.1,3.1-0.2,3.6s-0.1,4.5-0.1,4.5v2.1l-0.4,6.2l-1,4.5l9.1,1.3l-1.5-7.8l-1.3-7.1l-1-4.2l0.1-4.3h0.7c0,0,0.1,1.1,0.9,1.1
		c0.7,0,2.2,0.8,2.7,0.8s1.7,0.7,2,1.1s1.1,0.4,1.1,0.4s1.1-1.7,1.3-1.5c0.2,0.3,1,1.9,1.9,2.2c0.9,0.3,0.7,1.6,2.9,1.3
		s2.9,0.1,3-0.8c0.1-0.9,0.1-0.8,1.1-2.1c1-1.3,0.6-0.1,1.8-1.3s1.3-0.5,1.3-1.2s0.5-1.9-0.7-1.7c-1.2,0.2-1.3,0.3-1.9,0.4
		c-0.7,0.1-0.7,0.1-2.2,0.1c-1.4,0-2-0.7-2-0.7l-0.3-1.5c-0.7-0.9-0.4-1.5,0-1.7c0.4-0.2,0.5-0.2,1.7-0.2s-0.1,0,1.2,0
		c1.3,0,2.7,0.1,2.8-0.2c0.1-0.3-0.9-0.3,0.1-0.3s-0.2,0.6,1,0c1.3-0.6,1.6,0.9,2-0.6s0.9-2.1,0.9-2.1l-1.3-0.7l-3.6-0.6l-0.8-0.1
		c0,0,0,0.3-1-0.8c-1-1.1-1-1.1-1-1.1s-1.1-1.4-0.8-1.6s0.7-0.3,0.7-0.3s0.9,0,1.1,0c0.2,0,2.7-0.1,2.7-0.1c0-1.5,0.1-1.6-0.6-1.8
		c-0.7-0.2-1.9-1.8-1.9-1.8c1,0,3.9,0,3.9,0l2.9-1.4v-1.5c0,0-2.7,0-3,0s-1.9-0.1-2.4-0.5s-3-1.8-3-1.8l-1.4-0.4l-2.5-1.7
		c0,0,0.4-1.1,0.7-1s1.9,0.4,2.5,0.3s1.3-0.1,1.3-0.1l3-2.1c0,0-0.4,0.5,1,0.1s2.1-0.4,2.1-0.4s0.4-1,0.2-1.4s-1.2-1.1-1.5-1.2
		s-2.2-0.1-2.2-0.1s-0.6,0-2.4-0.4c-1.8-0.4-5.1-0.9-5.1-0.9s-1.5-0.6-0.7-1s1.9-0.1,2.5,0s0,0.8,0.6,0.1s0.3-1,0.1-1.3
		s-0.6,0.3-0.2-0.2c0.4-0.6,0.9-1.2,0.9-1.2l0.7-0.6c0,0,0.3-0.8-0.6-0.8s-2.4-0.6-2.4-0.6l-1.6-0.6c0,0,0.2-1.2,0.4-1.3
		c0.2-0.1,1.5,0.3,2.2-0.2s1.2-0.9,1.2-0.9s1.1-1.5,0.6-1.7c-0.5-0.2,0.4,1.4-2,0c-2.4-1.4-3.9-1.1-3.6-2.1c0.4-1,0.6-1.8,0.6-1.8
		l0.2-1.7l0.1-1.4l-2.5-0.1l-2.2-2.4c0,0,0.2-0.5,0.9-0.6s3-0.9,3-0.9s0.8-1,1.1-2.4c0.3-1.5,1.3-1.5-0.4-1.5
		c-1.6,0-2.3,0.1-2.3,0.1s-3.6,1.4-2.7-0.4c0.9-1.7,2.2-2.1,3.1-2.2c0.9-0.1,1.3,0,1.8-1.1c0.4-1.1,0.4-1.1,0.4-1.1s-1.3,0-2.3-0.1
		c-1-0.1-0.9-0.1-2-0.1s-1.9-0.1-1.9-0.1s0.5-1.4,1-1.5c0.4-0.1,1.8-0.7,1.8-0.7l1.3-1.9c-1.4,0,0.6,0.9-1.9,0
		c-2.5-0.9-2.5-0.9-2.5-0.9s-0.6-0.4-0.5-0.8s1.9-1.4,1.9-1.4s0.4,0.5,0.8-0.4c0.4-0.9-0.1-0.2,0.4-0.9c0.5-0.7,0.9-1.1,0.7-1.2
		c-0.2-0.1-2.3-0.1-2.3-0.1s-0.3-0.1-0.8-0.3s-1.3-0.7-1.3-1.4c0.1-0.7,1-0.9,1.3-1c0.3-0.1,2-1.2,2-1.2s0.6-1.3,0.3-1.4
		c-0.3-0.1-0.5,0-1.6,0s-2.2,0-2.2,0c0-0.9-0.4-0.6-0.1-1.5c0.4-0.9-1,0.4,0.4-0.9c1.4-1.3,1.4-1.3,1.4-1.3l0.1-1.1l-2.4-0.2
		c0,0,0.4-0.3,0-1.1s-0.4,0.6-0.4-0.8s0-1.4,0-1.4l2.4-2c0,0-1.6-0.7-1.9-0.7s-1.3,0.2-1.5-0.6c-0.1-0.8-0.9-1.1-0.1-1.5
		c0.8-0.3,1.3-0.3,1.3-0.7s0-0.5-0.4-1.1s-0.4-0.4-0.4-1.1c0-0.7,0-1.7,0-1.7l-0.8-0.3c0,0-0.3-1-0.3-2.2c0-1.3-0.1-1.1,0.4-1.8
		c0.6-0.7,0.6-0.9,0.6-1.5s-1.1-1.5-1.1-1.5s-0.5-0.8-0.4-1.6c0.1-0.9,0.1,0.1,0.1-0.9s-0.6-3.1-0.6-3.1L168.6,204.8z"/>
	<path class="st3" d="M55,201v2.5l-0.6,0.8l0.6,0.8l-1.2,0.8v1H55v2l-0.9,1.2v2l-1.2,0.3l-0.8,1l1.8,0.5l-1.3,1.7l1.7,1v1.7
		l-2.2-1.6l-1.3,1l1.7,2.3l-0.6,0.8h1.9v1.1l-2,1H50l-0.3,1.4l1.6,1.3v2l-1,1.3l-2.1-1l-1.3-0.6v1.3l1.7,2.3h1.6v1.5h-1.5l-1.8-0.9
		v1.4l0.9,1.2l0.8,1h-1.1h-1.3l-1.3-0.7v1.1l1.1,1.4l1.7,1.2v1h-0.9l-1.1-0.9l-1.5-0.6l-0.9-1.1l-1.1,0.9c0,0,0.3,1.3,0.7,1.7
		c0.4,0.5,1.2,1.4,1.3,1.6c0.2,0.2,0.2,1.5,0.2,1.5l0.2,1c0,0,0.5-0.4,0.8-0.3s1.1,0.3,1.1,0.3s0.1,0.8-0.1,0.8s-0.8,0-1,0
		s-1.6-1-2.1-1.2c-0.4-0.2-2.1-0.7-2.1-0.7h-0.7c0,0-0.4,0.6-0.4,0.9c0.1,0.2,0.6,1.5,0.6,1.5s0.4-0.4,0.7,0s2,1.5,2,1.5l1.4,1
		L44,249l2.2,0.9c0,0-0.4,0.8-0.9,0.9c-0.4,0.1,0.7,0-1.3,0s-0.7,0.6-2.6,0c-1.9-0.6-2.4-0.6-2.4-0.6s-1.1-1.7-0.7-0.4
		s0.9,1.9,0.9,1.9s-0.4,2.1,1.3,2.7c1.7,0.6,1.4,0.5,2.1,0.7s1.5,0.6,1.5,0.6l-0.6,0.6h-1.6c0,0-1.3,0.2-1.8,0s0.4,1.7-0.1,1.8
		c-0.4,0.1-1.1-0.1-1.4,0c-0.3,0.1-0.3,0.1-0.3,0.1s-0.5,0.1-0.2,0.7c0.3,0.6-0.6-0.6,0.3,0.6s1.9,1.4,1.9,1.7c0,0.2,0.7,0.4,0,0.6
		c-0.7,0.2,0.4,0.2-0.7,0.2c-1.1,0-2.3,0-2.3,0s-1.1,1.7-1.6,1.2c-0.5-0.5-0.7-1-0.7-1s-0.5,1.3-0.5,1.6c0,0.2-0.4,1,0.7,1.2
		s2.3,0.8,2.3,0.8l0.8,0.3l-0.6,0.9c1.5,0.8,1.4,0.7,1.9,0.8c0.5,0.1,2,0.4,2,0.4c-0.8,0.5-1.5,0.8-1.8,1c-0.2,0.2-0.3,0.6-0.8,0.6
		c-0.5,0-1.3-0.3-1.6-0.4c-0.3-0.1-0.1-0.1-0.7-0.2c-0.6-0.1-0.7-0.1-1.2-0.1s-1,0.1-1,0.1l-1,1l1.8,0.8c0,0,1.1,0.2,1.5,0.4
		c0.4,0.2,0.4,1.1,0.4,1.1c-4,0-5,0-5,0l-0.4,1.1c0,0-0.2,0.4,0.6,0.8c0.9,0.4,1.5,0.6,2.1,0.8s0.5,1,0.5,1l-0.4,0.8
		c0,0-1.5-0.3,0.7,0s2.3,0.2,2.7-0.5c0.5-0.6-1.6-0.6,1.2-0.5c2.7,0.1,4.4,0.4,4.2,0.4s-1.9,0.7-1.9,0.7l-2.1,0.6l-1.3,0.7h-0.9
		l-1.3,1c0,0-2.6,1-2.4,1.2c0.2,0.2-0.7,0.8,2.1,1.2c2.8,0.4,3.5,0.6,3.7,0.5c0.2-0.1,0.7,0.2,1.8,0c1.1-0.2,1.6,0.1,1.6,0.1
		s0,1.4,0,0.7c0-0.7-1,0.6-1,0.6h-0.9l-2.1-0.4c0,0-1.1-0.2-1.3-0.2c-0.2,0.1-0.8,0.6-0.8,0.6v0.9c0,0,1,1.8,1.3,1.9
		c0.4,0.1,1,0.2,1.6,0.3s0.7,0.2,0.7,0.2l-1.1,0.9h-1.2c0,0-1.3,0-1.8,0c-0.4,0-1,0-1,0h-1.5c-0.7,0.8-1.5,1.3-1.1,1.5
		s-0.6-0.2,0.7,0.6c1.3,0.8,2.7,1.4,3.2,1.4c0.5,0,1.6,0,1.6,0s0-0.5,1.7,0c1.7,0.5,1.3,0.6,2.6,1c1.3,0.5,1.2,1.3,2.3,0.3
		c1.1-1,0-1,1.1-1c1.1,0,0.2,1,2.3,0.2c2.1-0.8,3.1-1.3,3.1-1.3s0.7-0.3,1.3-0.6s0.7-0.3,0.9-0.4c0.2-0.1,0.7-1,0.7,0
		c0.1,1-0.1,2.5-0.2,2.9c-0.1,0.4-0.1,3.7-0.1,3.7v1.7l-0.4,5l-0.8,3.7l7.5,1l-1.2-6.4l-1.1-5.8l-0.8-3.4l0.1-3.5h0.6
		c0,0,0.1,0.9,0.7,0.9s1.8,0.7,2.2,0.7c0.4,0,1.4,0.6,1.6,0.9s0.9,0.3,0.9,0.3s0.9-1.4,1.1-1.2c0.2,0.2,0.9,1.6,1.6,1.8
		c0.7,0.2,0.5,1.3,2.4,1s2.4,0.1,2.5-0.6c0.1-0.7,0.1-0.7,0.9-1.7c0.8-1,0.5-0.1,1.5-1.1c1-1,1-0.4,1-1c0-0.6,0.4-1.6-0.5-1.4
		c-1,0.2-1,0.2-1.6,0.3c-0.5,0.1-0.6,0.1-1.8,0.1s-1.6-0.6-1.6-0.6l-0.3-1.2c-0.5-0.7-0.3-1.3,0-1.4c0.3-0.2,0.4-0.2,1.4-0.2
		s-0.1,0,1,0c1.1,0,2.2,0.1,2.3-0.2c0.1-0.2-0.7-0.2,0.1-0.2c0.9,0-0.2,0.5,0.9,0c1-0.5,1.3,0.7,1.6-0.5c0.3-1.2,0.7-1.7,0.7-1.7
		l-1.1-0.6l-2.9-0.5l-0.7-0.1c0,0,0,0.2-0.9-0.6c-0.9-0.9-0.9-0.9-0.9-0.9s-0.9-1.1-0.7-1.3c0.2-0.2,0.6-0.2,0.6-0.2s0.7,0,0.9,0
		s2.3-0.1,2.3-0.1c0-1.3,0.1-1.3-0.5-1.5c-0.5-0.2-1.6-1.5-1.6-1.5c0.8,0,3.2,0,3.2,0l2.4-1.1v-1.3c0,0-2.3,0-2.4,0s-1.6-0.1-2-0.4
		c-0.4-0.3-2.4-1.5-2.4-1.5l-1.2-0.3l-2.1-1.4c0,0,0.4-0.9,0.6-0.8c0.2,0.1,1.5,0.3,2.1,0.2c0.5-0.1,1-0.1,1-0.1l2.4-1.7
		c0,0-0.4,0.4,0.8,0.1s1.7-0.3,1.7-0.3s0.4-0.8,0.2-1.1s-1-0.9-1.2-1c-0.2-0.1-1.8-0.1-1.8-0.1s-0.5,0-1.9-0.3s-4.2-0.7-4.2-0.7
		s-1.2-0.5-0.6-0.8c0.6-0.3,1.6-0.1,2.1,0c0.5,0.1,0,0.7,0.5,0.1c0.5-0.6,0.3-0.8,0.1-1s-0.5,0.3-0.2-0.2c0.4-0.5,0.8-1,0.8-1
		l0.6-0.5c0,0,0.2-0.6-0.5-0.7s-2-0.5-2-0.5l-1.3-0.5c0,0,0.2-1,0.4-1c0.2-0.1,1.2,0.2,1.8-0.2c0.6-0.4,1-0.7,1-0.7s0.9-1.2,0.5-1.4
		c-0.4-0.2,0.3,1.1-1.6,0c-1.9-1.1-3.2-0.9-2.9-1.7c0.3-0.8,0.5-1.5,0.5-1.5l0.2-1.4l0.1-1.1l-2.1-0.1l-1.8-2c0,0,0.2-0.4,0.7-0.5
		s2.4-0.7,2.4-0.7s0.7-0.8,0.9-2c0.2-1.2,1-1.2-0.3-1.2c-1.3,0-1.9,0.1-1.9,0.1s-2.9,1.1-2.2-0.3s1.8-1.7,2.6-1.8s1.1,0,1.5-0.9
		c0.4-0.9,0.4-0.9,0.4-0.9s-1,0-1.9-0.1s-0.7-0.1-1.6-0.1c-0.9,0-1.6-0.1-1.6-0.1s0.4-1.1,0.8-1.2s1.5-0.6,1.5-0.6l1-1.6
		c-1.2,0,0.5,0.7-1.6,0c-2.1-0.7-2.1-0.7-2.1-0.7s-0.5-0.3-0.4-0.6c0.1-0.3,1.6-1.1,1.6-1.1s0.4,0.4,0.7-0.3
		c0.3-0.7-0.1-0.2,0.3-0.7s0.7-0.9,0.5-1c-0.2-0.1-1.9-0.1-1.9-0.1s-0.2-0.1-0.7-0.2s-1.1-0.6-1-1.1c0.1-0.6,0.9-0.7,1.1-0.8
		c0.2-0.1,1.6-1,1.6-1s0.5-1,0.2-1.1s-0.4,0-1.3,0s-1.8,0-1.8,0c0-0.7-0.4-0.5-0.1-1.2c0.3-0.7-0.9,0.3,0.3-0.7s1.2-1,1.2-1l0.1-0.9
		l-2-0.2c0,0,0.4-0.2,0-0.9s-0.4,0.5-0.4-0.6s0-1.1,0-1.1l2-1.7c0,0-1.3-0.6-1.6-0.6c-0.3,0-1.1,0.2-1.2-0.5s-0.8-0.9-0.1-1.2
		c0.6-0.3,1-0.2,1.1-0.6c0.1-0.3,0-0.4-0.4-0.9s-0.4-0.3-0.4-0.9s0-1.4,0-1.4l-0.7-0.2c0,0-0.2-0.8-0.2-1.8s-0.1-0.9,0.3-1.5
		c0.5-0.6,0.5-0.8,0.5-1.2s-0.9-1.2-0.9-1.2s-0.4-0.6-0.3-1.3c0.1-0.7,0.1,0.1,0.1-0.7s-0.5-2.5-0.5-2.5L55,201z"/>
	<path class="st3" d="M24.2,186.3v2.5l-0.6,0.8l0.6,0.8l-1.2,0.8v1h1.2v2l-0.9,1.2v2l-1.2,0.3l-0.8,1l1.8,0.5l-1.3,1.7l1.7,1v1.7
		l-2.2-1.6l-1.3,1l1.7,2.3l-0.6,0.8h1.9v1.1l-2,1h-1.9l-0.3,1.4l1.6,1.3v2l-1,1.3l-2.1-1l-1.3-0.6v1.3l1.7,2.3h1.6v1.5h-1.5
		l-1.8-0.9v1.4l0.9,1.2l0.8,1h-1.1h-1.3l-1.3-0.7v1.1l1.1,1.4l1.7,1.2v1h-0.9l-1.1-0.9l-1.5-0.6l-0.9-1.1l-1.1,0.9
		c0,0,0.3,1.3,0.7,1.7c0.4,0.5,1.2,1.4,1.3,1.6c0.2,0.2,0.2,1.5,0.2,1.5l0.2,1c0,0,0.5-0.4,0.8-0.3s1.1,0.3,1.1,0.3s0.1,0.8-0.1,0.8
		s-0.8,0-1,0s-1.6-1-2.1-1.2s-2.1-0.7-2.1-0.7H9.6c0,0-0.4,0.6-0.4,0.9s0.6,1.5,0.6,1.5s0.4-0.4,0.7,0c0.4,0.4,2,1.5,2,1.5l1.4,1
		l-0.8,1.9l2.2,0.9c0,0-0.4,0.8-0.9,0.9s0.7,0-1.3,0s-0.7,0.6-2.6,0s-2.4-0.6-2.4-0.6s-1.1-1.7-0.7-0.4c0.4,1.3,0.9,1.9,0.9,1.9
		s-0.4,2.1,1.3,2.7s1.4,0.5,2.1,0.7c0.7,0.2,1.5,0.6,1.5,0.6l-0.6,0.6h-1.6c0,0-1.3,0.2-1.8,0c-0.5-0.2,0.4,1.7-0.1,1.8
		s-1.1-0.1-1.4,0c-0.3,0.1-0.3,0.1-0.3,0.1s-0.5,0.1-0.2,0.7s-0.6-0.6,0.3,0.6c0.9,1.2,1.9,1.4,1.9,1.7s0.7,0.4,0,0.6
		c-0.7,0.2,0.4,0.2-0.7,0.2s-2.3,0-2.3,0s-1.1,1.7-1.6,1.2s-0.7-1-0.7-1s-0.5,1.3-0.5,1.6s-0.4,1,0.7,1.2s2.3,0.8,2.3,0.8l0.8,0.3
		l-0.6,0.9c1.5,0.8,1.4,0.7,1.9,0.8c0.5,0.1,2,0.4,2,0.4c-0.8,0.5-1.5,0.8-1.8,1s-0.3,0.6-0.8,0.6c-0.5,0-1.3-0.3-1.6-0.4
		c-0.3-0.1-0.1-0.1-0.7-0.2s-0.7-0.1-1.2-0.1s-1,0.1-1,0.1l-1,1l1.8,0.8c0,0,1.1,0.2,1.5,0.4c0.4,0.2,0.4,1.1,0.4,1.1c-4,0-5,0-5,0
		l-0.4,1.1c0,0-0.2,0.4,0.6,0.8c0.9,0.4,1.5,0.6,2.1,0.8s0.5,1,0.5,1l-0.4,0.8c0,0-1.5-0.3,0.7,0s2.3,0.2,2.7-0.5s-1.6-0.6,1.2-0.5
		c2.7,0.1,4.4,0.4,4.2,0.4c-0.2,0-1.9,0.7-1.9,0.7l-2.1,0.6l-1.3,0.7H6.4l-1.3,1c0,0-2.6,1-2.4,1.2s-0.7,0.8,2.1,1.2
		c2.8,0.4,3.5,0.6,3.7,0.5c0.2-0.1,0.7,0.2,1.8,0s1.6,0.1,1.6,0.1s0,1.4,0,0.7c0-0.7-1,0.6-1,0.6H9.9l-2.1-0.4c0,0-1.1-0.2-1.3-0.2
		c-0.2,0.1-0.8,0.6-0.8,0.6v0.9c0,0,1,1.8,1.3,1.9c0.4,0.1,1,0.2,1.6,0.3c0.7,0.2,0.7,0.2,0.7,0.2l-1.1,0.9H7c0,0-1.3,0-1.8,0
		c-0.4,0-1,0-1,0H2.7c-0.7,0.8-1.5,1.3-1.1,1.5s-0.6-0.2,0.7,0.6s2.7,1.4,3.2,1.4s1.6,0,1.6,0s0-0.5,1.7,0s1.3,0.6,2.6,1
		s1.2,1.3,2.3,0.3s0-1,1.1-1s0.2,1,2.3,0.2s3.1-1.3,3.1-1.3s0.7-0.3,1.3-0.6s0.7-0.3,0.9-0.4c0.2-0.1,0.7-1,0.7,0
		c0.1,1-0.1,2.5-0.2,2.9c-0.1,0.4-0.1,3.7-0.1,3.7v1.7l-0.4,5l-0.8,3.7l7.5,1L28,287l-1.1-5.8l-0.8-3.4l0.1-3.5h0.6
		c0,0,0.1,0.9,0.7,0.9s1.8,0.7,2.2,0.7s1.4,0.6,1.6,0.9c0.2,0.3,0.9,0.3,0.9,0.3s0.9-1.4,1.1-1.2c0.2,0.2,0.9,1.6,1.6,1.8
		c0.7,0.2,0.5,1.3,2.4,1c1.8-0.3,2.4,0.1,2.5-0.6c0.1-0.7,0.1-0.7,0.9-1.7c0.8-1,0.5-0.1,1.5-1.1c1-1,1-0.4,1-1
		c0-0.6,0.4-1.6-0.5-1.4c-1,0.2-1,0.2-1.6,0.3c-0.5,0.1-0.6,0.1-1.8,0.1s-1.6-0.6-1.6-0.6l-0.3-1.2c-0.5-0.7-0.3-1.3,0-1.4
		c0.3-0.2,0.4-0.2,1.4-0.2s-0.1,0,1,0c1.1,0,2.2,0.1,2.3-0.2c0.1-0.2-0.7-0.2,0.1-0.2s-0.2,0.5,0.9,0s1.3,0.7,1.6-0.5
		c0.3-1.2,0.7-1.7,0.7-1.7l-1.1-0.6l-2.9-0.5l-0.7-0.1c0,0,0,0.2-0.9-0.6c-0.9-0.9-0.9-0.9-0.9-0.9s-0.9-1.1-0.7-1.3
		c0.2-0.2,0.6-0.2,0.6-0.2s0.7,0,0.9,0c0.2,0,2.3-0.1,2.3-0.1c0-1.3,0.1-1.3-0.5-1.5c-0.5-0.2-1.6-1.5-1.6-1.5c0.8,0,3.2,0,3.2,0
		l2.4-1.1v-1.3c0,0-2.3,0-2.4,0c-0.2,0-1.6-0.1-2-0.4c-0.4-0.3-2.4-1.5-2.4-1.5l-1.2-0.3l-2.1-1.4c0,0,0.4-0.9,0.6-0.8
		s1.5,0.3,2.1,0.2c0.5-0.1,1-0.1,1-0.1l2.4-1.7c0,0-0.4,0.4,0.8,0.1c1.2-0.3,1.7-0.3,1.7-0.3s0.4-0.8,0.2-1.1c-0.2-0.3-1-0.9-1.2-1
		s-1.8-0.1-1.8-0.1s-0.5,0-1.9-0.3c-1.5-0.3-4.2-0.7-4.2-0.7s-1.2-0.5-0.6-0.8c0.6-0.3,1.6-0.1,2.1,0s0,0.7,0.5,0.1
		c0.5-0.6,0.3-0.8,0.1-1c-0.2-0.2-0.5,0.3-0.2-0.2s0.8-1,0.8-1l0.6-0.5c0,0,0.2-0.6-0.5-0.7c-0.8,0-2-0.5-2-0.5l-1.3-0.5
		c0,0,0.2-1,0.4-1c0.2-0.1,1.2,0.2,1.8-0.2c0.6-0.4,1-0.7,1-0.7s0.9-1.2,0.5-1.4c-0.4-0.2,0.3,1.1-1.6,0c-1.9-1.1-3.2-0.9-2.9-1.7
		c0.3-0.8,0.5-1.5,0.5-1.5l0.2-1.4l0.1-1.1l-2.1-0.1l-1.8-2c0,0,0.2-0.4,0.7-0.5c0.5-0.1,2.4-0.7,2.4-0.7s0.7-0.8,0.9-2
		c0.2-1.2,1-1.2-0.3-1.2s-1.9,0.1-1.9,0.1s-2.9,1.1-2.2-0.3c0.7-1.4,1.8-1.7,2.6-1.8s1.1,0,1.5-0.9c0.4-0.9,0.4-0.9,0.4-0.9
		s-1,0-1.9-0.1c-0.9-0.1-0.7-0.1-1.6-0.1s-1.6-0.1-1.6-0.1s0.4-1.1,0.8-1.2s1.5-0.6,1.5-0.6l1-1.6c-1.2,0,0.5,0.7-1.6,0
		s-2.1-0.7-2.1-0.7S29,219.3,29,219s1.6-1.1,1.6-1.1s0.4,0.4,0.7-0.3c0.3-0.7-0.1-0.2,0.3-0.7c0.4-0.6,0.7-0.9,0.5-1
		c-0.2-0.1-1.9-0.1-1.9-0.1s-0.2-0.1-0.7-0.2s-1.1-0.6-1-1.1c0.1-0.6,0.9-0.7,1.1-0.8s1.6-1,1.6-1s0.5-1,0.2-1.1s-0.4,0-1.3,0
		s-1.8,0-1.8,0c0-0.7-0.4-0.5-0.1-1.2s-0.9,0.3,0.3-0.7c1.2-1,1.2-1,1.2-1l0.1-0.9l-2-0.2c0,0,0.4-0.2,0-0.9s-0.4,0.5-0.4-0.6
		s0-1.1,0-1.1l2-1.7c0,0-1.3-0.6-1.6-0.6s-1.1,0.2-1.2-0.5s-0.8-0.9-0.1-1.2c0.6-0.3,1-0.2,1.1-0.6c0.1-0.3,0-0.4-0.4-0.9
		s-0.4-0.3-0.4-0.9s0-1.4,0-1.4l-0.7-0.2c0,0-0.2-0.8-0.2-1.8s-0.1-0.9,0.3-1.5c0.5-0.6,0.5-0.8,0.5-1.2s-0.9-1.2-0.9-1.2
		s-0.4-0.6-0.3-1.3c0.1-0.7,0.1,0.1,0.1-0.7s-0.5-2.5-0.5-2.5L24.2,186.3z"/>
	<path class="st3" d="M39.8,208.7v2.5l-0.6,0.8l0.6,0.8l-1.2,0.8v1h1.2v2l-0.9,1.2v2l-1.2,0.3l-0.8,1l1.8,0.5l-1.3,1.7l1.7,1v1.7
		l-2.2-1.6l-1.3,1l1.7,2.3l-0.6,0.8h1.9v1.1l-2,1h-1.9l-0.3,1.4l1.6,1.3v2l-1,1.3l-2.1-1l-1.3-0.6v1.3l1.7,2.3h1.6v1.5h-1.5
		l-1.8-0.9v1.4l0.9,1.2l0.8,1h-1.1h-1.3l-1.3-0.7v1.1l1.1,1.4l1.7,1.2v1h-0.9l-1.1-0.9l-1.5-0.6l-0.9-1.1l-1.1,0.9
		c0,0,0.3,1.3,0.7,1.7s1.2,1.4,1.3,1.6c0.2,0.2,0.2,1.5,0.2,1.5l0.2,1c0,0,0.5-0.4,0.8-0.3s1.1,0.3,1.1,0.3s0.1,0.8-0.1,0.8
		c-0.2,0-0.8,0-1,0s-1.6-1-2.1-1.2s-2.1-0.7-2.1-0.7h-0.7c0,0-0.4,0.6-0.4,0.9s0.6,1.5,0.6,1.5s0.4-0.4,0.7,0s2,1.5,2,1.5l1.4,1
		l-0.8,1.9l2.2,0.9c0,0-0.4,0.8-0.9,0.9c-0.4,0.1,0.7,0-1.3,0s-0.7,0.6-2.6,0c-1.9-0.6-2.4-0.6-2.4-0.6s-1.1-1.7-0.7-0.4
		c0.4,1.3,0.9,1.9,0.9,1.9s-0.4,2.1,1.3,2.7s1.4,0.5,2.1,0.7c0.7,0.2,1.5,0.6,1.5,0.6l-0.6,0.6h-1.6c0,0-1.3,0.2-1.8,0
		c-0.5-0.2,0.4,1.7-0.1,1.8c-0.4,0.1-1.1-0.1-1.4,0c-0.3,0.1-0.3,0.1-0.3,0.1s-0.5,0.1-0.2,0.7s-0.6-0.6,0.3,0.6s1.9,1.4,1.9,1.7
		c0,0.2,0.7,0.4,0,0.6c-0.7,0.2,0.4,0.2-0.7,0.2c-1.1,0-2.3,0-2.3,0s-1.1,1.7-1.6,1.2c-0.5-0.5-0.7-1-0.7-1s-0.5,1.3-0.5,1.6
		c0,0.2-0.4,1,0.7,1.2c1.1,0.2,2.3,0.8,2.3,0.8l0.8,0.3l-0.6,0.9c1.5,0.8,1.4,0.7,1.9,0.8c0.5,0.1,2,0.4,2,0.4
		c-0.8,0.5-1.5,0.8-1.8,1c-0.2,0.2-0.3,0.6-0.8,0.6s-1.3-0.3-1.6-0.4c-0.3-0.1-0.1-0.1-0.7-0.2c-0.6-0.1-0.7-0.1-1.2-0.1
		c-0.5,0-1,0.1-1,0.1l-1,1l1.8,0.8c0,0,1.1,0.2,1.5,0.4c0.4,0.2,0.4,1.1,0.4,1.1c-4,0-5,0-5,0l-0.4,1.1c0,0-0.2,0.4,0.6,0.8
		c0.9,0.4,1.5,0.6,2.1,0.8s0.5,1,0.5,1l-0.4,0.8c0,0-1.5-0.3,0.7,0s2.3,0.2,2.7-0.5c0.5-0.6-1.6-0.6,1.2-0.5
		c2.7,0.1,4.4,0.4,4.2,0.4s-1.9,0.7-1.9,0.7l-2.1,0.6l-1.3,0.7h-0.9l-1.3,1c0,0-2.6,1-2.4,1.2c0.2,0.2-0.7,0.8,2.1,1.2
		c2.8,0.4,3.5,0.6,3.7,0.5c0.2-0.1,0.7,0.2,1.8,0c1.1-0.2,1.6,0.1,1.6,0.1s0,1.4,0,0.7c0-0.7-1,0.6-1,0.6h-0.9l-2.1-0.4
		c0,0-1.1-0.2-1.3-0.2c-0.2,0.1-0.8,0.6-0.8,0.6v0.9c0,0,1,1.8,1.3,1.9c0.4,0.1,1,0.2,1.6,0.3c0.7,0.2,0.7,0.2,0.7,0.2l-1.1,0.9
		h-1.2c0,0-1.3,0-1.8,0c-0.4,0-1,0-1,0h-1.5c-0.7,0.8-1.5,1.3-1.1,1.5s-0.6-0.2,0.7,0.6c1.3,0.8,2.7,1.4,3.2,1.4s1.6,0,1.6,0
		s0-0.5,1.7,0c1.7,0.5,1.3,0.6,2.6,1c1.3,0.5,1.2,1.3,2.3,0.3c1.1-1,0-1,1.1-1c1.1,0,0.2,1,2.3,0.2c2.1-0.8,3.1-1.3,3.1-1.3
		s0.7-0.3,1.3-0.6c0.5-0.3,0.7-0.3,0.9-0.4c0.2-0.1,0.7-1,0.7,0c0.1,1-0.1,2.5-0.2,2.9c-0.1,0.4-0.1,3.7-0.1,3.7v1.7l-0.4,5
		l-0.8,3.7l7.5,1l-1.2-6.4l-1.1-5.8l-0.8-3.4l0.1-3.5h0.6c0,0,0.1,0.9,0.7,0.9c0.6,0,1.8,0.7,2.2,0.7c0.4,0,1.4,0.6,1.6,0.9
		s0.9,0.3,0.9,0.3s0.9-1.4,1.1-1.2c0.2,0.2,0.9,1.6,1.6,1.8c0.7,0.2,0.5,1.3,2.4,1c1.8-0.3,2.4,0.1,2.5-0.6c0.1-0.7,0.1-0.7,0.9-1.7
		c0.8-1,0.5-0.1,1.5-1.1c1-1,1-0.4,1-1c0-0.6,0.4-1.6-0.5-1.4s-1,0.2-1.6,0.3c-0.5,0.1-0.6,0.1-1.8,0.1c-1.2,0-1.6-0.6-1.6-0.6
		l-0.3-1.2c-0.5-0.7-0.3-1.3,0-1.4c0.3-0.2,0.4-0.2,1.4-0.2c1,0-0.1,0,1,0c1.1,0,2.2,0.1,2.3-0.2c0.1-0.2-0.7-0.2,0.1-0.2
		s-0.2,0.5,0.9,0c1-0.5,1.3,0.7,1.6-0.5c0.3-1.2,0.7-1.7,0.7-1.7l-1.1-0.6l-2.9-0.5l-0.7-0.1c0,0,0,0.2-0.9-0.6
		c-0.9-0.9-0.9-0.9-0.9-0.9s-0.9-1.1-0.7-1.3c0.2-0.2,0.6-0.2,0.6-0.2s0.7,0,0.9,0c0.2,0,2.3-0.1,2.3-0.1c0-1.3,0.1-1.3-0.5-1.5
		c-0.5-0.2-1.6-1.5-1.6-1.5c0.8,0,3.2,0,3.2,0l2.4-1.1V280c0,0-2.3,0-2.4,0c-0.2,0-1.6-0.1-2-0.4s-2.4-1.5-2.4-1.5l-1.2-0.3
		l-2.1-1.4c0,0,0.4-0.9,0.6-0.8c0.2,0.1,1.5,0.3,2.1,0.2c0.5-0.1,1-0.1,1-0.1l2.4-1.7c0,0-0.4,0.4,0.8,0.1s1.7-0.3,1.7-0.3
		s0.4-0.8,0.2-1.1c-0.2-0.3-1-0.9-1.2-1c-0.2-0.1-1.8-0.1-1.8-0.1s-0.5,0-1.9-0.3c-1.5-0.3-4.2-0.7-4.2-0.7s-1.2-0.5-0.6-0.8
		s1.6-0.1,2.1,0c0.5,0.1,0,0.7,0.5,0.1c0.5-0.6,0.3-0.8,0.1-1c-0.2-0.2-0.5,0.3-0.2-0.2s0.8-1,0.8-1l0.6-0.5c0,0,0.2-0.6-0.5-0.7
		c-0.8,0-2-0.5-2-0.5l-1.3-0.5c0,0,0.2-1,0.4-1c0.2-0.1,1.2,0.2,1.8-0.2c0.6-0.4,1-0.7,1-0.7s0.9-1.2,0.5-1.4
		c-0.4-0.2,0.3,1.1-1.6,0c-1.9-1.1-3.2-0.9-2.9-1.7c0.3-0.8,0.5-1.5,0.5-1.5l0.2-1.4l0.1-1.1l-2.1-0.1l-1.8-2c0,0,0.2-0.4,0.7-0.5
		c0.5-0.1,2.4-0.7,2.4-0.7s0.7-0.8,0.9-2c0.2-1.2,1-1.2-0.3-1.2c-1.3,0-1.9,0.1-1.9,0.1s-2.9,1.1-2.2-0.3s1.8-1.7,2.6-1.8
		c0.7-0.1,1.1,0,1.5-0.9c0.4-0.9,0.4-0.9,0.4-0.9s-1,0-1.9-0.1s-0.7-0.1-1.6-0.1s-1.6-0.1-1.6-0.1s0.4-1.1,0.8-1.2s1.5-0.6,1.5-0.6
		l1-1.6c-1.2,0,0.5,0.7-1.6,0C45,242,45,242,45,242s-0.5-0.3-0.4-0.6c0.1-0.3,1.6-1.1,1.6-1.1s0.4,0.4,0.7-0.3s-0.1-0.2,0.3-0.7
		c0.4-0.6,0.7-0.9,0.5-1c-0.2-0.1-1.9-0.1-1.9-0.1s-0.2-0.1-0.7-0.2c-0.4-0.2-1.1-0.6-1-1.1c0.1-0.6,0.9-0.7,1.1-0.8s1.6-1,1.6-1
		s0.5-1,0.2-1.1s-0.4,0-1.3,0s-1.8,0-1.8,0c0-0.7-0.4-0.5-0.1-1.2c0.3-0.7-0.9,0.3,0.3-0.7s1.2-1,1.2-1l0.1-0.9l-2-0.2
		c0,0,0.4-0.2,0-0.9s-0.4,0.5-0.4-0.6s0-1.1,0-1.1l2-1.7c0,0-1.3-0.6-1.6-0.6c-0.3,0-1.1,0.2-1.2-0.5c-0.1-0.6-0.8-0.9-0.1-1.2
		c0.6-0.3,1-0.2,1.1-0.6c0.1-0.3,0-0.4-0.4-0.9s-0.4-0.3-0.4-0.9s0-1.4,0-1.4l-0.7-0.2c0,0-0.2-0.8-0.2-1.8s-0.1-0.9,0.3-1.5
		c0.5-0.6,0.5-0.8,0.5-1.2s-0.9-1.2-0.9-1.2s-0.4-0.6-0.3-1.3c0.1-0.7,0.1,0.1,0.1-0.7s-0.5-2.5-0.5-2.5L39.8,208.7z"/>
	<path class="st3" d="M81,195.1v3.2l-1.5,1.1l1.5,1.1l-2.8,1v1.3H81v2.5l-2.1,1.5v2.6l-2.8,0.4l-1.7,1.3l4.1,0.7l-3,2.2l4,1.3v2.1
		l-5.1-2l-3,1.2l4,2.9l-1.4,1h4.4v1.5l-4.6,1.3h-4.3l-0.7,1.8l3.8,1.7v2.5l-2.2,1.6l-4.9-1.2l-3.1-0.8v1.6l4,2.9h3.6v2h-3.3
		l-4.2-1.1v1.8l2.1,1.5l1.7,1.3h-2.6h-3.1l-3.1-0.9v1.4l2.4,1.8l4,1.6v1.2h-2.1l-2.5-1.1l-3.5-0.8l-2-1.4l-2.5,1.1
		c0,0,0.7,1.6,1.7,2.2s2.6,1.8,3,2.1c0.3,0.3,0.3,1.9,0.3,1.9l0.6,1.3c0,0,1.3-0.5,1.8-0.4s2.5,0.4,2.5,0.4s0.3,1-0.3,1
		c-0.6,0-1.8,0-2.4,0c-0.6,0-3.8-1.3-4.7-1.5s-4.7-0.9-4.7-0.9h-1.5c0,0-1,0.8-0.8,1.1c0.1,0.3,1.4,1.9,1.4,1.9s0.8-0.5,1.7,0
		c0.8,0.5,4.6,1.9,4.6,1.9l3.2,1.2l-1.8,2.4l5,1.2c0,0-1,1.1-2,1.2c-1,0.1,1.5,0-3.1,0s-1.5,0.8-6,0c-4.5-0.7-5.4-0.7-5.4-0.7
		s-2.5-2.1-1.7-0.5c0.8,1.7,2,2.5,2,2.5s-0.8,2.6,3.1,3.4s3.2,0.6,4.9,0.9c1.7,0.3,3.5,0.8,3.5,0.8l-1.4,0.7h-3.6c0,0-2.9,0.2-4,0
		s0.8,2.2-0.1,2.3c-1,0.1-2.5-0.1-3.2,0s-0.7,0.1-0.7,0.1s-1.2,0.1-0.4,0.9c0.7,0.8-1.4-0.8,0.7,0.8c2.2,1.6,4.3,1.8,4.3,2.1
		c0,0.3,1.5,0.5,0,0.8s1,0.3-1.5,0.3s-5.3,0-5.3,0s-2.5,2.1-3.6,1.5c-1.1-0.6-1.5-1.2-1.5-1.2s-1.1,1.7-1.1,2s-0.8,1.3,1.7,1.5
		s5.3,1,5.3,1l1.8,0.4l-1.4,1.1c3.5,1,3.2,0.9,4.3,1c1.1,0.1,4.6,0.5,4.6,0.5c-1.8,0.6-3.5,1-4,1.3c-0.6,0.3-0.7,0.8-1.8,0.8
		c-1.1,0-3.1-0.4-3.8-0.5c-0.7-0.1-0.3-0.1-1.7-0.2c-1.4-0.1-1.5-0.1-2.8-0.1s-2.4,0.1-2.4,0.1l-2.2,1.2l4.2,1c0,0,2.5,0.2,3.3,0.5
		c0.8,0.3,0.8,1.4,0.8,1.4c-9.2,0-11.4,0-11.4,0l-1,1.4c0,0-0.6,0.5,1.4,1c2,0.5,3.3,0.8,4.7,1c1.4,0.2,1.3,1.2,1.3,1.2l-1,1
		c0,0-3.3-0.4,1.5,0s5.2,0.2,6.3-0.6c1.1-0.8-3.6-0.7,2.6-0.6s10.2,0.5,9.6,0.5c-0.5,0-4.4,0.9-4.4,0.9l-4.9,0.8l-3.1,0.9h-2
		l-2.9,1.3c0,0-6,1.3-5.6,1.5c0.4,0.2-1.7,1,4.7,1.5c6.4,0.5,7.9,0.7,8.4,0.6c0.4-0.1,1.7,0.3,4.2,0c2.5-0.2,3.6,0.1,3.6,0.1
		s0,1.8,0,0.9s-2.4,0.7-2.4,0.7H48l-4.9-0.5c0,0-2.5-0.3-2.9-0.2s-1.8,0.7-1.8,0.7v1.1c0,0,2.2,2.3,3.1,2.4s2.2,0.2,3.8,0.4
		s1.5,0.2,1.5,0.2l-2.5,1.1h-2.8c0,0-3.1,0-4,0c-1,0-2.4,0-2.4,0h-3.5c-1.5,1-3.3,1.7-2.5,1.9c0.8,0.2-1.4-0.3,1.7,0.7
		s6.1,1.8,7.4,1.8s3.6,0,3.6,0s0-0.6,3.9,0c3.9,0.6,2.9,0.7,6,1.3c3.1,0.6,2.8,1.6,5.3,0.4c2.5-1.2,0-1.2,2.5-1.2
		c2.5,0,0.6,1.3,5.3,0.3s7.1-1.6,7.1-1.6s1.7-0.4,2.9-0.8c1.3-0.4,1.5-0.4,2.1-0.5s1.5-1.3,1.7,0c0.1,1.3-0.3,3.2-0.4,3.7
		c-0.1,0.5-0.1,4.7-0.1,4.7v2.2l-0.8,6.4l-1.8,4.7l17.1,1.3l-2.8-8.2l-2.5-7.3l-1.8-4.3l0.1-4.4h1.4c0,0,0.3,1.1,1.6,1.2
		c1.3,0.1,4.1,0.9,5.1,0.9c1,0,3.2,0.7,3.8,1.1c0.6,0.4,2.1,0.4,2.1,0.4s2.1-1.8,2.5-1.5c0.4,0.3,2,2,3.6,2.3
		c1.7,0.3,1.3,1.7,5.4,1.3c4.2-0.4,5.4,0.1,5.7-0.8c0.3-0.9,0.2-0.9,2-2.2s1-0.2,3.4-1.4s2.4-0.5,2.4-1.2c0-0.7,1-2-1.3-1.8
		s-2.4,0.3-3.6,0.4s-1.4,0.1-4,0.1c-2.6,0-3.7-0.8-3.7-0.8l-0.6-1.6c-1.3-0.9-0.7-1.6,0-1.8s1-0.2,3.2-0.2c2.2,0-0.3,0,2.2,0
		s5,0.1,5.3-0.2c0.3-0.3-1.7-0.3,0.3-0.3s-0.4,0.6,2,0c2.4-0.6,3.1,0.9,3.8-0.6c0.7-1.5,1.6-2.2,1.6-2.2l-2.4-0.8l-6.7-0.6l-1.5-0.1
		c0,0,0,0.3-2-0.8c-2-1.1-2-1.1-2-1.1s-2.1-1.4-1.5-1.7c0.6-0.3,1.4-0.3,1.4-0.3s1.7,0,2.1,0c0.4,0,5.2-0.1,5.2-0.1
		c0-1.6,0.1-1.7-1.1-1.9s-3.6-1.9-3.6-1.9c1.8,0,7.4,0,7.4,0l5.4-1.4v-1.6c0,0-5.2,0-5.6,0s-3.6-0.1-4.6-0.5c-1-0.4-5.6-1.9-5.6-1.9
		l-2.6-0.4l-4.7-1.8c0,0,0.8-1.1,1.4-1s3.5,0.4,4.7,0.3s2.4-0.1,2.4-0.1l5.6-2.2c0,0-0.8,0.5,1.8,0.1c2.6-0.4,3.9-0.4,3.9-0.4
		s0.8-1,0.4-1.4c-0.4-0.4-2.2-1.1-2.8-1.2s-4.2-0.1-4.2-0.1s-1.1,0-4.5-0.4c-3.3-0.4-9.6-0.9-9.6-0.9s-2.8-0.6-1.4-1
		c1.4-0.4,3.6-0.1,4.7,0s0.1,0.9,1.1,0.1c1-0.8,0.6-1.1,0.3-1.3c-0.3-0.3-1.2,0.4-0.3-0.3c0.8-0.6,1.7-1.3,1.7-1.3l1.4-0.6
		c0,0,0.6-0.8-1.2-0.9c-1.7-0.1-4.5-0.7-4.5-0.7l-2.9-0.6c0,0,0.4-1.2,0.8-1.3s2.8,0.3,4.2-0.2s2.2-0.9,2.2-0.9s2.1-1.5,1.1-1.8
		c-1-0.3,0.7,1.5-3.8,0c-4.5-1.5-7.4-1.2-6.7-2.2c0.7-1,1.1-1.9,1.1-1.9l0.4-1.8l0.3-1.5l-4.7-0.1l-4-2.5c0,0,0.4-0.5,1.7-0.6
		c1.3-0.1,5.6-0.9,5.6-0.9s1.5-1,2.1-2.5s2.4-1.5-0.7-1.5s-4.3,0.1-4.3,0.1s-6.7,1.4-5-0.4c1.7-1.8,4.2-2.2,5.9-2.3
		c1.7-0.1,2.5,0,3.3-1.1c0.8-1.1,0.8-1.1,0.8-1.1s-2.4,0-4.3-0.1s-1.7-0.1-3.8-0.1c-2.1,0-3.6-0.1-3.6-0.1s1-1.4,1.8-1.5
		c0.8-0.1,3.3-0.7,3.3-0.7l2.4-2c-2.6,0,1.1,0.9-3.6,0c-4.7-0.9-4.7-0.9-4.7-0.9s-1.1-0.4-1-0.8c0.1-0.4,3.6-1.4,3.6-1.4
		s0.8,0.5,1.5-0.4c0.7-0.9-0.3-0.2,0.7-0.9c1-0.7,1.7-1.1,1.3-1.2c-0.4-0.1-4.3-0.1-4.3-0.1s-0.6-0.1-1.5-0.3
		c-1-0.2-2.5-0.7-2.4-1.4s2-0.9,2.5-1s3.8-1.2,3.8-1.2s1.1-1.3,0.6-1.4s-1,0-3.1,0c-2.1,0-4,0-4,0c0-0.9-0.8-0.6-0.1-1.5
		c0.7-0.9-2,0.4,0.7-0.9c2.6-1.3,2.6-1.3,2.6-1.3l0.3-1.1l-4.6-0.2c0,0,0.8-0.3,0-1.1c-0.8-0.8-0.8,0.6-0.8-0.8s0-1.4,0-1.4l4.6-2.1
		c0,0-2.9-0.7-3.6-0.7s-2.5,0.2-2.8-0.6c-0.3-0.8-1.7-1.2-0.3-1.5c1.5-0.4,2.4-0.3,2.5-0.7c0.1-0.4,0-0.5-0.8-1.1
		c-0.8-0.6-0.8-0.4-0.8-1.1s0-1.8,0-1.8l-1.5-0.3c0,0-0.6-1-0.6-2.3c0-1.3-0.3-1.1,0.8-1.9c1-0.8,1-1,1-1.6s-2.1-1.5-2.1-1.5
		s-0.9-0.8-0.7-1.7c0.2-0.9,0.2,0.1,0.2-0.9c0-1-1.1-3.2-1.1-3.2L81,195.1z"/>
	<path class="st3" d="M106.1,236.9v2.5l-1.1,0.8l1.1,0.8l-2,0.8v1h2v2l-1.5,1.2v2l-2,0.3l-1.2,1l2.9,0.5l-2.1,1.7l2.8,1v1.7
		l-3.6-1.6l-2.1,1l2.8,2.3l-1,0.8h3.1v1.1l-3.3,1h-3.1l-0.5,1.4l2.7,1.3v2l-1.6,1.3l-3.5-1l-2.2-0.6v1.3l2.8,2.3h2.5v1.5h-2.4
		l-3-0.9v1.4l1.5,1.2l1.2,1h-1.8h-2.2l-2.2-0.7v1.1L91,273l2.8,1.2v1h-1.5l-1.8-0.9l-2.5-0.6l-1.4-1.1l-1.8,0.9c0,0,0.5,1.3,1.2,1.7
		s1.9,1.4,2.1,1.6c0.2,0.2,0.2,1.5,0.2,1.5l0.4,1c0,0,0.9-0.4,1.3-0.3c0.4,0.1,1.8,0.3,1.8,0.3s0.2,0.8-0.2,0.8c-0.4,0-1.3,0-1.7,0
		c-0.4,0-2.7-1-3.4-1.2s-3.4-0.7-3.4-0.7h-1.1c0,0-0.7,0.6-0.6,0.9c0.1,0.2,1,1.5,1,1.5s0.6-0.4,1.2,0c0.6,0.4,3.3,1.5,3.3,1.5
		l2.3,1l-1.3,1.9l3.6,0.9c0,0-0.7,0.8-1.4,0.9c-0.7,0.1,1.1,0-2.2,0s-1.1,0.6-4.3,0c-3.2-0.6-3.9-0.6-3.9-0.6s-1.8-1.7-1.2-0.4
		c0.6,1.3,1.4,1.9,1.4,1.9s-0.6,2.1,2.2,2.7c2.8,0.6,2.3,0.5,3.5,0.7c1.2,0.2,2.5,0.6,2.5,0.6l-1,0.6h-2.6c0,0-2.1,0.2-2.9,0
		s0.6,1.7-0.1,1.8c-0.7,0.1-1.8-0.1-2.3,0c-0.5,0.1-0.5,0.1-0.5,0.1s-0.8,0.1-0.3,0.7c0.5,0.6-1-0.6,0.5,0.6s3.1,1.4,3.1,1.7
		c0,0.2,1.1,0.4,0,0.6c-1.1,0.2,0.7,0.2-1.1,0.2c-1.8,0-3.8,0-3.8,0s-1.8,1.7-2.6,1.2c-0.8-0.5-1.1-1-1.1-1s-0.8,1.3-0.8,1.6
		c0,0.2-0.6,1,1.2,1.2c1.8,0.2,3.8,0.8,3.8,0.8l1.3,0.3l-1,0.9c2.5,0.8,2.3,0.7,3.1,0.8c0.8,0.1,3.3,0.4,3.3,0.4
		c-1.3,0.5-2.5,0.8-2.9,1c-0.4,0.2-0.5,0.6-1.3,0.6c-0.8,0-2.2-0.3-2.7-0.4c-0.5-0.1-0.2-0.1-1.2-0.2c-1-0.1-1.1-0.1-2-0.1
		s-1.7,0.1-1.7,0.1l-1.6,1l3,0.8c0,0,1.8,0.2,2.4,0.4c0.6,0.2,0.6,1.1,0.6,1.1c-6.5,0-8.1,0-8.1,0l-0.7,1.1c0,0-0.4,0.4,1,0.8
		c1.4,0.4,2.4,0.6,3.4,0.8c1,0.2,0.9,1,0.9,1l-0.7,0.8c0,0-2.4-0.3,1.1,0s3.7,0.2,4.5-0.5s-2.6-0.6,1.9-0.5c4.5,0.1,7.2,0.4,6.8,0.4
		c-0.4,0-3.2,0.7-3.2,0.7l-3.5,0.6l-2.2,0.7H77l-2.1,1c0,0-4.3,1-4,1.2c0.3,0.2-1.2,0.8,3.4,1.2c4.6,0.4,5.6,0.6,5.9,0.5
		c0.3-0.1,1.2,0.2,3,0c1.8-0.2,2.6,0.1,2.6,0.1s0,1.4,0,0.7c0-0.7-1.7,0.6-1.7,0.6h-1.5l-3.5-0.4c0,0-1.8-0.2-2.1-0.2
		c-0.3,0.1-1.3,0.6-1.3,0.6v0.9c0,0,1.6,1.8,2.2,1.9c0.6,0.1,1.6,0.2,2.7,0.3s1.1,0.2,1.1,0.2L80,324h-2c0,0-2.2,0-2.9,0
		s-1.7,0-1.7,0H71c-1.1,0.8-2.4,1.3-1.8,1.5s-1-0.2,1.2,0.6s4.4,1.4,5.2,1.4c0.9,0,2.6,0,2.6,0s0-0.5,2.8,0s2.1,0.6,4.3,1
		c2.2,0.5,2,1.3,3.8,0.3c1.8-1,0-1,1.8-1c1.8,0,0.4,1,3.8,0.2s5.1-1.3,5.1-1.3s1.2-0.3,2.1-0.6c0.9-0.3,1.1-0.3,1.5-0.4
		c0.4-0.1,1.1-1,1.2,0c0.1,1-0.2,2.5-0.3,2.9c-0.1,0.4-0.1,3.7-0.1,3.7v1.7l-0.6,5l-1.3,3.7l12.2,1l-2-6.4l-1.8-5.8l-1.3-3.4
		l0.1-3.5h1c0,0,0.2,0.9,1.1,0.9c0.9,0,2.9,0.7,3.6,0.7s2.3,0.6,2.7,0.9c0.4,0.3,1.5,0.3,1.5,0.3s1.5-1.4,1.8-1.2
		c0.3,0.2,1.4,1.6,2.6,1.8c1.2,0.2,0.9,1.3,3.9,1c3-0.3,3.9,0.1,4.1-0.6c0.2-0.7,0.1-0.7,1.4-1.7c1.3-1,0.7-0.1,2.4-1.1
		s1.7-0.4,1.7-1c0-0.6,0.7-1.6-0.9-1.4s-1.7,0.2-2.6,0.3c-0.9,0.1-1,0.1-2.9,0.1s-2.6-0.6-2.6-0.6l-0.4-1.2c-0.9-0.7-0.5-1.3,0-1.4
		c0.5-0.2,0.7-0.2,2.3-0.2c1.6,0-0.2,0,1.6,0c1.8,0,3.6,0.1,3.8-0.2c0.2-0.2-1.2-0.2,0.2-0.2s-0.3,0.5,1.4,0
		c1.7-0.5,2.2,0.7,2.7-0.5c0.5-1.2,1.1-1.7,1.1-1.7l-1.7-0.6l-4.8-0.5l-1.1-0.1c0,0,0,0.2-1.4-0.6c-1.4-0.9-1.4-0.9-1.4-0.9
		s-1.5-1.1-1.1-1.3c0.4-0.2,1-0.2,1-0.2s1.2,0,1.5,0s3.7-0.1,3.7-0.1c0-1.3,0.1-1.3-0.8-1.5c-0.9-0.2-2.6-1.5-2.6-1.5
		c1.3,0,5.2,0,5.2,0l3.9-1.1v-1.3c0,0-3.7,0-4,0c-0.3,0-2.6-0.1-3.3-0.4c-0.7-0.3-4-1.5-4-1.5L128,306l-3.4-1.4c0,0,0.6-0.9,1-0.8
		c0.4,0.1,2.5,0.3,3.4,0.2c0.9-0.1,1.7-0.1,1.7-0.1l4-1.7c0,0-0.6,0.4,1.3,0.1c1.9-0.3,2.8-0.3,2.8-0.3s0.6-0.8,0.3-1.1
		c-0.3-0.3-1.6-0.9-2-1c-0.4-0.1-3-0.1-3-0.1s-0.8,0-3.2-0.3c-2.4-0.3-6.8-0.7-6.8-0.7s-2-0.5-1-0.8c1-0.3,2.6-0.1,3.4,0
		c0.8,0.1,0,0.7,0.8,0.1c0.7-0.6,0.4-0.8,0.2-1c-0.2-0.2-0.8,0.3-0.2-0.2s1.2-1,1.2-1l1-0.5c0,0,0.4-0.6-0.8-0.7
		c-1.2,0-3.2-0.5-3.2-0.5l-2.1-0.5c0,0,0.3-1,0.6-1c0.3-0.1,2,0.2,3-0.2c1-0.4,1.6-0.7,1.6-0.7s1.5-1.2,0.8-1.4s0.5,1.1-2.7,0
		s-5.2-0.9-4.8-1.7c0.5-0.8,0.8-1.5,0.8-1.5l0.3-1.4l0.2-1.1l-3.4-0.1l-2.9-2c0,0,0.3-0.4,1.2-0.5c0.9-0.1,4-0.7,4-0.7
		s1.1-0.8,1.5-2c0.4-1.2,1.7-1.2-0.5-1.2s-3.1,0.1-3.1,0.1s-4.8,1.1-3.6-0.3c1.2-1.4,3-1.7,4.2-1.8c1.2-0.1,1.8,0,2.4-0.9
		s0.6-0.9,0.6-0.9s-1.7,0-3.1-0.1c-1.4-0.1-1.2-0.1-2.7-0.1s-2.6-0.1-2.6-0.1s0.7-1.1,1.3-1.2c0.6-0.1,2.4-0.6,2.4-0.6l1.7-1.6
		c-1.9,0,0.8,0.7-2.6,0c-3.4-0.7-3.4-0.7-3.4-0.7s-0.8-0.3-0.7-0.6s2.6-1.1,2.6-1.1s0.6,0.4,1.1-0.3c0.5-0.7-0.2-0.2,0.5-0.7
		c0.7-0.6,1.2-0.9,0.9-1c-0.3-0.1-3.1-0.1-3.1-0.1s-0.4-0.1-1.1-0.2s-1.8-0.6-1.7-1.1c0.1-0.6,1.4-0.7,1.8-0.8c0.4-0.1,2.7-1,2.7-1
		s0.8-1,0.4-1.1c-0.4-0.1-0.7,0-2.2,0c-1.5,0-2.9,0-2.9,0c0-0.7-0.6-0.5-0.1-1.2c0.5-0.7-1.4,0.3,0.5-0.7c1.9-1,1.9-1,1.9-1l0.2-0.9
		l-3.3-0.2c0,0,0.6-0.2,0-0.9s-0.6,0.5-0.6-0.6s0-1.1,0-1.1l3.3-1.7c0,0-2.1-0.6-2.6-0.6s-1.8,0.2-2-0.5c-0.2-0.6-1.2-0.9-0.2-1.2
		c1-0.3,1.7-0.2,1.8-0.6c0.1-0.3,0-0.4-0.6-0.9s-0.6-0.3-0.6-0.9s0-1.4,0-1.4l-1.1-0.2c0,0-0.4-0.8-0.4-1.8c0-1-0.2-0.9,0.5-1.5
		c0.7-0.6,0.7-0.8,0.7-1.2s-1.5-1.2-1.5-1.2s-0.6-0.6-0.5-1.3s0.2,0.1,0.2-0.7s-0.8-2.5-0.8-2.5L106.1,236.9z"/>
	<path class="st3" d="M119.7,242.2v2.5l-1.1,0.8l1.1,0.8l-2,0.8v1h2v2l-1.5,1.2v2l-2,0.3l-1.2,1l2.9,0.5l-2.1,1.7l2.8,1v1.7L115,258
		l-2.1,1l2.8,2.3l-1,0.8h3.1v1.1l-3.3,1h-3.1l-0.5,1.4l2.7,1.3v2l-1.6,1.3l-3.5-1l-2.2-0.6v1.3l2.8,2.3h2.5v1.5h-2.4l-3-0.9v1.4
		l1.5,1.2l1.2,1h-1.8h-2.2l-2.2-0.7v1.1l1.7,1.4l2.8,1.2v1H106l-1.8-0.9l-2.5-0.6l-1.4-1.1l-1.8,0.9c0,0,0.5,1.3,1.2,1.7
		s1.9,1.4,2.1,1.6c0.2,0.2,0.2,1.5,0.2,1.5l0.4,1c0,0,0.9-0.4,1.3-0.3c0.4,0.1,1.8,0.3,1.8,0.3s0.2,0.8-0.2,0.8s-1.3,0-1.7,0
		c-0.4,0-2.7-1-3.4-1.2s-3.4-0.7-3.4-0.7h-1.1c0,0-0.7,0.6-0.6,0.9c0.1,0.2,1,1.5,1,1.5s0.6-0.4,1.2,0c0.6,0.4,3.3,1.5,3.3,1.5
		l2.3,1l-1.3,1.9l3.6,0.9c0,0-0.7,0.8-1.4,0.9c-0.7,0.1,1.1,0-2.2,0c-3.3,0-1.1,0.6-4.3,0c-3.2-0.6-3.9-0.6-3.9-0.6
		s-1.8-1.7-1.2-0.4c0.6,1.3,1.4,1.9,1.4,1.9s-0.6,2.1,2.2,2.7s2.3,0.5,3.5,0.7c1.2,0.2,2.5,0.6,2.5,0.6l-1,0.6h-2.6
		c0,0-2.1,0.2-2.9,0c-0.8-0.2,0.6,1.7-0.1,1.8c-0.7,0.1-1.8-0.1-2.3,0c-0.5,0.1-0.5,0.1-0.5,0.1s-0.8,0.1-0.3,0.7s-1-0.6,0.5,0.6
		c1.5,1.2,3.1,1.4,3.1,1.7c0,0.2,1.1,0.4,0,0.6c-1.1,0.2,0.7,0.2-1.1,0.2c-1.8,0-3.8,0-3.8,0s-1.8,1.7-2.6,1.2s-1.1-1-1.1-1
		s-0.8,1.3-0.8,1.6c0,0.2-0.6,1,1.2,1.2s3.8,0.8,3.8,0.8l1.3,0.3l-1,0.9c2.5,0.8,2.3,0.7,3.1,0.8c0.8,0.1,3.3,0.4,3.3,0.4
		c-1.3,0.5-2.5,0.8-2.9,1c-0.4,0.2-0.5,0.6-1.3,0.6s-2.2-0.3-2.7-0.4c-0.5-0.1-0.2-0.1-1.2-0.2c-1-0.1-1.1-0.1-2-0.1
		c-0.9,0-1.7,0.1-1.7,0.1l-1.6,1l3,0.8c0,0,1.8,0.2,2.4,0.4c0.6,0.2,0.6,1.1,0.6,1.1c-6.5,0-8.1,0-8.1,0l-0.7,1.1c0,0-0.4,0.4,1,0.8
		c1.4,0.4,2.4,0.6,3.4,0.8s0.9,1,0.9,1l-0.7,0.8c0,0-2.4-0.3,1.1,0s3.7,0.2,4.5-0.5c0.8-0.6-2.6-0.6,1.9-0.5
		c4.5,0.1,7.2,0.4,6.8,0.4c-0.4,0-3.2,0.7-3.2,0.7l-3.5,0.6l-2.2,0.7h-1.4l-2.1,1c0,0-4.3,1-4,1.2c0.3,0.2-1.2,0.8,3.4,1.2
		c4.6,0.4,5.6,0.6,5.9,0.5c0.3-0.1,1.2,0.2,3,0c1.8-0.2,2.6,0.1,2.6,0.1s0,1.4,0,0.7c0-0.7-1.7,0.6-1.7,0.6h-1.5l-3.5-0.4
		c0,0-1.8-0.2-2.1-0.2c-0.3,0.1-1.3,0.6-1.3,0.6v0.9c0,0,1.6,1.8,2.2,1.9c0.6,0.1,1.6,0.2,2.7,0.3c1.1,0.2,1.1,0.2,1.1,0.2l-1.8,0.9
		h-2c0,0-2.2,0-2.9,0s-1.7,0-1.7,0h-2.5c-1.1,0.8-2.4,1.3-1.8,1.5s-1-0.2,1.2,0.6c2.2,0.8,4.4,1.4,5.2,1.4c0.9,0,2.6,0,2.6,0
		s0-0.5,2.8,0s2.1,0.6,4.3,1c2.2,0.5,2,1.3,3.8,0.3c1.8-1,0-1,1.8-1c1.8,0,0.4,1,3.8,0.2s5.1-1.3,5.1-1.3s1.2-0.3,2.1-0.6
		c0.9-0.3,1.1-0.3,1.5-0.4c0.4-0.1,1.1-1,1.2,0c0.1,1-0.2,2.5-0.3,2.9c-0.1,0.4-0.1,3.7-0.1,3.7v1.7l-0.6,5l-1.3,3.7l12.2,1l-2-6.4
		l-1.8-5.8l-1.3-3.4l0.1-3.5h1c0,0,0.2,0.9,1.1,0.9c0.9,0,2.9,0.7,3.6,0.7s2.3,0.6,2.7,0.9c0.4,0.3,1.5,0.3,1.5,0.3s1.5-1.4,1.8-1.2
		c0.3,0.2,1.4,1.6,2.6,1.8c1.2,0.2,0.9,1.3,3.9,1c3-0.3,3.9,0.1,4.1-0.6c0.2-0.7,0.1-0.7,1.4-1.7c1.3-1,0.7-0.1,2.4-1.1
		c1.7-1,1.7-0.4,1.7-1c0-0.6,0.7-1.6-0.9-1.4s-1.7,0.2-2.6,0.3c-0.9,0.1-1,0.1-2.9,0.1c-1.9,0-2.6-0.6-2.6-0.6l-0.4-1.2
		c-0.9-0.7-0.5-1.3,0-1.4s0.7-0.2,2.3-0.2s-0.2,0,1.6,0s3.6,0.1,3.8-0.2c0.2-0.2-1.2-0.2,0.2-0.2s-0.3,0.5,1.4,0s2.2,0.7,2.7-0.5
		c0.5-1.2,1.1-1.7,1.1-1.7l-1.7-0.6l-4.8-0.5l-1.1-0.1c0,0,0,0.2-1.4-0.6c-1.4-0.9-1.4-0.9-1.4-0.9s-1.5-1.1-1.1-1.3
		c0.4-0.2,1-0.2,1-0.2s1.2,0,1.5,0c0.3,0,3.7-0.1,3.7-0.1c0-1.3,0.1-1.3-0.8-1.5s-2.6-1.5-2.6-1.5c1.3,0,5.2,0,5.2,0l3.9-1.1v-1.3
		c0,0-3.7,0-4,0c-0.3,0-2.6-0.1-3.3-0.4s-4-1.5-4-1.5l-1.9-0.3l-3.4-1.4c0,0,0.6-0.9,1-0.8c0.4,0.1,2.5,0.3,3.4,0.2
		c0.9-0.1,1.7-0.1,1.7-0.1l4-1.7c0,0-0.6,0.4,1.3,0.1s2.8-0.3,2.8-0.3s0.6-0.8,0.3-1.1c-0.3-0.3-1.6-0.9-2-1c-0.4-0.1-3-0.1-3-0.1
		s-0.8,0-3.2-0.3c-2.4-0.3-6.8-0.7-6.8-0.7s-2-0.5-1-0.8c1-0.3,2.6-0.1,3.4,0c0.8,0.1,0,0.7,0.8,0.1c0.7-0.6,0.4-0.8,0.2-1
		c-0.2-0.2-0.8,0.3-0.2-0.2c0.6-0.5,1.2-1,1.2-1l1-0.5c0,0,0.4-0.6-0.8-0.7s-3.2-0.5-3.2-0.5l-2.1-0.5c0,0,0.3-1,0.6-1
		c0.3-0.1,2,0.2,3-0.2c1-0.4,1.6-0.7,1.6-0.7s1.5-1.2,0.8-1.4s0.5,1.1-2.7,0c-3.2-1.1-5.2-0.9-4.8-1.7s0.8-1.5,0.8-1.5l0.3-1.4
		l0.2-1.1l-3.4-0.1l-2.9-2c0,0,0.3-0.4,1.2-0.5c0.9-0.1,4-0.7,4-0.7s1.1-0.8,1.5-2c0.4-1.2,1.7-1.2-0.5-1.2c-2.2,0-3.1,0.1-3.1,0.1
		s-4.8,1.1-3.6-0.3c1.2-1.4,3-1.7,4.2-1.8c1.2-0.1,1.8,0,2.4-0.9c0.6-0.9,0.6-0.9,0.6-0.9s-1.7,0-3.1-0.1c-1.4-0.1-1.2-0.1-2.7-0.1
		c-1.5,0-2.6-0.1-2.6-0.1s0.7-1.1,1.3-1.2c0.6-0.1,2.4-0.6,2.4-0.6l1.7-1.6c-1.9,0,0.8,0.7-2.6,0c-3.4-0.7-3.4-0.7-3.4-0.7
		s-0.8-0.3-0.7-0.6s2.6-1.1,2.6-1.1s0.6,0.4,1.1-0.3c0.5-0.7-0.2-0.2,0.5-0.7s1.2-0.9,0.9-1c-0.3-0.1-3.1-0.1-3.1-0.1
		s-0.4-0.1-1.1-0.2c-0.7-0.2-1.8-0.6-1.7-1.1c0.1-0.6,1.4-0.7,1.8-0.8c0.4-0.1,2.7-1,2.7-1s0.8-1,0.4-1.1c-0.4-0.1-0.7,0-2.2,0
		c-1.5,0-2.9,0-2.9,0c0-0.7-0.6-0.5-0.1-1.2c0.5-0.7-1.4,0.3,0.5-0.7c1.9-1,1.9-1,1.9-1l0.2-0.9l-3.3-0.2c0,0,0.6-0.2,0-0.9
		s-0.6,0.5-0.6-0.6s0-1.1,0-1.1l3.3-1.7c0,0-2.1-0.6-2.6-0.6s-1.8,0.2-2-0.5s-1.2-0.9-0.2-1.2c1-0.3,1.7-0.2,1.8-0.6s0-0.4-0.6-0.9
		c-0.6-0.5-0.6-0.3-0.6-0.9s0-1.4,0-1.4l-1.1-0.2c0,0-0.4-0.8-0.4-1.8s-0.2-0.9,0.5-1.5c0.7-0.6,0.7-0.8,0.7-1.2s-1.5-1.2-1.5-1.2
		s-0.6-0.6-0.5-1.3s0.2,0.1,0.2-0.7s-0.8-2.5-0.8-2.5L119.7,242.2z"/>
	<path class="st3" d="M206.4,216.6v2.5l-0.9,0.8l0.9,0.8l-1.6,0.8v1h1.6v2l-1.2,1.2v2l-1.6,0.3l-1,1l2.4,0.5l-1.7,1.7l2.3,1v1.7
		l-2.9-1.6l-1.7,1l2.3,2.3l-0.8,0.8h2.5v1.1l-2.6,1h-2.5l-0.4,1.4l2.2,1.3v2l-1.3,1.3l-2.8-1l-1.8-0.6v1.3l2.3,2.3h2v1.5h-1.9
		l-2.4-0.9v1.4l1.2,1.2l1,1h-1.5h-1.8l-1.8-0.7v1.1l1.4,1.4l2.3,1.2v1h-1.2l-1.4-0.9l-2-0.6l-1.1-1.1l-1.4,0.9c0,0,0.4,1.3,1,1.7
		s1.5,1.4,1.7,1.6s0.2,1.5,0.2,1.5l0.3,1c0,0,0.7-0.4,1-0.3c0.3,0.1,1.4,0.3,1.4,0.3s0.2,0.8-0.2,0.8c-0.3,0-1,0-1.4,0
		s-2.2-1-2.7-1.2c-0.6-0.2-2.7-0.7-2.7-0.7h-0.9c0,0-0.6,0.6-0.5,0.9c0.1,0.2,0.8,1.5,0.8,1.5s0.5-0.4,1,0c0.5,0.4,2.6,1.5,2.6,1.5
		l1.8,1l-1,1.9l2.9,0.9c0,0-0.6,0.8-1.1,0.9c-0.6,0.1,0.9,0-1.8,0s-0.9,0.6-3.4,0c-2.6-0.6-3.1-0.6-3.1-0.6s-1.4-1.7-1-0.4
		c0.5,1.3,1.1,1.9,1.1,1.9s-0.5,2.1,1.8,2.7c2.2,0.6,1.8,0.5,2.8,0.7c1,0.2,2,0.6,2,0.6l-0.8,0.6h-2.1c0,0-1.7,0.2-2.3,0
		s0.5,1.7-0.1,1.8c-0.6,0.1-1.4-0.1-1.8,0c-0.4,0.1-0.4,0.1-0.4,0.1s-0.7,0.1-0.3,0.7s-0.8-0.6,0.4,0.6c1.2,1.2,2.5,1.4,2.5,1.7
		c0,0.2,0.9,0.4,0,0.6c-0.9,0.2,0.6,0.2-0.9,0.2s-3,0-3,0s-1.4,1.7-2.1,1.2c-0.6-0.5-0.9-1-0.9-1s-0.6,1.3-0.6,1.6
		c0,0.2-0.5,1,1,1.2c1.4,0.2,3,0.8,3,0.8l1,0.3l-0.8,0.9c2,0.8,1.8,0.7,2.5,0.8c0.6,0.1,2.6,0.4,2.6,0.4c-1,0.5-2,0.8-2.3,1
		c-0.3,0.2-0.4,0.6-1,0.6c-0.6,0-1.8-0.3-2.2-0.4c-0.4-0.1-0.2-0.1-1-0.2c-0.8-0.1-0.9-0.1-1.6-0.1c-0.7,0-1.4,0.1-1.4,0.1l-1.3,1
		l2.4,0.8c0,0,1.4,0.2,1.9,0.4c0.5,0.2,0.5,1.1,0.5,1.1c-5.3,0-6.6,0-6.6,0l-0.6,1.1c0,0-0.3,0.4,0.8,0.8c1.1,0.4,1.9,0.6,2.7,0.8
		c0.8,0.2,0.7,1,0.7,1l-0.6,0.8c0,0-1.9-0.3,0.9,0c2.8,0.3,3,0.2,3.6-0.5c0.6-0.6-2.1-0.6,1.5-0.5c3.6,0.1,5.8,0.4,5.5,0.4
		s-2.6,0.7-2.6,0.7l-2.8,0.6l-1.8,0.7h-1.1l-1.7,1c0,0-3.4,1-3.2,1.2c0.2,0.2-1,0.8,2.7,1.2c3.7,0.4,4.6,0.6,4.8,0.5
		c0.2-0.1,1,0.2,2.4,0s2.1,0.1,2.1,0.1s0,1.4,0,0.7c0-0.7-1.4,0.6-1.4,0.6h-1.2l-2.8-0.4c0,0-1.4-0.2-1.7-0.2c-0.2,0.1-1,0.6-1,0.6
		v0.9c0,0,1.3,1.8,1.8,1.9c0.5,0.1,1.3,0.2,2.2,0.3s0.9,0.2,0.9,0.2l-1.4,0.9h-1.6c0,0-1.8,0-2.3,0s-1.4,0-1.4,0h-2
		c-0.9,0.8-1.9,1.3-1.4,1.5s-0.8-0.2,1,0.6c1.8,0.8,3.5,1.4,4.2,1.4c0.7,0,2.1,0,2.1,0s0-0.5,2.2,0c2.2,0.5,1.7,0.6,3.4,1
		c1.8,0.5,1.6,1.3,3,0.3s0-1,1.4-1s0.3,1,3,0.2s4.1-1.3,4.1-1.3s1-0.3,1.7-0.6c0.7-0.3,0.9-0.3,1.2-0.4c0.3-0.1,0.9-1,1,0
		c0.1,1-0.2,2.5-0.2,2.9c-0.1,0.4-0.1,3.7-0.1,3.7v1.7l-0.5,5l-1,3.7l9.8,1l-1.6-6.4l-1.4-5.8l-1-3.4l0.1-3.5h0.8
		c0,0,0.2,0.9,0.9,0.9c0.8,0,2.4,0.7,2.9,0.7s1.8,0.6,2.2,0.9s1.2,0.3,1.2,0.3s1.2-1.4,1.4-1.2c0.2,0.2,1.1,1.6,2.1,1.8
		c1,0.2,0.7,1.3,3.1,1c2.4-0.3,3.1,0.1,3.3-0.6c0.2-0.7,0.1-0.7,1.2-1.7c1-1,0.6-0.1,2-1.1c1.4-1,1.4-0.4,1.4-1
		c0-0.6,0.6-1.6-0.7-1.4c-1.3,0.2-1.4,0.2-2.1,0.3c-0.7,0.1-0.8,0.1-2.3,0.1s-2.1-0.6-2.1-0.6l-0.4-1.2c-0.7-0.7-0.4-1.3,0-1.4
		s0.6-0.2,1.8-0.2c1.3,0-0.2,0,1.3,0s2.9,0.1,3-0.2c0.2-0.2-1-0.2,0.2-0.2c1.1,0-0.2,0.5,1.1,0c1.4-0.5,1.8,0.7,2.2-0.5
		c0.4-1.2,0.9-1.7,0.9-1.7L233,297l-3.8-0.5l-0.9-0.1c0,0,0,0.2-1.1-0.6C226,295,226,295,226,295s-1.2-1.1-0.9-1.3
		c0.3-0.2,0.8-0.2,0.8-0.2s1,0,1.2,0c0.2,0,3-0.1,3-0.1c0-1.3,0.1-1.3-0.6-1.5s-2.1-1.5-2.1-1.5c1,0,4.2,0,4.2,0l3.1-1.1v-1.3
		c0,0-3,0-3.2,0c-0.2,0-2.1-0.1-2.6-0.4s-3.2-1.5-3.2-1.5l-1.5-0.3l-2.7-1.4c0,0,0.5-0.9,0.8-0.8c0.3,0.1,2,0.3,2.7,0.2
		c0.7-0.1,1.4-0.1,1.4-0.1l3.2-1.7c0,0-0.5,0.4,1,0.1s2.2-0.3,2.2-0.3s0.5-0.8,0.2-1.1c-0.2-0.3-1.3-0.9-1.6-1
		c-0.3-0.1-2.4-0.1-2.4-0.1s-0.6,0-2.6-0.3s-5.5-0.7-5.5-0.7s-1.6-0.5-0.8-0.8c0.8-0.3,2.1-0.1,2.7,0c0.6,0.1,0,0.7,0.6,0.1
		c0.6-0.6,0.4-0.8,0.2-1c-0.2-0.2-0.7,0.3-0.2-0.2s1-1,1-1l0.8-0.5c0,0,0.3-0.6-0.7-0.7c-1,0-2.6-0.5-2.6-0.5l-1.7-0.5
		c0,0,0.2-1,0.5-1c0.2-0.1,1.6,0.2,2.4-0.2c0.8-0.4,1.3-0.7,1.3-0.7s1.2-1.2,0.6-1.4c-0.6-0.2,0.4,1.1-2.2,0
		c-2.6-1.1-4.2-0.9-3.8-1.7c0.4-0.8,0.6-1.5,0.6-1.5l0.2-1.4l0.2-1.1l-2.7-0.1l-2.3-2c0,0,0.2-0.4,1-0.5c0.7-0.1,3.2-0.7,3.2-0.7
		s0.9-0.8,1.2-2c0.3-1.2,1.4-1.2-0.4-1.2c-1.8,0-2.5,0.1-2.5,0.1s-3.8,1.1-2.9-0.3s2.4-1.7,3.4-1.8c1-0.1,1.4,0,1.9-0.9
		c0.5-0.9,0.5-0.9,0.5-0.9s-1.4,0-2.5-0.1c-1.1-0.1-1-0.1-2.2-0.1c-1.2,0-2.1-0.1-2.1-0.1s0.6-1.1,1-1.2s1.9-0.6,1.9-0.6l1.4-1.6
		c-1.5,0,0.6,0.7-2.1,0c-2.7-0.7-2.7-0.7-2.7-0.7s-0.6-0.3-0.6-0.6c0.1-0.3,2.1-1.1,2.1-1.1s0.5,0.4,0.9-0.3s-0.2-0.2,0.4-0.7
		c0.6-0.6,1-0.9,0.7-1c-0.2-0.1-2.5-0.1-2.5-0.1s-0.3-0.1-0.9-0.2s-1.4-0.6-1.4-1.1s1.1-0.7,1.4-0.8c0.3-0.1,2.2-1,2.2-1
		s0.6-1,0.3-1.1c-0.3-0.1-0.6,0-1.8,0s-2.3,0-2.3,0c0-0.7-0.5-0.5-0.1-1.2s-1.1,0.3,0.4-0.7s1.5-1,1.5-1l0.2-0.9l-2.6-0.2
		c0,0,0.5-0.2,0-0.9s-0.5,0.5-0.5-0.6s0-1.1,0-1.1l2.6-1.7c0,0-1.7-0.6-2.1-0.6s-1.4,0.2-1.6-0.5s-1-0.9-0.2-1.2
		c0.8-0.3,1.4-0.2,1.4-0.6c0.1-0.3,0-0.4-0.5-0.9s-0.5-0.3-0.5-0.9s0-1.4,0-1.4l-0.9-0.2c0,0-0.3-0.8-0.3-1.8s-0.2-0.9,0.4-1.5
		c0.6-0.6,0.6-0.8,0.6-1.2s-1.2-1.2-1.2-1.2s-0.5-0.6-0.4-1.3c0.1-0.7,0.1,0.1,0.1-0.7s-0.6-2.5-0.6-2.5L206.4,216.6z"/>
	<path class="st3" d="M257.8,180.9v2.5l-0.9,0.8l0.9,0.8l-1.6,0.8v1h1.6v2l-1.2,1.2v2l-1.6,0.3l-1,1l2.4,0.5l-1.7,1.7l2.3,1v1.7
		l-2.9-1.6l-1.7,1l2.3,2.3l-0.8,0.8h2.5v1.1l-2.6,1h-2.5l-0.4,1.4l2.2,1.3v2l-1.3,1.3l-2.8-1l-1.8-0.6v1.3l2.3,2.3h2v1.5h-1.9
		l-2.4-0.9v1.4l1.2,1.2l1,1h-1.5H246l-1.8-0.7v1.1l1.4,1.4l2.3,1.2v1h-1.2l-1.4-0.9l-2-0.6l-1.1-1.1l-1.4,0.9c0,0,0.4,1.3,1,1.7
		s1.5,1.4,1.7,1.6c0.2,0.2,0.2,1.5,0.2,1.5l0.3,1c0,0,0.7-0.4,1-0.3c0.3,0.1,1.4,0.3,1.4,0.3s0.2,0.8-0.2,0.8c-0.3,0-1,0-1.4,0
		s-2.2-1-2.7-1.2s-2.7-0.7-2.7-0.7h-0.9c0,0-0.6,0.6-0.5,0.9c0.1,0.2,0.8,1.5,0.8,1.5s0.5-0.4,1,0s2.6,1.5,2.6,1.5l1.8,1l-1,1.9
		l2.9,0.9c0,0-0.6,0.8-1.1,0.9c-0.6,0.1,0.9,0-1.8,0s-0.9,0.6-3.4,0s-3.1-0.6-3.1-0.6s-1.4-1.7-1-0.4c0.5,1.3,1.1,1.9,1.1,1.9
		s-0.5,2.1,1.8,2.7c2.2,0.6,1.8,0.5,2.8,0.7s2,0.6,2,0.6l-0.8,0.6h-2.1c0,0-1.7,0.2-2.3,0s0.5,1.7-0.1,1.8s-1.4-0.1-1.8,0
		s-0.4,0.1-0.4,0.1s-0.7,0.1-0.3,0.7s-0.8-0.6,0.4,0.6c1.2,1.2,2.5,1.4,2.5,1.7s0.9,0.4,0,0.6c-0.9,0.2,0.6,0.2-0.9,0.2s-3,0-3,0
		s-1.4,1.7-2.1,1.2c-0.6-0.5-0.9-1-0.9-1s-0.6,1.3-0.6,1.6s-0.5,1,1,1.2c1.4,0.2,3,0.8,3,0.8l1,0.3l-0.8,0.9c2,0.8,1.8,0.7,2.5,0.8
		s2.6,0.4,2.6,0.4c-1,0.5-2,0.8-2.3,1c-0.3,0.2-0.4,0.6-1,0.6c-0.6,0-1.8-0.3-2.2-0.4c-0.4-0.1-0.2-0.1-1-0.2
		c-0.8-0.1-0.9-0.1-1.6-0.1c-0.7,0-1.4,0.1-1.4,0.1l-1.3,1l2.4,0.8c0,0,1.4,0.2,1.9,0.4s0.5,1.1,0.5,1.1c-5.3,0-6.6,0-6.6,0
		l-0.6,1.1c0,0-0.3,0.4,0.8,0.8c1.1,0.4,1.9,0.6,2.7,0.8c0.8,0.2,0.7,1,0.7,1l-0.6,0.8c0,0-1.9-0.3,0.9,0c2.8,0.3,3,0.2,3.6-0.5
		c0.6-0.6-2.1-0.6,1.5-0.5c3.6,0.1,5.8,0.4,5.5,0.4s-2.6,0.7-2.6,0.7l-2.8,0.6l-1.8,0.7h-1.1l-1.7,1c0,0-3.4,1-3.2,1.2
		c0.2,0.2-1,0.8,2.7,1.2c3.7,0.4,4.6,0.6,4.8,0.5c0.2-0.1,1,0.2,2.4,0s2.1,0.1,2.1,0.1s0,1.4,0,0.7c0-0.7-1.4,0.6-1.4,0.6h-1.2
		l-2.8-0.4c0,0-1.4-0.2-1.7-0.2c-0.2,0.1-1,0.6-1,0.6v0.9c0,0,1.3,1.8,1.8,1.9c0.5,0.1,1.3,0.2,2.2,0.3s0.9,0.2,0.9,0.2l-1.4,0.9
		h-1.6c0,0-1.8,0-2.3,0s-1.4,0-1.4,0h-2c-0.9,0.8-1.9,1.3-1.4,1.5s-0.8-0.2,1,0.6c1.8,0.8,3.5,1.4,4.2,1.4s2.1,0,2.1,0s0-0.5,2.2,0
		c2.2,0.5,1.7,0.6,3.4,1c1.8,0.5,1.6,1.3,3,0.3c1.4-1,0-1,1.4-1s0.3,1,3,0.2c2.7-0.8,4.1-1.3,4.1-1.3s1-0.3,1.7-0.6
		c0.7-0.3,0.9-0.3,1.2-0.4c0.3-0.1,0.9-1,1,0c0.1,1-0.2,2.5-0.2,2.9c-0.1,0.4-0.1,3.7-0.1,3.7v1.7l-0.5,5l-1,3.7l9.8,1l-1.6-6.4
		l-1.4-5.8l-1-3.4l0.1-3.5h0.8c0,0,0.2,0.9,0.9,0.9c0.8,0,2.4,0.7,2.9,0.7s1.8,0.6,2.2,0.9s1.2,0.3,1.2,0.3s1.2-1.4,1.4-1.2
		c0.2,0.2,1.1,1.6,2.1,1.8c1,0.2,0.7,1.3,3.1,1s3.1,0.1,3.3-0.6c0.2-0.7,0.1-0.7,1.2-1.7c1-1,0.6-0.1,2-1.1c1.4-1,1.4-0.4,1.4-1
		c0-0.6,0.6-1.6-0.7-1.4s-1.4,0.2-2.1,0.3c-0.7,0.1-0.8,0.1-2.3,0.1c-1.5,0-2.1-0.6-2.1-0.6l-0.4-1.2c-0.7-0.7-0.4-1.3,0-1.4
		s0.6-0.2,1.8-0.2s-0.2,0,1.3,0c1.4,0,2.9,0.1,3-0.2c0.2-0.2-1-0.2,0.2-0.2s-0.2,0.5,1.1,0c1.4-0.5,1.8,0.7,2.2-0.5
		c0.4-1.2,0.9-1.7,0.9-1.7l-1.4-0.6l-3.8-0.5l-0.9-0.1c0,0,0,0.2-1.1-0.6c-1.1-0.9-1.1-0.9-1.1-0.9s-1.2-1.1-0.9-1.3
		c0.3-0.2,0.8-0.2,0.8-0.2s1,0,1.2,0c0.2,0,3-0.1,3-0.1c0-1.3,0.1-1.3-0.6-1.5c-0.7-0.2-2.1-1.5-2.1-1.5c1,0,4.2,0,4.2,0l3.1-1.1
		v-1.3c0,0-3,0-3.2,0c-0.2,0-2.1-0.1-2.6-0.4s-3.2-1.5-3.2-1.5l-1.5-0.3l-2.7-1.4c0,0,0.5-0.9,0.8-0.8c0.3,0.1,2,0.3,2.7,0.2
		s1.4-0.1,1.4-0.1l3.2-1.7c0,0-0.5,0.4,1,0.1c1.5-0.3,2.2-0.3,2.2-0.3s0.5-0.8,0.2-1.1s-1.3-0.9-1.6-1c-0.3-0.1-2.4-0.1-2.4-0.1
		s-0.6,0-2.6-0.3s-5.5-0.7-5.5-0.7s-1.6-0.5-0.8-0.8c0.8-0.3,2.1-0.1,2.7,0s0,0.7,0.6,0.1c0.6-0.6,0.4-0.8,0.2-1
		c-0.2-0.2-0.7,0.3-0.2-0.2c0.5-0.5,1-1,1-1l0.8-0.5c0,0,0.3-0.6-0.7-0.7c-1,0-2.6-0.5-2.6-0.5l-1.7-0.5c0,0,0.2-1,0.5-1
		s1.6,0.2,2.4-0.2c0.8-0.4,1.3-0.7,1.3-0.7s1.2-1.2,0.6-1.4c-0.6-0.2,0.4,1.1-2.2,0c-2.6-1.1-4.2-0.9-3.8-1.7
		c0.4-0.8,0.6-1.5,0.6-1.5l0.2-1.4l0.2-1.1l-2.7-0.1l-2.3-2c0,0,0.2-0.4,1-0.5c0.7-0.1,3.2-0.7,3.2-0.7s0.9-0.8,1.2-2
		c0.3-1.2,1.4-1.2-0.4-1.2c-1.8,0-2.5,0.1-2.5,0.1s-3.8,1.1-2.9-0.3s2.4-1.7,3.4-1.8s1.4,0,1.9-0.9c0.5-0.9,0.5-0.9,0.5-0.9
		s-1.4,0-2.5-0.1s-1-0.1-2.2-0.1s-2.1-0.1-2.1-0.1s0.6-1.1,1-1.2c0.5-0.1,1.9-0.6,1.9-0.6l1.4-1.6c-1.5,0,0.6,0.7-2.1,0
		c-2.7-0.7-2.7-0.7-2.7-0.7s-0.6-0.3-0.6-0.6s2.1-1.1,2.1-1.1s0.5,0.4,0.9-0.3s-0.2-0.2,0.4-0.7c0.6-0.6,1-0.9,0.7-1
		s-2.5-0.1-2.5-0.1s-0.3-0.1-0.9-0.2c-0.6-0.2-1.4-0.6-1.4-1.1s1.1-0.7,1.4-0.8s2.2-1,2.2-1s0.6-1,0.3-1.1c-0.3-0.1-0.6,0-1.8,0
		c-1.2,0-2.3,0-2.3,0c0-0.7-0.5-0.5-0.1-1.2c0.4-0.7-1.1,0.3,0.4-0.7c1.5-1,1.5-1,1.5-1l0.2-0.9l-2.6-0.2c0,0,0.5-0.2,0-0.9
		c-0.5-0.6-0.5,0.5-0.5-0.6s0-1.1,0-1.1l2.6-1.7c0,0-1.7-0.6-2.1-0.6c-0.4,0-1.4,0.2-1.6-0.5s-1-0.9-0.2-1.2
		c0.8-0.3,1.4-0.2,1.4-0.6s0-0.4-0.5-0.9c-0.5-0.5-0.5-0.3-0.5-0.9s0-1.4,0-1.4l-0.9-0.2c0,0-0.3-0.8-0.3-1.8s-0.2-0.9,0.4-1.5
		c0.6-0.6,0.6-0.8,0.6-1.2s-1.2-1.2-1.2-1.2s-0.5-0.6-0.4-1.3c0.1-0.7,0.1,0.1,0.1-0.7s-0.6-2.5-0.6-2.5L257.8,180.9z"/>
	<path class="st3" d="M269.7,170.3v2.5l-0.9,0.8l0.9,0.8l-1.6,0.8v1h1.6v2l-1.2,1.2v2l-1.6,0.3l-1,1l2.4,0.5l-1.7,1.7l2.3,1v1.7
		l-2.9-1.6l-1.7,1l2.3,2.3l-0.8,0.8h2.5v1.1l-2.6,1H263l-0.4,1.4l2.2,1.3v2l-1.3,1.3l-2.8-1l-1.8-0.6v1.3l2.3,2.3h2v1.5h-1.9
		l-2.4-0.9v1.4l1.2,1.2l1,1h-1.5h-1.8l-1.8-0.7v1.1l1.4,1.4l2.3,1.2v1h-1.2l-1.4-0.9l-2-0.6L254,206l-1.4,0.9c0,0,0.4,1.3,1,1.7
		s1.5,1.4,1.7,1.6c0.2,0.2,0.2,1.5,0.2,1.5l0.3,1c0,0,0.7-0.4,1-0.3s1.4,0.3,1.4,0.3s0.2,0.8-0.2,0.8s-1,0-1.4,0s-2.2-1-2.7-1.2
		s-2.7-0.7-2.7-0.7h-0.9c0,0-0.6,0.6-0.5,0.9s0.8,1.5,0.8,1.5s0.5-0.4,1,0s2.6,1.5,2.6,1.5l1.8,1l-1,1.9l2.9,0.9
		c0,0-0.6,0.8-1.1,0.9s0.9,0-1.8,0c-2.6,0-0.9,0.6-3.4,0s-3.1-0.6-3.1-0.6s-1.4-1.7-1-0.4s1.1,1.9,1.1,1.9s-0.5,2.1,1.8,2.7
		c2.2,0.6,1.8,0.5,2.8,0.7s2,0.6,2,0.6l-0.8,0.6h-2.1c0,0-1.7,0.2-2.3,0c-0.6-0.2,0.5,1.7-0.1,1.8s-1.4-0.1-1.8,0
		c-0.4,0.1-0.4,0.1-0.4,0.1s-0.7,0.1-0.3,0.7s-0.8-0.6,0.4,0.6c1.2,1.2,2.5,1.4,2.5,1.7s0.9,0.4,0,0.6s0.6,0.2-0.9,0.2
		c-1.4,0-3,0-3,0s-1.4,1.7-2.1,1.2c-0.6-0.5-0.9-1-0.9-1s-0.6,1.3-0.6,1.6s-0.5,1,1,1.2s3,0.8,3,0.8l1,0.3l-0.8,0.9
		c2,0.8,1.8,0.7,2.5,0.8c0.6,0.1,2.6,0.4,2.6,0.4c-1,0.5-2,0.8-2.3,1c-0.3,0.2-0.4,0.6-1,0.6s-1.8-0.3-2.2-0.4s-0.2-0.1-1-0.2
		s-0.9-0.1-1.6-0.1c-0.7,0-1.4,0.1-1.4,0.1l-1.3,1l2.4,0.8c0,0,1.4,0.2,1.9,0.4s0.5,1.1,0.5,1.1c-5.3,0-6.6,0-6.6,0l-0.6,1.1
		c0,0-0.3,0.4,0.8,0.8c1.1,0.4,1.9,0.6,2.7,0.8s0.7,1,0.7,1l-0.6,0.8c0,0-1.9-0.3,0.9,0s3,0.2,3.6-0.5s-2.1-0.6,1.5-0.5
		s5.8,0.4,5.5,0.4s-2.6,0.7-2.6,0.7l-2.8,0.6l-1.8,0.7h-1.1l-1.7,1c0,0-3.4,1-3.2,1.2c0.2,0.2-1,0.8,2.7,1.2
		c3.7,0.4,4.6,0.6,4.8,0.5c0.2-0.1,1,0.2,2.4,0s2.1,0.1,2.1,0.1s0,1.4,0,0.7c0-0.7-1.4,0.6-1.4,0.6h-1.2l-2.8-0.4
		c0,0-1.4-0.2-1.7-0.2c-0.2,0.1-1,0.6-1,0.6v0.9c0,0,1.3,1.8,1.8,1.9c0.5,0.1,1.3,0.2,2.2,0.3c0.9,0.2,0.9,0.2,0.9,0.2l-1.4,0.9H247
		c0,0-1.8,0-2.3,0s-1.4,0-1.4,0h-2c-0.9,0.8-1.9,1.3-1.4,1.5s-0.8-0.2,1,0.6c1.8,0.8,3.5,1.4,4.2,1.4c0.7,0,2.1,0,2.1,0s0-0.5,2.2,0
		c2.2,0.5,1.7,0.6,3.4,1c1.8,0.5,1.6,1.3,3,0.3c1.4-1,0-1,1.4-1c1.4,0,0.3,1,3,0.2c2.7-0.8,4.1-1.3,4.1-1.3s1-0.3,1.7-0.6
		s0.9-0.3,1.2-0.4c0.3-0.1,0.9-1,1,0c0.1,1-0.2,2.5-0.2,2.9c-0.1,0.4-0.1,3.7-0.1,3.7v1.7l-0.5,5l-1,3.7l9.8,1l-1.6-6.4l-1.4-5.8
		l-1-3.4l0.1-3.5h0.8c0,0,0.2,0.9,0.9,0.9c0.8,0,2.4,0.7,2.9,0.7c0.6,0,1.8,0.6,2.2,0.9s1.2,0.3,1.2,0.3s1.2-1.4,1.4-1.2
		c0.2,0.2,1.1,1.6,2.1,1.8c1,0.2,0.7,1.3,3.1,1c2.4-0.3,3.1,0.1,3.3-0.6c0.2-0.7,0.1-0.7,1.2-1.7c1-1,0.6-0.1,2-1.1s1.4-0.4,1.4-1
		c0-0.6,0.6-1.6-0.7-1.4c-1.3,0.2-1.4,0.2-2.1,0.3c-0.7,0.1-0.8,0.1-2.3,0.1c-1.5,0-2.1-0.6-2.1-0.6l-0.4-1.2
		c-0.7-0.7-0.4-1.3,0-1.4c0.4-0.2,0.6-0.2,1.8-0.2c1.3,0-0.2,0,1.3,0c1.4,0,2.9,0.1,3-0.2s-1-0.2,0.2-0.2s-0.2,0.5,1.1,0
		c1.4-0.5,1.8,0.7,2.2-0.5c0.4-1.2,0.9-1.7,0.9-1.7l-1.4-0.6l-3.8-0.5l-0.9-0.1c0,0,0,0.2-1.1-0.6c-1.1-0.9-1.1-0.9-1.1-0.9
		s-1.2-1.1-0.9-1.3s0.8-0.2,0.8-0.2s1,0,1.2,0s3-0.1,3-0.1c0-1.3,0.1-1.3-0.6-1.5c-0.7-0.2-2.1-1.5-2.1-1.5c1,0,4.2,0,4.2,0l3.1-1.1
		v-1.3c0,0-3,0-3.2,0c-0.2,0-2.1-0.1-2.6-0.4c-0.6-0.3-3.2-1.5-3.2-1.5l-1.5-0.3l-2.7-1.4c0,0,0.5-0.9,0.8-0.8
		c0.3,0.1,2,0.3,2.7,0.2s1.4-0.1,1.4-0.1l3.2-1.7c0,0-0.5,0.4,1,0.1c1.5-0.3,2.2-0.3,2.2-0.3s0.5-0.8,0.2-1.1s-1.3-0.9-1.6-1
		c-0.3-0.1-2.4-0.1-2.4-0.1s-0.6,0-2.6-0.3c-1.9-0.3-5.5-0.7-5.5-0.7s-1.6-0.5-0.8-0.8s2.1-0.1,2.7,0s0,0.7,0.6,0.1
		c0.6-0.6,0.4-0.8,0.2-1c-0.2-0.2-0.7,0.3-0.2-0.2c0.5-0.5,1-1,1-1l0.8-0.5c0,0,0.3-0.6-0.7-0.7c-1,0-2.6-0.5-2.6-0.5l-1.7-0.5
		c0,0,0.2-1,0.5-1s1.6,0.2,2.4-0.2s1.3-0.7,1.3-0.7s1.2-1.2,0.6-1.4c-0.6-0.2,0.4,1.1-2.2,0c-2.6-1.1-4.2-0.9-3.8-1.7
		c0.4-0.8,0.6-1.5,0.6-1.5l0.2-1.4l0.2-1.1l-2.7-0.1l-2.3-2c0,0,0.2-0.4,1-0.5s3.2-0.7,3.2-0.7s0.9-0.8,1.2-2
		c0.3-1.2,1.4-1.2-0.4-1.2s-2.5,0.1-2.5,0.1s-3.8,1.1-2.9-0.3s2.4-1.7,3.4-1.8s1.4,0,1.9-0.9s0.5-0.9,0.5-0.9s-1.4,0-2.5-0.1
		s-1-0.1-2.2-0.1s-2.1-0.1-2.1-0.1s0.6-1.1,1-1.2c0.5-0.1,1.9-0.6,1.9-0.6l1.4-1.6c-1.5,0,0.6,0.7-2.1,0s-2.7-0.7-2.7-0.7
		s-0.6-0.3-0.6-0.6s2.1-1.1,2.1-1.1s0.5,0.4,0.9-0.3c0.4-0.7-0.2-0.2,0.4-0.7c0.6-0.6,1-0.9,0.7-1s-2.5-0.1-2.5-0.1
		s-0.3-0.1-0.9-0.2c-0.6-0.2-1.4-0.6-1.4-1.1s1.1-0.7,1.4-0.8c0.3-0.1,2.2-1,2.2-1s0.6-1,0.3-1.1s-0.6,0-1.8,0c-1.2,0-2.3,0-2.3,0
		c0-0.7-0.5-0.5-0.1-1.2c0.4-0.7-1.1,0.3,0.4-0.7c1.5-1,1.5-1,1.5-1l0.2-0.9l-2.6-0.2c0,0,0.5-0.2,0-0.9c-0.5-0.6-0.5,0.5-0.5-0.6
		s0-1.1,0-1.1l2.6-1.7c0,0-1.7-0.6-2.1-0.6c-0.4,0-1.4,0.2-1.6-0.5s-1-0.9-0.2-1.2c0.8-0.3,1.4-0.2,1.4-0.6s0-0.4-0.5-0.9
		c-0.5-0.5-0.5-0.3-0.5-0.9s0-1.4,0-1.4l-0.9-0.2c0,0-0.3-0.8-0.3-1.8c0-1-0.2-0.9,0.4-1.5c0.6-0.6,0.6-0.8,0.6-1.2
		s-1.2-1.2-1.2-1.2s-0.5-0.6-0.4-1.3s0.1,0.1,0.1-0.7s-0.6-2.5-0.6-2.5L269.7,170.3z"/>
	<path class="st3" d="M234.7,194.2v2.5l-0.9,0.8l0.9,0.8l-1.6,0.8v1h1.6v2l-1.2,1.2v2l-1.6,0.3l-1,1l2.4,0.5l-1.7,1.7l2.3,1v1.7
		l-2.9-1.6l-1.7,1l2.3,2.3l-0.8,0.8h2.5v1.1l-2.6,1h-2.5l-0.4,1.4l2.2,1.3v2l-1.3,1.3l-2.8-1l-1.8-0.6v1.3l2.3,2.3h2v1.5h-1.9
		l-2.4-0.9v1.4l1.2,1.2l1,1h-1.5h-1.8l-1.8-0.7v1.1l1.4,1.4l2.3,1.2v1h-1.2l-1.4-0.9l-2-0.6l-1.1-1.1l-1.4,0.9c0,0,0.4,1.3,1,1.7
		s1.5,1.4,1.7,1.6c0.2,0.2,0.2,1.5,0.2,1.5l0.3,1c0,0,0.7-0.4,1-0.3c0.3,0.1,1.4,0.3,1.4,0.3s0.2,0.8-0.2,0.8s-1,0-1.4,0
		c-0.3,0-2.2-1-2.7-1.2s-2.7-0.7-2.7-0.7h-0.9c0,0-0.6,0.6-0.5,0.9s0.8,1.5,0.8,1.5s0.5-0.4,1,0s2.6,1.5,2.6,1.5l1.8,1l-1,1.9
		l2.9,0.9c0,0-0.6,0.8-1.1,0.9c-0.6,0.1,0.9,0-1.8,0s-0.9,0.6-3.4,0s-3.1-0.6-3.1-0.6s-1.4-1.7-1-0.4c0.5,1.3,1.1,1.9,1.1,1.9
		s-0.5,2.1,1.8,2.7c2.2,0.6,1.8,0.5,2.8,0.7c1,0.2,2,0.6,2,0.6l-0.8,0.6h-2.1c0,0-1.7,0.2-2.3,0s0.5,1.7-0.1,1.8s-1.4-0.1-1.8,0
		c-0.4,0.1-0.4,0.1-0.4,0.1s-0.7,0.1-0.3,0.7s-0.8-0.6,0.4,0.6c1.2,1.2,2.5,1.4,2.5,1.7s0.9,0.4,0,0.6c-0.9,0.2,0.6,0.2-0.9,0.2
		s-3,0-3,0s-1.4,1.7-2.1,1.2s-0.9-1-0.9-1s-0.6,1.3-0.6,1.6c0,0.2-0.5,1,1,1.2s3,0.8,3,0.8l1,0.3l-0.8,0.9c2,0.8,1.8,0.7,2.5,0.8
		c0.6,0.1,2.6,0.4,2.6,0.4c-1,0.5-2,0.8-2.3,1c-0.3,0.2-0.4,0.6-1,0.6c-0.6,0-1.8-0.3-2.2-0.4c-0.4-0.1-0.2-0.1-1-0.2
		c-0.8-0.1-0.9-0.1-1.6-0.1c-0.7,0-1.4,0.1-1.4,0.1l-1.3,1l2.4,0.8c0,0,1.4,0.2,1.9,0.4c0.5,0.2,0.5,1.1,0.5,1.1c-5.3,0-6.6,0-6.6,0
		l-0.6,1.1c0,0-0.3,0.4,0.8,0.8c1.1,0.4,1.9,0.6,2.7,0.8c0.8,0.2,0.7,1,0.7,1l-0.6,0.8c0,0-1.9-0.3,0.9,0c2.8,0.3,3,0.2,3.6-0.5
		c0.6-0.6-2.1-0.6,1.5-0.5c3.6,0.1,5.8,0.4,5.5,0.4s-2.6,0.7-2.6,0.7l-2.8,0.6l-1.8,0.7h-1.1l-1.7,1c0,0-3.4,1-3.2,1.2
		c0.2,0.2-1,0.8,2.7,1.2c3.7,0.4,4.6,0.6,4.8,0.5c0.2-0.1,1,0.2,2.4,0c1.4-0.2,2.1,0.1,2.1,0.1s0,1.4,0,0.7c0-0.7-1.4,0.6-1.4,0.6
		h-1.2l-2.8-0.4c0,0-1.4-0.2-1.7-0.2c-0.2,0.1-1,0.6-1,0.6v0.9c0,0,1.3,1.8,1.8,1.9c0.5,0.1,1.3,0.2,2.2,0.3s0.9,0.2,0.9,0.2
		l-1.4,0.9H212c0,0-1.8,0-2.3,0s-1.4,0-1.4,0h-2c-0.9,0.8-1.9,1.3-1.4,1.5s-0.8-0.2,1,0.6c1.8,0.8,3.5,1.4,4.2,1.4
		c0.7,0,2.1,0,2.1,0s0-0.5,2.2,0c2.2,0.5,1.7,0.6,3.4,1c1.8,0.5,1.6,1.3,3,0.3c1.4-1,0-1,1.4-1c1.4,0,0.3,1,3,0.2
		c2.7-0.8,4.1-1.3,4.1-1.3s1-0.3,1.7-0.6c0.7-0.3,0.9-0.3,1.2-0.4c0.3-0.1,0.9-1,1,0c0.1,1-0.2,2.5-0.2,2.9
		c-0.1,0.4-0.1,3.7-0.1,3.7v1.7l-0.5,5l-1,3.7l9.8,1l-1.6-6.4l-1.4-5.8l-1-3.4l0.1-3.5h0.8c0,0,0.2,0.9,0.9,0.9
		c0.8,0,2.4,0.7,2.9,0.7s1.8,0.6,2.2,0.9c0.3,0.3,1.2,0.3,1.2,0.3s1.2-1.4,1.4-1.2c0.2,0.2,1.1,1.6,2.1,1.8c1,0.2,0.7,1.3,3.1,1
		s3.1,0.1,3.3-0.6c0.2-0.7,0.1-0.7,1.2-1.7c1-1,0.6-0.1,2-1.1c1.4-1,1.4-0.4,1.4-1c0-0.6,0.6-1.6-0.7-1.4s-1.4,0.2-2.1,0.3
		c-0.7,0.1-0.8,0.1-2.3,0.1s-2.1-0.6-2.1-0.6l-0.4-1.2c-0.7-0.7-0.4-1.3,0-1.4s0.6-0.2,1.8-0.2c1.3,0-0.2,0,1.3,0
		c1.4,0,2.9,0.1,3-0.2c0.2-0.2-1-0.2,0.2-0.2s-0.2,0.5,1.1,0c1.4-0.5,1.8,0.7,2.2-0.5c0.4-1.2,0.9-1.7,0.9-1.7l-1.4-0.6l-3.8-0.5
		l-0.9-0.1c0,0,0,0.2-1.1-0.6c-1.1-0.9-1.1-0.9-1.1-0.9s-1.2-1.1-0.9-1.3c0.3-0.2,0.8-0.2,0.8-0.2s1,0,1.2,0c0.2,0,3-0.1,3-0.1
		c0-1.3,0.1-1.3-0.6-1.5c-0.7-0.2-2.1-1.5-2.1-1.5c1,0,4.2,0,4.2,0l3.1-1.1v-1.3c0,0-3,0-3.2,0c-0.2,0-2.1-0.1-2.6-0.4
		c-0.6-0.3-3.2-1.5-3.2-1.5l-1.5-0.3l-2.7-1.4c0,0,0.5-0.9,0.8-0.8c0.3,0.1,2,0.3,2.7,0.2c0.7-0.1,1.4-0.1,1.4-0.1l3.2-1.7
		c0,0-0.5,0.4,1,0.1c1.5-0.3,2.2-0.3,2.2-0.3s0.5-0.8,0.2-1.1s-1.3-0.9-1.6-1c-0.3-0.1-2.4-0.1-2.4-0.1s-0.6,0-2.6-0.3
		c-1.9-0.3-5.5-0.7-5.5-0.7s-1.6-0.5-0.8-0.8s2.1-0.1,2.7,0c0.6,0.1,0,0.7,0.6,0.1c0.6-0.6,0.4-0.8,0.2-1c-0.2-0.2-0.7,0.3-0.2-0.2
		c0.5-0.5,1-1,1-1l0.8-0.5c0,0,0.3-0.6-0.7-0.7c-1,0-2.6-0.5-2.6-0.5l-1.7-0.5c0,0,0.2-1,0.5-1c0.2-0.1,1.6,0.2,2.4-0.2
		s1.3-0.7,1.3-0.7s1.2-1.2,0.6-1.4c-0.6-0.2,0.4,1.1-2.2,0c-2.6-1.1-4.2-0.9-3.8-1.7s0.6-1.5,0.6-1.5l0.2-1.4l0.2-1.1l-2.7-0.1
		l-2.3-2c0,0,0.2-0.4,1-0.5c0.7-0.1,3.2-0.7,3.2-0.7s0.9-0.8,1.2-2c0.3-1.2,1.4-1.2-0.4-1.2c-1.8,0-2.5,0.1-2.5,0.1
		s-3.8,1.1-2.9-0.3s2.4-1.7,3.4-1.8s1.4,0,1.9-0.9s0.5-0.9,0.5-0.9s-1.4,0-2.5-0.1c-1.1-0.1-1-0.1-2.2-0.1c-1.2,0-2.1-0.1-2.1-0.1
		s0.6-1.1,1-1.2s1.9-0.6,1.9-0.6l1.4-1.6c-1.5,0,0.6,0.7-2.1,0c-2.7-0.7-2.7-0.7-2.7-0.7s-0.6-0.3-0.6-0.6s2.1-1.1,2.1-1.1
		s0.5,0.4,0.9-0.3s-0.2-0.2,0.4-0.7s1-0.9,0.7-1c-0.2-0.1-2.5-0.1-2.5-0.1s-0.3-0.1-0.9-0.2s-1.4-0.6-1.4-1.1s1.1-0.7,1.4-0.8
		c0.3-0.1,2.2-1,2.2-1s0.6-1,0.3-1.1c-0.3-0.1-0.6,0-1.8,0c-1.2,0-2.3,0-2.3,0c0-0.7-0.5-0.5-0.1-1.2c0.4-0.7-1.1,0.3,0.4-0.7
		s1.5-1,1.5-1l0.2-0.9l-2.6-0.2c0,0,0.5-0.2,0-0.9c-0.5-0.6-0.5,0.5-0.5-0.6c0-1.1,0-1.1,0-1.1l2.6-1.7c0,0-1.7-0.6-2.1-0.6
		c-0.4,0-1.4,0.2-1.6-0.5c-0.2-0.6-1-0.9-0.2-1.2c0.8-0.3,1.4-0.2,1.4-0.6s0-0.4-0.5-0.9s-0.5-0.3-0.5-0.9s0-1.4,0-1.4l-0.9-0.2
		c0,0-0.3-0.8-0.3-1.8s-0.2-0.9,0.4-1.5c0.6-0.6,0.6-0.8,0.6-1.2c0-0.5-1.2-1.2-1.2-1.2s-0.5-0.6-0.4-1.3s0.1,0.1,0.1-0.7
		s-0.6-2.5-0.6-2.5L234.7,194.2z"/>
</g>
</svg>
