<?xml version="1.0" encoding="utf-8"?>
<!-- Generator: Adobe Illustrator 24.3.0, SVG Export Plug-In . SVG Version: 6.00 Build 0)  -->
<svg version="1.1" id="Layer_1" xmlns="http://www.w3.org/2000/svg" xmlns:xlink="http://www.w3.org/1999/xlink" x="0px" y="0px"
	 viewBox="0 0 288 288" style="enable-background:new 0 0 288 288;" xml:space="preserve">
<style type="text/css">
	.st0{stroke:#000000;stroke-miterlimit:10;}
</style>
<g>
	<g>
		<path d="M97.8,259.1l-0.7,1.1c-5,7.7-14.3,10.2-22.2,5.1s-9.9-16-4.8-23.8c5.2-8.1,16-10.6,24.1-5.4c4.4,2.8,7.4,7.6,8,12.8
			l-4,0.8c-0.2-4.1-2.5-8.1-5.9-10.3c-6.3-4.1-14.6-2.1-18.6,4.2c-3.8,5.9-2.5,14.6,3.5,18.6c4.4,2.8,11.5,2.1,14.6-2.4l-7.3-4.7
			l2.1-3.2L97.8,259.1z"/>
	</g>
	<g>
		<path d="M126.6,285.3l-4.9-1.3l-5.9-16.3l-1.7-0.4l-3.7,13.7l-4-1.1l8.7-32.4l4.9,1.3c2.9,0.8,6,1.6,8.1,3.8
			c2.3,2.3,3,5.8,2.2,8.9c-1.2,4.6-5.4,7.7-10.2,7L126.6,285.3z M115.1,263.9l1.3,0.3c4.1,1.1,8.8,1.5,10.2-3.6
			c1.4-5.1-3.3-7.1-7.3-8.2l-1.1-0.3L115.1,263.9z"/>
	</g>
	<g>
		<path d="M143.7,253.5l18-0.2l0,3.8l-13.8,0.1l0.1,9.4l13.4-0.1l0,3.8l-13.4,0.1l0.1,12.7l13.8-0.1l0,3.8l-18,0.2L143.7,253.5z"/>
	</g>
	<g>
		<path d="M171.6,251.7l17.3-5.2l1.1,3.7l-13.2,4l2.7,9l12.9-3.9l1.1,3.7l-12.9,3.9l3.6,12.1l13.2-4l1.1,3.7l-17.3,5.2L171.6,251.7z
			"/>
	</g>
	<g>
		<path d="M196,242.3l36,5.6l-15.1-19.7l3.3-2.5l21.2,27.7l-36-5.6l15.2,19.8l-3.3,2.5L196,242.3z"/>
	</g>
</g>
<g>
	<g>
		<g>
			<path d="M75.5,59l-8.7,7.6l-4.6-22.8l-10.9,9.6l1.7,2l7.5-6.5L65,71.6l12.2-10.7L75.5,59z"/>
		</g>
		<g>
			<path d="M92.4,48.2L84.4,53l-4.4-7.4l7.8-4.7l-1.3-2.2l-7.8,4.7l-3.3-5.5l8.1-4.8L82,30.9l-10.5,6.3l11.8,19.6l10.5-6.3
				L92.4,48.2z"/>
		</g>
		<g>
			<path d="M120.1,41.1l-7.8-22.5l-2.7,0.9l5.5,15.9l-22-11.4l7.8,22.6l2.7-0.9l-5.5-16.1L120.1,41.1z"/>
		</g>
		<g>
			<path d="M140.8,30.4c-0.5-3.8-3.1-5.3-6.4-6.1l-1.7-0.4c-1.5-0.4-3.3-1.1-3.6-2.9c-0.2-2,1.6-3.5,3.4-3.7
				c1.7-0.2,2.9,0.4,3.9,1.7l2.1-1.6c-1.5-2-3.7-3-6.2-2.7c-3.4,0.4-6.4,3-5.9,6.7c0.4,3.2,2.9,4.3,5.6,5.1l1.6,0.5
				c2.1,0.6,4.1,1.4,4.4,3.8c0.3,2.4-1.2,4.6-3.6,4.9c-2.4,0.3-4.6-1.3-4.9-3.8l-2.8,0.9c0.9,3.6,4.1,5.9,7.8,5.5
				C138.4,37.9,141.3,34.5,140.8,30.4z"/>
		</g>
		<g>
			<path d="M150.8,14.7L150.2,37l3.5,0.1l0.6-22.2L150.8,14.7z"/>
		</g>
		<g>
			<path d="M175.4,27.5L175.4,27.5c1.7-0.5,2.9-2.2,3.2-3.9c0.9-5.1-2.8-6.9-7.1-7.7l-2.7-0.5l-4.2,22.4l5.2,1c4,0.7,8.1-0.3,9-4.8
				C179.3,31.4,177.9,28.4,175.4,27.5z M171.1,18.4l0.8,0.1c2.6,0.5,4.7,1.4,4.1,4.6c-0.6,3.2-2.9,3.3-5.5,2.9l-0.7-0.1L171.1,18.4z
				 M176,33.3c-0.6,3.2-3.4,3.5-6,3l-2.1-0.4l1.4-7.8l1.7,0.3C173.5,28.9,176.6,30.1,176,33.3z"/>
		</g>
		<g>
			<path d="M192.9,21.1l-7.3,21.6l2.7,0.9l7.3-21.6L192.9,21.1z"/>
		</g>
		<g>
			<path d="M209.6,27.9l-2.6-1.2l-10,20.5l8.8,4.3l1.1-2.3l-6.2-3L209.6,27.9z"/>
		</g>
		<g>
			<path d="M233.9,42.5l-10.2,4.8l1-11.2l-2.7-1.9l-1.2,14.8l-5.7,8.2l2.3,1.6l5.7-8.2l13.5-6.3L233.9,42.5z"/>
		</g>
	</g>
	<g>
		<path d="M156.7,9c-0.1,0.4-0.2,0.9-0.4,1.2c-0.3,0.6-1,1.1-1.9,1.4c-0.3,0.1-0.2,0.1-0.5,0.2c0.5-1.6,0.6-2.7,0.5-3.6
			c1.4-0.6,1.8-1.9,1.5-3c0,1.2-0.5,1.5-1.6,2c0-3.1-1-5.1-1.6-6.1c0.2,0.4,1,2.6,1,4c0,0-1.9-1.3-2-2c0,0.5,0.7,2.1,2,2.6
			c0,1.1,0,1.9-0.2,3c0,0.1,0,0.2,0,0.3c0,0.3,0,0.2-0.1,0.4c0,0,0,0,0,0c-0.5-0.2-2.8-1.7-2.9-3.4c-0.1,1.6,0.9,3.7,2.7,4.4
			c-0.2,0.6-0.4,1.1-0.6,1.5c0,0-0.1,0-0.1,0c-0.6,0-1.1-0.1-1.7-0.3c-0.8-0.4-1.5-1-1.9-2.2c-1.1-3.2,2.8-4,2.9-9.6
			C154.6,0.8,157.2,5.7,156.7,9z"/>
	</g>
</g>
<g>
	<g>
		<rect x="150.8" y="81.6" width="0.6" height="0.1"/>
	</g>
	<g>
		<polygon points="146.1,88.3 145.7,87.9 146.1,88.3 		"/>
	</g>
	<g>
		<polygon points="150.8,81.7 150.8,81.7 151.4,81.7 		"/>
	</g>
	<g>
		<path d="M156.3,88.5l0-0.3L156.3,88.5z M156.6,88.2h-0.3v-0.3L156.6,88.2z"/>
	</g>
	<g>
		<path class="st0" d="M152.7,113.6"/>
	</g>
	<g>
		<path d="M148.9,43.3c-55.6,0-100.6,45-100.6,100.6s45,100.6,100.6,100.6s100.6-45,100.6-100.6S204.5,43.3,148.9,43.3z
			 M231.1,192.1l-7.4-7.4l3.4-11.3l-1.3-8.9l-2.4-7.3l-7.1-7.1v-10.3l-3.2-3.2l-4.7,4.7l-3.7,9.1l-8.6,13.5l-1.9,2.7l-3.2,4.7v9.2
			l7.2,7.2v5.7l10.4,5.4l4.4,2.7l-2.4,6.4l-2,10.3v0c-4,3.2-8.2,6-12.6,8.6l-2.2-7.8l-14.1-8.7l-9.1-5l3-11.8l-3.4-10.1l-0.6-9.7
			l-9.1-7.1l4.7-7.4l-3-8.8l-0.6-15.4l-6.4-6.4l-2.4-8.5v-6.5c0-4.9,12.5-2.9,12.5-2.9c-1.1-3-6.9-4.5-6.9-4.5c0-2.7,6-1.1,6-1.1
			c-1-3.8-8.8-4.2-8.8-4.2c0-3,6.2-1,6.2-1c-2.7-4.5-7.1-5.2-7.1-5.2c0-3.5,4.7-1,4.7-1c-2.7-3.9-6.7-4.1-6.7-4.1
			c0-3,3.6-1.4,3.8-1.3c-1.6-2.9-5.2-4.3-5.2-9.1c0,4.8-3.6,6.2-5.2,9c0.2-0.1,3.8-1.7,3.8,1.3c-4.6,0.9-4.9,1.4-6.7,4.1
			c0,0,4.7-2.5,4.7,1c0,0-4.4,0.7-7.1,5.2c0,0,6.2-2,6.2,1c0,0-7.7,0.4-8.8,4.2c0,0,6-1.6,6,1.1c0,0-5.7,1.5-6.9,4.5
			c0,0,11.9-1.9,11.9,3v6.5l-8.6,20.4l-8.8,8.8l-7.6,2.9v7.6l-7.6,7.6l-1.4,5.1l-2.1,7.7v5.1l-4.8,7.4l-11.3,5.1l-5.5,8.3l-4.4-14.9
			l2.2-11.4l-2.2-7.4l-5.6-5.6l-1.5-11.2l3-10.1l-3-2.8l-5,5l-4.5,8.5l-0.8,1.4l-4.2,8.1l-3.1-5.6v-5.5l-2.1-8.5l-3.3-3.3l-1.5,5.8
			l-1.4,1.4c-0.1-1.9-0.2-3.9-0.2-5.8c0-52.6,42.6-95.2,95.2-95.2s95.2,42.6,95.2,95.2c0,4.2-0.3,8.3-0.8,12.3
			C241.7,169.2,237.4,181.4,231.1,192.1z"/>
	</g>
	<g>
		<polygon points="114.8,173.3 109,172 105.8,168.9 105.8,164.6 102.9,161 96.3,160.3 91.3,157.4 87.1,150.1 85.8,146.9 79.3,143.7 
			79.7,142.6 87.2,145.6 88.8,149.4 92.7,156 96.9,158.5 103.8,159.2 107.7,164 107.7,168.1 109.9,170.3 115.5,171.7 		"/>
	</g>
	<g>
		<polygon points="193.6,167.6 190.1,160.3 180.7,155.9 174.7,149.8 173.7,138.2 166.3,131.1 159.2,128 152,120.7 152.7,119.1 
			160.3,126.5 167.3,129.6 175.5,137.3 176.5,149 181.8,154.3 191.4,158.9 194.9,166.2 		"/>
	</g>
	<g>
		<polygon points="236.3,158.5 234.4,153.6 229.1,151.3 222,146.7 219.2,141.8 212.2,137.8 212.9,136.6 220.6,140.5 223.4,145.4 
			230,149.8 235.8,152.2 237.5,156.4 243.9,155.3 243.5,157.2 		"/>
	</g>
	<g>
		<polygon points="70,157 67.2,154.2 66.8,151 63.4,148.9 60.9,145.3 56.4,143.9 56.8,142.2 62.2,143.8 64.7,147.6 68.5,149.9 
			69,153.4 70.9,155.3 		"/>
	</g>
	<g>
		<g>
			<rect x="53.7" y="149.6" transform="matrix(0.7071 -0.7071 0.7071 0.7071 -90.2219 81.9305)" width="0.3" height="0.6"/>
		</g>
		<g>
			<path d="M148.9,245.2c-55.8,0-101.2-45.4-101.2-101.2c0-55.8,45.4-101.2,101.2-101.2c55.8,0,101.2,45.4,101.2,101.2
				C250.2,199.8,204.8,245.2,148.9,245.2z M148.9,43.9c-55.1,0-100,44.9-100,100s44.9,100,100,100s100-44.9,100-100
				S204.1,43.9,148.9,43.9z"/>
		</g>
	</g>
	<path d="M150.7,77.3c2.6-4.7-5.2-12.8,0-17.4C148.2,63.4,156.3,73.1,150.7,77.3z"/>
	<path d="M159.4,80.5c5.2-1.5,5.4-12.7,12.3-12.3C167.5,68.9,166.2,81.5,159.4,80.5z"/>
	<path d="M163.2,88.9c4.7,2.6,12.8-5.2,17.4,0C177.1,86.4,167.4,94.5,163.2,88.9z"/>
	<path d="M167.5,100.6c4.3,3.3,13.5-3.1,17.2,2.7C181.6,100.3,170.8,106.7,167.5,100.6z"/>
	<path d="M167.5,111.8c3.2,4.4,13.8,0.7,15.8,7.4C181.1,115.4,168.9,118.6,167.5,111.8z"/>
	<path d="M135.5,100.4c-4.3,3.3-13.5-3.1-17.2,2.7C121.4,100.2,132.2,106.6,135.5,100.4z"/>
	<path d="M135.5,111.6c-3.2,4.4-13.8,0.7-15.8,7.4C121.9,115.3,134.1,118.5,135.5,111.6z"/>
	<path d="M139.1,89.8c-4.7-2.6-12.8,5.2-17.4,0C125.2,92.3,134.9,84.3,139.1,89.8z"/>
	<path d="M142.3,81.2c-1.5-5.2-12.7-5.4-12.3-12.3C130.7,73.1,143.3,74.3,142.3,81.2z"/>
</g>
</svg>
