<?xml version="1.0" encoding="utf-8"?>
<!-- Generator: Adobe Illustrator 24.3.0, SVG Export Plug-In . SVG Version: 6.00 Build 0)  -->
<svg version="1.1" id="Layer_1" xmlns="http://www.w3.org/2000/svg" xmlns:xlink="http://www.w3.org/1999/xlink" x="0px" y="0px"
	 viewBox="0 0 288 288" style="enable-background:new 0 0 288 288;" xml:space="preserve">
<style type="text/css">
	.st0{fill:#F8982D;}
	.st1{clip-path:url(#SVGID_2_);}
	.st2{fill:#FFFFFF;}
	.st3{filter:url(#Adobe_OpacityMaskFilter);}
	.st4{clip-path:url(#SVGID_2_);mask:url(#SVGID_3_);}
	.st5{fill:#005236;}
	.st6{filter:url(#Adobe_OpacityMaskFilter_1_);}
	.st7{mask:url(#XMLID_2_);}
	.st8{fill:none;stroke:#005236;stroke-linecap:round;stroke-linejoin:round;stroke-miterlimit:10;}
</style>
<g>
	<circle class="st0" cx="144" cy="144" r="100.9"/>
	<g>
		<defs>
			<circle id="SVGID_1_" cx="144" cy="144" r="100.9"/>
		</defs>
		<clipPath id="SVGID_2_">
			<use xlink:href="#SVGID_1_"  style="overflow:visible;"/>
		</clipPath>
		<g class="st1">
			<polygon class="st2" points="6.9,217 12.4,209 18.2,203.9 25.9,198.1 29,191.1 35.5,189.6 45.6,186.8 52.3,181.2 56.9,171 
				62.2,168.9 63.2,164.6 65.5,161.2 72.7,157 77.2,158.5 82.1,152.7 89.3,148.5 91.2,144.2 95,144.2 100,135.7 102.9,134.3 
				104.8,131.4 109.6,131.4 113,131.4 114.8,128.9 117.3,128.9 122.3,125.4 125.7,117.6 130.8,108.6 132.7,108.6 133.9,111.6 
				137.2,106.7 141.6,96.7 144,87.6 150.9,75.9 153.3,69.4 160.7,61.4 166.7,64.9 170.1,69.8 180,90.2 185,95.4 186.5,99.5 
				188.3,99.5 192.1,105 197.4,110.1 199.4,116.3 203.4,119.4 207.1,124.8 212.5,133.6 214.3,139.2 217.3,139.2 219.2,142 
				222.5,142 224.6,145.1 226.9,147.7 229.8,147.7 231.3,145.5 233.7,147.3 237.2,157 243,165.3 244.2,170.8 251.1,180.8 
				254.2,186.8 260.3,195.6 269.5,209.7 276.9,218 280.9,221.2 286.2,226.4 287,230.9 289.1,234 6.9,235.6 			"/>
		</g>
		<g class="st1">
			<polygon class="st2" points="-16.2,290.3 -10.1,281.4 -3.8,275.6 4.8,269.1 8.3,261.2 15.4,259.6 26.6,256.5 34,250.1 
				39.1,238.7 44.9,236.3 46.1,231.5 48.6,227.7 56.7,223 61.6,224.7 67.1,218.2 75,213.4 77.1,208.6 81.3,208.6 86.9,199 90,197.5 
				92.2,194.2 97.4,194.2 101.2,194.2 103.2,191.4 106,191.4 111.5,187.5 115.3,178.8 120.9,168.6 123,168.6 124.4,172 128.1,166.5 
				132.9,155.2 135.6,145 143.2,131.9 145.8,124.7 154.1,115.7 160.7,119.6 164.4,125 175.4,148 181,153.8 182.6,158.4 184.6,158.4 
				188.8,164.6 194.7,170.3 196.8,177.3 201.3,180.7 205.4,186.8 211.4,196.7 213.4,203 216.7,203 218.8,206.2 222.4,206.2 
				224.8,209.6 227.4,212.5 230.5,212.5 232.2,210.1 234.8,212 238.8,223 245.2,232.3 246.6,238.5 254.1,249.7 257.6,256.5 
				264.3,266.3 274.5,282.2 282.7,291.4 287.2,295.1 293,300.9 293.9,306 296.3,309.4 -16.2,311.2 			"/>
		</g>
		<defs>
			<filter id="Adobe_OpacityMaskFilter" filterUnits="userSpaceOnUse" x="42.6" y="126.2" width="206.8" height="174.3">
				<feFlood  style="flood-color:white;flood-opacity:1" result="back"/>
				<feBlend  in="SourceGraphic" in2="back" mode="normal"/>
			</filter>
		</defs>
		<mask maskUnits="userSpaceOnUse" x="42.6" y="126.2" width="206.8" height="174.3" id="SVGID_3_">
			<g class="st3">
				<g class="st1">
					
						<image style="overflow:visible;" width="4680" height="6000" xlink:href="75FA73585B3CBECB.png"  transform="matrix(0.193 0 0 0.1815 -79.2359 -273.5883)">
					</image>
				</g>
			</g>
		</mask>
		<g class="st4">
			<path class="st5" d="M158,126.2v3.1l-0.9,1l0.9,1l-1.7,0.9v1.3h1.7v2.5l-1.3,1.5v2.5l-1.7,0.4l-1,1.2l2.5,0.6l-1.8,2.1l2.4,1.2
				v2.1l-3-2l-1.8,1.2l2.4,2.8l-0.8,1h2.6v1.4l-2.7,1.3H151l-0.4,1.8l2.2,1.7v2.5l-1.3,1.6l-2.9-1.2l-1.8-0.8v1.6l2.4,2.8h2.1v1.9
				h-2l-2.5-1.1v1.8l1.2,1.5l1,1.2h-1.5h-1.8l-1.8-0.8v1.4l1.5,1.7l2.4,1.5v1.2h-1.2l-1.5-1.1l-2.1-0.8l-1.2-1.4l-1.5,1.1
				c0,0,0.4,1.6,1,2.2c0.6,0.6,1.6,1.8,1.8,2c0.2,0.2,0.2,1.8,0.2,1.8l0.3,1.3c0,0,0.7-0.5,1.1-0.4c0.3,0.1,1.5,0.4,1.5,0.4
				s0.2,1-0.2,1c-0.3,0-1.1,0-1.4,0c-0.3,0-2.2-1.3-2.8-1.5c-0.6-0.2-2.8-0.9-2.8-0.9H138c0,0-0.6,0.8-0.5,1.1
				c0.1,0.3,0.8,1.9,0.8,1.9s0.5-0.5,1,0s2.7,1.9,2.7,1.9l1.9,1.2l-1.1,2.4l3,1.1c0,0-0.6,1-1.2,1.1c-0.6,0.1,0.9,0-1.8,0
				s-0.9,0.8-3.6,0c-2.7-0.7-3.2-0.7-3.2-0.7s-1.5-2.1-1-0.4c0.5,1.6,1.2,2.4,1.2,2.4s-0.5,2.6,1.8,3.3c2.3,0.8,1.9,0.6,2.9,0.9
				c1,0.3,2.1,0.8,2.1,0.8l-0.8,0.7h-2.2c0,0-1.7,0.2-2.4,0s0.5,2.2-0.1,2.3c-0.6,0.1-1.5-0.1-1.9,0s-0.4,0.1-0.4,0.1
				s-0.7,0.1-0.3,0.9c0.4,0.8-0.9-0.7,0.4,0.8c1.3,1.5,2.6,1.8,2.6,2.1c0,0.3,0.9,0.5,0,0.8c-0.9,0.3,0.6,0.3-0.9,0.3s-3.2,0-3.2,0
				s-1.5,2.1-2.2,1.5c-0.7-0.6-0.9-1.2-0.9-1.2s-0.7,1.7-0.7,2s-0.5,1.3,1,1.5c1.5,0.2,3.2,1,3.2,1l1.1,0.4l-0.8,1.1
				c2.1,1,1.9,0.9,2.6,1c0.7,0.1,2.7,0.5,2.7,0.5c-1.1,0.6-2.1,1-2.4,1.3c-0.3,0.3-0.4,0.8-1.1,0.8s-1.8-0.4-2.2-0.5s-0.2-0.1-1-0.2
				c-0.8-0.1-0.9-0.1-1.7-0.1c-0.7,0-1.4,0.1-1.4,0.1l-1.3,1.2l2.5,1c0,0,1.5,0.2,2,0.5s0.5,1.4,0.5,1.4c-5.5,0-6.8,0-6.8,0
				l-0.6,1.4c0,0-0.3,0.5,0.8,1s2,0.8,2.8,1c0.8,0.2,0.7,1.2,0.7,1.2l-0.6,1c0,0-2-0.4,0.9,0c2.9,0.4,3.1,0.2,3.7-0.6
				s-2.2-0.7,1.6-0.6c3.7,0.1,6.1,0.5,5.7,0.5c-0.3,0-2.7,0.9-2.7,0.9l-2.9,0.8l-1.8,0.9h-1.2l-1.7,1.3c0,0-3.6,1.3-3.3,1.5
				s-1,1,2.8,1.5c3.8,0.5,4.7,0.7,5,0.6c0.2-0.1,1,0.2,2.5,0c1.5-0.2,2.2,0.1,2.2,0.1s0,1.8,0,0.9c0-0.9-1.4,0.7-1.4,0.7h-1.2
				l-2.9-0.5c0,0-1.5-0.3-1.7-0.2c-0.2,0.1-1.1,0.7-1.1,0.7v1.1c0,0,1.3,2.3,1.8,2.4s1.3,0.2,2.2,0.4c0.9,0.2,0.9,0.2,0.9,0.2
				l-1.5,1.1h-1.7c0,0-1.8,0-2.4,0c-0.6,0-1.4,0-1.4,0h-2.1c-0.9,1-2,1.7-1.5,1.9c0.5,0.2-0.8-0.3,1,0.7c1.8,1,3.7,1.8,4.4,1.8
				c0.7,0,2.2,0,2.2,0s0-0.6,2.3,0c2.3,0.6,1.7,0.7,3.6,1.3c1.8,0.6,1.7,1.6,3.2,0.4c1.5-1.2,0-1.2,1.5-1.2s0.3,1.3,3.2,0.3
				s4.2-1.6,4.2-1.6s1-0.4,1.7-0.8c0.7-0.4,0.9-0.4,1.2-0.5c0.3-0.1,0.9-1.3,1,0c0.1,1.3-0.2,3.1-0.2,3.6c-0.1,0.5-0.1,4.6-0.1,4.6
				v2.2l-0.5,6.3l-1.1,4.6l10.2,1.3l-1.7-8l-1.5-7.2l-1.1-4.2l0.1-4.3h0.8c0,0,0.2,1.1,1,1.1c0.8,0,2.5,0.8,3,0.8
				c0.6,0,1.9,0.7,2.2,1.1c0.3,0.4,1.2,0.4,1.2,0.4s1.2-1.8,1.5-1.5s1.2,2,2.2,2.3c1,0.3,0.7,1.7,3.2,1.3c2.5-0.4,3.2,0.1,3.4-0.8
				c0.2-0.9,0.1-0.8,1.2-2.1s0.6-0.1,2-1.3c1.4-1.2,1.4-0.5,1.4-1.2c0-0.7,0.6-2-0.7-1.8c-1.3,0.2-1.4,0.3-2.2,0.4
				c-0.7,0.1-0.8,0.1-2.4,0.1s-2.2-0.7-2.2-0.7l-0.4-1.5c-0.7-0.9-0.4-1.6,0-1.8c0.4-0.2,0.6-0.2,1.9-0.2s-0.2,0,1.3,0
				s3,0.1,3.2-0.2c0.2-0.3-1-0.3,0.2-0.3c1.2,0-0.2,0.6,1.2,0c1.4-0.6,1.8,0.9,2.2-0.6s1-2.1,1-2.1l-1.5-0.7l-4-0.6l-0.9-0.1
				c0,0,0,0.3-1.2-0.8c-1.2-1.1-1.2-1.1-1.2-1.1s-1.2-1.4-0.9-1.7c0.3-0.3,0.8-0.3,0.8-0.3s1,0,1.2,0s3.1-0.1,3.1-0.1
				c0-1.6,0.1-1.7-0.7-1.9c-0.7-0.2-2.2-1.9-2.2-1.9c1.1,0,4.4,0,4.4,0l3.2-1.4v-1.6c0,0-3.1,0-3.3,0s-2.2-0.1-2.7-0.5
				c-0.6-0.4-3.3-1.9-3.3-1.9l-1.6-0.4l-2.8-1.8c0,0,0.5-1.1,0.8-1c0.3,0.1,2.1,0.4,2.8,0.3c0.7-0.1,1.4-0.1,1.4-0.1l3.3-2.2
				c0,0-0.5,0.5,1.1,0.1c1.6-0.4,2.3-0.4,2.3-0.4s0.5-1,0.2-1.4c-0.2-0.4-1.3-1.1-1.7-1.2c-0.3-0.1-2.5-0.1-2.5-0.1s-0.7,0-2.7-0.4
				c-2-0.4-5.7-0.9-5.7-0.9s-1.7-0.6-0.8-1c0.8-0.4,2.2-0.1,2.8,0s0,0.8,0.7,0.1c0.6-0.7,0.4-1,0.2-1.3c-0.2-0.2-0.7,0.3-0.2-0.2
				c0.5-0.6,1-1.2,1-1.2l0.8-0.6c0,0,0.3-0.8-0.7-0.8s-2.7-0.6-2.7-0.6l-1.7-0.6c0,0,0.2-1.2,0.5-1.3c0.2-0.1,1.7,0.3,2.5-0.2
				c0.8-0.5,1.3-0.9,1.3-0.9s1.2-1.5,0.7-1.7c-0.6-0.2,0.4,1.4-2.2,0c-2.7-1.4-4.4-1.1-4-2.1c0.4-1,0.7-1.9,0.7-1.9l0.2-1.7l0.2-1.4
				l-2.8-0.1L167,183c0,0,0.2-0.5,1-0.6c0.7-0.1,3.3-0.9,3.3-0.9s0.9-1,1.2-2.5c0.3-1.5,1.4-1.5-0.4-1.5s-2.6,0.1-2.6,0.1
				s-4,1.4-3-0.4c1-1.8,2.5-2.2,3.5-2.3c1-0.1,1.5,0,2-1.1c0.5-1.1,0.5-1.1,0.5-1.1s-1.4,0-2.6-0.1c-1.2-0.1-1-0.1-2.2-0.1
				c-1.2,0-2.2-0.1-2.2-0.1s0.6-1.4,1.1-1.5c0.5-0.1,2-0.7,2-0.7l1.4-2c-1.6,0,0.7,0.9-2.2,0c-2.8-0.9-2.8-0.9-2.8-0.9
				s-0.7-0.4-0.6-0.8c0.1-0.4,2.2-1.4,2.2-1.4s0.5,0.5,0.9-0.4c0.4-0.9-0.2-0.2,0.4-0.9c0.6-0.7,1-1.1,0.7-1.2
				c-0.2-0.1-2.6-0.1-2.6-0.1s-0.3-0.1-0.9-0.3c-0.6-0.2-1.5-0.7-1.4-1.4s1.2-0.9,1.5-1c0.3-0.1,2.2-1.2,2.2-1.2s0.7-1.3,0.3-1.4
				c-0.3-0.1-0.6,0-1.8,0c-1.2,0-2.4,0-2.4,0c0-0.9-0.5-0.6-0.1-1.5s-1.2,0.4,0.4-0.9c1.6-1.3,1.6-1.3,1.6-1.3l0.2-1.1l-2.7-0.2
				c0,0,0.5-0.3,0-1.1c-0.5-0.8-0.5,0.6-0.5-0.8c0-1.4,0-1.4,0-1.4l2.7-2.1c0,0-1.7-0.7-2.2-0.7s-1.5,0.2-1.7-0.6
				c-0.2-0.8-1-1.1-0.2-1.5s1.4-0.3,1.5-0.7c0.1-0.4,0-0.5-0.5-1.1c-0.5-0.6-0.5-0.4-0.5-1.1s0-1.8,0-1.8l-0.9-0.3
				c0,0-0.3-1-0.3-2.3s-0.2-1.1,0.5-1.8c0.6-0.7,0.6-0.9,0.6-1.5c0-0.6-1.2-1.5-1.2-1.5s-0.5-0.8-0.4-1.7c0.1-0.9,0.1,0.1,0.1-0.9
				s-0.7-3.1-0.7-3.1L158,126.2z"/>
			<path class="st5" d="M191.4,145.4v2.1l-0.9,0.7l0.9,0.7l-1.8,0.6v0.9h1.8v1.7l-1.3,1v1.7l-1.8,0.3l-1.1,0.8l2.6,0.4l-1.9,1.4
				l2.5,0.8v1.4l-3.2-1.3l-1.9,0.8l2.5,1.9l-0.9,0.7h2.8v1l-2.9,0.9H184l-0.4,1.2l2.4,1.1v1.7l-1.4,1.1l-3.1-0.8l-2-0.5v1.1l2.5,1.9
				h2.3v1.3h-2.1l-2.7-0.7v1.2l1.3,1l1.1,0.8h-1.6h-2l-2-0.6v0.9l1.6,1.2l2.5,1v0.8h-1.3l-1.6-0.7l-2.2-0.5l-1.2-0.9l-1.6,0.7
				c0,0,0.4,1.1,1.1,1.5s1.7,1.2,1.9,1.4s0.2,1.2,0.2,1.2l0.4,0.9c0,0,0.8-0.3,1.2-0.3s1.6,0.3,1.6,0.3s0.2,0.7-0.2,0.7
				s-1.2,0-1.5,0c-0.4,0-2.4-0.9-3-1s-3-0.6-3-0.6h-1c0,0-0.6,0.5-0.5,0.7c0.1,0.2,0.9,1.3,0.9,1.3s0.5-0.3,1.1,0
				c0.5,0.3,2.9,1.3,2.9,1.3l2,0.8l-1.2,1.6l3.2,0.8c0,0-0.6,0.7-1.2,0.8c-0.6,0.1,1,0-2,0c-2.9,0-1,0.5-3.8,0
				c-2.8-0.5-3.5-0.5-3.5-0.5s-1.6-1.4-1.1-0.3s1.2,1.6,1.2,1.6s-0.5,1.7,2,2.3c2.5,0.5,2,0.4,3.1,0.6c1.1,0.2,2.2,0.5,2.2,0.5
				l-0.9,0.5h-2.3c0,0-1.9,0.1-2.6,0c-0.7-0.1,0.5,1.5-0.1,1.5s-1.6-0.1-2,0c-0.4,0.1-0.4,0.1-0.4,0.1s-0.7,0.1-0.3,0.6
				c0.5,0.5-0.9-0.5,0.5,0.5c1.4,1,2.8,1.2,2.8,1.4s1,0.3,0,0.5c-1,0.2,0.6,0.2-1,0.2s-3.4,0-3.4,0s-1.6,1.4-2.3,1
				c-0.7-0.4-1-0.8-1-0.8s-0.7,1.1-0.7,1.3s-0.5,0.9,1.1,1s3.4,0.7,3.4,0.7l1.2,0.3l-0.9,0.7c2.2,0.7,2,0.6,2.8,0.7
				c0.7,0.1,2.9,0.3,2.9,0.3c-1.2,0.4-2.2,0.7-2.6,0.9c-0.4,0.2-0.4,0.5-1.2,0.5c-0.7,0-2-0.3-2.4-0.3c-0.4-0.1-0.2-0.1-1.1-0.1
				s-1-0.1-1.8-0.1c-0.8,0-1.5,0.1-1.5,0.1l-1.4,0.8l2.7,0.7c0,0,1.6,0.1,2.1,0.3c0.5,0.2,0.5,0.9,0.5,0.9c-5.9,0-7.3,0-7.3,0
				l-0.6,0.9c0,0-0.4,0.3,0.9,0.7c1.2,0.3,2.1,0.5,3,0.7s0.8,0.8,0.8,0.8l-0.6,0.7c0,0-2.1-0.3,1,0c3.1,0.3,3.3,0.1,4-0.4
				c0.7-0.5-2.3-0.5,1.7-0.4c4,0.1,6.5,0.3,6.1,0.3s-2.8,0.6-2.8,0.6l-3.1,0.5l-2,0.6h-1.2l-1.9,0.9c0,0-3.8,0.9-3.5,1
				c0.3,0.1-1.1,0.7,3,1c4.1,0.3,5.1,0.5,5.3,0.4s1.1,0.2,2.7,0c1.6-0.1,2.3,0.1,2.3,0.1s0,1.2,0,0.6c0-0.6-1.5,0.5-1.5,0.5h-1.3
				l-3.1-0.3c0,0-1.6-0.2-1.9-0.1s-1.2,0.5-1.2,0.5v0.7c0,0,1.4,1.5,2,1.6s1.4,0.1,2.4,0.3c1,0.1,1,0.1,1,0.1l-1.6,0.7h-1.8
				c0,0-2,0-2.6,0c-0.6,0-1.5,0-1.5,0H160c-1,0.7-2.1,1.1-1.6,1.3s-0.9-0.2,1.1,0.5c2,0.7,3.9,1.2,4.7,1.2s2.3,0,2.3,0s0-0.4,2.5,0
				c2.5,0.4,1.9,0.5,3.8,0.9c2,0.4,1.8,1.1,3.4,0.3c1.6-0.8,0-0.8,1.6-0.8s0.4,0.9,3.4,0.2s4.5-1.1,4.5-1.1s1.1-0.3,1.9-0.5
				c0.8-0.3,1-0.3,1.3-0.3s1-0.9,1.1,0c0.1,0.9-0.2,2.1-0.3,2.5c-0.1,0.3-0.1,3.1-0.1,3.1v1.5l-0.5,4.2l-1.2,3.1l10.9,0.9l-1.8-5.4
				l-1.6-4.8l-1.2-2.9l0.1-2.9h0.9c0,0,0.2,0.7,1,0.8c0.8,0,2.6,0.6,3.2,0.6s2,0.5,2.4,0.7c0.4,0.3,1.3,0.3,1.3,0.3s1.3-1.2,1.6-1
				c0.3,0.2,1.2,1.3,2.3,1.5s0.8,1.1,3.5,0.9c2.7-0.3,3.5,0.1,3.6-0.5c0.2-0.6,0.1-0.6,1.3-1.4c1.2-0.9,0.7-0.1,2.2-0.9
				c1.5-0.8,1.5-0.3,1.5-0.8c0-0.5,0.6-1.3-0.8-1.2s-1.5,0.2-2.3,0.3s-0.9,0.1-2.6,0.1s-2.4-0.5-2.4-0.5l-0.4-1
				c-0.8-0.6-0.4-1.1,0-1.2c0.4-0.1,0.6-0.1,2-0.1s-0.2,0,1.4,0c1.6,0,3.2,0.1,3.4-0.1c0.2-0.2-1.1-0.2,0.2-0.2c1.2,0-0.3,0.4,1.2,0
				c1.5-0.4,2,0.6,2.4-0.4c0.4-1,1-1.4,1-1.4l-1.6-0.5l-4.3-0.4l-1-0.1c0,0,0,0.2-1.2-0.5c-1.2-0.7-1.2-0.7-1.2-0.7s-1.3-0.9-1-1.1
				s0.9-0.2,0.9-0.2s1.1,0,1.3,0s3.3-0.1,3.3-0.1c0-1.1,0.1-1.1-0.7-1.3c-0.8-0.1-2.3-1.3-2.3-1.3c1.2,0,4.7,0,4.7,0l3.5-0.9v-1.1
				c0,0-3.3,0-3.5,0c-0.3,0-2.3-0.1-2.9-0.3s-3.5-1.3-3.5-1.3l-1.7-0.3l-3-1.2c0,0,0.5-0.7,0.9-0.7c0.4,0.1,2.2,0.3,3,0.2
				s1.5-0.1,1.5-0.1l3.5-1.5c0,0-0.5,0.3,1.2,0.1s2.5-0.3,2.5-0.3s0.5-0.7,0.3-0.9s-1.4-0.7-1.8-0.8s-2.7-0.1-2.7-0.1
				s-0.7,0-2.8-0.3c-2.1-0.3-6.1-0.6-6.1-0.6s-1.8-0.4-0.9-0.7c0.9-0.3,2.3-0.1,3,0c0.7,0.1,0,0.6,0.7,0.1c0.7-0.5,0.4-0.7,0.2-0.9
				c-0.2-0.2-0.8,0.2-0.2-0.2s1.1-0.8,1.1-0.8l0.9-0.4c0,0,0.4-0.5-0.8-0.6c-1.1,0-2.9-0.4-2.9-0.4l-1.9-0.4c0,0,0.3-0.8,0.5-0.9
				s1.8,0.2,2.7-0.1c0.9-0.3,1.4-0.6,1.4-0.6s1.3-1,0.7-1.2c-0.6-0.2,0.4,1-2.4,0c-2.8-1-4.7-0.8-4.3-1.4c0.4-0.7,0.7-1.3,0.7-1.3
				l0.3-1.2l0.2-1l-3-0.1l-2.6-1.7c0,0,0.3-0.3,1.1-0.4s3.5-0.6,3.5-0.6s1-0.7,1.3-1.7c0.4-1,1.5-1-0.4-1s-2.8,0.1-2.8,0.1
				s-4.3,0.9-3.2-0.3c1.1-1.2,2.7-1.5,3.7-1.5s1.6,0,2.1-0.7c0.5-0.7,0.5-0.7,0.5-0.7s-1.5,0-2.8-0.1c-1.2-0.1-1.1-0.1-2.4-0.1
				s-2.3-0.1-2.3-0.1s0.6-0.9,1.2-1s2.1-0.5,2.1-0.5l1.5-1.3c-1.7,0,0.7,0.6-2.3,0c-3-0.6-3-0.6-3-0.6s-0.7-0.3-0.6-0.5
				c0.1-0.3,2.3-0.9,2.3-0.9s0.5,0.3,1-0.3c0.4-0.6-0.2-0.1,0.4-0.6c0.6-0.5,1.1-0.7,0.8-0.8s-2.8-0.1-2.8-0.1s-0.4-0.1-1-0.2
				c-0.6-0.1-1.6-0.5-1.5-0.9c0.1-0.5,1.2-0.6,1.6-0.7c0.4-0.1,2.4-0.8,2.4-0.8s0.7-0.9,0.4-0.9c-0.4-0.1-0.6,0-2,0
				c-1.3,0-2.6,0-2.6,0c0-0.6-0.5-0.4-0.1-1c0.4-0.6-1.2,0.3,0.4-0.6c1.7-0.9,1.7-0.9,1.7-0.9l0.2-0.7l-2.9-0.1c0,0,0.5-0.2,0-0.7
				c-0.5-0.5-0.5,0.4-0.5-0.5s0-0.9,0-0.9l2.9-1.4c0,0-1.9-0.5-2.3-0.5s-1.6,0.1-1.8-0.4c-0.2-0.5-1.1-0.8-0.2-1s1.5-0.2,1.6-0.5
				c0.1-0.3,0-0.3-0.5-0.7s-0.5-0.3-0.5-0.7c0-0.5,0-1.2,0-1.2l-1-0.2c0,0-0.4-0.7-0.4-1.5s-0.2-0.7,0.5-1.2c0.7-0.5,0.7-0.6,0.7-1
				s-1.3-1-1.3-1s-0.6-0.5-0.4-1.1c0.2-0.6,0.2,0.1,0.2-0.6c0-0.7-0.7-2.1-0.7-2.1L191.4,145.4z"/>
			<path class="st5" d="M188.4,187.7v2.1l-0.9,0.7l0.9,0.7l-1.8,0.6v0.9h1.8v1.7l-1.3,1v1.7l-1.8,0.3l-1.1,0.8l2.6,0.4l-1.9,1.4
				l2.5,0.8v1.4l-3.2-1.3l-1.9,0.8l2.5,1.9l-0.9,0.7h2.8v1l-2.9,0.9H181l-0.4,1.2l2.4,1.1v1.7l-1.4,1.1l-3.1-0.8l-2-0.5v1.1l2.5,1.9
				h2.3v1.3h-2.1l-2.7-0.7v1.2l1.3,1l1.1,0.8h-1.6h-2l-2-0.6v0.9l1.6,1.2l2.5,1v0.8h-1.3l-1.6-0.7l-2.2-0.5l-1.2-0.9l-1.6,0.7
				c0,0,0.4,1.1,1.1,1.5c0.6,0.4,1.7,1.2,1.9,1.4c0.2,0.2,0.2,1.2,0.2,1.2l0.4,0.9c0,0,0.8-0.3,1.2-0.3c0.4,0.1,1.6,0.3,1.6,0.3
				s0.2,0.7-0.2,0.7c-0.4,0-1.2,0-1.5,0s-2.4-0.9-3-1c-0.6-0.1-3-0.6-3-0.6h-1c0,0-0.6,0.5-0.5,0.7s0.9,1.3,0.9,1.3s0.5-0.3,1.1,0
				c0.5,0.3,2.9,1.3,2.9,1.3l2,0.8l-1.2,1.6l3.2,0.8c0,0-0.6,0.7-1.2,0.8s1,0-2,0c-2.9,0-1,0.5-3.8,0S165,229,165,229
				s-1.6-1.4-1.1-0.3s1.2,1.6,1.2,1.6s-0.5,1.7,2,2.3c2.5,0.5,2,0.4,3.1,0.6c1.1,0.2,2.2,0.5,2.2,0.5l-0.9,0.5h-2.3
				c0,0-1.9,0.1-2.6,0c-0.7-0.1,0.5,1.5-0.1,1.5c-0.6,0.1-1.6-0.1-2,0s-0.4,0.1-0.4,0.1s-0.7,0.1-0.3,0.6c0.5,0.5-0.9-0.5,0.5,0.5
				c1.4,1,2.8,1.2,2.8,1.4c0,0.2,1,0.3,0,0.5c-1,0.2,0.6,0.2-1,0.2c-1.6,0-3.4,0-3.4,0s-1.6,1.4-2.3,1c-0.7-0.4-1-0.8-1-0.8
				s-0.7,1.1-0.7,1.3s-0.5,0.9,1.1,1c1.6,0.1,3.4,0.7,3.4,0.7l1.2,0.3l-0.9,0.7c2.2,0.7,2,0.6,2.8,0.7c0.7,0.1,2.9,0.3,2.9,0.3
				c-1.2,0.4-2.2,0.7-2.6,0.9c-0.4,0.2-0.4,0.5-1.2,0.5c-0.7,0-2-0.3-2.4-0.3c-0.4-0.1-0.2-0.1-1.1-0.1c-0.9-0.1-1-0.1-1.8-0.1
				s-1.5,0.1-1.5,0.1l-1.4,0.8l2.7,0.7c0,0,1.6,0.1,2.1,0.3s0.5,0.9,0.5,0.9c-5.9,0-7.3,0-7.3,0l-0.6,0.9c0,0-0.4,0.3,0.9,0.7
				c1.2,0.3,2.1,0.5,3,0.7c0.9,0.1,0.8,0.8,0.8,0.8l-0.6,0.7c0,0-2.1-0.3,1,0c3.1,0.3,3.3,0.1,4-0.4c0.7-0.5-2.3-0.5,1.7-0.4
				c4,0.1,6.5,0.3,6.1,0.3s-2.8,0.6-2.8,0.6l-3.1,0.5l-2,0.6h-1.2l-1.9,0.9c0,0-3.8,0.9-3.5,1c0.3,0.1-1.1,0.7,3,1
				c4.1,0.3,5.1,0.5,5.3,0.4c0.3-0.1,1.1,0.2,2.7,0c1.6-0.1,2.3,0.1,2.3,0.1s0,1.2,0,0.6c0-0.6-1.5,0.5-1.5,0.5h-1.3l-3.1-0.3
				c0,0-1.6-0.2-1.9-0.1c-0.3,0.1-1.2,0.5-1.2,0.5v0.7c0,0,1.4,1.5,2,1.6c0.5,0.1,1.4,0.1,2.4,0.3c1,0.1,1,0.1,1,0.1l-1.6,0.7h-1.8
				c0,0-2,0-2.6,0s-1.5,0-1.5,0h-2.2c-1,0.7-2.1,1.1-1.6,1.3s-0.9-0.2,1.1,0.5s3.9,1.2,4.7,1.2c0.8,0,2.3,0,2.3,0s0-0.4,2.5,0
				c2.5,0.4,1.9,0.5,3.8,0.9c2,0.4,1.8,1.1,3.4,0.3c1.6-0.8,0-0.8,1.6-0.8c1.6,0,0.4,0.9,3.4,0.2c3-0.7,4.5-1.1,4.5-1.1
				s1.1-0.3,1.9-0.5c0.8-0.3,1-0.3,1.3-0.3c0.4-0.1,1-0.9,1.1,0c0.1,0.9-0.2,2.1-0.3,2.5c-0.1,0.3-0.1,3.1-0.1,3.1v1.5l-0.5,4.2
				l-1.2,3.1l10.9,0.9l-1.8-5.4l-1.6-4.8l-1.2-2.9l0.1-2.9h0.9c0,0,0.2,0.7,1,0.8s2.6,0.6,3.2,0.6c0.6,0,2,0.5,2.4,0.7
				c0.4,0.3,1.3,0.3,1.3,0.3s1.3-1.2,1.6-1c0.3,0.2,1.2,1.3,2.3,1.5s0.8,1.1,3.5,0.9c2.7-0.3,3.5,0.1,3.6-0.5
				c0.2-0.6,0.1-0.6,1.3-1.4c1.2-0.9,0.7-0.1,2.2-0.9c1.5-0.8,1.5-0.3,1.5-0.8c0-0.5,0.6-1.3-0.8-1.2s-1.5,0.2-2.3,0.3
				c-0.8,0.1-0.9,0.1-2.6,0.1s-2.4-0.5-2.4-0.5l-0.4-1c-0.8-0.6-0.4-1.1,0-1.2c0.4-0.1,0.6-0.1,2-0.1s-0.2,0,1.4,0s3.2,0.1,3.4-0.1
				c0.2-0.2-1.1-0.2,0.2-0.2c1.2,0-0.3,0.4,1.2,0s2,0.6,2.4-0.4c0.4-1,1-1.4,1-1.4l-1.6-0.5l-4.3-0.4l-1-0.1c0,0,0,0.2-1.2-0.5
				c-1.2-0.7-1.2-0.7-1.2-0.7s-1.3-0.9-1-1.1c0.4-0.2,0.9-0.2,0.9-0.2s1.1,0,1.3,0s3.3-0.1,3.3-0.1c0-1.1,0.1-1.1-0.7-1.3
				s-2.3-1.3-2.3-1.3c1.2,0,4.7,0,4.7,0l3.5-0.9v-1.1c0,0-3.3,0-3.5,0s-2.3-0.1-2.9-0.3c-0.6-0.3-3.5-1.3-3.5-1.3l-1.7-0.3l-3-1.2
				c0,0,0.5-0.7,0.9-0.7s2.2,0.3,3,0.2s1.5-0.1,1.5-0.1l3.5-1.5c0,0-0.5,0.3,1.2,0.1s2.5-0.3,2.5-0.3s0.5-0.7,0.3-0.9
				c-0.3-0.3-1.4-0.7-1.8-0.8c-0.4-0.1-2.7-0.1-2.7-0.1s-0.7,0-2.8-0.3c-2.1-0.3-6.1-0.6-6.1-0.6s-1.8-0.4-0.9-0.7
				c0.9-0.3,2.3-0.1,3,0c0.7,0.1,0,0.6,0.7,0.1s0.4-0.7,0.2-0.9c-0.2-0.2-0.8,0.2-0.2-0.2c0.5-0.4,1.1-0.8,1.1-0.8l0.9-0.4
				c0,0,0.4-0.5-0.8-0.6c-1.1,0-2.9-0.4-2.9-0.4l-1.9-0.4c0,0,0.3-0.8,0.5-0.9s1.8,0.2,2.7-0.1c0.9-0.3,1.4-0.6,1.4-0.6
				s1.3-1,0.7-1.2c-0.6-0.2,0.4,1-2.4,0c-2.8-1-4.7-0.8-4.3-1.4c0.4-0.7,0.7-1.3,0.7-1.3l0.3-1.2l0.2-1l-3-0.1L198,226
				c0,0,0.3-0.3,1.1-0.4s3.5-0.6,3.5-0.6s1-0.7,1.3-1.7s1.5-1-0.4-1s-2.8,0.1-2.8,0.1s-4.3,0.9-3.2-0.3s2.7-1.5,3.7-1.5
				s1.6,0,2.1-0.7s0.5-0.7,0.5-0.7s-1.5,0-2.8-0.1s-1.1-0.1-2.4-0.1c-1.3,0-2.3-0.1-2.3-0.1s0.6-0.9,1.2-1s2.1-0.5,2.1-0.5l1.5-1.3
				c-1.7,0,0.7,0.6-2.3,0c-3-0.6-3-0.6-3-0.6s-0.7-0.3-0.6-0.5s2.3-0.9,2.3-0.9s0.5,0.3,1-0.3c0.4-0.6-0.2-0.1,0.4-0.6
				c0.6-0.5,1.1-0.7,0.8-0.8s-2.8-0.1-2.8-0.1s-0.4-0.1-1-0.2s-1.6-0.5-1.5-0.9c0.1-0.5,1.2-0.6,1.6-0.7c0.4-0.1,2.4-0.8,2.4-0.8
				s0.7-0.9,0.4-0.9s-0.6,0-2,0s-2.6,0-2.6,0c0-0.6-0.5-0.4-0.1-1c0.4-0.6-1.2,0.3,0.4-0.6s1.7-0.9,1.7-0.9l0.2-0.7l-2.9-0.1
				c0,0,0.5-0.2,0-0.7c-0.5-0.5-0.5,0.4-0.5-0.5s0-0.9,0-0.9l2.9-1.4c0,0-1.9-0.5-2.3-0.5c-0.4,0-1.6,0.1-1.8-0.4
				c-0.2-0.5-1.1-0.8-0.2-1c0.9-0.2,1.5-0.2,1.6-0.5c0.1-0.3,0-0.3-0.5-0.7c-0.5-0.4-0.5-0.3-0.5-0.7c0-0.5,0-1.2,0-1.2l-1-0.2
				c0,0-0.4-0.7-0.4-1.5s-0.2-0.7,0.5-1.2c0.7-0.5,0.7-0.6,0.7-1c0-0.4-1.3-1-1.3-1s-0.6-0.5-0.4-1.1c0.2-0.6,0.2,0.1,0.2-0.6
				s-0.7-2.1-0.7-2.1L188.4,187.7z"/>
			<path class="st5" d="M138,210.8v2.1l-0.9,0.7l0.9,0.7l-1.8,0.6v0.9h1.8v1.7l-1.3,1v1.7l-1.8,0.3l-1.1,0.8l2.6,0.4l-1.9,1.4
				l2.5,0.8v1.4l-3.2-1.3l-1.9,0.8l2.5,1.9l-0.9,0.7h2.8v1l-2.9,0.9h-2.8l-0.4,1.2l2.4,1.1v1.7l-1.4,1.1l-3.1-0.8l-2-0.5v1.1
				l2.5,1.9h2.3v1.3h-2.1l-2.7-0.7v1.2l1.3,1l1.1,0.8h-1.6h-2l-2-0.6v0.9l1.6,1.2l2.5,1v0.8h-1.3l-1.6-0.7l-2.2-0.5l-1.2-0.9
				l-1.6,0.7c0,0,0.4,1.1,1.1,1.5c0.6,0.4,1.7,1.2,1.9,1.4c0.2,0.2,0.2,1.2,0.2,1.2l0.4,0.9c0,0,0.8-0.3,1.2-0.3
				c0.4,0.1,1.6,0.3,1.6,0.3s0.2,0.7-0.2,0.7c-0.4,0-1.2,0-1.5,0c-0.4,0-2.4-0.9-3-1c-0.6-0.1-3-0.6-3-0.6h-1c0,0-0.6,0.5-0.5,0.7
				c0.1,0.2,0.9,1.3,0.9,1.3s0.5-0.3,1.1,0c0.5,0.3,2.9,1.3,2.9,1.3l2,0.8l-1.2,1.6l3.2,0.8c0,0-0.6,0.7-1.2,0.8c-0.6,0.1,1,0-2,0
				s-1,0.5-3.8,0c-2.8-0.5-3.5-0.5-3.5-0.5s-1.6-1.4-1.1-0.3c0.5,1.1,1.2,1.6,1.2,1.6s-0.5,1.7,2,2.3c2.5,0.5,2,0.4,3.1,0.6
				c1.1,0.2,2.2,0.5,2.2,0.5l-0.9,0.5h-2.3c0,0-1.9,0.1-2.6,0c-0.7-0.1,0.5,1.5-0.1,1.5c-0.6,0.1-1.6-0.1-2,0
				c-0.4,0.1-0.4,0.1-0.4,0.1s-0.7,0.1-0.3,0.6c0.5,0.5-0.9-0.5,0.5,0.5c1.4,1,2.8,1.2,2.8,1.4s1,0.3,0,0.5c-1,0.2,0.6,0.2-1,0.2
				c-1.6,0-3.4,0-3.4,0s-1.6,1.4-2.3,1s-1-0.8-1-0.8s-0.7,1.1-0.7,1.3s-0.5,0.9,1.1,1c1.6,0.1,3.4,0.7,3.4,0.7l1.2,0.3l-0.9,0.7
				c2.2,0.7,2,0.6,2.8,0.7c0.7,0.1,2.9,0.3,2.9,0.3c-1.2,0.4-2.2,0.7-2.6,0.9c-0.4,0.2-0.4,0.5-1.2,0.5s-2-0.3-2.4-0.3
				c-0.4-0.1-0.2-0.1-1.1-0.1c-0.9-0.1-1-0.1-1.8-0.1s-1.5,0.1-1.5,0.1l-1.4,0.8l2.7,0.7c0,0,1.6,0.1,2.1,0.3
				c0.5,0.2,0.5,0.9,0.5,0.9c-5.9,0-7.3,0-7.3,0l-0.6,0.9c0,0-0.4,0.3,0.9,0.7c1.2,0.3,2.1,0.5,3,0.7c0.9,0.1,0.8,0.8,0.8,0.8
				l-0.6,0.7c0,0-2.1-0.3,1,0s3.3,0.1,4-0.4c0.7-0.5-2.3-0.5,1.7-0.4c4,0.1,6.5,0.3,6.1,0.3c-0.3,0-2.8,0.6-2.8,0.6l-3.1,0.5l-2,0.6
				h-1.2l-1.9,0.9c0,0-3.8,0.9-3.5,1s-1.1,0.7,3,1c4.1,0.3,5.1,0.5,5.3,0.4c0.3-0.1,1.1,0.2,2.7,0c1.6-0.1,2.3,0.1,2.3,0.1
				s0,1.2,0,0.6s-1.5,0.5-1.5,0.5H117l-3.1-0.3c0,0-1.6-0.2-1.9-0.1c-0.3,0.1-1.2,0.5-1.2,0.5v0.7c0,0,1.4,1.5,2,1.6
				c0.5,0.1,1.4,0.1,2.4,0.3s1,0.1,1,0.1l-1.6,0.7h-1.8c0,0-2,0-2.6,0s-1.5,0-1.5,0h-2.2c-1,0.7-2.1,1.1-1.6,1.3
				c0.5,0.1-0.9-0.2,1.1,0.5c2,0.7,3.9,1.2,4.7,1.2s2.3,0,2.3,0s0-0.4,2.5,0s1.9,0.5,3.8,0.9s1.8,1.1,3.4,0.3c1.6-0.8,0-0.8,1.6-0.8
				c1.6,0,0.4,0.9,3.4,0.2c3-0.7,4.5-1.1,4.5-1.1s1.1-0.3,1.9-0.5s1-0.3,1.3-0.3c0.4-0.1,1-0.9,1.1,0c0.1,0.9-0.2,2.1-0.3,2.5
				c-0.1,0.3-0.1,3.1-0.1,3.1v1.5l-0.5,4.2l-1.2,3.1l10.9,0.9l-1.8-5.4l-1.6-4.8l-1.2-2.9l0.1-2.9h0.9c0,0,0.2,0.7,1,0.8
				c0.8,0,2.6,0.6,3.2,0.6s2,0.5,2.4,0.7c0.4,0.3,1.3,0.3,1.3,0.3s1.3-1.2,1.6-1c0.3,0.2,1.2,1.3,2.3,1.5c1.1,0.2,0.8,1.1,3.5,0.9
				c2.7-0.3,3.5,0.1,3.6-0.5c0.2-0.6,0.1-0.6,1.3-1.4c1.2-0.9,0.7-0.1,2.2-0.9c1.5-0.8,1.5-0.3,1.5-0.8s0.6-1.3-0.8-1.2
				c-1.4,0.1-1.5,0.2-2.3,0.3c-0.8,0.1-0.9,0.1-2.6,0.1s-2.4-0.5-2.4-0.5l-0.4-1c-0.8-0.6-0.4-1.1,0-1.2c0.4-0.1,0.6-0.1,2-0.1
				s-0.2,0,1.4,0s3.2,0.1,3.4-0.1c0.2-0.2-1.1-0.2,0.2-0.2c1.2,0-0.3,0.4,1.2,0c1.5-0.4,2,0.6,2.4-0.4c0.4-1,1-1.4,1-1.4l-1.6-0.5
				l-4.3-0.4l-1-0.1c0,0,0,0.2-1.2-0.5c-1.2-0.7-1.2-0.7-1.2-0.7s-1.3-0.9-1-1.1c0.4-0.2,0.9-0.2,0.9-0.2s1.1,0,1.3,0
				c0.3,0,3.3-0.1,3.3-0.1c0-1.1,0.1-1.1-0.7-1.3s-2.3-1.3-2.3-1.3c1.2,0,4.7,0,4.7,0l3.5-0.9v-1.1c0,0-3.3,0-3.5,0
				s-2.3-0.1-2.9-0.3c-0.6-0.3-3.5-1.3-3.5-1.3l-1.7-0.3l-3-1.2c0,0,0.5-0.7,0.9-0.7c0.4,0.1,2.2,0.3,3,0.2c0.8-0.1,1.5-0.1,1.5-0.1
				l3.5-1.5c0,0-0.5,0.3,1.2,0.1c1.7-0.3,2.5-0.3,2.5-0.3s0.5-0.7,0.3-0.9s-1.4-0.7-1.8-0.8c-0.4-0.1-2.7-0.1-2.7-0.1
				s-0.7,0-2.8-0.3s-6.1-0.6-6.1-0.6s-1.8-0.4-0.9-0.7c0.9-0.3,2.3-0.1,3,0c0.7,0.1,0,0.6,0.7,0.1s0.4-0.7,0.2-0.9
				c-0.2-0.2-0.8,0.2-0.2-0.2s1.1-0.8,1.1-0.8l0.9-0.4c0,0,0.4-0.5-0.8-0.6c-1.1,0-2.9-0.4-2.9-0.4l-1.9-0.4c0,0,0.3-0.8,0.5-0.9
				c0.3-0.1,1.8,0.2,2.7-0.1s1.4-0.6,1.4-0.6s1.3-1,0.7-1.2c-0.6-0.2,0.4,1-2.4,0s-4.7-0.8-4.3-1.4c0.4-0.7,0.7-1.3,0.7-1.3l0.3-1.2
				l0.2-1l-3-0.1l-2.6-1.7c0,0,0.3-0.3,1.1-0.4s3.5-0.6,3.5-0.6s1-0.7,1.3-1.7s1.5-1-0.4-1s-2.8,0.1-2.8,0.1s-4.3,0.9-3.2-0.3
				c1.1-1.2,2.7-1.5,3.7-1.5c1.1-0.1,1.6,0,2.1-0.7s0.5-0.7,0.5-0.7s-1.5,0-2.8-0.1c-1.2-0.1-1.1-0.1-2.4-0.1
				c-1.3,0-2.3-0.1-2.3-0.1s0.6-0.9,1.2-1s2.1-0.5,2.1-0.5l1.5-1.3c-1.7,0,0.7,0.6-2.3,0c-3-0.6-3-0.6-3-0.6s-0.7-0.3-0.6-0.5
				c0.1-0.3,2.3-0.9,2.3-0.9s0.5,0.3,1-0.3c0.4-0.6-0.2-0.1,0.4-0.6c0.6-0.5,1.1-0.7,0.8-0.8s-2.8-0.1-2.8-0.1s-0.4-0.1-1-0.2
				c-0.6-0.1-1.6-0.5-1.5-0.9c0.1-0.5,1.2-0.6,1.6-0.7s2.4-0.8,2.4-0.8s0.7-0.9,0.4-0.9s-0.6,0-2,0s-2.6,0-2.6,0
				c0-0.6-0.5-0.4-0.1-1c0.4-0.6-1.2,0.3,0.4-0.6c1.7-0.9,1.7-0.9,1.7-0.9l0.2-0.7l-2.9-0.1c0,0,0.5-0.2,0-0.7
				c-0.5-0.5-0.5,0.4-0.5-0.5s0-0.9,0-0.9l2.9-1.4c0,0-1.9-0.5-2.3-0.5c-0.4,0-1.6,0.1-1.8-0.4c-0.2-0.5-1.1-0.8-0.2-1
				c0.9-0.2,1.5-0.2,1.6-0.5c0.1-0.3,0-0.3-0.5-0.7s-0.5-0.3-0.5-0.7c0-0.5,0-1.2,0-1.2l-1-0.2c0,0-0.4-0.7-0.4-1.5
				s-0.2-0.7,0.5-1.2c0.7-0.5,0.7-0.6,0.7-1s-1.3-1-1.3-1s-0.6-0.5-0.4-1.1c0.2-0.6,0.2,0.1,0.2-0.6s-0.7-2.1-0.7-2.1L138,210.8z"/>
			<path class="st5" d="M158.9,181v2.3l-0.9,0.8l0.9,0.8l-1.8,0.7v0.9h1.8v1.8l-1.3,1.1v1.8l-1.8,0.3l-1.1,0.9l2.6,0.5l-1.9,1.5
				l2.5,0.9v1.5l-3.2-1.4l-1.9,0.8l2.5,2l-0.9,0.7h2.8v1l-2.9,0.9h-2.8l-0.4,1.3l2.4,1.2v1.8l-1.4,1.1l-3.1-0.8l-2-0.6v1.1l2.5,2
				h2.3v1.4h-2.1l-2.7-0.8v1.3l1.3,1.1l1.1,0.9h-1.6h-2l-2-0.6v1l1.6,1.2l2.5,1.1v0.8h-1.3l-1.6-0.8l-2.2-0.6l-1.2-1l-1.6,0.8
				c0,0,0.4,1.1,1.1,1.5s1.7,1.3,1.9,1.4c0.2,0.2,0.2,1.3,0.2,1.3l0.4,0.9c0,0,0.8-0.4,1.2-0.3c0.4,0.1,1.6,0.3,1.6,0.3
				s0.2,0.7-0.2,0.7c-0.4,0-1.2,0-1.5,0s-2.4-0.9-3-1.1s-3-0.6-3-0.6h-1c0,0-0.6,0.6-0.5,0.8c0.1,0.2,0.9,1.3,0.9,1.3s0.5-0.4,1.1,0
				s2.9,1.3,2.9,1.3l2,0.8l-1.2,1.7l3.2,0.8c0,0-0.6,0.7-1.2,0.8c-0.6,0.1,1,0-2,0c-2.9,0-1,0.6-3.8,0c-2.8-0.5-3.5-0.5-3.5-0.5
				s-1.6-1.5-1.1-0.3c0.5,1.2,1.2,1.7,1.2,1.7s-0.5,1.8,2,2.4c2.5,0.6,2,0.4,3.1,0.6s2.2,0.6,2.2,0.6l-0.9,0.5h-2.3
				c0,0-1.9,0.1-2.6,0c-0.7-0.1,0.5,1.5-0.1,1.6c-0.6,0.1-1.6-0.1-2,0c-0.4,0.1-0.4,0.1-0.4,0.1s-0.7,0.1-0.3,0.6
				c0.5,0.6-0.9-0.5,0.5,0.6c1.4,1.1,2.8,1.3,2.8,1.5s1,0.4,0,0.6c-1,0.2,0.6,0.2-1,0.2s-3.4,0-3.4,0s-1.6,1.5-2.3,1.1
				c-0.7-0.4-1-0.8-1-0.8s-0.7,1.2-0.7,1.4c0,0.2-0.5,0.9,1.1,1.1c1.6,0.1,3.4,0.7,3.4,0.7l1.2,0.3l-0.9,0.8c2.2,0.7,2,0.6,2.8,0.7
				c0.7,0.1,2.9,0.4,2.9,0.4c-1.2,0.4-2.2,0.7-2.6,0.9c-0.4,0.2-0.4,0.6-1.2,0.6c-0.7,0-2-0.3-2.4-0.4c-0.4-0.1-0.2-0.1-1.1-0.1
				s-1-0.1-1.8-0.1s-1.5,0.1-1.5,0.1l-1.4,0.8l2.7,0.7c0,0,1.6,0.1,2.1,0.4c0.5,0.2,0.5,1,0.5,1c-5.9,0-7.3,0-7.3,0l-0.6,1
				c0,0-0.4,0.4,0.9,0.7c1.2,0.4,2.1,0.6,3,0.7s0.8,0.8,0.8,0.8l-0.6,0.7c0,0-2.1-0.3,1,0s3.3,0.1,4-0.4c0.7-0.6-2.3-0.5,1.7-0.4
				c4,0.1,6.5,0.4,6.1,0.4c-0.3,0-2.8,0.6-2.8,0.6l-3.1,0.6l-2,0.6h-1.2l-1.9,0.9c0,0-3.8,0.9-3.5,1.1c0.3,0.1-1.1,0.7,3,1.1
				c4.1,0.4,5.1,0.5,5.3,0.4c0.3-0.1,1.1,0.2,2.7,0s2.3,0.1,2.3,0.1s0,1.3,0,0.6c0-0.6-1.5,0.5-1.5,0.5h-1.3l-3.1-0.4
				c0,0-1.6-0.2-1.9-0.1c-0.3,0.1-1.2,0.5-1.2,0.5v0.8c0,0,1.4,1.6,2,1.7c0.5,0.1,1.4,0.1,2.4,0.3c1,0.1,1,0.1,1,0.1l-1.6,0.8h-1.8
				c0,0-2,0-2.6,0c-0.6,0-1.5,0-1.5,0h-2.2c-1,0.7-2.1,1.2-1.6,1.3c0.5,0.1-0.9-0.2,1.1,0.5c2,0.7,3.9,1.3,4.7,1.3s2.3,0,2.3,0
				s0-0.4,2.5,0c2.5,0.4,1.9,0.5,3.8,0.9c2,0.4,1.8,1.1,3.4,0.3c1.6-0.8,0-0.8,1.6-0.8s0.4,0.9,3.4,0.2c3-0.7,4.5-1.1,4.5-1.1
				s1.1-0.3,1.9-0.6s1-0.3,1.3-0.4c0.4-0.1,1-0.9,1.1,0c0.1,0.9-0.2,2.3-0.3,2.6c-0.1,0.4-0.1,3.3-0.1,3.3v1.5l-0.5,4.5l-1.2,3.3
				l10.9,0.9l-1.8-5.7l-1.6-5.1l-1.2-3l0.1-3.1h0.9c0,0,0.2,0.8,1,0.8s2.6,0.6,3.2,0.6c0.6,0,2,0.5,2.4,0.8s1.3,0.3,1.3,0.3
				s1.3-1.3,1.6-1.1c0.3,0.2,1.2,1.4,2.3,1.6s0.8,1.2,3.5,0.9c2.7-0.3,3.5,0.1,3.6-0.6c0.2-0.6,0.1-0.6,1.3-1.5
				c1.2-0.9,0.7-0.1,2.2-1c1.5-0.8,1.5-0.4,1.5-0.8c0-0.5,0.6-1.4-0.8-1.3c-1.4,0.1-1.5,0.2-2.3,0.3c-0.8,0.1-0.9,0.1-2.6,0.1
				s-2.4-0.5-2.4-0.5l-0.4-1.1c-0.8-0.6-0.4-1.1,0-1.3c0.4-0.1,0.6-0.1,2-0.1c1.4,0-0.2,0,1.4,0c1.6,0,3.2,0.1,3.4-0.1
				c0.2-0.2-1.1-0.2,0.2-0.2c1.2,0-0.3,0.4,1.2,0c1.5-0.4,2,0.6,2.4-0.4c0.4-1.1,1-1.5,1-1.5l-1.6-0.5l-4.3-0.4l-1-0.1
				c0,0,0,0.2-1.2-0.6c-1.2-0.8-1.2-0.8-1.2-0.8s-1.3-1-1-1.2c0.4-0.2,0.9-0.2,0.9-0.2s1.1,0,1.3,0s3.3-0.1,3.3-0.1
				c0-1.1,0.1-1.2-0.7-1.3c-0.8-0.1-2.3-1.3-2.3-1.3c1.2,0,4.7,0,4.7,0l3.5-1v-1.1c0,0-3.3,0-3.5,0s-2.3-0.1-2.9-0.4
				c-0.6-0.3-3.5-1.3-3.5-1.3l-1.7-0.3l-3-1.3c0,0,0.5-0.8,0.9-0.7c0.4,0.1,2.2,0.3,3,0.2c0.8-0.1,1.5-0.1,1.5-0.1l3.5-1.5
				c0,0-0.5,0.4,1.2,0.1s2.5-0.3,2.5-0.3s0.5-0.7,0.3-1c-0.3-0.3-1.4-0.8-1.8-0.8c-0.4-0.1-2.7-0.1-2.7-0.1s-0.7,0-2.8-0.3
				c-2.1-0.3-6.1-0.6-6.1-0.6s-1.8-0.4-0.9-0.7c0.9-0.3,2.3-0.1,3,0c0.7,0.1,0,0.6,0.7,0.1c0.7-0.5,0.4-0.7,0.2-0.9
				c-0.2-0.2-0.8,0.2-0.2-0.2s1.1-0.9,1.1-0.9l0.9-0.4c0,0,0.4-0.6-0.8-0.6c-1.1,0-2.9-0.5-2.9-0.5l-1.9-0.4c0,0,0.3-0.8,0.5-0.9
				c0.3-0.1,1.8,0.2,2.7-0.1c0.9-0.4,1.4-0.6,1.4-0.6s1.3-1.1,0.7-1.2s0.4,1-2.4,0c-2.8-1-4.7-0.8-4.3-1.5c0.4-0.7,0.7-1.3,0.7-1.3
				l0.3-1.2l0.2-1l-3-0.1l-2.6-1.8c0,0,0.3-0.4,1.1-0.4s3.5-0.6,3.5-0.6s1-0.7,1.3-1.8c0.4-1.1,1.5-1.1-0.4-1.1s-2.8,0.1-2.8,0.1
				s-4.3,1-3.2-0.3c1.1-1.3,2.7-1.5,3.7-1.6c1.1-0.1,1.6,0,2.1-0.8c0.5-0.8,0.5-0.8,0.5-0.8s-1.5,0-2.8-0.1
				c-1.2-0.1-1.1-0.1-2.4-0.1s-2.3-0.1-2.3-0.1s0.6-1,1.2-1.1c0.5-0.1,2.1-0.5,2.1-0.5l1.5-1.4c-1.7,0,0.7,0.6-2.3,0s-3-0.6-3-0.6
				s-0.7-0.3-0.6-0.6c0.1-0.3,2.3-1,2.3-1s0.5,0.4,1-0.3c0.4-0.6-0.2-0.1,0.4-0.6s1.1-0.8,0.8-0.8c-0.3-0.1-2.8-0.1-2.8-0.1
				s-0.4-0.1-1-0.2c-0.6-0.1-1.6-0.5-1.5-1c0.1-0.5,1.2-0.6,1.6-0.7s2.4-0.8,2.4-0.8s0.7-0.9,0.4-1c-0.4-0.1-0.6,0-2,0
				c-1.3,0-2.6,0-2.6,0c0-0.6-0.5-0.4-0.1-1.1c0.4-0.6-1.2,0.3,0.4-0.6s1.7-0.9,1.7-0.9l0.2-0.8l-2.9-0.1c0,0,0.5-0.2,0-0.8
				c-0.5-0.6-0.5,0.4-0.5-0.6c0-1,0-1,0-1l2.9-1.5c0,0-1.9-0.5-2.3-0.5c-0.4,0-1.6,0.1-1.8-0.4c-0.2-0.6-1.1-0.8-0.2-1.1
				c0.9-0.2,1.5-0.2,1.6-0.5s0-0.4-0.5-0.8s-0.5-0.3-0.5-0.8s0-1.3,0-1.3l-1-0.2c0,0-0.4-0.7-0.4-1.6s-0.2-0.8,0.5-1.3
				s0.7-0.7,0.7-1.1s-1.3-1.1-1.3-1.1s-0.6-0.6-0.4-1.2c0.2-0.6,0.2,0.1,0.2-0.6c0-0.7-0.7-2.3-0.7-2.3L158.9,181z"/>
			<path class="st5" d="M128.2,180.5v2.6l-0.8,0.9l0.8,0.9l-1.5,0.8v1.1h1.5v2l-1.1,1.2v2.1l-1.5,0.3l-0.9,1l2.2,0.5l-1.6,1.8l2.1,1
				v1.7l-2.7-1.6l-1.6,1l2.1,2.3l-0.7,0.8h2.3v1.2l-2.4,1.1H122l-0.4,1.5l2,1.4v2l-1.2,1.3l-2.6-1l-1.6-0.7v1.3l2.1,2.3h1.9v1.6
				h-1.8l-2.2-0.9v1.5l1.1,1.2l0.9,1h-1.4h-1.6l-1.6-0.7v1.1l1.3,1.4l2.1,1.3v1h-1.1l-1.3-0.9l-1.9-0.7l-1-1.1l-1.3,0.9
				c0,0,0.4,1.3,0.9,1.8c0.5,0.5,1.4,1.5,1.6,1.7c0.2,0.2,0.2,1.5,0.2,1.5l0.3,1.1c0,0,0.7-0.4,1-0.3c0.3,0.1,1.3,0.3,1.3,0.3
				s0.1,0.8-0.1,0.8s-1,0-1.3,0c-0.3,0-2-1.1-2.5-1.2c-0.5-0.2-2.5-0.7-2.5-0.7h-0.8c0,0-0.5,0.7-0.4,0.9c0.1,0.2,0.7,1.6,0.7,1.6
				s0.4-0.4,0.9,0s2.4,1.6,2.4,1.6l1.7,1l-1,2l2.7,0.9c0,0-0.5,0.9-1,0.9c-0.5,0.1,0.8,0-1.6,0c-2.4,0-0.8,0.6-3.2,0
				c-2.4-0.6-2.9-0.6-2.9-0.6s-1.3-1.7-0.9-0.4c0.4,1.4,1,2,1,2s-0.4,2.1,1.6,2.8c2.1,0.7,1.7,0.5,2.6,0.7c0.9,0.2,1.9,0.7,1.9,0.7
				l-0.7,0.6h-1.9c0,0-1.6,0.2-2.2,0c-0.6-0.2,0.4,1.8-0.1,1.9c-0.5,0.1-1.3-0.1-1.7,0s-0.4,0.1-0.4,0.1s-0.6,0.1-0.2,0.7
				c0.4,0.7-0.8-0.6,0.4,0.7c1.2,1.3,2.3,1.5,2.3,1.7c0,0.2,0.8,0.4,0,0.7c-0.8,0.2,0.5,0.2-0.8,0.2c-1.3,0-2.8,0-2.8,0
				s-1.3,1.7-1.9,1.2c-0.6-0.5-0.8-1-0.8-1s-0.6,1.4-0.6,1.6s-0.4,1.1,0.9,1.2c1.3,0.2,2.8,0.8,2.8,0.8l1,0.3l-0.7,0.9
				c1.9,0.8,1.7,0.7,2.3,0.8c0.6,0.1,2.4,0.4,2.4,0.4c-1,0.5-1.9,0.8-2.2,1.1c-0.3,0.2-0.4,0.7-1,0.7c-0.6,0-1.6-0.3-2-0.4
				c-0.4-0.1-0.1-0.1-0.9-0.2s-0.8-0.1-1.5-0.1s-1.3,0.1-1.3,0.1l-1.2,1l2.2,0.8c0,0,1.3,0.2,1.8,0.4c0.4,0.2,0.4,1.1,0.4,1.1
				c-4.9,0-6.1,0-6.1,0l-0.5,1.1c0,0-0.3,0.4,0.7,0.8c1,0.4,1.8,0.7,2.5,0.8s0.7,1,0.7,1l-0.5,0.8c0,0-1.8-0.3,0.8,0
				c2.6,0.3,2.7,0.2,3.3-0.5c0.6-0.7-1.9-0.6,1.4-0.5c3.3,0.1,5.4,0.4,5.1,0.4c-0.3,0-2.4,0.7-2.4,0.7l-2.6,0.7l-1.6,0.7h-1
				l-1.6,1.1c0,0-3.2,1.1-3,1.2c0.2,0.2-0.9,0.8,2.5,1.2c3.4,0.4,4.2,0.6,4.5,0.5c0.2-0.1,0.9,0.2,2.2,0c1.3-0.2,1.9,0.1,1.9,0.1
				s0,1.5,0,0.7c0-0.7-1.3,0.6-1.3,0.6h-1.1l-2.6-0.4c0,0-1.3-0.2-1.6-0.2c-0.2,0.1-1,0.6-1,0.6v0.9c0,0,1.2,1.9,1.6,2
				c0.4,0.1,1.2,0.2,2,0.3c0.8,0.2,0.8,0.2,0.8,0.2l-1.3,0.9h-1.5c0,0-1.6,0-2.2,0s-1.3,0-1.3,0h-1.9c-0.8,0.8-1.8,1.4-1.3,1.6
				s-0.7-0.2,0.9,0.6c1.6,0.8,3.3,1.5,3.9,1.5s1.9,0,1.9,0s0-0.5,2.1,0c2.1,0.5,1.6,0.6,3.2,1.1c1.6,0.5,1.5,1.3,2.8,0.3
				c1.3-1,0-1,1.3-1c1.3,0,0.3,1.1,2.8,0.2c2.5-0.8,3.8-1.3,3.8-1.3s0.9-0.3,1.6-0.7c0.7-0.3,0.8-0.3,1.1-0.4c0.3-0.1,0.8-1.1,0.9,0
				c0.1,1.1-0.1,2.6-0.2,3s-0.1,3.8-0.1,3.8v1.8l-0.4,5.2l-1,3.8l9.1,1.1l-1.5-6.6l-1.3-6l-1-3.5l0.1-3.6h0.7c0,0,0.1,0.9,0.9,0.9
				s2.2,0.7,2.7,0.7c0.5,0,1.7,0.6,2,0.9c0.3,0.3,1.1,0.3,1.1,0.3s1.1-1.5,1.3-1.2c0.2,0.2,1,1.6,1.9,1.9c0.9,0.2,0.7,1.4,2.9,1.1
				c2.2-0.3,2.9,0.1,3-0.7c0.1-0.7,0.1-0.7,1.1-1.8c1-1.1,0.6-0.1,1.8-1.1s1.3-0.4,1.3-1c0-0.6,0.5-1.6-0.7-1.5s-1.3,0.2-1.9,0.3
				c-0.7,0.1-0.7,0.1-2.2,0.1c-1.4,0-2-0.6-2-0.6l-0.3-1.3c-0.7-0.7-0.4-1.3,0-1.5c0.4-0.2,0.5-0.2,1.7-0.2c1.2,0-0.1,0,1.2,0
				s2.7,0.1,2.8-0.2s-0.9-0.2,0.1-0.2c1,0-0.2,0.5,1,0c1.3-0.5,1.6,0.7,2-0.5c0.4-1.2,0.9-1.8,0.9-1.8l-1.3-0.6l-3.6-0.5l-0.8-0.1
				c0,0,0,0.2-1-0.7c-1-0.9-1-0.9-1-0.9s-1.1-1.1-0.8-1.4s0.7-0.2,0.7-0.2s0.9,0,1.1,0c0.2,0,2.7-0.1,2.7-0.1c0-1.3,0.1-1.4-0.6-1.6
				s-1.9-1.6-1.9-1.6c1,0,3.9,0,3.9,0l2.9-1.1v-1.3c0,0-2.7,0-3,0s-1.9-0.1-2.4-0.4c-0.5-0.3-3-1.6-3-1.6l-1.4-0.3l-2.5-1.5
				c0,0,0.4-0.9,0.7-0.8c0.3,0.1,1.9,0.3,2.5,0.2s1.3-0.1,1.3-0.1l3-1.8c0,0-0.4,0.4,1,0.1c1.4-0.3,2.1-0.3,2.1-0.3s0.4-0.8,0.2-1.1
				s-1.2-0.9-1.5-1c-0.3-0.1-2.2-0.1-2.2-0.1s-0.6,0-2.4-0.3c-1.8-0.3-5.1-0.7-5.1-0.7s-1.5-0.5-0.7-0.8s1.9-0.1,2.5,0
				s0,0.7,0.6,0.1s0.3-0.9,0.1-1.1s-0.6,0.3-0.2-0.2c0.4-0.5,0.9-1,0.9-1l0.7-0.5c0,0,0.3-0.7-0.6-0.7c-0.9,0-2.4-0.5-2.4-0.5
				l-1.6-0.5c0,0,0.2-1,0.4-1.1c0.2-0.1,1.5,0.2,2.2-0.2s1.2-0.7,1.2-0.7s1.1-1.2,0.6-1.4s0.4,1.2-2,0c-2.4-1.2-3.9-0.9-3.6-1.8
				c0.4-0.8,0.6-1.6,0.6-1.6l0.2-1.4l0.1-1.2l-2.5-0.1l-2.2-2c0,0,0.2-0.4,0.9-0.5c0.7-0.1,3-0.7,3-0.7s0.8-0.8,1.1-2
				c0.3-1.2,1.3-1.2-0.4-1.2c-1.6,0-2.3,0.1-2.3,0.1s-3.6,1.1-2.7-0.3c0.9-1.5,2.2-1.8,3.1-1.9c0.9-0.1,1.3,0,1.8-0.9
				c0.4-0.9,0.4-0.9,0.4-0.9s-1.3,0-2.3-0.1s-0.9-0.1-2-0.1c-1.1,0-1.9-0.1-1.9-0.1s0.5-1.1,1-1.2s1.8-0.6,1.8-0.6l1.3-1.6
				c-1.4,0,0.6,0.7-1.9,0c-2.5-0.7-2.5-0.7-2.5-0.7s-0.6-0.3-0.5-0.7c0.1-0.3,1.9-1.1,1.9-1.1s0.4,0.4,0.8-0.3
				c0.4-0.7-0.1-0.2,0.4-0.7c0.5-0.6,0.9-0.9,0.7-1c-0.2-0.1-2.3-0.1-2.3-0.1s-0.3-0.1-0.8-0.2c-0.5-0.2-1.3-0.6-1.3-1.1
				c0.1-0.6,1-0.7,1.3-0.8c0.3-0.1,2-1,2-1s0.6-1.1,0.3-1.1c-0.3-0.1-0.5,0-1.6,0c-1.1,0-2.2,0-2.2,0c0-0.7-0.4-0.5-0.1-1.2
				c0.4-0.7-1,0.3,0.4-0.7c1.4-1.1,1.4-1.1,1.4-1.1l0.1-0.9l-2.4-0.2c0,0,0.4-0.2,0-0.9c-0.4-0.7-0.4,0.5-0.4-0.7c0-1.1,0-1.1,0-1.1
				l2.4-1.7c0,0-1.6-0.6-1.9-0.6c-0.4,0-1.3,0.2-1.5-0.5c-0.1-0.7-0.9-0.9-0.1-1.2s1.3-0.2,1.3-0.6s0-0.4-0.4-0.9
				c-0.4-0.5-0.4-0.3-0.4-0.9c0-0.6,0-1.5,0-1.5l-0.8-0.2c0,0-0.3-0.8-0.3-1.9c0-1.1-0.1-0.9,0.4-1.5s0.6-0.8,0.6-1.3
				s-1.1-1.2-1.1-1.2s-0.5-0.7-0.4-1.4c0.1-0.7,0.1,0.1,0.1-0.7s-0.6-2.6-0.6-2.6L128.2,180.5z"/>
			<path class="st5" d="M103.8,163.4v2.6l-1,0.9l1,0.9l-1.9,0.8v1.1h1.9v2l-1.4,1.2v2.1l-1.9,0.3l-1.2,1l2.8,0.5l-2,1.8l2.7,1v1.7
				l-3.4-1.6l-2,1l2.7,2.3l-0.9,0.8h3v1.2l-3.1,1.1H96l-0.5,1.5L98,189v2l-1.5,1.3l-3.3-1l-2.1-0.7v1.3l2.7,2.3h2.4v1.6H94l-2.8-0.9
				v1.5l1.4,1.2l1.2,1H92H90l-2.1-0.7v1.1l1.6,1.4l2.7,1.3v1h-1.4l-1.7-0.9l-2.3-0.7l-1.3-1.1l-1.7,0.9c0,0,0.5,1.3,1.1,1.8
				c0.7,0.5,1.8,1.5,2,1.7s0.2,1.5,0.2,1.5l0.4,1.1c0,0,0.8-0.4,1.2-0.3c0.4,0.1,1.7,0.3,1.7,0.3s0.2,0.8-0.2,0.8s-1.2,0-1.6,0
				s-2.5-1.1-3.2-1.2c-0.7-0.2-3.2-0.7-3.2-0.7h-1c0,0-0.7,0.7-0.6,0.9c0.1,0.2,0.9,1.6,0.9,1.6s0.6-0.4,1.1,0
				c0.6,0.4,3.1,1.6,3.1,1.6l2.2,1l-1.2,2l3.4,0.9c0,0-0.7,0.9-1.3,0.9c-0.7,0.1,1,0-2.1,0c-3.1,0-1,0.6-4,0c-3-0.6-3.7-0.6-3.7-0.6
				s-1.7-1.7-1.1-0.4c0.6,1.4,1.3,2,1.3,2s-0.6,2.1,2.1,2.8c2.6,0.7,2.2,0.5,3.3,0.7c1.1,0.2,2.3,0.7,2.3,0.7l-0.9,0.6h-2.4
				c0,0-2,0.2-2.7,0c-0.8-0.2,0.6,1.8-0.1,1.9c-0.7,0.1-1.7-0.1-2.2,0c-0.5,0.1-0.5,0.1-0.5,0.1s-0.8,0.1-0.3,0.7
				c0.5,0.7-1-0.6,0.5,0.7c1.5,1.3,2.9,1.5,2.9,1.7s1,0.4,0,0.7c-1,0.2,0.7,0.2-1,0.2c-1.7,0-3.6,0-3.6,0s-1.7,1.7-2.4,1.2s-1-1-1-1
				s-0.8,1.4-0.8,1.6c0,0.2-0.6,1.1,1.1,1.2c1.7,0.2,3.6,0.8,3.6,0.8l1.2,0.3l-0.9,0.9c2.3,0.8,2.2,0.7,2.9,0.8
				c0.8,0.1,3.1,0.4,3.1,0.4c-1.2,0.5-2.3,0.8-2.7,1.1c-0.4,0.2-0.5,0.7-1.2,0.7s-2.1-0.3-2.5-0.4s-0.2-0.1-1.1-0.2
				c-0.9-0.1-1-0.1-1.9-0.1c-0.8,0-1.6,0.1-1.6,0.1l-1.5,1l2.8,0.8c0,0,1.7,0.2,2.3,0.4c0.6,0.2,0.6,1.1,0.6,1.1c-6.2,0-7.7,0-7.7,0
				l-0.7,1.1c0,0-0.4,0.4,0.9,0.8c1.3,0.4,2.3,0.7,3.2,0.8s0.8,1,0.8,1l-0.7,0.8c0,0-2.3-0.3,1,0c3.3,0.3,3.5,0.2,4.2-0.5
				c0.8-0.7-2.4-0.6,1.8-0.5s6.8,0.4,6.5,0.4c-0.4,0-3,0.7-3,0.7l-3.3,0.7l-2.1,0.7h-1.3l-2,1.1c0,0-4,1.1-3.8,1.2
				c0.3,0.2-1.1,0.8,3.2,1.2s5.4,0.6,5.6,0.5s1.1,0.2,2.8,0c1.7-0.2,2.4,0.1,2.4,0.1s0,1.5,0,0.7c0-0.7-1.6,0.6-1.6,0.6h-1.4
				l-3.3-0.4c0,0-1.7-0.2-2-0.2s-1.2,0.6-1.2,0.6v0.9c0,0,1.5,1.9,2.1,2s1.5,0.2,2.5,0.3c1,0.2,1,0.2,1,0.2l-1.7,0.9h-1.9
				c0,0-2.1,0-2.7,0s-1.6,0-1.6,0h-2.3c-1,0.8-2.3,1.4-1.7,1.6c0.6,0.2-0.9-0.2,1.1,0.6s4.1,1.5,5,1.5c0.8,0,2.4,0,2.4,0
				s0-0.5,2.6,0c2.6,0.5,2,0.6,4,1.1c2.1,0.5,1.9,1.3,3.6,0.3c1.7-1,0-1,1.7-1c1.7,0,0.4,1.1,3.6,0.2s4.8-1.3,4.8-1.3s1.1-0.3,2-0.7
				c0.8-0.3,1-0.3,1.4-0.4c0.4-0.1,1-1.1,1.1,0s-0.2,2.6-0.3,3s-0.1,3.8-0.1,3.8v1.8l-0.6,5.2l-1.2,3.8l11.6,1.1l-1.9-6.6l-1.7-6
				l-1.2-3.5l0.1-3.6h0.9c0,0,0.2,0.9,1.1,0.9c0.9,0,2.8,0.7,3.4,0.7c0.7,0,2.2,0.6,2.5,0.9c0.4,0.3,1.4,0.3,1.4,0.3
				s1.4-1.5,1.7-1.2c0.3,0.2,1.3,1.6,2.4,1.9c1.1,0.2,0.8,1.4,3.7,1.1c2.8-0.3,3.7,0.1,3.9-0.7c0.2-0.7,0.1-0.7,1.4-1.8
				c1.2-1.1,0.7-0.1,2.3-1.1c1.6-1,1.6-0.4,1.6-1c0-0.6,0.7-1.6-0.8-1.5c-1.5,0.2-1.6,0.2-2.4,0.3s-0.9,0.1-2.7,0.1
				s-2.5-0.6-2.5-0.6l-0.4-1.3c-0.8-0.7-0.5-1.3,0-1.5c0.5-0.2,0.7-0.2,2.2-0.2c1.5,0-0.2,0,1.5,0s3.4,0.1,3.6-0.2
				c0.2-0.2-1.1-0.2,0.2-0.2c1.3,0-0.3,0.5,1.3,0c1.6-0.5,2.1,0.7,2.5-0.5s1.1-1.8,1.1-1.8l-1.6-0.6l-4.5-0.5l-1-0.1
				c0,0,0,0.2-1.3-0.7c-1.3-0.9-1.3-0.9-1.3-0.9s-1.4-1.1-1-1.4c0.4-0.2,0.9-0.2,0.9-0.2s1.1,0,1.4,0c0.3,0,3.5-0.1,3.5-0.1
				c0-1.3,0.1-1.4-0.8-1.6c-0.8-0.2-2.4-1.6-2.4-1.6c1.2,0,5,0,5,0l3.7-1.1v-1.3c0,0-3.5,0-3.8,0s-2.4-0.1-3.1-0.4
				c-0.7-0.3-3.8-1.6-3.8-1.6l-1.8-0.3l-3.2-1.5c0,0,0.6-0.9,0.9-0.8c0.4,0.1,2.3,0.3,3.2,0.2s1.6-0.1,1.6-0.1l3.8-1.8
				c0,0-0.6,0.4,1.2,0.1c1.8-0.3,2.6-0.3,2.6-0.3s0.6-0.8,0.3-1.1c-0.3-0.3-1.5-0.9-1.9-1s-2.8-0.1-2.8-0.1s-0.8,0-3-0.3
				c-2.3-0.3-6.5-0.7-6.5-0.7s-1.9-0.5-0.9-0.8c0.9-0.3,2.4-0.1,3.2,0c0.8,0.1,0,0.7,0.8,0.1c0.7-0.6,0.4-0.9,0.2-1.1
				s-0.8,0.3-0.2-0.2c0.6-0.5,1.2-1,1.2-1l0.9-0.5c0,0,0.4-0.7-0.8-0.7c-1.2,0-3.1-0.5-3.1-0.5l-2-0.5c0,0,0.3-1,0.6-1.1
				s1.9,0.2,2.8-0.2s1.5-0.7,1.5-0.7s1.4-1.2,0.8-1.4s0.5,1.2-2.5,0s-5-0.9-4.5-1.8s0.8-1.6,0.8-1.6l0.3-1.4l0.2-1.2l-3.2-0.1
				l-2.7-2c0,0,0.3-0.4,1.1-0.5c0.8-0.1,3.8-0.7,3.8-0.7s1-0.8,1.4-2s1.6-1.2-0.5-1.2c-2.1,0-2.9,0.1-2.9,0.1s-4.5,1.1-3.4-0.3
				c1.1-1.5,2.8-1.8,3.9-1.9c1.1-0.1,1.7,0,2.3-0.9c0.6-0.9,0.6-0.9,0.6-0.9s-1.6,0-2.9-0.1c-1.3-0.1-1.1-0.1-2.5-0.1
				c-1.4,0-2.4-0.1-2.4-0.1s0.7-1.1,1.2-1.2s2.3-0.6,2.3-0.6l1.6-1.6c-1.8,0,0.8,0.7-2.4,0c-3.2-0.7-3.2-0.7-3.2-0.7
				s-0.8-0.3-0.7-0.7s2.4-1.1,2.4-1.1s0.6,0.4,1-0.3c0.5-0.7-0.2-0.2,0.5-0.7c0.7-0.6,1.1-0.9,0.8-1c-0.3-0.1-2.9-0.1-2.9-0.1
				s-0.4-0.1-1-0.2c-0.7-0.2-1.7-0.6-1.6-1.1s1.3-0.7,1.7-0.8s2.5-1,2.5-1s0.8-1.1,0.4-1.1c-0.4-0.1-0.7,0-2.1,0c-1.4,0-2.7,0-2.7,0
				c0-0.7-0.6-0.5-0.1-1.2c0.5-0.7-1.3,0.3,0.5-0.7c1.8-1.1,1.8-1.1,1.8-1.1l0.2-0.9l-3.1-0.2c0,0,0.6-0.2,0-0.9
				c-0.6-0.7-0.6,0.5-0.6-0.7c0-1.1,0-1.1,0-1.1l3.1-1.7c0,0-2-0.6-2.4-0.6s-1.7,0.2-1.9-0.5c-0.2-0.7-1.2-0.9-0.2-1.2
				c1-0.3,1.6-0.2,1.7-0.6c0.1-0.3,0-0.4-0.6-0.9c-0.6-0.5-0.6-0.3-0.6-0.9s0-1.5,0-1.5l-1-0.2c0,0-0.4-0.8-0.4-1.9
				c0-1.1-0.2-0.9,0.5-1.5s0.7-0.8,0.7-1.3s-1.4-1.2-1.4-1.2s-0.6-0.7-0.4-1.4c0.2-0.7,0.2,0.1,0.2-0.7s-0.8-2.6-0.8-2.6
				L103.8,163.4z"/>
			<path class="st5" d="M78.4,186.9v2.6l-1,0.9l1,0.9l-1.9,0.8v1.1h1.9v2l-1.4,1.2v2.1l-1.9,0.3l-1.2,1l2.8,0.5l-2,1.8l2.7,1v1.7
				l-3.4-1.6l-2,1l2.7,2.3l-0.9,0.8h3v1.2l-3.1,1.1h-2.9l-0.5,1.5l2.5,1.4v2l-1.5,1.3l-3.3-1l-2.1-0.7v1.3l2.7,2.3h2.4v1.6h-2.3
				l-2.8-0.9v1.5l1.4,1.2l1.2,1h-1.7h-2.1l-2.1-0.7v1.1l1.6,1.4l2.7,1.3v1h-1.4l-1.7-0.9l-2.3-0.7l-1.3-1.1l-1.7,0.9
				c0,0,0.5,1.3,1.1,1.8s1.8,1.5,2,1.7s0.2,1.5,0.2,1.5l0.4,1.1c0,0,0.8-0.4,1.2-0.3c0.4,0.1,1.7,0.3,1.7,0.3s0.2,0.8-0.2,0.8
				s-1.2,0-1.6,0c-0.4,0-2.5-1.1-3.2-1.2c-0.7-0.2-3.2-0.7-3.2-0.7h-1c0,0-0.7,0.7-0.6,0.9c0.1,0.2,0.9,1.6,0.9,1.6s0.6-0.4,1.1,0
				c0.6,0.4,3.1,1.6,3.1,1.6l2.2,1l-1.2,2l3.4,0.9c0,0-0.7,0.9-1.3,0.9c-0.7,0.1,1,0-2.1,0c-3.1,0-1,0.6-4,0c-3-0.6-3.7-0.6-3.7-0.6
				s-1.7-1.7-1.1-0.4c0.6,1.4,1.3,2,1.3,2s-0.6,2.1,2.1,2.8c2.6,0.7,2.2,0.5,3.3,0.7s2.3,0.7,2.3,0.7l-0.9,0.6h-2.4c0,0-2,0.2-2.7,0
				c-0.8-0.2,0.6,1.8-0.1,1.9c-0.7,0.1-1.7-0.1-2.2,0c-0.5,0.1-0.5,0.1-0.5,0.1s-0.8,0.1-0.3,0.7c0.5,0.7-1-0.6,0.5,0.7
				c1.5,1.3,2.9,1.5,2.9,1.7c0,0.2,1,0.4,0,0.7c-1,0.2,0.7,0.2-1,0.2c-1.7,0-3.6,0-3.6,0s-1.7,1.7-2.4,1.2c-0.8-0.5-1-1-1-1
				s-0.8,1.4-0.8,1.6c0,0.2-0.6,1.1,1.1,1.2c1.7,0.2,3.6,0.8,3.6,0.8l1.2,0.3l-0.9,0.9c2.3,0.8,2.2,0.7,2.9,0.8s3.1,0.4,3.1,0.4
				c-1.2,0.5-2.3,0.8-2.7,1.1c-0.4,0.2-0.5,0.7-1.2,0.7c-0.8,0-2.1-0.3-2.5-0.4c-0.5-0.1-0.2-0.1-1.1-0.2c-0.9-0.1-1-0.1-1.9-0.1
				c-0.8,0-1.6,0.1-1.6,0.1l-1.5,1l2.8,0.8c0,0,1.7,0.2,2.3,0.4c0.6,0.2,0.6,1.1,0.6,1.1c-6.2,0-7.7,0-7.7,0l-0.7,1.1
				c0,0-0.4,0.4,0.9,0.8s2.3,0.7,3.2,0.8s0.8,1,0.8,1l-0.7,0.8c0,0-2.3-0.3,1,0s3.5,0.2,4.2-0.5c0.8-0.7-2.4-0.6,1.8-0.5
				s6.8,0.4,6.5,0.4s-3,0.7-3,0.7l-3.3,0.7l-2.1,0.7h-1.3l-2,1.1c0,0-4,1.1-3.8,1.2c0.3,0.2-1.1,0.8,3.2,1.2s5.4,0.6,5.6,0.5
				c0.3-0.1,1.1,0.2,2.8,0c1.7-0.2,2.4,0.1,2.4,0.1s0,1.5,0,0.7c0-0.7-1.6,0.6-1.6,0.6h-1.4l-3.3-0.4c0,0-1.7-0.2-2-0.2
				c-0.3,0.1-1.2,0.6-1.2,0.6v0.9c0,0,1.5,1.9,2.1,2c0.6,0.1,1.5,0.2,2.5,0.3c1,0.2,1,0.2,1,0.2l-1.7,0.9h-1.9c0,0-2.1,0-2.7,0
				s-1.6,0-1.6,0h-2.3c-1,0.8-2.3,1.4-1.7,1.6c0.6,0.2-0.9-0.2,1.1,0.6s4.1,1.5,5,1.5c0.8,0,2.4,0,2.4,0s0-0.5,2.6,0
				c2.6,0.5,2,0.6,4,1.1c2.1,0.5,1.9,1.3,3.6,0.3c1.7-1,0-1,1.7-1s0.4,1.1,3.6,0.2c3.2-0.8,4.8-1.3,4.8-1.3s1.1-0.3,2-0.7
				c0.8-0.3,1-0.3,1.4-0.4c0.4-0.1,1-1.1,1.1,0c0.1,1.1-0.2,2.6-0.3,3s-0.1,3.8-0.1,3.8v1.8l-0.6,5.2l-1.2,3.8l11.6,1.1l-1.9-6.6
				l-1.7-6l-1.2-3.5l0.1-3.6h0.9c0,0,0.2,0.9,1.1,0.9c0.9,0,2.8,0.7,3.4,0.7s2.2,0.6,2.5,0.9c0.4,0.3,1.4,0.3,1.4,0.3
				s1.4-1.5,1.7-1.2s1.3,1.6,2.4,1.9c1.1,0.2,0.8,1.4,3.7,1.1c2.8-0.3,3.7,0.1,3.9-0.7c0.2-0.7,0.1-0.7,1.4-1.8
				c1.2-1.1,0.7-0.1,2.3-1.1s1.6-0.4,1.6-1s0.7-1.6-0.8-1.5c-1.5,0.2-1.6,0.2-2.4,0.3c-0.8,0.1-0.9,0.1-2.7,0.1s-2.5-0.6-2.5-0.6
				l-0.4-1.3c-0.8-0.7-0.5-1.3,0-1.5c0.5-0.2,0.7-0.2,2.2-0.2s-0.2,0,1.5,0c1.7,0,3.4,0.1,3.6-0.2c0.2-0.2-1.1-0.2,0.2-0.2
				c1.3,0-0.3,0.5,1.3,0c1.6-0.5,2.1,0.7,2.5-0.5s1.1-1.8,1.1-1.8l-1.6-0.6l-4.5-0.5l-1-0.1c0,0,0,0.2-1.3-0.7
				c-1.3-0.9-1.3-0.9-1.3-0.9s-1.4-1.1-1-1.4c0.4-0.2,0.9-0.2,0.9-0.2s1.1,0,1.4,0c0.3,0,3.5-0.1,3.5-0.1c0-1.3,0.1-1.4-0.8-1.6
				c-0.8-0.2-2.4-1.6-2.4-1.6c1.2,0,5,0,5,0l3.7-1.1v-1.3c0,0-3.5,0-3.8,0s-2.4-0.1-3.1-0.4c-0.7-0.3-3.8-1.6-3.8-1.6l-1.8-0.3
				l-3.2-1.5c0,0,0.6-0.9,0.9-0.8c0.4,0.1,2.3,0.3,3.2,0.2c0.8-0.1,1.6-0.1,1.6-0.1l3.8-1.8c0,0-0.6,0.4,1.2,0.1
				c1.8-0.3,2.6-0.3,2.6-0.3s0.6-0.8,0.3-1.1c-0.3-0.3-1.5-0.9-1.9-1s-2.8-0.1-2.8-0.1s-0.8,0-3-0.3s-6.5-0.7-6.5-0.7
				s-1.9-0.5-0.9-0.8c0.9-0.3,2.4-0.1,3.2,0c0.8,0.1,0,0.7,0.8,0.1c0.7-0.6,0.4-0.9,0.2-1.1s-0.8,0.3-0.2-0.2s1.2-1,1.2-1l0.9-0.5
				c0,0,0.4-0.7-0.8-0.7c-1.2,0-3.1-0.5-3.1-0.5l-2-0.5c0,0,0.3-1,0.6-1.1c0.3-0.1,1.9,0.2,2.8-0.2c0.9-0.4,1.5-0.7,1.5-0.7
				s1.4-1.2,0.8-1.4c-0.7-0.2,0.5,1.2-2.5,0c-3-1.2-5-0.9-4.5-1.8c0.5-0.8,0.8-1.6,0.8-1.6l0.3-1.4l0.2-1.2l-3.2-0.1l-2.7-2
				c0,0,0.3-0.4,1.1-0.5s3.8-0.7,3.8-0.7s1-0.8,1.4-2s1.6-1.2-0.5-1.2s-2.9,0.1-2.9,0.1s-4.5,1.1-3.4-0.3c1.1-1.5,2.8-1.8,3.9-1.9
				c1.1-0.1,1.7,0,2.3-0.9s0.6-0.9,0.6-0.9s-1.6,0-2.9-0.1c-1.3-0.1-1.1-0.1-2.5-0.1c-1.4,0-2.4-0.1-2.4-0.1s0.7-1.1,1.2-1.2
				c0.6-0.1,2.3-0.6,2.3-0.6l1.6-1.6c-1.8,0,0.8,0.7-2.4,0s-3.2-0.7-3.2-0.7s-0.8-0.3-0.7-0.7c0.1-0.3,2.4-1.1,2.4-1.1
				s0.6,0.4,1-0.3c0.5-0.7-0.2-0.2,0.5-0.7c0.7-0.6,1.1-0.9,0.8-1s-2.9-0.1-2.9-0.1s-0.4-0.1-1-0.2c-0.7-0.2-1.7-0.6-1.6-1.1
				c0.1-0.6,1.3-0.7,1.7-0.8s2.5-1,2.5-1s0.8-1.1,0.4-1.1s-0.7,0-2.1,0s-2.7,0-2.7,0c0-0.7-0.6-0.5-0.1-1.2s-1.3,0.3,0.5-0.7
				C87,210,87,210,87,210l0.2-0.9l-3.1-0.2c0,0,0.6-0.2,0-0.9c-0.6-0.7-0.6,0.5-0.6-0.7c0-1.1,0-1.1,0-1.1l3.1-1.7
				c0,0-2-0.6-2.4-0.6c-0.5,0-1.7,0.2-1.9-0.5c-0.2-0.7-1.2-0.9-0.2-1.2c1-0.3,1.6-0.2,1.7-0.6s0-0.4-0.6-0.9s-0.6-0.3-0.6-0.9
				s0-1.5,0-1.5l-1-0.2c0,0-0.4-0.8-0.4-1.9c0-1.1-0.2-0.9,0.5-1.5c0.7-0.6,0.7-0.8,0.7-1.3s-1.4-1.2-1.4-1.2s-0.6-0.7-0.4-1.4
				s0.2,0.1,0.2-0.7s-0.8-2.6-0.8-2.6L78.4,186.9z"/>
			<path class="st5" d="M218,161.1v2.6l-0.9,0.9l0.9,0.9l-1.8,0.8v1.1h1.8v2l-1.3,1.2v2.1l-1.8,0.3l-1.1,1l2.6,0.5l-1.9,1.8l2.5,1
				v1.7l-3.2-1.6l-1.9,1l2.5,2.3l-0.9,0.8h2.8v1.2l-2.9,1.1h-2.8l-0.4,1.5l2.4,1.4v2l-1.4,1.3l-3.1-1l-2-0.7v1.3l2.5,2.3h2.3v1.6
				h-2.1l-2.7-0.9v1.5l1.3,1.2l1.1,1h-1.6h-2l-2-0.7v1.1l1.6,1.4l2.5,1.3v1h-1.3l-1.6-0.9l-2.2-0.7l-1.2-1.1l-1.6,0.9
				c0,0,0.4,1.3,1.1,1.8s1.7,1.5,1.9,1.7s0.2,1.5,0.2,1.5l0.4,1.1c0,0,0.8-0.4,1.2-0.3s1.6,0.3,1.6,0.3s0.2,0.8-0.2,0.8
				s-1.2,0-1.5,0c-0.4,0-2.4-1.1-3-1.2c-0.6-0.2-3-0.7-3-0.7h-1c0,0-0.6,0.7-0.5,0.9c0.1,0.2,0.9,1.6,0.9,1.6s0.5-0.4,1.1,0
				s2.9,1.6,2.9,1.6l2,1l-1.2,2l3.2,0.9c0,0-0.6,0.9-1.2,0.9c-0.6,0.1,1,0-2,0c-2.9,0-1,0.6-3.8,0c-2.8-0.6-3.5-0.6-3.5-0.6
				s-1.6-1.7-1.1-0.4c0.5,1.4,1.2,2,1.2,2s-0.5,2.1,2,2.8c2.5,0.7,2,0.5,3.1,0.7c1.1,0.2,2.2,0.7,2.2,0.7l-0.9,0.6h-2.3
				c0,0-1.9,0.2-2.6,0c-0.7-0.2,0.5,1.8-0.1,1.9c-0.6,0.1-1.6-0.1-2,0c-0.4,0.1-0.4,0.1-0.4,0.1s-0.7,0.1-0.3,0.7
				c0.5,0.7-0.9-0.6,0.5,0.7c1.4,1.3,2.8,1.5,2.8,1.7c0,0.2,1,0.4,0,0.7c-1,0.2,0.6,0.2-1,0.2s-3.4,0-3.4,0s-1.6,1.7-2.3,1.2
				c-0.7-0.5-1-1-1-1s-0.7,1.4-0.7,1.6c0,0.2-0.5,1.1,1.1,1.2c1.6,0.2,3.4,0.8,3.4,0.8l1.2,0.3l-0.9,0.9c2.2,0.8,2,0.7,2.8,0.8
				c0.7,0.1,2.9,0.4,2.9,0.4c-1.2,0.5-2.2,0.8-2.6,1.1c-0.4,0.2-0.4,0.7-1.2,0.7c-0.7,0-2-0.3-2.4-0.4c-0.4-0.1-0.2-0.1-1.1-0.2
				s-1-0.1-1.8-0.1c-0.8,0-1.5,0.1-1.5,0.1l-1.4,1l2.7,0.8c0,0,1.6,0.2,2.1,0.4c0.5,0.2,0.5,1.1,0.5,1.1c-5.9,0-7.3,0-7.3,0
				l-0.6,1.1c0,0-0.4,0.4,0.9,0.8c1.2,0.4,2.1,0.7,3,0.8c0.9,0.2,0.8,1,0.8,1l-0.6,0.8c0,0-2.1-0.3,1,0c3.1,0.3,3.3,0.2,4-0.5
				c0.7-0.7-2.3-0.6,1.7-0.5c4,0.1,6.5,0.4,6.1,0.4c-0.3,0-2.8,0.7-2.8,0.7l-3.1,0.7l-2,0.7H192l-1.9,1.1c0,0-3.8,1.1-3.5,1.2
				c0.3,0.2-1.1,0.8,3,1.2s5.1,0.6,5.3,0.5c0.3-0.1,1.1,0.2,2.7,0c1.6-0.2,2.3,0.1,2.3,0.1s0,1.5,0,0.7c0-0.7-1.5,0.6-1.5,0.6h-1.3
				l-3.1-0.4c0,0-1.6-0.2-1.9-0.2c-0.3,0.1-1.2,0.6-1.2,0.6v0.9c0,0,1.4,1.9,2,2c0.5,0.1,1.4,0.2,2.4,0.3c1,0.2,1,0.2,1,0.2
				l-1.6,0.9h-1.8c0,0-2,0-2.6,0c-0.6,0-1.5,0-1.5,0h-2.2c-1,0.8-2.1,1.4-1.6,1.6c0.5,0.2-0.9-0.2,1.1,0.6s3.9,1.5,4.7,1.5
				s2.3,0,2.3,0s0-0.5,2.5,0s1.9,0.6,3.8,1.1s1.8,1.3,3.4,0.3c1.6-1,0-1,1.6-1s0.4,1.1,3.4,0.2c3-0.8,4.5-1.3,4.5-1.3
				s1.1-0.3,1.9-0.7s1-0.3,1.3-0.4s1-1.1,1.1,0c0.1,1.1-0.2,2.6-0.3,3s-0.1,3.8-0.1,3.8v1.8l-0.5,5.2l-1.2,3.8l10.9,1.1l-1.8-6.6
				l-1.6-6l-1.2-3.5l0.1-3.6h0.9c0,0,0.2,0.9,1,0.9c0.8,0,2.6,0.7,3.2,0.7c0.6,0,2,0.6,2.4,0.9s1.3,0.3,1.3,0.3s1.3-1.5,1.6-1.2
				c0.3,0.2,1.2,1.6,2.3,1.9c1.1,0.2,0.8,1.4,3.5,1.1c2.7-0.3,3.5,0.1,3.6-0.7c0.2-0.7,0.1-0.7,1.3-1.8c1.2-1.1,0.7-0.1,2.2-1.1
				c1.5-1,1.5-0.4,1.5-1s0.6-1.6-0.8-1.5c-1.4,0.2-1.5,0.2-2.3,0.3c-0.8,0.1-0.9,0.1-2.6,0.1s-2.4-0.6-2.4-0.6l-0.4-1.3
				c-0.8-0.7-0.4-1.3,0-1.5c0.4-0.2,0.6-0.2,2-0.2s-0.2,0,1.4,0c1.6,0,3.2,0.1,3.4-0.2c0.2-0.2-1.1-0.2,0.2-0.2c1.2,0-0.3,0.5,1.2,0
				c1.5-0.5,2,0.7,2.4-0.5c0.4-1.2,1-1.8,1-1.8l-1.6-0.6l-4.3-0.5l-1-0.1c0,0,0,0.2-1.2-0.7s-1.2-0.9-1.2-0.9s-1.3-1.1-1-1.4
				c0.4-0.2,0.9-0.2,0.9-0.2s1.1,0,1.3,0s3.3-0.1,3.3-0.1c0-1.3,0.1-1.4-0.7-1.6s-2.3-1.6-2.3-1.6c1.2,0,4.7,0,4.7,0l3.5-1.1v-1.3
				c0,0-3.3,0-3.5,0s-2.3-0.1-2.9-0.4c-0.6-0.3-3.5-1.6-3.5-1.6l-1.7-0.3l-3-1.5c0,0,0.5-0.9,0.9-0.8c0.4,0.1,2.2,0.3,3,0.2
				c0.8-0.1,1.5-0.1,1.5-0.1l3.5-1.8c0,0-0.5,0.4,1.2,0.1s2.5-0.3,2.5-0.3s0.5-0.8,0.3-1.1s-1.4-0.9-1.8-1c-0.4-0.1-2.7-0.1-2.7-0.1
				s-0.7,0-2.8-0.3c-2.1-0.3-6.1-0.7-6.1-0.7s-1.8-0.5-0.9-0.8s2.3-0.1,3,0s0,0.7,0.7,0.1c0.7-0.6,0.4-0.9,0.2-1.1s-0.8,0.3-0.2-0.2
				c0.5-0.5,1.1-1,1.1-1l0.9-0.5c0,0,0.4-0.7-0.8-0.7c-1.1,0-2.9-0.5-2.9-0.5l-1.9-0.5c0,0,0.3-1,0.5-1.1s1.8,0.2,2.7-0.2
				c0.9-0.4,1.4-0.7,1.4-0.7s1.3-1.2,0.7-1.4s0.4,1.2-2.4,0c-2.8-1.2-4.7-0.9-4.3-1.8c0.4-0.8,0.7-1.6,0.7-1.6l0.3-1.4l0.2-1.2
				l-3-0.1l-2.6-2c0,0,0.3-0.4,1.1-0.5c0.8-0.1,3.5-0.7,3.5-0.7s1-0.8,1.3-2c0.4-1.2,1.5-1.2-0.4-1.2s-2.8,0.1-2.8,0.1
				s-4.3,1.1-3.2-0.3c1.1-1.5,2.7-1.8,3.7-1.9s1.6,0,2.1-0.9c0.5-0.9,0.5-0.9,0.5-0.9s-1.5,0-2.8-0.1c-1.2-0.1-1.1-0.1-2.4-0.1
				s-2.3-0.1-2.3-0.1s0.6-1.1,1.2-1.2c0.5-0.1,2.1-0.6,2.1-0.6l1.5-1.6c-1.7,0,0.7,0.7-2.3,0c-3-0.7-3-0.7-3-0.7s-0.7-0.3-0.6-0.7
				c0.1-0.3,2.3-1.1,2.3-1.1s0.5,0.4,1-0.3c0.4-0.7-0.2-0.2,0.4-0.7s1.1-0.9,0.8-1c-0.3-0.1-2.8-0.1-2.8-0.1s-0.4-0.1-1-0.2
				c-0.6-0.2-1.6-0.6-1.5-1.1s1.2-0.7,1.6-0.8c0.4-0.1,2.4-1,2.4-1s0.7-1.1,0.4-1.1c-0.4-0.1-0.6,0-2,0c-1.3,0-2.6,0-2.6,0
				c0-0.7-0.5-0.5-0.1-1.2c0.4-0.7-1.2,0.3,0.4-0.7c1.7-1.1,1.7-1.1,1.7-1.1l0.2-0.9l-2.9-0.2c0,0,0.5-0.2,0-0.9
				c-0.5-0.7-0.5,0.5-0.5-0.7s0-1.1,0-1.1l2.9-1.7c0,0-1.9-0.6-2.3-0.6s-1.6,0.2-1.8-0.5c-0.2-0.7-1.1-0.9-0.2-1.2s1.5-0.2,1.6-0.6
				c0.1-0.3,0-0.4-0.5-0.9c-0.5-0.5-0.5-0.3-0.5-0.9c0-0.6,0-1.5,0-1.5l-1-0.2c0,0-0.4-0.8-0.4-1.9c0-1.1-0.2-0.9,0.5-1.5
				c0.7-0.6,0.7-0.8,0.7-1.3c0-0.5-1.3-1.2-1.3-1.2s-0.6-0.7-0.4-1.4c0.2-0.7,0.2,0.1,0.2-0.7c0-0.8-0.7-2.6-0.7-2.6L218,161.1z"/>
		</g>
	</g>
</g>
<g>
	<path class="st5" d="M32.1,143.3L19.8,132L19,142l-3.6-0.3l1.2-15.3l3.4,0.3l12.5,11.5l0.8-10.5l3.6,0.3l-1.2,15.6L32.1,143.3z"/>
	<path class="st5" d="M26.5,101.3l-3,10.3l4.1,1.2l2.8-9.4l3.4,1l-2.8,9.4l5,1.5l3.2-10.8l3.5,1l-4.3,14.7l-19.4-5.7l4.2-14.3
		L26.5,101.3z"/>
	<path class="st5" d="M28,88.4l2.2-3.9l16.3-0.1l-12.3-6.9l1.9-3.4L53.7,84l-2.1,3.7l-16.6,0.2l12.5,7l-1.9,3.4L28,88.4z"/>
	<path class="st5" d="M56.3,70.6c0.8,0.5,1.5,0.8,2.1,0.8c1.1,0,2.2-0.6,3.3-1.8c0.7-0.8,1.2-1.4,1.4-2.1c0.5-1.2,0.3-2.2-0.5-2.9
		c-0.5-0.4-1.1-0.6-1.7-0.4c-0.7,0.2-1.5,0.7-2.6,1.5L56.4,67c-1.8,1.3-3.2,2-4.1,2.3c-1.6,0.4-3.2-0.1-4.6-1.4
		c-1.3-1.2-2-2.7-2-4.5c0-1.8,0.9-3.7,2.6-5.6c1.4-1.6,3.1-2.6,5-3c1.9-0.4,3.6,0.1,5.3,1.5l-2.7,3c-1-0.8-2-0.9-3-0.5
		c-0.7,0.3-1.4,0.8-2.1,1.5c-0.7,0.8-1.2,1.6-1.3,2.4c-0.1,0.8,0.1,1.4,0.7,2c0.5,0.5,1.2,0.6,1.9,0.4c0.5-0.2,1.3-0.6,2.4-1.4
		l3-2.1c1.3-0.9,2.5-1.5,3.4-1.6c1.5-0.3,2.9,0.2,4.3,1.4c1.4,1.2,2,2.8,2,4.7c0,1.9-0.9,3.8-2.7,5.7c-1.8,2-3.6,3.1-5.6,3.5
		c-1.9,0.3-3.7-0.2-5.2-1.6L56.3,70.6z"/>
	<path class="st5" d="M78.5,58l-3.3,2.6L62.7,44.7l3.3-2.6L78.5,58z"/>
	<path class="st5" d="M90.3,29.6c1,0.5,1.7,1.2,2.3,2.3c0.6,1.1,0.8,2.1,0.6,3.1c-0.1,0.5-0.4,1.1-0.8,1.8c1.1-0.2,2.1,0,2.9,0.5
		c0.9,0.5,1.6,1.2,2.1,2.2c0.6,1.1,0.8,2.1,0.7,3.3c0,0.7-0.2,1.4-0.5,2.1c-0.3,0.7-0.8,1.4-1.5,2c-0.7,0.6-1.5,1.1-2.4,1.6l-8,4.3
		L76,34.8l8.6-4.7C86.8,29,88.7,28.8,90.3,29.6z M81.3,36l2.1,3.9l4.3-2.3c0.8-0.4,1.3-0.9,1.6-1.5c0.3-0.6,0.3-1.2-0.1-2
		c-0.4-0.8-1.1-1.2-1.8-1.1c-0.7,0.1-1.4,0.4-2.3,0.9L81.3,36z M85,42.9l2.6,4.8l4.3-2.3c0.8-0.4,1.3-0.8,1.6-1.3
		c0.6-0.8,0.6-1.8,0-2.9c-0.5-0.9-1.2-1.4-2.2-1.3c-0.5,0-1.2,0.3-1.9,0.7L85,42.9z"/>
	<path class="st5" d="M102.5,22.4l4.1-1.2l4.6,16l9.7-2.8l1,3.5L108,41.9L102.5,22.4z"/>
	<path class="st5" d="M140.1,15.5l0.3,3.6l-6,0.6l1.6,16.6l-4.2,0.4L130.2,20l-6.1,0.6l-0.3-3.6L140.1,15.5z"/>
	<path class="st5" d="M163,17l4.8,0.5l-8.2,11.8l-0.9,7.5l-4.2-0.5l0.9-7.5l-5.5-13.4l5,0.6l3.2,9.2L163,17z"/>
	<path class="st5" d="M214.8,44.5c0.5-1.3,0.4-2.6-0.4-3.7c-0.4-0.6-1-1.2-1.7-1.7c-1.4-0.9-2.8-1.1-4.4-0.7c-1.6,0.5-3,1.7-4.4,3.8
		c-1.4,2.1-1.9,3.9-1.5,5.4s1.2,2.6,2.4,3.4c1.2,0.8,2.4,1.1,3.6,0.9c1.2-0.2,2.3-0.8,3.2-1.8l-3.9-2.6l1.9-2.8l7.1,4.6l-6,9.1
		l-2.3-1.5l1-2.3c-1.2,0.4-2.2,0.5-3,0.5c-1.3,0-2.6-0.5-4-1.4c-2.2-1.5-3.6-3.5-4-6c-0.5-2.5,0.2-5.2,2-7.9c1.8-2.7,4-4.4,6.6-5.1
		c2.6-0.7,5.1-0.2,7.6,1.4c2.2,1.4,3.5,3.1,4.1,5c0.6,1.9,0.4,3.8-0.4,5.6L214.8,44.5z"/>
	<path class="st5" d="M240.5,60.1c0.3,0.8,0.4,1.5,0.3,2.4c-0.1,0.7-0.3,1.3-0.5,1.9c-0.3,0.6-0.7,1.2-1.3,1.7
		c-0.7,0.7-1.6,1.1-2.6,1.4c-1,0.3-2,0.1-3.1-0.4c0.4,0.9,0.4,1.8,0.2,2.5c-0.2,0.8-0.9,1.6-1.9,2.6l-1,0.9
		c-0.7,0.6-1.1,1.1-1.3,1.4c-0.3,0.4-0.4,0.9-0.3,1.4l-0.4,0.3l-3.2-3.4c0.2-0.4,0.4-0.7,0.6-0.9c0.3-0.5,0.7-0.9,1.2-1.3l1.4-1.3
		c0.9-0.9,1.4-1.6,1.4-2.3c0-0.6-0.4-1.3-1.2-2.2l-2.8-3l-5.8,5.4l-2.8-3l14.8-13.9l6.6,7.1C239.7,58.4,240.3,59.3,240.5,60.1z
		 M232.4,55.8l-4,3.7l3.1,3.3c0.6,0.7,1.2,1.1,1.6,1.3c0.8,0.3,1.7,0.1,2.5-0.7c0.9-0.8,1.2-1.7,1-2.5c-0.1-0.5-0.5-1-1.1-1.7
		L232.4,55.8z"/>
	<path class="st5" d="M255.5,87.5l-5.4-9.2l-3.7,2.2l5,8.5l-3,1.8l-5-8.5l-4.5,2.6l5.7,9.7l-3.1,1.8l-7.8-13.2l17.5-10.3l7.5,12.8
		L255.5,87.5z"/>
	<path class="st5" d="M265,112.8l-3.3-10.2l-4.1,1.3l3,9.4l-3.3,1.1l-3-9.4l-5,1.6l3.5,10.7l-3.5,1.1l-4.7-14.6l19.3-6.3l4.6,14.1
		L265,112.8z"/>
	<path class="st5" d="M271.1,124.3l0.4,4.4l-13.3,9.3l14.1-1.3l0.4,3.9l-20.2,1.8l-0.4-4.2l13.6-9.5l-14.3,1.3l-0.4-3.9L271.1,124.3
		z"/>
</g>
<g>
	<path class="st5" d="M97.9,250.6l-5.9-2.8l-1.1,2.4l5.4,2.6l-0.9,1.9l-5.4-2.6l-1.4,2.9l6.2,2.9l-1,2l-8.5-4l5.3-11.2l8.2,3.9
		L97.9,250.6z"/>
	<path class="st5" d="M102.8,259.3c-0.1,0.6-0.1,1,0.1,1.4c0.2,0.6,0.9,1.1,1.9,1.4c0.6,0.2,1.1,0.3,1.5,0.3c0.8,0,1.3-0.4,1.5-1
		c0.1-0.4,0.1-0.7-0.2-1.1c-0.3-0.3-0.8-0.7-1.5-1.1l-1.2-0.7c-1.2-0.7-1.9-1.3-2.3-1.7c-0.6-0.8-0.7-1.8-0.4-2.9
		c0.3-1.1,1-1.8,2-2.2c1-0.4,2.3-0.4,3.8,0.1c1.3,0.4,2.2,1.1,2.9,2c0.7,0.9,0.8,2.1,0.5,3.3l-2.4-0.8c0.2-0.7,0-1.3-0.5-1.8
		c-0.3-0.3-0.8-0.6-1.4-0.8c-0.6-0.2-1.2-0.3-1.7-0.1c-0.5,0.1-0.8,0.4-0.9,0.9c-0.1,0.4,0,0.8,0.3,1.1c0.2,0.2,0.7,0.6,1.4,1
		l1.9,1.2c0.8,0.5,1.4,1,1.8,1.5c0.5,0.8,0.6,1.7,0.3,2.7c-0.4,1.1-1.1,1.8-2.1,2.3c-1.1,0.4-2.4,0.4-3.9-0.1
		c-1.5-0.5-2.7-1.3-3.3-2.2c-0.7-1-0.8-2.1-0.4-3.3L102.8,259.3z"/>
	<path class="st5" d="M126.4,256.5l-0.4,2.2l-3.6-0.7l-2,10l-2.6-0.5l2-10l-3.7-0.7l0.4-2.2L126.4,256.5z"/>
	<path class="st5" d="M127.8,266.5l2.5,0.3l-0.3,2.5l-2.5-0.3L127.8,266.5z"/>
	<path class="st5" d="M162.5,266.4c0.2-0.9,0.8-1.8,1.9-3c0.9-1,1.6-1.7,1.8-2c0.4-0.6,0.5-1.2,0.4-1.9c-0.1-0.5-0.3-0.9-0.6-1.2
		c-0.3-0.3-0.8-0.4-1.3-0.3c-0.7,0.1-1.2,0.5-1.3,1.1c-0.1,0.3-0.1,0.8,0,1.5l-2.3,0.4c-0.1-1-0.1-1.9,0.1-2.6
		c0.4-1.3,1.4-2.1,3-2.4c1.3-0.2,2.3-0.1,3.2,0.5c0.9,0.6,1.4,1.4,1.6,2.6c0.2,0.9,0,1.7-0.4,2.5c-0.3,0.5-0.7,1.1-1.4,1.8l-0.8,0.8
		c-0.5,0.5-0.9,0.9-1.1,1.1c-0.2,0.2-0.3,0.5-0.4,0.7l5.2-0.9l0.4,2.1l-8.2,1.5C162.2,268,162.3,267.2,162.5,266.4z"/>
	<path class="st5" d="M180.2,253.8c0.9,0.9,1.6,2.3,2.2,4.2c0.6,1.9,0.7,3.5,0.4,4.7c-0.3,1.2-1.2,2-2.7,2.5
		c-1.5,0.4-2.7,0.2-3.6-0.6c-0.9-0.9-1.6-2.3-2.2-4.2c-0.6-1.9-0.7-3.5-0.4-4.7c0.3-1.2,1.2-2.1,2.7-2.5
		C178.1,252.7,179.3,252.9,180.2,253.8z M177.9,262.7c0.4,0.6,1,0.9,1.7,0.7s1-0.7,1-1.5c0-0.8-0.2-1.8-0.6-3.2
		c-0.4-1.4-0.8-2.4-1.2-3c-0.4-0.6-1-0.8-1.6-0.6c-0.7,0.2-1,0.7-1.1,1.4c0,0.7,0.2,1.8,0.6,3.2C177.1,261,177.5,262,177.9,262.7z"
		/>
	<path class="st5" d="M188.9,259.5c0-0.9,0.4-2,1.2-3.3c0.7-1.2,1.2-1.9,1.3-2.4c0.3-0.7,0.3-1.3,0-1.9c-0.2-0.5-0.5-0.8-0.9-1
		c-0.4-0.2-0.8-0.2-1.3,0c-0.7,0.3-1,0.7-1.1,1.3c0,0.3,0.1,0.8,0.3,1.5l-2.1,0.9c-0.4-1-0.5-1.8-0.4-2.5c0.1-1.4,0.9-2.4,2.4-3
		c1.2-0.5,2.3-0.6,3.3-0.2c1,0.4,1.7,1.1,2.1,2.2c0.3,0.8,0.4,1.7,0.2,2.5c-0.1,0.6-0.5,1.3-1,2.1l-0.6,1c-0.4,0.6-0.7,1.1-0.8,1.3
		c-0.1,0.3-0.2,0.5-0.3,0.8l4.9-2l0.8,1.9l-7.7,3.2C189,261.1,188.8,260.3,188.9,259.5z"/>
	<path class="st5" d="M203.5,243.4c1.1,0.7,2.1,1.9,3.1,3.6c1,1.8,1.4,3.3,1.4,4.5c0,1.3-0.7,2.3-2.1,3c-1.4,0.7-2.6,0.8-3.6,0.1
		c-1.1-0.7-2.1-1.9-3.1-3.6c-1-1.8-1.4-3.3-1.4-4.5c0-1.3,0.7-2.3,2.1-3C201.2,242.8,202.4,242.7,203.5,243.4z M203.2,252.5
		c0.6,0.5,1.2,0.6,1.8,0.3c0.6-0.3,0.9-0.9,0.7-1.7c-0.2-0.8-0.6-1.7-1.3-3c-0.7-1.3-1.3-2.2-1.9-2.7c-0.5-0.5-1.1-0.6-1.7-0.3
		c-0.6,0.3-0.9,0.9-0.7,1.6c0.1,0.7,0.6,1.7,1.3,3C202,251.1,202.6,252,203.2,252.5z"/>
</g>
<defs>
	<filter id="Adobe_OpacityMaskFilter_1_" filterUnits="userSpaceOnUse" x="-0.5" y="-0.5" width="289" height="289">
		<feFlood  style="flood-color:white;flood-opacity:1" result="back"/>
		<feBlend  in="SourceGraphic" in2="back" mode="normal"/>
	</filter>
</defs>
<mask maskUnits="userSpaceOnUse" x="-0.5" y="-0.5" width="289" height="289" id="XMLID_2_">
	<g class="st6">
		
			<image style="overflow:visible;" width="4680" height="6000" xlink:href="75FA73585B3CBECE.png"  transform="matrix(0.2 0 0 0.2 -171.0565 -137.7748)">
		</image>
	</g>
</mask>
<g id="XMLID_8_" class="st7">
	<g>
		<path class="st5" d="M144,0c79.5,0,144,64.5,144,144c0,79.5-64.5,144-144,144C64.5,288,0,223.5,0,144C0,64.5,64.5,0,144,0z
			 M281.1,144C281.1,68.3,219.7,6.9,144,6.9S6.9,68.3,6.9,144S68.3,281.1,144,281.1S281.1,219.7,281.1,144z"/>
	</g>
	<g>
		<circle class="st8" cx="144" cy="144" r="144"/>
		<circle class="st8" cx="144" cy="144" r="137.1"/>
	</g>
</g>
<path class="st8" d="M137.1,264.2c4,1.2,14,1.4,16.4,0.4"/>
</svg>
