<?xml version="1.0" encoding="utf-8"?>
<!-- Generator: Adobe Illustrator 24.1.0, SVG Export Plug-In . SVG Version: 6.00 Build 0)  -->
<svg version="1.1" id="Layer_1" xmlns="http://www.w3.org/2000/svg" xmlns:xlink="http://www.w3.org/1999/xlink" x="0px" y="0px"
	 viewBox="0 0 2000 2000" style="enable-background:new 0 0 2000 2000;" xml:space="preserve">
<style type="text/css">
	.st0{fill:#F8982D;}
	.st1{clip-path:url(#SVGID_2_);}
	.st2{fill:#FFFFFF;}
	.st3{filter:url(#Adobe_OpacityMaskFilter);}
	.st4{clip-path:url(#SVGID_2_);mask:url(#SVGID_3_);}
	.st5{fill:#005236;}
	.st6{fill:none;stroke:#005236;stroke-width:0.25;stroke-linecap:round;stroke-linejoin:bevel;stroke-miterlimit:10;}
	.st7{fill:none;stroke:#000000;stroke-width:0.25;stroke-miterlimit:10;}
</style>
<g>
	<g>
		<g>
			<circle class="st0" cx="1000" cy="1000" r="634.9"/>
		</g>
		<g>
			<defs>
				<circle id="SVGID_1_" cx="1000" cy="1000" r="634.8"/>
			</defs>
			<clipPath id="SVGID_2_">
				<use xlink:href="#SVGID_1_"  style="overflow:visible;"/>
			</clipPath>
			<g class="st1">
				<polygon class="st2" points="137.8,1459.2 172.4,1409 208.3,1376.6 257.1,1340.1 276.8,1296.2 317.2,1287.1 381,1269.4 
					423.2,1234 452.3,1170.1 485.1,1156.5 491.7,1129.3 506,1108.5 551.7,1081.7 579.9,1091.2 610.8,1054.9 655.9,1028 
					668.1,1001.2 691.5,1001.2 723.4,947.6 741.3,938.9 753.7,920.8 783.5,920.8 805.1,920.8 816.2,904.7 832.3,904.7 863.2,883.1 
					884.8,834.1 916.7,777 928.9,777 936.4,796.1 957.5,765.5 985.2,702.2 1000.2,645.1 1043.4,571.6 1058.4,530.8 1105.3,480.5 
					1142.8,502.3 1163.9,532.9 1226.3,661.4 1258.2,694 1267.6,719.9 1278.9,719.9 1302.8,754.6 1336.1,786.5 1348.3,826 
					1373.6,845 1397.1,879 1430.8,934.8 1442.1,969.8 1460.9,969.8 1473.2,987.7 1493.7,987.7 1506.9,1006.8 1521.9,1023.2 
					1539.7,1023.2 1549.1,1009.6 1564.1,1020.5 1586.6,1081.7 1622.7,1134 1630.7,1168.7 1673.9,1231.3 1693.6,1269.4 
					1731.6,1324.5 1789.3,1413.6 1836.2,1465.3 1861.5,1485.7 1894.3,1518.3 1900,1546.9 1913.1,1565.9 137.8,1576.2 				"/>
			</g>
			<g class="st1">
				<polygon class="st2" points="-7.9,1920.6 30.4,1864.2 70.3,1827.8 124.3,1786.9 146.1,1737.5 190.8,1727.3 261.4,1707.4 
					308.2,1667.8 340.4,1596 376.7,1580.7 384,1550.2 399.9,1526.8 450.5,1496.7 481.7,1507.4 515.9,1466.6 565.8,1436.5 
					579.3,1406.4 605.3,1406.4 640.6,1346.2 660.3,1336.4 674.1,1316.1 707.1,1316.1 731,1316.1 743.3,1298 761.1,1298 
					795.4,1273.8 819.3,1218.8 854.6,1154.7 868.1,1154.7 876.4,1176 899.8,1141.7 930.4,1070.7 947.1,1006.5 994.9,924.1 
					1011.5,878.3 1063.4,821.8 1105,846.2 1128.4,880.5 1197.4,1024.9 1232.8,1061.5 1243.2,1090.5 1255.6,1090.5 1282.1,1129.5 
					1319,1165.4 1332.5,1209.6 1360.5,1231 1386.5,1269.2 1423.9,1331.8 1436.4,1371.2 1457.2,1371.2 1470.8,1391.2 1493.5,1391.2 
					1508.1,1412.7 1524.7,1431.1 1544.4,1431.1 1554.8,1415.8 1571.4,1428 1596.4,1496.7 1636.4,1555.5 1645.2,1594.5 1693,1664.7 
					1714.8,1707.5 1756.9,1769.3 1820.8,1869.4 1872.7,1927.4 1900.8,1950.3 1937.1,1986.9 1943.4,2019 1957.9,2040.4 -7.9,2051.9 
									"/>
			</g>
			<defs>
				<filter id="Adobe_OpacityMaskFilter" filterUnits="userSpaceOnUse" x="362.1" y="888.3" width="1301" height="1096.8">
					<feFlood  style="flood-color:white;flood-opacity:1" result="back"/>
					<feBlend  in="SourceGraphic" in2="back" mode="normal"/>
				</filter>
			</defs>
			<mask maskUnits="userSpaceOnUse" x="362.1" y="888.3" width="1301" height="1096.8" id="SVGID_3_">
				<g class="st3">
					<g transform="matrix(1 0 0 1 0 0)" class="st1">
						
							<image style="overflow:visible;" width="4680" height="6000" xlink:href="../../50 Free Distressed Textures Shutterstock/Transparent PNG/Distressed Texture_16.png"  transform="matrix(1.214 0 0 1.1416 -404.4146 -1627.1613)">
						</image>
					</g>
				</g>
			</mask>
			<g class="st4">
				<g>
					<path class="st5" d="M1087.9,888.3v19.8l-5.6,6.6l5.6,6.6l-10.6,6v8h10.6v15.5l-7.9,9.4v16l-10.5,2.5l-6.5,7.7l15.4,4
						l-11.2,13.3l14.9,7.7v13l-19.1-12.4l-11.2,7.4l14.9,17.6l-5.2,6.2h16.5v9l-17.3,8h-16.2l-2.6,11.1l14.1,10.5v15.5l-8.4,9.9
						l-18.3-7.4l-11.5-4.9v9.9l14.9,17.6h13.3v12.1h-12.5l-15.7-6.8v11.1l7.8,9.3l6.5,7.7h-9.7h-11.5l-11.5-5.3v8.7l9.1,10.8
						l14.9,9.6v7.4h-7.8l-9.4-6.8l-13.1-4.9l-7.3-8.7l-9.4,6.8c0,0,2.6,9.9,6.3,13.6c3.7,3.7,9.9,11.1,11.2,12.7
						c1.3,1.5,1.3,11.4,1.3,11.4l2.1,8c0,0,4.7-3.1,6.8-2.5s9.4,2.5,9.4,2.5s1,6.2-1,6.2s-6.8,0-8.9,0s-14.1-8-17.8-9.3
						s-17.8-5.6-17.8-5.6h-5.8c0,0-3.7,4.9-3.1,6.8c0.5,1.9,5.2,11.7,5.2,11.7s3.1-3.1,6.3,0c3.1,3.1,17.3,11.7,17.3,11.7l12,7.4
						l-6.8,14.8l18.8,7.1c0,0-3.7,6.5-7.3,7.2c-3.7,0.6,5.8,0-11.5,0s-5.8,4.9-22.5,0.3c-16.7-4.6-20.4-4.6-20.4-4.6
						s-9.4-13.1-6.3-2.8c3.1,10.2,7.3,15.2,7.3,15.2s-3.1,16.1,11.5,21c14.6,4.9,12,3.7,18.3,5.6c6.3,1.9,13.1,4.9,13.1,4.9
						l-5.2,4.3h-13.6c0,0-11,1.2-15.2,0c-4.2-1.2,3.1,13.6-0.5,14.2s-9.4-0.6-12,0c-2.6,0.6-2.6,0.6-2.6,0.6s-4.4,0.6-1.7,5.6
						s-5.4-4.6,2.7,4.9c8.1,9.6,16.2,11.1,16.2,13s5.8,3.1,0,4.9c-5.8,1.9,3.7,1.9-5.8,1.9s-19.9,0-19.9,0s-9.4,13-13.6,9.3
						c-4.2-3.7-5.8-7.4-5.8-7.4s-4.2,10.5-4.2,12.4s-3.1,8,6.3,9.3c9.4,1.2,19.9,6.2,19.9,6.2l6.8,2.5l-5.2,6.8
						c13.1,6.2,12,5.6,16.2,6.2c4.2,0.6,17.3,3.1,17.3,3.1c-6.8,3.7-13.1,6.2-15.2,8s-2.6,4.9-6.8,4.9c-4.2,0-11.5-2.5-14.1-3.1
						c-2.6-0.6-1-0.6-6.3-1.2c-5.2-0.6-5.8-0.6-10.5-0.6c-4.7,0-8.9,0.6-8.9,0.6l-8.4,7.4l15.7,6.2c0,0,9.4,1.2,12.5,3.1
						c3.1,1.9,3.1,8.7,3.1,8.7c-34.5,0-42.9,0-42.9,0l-3.7,8.7c0,0-2.1,3.1,5.2,6.2c7.3,3.1,12.5,4.9,17.8,6.2
						c5.2,1.2,4.7,7.4,4.7,7.4l-3.7,6.2c0,0-12.5-2.5,5.8,0s19.3,1.2,23.5-3.7c4.2-4.9-13.6-4.3,9.9-3.7c23.5,0.6,38.1,3.1,36,3.1
						s-16.7,5.6-16.7,5.6l-18.3,4.9l-11.5,5.6h-7.3l-11,8c0,0-22.5,8-20.9,9.3c1.6,1.2-6.3,6.2,17.8,9.3c24,3.1,29.8,4.3,31.4,3.7
						s6.3,1.5,15.7,0.2s13.6,0.5,13.6,0.5s0,11.1,0,5.6s-8.9,4.3-8.9,4.3h-7.8l-18.3-3.1c0,0-9.4-1.9-11-1.2s-6.8,4.3-6.8,4.3v6.8
						c0,0,8.4,14.2,11.5,14.8c3.1,0.6,8.4,1.2,14.1,2.5c5.8,1.2,5.8,1.2,5.8,1.2l-9.4,6.8h-10.5c0,0-11.5,0-15.2,0s-8.9,0-8.9,0
						h-13.1c-5.8,6.2-12.5,10.5-9.4,11.7c3.1,1.2-5.2-1.9,6.3,4.3c11.5,6.2,23,11.1,27.7,11.1c4.7,0,13.6,0,13.6,0s0-3.7,14.6,0
						c14.6,3.7,11,4.3,22.5,8c11.5,3.7,10.5,9.9,19.9,2.5c9.4-7.4,0-7.4,9.4-7.4c9.4,0,2.1,8,19.9,1.9c17.8-6.2,26.7-9.9,26.7-9.9
						s6.3-2.5,11-4.9c4.7-2.5,5.8-2.5,7.8-3.1s5.8-8,6.3,0c0.5,8-1,19.8-1.6,22.9c-0.5,3.1-0.5,29.1-0.5,29.1v13.6l-3.1,39.3
						l-6.8,28.7l64.3,8l-10.5-50.1l-9.4-45.1l-6.8-26.6l0.5-27.2h5.2c0,0,1,6.8,6,7.1c5,0.3,15.4,5.3,19.1,5.3
						c3.7,0,12,4.3,14.1,6.8c2.1,2.5,7.8,2.5,7.8,2.5s7.8-11.1,9.4-9.3c1.6,1.9,7.3,12.4,13.6,14.2c6.3,1.9,4.7,10.5,20.4,8
						c15.7-2.5,20.4,0.6,21.4-4.9s0.8-5.3,7.6-13.3s3.9-0.9,12.8-8.3s8.9-3.1,8.9-7.4c0-4.3,3.7-12.4-4.7-11.1
						c-8.4,1.2-8.9,1.9-13.6,2.5s-5.2,0.6-15.2,0.6s-13.9-4.6-13.9-4.6l-2.4-9.6c-4.7-5.6-2.6-9.9,0-11.1s3.7-1.2,12-1.2
						c8.4,0-1,0,8.4,0c9.4,0,18.8,0.6,19.9-1.2s-6.3-1.9,1-1.9c7.3,0-1.6,3.7,7.3,0c8.9-3.7,11.5,5.6,14.1-3.7
						c2.6-9.3,6-13.3,6-13.3l-9.1-4.6l-25.1-3.7l-5.8-0.6c0,0,0,1.9-7.3-4.9c-7.3-6.8-7.3-6.8-7.3-6.8s-7.8-8.7-5.8-10.5
						c2.1-1.9,5.2-1.9,5.2-1.9s6.3,0,7.8,0c1.6,0,19.3-0.6,19.3-0.6c0-9.9,0.5-10.5-4.2-11.7s-13.6-11.7-13.6-11.7
						c6.8,0,27.7,0,27.7,0l20.4-8.7v-9.9c0,0-19.3,0-20.9,0c-1.6,0-13.6-0.6-17.3-3.1c-3.7-2.5-20.9-11.7-20.9-11.7l-9.9-2.5
						l-17.8-11.1c0,0,3.1-6.8,5.2-6.2s13.1,2.5,17.8,1.9c4.7-0.6,8.9-0.6,8.9-0.6l20.9-13.6c0,0-3.1,3.1,6.8,0.6
						c9.9-2.5,14.6-2.5,14.6-2.5s3.1-6.2,1.6-8.7c-1.6-2.5-8.4-6.8-10.5-7.4s-15.7-0.6-15.7-0.6s-4.2,0-16.7-2.5
						c-12.5-2.5-36.1-5.6-36.1-5.6s-10.5-3.7-5.2-6.2c5.2-2.5,13.6-0.6,17.8,0c4.2,0.6,0.3,5.3,4.2,0.6c3.9-4.6,2.4-6.5,1-8
						s-4.4,2.2-1.3-1.5c3.1-3.7,6.5-7.7,6.5-7.7l5.2-3.7c0,0,2.1-4.9-4.4-5.3c-6.5-0.3-17-4-17-4l-11-3.7c0,0,1.6-7.4,3.1-8
						c1.6-0.6,10.5,1.9,15.7-1.2c5.2-3.1,8.4-5.6,8.4-5.6s7.8-9.3,4.2-10.8c-3.7-1.5,2.6,9-14.1,0s-27.7-7.1-25.1-13.3
						c2.6-6.2,4.2-11.7,4.2-11.7l1.6-10.9l1-8.9l-17.8-0.6l-15.2-15.5c0,0,1.6-3.1,6.3-3.7c4.7-0.6,20.9-5.6,20.9-5.6
						s5.8-6.2,7.8-15.5s8.9-9.3-2.6-9.3s-16.2,0.6-16.2,0.6s-25.1,8.7-18.8-2.5c6.3-11.1,15.7-13.6,22-14.2c6.3-0.6,9.4,0,12.5-6.8
						c3.1-6.8,3.1-6.8,3.1-6.8s-8.9,0-16.2-0.6c-7.3-0.6-6.3-0.6-14.1-0.6s-13.6-0.6-13.6-0.6s3.7-8.7,6.8-9.3s12.5-4.3,12.5-4.3
						l8.9-12.4c-9.9,0,4.2,5.6-13.6,0c-17.8-5.6-17.8-5.6-17.8-5.6s-4.2-2.5-3.7-4.9c0.5-2.5,13.6-8.7,13.6-8.7s3.1,3.1,5.8-2.5
						c2.6-5.6-1-1.2,2.6-5.6c3.7-4.3,6.3-6.8,4.7-7.4c-1.6-0.6-16.2-0.6-16.2-0.6s-2.1-0.6-5.8-1.9c-3.7-1.2-9.4-4.3-8.9-8.7
						c0.5-4.3,7.3-5.6,9.4-6.2c2.1-0.6,14.1-7.4,14.1-7.4s4.2-8,2.1-8.7s-3.7,0-11.5,0s-15.2,0-15.2,0c0-5.6-3.1-3.7-0.5-9.3
						c2.6-5.6-7.3,2.5,2.6-5.6s9.9-8,9.9-8l1-6.8l-17.3-1.2c0,0,3.1-1.9,0-6.8s-3.1,3.7-3.1-4.9s0-8.7,0-8.7l17.3-13
						c0,0-11-4.3-13.6-4.3c-2.6,0-9.4,1.2-10.5-3.7c-1-4.9-6.5-7.1-1-9.3c5.5-2.2,8.9-1.9,9.4-4.3c0.5-2.5,0-3.1-3.1-6.8
						s-3.1-2.5-3.1-6.8c0-4.3,0-11.1,0-11.1l-5.8-1.9c0,0-2.1-6.2-2.1-14.2s-1-6.8,2.9-11.4c3.9-4.6,3.9-5.9,3.9-9.6
						s-7.8-9.3-7.8-9.3s-3.4-4.9-2.5-10.5c0.9-5.6,0.9,0.6,0.9-5.6c0-6.2-4.2-19.8-4.2-19.8L1087.9,888.3z"/>
				</g>
				<g>
					<path class="st5" d="M1298.4,1009v13.4l-6,4.5l6,4.5l-11.4,4v5.4h11.4v10.4l-8.5,6.3v10.8l-11.3,1.7l-7,5.2l16.5,2.7l-12,9
						l15.9,5.2v8.8l-20.4-8.4l-12,5l15.9,11.9l-5.6,4.2h17.6v6.1l-18.4,5.4h-17.3l-2.8,7.5l15.1,7.1v10.4l-8.9,6.7l-19.5-5
						l-12.3-3.3v6.7l15.9,11.9h14.2v8.1h-13.4l-16.7-4.6v7.5l8.4,6.3l7,5.2h-10.3h-12.3l-12.3-3.6v5.9l9.8,7.3l15.9,6.5v5h-8.4
						l-10-4.6l-14-3.3l-7.8-5.9l-10,4.6c0,0,2.8,6.7,6.7,9.2c3.9,2.5,10.6,7.5,12,8.6c1.4,1,1.4,7.7,1.4,7.7l2.2,5.4
						c0,0,5-2.1,7.3-1.7c2.2,0.4,10,1.7,10,1.7s1.1,4.2-1.1,4.2c-2.2,0-7.3,0-9.5,0c-2.2,0-15.1-5.4-19-6.3c-3.9-0.8-19-3.8-19-3.8
						h-6.1c0,0-3.9,3.3-3.3,4.6c0.6,1.3,5.6,7.9,5.6,7.9s3.3-2.1,6.7,0c3.3,2.1,18.4,7.9,18.4,7.9l12.8,5l-7.3,10l20.1,4.8
						c0,0-3.9,4.4-7.8,4.8c-3.9,0.4,6.1,0-12.3,0s-6.1,3.3-24,0.2c-17.9-3.1-21.8-3.1-21.8-3.1s-10-8.8-6.7-1.9s7.8,10.3,7.8,10.3
						s-3.3,10.9,12.3,14.2c15.6,3.3,12.8,2.5,19.5,3.8c6.7,1.3,14,3.3,14,3.3l-5.6,2.9h-14.5c0,0-11.7,0.8-16.2,0
						c-4.5-0.8,3.3,9.2-0.6,9.6c-3.9,0.4-10-0.4-12.8,0c-2.8,0.4-2.8,0.4-2.8,0.4s-4.7,0.4-1.8,3.8c2.9,3.3-5.7-3.1,2.9,3.3
						c8.7,6.5,17.3,7.5,17.3,8.8c0,1.3,6.1,2.1,0,3.3c-6.1,1.3,3.9,1.3-6.1,1.3c-10,0-21.2,0-21.2,0s-10,8.8-14.5,6.3
						c-4.5-2.5-6.1-5-6.1-5s-4.5,7.1-4.5,8.4s-3.3,5.4,6.7,6.3c10,0.8,21.2,4.2,21.2,4.2l7.3,1.7l-5.6,4.6c14,4.2,12.8,3.8,17.3,4.2
						c4.5,0.4,18.4,2.1,18.4,2.1c-7.3,2.5-14,4.2-16.2,5.4c-2.2,1.3-2.8,3.3-7.3,3.3c-4.5,0-12.3-1.7-15.1-2.1
						c-2.8-0.4-1.1-0.4-6.7-0.8c-5.6-0.4-6.1-0.4-11.2-0.4s-9.5,0.4-9.5,0.4l-9,5l16.7,4.2c0,0,10,0.8,13.4,2.1
						c3.3,1.3,3.3,5.9,3.3,5.9c-36.8,0-45.8,0-45.8,0l-3.9,5.9c0,0-2.2,2.1,5.6,4.2c7.8,2.1,13.4,3.3,19,4.2c5.6,0.8,5,5,5,5
						l-3.9,4.2c0,0-13.4-1.7,6.1,0c19.5,1.7,20.6,0.8,25.1-2.5c4.5-3.3-14.5-2.9,10.6-2.5c25.1,0.4,40.6,2.1,38.5,2.1
						c-2.2,0-17.8,3.8-17.8,3.8l-19.5,3.3l-12.3,3.8h-7.8l-11.7,5.4c0,0-24,5.4-22.3,6.3c1.7,0.8-6.7,4.2,19,6.3
						c25.7,2.1,31.8,2.9,33.5,2.5c1.7-0.4,6.7,1,16.7,0.1c10-0.9,14.5,0.3,14.5,0.3s0,7.5,0,3.8c0-3.8-9.5,2.9-9.5,2.9h-8.4
						l-19.5-2.1c0,0-10-1.3-11.7-0.8c-1.7,0.4-7.3,2.9-7.3,2.9v4.6c0,0,8.9,9.6,12.3,10c3.3,0.4,8.9,0.8,15.1,1.7s6.1,0.8,6.1,0.8
						l-10,4.6h-11.2c0,0-12.3,0-16.2,0c-3.9,0-9.5,0-9.5,0h-14c-6.1,4.2-13.4,7.1-10,7.9c3.3,0.8-5.6-1.3,6.7,2.9
						c12.3,4.2,24.6,7.5,29.6,7.5s14.5,0,14.5,0s0-2.5,15.6,0c15.6,2.5,11.7,2.9,24,5.4s11.2,6.7,21.2,1.7c10-5,0-5,10-5
						c10,0,2.2,5.4,21.2,1.3c19-4.2,28.5-6.7,28.5-6.7s6.7-1.7,11.7-3.3c5-1.7,6.1-1.7,8.4-2.1s6.1-5.4,6.7,0
						c0.6,5.4-1.1,13.4-1.7,15.5s-0.6,19.6-0.6,19.6v9.2l-3.3,26.6l-7.3,19.4l68.6,5.4l-11.2-33.8l-10-30.5l-7.3-18l0.6-18.4h5.6
						c0,0,1.1,4.6,6.4,4.8c5.3,0.2,16.5,3.6,20.4,3.6c3.9,0,12.8,2.9,15.1,4.6c2.2,1.7,8.4,1.7,8.4,1.7s8.4-7.5,10-6.3
						s7.8,8.4,14.5,9.6s5,7.1,21.8,5.4s21.8,0.4,22.9-3.3c1.1-3.8,0.8-3.6,8.1-9c7.3-5.4,4.2-0.6,13.7-5.6c9.5-5,9.5-2.1,9.5-5
						s3.9-8.4-5-7.5c-8.9,0.8-9.5,1.3-14.5,1.7s-5.6,0.4-16.2,0.4s-14.8-3.1-14.8-3.1l-2.5-6.5c-5-3.8-2.8-6.7,0-7.5
						c2.8-0.8,3.9-0.8,12.8-0.8c8.9,0-1.1,0,8.9,0c10,0,20.1,0.4,21.2-0.8c1.1-1.3-6.7-1.3,1.1-1.3c7.8,0-1.7,2.5,7.8,0
						c9.5-2.5,12.3,3.8,15.1-2.5c2.8-6.3,6.4-9,6.4-9l-9.8-3.1l-26.8-2.5l-6.1-0.4c0,0,0,1.3-7.8-3.3s-7.8-4.6-7.8-4.6
						s-8.4-5.9-6.1-7.1c2.2-1.3,5.6-1.3,5.6-1.3s6.7,0,8.4,0s20.6-0.4,20.6-0.4c0-6.7,0.6-7.1-4.5-7.9c-5-0.8-14.5-7.9-14.5-7.9
						c7.3,0,29.6,0,29.6,0l21.8-5.9v-6.7c0,0-20.6,0-22.3,0s-14.5-0.4-18.4-2.1s-22.3-7.9-22.3-7.9l-10.6-1.7l-19-7.5
						c0,0,3.3-4.6,5.6-4.2c2.2,0.4,14,1.7,19,1.3c5-0.4,9.5-0.4,9.5-0.4l22.3-9.2c0,0-3.3,2.1,7.3,0.4s15.6-1.7,15.6-1.7
						s3.3-4.2,1.7-5.9s-8.9-4.6-11.2-5c-2.2-0.4-16.7-0.4-16.7-0.4s-4.5,0-17.9-1.7s-38.5-3.8-38.5-3.8s-11.2-2.5-5.6-4.2
						s14.5-0.4,19,0s0.3,3.6,4.5,0.4c4.2-3.1,2.5-4.4,1.1-5.4c-1.4-1-4.7,1.5-1.4-1c3.3-2.5,7-5.2,7-5.2l5.6-2.5
						c0,0,2.2-3.3-4.7-3.6s-18.1-2.7-18.1-2.7l-11.7-2.5c0,0,1.7-5,3.3-5.4c1.7-0.4,11.2,1.3,16.7-0.8s8.9-3.8,8.9-3.8
						s8.4-6.3,4.5-7.3c-3.9-1,2.8,6.1-15.1,0c-17.9-6.1-29.6-4.8-26.8-9c2.8-4.2,4.5-7.9,4.5-7.9l1.7-7.3l1.1-6l-19-0.4l-16.2-10.4
						c0,0,1.7-2.1,6.7-2.5c5-0.4,22.3-3.8,22.3-3.8s6.1-4.2,8.4-10.4c2.2-6.3,9.5-6.3-2.8-6.3s-17.3,0.4-17.3,0.4
						s-26.8,5.9-20.1-1.7c6.7-7.5,16.7-9.2,23.4-9.6c6.7-0.4,10,0,13.4-4.6c3.3-4.6,3.3-4.6,3.3-4.6s-9.5,0-17.3-0.4
						c-7.8-0.4-6.7-0.4-15.1-0.4c-8.4,0-14.5-0.4-14.5-0.4s3.9-5.9,7.3-6.3c3.3-0.4,13.4-2.9,13.4-2.9l9.5-8.4
						c-10.6,0,4.5,3.8-14.5,0c-19-3.8-19-3.8-19-3.8s-4.5-1.7-3.9-3.3s14.5-5.9,14.5-5.9s3.3,2.1,6.1-1.7c2.8-3.8-1.1-0.8,2.8-3.8
						c3.9-2.9,6.7-4.6,5-5s-17.3-0.4-17.3-0.4s-2.2-0.4-6.1-1.3c-3.9-0.8-10-2.9-9.5-5.9s7.8-3.8,10-4.2c2.2-0.4,15.1-5,15.1-5
						s4.5-5.4,2.2-5.9c-2.2-0.4-3.9,0-12.3,0c-8.4,0-16.2,0-16.2,0c0-3.8-3.3-2.5-0.6-6.3c2.8-3.8-7.8,1.7,2.8-3.8
						c10.6-5.4,10.6-5.4,10.6-5.4l1.1-4.6l-18.4-0.8c0,0,3.3-1.3,0-4.6c-3.3-3.3-3.3,2.5-3.3-3.3c0-5.9,0-5.9,0-5.9l18.4-8.8
						c0,0-11.7-2.9-14.5-2.9c-2.8,0-10,0.8-11.2-2.5c-1.1-3.3-7-4.8-1.1-6.3c5.9-1.5,9.5-1.3,10-2.9c0.6-1.7,0-2.1-3.3-4.6
						c-3.3-2.5-3.3-1.7-3.3-4.6c0-2.9,0-7.5,0-7.5l-6.1-1.3c0,0-2.2-4.2-2.2-9.6c0-5.4-1.1-4.6,3.1-7.7c4.2-3.1,4.2-4,4.2-6.5
						c0-2.5-8.4-6.3-8.4-6.3s-3.6-3.3-2.7-7.1c1-3.8,1,0.4,1-3.8c0-4.2-4.5-13.4-4.5-13.4L1298.4,1009z"/>
				</g>
				<g>
					<path class="st5" d="M1279.1,1274.8v13.4l-6,4.5l6,4.5l-11.4,4v5.4h11.4v10.4l-8.5,6.3v10.8l-11.3,1.7l-7,5.2l16.5,2.7l-12,9
						l15.9,5.2v8.8l-20.4-8.4l-12,5l15.9,11.9l-5.6,4.2h17.6v6.1l-18.4,5.4h-17.3l-2.8,7.5l15.1,7.1v10.4l-8.9,6.7l-19.5-5
						l-12.3-3.3v6.7l15.9,11.9h14.2v8.1h-13.4l-16.7-4.6v7.5l8.4,6.3l7,5.2h-10.3h-12.3l-12.3-3.6v5.9l9.8,7.3l15.9,6.5v5h-8.4
						l-10-4.6l-14-3.3l-7.8-5.9l-10,4.6c0,0,2.8,6.7,6.7,9.2c3.9,2.5,10.6,7.5,12,8.6c1.4,1,1.4,7.7,1.4,7.7l2.2,5.4
						c0,0,5-2.1,7.3-1.7c2.2,0.4,10,1.7,10,1.7s1.1,4.2-1.1,4.2c-2.2,0-7.3,0-9.5,0c-2.2,0-15.1-5.4-19-6.3c-3.9-0.8-19-3.8-19-3.8
						h-6.1c0,0-3.9,3.3-3.3,4.6s5.6,7.9,5.6,7.9s3.3-2.1,6.7,0c3.3,2.1,18.4,7.9,18.4,7.9l12.8,5l-7.3,10l20.1,4.8
						c0,0-3.9,4.4-7.8,4.8s6.1,0-12.3,0s-6.1,3.3-24,0.2c-17.9-3.1-21.8-3.1-21.8-3.1s-10-8.8-6.7-1.9s7.8,10.3,7.8,10.3
						s-3.3,10.9,12.3,14.2c15.6,3.3,12.8,2.5,19.5,3.8c6.7,1.3,14,3.3,14,3.3l-5.6,2.9h-14.5c0,0-11.7,0.8-16.2,0
						c-4.5-0.8,3.3,9.2-0.6,9.6s-10-0.4-12.8,0c-2.8,0.4-2.8,0.4-2.8,0.4s-4.7,0.4-1.8,3.8c2.9,3.3-5.7-3.1,2.9,3.3
						c8.7,6.5,17.3,7.5,17.3,8.8c0,1.3,6.1,2.1,0,3.3s3.9,1.3-6.1,1.3c-10,0-21.2,0-21.2,0s-10,8.8-14.5,6.3c-4.5-2.5-6.1-5-6.1-5
						s-4.5,7.1-4.5,8.4s-3.3,5.4,6.7,6.3c10,0.8,21.2,4.2,21.2,4.2l7.3,1.7l-5.6,4.6c14,4.2,12.8,3.8,17.3,4.2
						c4.5,0.4,18.4,2.1,18.4,2.1c-7.3,2.5-14,4.2-16.2,5.4c-2.2,1.3-2.8,3.3-7.3,3.3c-4.5,0-12.3-1.7-15.1-2.1s-1.1-0.4-6.7-0.8
						c-5.6-0.4-6.1-0.4-11.2-0.4s-9.5,0.4-9.5,0.4l-9,5l16.7,4.2c0,0,10,0.8,13.4,2.1s3.3,5.9,3.3,5.9c-36.8,0-45.8,0-45.8,0
						l-3.9,5.9c0,0-2.2,2.1,5.6,4.2c7.8,2.1,13.4,3.3,19,4.2c5.6,0.8,5,5,5,5l-3.9,4.2c0,0-13.4-1.7,6.1,0
						c19.5,1.7,20.6,0.8,25.1-2.5c4.5-3.3-14.5-2.9,10.6-2.5c25.1,0.4,40.6,2.1,38.5,2.1c-2.2,0-17.8,3.8-17.8,3.8l-19.5,3.3
						l-12.3,3.8h-7.8l-11.7,5.4c0,0-24,5.4-22.3,6.3c1.7,0.8-6.7,4.2,19,6.3s31.8,2.9,33.5,2.5c1.7-0.4,6.7,1,16.7,0.1
						c10-0.9,14.5,0.3,14.5,0.3s0,7.5,0,3.8c0-3.8-9.5,2.9-9.5,2.9h-8.4l-19.5-2.1c0,0-10-1.3-11.7-0.8c-1.7,0.4-7.3,2.9-7.3,2.9
						v4.6c0,0,8.9,9.6,12.3,10c3.3,0.4,8.9,0.8,15.1,1.7s6.1,0.8,6.1,0.8l-10,4.6h-11.2c0,0-12.3,0-16.2,0c-3.9,0-9.5,0-9.5,0h-14
						c-6.1,4.2-13.4,7.1-10,7.9c3.3,0.8-5.6-1.3,6.7,2.9c12.3,4.2,24.6,7.5,29.6,7.5s14.5,0,14.5,0s0-2.5,15.6,0
						c15.6,2.5,11.7,2.9,24,5.4c12.3,2.5,11.2,6.7,21.2,1.7c10-5,0-5,10-5c10,0,2.2,5.4,21.2,1.3s28.5-6.7,28.5-6.7
						s6.7-1.7,11.7-3.3s6.1-1.7,8.4-2.1s6.1-5.4,6.7,0c0.6,5.4-1.1,13.4-1.7,15.5s-0.6,19.6-0.6,19.6v9.2l-3.3,26.6l-7.3,19.4
						l68.6,5.4l-11.2-33.8l-10-30.5l-7.3-18l0.6-18.4h5.6c0,0,1.1,4.6,6.4,4.8c5.3,0.2,16.5,3.6,20.4,3.6c3.9,0,12.8,2.9,15.1,4.6
						c2.2,1.7,8.4,1.7,8.4,1.7s8.4-7.5,10-6.3s7.8,8.4,14.5,9.6c6.7,1.3,5,7.1,21.8,5.4s21.8,0.4,22.9-3.3c1.1-3.8,0.8-3.6,8.1-9
						c7.3-5.4,4.2-0.6,13.7-5.6c9.5-5,9.5-2.1,9.5-5s3.9-8.4-5-7.5c-8.9,0.8-9.5,1.3-14.5,1.7s-5.6,0.4-16.2,0.4s-14.8-3.1-14.8-3.1
						l-2.5-6.5c-5-3.8-2.8-6.7,0-7.5c2.8-0.8,3.9-0.8,12.8-0.8c8.9,0-1.1,0,8.9,0s20.1,0.4,21.2-0.8c1.1-1.3-6.7-1.3,1.1-1.3
						c7.8,0-1.7,2.5,7.8,0c9.5-2.5,12.3,3.8,15.1-2.5c2.8-6.3,6.4-9,6.4-9l-9.8-3.1l-26.8-2.5l-6.1-0.4c0,0,0,1.3-7.8-3.3
						s-7.8-4.6-7.8-4.6s-8.4-5.9-6.1-7.1c2.2-1.3,5.6-1.3,5.6-1.3s6.7,0,8.4,0s20.6-0.4,20.6-0.4c0-6.7,0.6-7.1-4.5-7.9
						c-5-0.8-14.5-7.9-14.5-7.9c7.3,0,29.6,0,29.6,0l21.8-5.9v-6.7c0,0-20.6,0-22.3,0s-14.5-0.4-18.4-2.1s-22.3-7.9-22.3-7.9
						l-10.6-1.7l-19-7.5c0,0,3.3-4.6,5.6-4.2c2.2,0.4,14,1.7,19,1.3c5-0.4,9.5-0.4,9.5-0.4l22.3-9.2c0,0-3.3,2.1,7.3,0.4
						s15.6-1.7,15.6-1.7s3.3-4.2,1.7-5.9s-8.9-4.6-11.2-5c-2.2-0.4-16.7-0.4-16.7-0.4s-4.5,0-17.9-1.7c-13.4-1.7-38.5-3.8-38.5-3.8
						s-11.2-2.5-5.6-4.2s14.5-0.4,19,0s0.3,3.6,4.5,0.4c4.2-3.1,2.5-4.4,1.1-5.4s-4.7,1.5-1.4-1c3.3-2.5,7-5.2,7-5.2l5.6-2.5
						c0,0,2.2-3.3-4.7-3.6c-7-0.2-18.1-2.7-18.1-2.7l-11.7-2.5c0,0,1.7-5,3.3-5.4c1.7-0.4,11.2,1.3,16.7-0.8
						c5.6-2.1,8.9-3.8,8.9-3.8s8.4-6.3,4.5-7.3c-3.9-1,2.8,6.1-15.1,0c-17.9-6.1-29.6-4.8-26.8-9c2.8-4.2,4.5-7.9,4.5-7.9l1.7-7.3
						l1.1-6l-19-0.4l-16.2-10.4c0,0,1.7-2.1,6.7-2.5c5-0.4,22.3-3.8,22.3-3.8s6.1-4.2,8.4-10.4c2.2-6.3,9.5-6.3-2.8-6.3
						s-17.3,0.4-17.3,0.4s-26.8,5.9-20.1-1.7c6.7-7.5,16.7-9.2,23.4-9.6c6.7-0.4,10,0,13.4-4.6c3.3-4.6,3.3-4.6,3.3-4.6
						s-9.5,0-17.3-0.4c-7.8-0.4-6.7-0.4-15.1-0.4c-8.4,0-14.5-0.4-14.5-0.4s3.9-5.9,7.3-6.3c3.3-0.4,13.4-2.9,13.4-2.9l9.5-8.4
						c-10.6,0,4.5,3.8-14.5,0c-19-3.8-19-3.8-19-3.8s-4.5-1.7-3.9-3.3s14.5-5.9,14.5-5.9s3.3,2.1,6.1-1.7c2.8-3.8-1.1-0.8,2.8-3.8
						c3.9-2.9,6.7-4.6,5-5c-1.7-0.4-17.3-0.4-17.3-0.4s-2.2-0.4-6.1-1.3c-3.9-0.8-10-2.9-9.5-5.9c0.6-2.9,7.8-3.8,10-4.2
						c2.2-0.4,15.1-5,15.1-5s4.5-5.4,2.2-5.9c-2.2-0.4-3.9,0-12.3,0s-16.2,0-16.2,0c0-3.8-3.3-2.5-0.6-6.3c2.8-3.8-7.8,1.7,2.8-3.8
						c10.6-5.4,10.6-5.4,10.6-5.4l1.1-4.6l-18.4-0.8c0,0,3.3-1.3,0-4.6c-3.3-3.3-3.3,2.5-3.3-3.3s0-5.9,0-5.9l18.4-8.8
						c0,0-11.7-2.9-14.5-2.9c-2.8,0-10,0.8-11.2-2.5c-1.1-3.3-7-4.8-1.1-6.3c5.9-1.5,9.5-1.3,10-2.9c0.6-1.7,0-2.1-3.3-4.6
						c-3.3-2.5-3.3-1.7-3.3-4.6c0-2.9,0-7.5,0-7.5l-6.1-1.3c0,0-2.2-4.2-2.2-9.6c0-5.4-1.1-4.6,3.1-7.7c4.2-3.1,4.2-4,4.2-6.5
						c0-2.5-8.4-6.3-8.4-6.3s-3.6-3.3-2.7-7.1c1-3.8,1,0.4,1-3.8s-4.5-13.4-4.5-13.4L1279.1,1274.8z"/>
				</g>
				<g>
					<path class="st5" d="M962,1420.5v13.4l-6,4.5l6,4.5l-11.4,4v5.4H962v10.4l-8.5,6.3v10.8l-11.3,1.7l-7,5.2l16.5,2.7l-12,9
						l15.9,5.2v8.8l-20.4-8.4l-12,5l15.9,11.9l-5.6,4.2h17.6v6.1l-18.4,5.4h-17.3l-2.8,7.5l15.1,7.1v10.4l-8.9,6.7l-19.5-5
						l-12.3-3.3v6.7l15.9,11.9h14.2v8.1h-13.4l-16.7-4.6v7.5l8.4,6.3l7,5.2h-10.3h-12.3l-12.3-3.6v5.9l9.8,7.3l15.9,6.5v5h-8.4
						l-10-4.6l-14-3.3l-7.8-5.9l-10,4.6c0,0,2.8,6.7,6.7,9.2c3.9,2.5,10.6,7.5,12,8.6c1.4,1,1.4,7.7,1.4,7.7l2.2,5.4
						c0,0,5-2.1,7.3-1.7s10,1.7,10,1.7s1.1,4.2-1.1,4.2s-7.3,0-9.5,0c-2.2,0-15.1-5.4-19-6.3c-3.9-0.8-19-3.8-19-3.8h-6.1
						c0,0-3.9,3.3-3.3,4.6c0.6,1.3,5.6,7.9,5.6,7.9s3.3-2.1,6.7,0c3.3,2.1,18.4,7.9,18.4,7.9l12.8,5l-7.3,10l20.1,4.8
						c0,0-3.9,4.4-7.8,4.8s6.1,0-12.3,0s-6.1,3.3-24,0.2c-17.9-3.1-21.8-3.1-21.8-3.1s-10-8.8-6.7-1.9c3.3,6.9,7.8,10.3,7.8,10.3
						s-3.3,10.9,12.3,14.2s12.8,2.5,19.5,3.8c6.7,1.3,14,3.3,14,3.3l-5.6,2.9h-14.5c0,0-11.7,0.8-16.2,0c-4.5-0.8,3.3,9.2-0.6,9.6
						c-3.9,0.4-10-0.4-12.8,0c-2.8,0.4-2.8,0.4-2.8,0.4s-4.7,0.4-1.8,3.8s-5.7-3.1,2.9,3.3c8.7,6.5,17.3,7.5,17.3,8.8s6.1,2.1,0,3.3
						c-6.1,1.3,3.9,1.3-6.1,1.3c-10,0-21.2,0-21.2,0s-10,8.8-14.5,6.3c-4.5-2.5-6.1-5-6.1-5s-4.5,7.1-4.5,8.4c0,1.3-3.3,5.4,6.7,6.3
						c10,0.8,21.2,4.2,21.2,4.2l7.3,1.7l-5.6,4.6c14,4.2,12.8,3.8,17.3,4.2c4.5,0.4,18.4,2.1,18.4,2.1c-7.3,2.5-14,4.2-16.2,5.4
						s-2.8,3.3-7.3,3.3c-4.5,0-12.3-1.7-15.1-2.1s-1.1-0.4-6.7-0.8c-5.6-0.4-6.1-0.4-11.2-0.4c-5,0-9.5,0.4-9.5,0.4l-9,5l16.7,4.2
						c0,0,10,0.8,13.4,2.1s3.3,5.9,3.3,5.9c-36.8,0-45.8,0-45.8,0l-3.9,5.9c0,0-2.2,2.1,5.6,4.2c7.8,2.1,13.4,3.3,19,4.2
						c5.6,0.8,5,5,5,5l-3.9,4.2c0,0-13.4-1.7,6.1,0c19.5,1.7,20.6,0.8,25.1-2.5c4.5-3.3-14.5-2.9,10.6-2.5
						c25.1,0.4,40.6,2.1,38.5,2.1c-2.2,0-17.8,3.8-17.8,3.8l-19.5,3.3l-12.3,3.8h-7.8l-11.7,5.4c0,0-24,5.4-22.3,6.3
						c1.7,0.8-6.7,4.2,19,6.3c25.7,2.1,31.8,2.9,33.5,2.5c1.7-0.4,6.7,1,16.7,0.1c10-0.9,14.5,0.3,14.5,0.3s0,7.5,0,3.8
						c0-3.8-9.5,2.9-9.5,2.9h-8.4l-19.5-2.1c0,0-10-1.3-11.7-0.8c-1.7,0.4-7.3,2.9-7.3,2.9v4.6c0,0,8.9,9.6,12.3,10
						c3.3,0.4,8.9,0.8,15.1,1.7c6.1,0.8,6.1,0.8,6.1,0.8l-10,4.6h-11.2c0,0-12.3,0-16.2,0c-3.9,0-9.5,0-9.5,0h-14
						c-6.1,4.2-13.4,7.1-10,7.9c3.3,0.8-5.6-1.3,6.7,2.9c12.3,4.2,24.6,7.5,29.6,7.5c5,0,14.5,0,14.5,0s0-2.5,15.6,0
						c15.6,2.5,11.7,2.9,24,5.4c12.3,2.5,11.2,6.7,21.2,1.7c10-5,0-5,10-5s2.2,5.4,21.2,1.3c19-4.2,28.5-6.7,28.5-6.7
						s6.7-1.7,11.7-3.3c5-1.7,6.1-1.7,8.4-2.1c2.2-0.4,6.1-5.4,6.7,0c0.6,5.4-1.1,13.4-1.7,15.5c-0.6,2.1-0.6,19.6-0.6,19.6v9.2
						l-3.3,26.6l-7.3,19.4l68.6,5.4l-11.2-33.8l-10-30.5l-7.3-18l0.6-18.4h5.6c0,0,1.1,4.6,6.4,4.8s16.5,3.6,20.4,3.6
						s12.8,2.9,15.1,4.6s8.4,1.7,8.4,1.7s8.4-7.5,10-6.3s7.8,8.4,14.5,9.6c6.7,1.3,5,7.1,21.8,5.4c16.7-1.7,21.8,0.4,22.9-3.3
						c1.1-3.8,0.8-3.6,8.1-9c7.3-5.4,4.2-0.6,13.7-5.6c9.5-5,9.5-2.1,9.5-5c0-2.9,3.9-8.4-5-7.5c-8.9,0.8-9.5,1.3-14.5,1.7
						c-5,0.4-5.6,0.4-16.2,0.4s-14.8-3.1-14.8-3.1l-2.5-6.5c-5-3.8-2.8-6.7,0-7.5c2.8-0.8,3.9-0.8,12.8-0.8c8.9,0-1.1,0,8.9,0
						s20.1,0.4,21.2-0.8c1.1-1.3-6.7-1.3,1.1-1.3c7.8,0-1.7,2.5,7.8,0c9.5-2.5,12.3,3.8,15.1-2.5c2.8-6.3,6.4-9,6.4-9l-9.8-3.1
						l-26.8-2.5l-6.1-0.4c0,0,0,1.3-7.8-3.3c-7.8-4.6-7.8-4.6-7.8-4.6s-8.4-5.9-6.1-7.1c2.2-1.3,5.6-1.3,5.6-1.3s6.7,0,8.4,0
						s20.6-0.4,20.6-0.4c0-6.7,0.6-7.1-4.5-7.9c-5-0.8-14.5-7.9-14.5-7.9c7.3,0,29.6,0,29.6,0l21.8-5.9v-6.7c0,0-20.6,0-22.3,0
						c-1.7,0-14.5-0.4-18.4-2.1c-3.9-1.7-22.3-7.9-22.3-7.9l-10.6-1.7l-19-7.5c0,0,3.3-4.6,5.6-4.2c2.2,0.4,14,1.7,19,1.3
						c5-0.4,9.5-0.4,9.5-0.4l22.3-9.2c0,0-3.3,2.1,7.3,0.4s15.6-1.7,15.6-1.7s3.3-4.2,1.7-5.9c-1.7-1.7-8.9-4.6-11.2-5
						c-2.2-0.4-16.7-0.4-16.7-0.4s-4.5,0-17.9-1.7c-13.4-1.7-38.5-3.8-38.5-3.8s-11.2-2.5-5.6-4.2s14.5-0.4,19,0
						c4.5,0.4,0.3,3.6,4.5,0.4c4.2-3.1,2.5-4.4,1.1-5.4c-1.4-1-4.7,1.5-1.4-1c3.3-2.5,7-5.2,7-5.2l5.6-2.5c0,0,2.2-3.3-4.7-3.6
						c-7-0.2-18.1-2.7-18.1-2.7l-11.7-2.5c0,0,1.7-5,3.3-5.4c1.7-0.4,11.2,1.3,16.7-0.8c5.6-2.1,8.9-3.8,8.9-3.8s8.4-6.3,4.5-7.3
						s2.8,6.1-15.1,0c-17.9-6.1-29.6-4.8-26.8-9c2.8-4.2,4.5-7.9,4.5-7.9l1.7-7.3l1.1-6l-19-0.4l-16.2-10.4c0,0,1.7-2.1,6.7-2.5
						s22.3-3.8,22.3-3.8s6.1-4.2,8.4-10.4c2.2-6.3,9.5-6.3-2.8-6.3s-17.3,0.4-17.3,0.4s-26.8,5.9-20.1-1.7
						c6.7-7.5,16.7-9.2,23.4-9.6c6.7-0.4,10,0,13.4-4.6c3.3-4.6,3.3-4.6,3.3-4.6s-9.5,0-17.3-0.4c-7.8-0.4-6.7-0.4-15.1-0.4
						c-8.4,0-14.5-0.4-14.5-0.4s3.9-5.9,7.3-6.3c3.3-0.4,13.4-2.9,13.4-2.9l9.5-8.4c-10.6,0,4.5,3.8-14.5,0c-19-3.8-19-3.8-19-3.8
						s-4.5-1.7-3.9-3.3c0.6-1.7,14.5-5.9,14.5-5.9s3.3,2.1,6.1-1.7c2.8-3.8-1.1-0.8,2.8-3.8c3.9-2.9,6.7-4.6,5-5s-17.3-0.4-17.3-0.4
						s-2.2-0.4-6.1-1.3c-3.9-0.8-10-2.9-9.5-5.9s7.8-3.8,10-4.2c2.2-0.4,15.1-5,15.1-5s4.5-5.4,2.2-5.9c-2.2-0.4-3.9,0-12.3,0
						c-8.4,0-16.2,0-16.2,0c0-3.8-3.3-2.5-0.6-6.3c2.8-3.8-7.8,1.7,2.8-3.8c10.6-5.4,10.6-5.4,10.6-5.4l1.1-4.6l-18.4-0.8
						c0,0,3.3-1.3,0-4.6c-3.3-3.3-3.3,2.5-3.3-3.3c0-5.9,0-5.9,0-5.9l18.4-8.8c0,0-11.7-2.9-14.5-2.9c-2.8,0-10,0.8-11.2-2.5
						c-1.1-3.3-7-4.8-1.1-6.3c5.9-1.5,9.5-1.3,10-2.9s0-2.1-3.3-4.6c-3.3-2.5-3.3-1.7-3.3-4.6s0-7.5,0-7.5l-6.1-1.3
						c0,0-2.2-4.2-2.2-9.6c0-5.4-1.1-4.6,3.1-7.7c4.2-3.1,4.2-4,4.2-6.5s-8.4-6.3-8.4-6.3s-3.6-3.3-2.7-7.1c1-3.8,1,0.4,1-3.8
						c0-4.2-4.5-13.4-4.5-13.4L962,1420.5z"/>
				</g>
				<g>
					<path class="st5" d="M1093.7,1232.6v14.2l-6,4.7l6,4.7l-11.4,4.3v5.8h11.4v11.1l-8.5,6.7v11.4l-11.3,1.8l-7,5.5l16.5,2.9
						l-12,9.5l15.9,5.5v9.3l-20.4-8.9l-12,5.3l15.9,12.6l-5.6,4.4h17.6v6.4l-18.4,5.8h-17.3l-2.8,8l15.1,7.5v11.1l-8.9,7.1
						l-19.5-5.3l-12.3-3.5v7.1l15.9,12.6h14.2v8.6h-13.4l-16.7-4.9v8l8.4,6.6l7,5.5h-10.3h-12.3l-12.3-3.8v6.2l9.8,7.7l15.9,6.9v5.3
						h-8.4l-10-4.9l-14-3.5l-7.8-6.2l-10,4.9c0,0,2.8,7.1,6.7,9.7c3.9,2.7,10.6,8,12,9.1c1.4,1.1,1.4,8.2,1.4,8.2l2.2,5.8
						c0,0,5-2.2,7.3-1.8c2.2,0.4,10,1.8,10,1.8s1.1,4.4-1.1,4.4s-7.3,0-9.5,0s-15.1-5.8-19-6.6c-3.9-0.9-19-4-19-4h-6.1
						c0,0-3.9,3.5-3.3,4.9s5.6,8.4,5.6,8.4s3.3-2.2,6.7,0c3.3,2.2,18.4,8.4,18.4,8.4l12.8,5.3l-7.3,10.6l20.1,5.1
						c0,0-3.9,4.7-7.8,5.1c-3.9,0.4,6.1,0-12.3,0s-6.1,3.5-24,0.2c-17.9-3.3-21.8-3.3-21.8-3.3s-10-9.4-6.7-2
						c3.3,7.3,7.8,10.9,7.8,10.9s-3.3,11.5,12.3,15.1c15.6,3.5,12.8,2.7,19.5,4c6.7,1.3,14,3.5,14,3.5l-5.6,3.1h-14.5
						c0,0-11.7,0.9-16.2,0c-4.5-0.9,3.3,9.7-0.6,10.2s-10-0.4-12.8,0s-2.8,0.4-2.8,0.4s-4.7,0.4-1.8,4c2.9,3.5-5.7-3.3,2.9,3.5
						c8.7,6.9,17.3,8,17.3,9.3s6.1,2.2,0,3.5s3.9,1.3-6.1,1.3s-21.2,0-21.2,0s-10,9.3-14.5,6.6c-4.5-2.7-6.1-5.3-6.1-5.3
						s-4.5,7.5-4.5,8.9s-3.3,5.8,6.7,6.6c10,0.9,21.2,4.4,21.2,4.4l7.3,1.8l-5.6,4.9c14,4.4,12.8,4,17.3,4.4
						c4.5,0.4,18.4,2.2,18.4,2.2c-7.3,2.7-14,4.4-16.2,5.8s-2.8,3.5-7.3,3.5c-4.5,0-12.3-1.8-15.1-2.2s-1.1-0.4-6.7-0.9
						c-5.6-0.4-6.1-0.4-11.2-0.4c-5,0-9.5,0.4-9.5,0.4l-9,5.3l16.7,4.4c0,0,10,0.9,13.4,2.2s3.3,6.2,3.3,6.2c-36.8,0-45.8,0-45.8,0
						l-3.9,6.2c0,0-2.2,2.2,5.6,4.4c7.8,2.2,13.4,3.5,19,4.4s5,5.3,5,5.3l-3.9,4.4c0,0-13.4-1.8,6.1,0c19.5,1.8,20.6,0.9,25.1-2.7
						c4.5-3.5-14.5-3.1,10.6-2.7c25.1,0.4,40.6,2.2,38.5,2.2s-17.8,4-17.8,4l-19.5,3.5l-12.3,4H930l-11.7,5.8c0,0-24,5.8-22.3,6.6
						c1.7,0.9-6.7,4.4,19,6.6c25.7,2.2,31.8,3.1,33.5,2.7c1.7-0.4,6.7,1.1,16.7,0.1c10-1,14.5,0.3,14.5,0.3s0,8,0,4
						s-9.5,3.1-9.5,3.1h-8.4l-19.5-2.2c0,0-10-1.3-11.7-0.9c-1.7,0.4-7.3,3.1-7.3,3.1v4.9c0,0,8.9,10.2,12.3,10.6
						c3.3,0.4,8.9,0.9,15.1,1.8c6.1,0.9,6.1,0.9,6.1,0.9l-10,4.9h-11.2c0,0-12.3,0-16.2,0c-3.9,0-9.5,0-9.5,0h-14
						c-6.1,4.4-13.4,7.5-10,8.4c3.3,0.9-5.6-1.3,6.7,3.1c12.3,4.4,24.6,8,29.6,8c5,0,14.5,0,14.5,0s0-2.7,15.6,0
						c15.6,2.7,11.7,3.1,24,5.8c12.3,2.7,11.2,7.1,21.2,1.8c10-5.3,0-5.3,10-5.3s2.2,5.8,21.2,1.3s28.5-7.1,28.5-7.1
						s6.7-1.8,11.7-3.5s6.1-1.8,8.4-2.2c2.2-0.4,6.1-5.8,6.7,0c0.6,5.8-1.1,14.2-1.7,16.4c-0.6,2.2-0.6,20.8-0.6,20.8v9.7l-3.3,28.2
						l-7.3,20.5l68.6,5.8l-11.2-35.9l-10-32.3l-7.3-19l0.6-19.5h5.6c0,0,1.1,4.9,6.4,5.1s16.5,3.8,20.4,3.8c3.9,0,12.8,3.1,15.1,4.9
						c2.2,1.8,8.4,1.8,8.4,1.8s8.4-8,10-6.6s7.8,8.9,14.5,10.2c6.7,1.3,5,7.5,21.8,5.8s21.8,0.4,22.9-3.5s0.8-3.8,8.1-9.5
						c7.3-5.8,4.2-0.7,13.7-6c9.5-5.3,9.5-2.2,9.5-5.3s3.9-8.9-5-8c-8.9,0.9-9.5,1.3-14.5,1.8c-5,0.4-5.6,0.4-16.2,0.4
						c-10.6,0-14.8-3.3-14.8-3.3l-2.5-6.9c-5-4-2.8-7.1,0-8c2.8-0.9,3.9-0.9,12.8-0.9c8.9,0-1.1,0,8.9,0s20.1,0.4,21.2-0.9
						c1.1-1.3-6.7-1.3,1.1-1.3c7.8,0-1.7,2.7,7.8,0s12.3,4,15.1-2.7c2.8-6.6,6.4-9.5,6.4-9.5l-9.8-3.3l-26.8-2.7l-6.1-0.4
						c0,0,0,1.3-7.8-3.5c-7.8-4.9-7.8-4.9-7.8-4.9s-8.4-6.2-6.1-7.5s5.6-1.3,5.6-1.3s6.7,0,8.4,0c1.7,0,20.6-0.4,20.6-0.4
						c0-7.1,0.6-7.5-4.5-8.4s-14.5-8.4-14.5-8.4c7.3,0,29.6,0,29.6,0l21.8-6.2v-7.1c0,0-20.6,0-22.3,0c-1.7,0-14.5-0.4-18.4-2.2
						c-3.9-1.8-22.3-8.4-22.3-8.4l-10.6-1.8l-19-8c0,0,3.3-4.9,5.6-4.4c2.2,0.4,14,1.8,19,1.3c5-0.4,9.5-0.4,9.5-0.4l22.3-9.7
						c0,0-3.3,2.2,7.3,0.4c10.6-1.8,15.6-1.8,15.6-1.8s3.3-4.4,1.7-6.2c-1.7-1.8-8.9-4.9-11.2-5.3c-2.2-0.4-16.7-0.4-16.7-0.4
						s-4.5,0-17.9-1.8c-13.4-1.8-38.5-4-38.5-4s-11.2-2.7-5.6-4.4c5.6-1.8,14.5-0.4,19,0c4.5,0.4,0.3,3.8,4.5,0.4s2.5-4.6,1.1-5.8
						c-1.4-1.1-4.7,1.5-1.4-1.1c3.3-2.7,7-5.5,7-5.5l5.6-2.7c0,0,2.2-3.5-4.7-3.8c-7-0.2-18.1-2.9-18.1-2.9l-11.7-2.7
						c0,0,1.7-5.3,3.3-5.8c1.7-0.4,11.2,1.3,16.7-0.9c5.6-2.2,8.9-4,8.9-4s8.4-6.6,4.5-7.7s2.8,6.4-15.1,0s-29.6-5.1-26.8-9.5
						c2.8-4.4,4.5-8.4,4.5-8.4l1.7-7.8l1.1-6.4l-19-0.4l-16.2-11.1c0,0,1.7-2.2,6.7-2.7c5-0.4,22.3-4,22.3-4s6.1-4.4,8.4-11.1
						c2.2-6.6,9.5-6.6-2.8-6.6s-17.3,0.4-17.3,0.4s-26.8,6.2-20.1-1.8s16.7-9.7,23.4-10.2c6.7-0.4,10,0,13.4-4.9
						c3.3-4.9,3.3-4.9,3.3-4.9s-9.5,0-17.3-0.4c-7.8-0.4-6.7-0.4-15.1-0.4s-14.5-0.4-14.5-0.4s3.9-6.2,7.3-6.6
						c3.3-0.4,13.4-3.1,13.4-3.1l9.5-8.9c-10.6,0,4.5,4-14.5,0s-19-4-19-4s-4.5-1.8-3.9-3.5c0.6-1.8,14.5-6.2,14.5-6.2
						s3.3,2.2,6.1-1.8c2.8-4-1.1-0.9,2.8-4c3.9-3.1,6.7-4.9,5-5.3c-1.7-0.4-17.3-0.4-17.3-0.4s-2.2-0.4-6.1-1.3
						c-3.9-0.9-10-3.1-9.5-6.2c0.6-3.1,7.8-4,10-4.4c2.2-0.4,15.1-5.3,15.1-5.3s4.5-5.8,2.2-6.2c-2.2-0.4-3.9,0-12.3,0
						c-8.4,0-16.2,0-16.2,0c0-4-3.3-2.7-0.6-6.6c2.8-4-7.8,1.8,2.8-4s10.6-5.8,10.6-5.8l1.1-4.9l-18.4-0.9c0,0,3.3-1.3,0-4.9
						c-3.3-3.5-3.3,2.7-3.3-3.5c0-6.2,0-6.2,0-6.2l18.4-9.3c0,0-11.7-3.1-14.5-3.1c-2.8,0-10,0.9-11.2-2.7c-1.1-3.5-7-5.1-1.1-6.6
						c5.9-1.5,9.5-1.3,10-3.1c0.6-1.8,0-2.2-3.3-4.9c-3.3-2.7-3.3-1.8-3.3-4.9c0-3.1,0-8,0-8l-6.1-1.3c0,0-2.2-4.4-2.2-10.2
						s-1.1-4.9,3.1-8.2c4.2-3.3,4.2-4.2,4.2-6.9s-8.4-6.6-8.4-6.6s-3.6-3.5-2.7-7.5c1-4,1,0.4,1-4c0-4.4-4.5-14.2-4.5-14.2
						L1093.7,1232.6z"/>
				</g>
				<g>
					<path class="st5" d="M900.5,1229.4v16.5l-5,5.5l5,5.5l-9.5,5v6.7h9.5v12.9l-7.1,7.8v13.3l-9.4,2.1l-5.8,6.4l13.8,3.3l-10,11.1
						l13.3,6.4v10.8l-17-10.3l-10,6.2l13.3,14.7l-4.7,5.2h14.7v7.5l-15.4,6.7h-14.5l-2.3,9.3l12.6,8.8v12.9l-7.5,8.2l-16.3-6.2
						l-10.3-4.1v8.2l13.3,14.7H863v10h-11.2l-14-5.7v9.3l7,7.7l5.8,6.4H842h-10.3l-10.3-4.4v7.2l8.2,9l13.3,8v6.2h-7l-8.4-5.7
						l-11.7-4.1l-6.5-7.2l-8.4,5.7c0,0,2.3,8.2,5.6,11.3c3.3,3.1,8.9,9.3,10,10.6s1.2,9.5,1.2,9.5l1.9,6.7c0,0,4.2-2.6,6.1-2.1
						c1.9,0.5,8.4,2.1,8.4,2.1s0.9,5.2-0.9,5.2s-6.1,0-7.9,0s-12.6-6.7-15.9-7.7c-3.3-1-15.9-4.6-15.9-4.6h-5.1c0,0-3.3,4.1-2.8,5.7
						c0.5,1.5,4.7,9.8,4.7,9.8s2.8-2.6,5.6,0s15.4,9.8,15.4,9.8l10.7,6.2l-6.1,12.4l16.8,5.9c0,0-3.3,5.4-6.5,6
						c-3.3,0.5,5.1,0-10.3,0c-15.4,0-5.1,4.1-20.1,0.2c-14.9-3.8-18.2-3.8-18.2-3.8s-8.4-10.9-5.6-2.4c2.8,8.5,6.5,12.7,6.5,12.7
						s-2.8,13.4,10.3,17.5c13.1,4.1,10.7,3.1,16.3,4.6c5.6,1.5,11.7,4.1,11.7,4.1l-4.7,3.6H800c0,0-9.8,1-13.5,0
						c-3.7-1,2.8,11.3-0.5,11.8c-3.3,0.5-8.4-0.5-10.7,0c-2.3,0.5-2.3,0.5-2.3,0.5s-3.9,0.5-1.5,4.6c2.4,4.1-4.8-3.9,2.4,4.1
						c7.2,8,14.5,9.3,14.5,10.8c0,1.5,5.1,2.6,0,4.1c-5.1,1.5,3.3,1.5-5.1,1.5s-17.7,0-17.7,0s-8.4,10.8-12.1,7.7s-5.1-6.2-5.1-6.2
						s-3.7,8.8-3.7,10.3s-2.8,6.7,5.6,7.7c8.4,1,17.7,5.2,17.7,5.2l6.1,2.1l-4.7,5.7c11.7,5.2,10.7,4.6,14.5,5.2
						c3.7,0.5,15.4,2.6,15.4,2.6c-6.1,3.1-11.7,5.2-13.5,6.7c-1.9,1.5-2.3,4.1-6.1,4.1s-10.3-2.1-12.6-2.6c-2.3-0.5-0.9-0.5-5.6-1
						c-4.7-0.5-5.1-0.5-9.3-0.5s-7.9,0.5-7.9,0.5l-7.5,6.2l14,5.2c0,0,8.4,1,11.2,2.6c2.8,1.5,2.8,7.2,2.8,7.2
						c-30.8,0-38.3,0-38.3,0l-3.3,7.2c0,0-1.9,2.6,4.7,5.2c6.5,2.6,11.2,4.1,15.9,5.2c4.7,1,4.2,6.2,4.2,6.2l-3.3,5.2
						c0,0-11.2-2.1,5.1,0s17.3,1,21-3.1c3.7-4.1-12.1-3.6,8.9-3.1c21,0.5,34,2.6,32.2,2.6s-14.9,4.6-14.9,4.6l-16.3,4.1l-10.3,4.6
						h-6.5l-9.8,6.7c0,0-20.1,6.7-18.7,7.7c1.4,1-5.6,5.2,15.9,7.7c21.5,2.6,26.6,3.6,28,3.1c1.4-0.5,5.6,1.3,14,0.1
						c8.4-1.2,12.1,0.4,12.1,0.4s0,9.3,0,4.6s-7.9,3.6-7.9,3.6h-7l-16.3-2.6c0,0-8.4-1.5-9.8-1s-6.1,3.6-6.1,3.6v5.7
						c0,0,7.5,11.8,10.3,12.4c2.8,0.5,7.5,1,12.6,2.1c5.1,1,5.1,1,5.1,1l-8.4,5.7h-9.3c0,0-10.3,0-13.5,0s-7.9,0-7.9,0h-11.7
						c-5.1,5.2-11.2,8.8-8.4,9.8c2.8,1-4.7-1.5,5.6,3.6c10.3,5.2,20.5,9.3,24.7,9.3s12.1,0,12.1,0s0-3.1,13.1,0
						c13.1,3.1,9.8,3.6,20.1,6.7c10.3,3.1,9.3,8.2,17.7,2.1c8.4-6.2,0-6.2,8.4-6.2s1.9,6.7,17.7,1.5c15.9-5.2,23.8-8.2,23.8-8.2
						s5.6-2.1,9.8-4.1c4.2-2.1,5.1-2.1,7-2.6s5.1-6.7,5.6,0s-0.9,16.5-1.4,19.1s-0.5,24.2-0.5,24.2v11.3l-2.8,32.8l-6.1,23.9
						l57.4,6.7l-9.3-41.7l-8.4-37.6l-6.1-22.1l0.5-22.7h4.7c0,0,0.9,5.7,5.4,5.9c4.4,0.3,13.8,4.4,17,4.4s10.7,3.6,12.6,5.7
						s7,2.1,7,2.1s7-9.3,8.4-7.7s6.5,10.3,12.1,11.8c5.6,1.5,4.2,8.8,18.2,6.7c14-2.1,18.2,0.5,19.1-4.1s0.7-4.4,6.8-11.1
						s3.5-0.8,11.4-7c7.9-6.2,7.9-2.6,7.9-6.2c0-3.6,3.3-10.3-4.2-9.3s-7.9,1.5-12.1,2.1s-4.7,0.5-13.5,0.5
						c-8.9,0-12.4-3.9-12.4-3.9l-2.1-8c-4.2-4.6-2.3-8.2,0-9.3c2.3-1,3.3-1,10.7-1s-0.9,0,7.5,0c8.4,0,16.8,0.5,17.7-1
						c0.9-1.5-5.6-1.5,0.9-1.5s-1.4,3.1,6.5,0s10.3,4.6,12.6-3.1c2.3-7.7,5.4-11.1,5.4-11.1l-8.2-3.9l-22.4-3.1l-5.1-0.5
						c0,0,0,1.5-6.5-4.1c-6.5-5.7-6.5-5.7-6.5-5.7s-7-7.2-5.1-8.8c1.9-1.5,4.7-1.5,4.7-1.5s5.6,0,7,0s17.3-0.5,17.3-0.5
						c0-8.2,0.5-8.8-3.7-9.8c-4.2-1-12.1-9.8-12.1-9.8c6.1,0,24.7,0,24.7,0l18.2-7.2v-8.2c0,0-17.3,0-18.7,0s-12.1-0.5-15.4-2.6
						s-18.7-9.8-18.7-9.8l-8.9-2.1l-15.9-9.3c0,0,2.8-5.7,4.7-5.2s11.7,2.1,15.9,1.5s7.9-0.5,7.9-0.5l18.7-11.3c0,0-2.8,2.6,6.1,0.5
						s13.1-2.1,13.1-2.1s2.8-5.2,1.4-7.2s-7.5-5.7-9.3-6.2c-1.9-0.5-14-0.5-14-0.5s-3.7,0-14.9-2.1c-11.2-2.1-32.2-4.6-32.2-4.6
						s-9.3-3.1-4.7-5.2c4.7-2.1,12.1-0.5,15.9,0c3.7,0.5,0.2,4.4,3.7,0.5c3.5-3.9,2.1-5.4,0.9-6.7s-4,1.8-1.2-1.3
						c2.8-3.1,5.8-6.4,5.8-6.4l4.7-3.1c0,0,1.9-4.1-4-4.4c-5.8-0.3-15.2-3.3-15.2-3.3l-9.8-3.1c0,0,1.4-6.2,2.8-6.7
						c1.4-0.5,9.3,1.5,14-1c4.7-2.6,7.5-4.6,7.5-4.6s7-7.7,3.7-9s2.3,7.5-12.6,0c-14.9-7.5-24.7-5.9-22.4-11.1s3.7-9.8,3.7-9.8
						l1.4-9l0.9-7.4l-15.9-0.5l-13.5-12.9c0,0,1.4-2.6,5.6-3.1c4.2-0.5,18.7-4.6,18.7-4.6s5.1-5.2,7-12.9s7.9-7.7-2.3-7.7
						s-14.5,0.5-14.5,0.5s-22.4,7.2-16.8-2.1s14-11.3,19.6-11.8s8.4,0,11.2-5.7s2.8-5.7,2.8-5.7s-7.9,0-14.5-0.5s-5.6-0.5-12.6-0.5
						c-7,0-12.1-0.5-12.1-0.5s3.3-7.2,6.1-7.7c2.8-0.5,11.2-3.6,11.2-3.6l7.9-10.3c-8.9,0,3.7,4.6-12.1,0
						c-15.9-4.6-15.9-4.6-15.9-4.6s-3.7-2.1-3.3-4.1s12.1-7.2,12.1-7.2s2.8,2.6,5.1-2.1c2.3-4.6-0.9-1,2.3-4.6
						c3.3-3.6,5.6-5.7,4.2-6.2c-1.4-0.5-14.5-0.5-14.5-0.5s-1.9-0.5-5.1-1.5c-3.3-1-8.4-3.6-7.9-7.2c0.5-3.6,6.5-4.6,8.4-5.2
						s12.6-6.2,12.6-6.2s3.7-6.7,1.9-7.2c-1.9-0.5-3.3,0-10.3,0s-13.5,0-13.5,0c0-4.6-2.8-3.1-0.5-7.7s-6.5,2.1,2.3-4.6
						c8.9-6.7,8.9-6.7,8.9-6.7l0.9-5.7l-15.4-1c0,0,2.8-1.5,0-5.7c-2.8-4.1-2.8,3.1-2.8-4.1s0-7.2,0-7.2l15.4-10.8
						c0,0-9.8-3.6-12.1-3.6s-8.4,1-9.3-3.1c-0.9-4.1-5.8-5.9-0.9-7.7c4.9-1.8,7.9-1.5,8.4-3.6s0-2.6-2.8-5.7
						c-2.8-3.1-2.8-2.1-2.8-5.7c0-3.6,0-9.3,0-9.3l-5.1-1.5c0,0-1.9-5.2-1.9-11.8s-0.9-5.7,2.6-9.5c3.5-3.9,3.5-4.9,3.5-8
						c0-3.1-7-7.7-7-7.7s-3-4.1-2.2-8.8s0.8,0.5,0.8-4.6s-3.7-16.5-3.7-16.5L900.5,1229.4z"/>
				</g>
				<g>
					<path class="st5" d="M747.1,1122.1v16.5l-6.3,5.5l6.3,5.5l-12,5v6.7h12v12.9l-9,7.8v13.3l-11.9,2.1l-7.4,6.4l17.4,3.3
						l-12.7,11.1l16.8,6.4v10.8l-21.6-10.3l-12.7,6.2l16.8,14.7l-5.9,5.2h18.6v7.5l-19.5,6.7h-18.3l-3,9.3l16,8.8v12.9l-9.5,8.2
						l-20.7-6.2l-13-4.1v8.2l16.8,14.7h15.1v10h-14.2l-17.7-5.7v9.3l8.9,7.7l7.4,6.4H673h-13l-13-4.4v7.2l10.3,9l16.8,8v6.2h-8.9
						l-10.6-5.7l-14.8-4.1l-8.3-7.2l-10.6,5.7c0,0,3,8.2,7.1,11.3c4.1,3.1,11.2,9.3,12.7,10.6s1.5,9.5,1.5,9.5l2.4,6.7
						c0,0,5.3-2.6,7.7-2.1c2.4,0.5,10.6,2.1,10.6,2.1s1.2,5.2-1.2,5.2s-7.7,0-10,0c-2.4,0-16-6.7-20.1-7.7c-4.1-1-20.1-4.6-20.1-4.6
						H605c0,0-4.1,4.1-3.5,5.7c0.6,1.5,5.9,9.8,5.9,9.8s3.5-2.6,7.1,0s19.5,9.8,19.5,9.8l13.6,6.2l-7.7,12.4l21.3,5.9
						c0,0-4.1,5.4-8.3,6c-4.1,0.5,6.5,0-13,0s-6.5,4.1-25.4,0.2c-18.9-3.8-23.1-3.8-23.1-3.8s-10.6-10.9-7.1-2.4
						c3.5,8.5,8.3,12.7,8.3,12.7s-3.5,13.4,13,17.5c16.6,4.1,13.6,3.1,20.7,4.6c7.1,1.5,14.8,4.1,14.8,4.1l-5.9,3.6h-15.4
						c0,0-12.4,1-17.1,0c-4.7-1,3.5,11.3-0.6,11.8c-4.1,0.5-10.6-0.5-13.6,0c-3,0.5-3,0.5-3,0.5s-5,0.5-1.9,4.6
						c3.1,4.1-6.1-3.9,3.1,4.1c9.2,8,18.3,9.3,18.3,10.8c0,1.5,6.5,2.6,0,4.1c-6.5,1.5,4.1,1.5-6.5,1.5s-22.5,0-22.5,0
						s-10.6,10.8-15.4,7.7c-4.7-3.1-6.5-6.2-6.5-6.2s-4.7,8.8-4.7,10.3c0,1.5-3.5,6.7,7.1,7.7s22.5,5.2,22.5,5.2l7.7,2.1l-5.9,5.7
						c14.8,5.2,13.6,4.6,18.3,5.2c4.7,0.5,19.5,2.6,19.5,2.6c-7.7,3.1-14.8,5.2-17.1,6.7c-2.4,1.5-3,4.1-7.7,4.1s-13-2.1-16-2.6
						c-3-0.5-1.2-0.5-7.1-1c-5.9-0.5-6.5-0.5-11.8-0.5s-10,0.5-10,0.5l-9.5,6.2l17.7,5.2c0,0,10.6,1,14.2,2.6
						c3.5,1.5,3.5,7.2,3.5,7.2c-39,0-48.5,0-48.5,0l-4.1,7.2c0,0-2.4,2.6,5.9,5.2c8.3,2.6,14.2,4.1,20.1,5.2c5.9,1,5.3,6.2,5.3,6.2
						l-4.1,5.2c0,0-14.2-2.1,6.5,0s21.9,1,26.6-3.1c4.7-4.1-15.4-3.6,11.2-3.1c26.6,0.5,43.1,2.6,40.7,2.6c-2.3,0-18.9,4.6-18.9,4.6
						l-20.7,4.1l-13,4.6h-8.3l-12.4,6.7c0,0-25.4,6.7-23.6,7.7c1.8,1-7.1,5.2,20.1,7.7s33.7,3.6,35.5,3.1c1.8-0.5,7.1,1.3,17.7,0.1
						c10.6-1.2,15.4,0.4,15.4,0.4s0,9.3,0,4.6c0-4.6-10,3.6-10,3.6h-8.9l-20.7-2.6c0,0-10.6-1.5-12.4-1s-7.7,3.6-7.7,3.6v5.7
						c0,0,9.5,11.8,13,12.4c3.5,0.5,9.5,1,16,2.1c6.5,1,6.5,1,6.5,1l-10.6,5.7h-11.8c0,0-13,0-17.1,0c-4.1,0-10,0-10,0h-14.8
						c-6.5,5.2-14.2,8.8-10.6,9.8c3.5,1-5.9-1.5,7.1,3.6s26,9.3,31.3,9.3s15.4,0,15.4,0s0-3.1,16.6,0c16.6,3.1,12.4,3.6,25.4,6.7
						c13,3.1,11.8,8.2,22.5,2.1c10.6-6.2,0-6.2,10.6-6.2s2.4,6.7,22.5,1.5c20.1-5.2,30.1-8.2,30.1-8.2s7.1-2.1,12.4-4.1
						s6.5-2.1,8.9-2.6s6.5-6.7,7.1,0s-1.2,16.5-1.8,19.1s-0.6,24.2-0.6,24.2v11.3l-3.5,32.8l-7.7,23.9l72.7,6.7l-11.8-41.7
						l-10.6-37.6l-7.7-22.1l0.6-22.7h5.9c0,0,1.2,5.7,6.8,5.9c5.6,0.3,17.4,4.4,21.6,4.4c4.1,0,13.6,3.6,16,5.7
						c2.4,2.1,8.9,2.1,8.9,2.1s8.9-9.3,10.6-7.7s8.3,10.3,15.4,11.8c7.1,1.5,5.3,8.8,23.1,6.7c17.7-2.1,23.1,0.5,24.2-4.1
						c1.2-4.6,0.9-4.4,8.6-11.1c7.7-6.7,4.4-0.8,14.5-7c10-6.2,10-2.6,10-6.2c0-3.6,4.1-10.3-5.3-9.3s-10,1.5-15.4,2.1
						s-5.9,0.5-17.1,0.5s-15.7-3.9-15.7-3.9l-2.7-8c-5.3-4.6-3-8.2,0-9.3c3-1,4.1-1,13.6-1s-1.2,0,9.5,0s21.3,0.5,22.5-1
						c1.2-1.5-7.1-1.5,1.2-1.5c8.3,0-1.8,3.1,8.3,0c10-3.1,13,4.6,16-3.1c3-7.7,6.8-11.1,6.8-11.1l-10.3-3.9l-28.4-3.1l-6.5-0.5
						c0,0,0,1.5-8.3-4.1c-8.3-5.7-8.3-5.7-8.3-5.7s-8.9-7.2-6.5-8.8c2.4-1.5,5.9-1.5,5.9-1.5s7.1,0,8.9,0s21.9-0.5,21.9-0.5
						c0-8.2,0.6-8.8-4.7-9.8c-5.3-1-15.4-9.8-15.4-9.8c7.7,0,31.3,0,31.3,0l23.1-7.2v-8.2c0,0-21.9,0-23.6,0s-15.4-0.5-19.5-2.6
						c-4.1-2.1-23.6-9.8-23.6-9.8l-11.2-2.1l-20.1-9.3c0,0,3.5-5.7,5.9-5.2s14.8,2.1,20.1,1.5c5.3-0.5,10-0.5,10-0.5l23.6-11.3
						c0,0-3.5,2.6,7.7,0.5c11.2-2.1,16.6-2.1,16.6-2.1s3.5-5.2,1.8-7.2s-9.5-5.7-11.8-6.2c-2.4-0.5-17.7-0.5-17.7-0.5
						s-4.7,0-18.9-2.1c-14.2-2.1-40.8-4.6-40.8-4.6s-11.8-3.1-5.9-5.2c5.9-2.1,15.4-0.5,20.1,0c4.7,0.5,0.3,4.4,4.7,0.5
						s2.7-5.4,1.2-6.7s-5,1.8-1.5-1.3s7.4-6.4,7.4-6.4l5.9-3.1c0,0,2.4-4.1-5-4.4c-7.4-0.3-19.2-3.3-19.2-3.3l-12.4-3.1
						c0,0,1.8-6.2,3.5-6.7c1.8-0.5,11.8,1.5,17.7-1s9.5-4.6,9.5-4.6s8.9-7.7,4.7-9s3,7.5-16,0c-18.9-7.5-31.3-5.9-28.4-11.1
						s4.7-9.8,4.7-9.8l1.8-9l1.2-7.4l-20.1-0.5l-17.1-12.9c0,0,1.8-2.6,7.1-3.1s23.6-4.6,23.6-4.6s6.5-5.2,8.9-12.9
						c2.4-7.7,10-7.7-3-7.7s-18.3,0.5-18.3,0.5s-28.4,7.2-21.3-2.1s17.7-11.3,24.8-11.8s10.6,0,14.2-5.7s3.5-5.7,3.5-5.7
						s-10,0-18.3-0.5c-8.3-0.5-7.1-0.5-16-0.5s-15.4-0.5-15.4-0.5s4.1-7.2,7.7-7.7c3.5-0.5,14.2-3.6,14.2-3.6l10-10.3
						c-11.2,0,4.7,4.6-15.4,0s-20.1-4.6-20.1-4.6s-4.7-2.1-4.1-4.1c0.6-2.1,15.4-7.2,15.4-7.2s3.5,2.6,6.5-2.1s-1.2-1,3-4.6
						c4.1-3.6,7.1-5.7,5.3-6.2s-18.3-0.5-18.3-0.5s-2.4-0.5-6.5-1.5c-4.1-1-10.6-3.6-10-7.2c0.6-3.6,8.3-4.6,10.6-5.2s16-6.2,16-6.2
						s4.7-6.7,2.4-7.2c-2.4-0.5-4.1,0-13,0s-17.1,0-17.1,0c0-4.6-3.5-3.1-0.6-7.7s-8.3,2.1,3-4.6c11.2-6.7,11.2-6.7,11.2-6.7
						l1.2-5.7l-19.5-1c0,0,3.5-1.5,0-5.7c-3.5-4.1-3.5,3.1-3.5-4.1s0-7.2,0-7.2l19.5-10.8c0,0-12.4-3.6-15.4-3.6s-10.6,1-11.8-3.1
						c-1.2-4.1-7.4-5.9-1.2-7.7c6.2-1.8,10-1.5,10.6-3.6c0.6-2.1,0-2.6-3.5-5.7c-3.5-3.1-3.5-2.1-3.5-5.7c0-3.6,0-9.3,0-9.3
						l-6.5-1.5c0,0-2.4-5.2-2.4-11.8s-1.2-5.7,3.3-9.5s4.4-4.9,4.4-8c0-3.1-8.9-7.7-8.9-7.7s-3.9-4.1-2.8-8.8s1,0.5,1-4.6
						s-4.7-16.5-4.7-16.5L747.1,1122.1z"/>
				</g>
				<g>
					<path class="st5" d="M587.3,1269.8v16.5l-6.3,5.5l6.3,5.5l-12,5v6.7h12v12.9l-9,7.8v13.3l-11.9,2.1l-7.4,6.4l17.4,3.3
						l-12.7,11.1l16.8,6.4v10.8l-21.6-10.3l-12.7,6.2l16.8,14.7l-5.9,5.2h18.6v7.5l-19.5,6.7H538l-3,9.3l16,8.8v12.9l-9.5,8.2
						l-20.7-6.2l-13-4.1v8.2l16.8,14.7h15.1v10h-14.2l-17.7-5.7v9.3l8.9,7.7l7.4,6.4h-10.9h-13l-13-4.4v7.2l10.3,9l16.8,8v6.2h-8.9
						l-10.6-5.7l-14.8-4.1l-8.3-7.2l-10.6,5.7c0,0,3,8.2,7.1,11.3c4.1,3.1,11.2,9.3,12.7,10.6c1.5,1.3,1.5,9.5,1.5,9.5l2.4,6.7
						c0,0,5.3-2.6,7.7-2.1c2.4,0.5,10.6,2.1,10.6,2.1s1.2,5.2-1.2,5.2c-2.4,0-7.7,0-10,0c-2.4,0-16-6.7-20.1-7.7
						c-4.1-1-20.1-4.6-20.1-4.6h-6.5c0,0-4.1,4.1-3.5,5.7c0.6,1.5,5.9,9.8,5.9,9.8s3.5-2.6,7.1,0s19.5,9.8,19.5,9.8l13.6,6.2
						l-7.7,12.4l21.3,5.9c0,0-4.1,5.4-8.3,6c-4.1,0.5,6.5,0-13,0c-19.5,0-6.5,4.1-25.4,0.2c-18.9-3.8-23.1-3.8-23.1-3.8
						s-10.6-10.9-7.1-2.4s8.3,12.7,8.3,12.7s-3.5,13.4,13,17.5c16.6,4.1,13.6,3.1,20.7,4.6c7.1,1.5,14.8,4.1,14.8,4.1l-5.9,3.6H460
						c0,0-12.4,1-17.1,0c-4.7-1,3.5,11.3-0.6,11.8c-4.1,0.5-10.6-0.5-13.6,0c-3,0.5-3,0.5-3,0.5s-5,0.5-1.9,4.6
						c3.1,4.1-6.1-3.9,3.1,4.1c9.2,8,18.3,9.3,18.3,10.8c0,1.5,6.5,2.6,0,4.1c-6.5,1.5,4.1,1.5-6.5,1.5s-22.5,0-22.5,0
						s-10.6,10.8-15.4,7.7c-4.7-3.1-6.5-6.2-6.5-6.2s-4.7,8.8-4.7,10.3s-3.5,6.7,7.1,7.7c10.6,1,22.5,5.2,22.5,5.2l7.7,2.1l-5.9,5.7
						c14.8,5.2,13.6,4.6,18.3,5.2c4.7,0.5,19.5,2.6,19.5,2.6c-7.7,3.1-14.8,5.2-17.1,6.7c-2.4,1.5-3,4.1-7.7,4.1s-13-2.1-16-2.6
						s-1.2-0.5-7.1-1c-5.9-0.5-6.5-0.5-11.8-0.5s-10,0.5-10,0.5l-9.5,6.2l17.7,5.2c0,0,10.6,1,14.2,2.6c3.5,1.5,3.5,7.2,3.5,7.2
						c-39,0-48.5,0-48.5,0l-4.1,7.2c0,0-2.4,2.6,5.9,5.2c8.3,2.6,14.2,4.1,20.1,5.2c5.9,1,5.3,6.2,5.3,6.2l-4.1,5.2
						c0,0-14.2-2.1,6.5,0s21.9,1,26.6-3.1c4.7-4.1-15.4-3.6,11.2-3.1s43.1,2.6,40.7,2.6c-2.3,0-18.9,4.6-18.9,4.6l-20.7,4.1l-13,4.6
						h-8.3l-12.4,6.7c0,0-25.4,6.7-23.6,7.7c1.8,1-7.1,5.2,20.1,7.7c27.2,2.6,33.7,3.6,35.5,3.1s7.1,1.3,17.7,0.1
						c10.6-1.2,15.4,0.4,15.4,0.4s0,9.3,0,4.6s-10,3.6-10,3.6h-8.9l-20.7-2.6c0,0-10.6-1.5-12.4-1s-7.7,3.6-7.7,3.6v5.7
						c0,0,9.5,11.8,13,12.4s9.5,1,16,2.1c6.5,1,6.5,1,6.5,1l-10.6,5.7h-11.8c0,0-13,0-17.1,0s-10,0-10,0h-14.8
						c-6.5,5.2-14.2,8.8-10.6,9.8c3.5,1-5.9-1.5,7.1,3.6c13,5.2,26,9.3,31.3,9.3s15.4,0,15.4,0s0-3.1,16.6,0
						c16.6,3.1,12.4,3.6,25.4,6.7c13,3.1,11.8,8.2,22.5,2.1c10.6-6.2,0-6.2,10.6-6.2s2.4,6.7,22.5,1.5c20.1-5.2,30.1-8.2,30.1-8.2
						s7.1-2.1,12.4-4.1c5.3-2.1,6.5-2.1,8.9-2.6c2.4-0.5,6.5-6.7,7.1,0c0.6,6.7-1.2,16.5-1.8,19.1s-0.6,24.2-0.6,24.2v11.3
						l-3.5,32.8l-7.7,23.9l72.7,6.7l-11.8-41.7l-10.6-37.6l-7.7-22.1l0.6-22.7h5.9c0,0,1.2,5.7,6.8,5.9c5.6,0.3,17.4,4.4,21.6,4.4
						c4.1,0,13.6,3.6,16,5.7c2.4,2.1,8.9,2.1,8.9,2.1s8.9-9.3,10.6-7.7s8.3,10.3,15.4,11.8s5.3,8.8,23.1,6.7s23.1,0.5,24.2-4.1
						c1.2-4.6,0.9-4.4,8.6-11.1c7.7-6.7,4.4-0.8,14.5-7c10-6.2,10-2.6,10-6.2c0-3.6,4.1-10.3-5.3-9.3c-9.5,1-10,1.5-15.4,2.1
						s-5.9,0.5-17.1,0.5c-11.2,0-15.7-3.9-15.7-3.9l-2.7-8c-5.3-4.6-3-8.2,0-9.3c3-1,4.1-1,13.6-1s-1.2,0,9.5,0s21.3,0.5,22.5-1
						c1.2-1.5-7.1-1.5,1.2-1.5c8.3,0-1.8,3.1,8.3,0s13,4.6,16-3.1s6.8-11.1,6.8-11.1l-10.3-3.9l-28.4-3.1l-6.5-0.5
						c0,0,0,1.5-8.3-4.1c-8.3-5.7-8.3-5.7-8.3-5.7s-8.9-7.2-6.5-8.8c2.4-1.5,5.9-1.5,5.9-1.5s7.1,0,8.9,0s21.9-0.5,21.9-0.5
						c0-8.2,0.6-8.8-4.7-9.8c-5.3-1-15.4-9.8-15.4-9.8c7.7,0,31.3,0,31.3,0l23.1-7.2v-8.2c0,0-21.9,0-23.6,0s-15.4-0.5-19.5-2.6
						c-4.1-2.1-23.6-9.8-23.6-9.8l-11.2-2.1l-20.1-9.3c0,0,3.5-5.7,5.9-5.2c2.4,0.5,14.8,2.1,20.1,1.5s10-0.5,10-0.5l23.6-11.3
						c0,0-3.5,2.6,7.7,0.5s16.6-2.1,16.6-2.1s3.5-5.2,1.8-7.2c-1.8-2.1-9.5-5.7-11.8-6.2c-2.4-0.5-17.7-0.5-17.7-0.5
						s-4.7,0-18.9-2.1s-40.8-4.6-40.8-4.6s-11.8-3.1-5.9-5.2c5.9-2.1,15.4-0.5,20.1,0c4.7,0.5,0.3,4.4,4.7,0.5s2.7-5.4,1.2-6.7
						c-1.5-1.3-5,1.8-1.5-1.3s7.4-6.4,7.4-6.4l5.9-3.1c0,0,2.4-4.1-5-4.4c-7.4-0.3-19.2-3.3-19.2-3.3l-12.4-3.1c0,0,1.8-6.2,3.5-6.7
						c1.8-0.5,11.8,1.5,17.7-1c5.9-2.6,9.5-4.6,9.5-4.6s8.9-7.7,4.7-9c-4.1-1.3,3,7.5-16,0c-18.9-7.5-31.3-5.9-28.4-11.1
						s4.7-9.8,4.7-9.8l1.8-9l1.2-7.4l-20.1-0.5l-17.1-12.9c0,0,1.8-2.6,7.1-3.1s23.6-4.6,23.6-4.6s6.5-5.2,8.9-12.9
						c2.4-7.7,10-7.7-3-7.7s-18.3,0.5-18.3,0.5s-28.4,7.2-21.3-2.1s17.7-11.3,24.8-11.8s10.6,0,14.2-5.7c3.5-5.7,3.5-5.7,3.5-5.7
						s-10,0-18.3-0.5c-8.3-0.5-7.1-0.5-16-0.5s-15.4-0.5-15.4-0.5s4.1-7.2,7.7-7.7s14.2-3.6,14.2-3.6l10-10.3
						c-11.2,0,4.7,4.6-15.4,0s-20.1-4.6-20.1-4.6s-4.7-2.1-4.1-4.1c0.6-2.1,15.4-7.2,15.4-7.2s3.5,2.6,6.5-2.1c3-4.6-1.2-1,3-4.6
						c4.1-3.6,7.1-5.7,5.3-6.2s-18.3-0.5-18.3-0.5s-2.4-0.5-6.5-1.5c-4.1-1-10.6-3.6-10-7.2c0.6-3.6,8.3-4.6,10.6-5.2
						c2.4-0.5,16-6.2,16-6.2s4.7-6.7,2.4-7.2c-2.4-0.5-4.1,0-13,0s-17.1,0-17.1,0c0-4.6-3.5-3.1-0.6-7.7s-8.3,2.1,3-4.6
						c11.2-6.7,11.2-6.7,11.2-6.7l1.2-5.7l-19.5-1c0,0,3.5-1.5,0-5.7c-3.5-4.1-3.5,3.1-3.5-4.1s0-7.2,0-7.2l19.5-10.8
						c0,0-12.4-3.6-15.4-3.6s-10.6,1-11.8-3.1c-1.2-4.1-7.4-5.9-1.2-7.7c6.2-1.8,10-1.5,10.6-3.6c0.6-2.1,0-2.6-3.5-5.7
						c-3.5-3.1-3.5-2.1-3.5-5.7c0-3.6,0-9.3,0-9.3l-6.5-1.5c0,0-2.4-5.2-2.4-11.8s-1.2-5.7,3.3-9.5c4.4-3.9,4.4-4.9,4.4-8
						c0-3.1-8.9-7.7-8.9-7.7s-3.9-4.1-2.8-8.8c1-4.6,1,0.5,1-4.6s-4.7-16.5-4.7-16.5L587.3,1269.8z"/>
				</g>
				<g>
					<path class="st5" d="M1465.7,1107.9v16.5l-6,5.5l6,5.5l-11.4,5v6.7h11.4v12.9l-8.5,7.8v13.3l-11.3,2.1l-7,6.4l16.5,3.3
						l-12,11.1l15.9,6.4v10.8l-20.4-10.3l-12,6.2l15.9,14.7l-5.6,5.2h17.6v7.5l-18.4,6.7h-17.3l-2.8,9.3l15.1,8.8v12.9l-8.9,8.2
						l-19.5-6.2l-12.3-4.1v8.2l15.9,14.7h14.2v10h-13.4l-16.7-5.7v9.3l8.4,7.7l7,6.4h-10.3h-12.3l-12.3-4.4v7.2l9.8,9l15.9,8v6.2
						h-8.4l-10-5.7l-14-4.1l-7.8-7.2l-10,5.7c0,0,2.8,8.2,6.7,11.3c3.9,3.1,10.6,9.3,12,10.6c1.4,1.3,1.4,9.5,1.4,9.5l2.2,6.7
						c0,0,5-2.6,7.3-2.1c2.2,0.5,10,2.1,10,2.1s1.1,5.2-1.1,5.2c-2.2,0-7.3,0-9.5,0s-15.1-6.7-19-7.7c-3.9-1-19-4.6-19-4.6h-6.1
						c0,0-3.9,4.1-3.3,5.7c0.6,1.5,5.6,9.8,5.6,9.8s3.3-2.6,6.7,0c3.3,2.6,18.4,9.8,18.4,9.8l12.8,6.2l-7.3,12.4l20.1,5.9
						c0,0-3.9,5.4-7.8,6c-3.9,0.5,6.1,0-12.3,0s-6.1,4.1-24,0.2c-17.9-3.8-21.8-3.8-21.8-3.8s-10-10.9-6.7-2.4
						c3.3,8.5,7.8,12.7,7.8,12.7s-3.3,13.4,12.3,17.5c15.6,4.1,12.8,3.1,19.5,4.6c6.7,1.5,14,4.1,14,4.1l-5.6,3.6h-14.5
						c0,0-11.7,1-16.2,0c-4.5-1,3.3,11.3-0.6,11.8c-3.9,0.5-10-0.5-12.8,0s-2.8,0.5-2.8,0.5s-4.7,0.5-1.8,4.6
						c2.9,4.1-5.7-3.9,2.9,4.1c8.7,8,17.3,9.3,17.3,10.8c0,1.5,6.1,2.6,0,4.1c-6.1,1.5,3.9,1.5-6.1,1.5c-10,0-21.2,0-21.2,0
						s-10,10.8-14.5,7.7c-4.5-3.1-6.1-6.2-6.1-6.2s-4.5,8.8-4.5,10.3c0,1.5-3.3,6.7,6.7,7.7s21.2,5.2,21.2,5.2l7.3,2.1l-5.6,5.7
						c14,5.2,12.8,4.6,17.3,5.2c4.5,0.5,18.4,2.6,18.4,2.6c-7.3,3.1-14,5.2-16.2,6.7c-2.2,1.5-2.8,4.1-7.3,4.1s-12.3-2.1-15.1-2.6
						c-2.8-0.5-1.1-0.5-6.7-1c-5.6-0.5-6.1-0.5-11.2-0.5s-9.5,0.5-9.5,0.5l-9,6.2l16.7,5.2c0,0,10,1,13.4,2.6
						c3.3,1.5,3.3,7.2,3.3,7.2c-36.8,0-45.8,0-45.8,0l-3.9,7.2c0,0-2.2,2.6,5.6,5.2c7.8,2.6,13.4,4.1,19,5.2c5.6,1,5,6.2,5,6.2
						l-3.9,5.2c0,0-13.4-2.1,6.1,0s20.6,1,25.1-3.1s-14.5-3.6,10.6-3.1c25.1,0.5,40.6,2.6,38.5,2.6c-2.2,0-17.8,4.6-17.8,4.6
						l-19.5,4.1l-12.3,4.6h-7.8l-11.7,6.7c0,0-24,6.7-22.3,7.7c1.7,1-6.7,5.2,19,7.7s31.8,3.6,33.5,3.1c1.7-0.5,6.7,1.3,16.7,0.1
						c10-1.2,14.5,0.4,14.5,0.4s0,9.3,0,4.6c0-4.6-9.5,3.6-9.5,3.6h-8.4l-19.5-2.6c0,0-10-1.5-11.7-1c-1.7,0.5-7.3,3.6-7.3,3.6v5.7
						c0,0,8.9,11.8,12.3,12.4c3.3,0.5,8.9,1,15.1,2.1c6.1,1,6.1,1,6.1,1l-10,5.7h-11.2c0,0-12.3,0-16.2,0s-9.5,0-9.5,0h-14
						c-6.1,5.2-13.4,8.8-10,9.8c3.3,1-5.6-1.5,6.7,3.6s24.6,9.3,29.6,9.3c5,0,14.5,0,14.5,0s0-3.1,15.6,0c15.6,3.1,11.7,3.6,24,6.7
						c12.3,3.1,11.2,8.2,21.2,2.1c10-6.2,0-6.2,10-6.2c10,0,2.2,6.7,21.2,1.5s28.5-8.2,28.5-8.2s6.7-2.1,11.7-4.1s6.1-2.1,8.4-2.6
						c2.2-0.5,6.1-6.7,6.7,0c0.6,6.7-1.1,16.5-1.7,19.1s-0.6,24.2-0.6,24.2v11.3l-3.3,32.8l-7.3,23.9l68.6,6.7l-11.2-41.7l-10-37.6
						l-7.3-22.1l0.6-22.7h5.6c0,0,1.1,5.7,6.4,5.9c5.3,0.3,16.5,4.4,20.4,4.4c3.9,0,12.8,3.6,15.1,5.7c2.2,2.1,8.4,2.1,8.4,2.1
						s8.4-9.3,10-7.7c1.7,1.5,7.8,10.3,14.5,11.8c6.7,1.5,5,8.8,21.8,6.7c16.7-2.1,21.8,0.5,22.9-4.1s0.8-4.4,8.1-11.1
						c7.3-6.7,4.2-0.8,13.7-7c9.5-6.2,9.5-2.6,9.5-6.2c0-3.6,3.9-10.3-5-9.3c-8.9,1-9.5,1.5-14.5,2.1s-5.6,0.5-16.2,0.5
						c-10.6,0-14.8-3.9-14.8-3.9l-2.5-8c-5-4.6-2.8-8.2,0-9.3c2.8-1,3.9-1,12.8-1c8.9,0-1.1,0,8.9,0s20.1,0.5,21.2-1
						c1.1-1.5-6.7-1.5,1.1-1.5s-1.7,3.1,7.8,0c9.5-3.1,12.3,4.6,15.1-3.1c2.8-7.7,6.4-11.1,6.4-11.1l-9.8-3.9l-26.8-3.1l-6.1-0.5
						c0,0,0,1.5-7.8-4.1c-7.8-5.7-7.8-5.7-7.8-5.7s-8.4-7.2-6.1-8.8c2.2-1.5,5.6-1.5,5.6-1.5s6.7,0,8.4,0c1.7,0,20.6-0.5,20.6-0.5
						c0-8.2,0.6-8.8-4.5-9.8c-5-1-14.5-9.8-14.5-9.8c7.3,0,29.6,0,29.6,0l21.8-7.2v-8.2c0,0-20.6,0-22.3,0c-1.7,0-14.5-0.5-18.4-2.6
						c-3.9-2.1-22.3-9.8-22.3-9.8l-10.6-2.1l-19-9.3c0,0,3.3-5.7,5.6-5.2c2.2,0.5,14,2.1,19,1.5c5-0.5,9.5-0.5,9.5-0.5l22.3-11.3
						c0,0-3.3,2.6,7.3,0.5c10.6-2.1,15.6-2.1,15.6-2.1s3.3-5.2,1.7-7.2c-1.7-2.1-8.9-5.7-11.2-6.2c-2.2-0.5-16.7-0.5-16.7-0.5
						s-4.5,0-17.9-2.1c-13.4-2.1-38.5-4.6-38.5-4.6s-11.2-3.1-5.6-5.2c5.6-2.1,14.5-0.5,19,0c4.5,0.5,0.3,4.4,4.5,0.5
						s2.5-5.4,1.1-6.7c-1.4-1.3-4.7,1.8-1.4-1.3c3.3-3.1,7-6.4,7-6.4l5.6-3.1c0,0,2.2-4.1-4.7-4.4c-7-0.3-18.1-3.3-18.1-3.3
						l-11.7-3.1c0,0,1.7-6.2,3.3-6.7s11.2,1.5,16.7-1s8.9-4.6,8.9-4.6s8.4-7.7,4.5-9s2.8,7.5-15.1,0c-17.9-7.5-29.6-5.9-26.8-11.1
						c2.8-5.2,4.5-9.8,4.5-9.8l1.7-9l1.1-7.4l-19-0.5l-16.2-12.9c0,0,1.7-2.6,6.7-3.1c5-0.5,22.3-4.6,22.3-4.6s6.1-5.2,8.4-12.9
						c2.2-7.7,9.5-7.7-2.8-7.7s-17.3,0.5-17.3,0.5s-26.8,7.2-20.1-2.1s16.7-11.3,23.4-11.8s10,0,13.4-5.7s3.3-5.7,3.3-5.7
						s-9.5,0-17.3-0.5c-7.8-0.5-6.7-0.5-15.1-0.5c-8.4,0-14.5-0.5-14.5-0.5s3.9-7.2,7.3-7.7c3.3-0.5,13.4-3.6,13.4-3.6l9.5-10.3
						c-10.6,0,4.5,4.6-14.5,0c-19-4.6-19-4.6-19-4.6s-4.5-2.1-3.9-4.1c0.6-2.1,14.5-7.2,14.5-7.2s3.3,2.6,6.1-2.1s-1.1-1,2.8-4.6
						c3.9-3.6,6.7-5.7,5-6.2c-1.7-0.5-17.3-0.5-17.3-0.5s-2.2-0.5-6.1-1.5c-3.9-1-10-3.6-9.5-7.2c0.6-3.6,7.8-4.6,10-5.2
						c2.2-0.5,15.1-6.2,15.1-6.2s4.5-6.7,2.2-7.2c-2.2-0.5-3.9,0-12.3,0c-8.4,0-16.2,0-16.2,0c0-4.6-3.3-3.1-0.6-7.7
						c2.8-4.6-7.8,2.1,2.8-4.6s10.6-6.7,10.6-6.7l1.1-5.7l-18.4-1c0,0,3.3-1.5,0-5.7c-3.3-4.1-3.3,3.1-3.3-4.1s0-7.2,0-7.2
						l18.4-10.8c0,0-11.7-3.6-14.5-3.6c-2.8,0-10,1-11.2-3.1c-1.1-4.1-7-5.9-1.1-7.7c5.9-1.8,9.5-1.5,10-3.6c0.6-2.1,0-2.6-3.3-5.7
						c-3.3-3.1-3.3-2.1-3.3-5.7c0-3.6,0-9.3,0-9.3l-6.1-1.5c0,0-2.2-5.2-2.2-11.8s-1.1-5.7,3.1-9.5c4.2-3.9,4.2-4.9,4.2-8
						c0-3.1-8.4-7.7-8.4-7.7s-3.6-4.1-2.7-8.8s1,0.5,1-4.6s-4.5-16.5-4.5-16.5L1465.7,1107.9z"/>
				</g>
			</g>
		</g>
	</g>
	<g>
		<path class="st5" d="M314,646.7l-9.8,19.9c-2,4.1-3.5,7.4-4.6,10c-1.1,2.6-1.8,4.5-2.1,5.9c0,0.7,0.3,1.2,1,1.6
			c0.4,0.2,0.7,0.3,1.1,0.4c0.4,0.1,1,0.3,1.7,0.5c1.4,0.4,3,1,4.7,1.6c1.7,0.7,3.2,1.3,4.5,2c5.9,2.9,7.4,7.1,4.6,12.7
			c-2.8,5.7-7.5,7-14.1,3.8c-2.7-1.4-4.4-2.2-4.9-2.7l0.2,0.1c-3.2-2-5.4-3.3-6.5-3.9c-0.4-0.2-1-0.4-1.8-0.8
			c-0.9-0.3-1.8-0.6-2.9-0.9c-1-0.2-2-0.5-3.2-1c-1.2-0.5-2-0.9-2.6-1.2c-5.1-2.5-5.9-7.6-2.2-15.1c0.5-1,1-2.1,1.6-3.3
			c0.6-1.3,1.4-2.6,2.2-4.1c0.3-0.6,0.6-1.2,1-1.8c0.4-0.6,0.7-1.2,0.9-1.7c0.5-0.8,0.9-1.5,1.2-2.1c0.3-0.6,0.5-1.1,0.7-1.4
			l5.2-10.1l14.2-28.8c4.5-9.2,10.2-12.1,17-8.8c1.3,0.7,2.7,2.2,4.1,4.6c1.4,2.4,2.7,5.2,3.9,8.5l26.3,76.3l17-34.6
			c2.3-4.7,2.3-7.5,0-8.7l-3.2-1.6c-0.7-0.4-1.5-0.7-2.4-1.1c-0.9-0.3-1.6-0.7-2.2-1c-1-0.5-1.6-0.7-1.8-0.8
			c-0.3-0.1-0.5-0.1-0.8-0.2s-0.6-0.2-1.1-0.4c-0.5-0.2-1.4-0.7-2.9-1.4c-2.7-1.3-4.6-3.2-5.5-5.7c-0.9-2.5-0.8-5,0.5-7.6
			c2.7-5.5,7-6.8,13-3.8c1.1,0.5,2.1,1.1,3.1,1.6c1,0.6,2,1.2,3,1.8c3.8,2.3,6.5,3.9,8.1,4.7c0.6,0.3,1.4,0.7,2.4,1.1
			c1,0.4,2,0.8,2.9,1.3c0.6,0.3,1.3,0.6,2,0.9c0.7,0.3,1.4,0.6,2.1,0.8c0.6,0.2,1.2,0.4,1.6,0.6c0.5,0.2,0.6,0.2,0.5,0.1
			c6,2.9,7.1,7.8,3.5,14.6c-0.8,1.7-1.7,3.3-2.7,5c-1,1.7-1.9,3.3-2.7,5l-24,48.9c-1.8,3.7-4.4,6.2-7.7,7.5
			c-3.3,1.3-6.6,1.1-9.8-0.5c-3.6-1.8-6.2-5-7.8-9.9L314,646.7z"/>
		<path class="st5" d="M422,523.3c2.5,1.8,4.4,3.3,5.7,4.4c1.3,1.1,2.2,2.2,2.5,3.3c0.4,1.1,0.2,2.2-0.3,3.3
			c-0.6,1.1-1.5,2.6-2.9,4.4l-35.4,48.5c-0.3,0.4-0.4,0.7-0.3,0.8c7.2,5.3,14.6,7.4,22.2,6.5c7.5-0.6,13.5-3.9,17.9-9.9
			c2.9-4,4.5-8.4,4.7-13.2c0.2-4.8-1-8.9-3.6-12.3l-3.3-4.6c-1.1-1.8-1.7-3.7-1.8-5.7s0.6-3.8,1.9-5.7c4.1-5.6,8.8-6.4,14.2-2.5
			c7.3,5.3,11,13.8,11.1,25.4c0.1,11.1-3.1,21.2-9.7,30.2c-8.5,11.6-19,18-31.6,19.2c-12.5,1.1-25-2.9-37.6-12.1
			c-12.7-9.3-20.6-20.5-23.9-33.7c-3-13.2-0.3-25.7,8.2-37.3c3.9-5.4,8.3-9.5,13.1-12.5c4.8-2.9,10.1-4.9,15.8-5.8
			C400.6,512.8,411.7,515.8,422,523.3z M405.3,538.1c-4.8-3.5-10.3-4.8-16.5-3.9c-6.3,1.2-11.1,4.1-14.5,8.7
			c-3.4,4.7-4.9,10.8-4.3,18.1c0.8,6.8,3.3,11.8,7.6,15L405.3,538.1z"/>
		<path class="st5" d="M437.8,445.3c3.6-3.4,7.1-3.8,10.5-1.4c0.9-9.6,5.3-18.1,13.3-25.6c5.4-5.1,11.8-8.5,19.1-10.3l-0.1,0.1
			c7.8-1.8,14.4-1.5,19.7,0.9c4.6,2,9.4,5.7,14.3,10.9l24.6,26.2l6.4,6.8c1.6,1.5,2.8,2.1,3.7,2c0.5-0.5,1.1-1.1,1.8-1.9
			c0.7-0.8,1.3-1.4,1.7-2c0.4-0.5,0.8-1,1.1-1.4s0.8-0.9,1.4-1.4c1.7-1.6,3.9-2.5,6.4-2.5c2.5-0.1,4.5,0.7,6.1,2.4
			c1.8,1.9,2.6,4.3,2.2,7.1c-0.3,2.8-1.6,5.2-3.8,7.3c-0.5,0.5-1.3,1.1-2.3,2c-1.1,0.9-2.2,1.8-3.5,2.6c-1.6,1.2-3.4,2.5-5.2,3.9
			c-1.8,1.5-3.4,2.8-4.7,3.9c-1,0.9-1.9,1.9-2.9,2.9c-1,1-1.8,1.9-2.5,2.7c-1.9,2.3-3.4,4.2-4.6,5.6c-1.2,1.4-1.9,2.2-2.1,2.4
			c-5.2,4.9-10,5.1-14.3,0.5c-3.8-4.1-3.4-8.3,1.3-12.7c0.5-0.3,0.9-0.6,1.3-1c0.4-0.4,0.8-0.7,1.2-0.9c0.4-0.3,0.8-0.6,1.2-1
			c0.6-0.4,1-0.7,1.4-0.9c0.3-0.2,0.6-0.4,0.8-0.6c0.4-0.2,0.6-0.3,0.7-0.4c0.7-0.6-0.7-2.8-4-6.6c-1.1-1.2-2.2-2.4-3.2-3.7
			c-1-1.3-2.1-2.5-3.2-3.7l-7.6-8.4l-9.8-10.5c-4.1-4.4-7.4-7.4-9.9-9.1c-1.7-1.2-3.4-2-5.4-2.5c-1.9-0.5-3.8-0.6-5.6-0.4l0.1,0.1
			c-4.6,0.7-8.5,2.5-11.6,5.4c-6.5,6.1-9,12.8-7.6,19.9c1.2,5.1,5.7,11.9,13.5,20.2l17.2,18.4c3.1,3.3,5.3,5.4,6.6,6.4
			c1.3,0.9,2.3,1.1,2.9,0.6c0.1-0.1,0.3-0.4,0.7-1c0.4-0.5,0.8-1.1,1.3-1.8c0.4-0.7,0.8-1.4,1.3-2c0.4-0.6,1-1.3,1.8-2
			c4.5-4.2,8.7-4.1,12.8,0.3c4.1,4.4,3.5,9-1.7,13.9c-0.5,0.5-1.5,1.2-3.1,2.4c-1.6,1.1-3.3,2.4-5.3,3.9c-2.2,1.5-4.5,3.4-6.8,5.6
			c-0.9,0.8-1.9,1.8-3,3.1c-1.1,1.2-2.4,2.7-3.9,4.5l-2.9,3.3c-0.7,1-1.4,1.9-2.1,2.7c-0.7,0.8-1.2,1.3-1.4,1.4
			c-5.4,5.1-10.3,5.4-14.4,0.9c-3.9-4.2-3.6-8.4,0.8-12.5c0.5-0.5,0.9-0.8,1.3-1.1c0.4-0.3,0.8-0.5,1.3-0.8c1.5-0.9,3-2,4.3-3.2
			c1.2-1.1-0.1-3.7-3.7-7.7c-2.4-2.5-4.7-5.1-7-7.8c-2.3-2.7-4.7-5.3-7-7.8L452,475.3l-4.8-4.5c-2.2-2-3.8-3.3-4.9-4
			c-1.1-0.7-1.9-1-2.6-0.7c-0.1,0.3-0.5,0.8-1.1,1.4c-0.6,0.7-1.1,1.3-1.4,1.7c-0.5,0.6-1,1.2-1.4,1.7c-0.4,0.5-0.9,1-1.4,1.4
			c-4.9,4.6-9.3,4.7-13.3,0.4c-4-4.3-3.2-9,2.4-14.3c0.4-0.4,0.7-0.7,0.9-1c0.2-0.3,0.6-0.5,1.1-0.7l5.4-3.9c0.5-0.5,1-1,1.6-1.6
			c0.6-0.6,1.1-1.3,1.6-1.9c0.7-0.8,1.3-1.5,1.8-2.1C436.4,446.7,437.1,446.1,437.8,445.3z"/>
		<path class="st5" d="M572.3,332.7c6.2-3.9,12.2-6.1,18-6.3c-1-3.8,0.5-6.9,4.4-9.4c5.3-3.4,9.5-2.6,12.6,2.3
			c0.1,0.2,0.3,0.5,0.3,0.7c0.1,0.3,0.3,0.7,0.7,1.2c0.3,0.5,0.6,1,0.9,1.7c0.3,0.7,0.7,1.3,1,1.8c0.4,1.2,0.9,2.3,1.4,3.3
			c0.5,1.1,1.1,2.1,1.7,3c0.9,1.5,2.2,3.1,3.8,4.9c1,1.1,1.9,2.1,2.6,3c0.7,0.9,1.3,1.7,1.8,2.5c3.6,5.6,2.8,10.1-2.5,13.5
			c-5.2,3.3-9.4,2.6-12.7-2.1l-3.6-5.3c-1.8-2.5-4.7-3.7-8.9-3.7c-4.2,0.1-8.3,1.4-12.5,4.1c-4,2.6-6.8,5.8-8.3,9.6
			c-1.5,3.8-1.2,7.3,0.8,10.4c1.7,2.7,4.2,4.2,7.3,4.4c3.2,0.3,6.7-0.4,10.6-1.9c1.7-0.8,3.4-1.5,5.1-2.3c1.7-0.7,3.3-1.5,5-2.3
			c21.4-9.9,36.5-8.1,45.3,5.6c5.2,8.2,6.3,17.1,3.2,26.9c-3.3,9.1-9.9,16.8-19.8,23.1c-7.4,4.7-15.2,7.4-23.4,7.9
			c2.2,4.6,0.8,8.5-4,11.6c-5.7,3.7-10.4,2.6-14.2-3.2c-0.9-1.8-1.5-3.3-2-4.4c-0.5-1.1-0.9-2.1-1.3-3c-0.4-0.9-0.8-1.7-1.3-2.6
			c-0.5-0.9-1.2-2.1-2.2-3.7c-0.8-1.2-1.7-2.5-2.8-3.8c-1.1-1.3-2.1-2.5-3.1-3.6c-1.3-1.2-2.4-2.6-3.4-4.2
			c-3.3-5.2-2.3-9.4,2.9-12.8c3.6-2.3,6.4-2.7,8.4-1.3c1.9,1.2,4.3,4,7.3,8.4c2.6,3.9,6.8,5.7,12.4,5.5c5.7-0.2,11.8-2.4,18.4-6.6
			c4.4-2.8,7.3-6.2,8.7-10.2c1.5-4,1.1-7.8-1.2-11.2c-3.8-5.9-11-6.2-21.5-0.9c-6.3,3.1-12,5.5-17.1,7.3c-5.2,1.8-9.8,2.8-14.1,2.8
			c-4.2,0.1-8-0.8-11.5-2.7c-3.4-1.9-6.6-5-9.4-9.4c-2.6-4-4.1-8.2-4.7-12.7c-0.5-4.4-0.1-8.7,1.3-12.9c1.4-4.2,3.7-8.3,6.9-12.2
			C563.3,339.4,567.3,335.8,572.3,332.7z"/>
		<path class="st5" d="M708.3,338.7c1.3,2.8,2.3,5,3,6.6c0.7,1.6,1.3,2.7,1.7,3.3c2,3.5,3.4,5,4.1,4.7c-0.1,0,0.2-0.1,0.8-0.6
			c0.7-0.5,1.5-1,2.5-1.8l-0.1,0.3c0.3-0.3,0.7-0.6,1.2-1c0.5-0.4,1.2-0.7,2-1.1c6.3-2.9,10.6-1.7,13.1,3.6c1.1,2.4,1,4.9-0.2,7.4
			c-1.3,2.5-3.4,4.4-6.4,5.8c-1,0.4-2.2,0.9-3.7,1.5s-3.3,1.2-5.3,1.8c-1.9,0.6-3.6,1.1-5,1.5c-1.4,0.4-2.5,0.8-3.4,1.2
			c-1.3,0.6-2.8,1.4-4.4,2.2c-1.6,0.9-3.2,1.8-4.9,2.9c-2.1,1.2-3.8,2.3-5.2,3.2c-1.4,0.9-2.6,1.5-3.6,2c-6.5,3-11.1,1.7-13.6-3.8
			c-2.5-5.3-0.7-9.3,5.2-12.1c0.2-0.1,1-0.4,2.2-0.8c1.2-0.4,2.2-0.7,3-0.9c1-0.1,1.7-0.3,2.2-0.6c0.5-0.2,0.8-0.4,1.1-0.5
			c1-0.5,0.3-3.7-2-9.6l-20.1-43.7c-3-5.5-5-8-6.1-7.5c-0.2,0.1-0.6,0.4-1.2,0.8c-0.5,0.4-1.2,0.9-1.9,1.5c-0.5,0.5-1.1,1-1.9,1.4
			c-0.8,0.4-1.4,0.7-1.9,1c-6.2,2.8-10.5,1.6-12.9-3.7c-2.5-5.4-0.3-9.8,6.8-13c1.3-0.6,2.4-1.1,3.3-1.5c0.8-0.4,1.5-0.6,1.9-0.7
			c1.8-0.5,3.3-1,4.5-1.4c1.2-0.4,2-0.7,2.4-0.9c0.2-0.1,0.7-0.4,1.5-0.8c0.8-0.4,1.5-0.9,2.1-1.3l4.5-2.7c5.2-2.4,9.2-0.6,12,5.5
			l1.2,2.5c0.1,0.5,0.2,1,0.4,1.3c0.1,0.3,0.2,0.5,0.3,0.6c0,0.4,0.8,2.1,2.2,5.2c0.4,0.8,0.8,1.7,1.1,2.7c0.4,0.9,0.8,1.9,1.2,2.9
			c1,2.5,2,4.9,3.1,7.2c1.1,2.4,2.2,4.7,3.3,7.2L708.3,338.7z M666.5,279.3c-3.5,1.6-7,1.8-10.5,0.7c-3.5-1.2-6-3.5-7.6-6.9
			c-1.6-3.4-1.6-6.8-0.3-10.1c1.4-3.4,3.8-5.8,7.3-7.4c3.5-1.6,7-1.9,10.5-0.8c3.5,1.1,6,3.3,7.6,6.7c1.6,3.4,1.6,6.8,0.2,10.2
			C672.4,275.2,670,277.7,666.5,279.3z"/>
		<path class="st5" d="M754.1,224.9c0.5,2.6,0.9,4.9,1.3,6.9c0.4,2,0.8,4,1.2,6c0.5,2,1,4.2,1.5,6.6c0.6,2.4,1.3,5.3,2.3,8.8
			c2.4-4.3,5.2-7.5,8.4-9.7c3.2-2.2,7.6-4.1,12.9-5.6c13.2-3.8,24.9-2.3,35.2,4.5c10.3,6.9,17.6,17.6,21.8,32.1
			c2.2,7.7,3.2,15.1,2.8,22.3s-1.7,13.7-4,19.7c-2.6,6-6.2,11-11,15c-4.8,4-10.6,7-17.5,9c-9.8,2.9-18.5,2.6-25.8-0.8
			c0.2,4.4-2.2,7.3-7.2,8.8c-6.4,1.9-10.7-1.1-13-8.9c-0.3-0.9-0.5-1.7-0.7-2.5c-0.2-0.8-0.3-1.4-0.4-2c-0.4-1.4-0.8-2.8-1.2-4.2
			c-0.4-1.4-0.7-2.8-1-4.3l-3.5-14.2c-0.7-2.6-1.6-5.6-2.5-9.2c-0.9-3.6-1.7-6.6-2.5-9.2l-14.5-48.4c-1.1-3.4-2-5.7-2.7-6.8
			c-0.7-1.1-1.4-1.6-2.2-1.3c-0.5,0.1-1.9,0.8-4.2,2c-0.6,0.3-1.2,0.6-1.9,0.7c-0.6,0.2-1.3,0.4-1.9,0.6c-6.1,1.8-10-0.1-11.6-5.6
			c-1.7-5.8,1-9.6,7.9-11.6c0.6-0.2,1.4-0.4,2.2-0.6c0.8-0.2,1.5-0.4,2.1-0.4l3.8-0.5c0.2-0.1,0.6-0.1,1-0.2c0.4,0,0.7-0.1,1-0.2
			c0.7-0.1,1.2-0.2,1.7-0.3c0.4-0.1,0.9-0.2,1.2-0.4c0.5-0.2,1.3-0.4,2.2-0.9c1-0.4,2-0.9,3.1-1.5c1.8-0.9,3.6-1.7,5.4-2.2
			c4.7-1.4,7.8,0.5,9.3,5.6L754.1,224.9z M769.3,278.1c0.1,3.8,1.2,9.2,3.2,16.1c3.3,11.2,6.5,18.9,9.6,23c5.7,6.8,13,8.9,22,6.3
			c7.5-2.2,12.6-7,15.1-14.4c2.5-7.4,2.2-16.2-0.8-26.6c-3.1-10.6-7.5-18.3-13.4-23.1c-5.8-4.8-12.3-6.2-19.5-4.1
			c-2.6,0.7-4.9,1.9-6.9,3.4c-2.1,1.5-3.8,3.3-5.3,5.3c-1.5,2-2.6,4.2-3.3,6.7C769.4,273,769.1,275.5,769.3,278.1z"/>
		<path class="st5" d="M914.5,292.5c0.7,4.6,1.7,6.8,2.7,6.7c0.3,0,0.6-0.2,1-0.3c0.3,0,0.6-0.1,0.9-0.2c0.3-0.1,0.7-0.3,1.2-0.5
			c0.3,0,0.5-0.1,0.8-0.2c0.2-0.1,0.5-0.2,0.8-0.2c0.3,0,0.4-0.1,0.4-0.2c0-0.1,0.1-0.1,0.4-0.2c0.2-0.2,0.6-0.3,1.1-0.3
			c0.5-0.1,0.8-0.1,1.1-0.1c6.2-0.8,9.7,1.7,10.5,7.7c0.8,5.9-2.4,9.4-9.7,10.4c-1.1,0.1-2.4,0.3-4.1,0.3c-1.7,0.1-3.6,0.2-5.9,0.2
			c-2.1,0-4.1,0.1-5.7,0.2c-1.7,0.1-3,0.2-4.1,0.3c-0.9,0.1-2.1,0.4-3.5,0.7c-1.4,0.3-3.1,0.7-5.1,1.3c-1.8,0.5-3.5,0.9-5.1,1.3
			c-1.6,0.3-2.9,0.6-3.9,0.7l-1,0.1c-7.4,1-11.5-1.7-12.4-8c-0.7-5.5,2.1-8.7,8.6-9.6l2-0.3c0.5,0.1,1.1,0.1,1.6,0
			c1.6,0,2.8,0.1,3.4,0.1c0.7,0,1.1,0,1.4,0c0.5-0.1,0.9-0.5,1.1-1.2c0.1-1,0.1-2.6-0.1-5c-0.2-2.4-0.5-5.6-0.9-9.5
			c-0.3-2.2-0.6-4.5-0.8-6.6c-0.2-2.2-0.5-4.3-0.8-6.4l-3.3-29.2c-0.3-2.1-0.6-4.6-1-7.5c-0.4-2.9-0.8-5.9-1.3-9.1
			c-0.5-3.2-0.9-6.2-1.3-9.1c-0.4-2.9-0.7-5.4-1-7.5l-1.6-7.4c-0.3-0.4-0.7-0.7-1.1-1.1c-0.5-0.3-0.9-0.5-1.3-0.4
			c-0.1,0-1.7,0.5-4.6,1.4c-0.6,0.2-1.2,0.4-1.7,0.4c-0.5,0.1-1,0.1-1.7,0.2c-6.5,0.9-10.1-1.5-10.8-7.2c-0.8-5.9,2.4-9.4,9.5-10.3
			c0.7-0.1,1.4-0.2,2.3-0.3c0.9-0.1,1.5-0.1,1.9-0.1l4,0.1c0.3,0,0.5,0,0.8,0c0.3,0,0.5,0,0.8,0c0.7,0,1.3,0,1.9,0
			c0.6-0.1,1.2-0.2,1.7-0.2c0.3,0,0.9-0.2,1.9-0.4c1-0.2,2-0.5,3-0.9c1.1-0.4,2.2-0.8,3.2-1c1-0.3,2-0.5,3-0.6
			c4.9-0.7,7.7,1.7,8.4,7.1c0.1,0.8,0.2,1.4,0.3,1.8c0.1,0.4,0.1,0.9-0.1,1.4c0.5,9.9,1.9,23.4,4.3,40.7L914.5,292.5z"/>
		<path class="st5" d="M1009.1,285.7c3.5-9.1,7-18.1,10.6-27c3.6-8.9,7.1-17.9,10.4-27v0.2c0.4-1.3,0.6-2.5,0.7-3.4
			c0-0.4-0.3-0.6-1-0.6c-0.9,0-1.9,0.1-3,0.3c-0.5,0-1.1,0-1.7,0.1c-0.6,0.1-1,0.1-1.3,0.1c-0.3,0-0.5,0-0.8,0.1
			c-0.3,0.1-0.5,0.1-0.8,0.1c-6.3-0.1-9.3-3.1-9.2-8.9c0.1-6,3.9-8.9,11.3-8.8c0.3,0,0.7,0,1.4,0c0.7,0,1.3,0.1,1.8,0.2
			c0.1,0,0.2,0,0.3,0.1c0.1,0.1,0.2,0.1,0.5,0.1l6.8,1.1c0.9,0.2,1.8,0.2,2.7,0.2c0.9,0,1.8,0,2.9,0c0.9,0,2.1,0,3.6,0
			c1.5,0,3.3-0.2,5.4-0.4c2.1-0.2,4-0.4,5.7-0.5c1.7-0.1,3.1-0.2,4.3-0.1c7.4,0.1,11.1,3.1,11,9c-0.1,5.9-3.3,8.7-9.5,8.6
			c-1.9,0-3.1-0.2-3.6-0.5c-0.4-0.1-0.8-0.2-1.1-0.2c-0.3,0-0.6-0.1-0.9-0.2c-0.3,0-0.5-0.1-0.6-0.2c-0.9,0-2.4,2.6-4.5,7.9
			l-26.8,63.8c-5.7,13.9-11.4,24.4-17.1,31.5c-9.2,11.4-20.8,17-34.8,16.8c-8.7-0.1-15.7-2.4-21.3-6.7c-6-4.6-9-10.1-8.9-16.3
			c0.1-4.7,1.6-8.5,4.5-11.4c2.9-3,6.7-4.4,11.3-4.3c3.9,0.1,7,1.2,9.4,3.4c2.4,2.2,3.6,5,3.6,8.3c-0.1,3.7-1.4,6.4-3.9,8.1
			c0.8,0.5,1.6,0.9,2.5,0.9c0.9,0.1,2,0.1,3.3,0.2c5.9,0.1,11.1-2.1,15.9-6.5c4.9-4.3,7.3-9.2,7.4-14.6c0-2.8-1.5-8.3-4.7-16.7
			l-19.9-52.8c-0.1-0.5-0.3-1.1-0.6-1.6s-0.5-1.2-0.8-1.9c-0.3-0.7-0.5-1.6-0.8-2.7c-1.8-4.6-3.2-6.8-4.3-6.9c-0.3,0-0.6,0-1.1,0.1
			c-0.5,0.1-1,0.1-1.7,0.3c-1.1,0.1-2.3,0.3-3.7,0.4c-1.4,0.2-2,0.3-1.7,0.3c-6.4-0.1-9.5-3.1-9.4-8.9c0.1-6,4.1-8.9,12.1-8.8
			c0.9,0,1.9,0,2.8,0c0.9,0,1.6,0.1,2,0.2c1.2,0.2,2.4,0.3,3.5,0.6s2.3,0.4,3.5,0.6l2.2,0c0.7,0.1,1.2,0.2,1.6,0.2
			c2.3,0,4.6,0,6.9-0.1c2.3-0.1,4.8-0.2,7.3-0.5c4-0.3,6.7-0.5,8.2-0.5c7.4,0.1,11.1,3.1,11,9c-0.1,6-3.6,8.9-10.5,8.8
			c-0.5,0-1.2,0-1.9-0.1c-0.7-0.1-1.4-0.2-2.1-0.3c-0.4,0-0.8,0-1.3-0.1c-0.5-0.1-0.9-0.1-1.3-0.1c0,0.8,0.2,1.6,0.6,2.4
			L1009.1,285.7z"/>
		<path class="st5" d="M1301.7,266.9c1.2,0.5,2.5,1.1,3.7,1.7c1.2,0.7,2.4,1.4,3.6,2.1c3.1-4.8,7.1-7.8,12.1-9.1
			c4.9-1.3,10.7-0.6,17.4,2.1c6.3,2.6,10.8,6.3,13.6,11.2c2.8,4.9,3.2,9.9,1.1,14.9c-1.5,3.6-3.9,6.1-7.3,7.6
			c-3.4,1.5-6.7,1.5-9.9,0.2c-2.6-1.1-4.5-2.9-5.8-5.5c-1.3-2.6-1.4-5.2-0.4-7.6c0.5-1.1,1-2.1,1.7-2.9c0.7-0.8,1.9-1.4,3.5-1.9
			c-0.4-0.5-0.8-0.9-1.3-1.3c-0.5-0.4-1-0.7-1.5-0.9c-3.9-1.6-7.2,0.2-9.8,5.4c3,5,4.8,10,5.3,15.1c0.6,5.1-0.2,10.2-2.3,15.3
			c-3.6,8.7-10,14.7-19.2,17.8c-8.9,3.1-18.3,2.6-28.1-1.5c-3.6-1.5-7-3.3-10.2-5.5c-3.2-2.2-6.2-4.9-9.1-8.1
			c-1.6-1.4-2.6-2.2-3.1-2.4c-0.9-0.4-1.8-0.2-2.9,0.4c-1.1,0.6-1.9,1.6-2.4,3c-1.8,4.4,2.4,8.8,12.6,13l1.1,0.5
			c0.4,0.2,0.8,0.3,1.2,0.5c0.4,0.2,1,0.3,1.6,0.5l2.4,1c11.3,4.7,20.1,9.6,26.5,14.8c6.1,5.1,10.3,10.8,12.5,17
			c2.2,6.3,2.1,12.3-0.3,18.2c-1.9,4.7-4.7,8.4-8.4,11.2c-3.7,2.8-8.1,4.7-13.2,5.6c-5.1,0.9-10.9,0.8-17.2-0.2
			c-6.3-1-13.1-3-20.2-6c-14.4-5.9-24.6-13.1-30.6-21.5c-6-8.4-7.2-17.1-3.5-26.1c3.6-8.7,10.7-13.7,21.2-14.8
			c-5.8-7-7.1-14.1-4.1-21.4c1.6-3.9,4.2-7,7.9-9.1c3.6-2.1,7.8-3.3,12.5-3.5c-0.5-2.6-0.5-5.1-0.1-7.4c0.4-2.3,1.2-4.6,2.2-7.1
			c3.5-8.5,9.9-14.3,19.1-17.6C1282.3,262.1,1291.7,262.8,1301.7,266.9z M1267.6,351.3c-8.5-3.5-15.6-5-21.4-4.6
			c-5.8,0.4-9.5,2.6-11.1,6.5c-1.7,4.1-0.7,8.2,3.1,12.4c3.7,4.2,9.6,8,17.6,11.3c8.5,3.5,15.6,5.1,21.5,4.8
			c5.8-0.3,9.6-2.5,11.2-6.4c1.7-4.1,0.7-8.2-3-12.5C1281.8,358.6,1275.9,354.7,1267.6,351.3z M1295.4,283.6
			c-4.3-1.8-8.5-2-12.7-0.7c-4.1,1.3-7.1,3.9-9,7.7l-0.3,0.7c-1.9,4.6-1.9,8.8,0,12.6c1.9,3.9,5.1,6.8,9.8,8.7
			c5,2.1,9.6,2.4,13.8,1.1c4.2-1.4,7.1-4.2,8.9-8.5c1.8-4.3,1.6-8.5-0.4-12.6C1303.5,288.5,1300.1,285.5,1295.4,283.6z"/>
		<path class="st5" d="M1411.4,326.2c3.7,2.4,4.9,5.2,3.7,8.6c8.6-1.3,16.7,0.5,24.3,5.4c4.2,2.7,7.5,5.7,10.1,9
			c2.6,3.3,4.4,6.9,5.5,10.6c1.1,3.8,1.3,7.6,0.7,11.5c-0.6,3.9-2.1,7.7-4.4,11.4c-3.4,5.4-7.6,8.8-12.6,10.3
			c-4.9,1.5-9.7,0.8-14.4-2.3c-3.2-2.1-5.4-4.8-6.3-8.1c-1-3.3-0.5-6.4,1.2-9.2c1.4-2.2,3.7-3.7,6.7-4.3c3-0.6,5.7-0.2,8,1.4
			c0.2,0.1,0.2,0.1,0-0.2c-0.2-0.3-0.1-0.1,0.3,0.4l0.5-0.8c1.6-2.5,1.8-5.2,0.7-8.3c-1.1-3.1-3.3-5.7-6.5-7.7
			c-7.1-4.5-13.8-4.3-20.4,0.7c-4.4,3.5-9.5,9.6-15.1,18.3l-6.8,10.6c-2.1,3.2-3.7,5.8-5,7.7c-1.2,1.9-1.9,3.1-2.1,3.6
			c-2.6,5.3-3.4,8.2-2.6,8.8c0.7,0.4,1.3,0.8,1.9,1.1c0.6,0.3,1.2,0.6,1.8,0.8c1.7,0.5,3.2,1.1,4.3,1.8c5.2,3.3,6.2,7.4,3.1,12.2
			c-3.4,5.3-8.1,5.9-14.3,2l-0.5-0.3c-0.9-0.6-2-1.3-3.2-2.3c-1.2-0.9-2.6-2.1-4.1-3.4c-3-2.4-5.2-4.1-6.6-4.9
			c-2.1-1.4-4-2.5-5.6-3.5c-1.6-1-3.1-1.8-4.4-2.4l-9.6-5c-6.2-4-7.6-8.6-4.2-13.8c3-4.7,7.4-5.2,13.3-1.5c0.6,0.4,1,0.6,1.5,0.8
			c0.4,0.2,0.8,0.6,1.3,1.2l1.7,1.8l1.3,0.9c0,0.2,0.2,0.3,0.4,0.5l0.2,0.1c1,0.6,2.6-0.7,4.9-4c0.9-1.3,1.8-2.7,2.7-3.9
			c1-1.3,1.9-2.6,2.8-3.9l22.7-36.4c2.4-4.3,3.4-7,2.8-8.1c-0.2-0.1-0.8-0.4-1.8-0.9c-1-0.5-1.6-0.8-2-1l0.3,0.2
			c-1.6-0.5-3.1-1.2-4.5-2.2c-5.3-3.4-6.3-7.5-3.2-12.5c3.3-5.2,8.1-5.7,14.4-1.7c0.1,0.2,0.8,0.8,1.9,1.5c1.1,0.8,2,1.5,2.9,2.2
			c0.8,0.7,1.6,1.3,2.5,1.9c0.8,0.6,1.4,1,1.9,1.3c0.2,0.1,0.5,0.3,0.9,0.6c0.4,0.2,0.9,0.5,1.5,0.7c0.2,0.1,0.4,0.2,0.6,0.3
			c0.2,0.1,0.5,0.2,0.8,0.4C1408.9,324.8,1410.2,325.4,1411.4,326.2z"/>
		<path class="st5" d="M1536.2,476.8c-2.1,2.3-3.7,4-5,5.2c-1.3,1.2-2.5,1.9-3.6,2.1c-1.1,0.2-2.2,0-3.3-0.7
			c-1.1-0.7-2.4-1.8-4.1-3.3l-44.5-40.4c-0.4-0.4-0.6-0.5-0.7-0.4c-6,6.6-8.9,13.7-8.9,21.3c-0.2,7.5,2.5,13.8,8,18.8
			c3.6,3.3,7.8,5.3,12.6,6c4.7,0.7,8.9,0,12.6-2.3l5-2.8c1.9-0.9,3.9-1.3,5.8-1.2c1.9,0.1,3.7,1,5.4,2.5c5.1,4.7,5.4,9.4,1,14.4
			c-6.1,6.7-14.9,9.5-26.4,8.3c-11.1-1.1-20.7-5.4-29-12.9c-10.6-9.7-15.9-20.8-15.7-33.4c0.2-12.5,5.6-24.6,16.1-36.1
			c10.6-11.6,22.6-18.3,36.1-20.1c13.5-1.6,25.6,2.5,36.2,12.1c4.9,4.5,8.6,9.2,11,14.3c2.4,5.1,3.8,10.5,4,16.3
			C1549,456.6,1544.8,467.3,1536.2,476.8z M1523.3,458.6c4-4.4,5.9-9.8,5.6-16c-0.5-6.4-2.9-11.5-7.1-15.3c-4.3-3.9-10.2-6-17.5-6.2
			c-6.9,0-12.1,2-15.7,6L1523.3,458.6z"/>
		<path class="st5" d="M1618.4,577c-2.4,1.9-4.4,3.3-5.8,4.2c-1.4,1-2.7,1.5-3.9,1.5c-1.1,0-2.2-0.4-3.1-1.2c-0.9-0.9-2.1-2.2-3.5-4
			l-36.9-47.4c-0.3-0.4-0.5-0.6-0.7-0.5c-7,5.5-11.2,12-12.4,19.5c-1.5,7.4,0,14,4.6,19.9c3,3.9,6.8,6.6,11.4,8.1
			c4.5,1.5,8.8,1.5,12.8-0.1l5.4-1.9c2.1-0.6,4-0.7,5.9-0.2c1.9,0.5,3.5,1.6,4.9,3.4c4.2,5.5,3.7,10.2-1.5,14.3
			c-7.1,5.6-16.3,6.8-27.5,3.7c-10.7-3-19.5-8.9-26.4-17.7c-8.8-11.3-12.1-23.2-9.8-35.6c2.4-12.3,9.7-23.2,22-32.8
			c12.4-9.6,25.4-14.2,39-13.6c13.6,0.7,24.8,6.8,33.6,18.1c4.1,5.2,6.9,10.6,8.4,16c1.5,5.4,1.9,11,1.2,16.8
			C1634.4,559.3,1628.5,569.1,1618.4,577z M1608.8,556.9c4.7-3.7,7.5-8.6,8.3-14.8c0.6-6.4-0.8-11.8-4.4-16.3
			c-3.6-4.6-9-7.7-16.2-9.1c-6.8-1.1-12.3-0.1-16.5,3.2L1608.8,556.9z"/>
		<path class="st5" d="M1689,613.8c2.2,4.4,1.7,7.9-1.6,10.5c9,3.5,15.9,10.1,20.9,19.8c3.4,6.6,4.9,13.7,4.6,21.2l-0.1-0.2
			c-0.4,8-2.5,14.2-6.4,18.7c-3.2,3.9-8.1,7.5-14.5,10.7l-32,16.3l-8.4,4.3c-1.8,1.1-2.8,2.1-2.9,3.1c0.3,0.6,0.7,1.3,1.3,2.3
			c0.5,0.9,1,1.6,1.5,2.2c0.4,0.5,0.8,1,1.1,1.5c0.3,0.4,0.6,1,1,1.7c1.1,2.1,1.3,4.4,0.7,6.8c-0.6,2.4-2,4.1-4,5.2
			c-2.4,1.2-4.8,1.3-7.4,0.2s-4.5-3-5.9-5.7c-0.3-0.6-0.7-1.5-1.3-2.8c-0.6-1.3-1.1-2.6-1.5-4c-0.7-1.9-1.5-3.9-2.3-6.1
			c-0.9-2.2-1.7-4-2.5-5.6c-0.6-1.2-1.3-2.4-2-3.6c-0.7-1.2-1.3-2.3-1.9-3.2c-1.7-2.4-3-4.4-4.1-6c-1-1.6-1.6-2.5-1.7-2.7
			c-3.3-6.4-2.1-11,3.5-13.9c5-2.5,8.9-1,11.8,4.7c0.1,0.5,0.3,1,0.5,1.5c0.2,0.5,0.4,0.9,0.6,1.4c0.1,0.4,0.3,0.9,0.6,1.4
			c0.2,0.7,0.3,1.2,0.5,1.6s0.2,0.7,0.4,0.9c0.1,0.4,0.1,0.7,0.2,0.8c0.4,0.8,2.9,0.2,7.5-2c1.4-0.7,2.9-1.4,4.4-2
			c1.5-0.6,3-1.3,4.4-2l10.2-5l12.8-6.5c5.3-2.7,9.1-5,11.5-7c1.6-1.3,2.9-2.7,3.9-4.4c1-1.7,1.6-3.4,1.9-5.2l-0.2,0.1
			c0.6-4.6,0-8.9-2-12.7c-4.1-7.9-9.8-12.2-17.1-12.8c-5.2-0.3-13,2.1-23.1,7.3l-22.4,11.4c-4,2.1-6.7,3.6-8,4.6
			c-1.3,1-1.7,1.9-1.4,2.6c0.1,0.1,0.3,0.4,0.7,1c0.4,0.5,0.9,1.1,1.4,1.8c0.6,0.6,1.1,1.2,1.6,1.8c0.5,0.6,0.9,1.4,1.4,2.3
			c2.8,5.4,1.5,9.5-3.8,12.3c-5.3,2.7-9.6,0.9-12.9-5.5c-0.3-0.6-0.8-1.8-1.4-3.6c-0.6-1.8-1.4-3.9-2.2-6.1c-0.9-2.6-2-5.3-3.5-8.1
			c-0.5-1.1-1.3-2.3-2.1-3.7s-1.9-3.1-3.2-5l-2.4-3.7c-0.8-1-1.4-1.9-2-2.8c-0.5-0.9-0.9-1.5-1-1.7c-3.4-6.6-2.4-11.3,3.1-14.1
			c5.1-2.6,9-1.2,11.8,4.3c0.3,0.6,0.5,1.1,0.7,1.6c0.1,0.4,0.3,0.9,0.4,1.5c0.4,1.7,1.1,3.4,1.9,5.1c0.7,1.4,3.5,1,8.5-1.4
			c3.1-1.6,6.2-3.1,9.4-4.6s6.3-3,9.4-4.6l20.4-10.4l5.7-3.4c2.5-1.6,4.2-2.8,5.2-3.6c1-0.8,1.5-1.6,1.4-2.3
			c-0.2-0.2-0.6-0.7-1.1-1.5c-0.5-0.8-0.9-1.4-1.3-1.8c-0.5-0.7-0.9-1.3-1.3-1.8c-0.4-0.6-0.7-1.1-1-1.7c-3-5.9-1.9-10.2,3.3-12.9
			c5.2-2.7,9.6-0.6,13.1,6.3c0.2,0.5,0.5,0.8,0.7,1.1c0.2,0.3,0.3,0.7,0.3,1.3l2.3,6.2c0.3,0.6,0.7,1.3,1.1,2
			c0.5,0.7,0.9,1.4,1.4,2.1c0.6,0.9,1.1,1.6,1.5,2.3C1688.1,612.1,1688.5,612.9,1689,613.8z"/>
	</g>
	<g>
		<path class="st5" d="M458.6,1509.4c-1.2,1.1-2.2,2-3,2.6c-0.7,0.6-1.4,0.9-2.1,1c-0.6,0.1-1.2-0.1-1.7-0.5c-0.5-0.4-1.2-1.1-2.1-2
			l-22.1-24.4c-0.2-0.2-0.3-0.3-0.4-0.2c-3.6,3.3-5.6,7-6,11.1c-0.5,4.1,0.6,7.7,3.3,10.7c1.8,2,4,3.3,6.5,4c2.5,0.6,4.9,0.4,7-0.6
			l2.8-1.2c1.1-0.4,2.2-0.5,3.2-0.3c1,0.2,2,0.7,2.8,1.7c2.5,2.8,2.5,5.4-0.2,7.9c-3.7,3.3-8.6,4.4-14.9,3.1c-6-1.2-11-4-15.1-8.6
			c-5.3-5.8-7.5-12.2-6.8-19.1c0.8-6.8,4.4-13.1,10.7-18.8c6.4-5.8,13.3-8.8,20.7-9c7.4-0.1,13.8,2.7,19.1,8.5
			c2.4,2.7,4.2,5.5,5.2,8.4c1,2.9,1.5,5.9,1.3,9.1C466.6,1499.1,463.8,1504.8,458.6,1509.4z M452.5,1498.9c2.4-2.2,3.7-5,3.9-8.4
			c0.1-3.5-1-6.4-3-8.7c-2.2-2.4-5.2-3.8-9.2-4.3c-3.7-0.3-6.7,0.5-8.9,2.4L452.5,1498.9z"/>
		<path class="st5" d="M514.1,1528.4c3,2.7,5,5.5,6,8.6c1.8-1.1,3.7-0.8,5.6,0.9c2.5,2.3,2.7,4.6,0.6,7c-0.1,0.1-0.2,0.2-0.3,0.3
			c-0.1,0.1-0.3,0.3-0.5,0.5c-0.2,0.2-0.4,0.5-0.7,0.7c-0.3,0.3-0.6,0.5-0.8,0.8c-0.5,0.4-1.1,0.8-1.6,1.2c-0.5,0.4-0.9,0.9-1.3,1.3
			c-0.6,0.7-1.3,1.6-2,2.7c-0.4,0.7-0.8,1.3-1.2,1.8c-0.4,0.5-0.7,1-1,1.3c-2.4,2.7-4.9,2.9-7.5,0.6c-2.5-2.2-2.7-4.6-0.8-7l2.3-2.7
			c1.1-1.3,1.3-3,0.6-5.2c-0.6-2.2-2-4.2-4-6c-2-1.7-4-2.7-6.3-3c-2.2-0.2-4,0.4-5.4,1.9c-1.2,1.3-1.6,2.8-1.3,4.5
			c0.3,1.7,1.2,3.5,2.6,5.3c0.7,0.8,1.3,1.6,1.9,2.3c0.6,0.8,1.3,1.5,2,2.3c8.4,9.9,9.6,18.1,3.7,24.7c-3.5,4-8.1,5.8-13.7,5.6
			c-5.3-0.4-10.3-2.8-15.1-7.1c-3.6-3.2-6.1-6.9-7.6-11.2c-2.1,1.8-4.3,1.7-6.7-0.4c-2.8-2.5-2.9-5.1-0.4-7.9c0.8-0.7,1.5-1.3,2-1.7
			c0.5-0.4,1-0.8,1.4-1.1c0.4-0.3,0.8-0.7,1.2-1.1c0.4-0.4,0.9-1,1.6-1.7c0.5-0.6,1.1-1.3,1.6-2c0.5-0.7,1-1.5,1.4-2.2
			c0.5-0.8,1-1.7,1.7-2.4c2.2-2.5,4.6-2.6,7.2-0.3c1.7,1.6,2.4,3,1.9,4.2c-0.3,1.2-1.5,2.8-3.4,5.1c-1.7,2-2,4.4-1.1,7.4
			c0.9,3,3,5.9,6.2,8.8c2.1,1.9,4.3,2.9,6.7,3.1c2.3,0.2,4.2-0.6,5.8-2.2c2.6-2.9,1.7-6.7-2.6-11.5c-2.5-2.9-4.7-5.5-6.4-8
			c-1.7-2.5-2.9-4.8-3.6-7c-0.7-2.2-0.7-4.4-0.2-6.4c0.5-2.1,1.7-4.2,3.6-6.3c1.7-2,3.7-3.4,6-4.3c2.2-0.9,4.6-1.3,7-1.2
			c2.4,0.1,4.9,0.7,7.5,1.8C509.3,1524.6,511.7,1526.3,514.1,1528.4z"/>
		<path class="st5" d="M555.7,1605.5c2.4-3,5-3.4,7.9-1.3c2.9,2.1,3.1,4.8,0.6,8.2c-2.3,3.2-4.5,5.7-6.6,7.5c-2.1,1.8-4,3.1-5.9,3.9
			c-4.9,1.8-10.1,0.7-15.4-3.2c-2.5-1.8-4.3-3.8-5.5-5.9c-1.2-2.1-1.7-4.4-1.7-6.7c0.2-3.6,2.1-7.9,5.9-12.9l14.7-19.9
			c0.3-0.4,0.4-0.7,0.3-0.7l-2.6-1.9c-1.3-1-2.1-2.1-2.3-3.6c-0.3-1.4,0-2.7,0.9-3.9c0.8-1.1,1.9-1.7,3.4-1.9
			c1.5-0.2,2.8,0.1,3.9,0.9l3.2,2.4l6.6-9c2.2-2.9,4.8-3.3,7.9-1c2.9,2.2,3.3,4.7,1.2,7.6l-6.6,8.9c0,0.1,0,0.1,0,0.2l9.1,6.7
			c3,2.2,3.6,4.7,1.6,7.4c-2.1,2.8-4.7,3-7.9,0.7l-9.2-6.8c0.1,0.2,0,0.5-0.2,0.8l-15.1,20.5c-3.7,5-4.1,8.6-1.3,10.7
			c3.1,2.3,6.1,1.5,9-2.5L555.7,1605.5z"/>
		<path class="st5" d="M615.9,1672.1c-4.6-2.7-6.8-6.2-6.6-10.3c-5.3,1.4-10.9,0.4-16.8-3.1c-5.3-3.2-8.8-7-10.4-11.4
			c-1.6-4.4-1.1-8.8,1.5-13.2c1.6-2.6,3.6-4.6,6.1-5.9c2.5-1.3,5.2-1.9,8.1-1.8c2.2,0.1,4.1,0.3,5.5,0.7c1.4,0.4,4,1.5,7.9,3.2
			c5.1,2.3,8.5,3.5,10.3,3.4c1.5-0.1,2.9-1.2,4.1-3.3c1.2-2,1.4-4,0.7-6c-0.7-2-2.3-3.8-4.9-5.3c-2.5-1.5-5.1-2.1-7.9-1.9l0.1-0.1
			c-0.7,0.2-1.1,0.3-1.1,0.4l0.1,0.1c0.6,1.9,0.5,3.6-0.4,5.2c-0.9,1.6-2.3,2.5-4,2.8s-3.5,0-5.3-1.1c-2-1.2-3.3-2.8-3.8-4.9
			c-0.6-2.1-0.3-4.1,0.9-6c2.2-3.8,6-5.8,11.2-6.2c5-0.5,10.1,0.8,15.2,3.8c11.8,7,14.4,16.1,7.8,27.3l-10.6,18
			c-0.7,1.3-1.4,2.3-1.8,3.2c-0.5,0.9-0.8,1.5-0.9,1.8c-0.5,1.6-0.4,2.6,0.3,3c1.1,0.6,2.5-0.5,4.2-3.5l2.6-4.4
			c1.6-2.7,3.8-3.2,6.6-1.5c3,1.8,3.4,4.5,1.3,8.1l-0.3,0.5l-3.1,5C628.3,1675,622.9,1676.2,615.9,1672.1z M618,1642.9
			c-0.5-0.1-0.9-0.2-1.3-0.2c-0.4,0-0.9-0.1-1.4-0.3c-2-0.4-4.9-1.6-8.8-3.4c-6.2-2.9-10.4-2.6-12.6,1.1c-1.1,1.8-1.3,3.7-0.6,5.6
			c0.7,1.9,2.2,3.6,4.6,5c3.6,2.1,6.9,2.8,10,2c3.1-0.8,5.7-2.8,7.8-6.2L618,1642.9z"/>
		<path class="st5" d="M696.8,1636.3c-0.7,1.3-1.4,2.4-1.9,3.3c-0.5,1-1.1,1.9-1.6,2.9c-0.5,1-1.1,2.1-1.7,3.3
			c-0.6,1.2-1.3,2.7-2.1,4.5c2.5-1,4.8-1.3,6.9-1.1c2.1,0.2,4.6,1,7.4,2.2c6.8,3.1,11.2,7.9,13.1,14.4c1.9,6.5,1.1,13.5-2.3,21.1
			c-1.8,4-4,7.4-6.7,10.3c-2.7,2.9-5.6,5.1-8.6,6.8c-3.2,1.6-6.5,2.4-9.9,2.4c-3.4,0-6.9-0.8-10.5-2.5c-5.1-2.3-8.6-5.5-10.5-9.5
			c-1.5,1.9-3.5,2.2-6.1,1.1c-3.3-1.5-4.1-4.3-2.3-8.3c0.2-0.5,0.4-0.9,0.6-1.3c0.2-0.4,0.4-0.7,0.5-1c0.3-0.7,0.7-1.5,1-2.2
			s0.7-1.5,1.1-2.2l3.6-7.1c0.6-1.3,1.3-2.9,2.2-4.7c0.9-1.8,1.6-3.4,2.2-4.7l11.1-25.3c0.7-1.8,1.2-3.1,1.3-3.8
			c0.1-0.7,0-1.2-0.4-1.3c-0.3-0.1-1.1-0.3-2.5-0.6c-0.4-0.1-0.7-0.2-1-0.3c-0.3-0.2-0.7-0.3-1-0.5c-3.2-1.4-4.2-3.6-2.9-6.4
			c1.3-3,3.8-3.7,7.4-2.1c0.3,0.1,0.7,0.3,1.1,0.5c0.4,0.2,0.8,0.4,1,0.6l1.8,1.2c0.1,0.1,0.3,0.2,0.5,0.3c0.2,0.1,0.3,0.2,0.5,0.3
			c0.3,0.2,0.6,0.4,0.8,0.5c0.2,0.1,0.4,0.2,0.6,0.3c0.3,0.1,0.7,0.3,1.2,0.4c0.6,0.2,1.2,0.3,1.8,0.5c1.1,0.2,2.1,0.6,3,1
			c2.5,1.1,3.1,3,1.9,5.6L696.8,1636.3z M684.3,1663.8c-1.3,1.7-2.8,4.3-4.4,7.9c-2.6,5.8-4,10.2-4.2,13c0,4.9,2.3,8.3,6.9,10.4
			c3.9,1.8,7.7,1.5,11.4-0.6c3.7-2.2,6.7-6,9.1-11.4c2.5-5.5,3.4-10.3,2.6-14.4c-0.7-4.1-2.9-6.9-6.7-8.6c-1.3-0.6-2.7-1-4.1-1.1
			c-1.4-0.1-2.8,0-4.1,0.3c-1.3,0.3-2.6,0.9-3.7,1.6C686.2,1661.7,685.2,1662.7,684.3,1663.8z"/>
		<path class="st5" d="M757.2,1719.1c-0.7,2.4-0.9,3.8-0.3,3.9c0.1,0,0.3,0.1,0.5,0.1c0.1,0,0.3,0.1,0.5,0.1c0.2,0,0.4,0,0.7,0.1
			c0.1,0,0.3,0.1,0.4,0.1c0.1,0,0.3,0,0.4,0.1c0.1,0,0.2,0,0.2,0c0,0,0.1,0,0.2,0c0.2,0,0.4,0,0.6,0.1c0.2,0.1,0.4,0.1,0.6,0.2
			c3.2,1.1,4.3,3.2,3.3,6.3c-1,3.1-3.5,4-7.3,2.7c-0.6-0.2-1.2-0.5-2.1-0.8c-0.8-0.4-1.8-0.8-3-1.3c-1.1-0.5-2-1-2.8-1.3
			c-0.8-0.4-1.5-0.6-2.1-0.8c-0.5-0.2-1.1-0.3-1.9-0.5c-0.8-0.2-1.7-0.4-2.8-0.6c-1-0.2-1.9-0.4-2.8-0.6c-0.9-0.2-1.6-0.4-2.1-0.6
			l-0.5-0.2c-3.9-1.3-5.2-3.6-4.1-6.9c1-2.9,3.2-3.8,6.5-2.6l1,0.3c0.2,0.2,0.5,0.3,0.8,0.4c0.8,0.4,1.3,0.7,1.7,0.9
			c0.3,0.2,0.5,0.3,0.7,0.4c0.3,0.1,0.5,0,0.8-0.3c0.3-0.4,0.7-1.3,1.2-2.5c0.5-1.2,1.1-2.9,1.9-4.9c0.4-1.2,0.8-2.3,1.2-3.4
			c0.4-1.1,0.8-2.2,1.2-3.3l5.5-15.1c0.4-1.1,0.8-2.4,1.3-3.9c0.5-1.5,1-3.1,1.6-4.8c0.5-1.7,1-3.3,1.6-4.8c0.5-1.5,1-2.8,1.3-3.9
			l1-4c-0.1-0.2-0.2-0.5-0.3-0.8c-0.1-0.3-0.3-0.4-0.5-0.5c-0.1,0-1-0.2-2.6-0.4c-0.4,0-0.7-0.1-0.9-0.2c-0.2-0.1-0.5-0.2-0.9-0.3
			c-3.4-1.1-4.6-3.2-3.6-6.2c1.1-3.1,3.4-4,7.2-2.8c0.3,0.1,0.7,0.2,1.2,0.4c0.5,0.2,0.8,0.3,1,0.4l2,1c0.1,0,0.3,0.1,0.4,0.2
			c0.1,0.1,0.3,0.1,0.4,0.2c0.3,0.2,0.6,0.3,1,0.4c0.3,0.1,0.6,0.2,0.9,0.3c0.1,0,0.5,0.1,1,0.3c0.5,0.1,1.1,0.2,1.7,0.3
			c0.7,0.1,1.3,0.2,1.8,0.3c0.5,0.1,1.1,0.2,1.6,0.4c2.5,0.9,3.3,2.7,2.4,5.5c-0.1,0.4-0.2,0.7-0.3,1c0,0.2-0.2,0.4-0.4,0.7
			c-2.1,5-4.7,12-7.8,21L757.2,1719.1z"/>
		<path class="st5" d="M814.7,1730.1c-0.4,1.6-0.7,2.9-1,3.9c-0.2,1-0.4,1.6-0.4,2c-0.3,2.2-0.3,3.3,0.1,3.4c-0.1,0,0.1,0,0.6,0
			c0.4,0,1,0.1,1.7,0.1l-0.1,0.1c0.2,0,0.5,0,0.9,0c0.3,0,0.7,0.1,1.2,0.2c3.7,0.9,5.1,3,4.3,6.1c-0.4,1.4-1.2,2.4-2.6,3
			c-1.4,0.6-3,0.7-4.7,0.2c-0.6-0.1-1.3-0.4-2.1-0.7c-0.8-0.3-1.8-0.6-2.9-1.1c-1-0.4-1.9-0.8-2.7-1.1c-0.7-0.3-1.4-0.5-1.9-0.7
			c-0.8-0.2-1.7-0.4-2.6-0.6s-2-0.3-3.1-0.5c-1.3-0.2-2.4-0.3-3.3-0.5c-0.9-0.1-1.6-0.3-2.2-0.4c-3.8-1-5.3-3.1-4.5-6.3
			c0.8-3.1,2.9-4.2,6.4-3.3c0.1,0,0.5,0.2,1.2,0.4c0.6,0.2,1.2,0.5,1.6,0.6c0.5,0.3,0.8,0.4,1.1,0.5c0.3,0.1,0.5,0.1,0.6,0.2
			c0.6,0.1,1.4-1.5,2.5-4.8l6.6-25.5c0.6-3.4,0.6-5.1,0-5.3c-0.1,0-0.4-0.1-0.8-0.1c-0.4,0-0.8,0-1.4,0c-0.4,0.1-0.8,0-1.3,0
			c-0.5-0.1-0.8-0.2-1.1-0.2c-3.6-0.9-5-2.9-4.2-6c0.8-3.2,3.3-4.2,7.4-3.2c0.8,0.2,1.4,0.4,1.9,0.5c0.5,0.1,0.8,0.2,1,0.4
			c0.9,0.4,1.7,0.7,2.4,1c0.7,0.2,1.1,0.4,1.3,0.4c0.1,0,0.4,0.1,0.9,0.2c0.5,0.1,0.9,0.1,1.4,0.2l2.8,0.4c3,0.8,4.1,2.9,3.2,6.5
			l-0.4,1.5c-0.1,0.3-0.2,0.5-0.3,0.7c0,0.2-0.1,0.3-0.1,0.4c-0.1,0.2-0.4,1.2-0.9,2.9c-0.1,0.5-0.3,1-0.4,1.5s-0.3,1.1-0.5,1.6
			c-0.4,1.4-0.8,2.8-1.2,4.2c-0.4,1.4-0.7,2.8-1.1,4.2L814.7,1730.1z M817.4,1690.4c-2-0.5-3.6-1.6-4.7-3.3
			c-1.1-1.7-1.3-3.5-0.8-5.5c0.5-2,1.6-3.4,3.4-4.4c1.7-0.9,3.6-1.2,5.7-0.6c2,0.5,3.6,1.6,4.7,3.3c1.1,1.7,1.4,3.5,0.9,5.5
			c-0.5,2-1.7,3.4-3.4,4.4C821.4,1690.7,819.5,1690.9,817.4,1690.4z"/>
		<path class="st5" d="M881.4,1704.7c3.9,0.6,7.2,2,9.6,4c1-1.9,2.7-2.7,5.2-2.2c3.4,0.6,4.8,2.4,4.3,5.6c0,0.1-0.1,0.3-0.1,0.4
			c-0.1,0.1-0.1,0.4-0.2,0.7c0,0.3-0.1,0.6-0.2,1c-0.1,0.4-0.2,0.8-0.2,1.1c-0.2,0.6-0.5,1.3-0.6,1.9c-0.2,0.6-0.3,1.2-0.4,1.8
			c-0.2,0.9-0.2,2.1-0.2,3.4c0,0.8,0,1.5,0,2.2c0,0.6-0.1,1.2-0.2,1.7c-0.6,3.6-2.6,5.1-5.9,4.6c-3.3-0.5-4.8-2.4-4.4-5.5l0.5-3.5
			c0.2-1.7-0.6-3.2-2.3-4.7s-3.9-2.5-6.6-2.9c-2.6-0.4-4.9-0.1-6.9,0.9c-2,1-3.2,2.5-3.5,4.5c-0.3,1.7,0.2,3.2,1.4,4.5
			c1.2,1.3,2.9,2.3,5,3.1c1,0.3,2,0.6,2.9,0.9c1,0.3,1.9,0.6,2.9,0.9c12.4,3.8,17.8,10.1,16.4,18.8c-0.9,5.2-3.7,9.3-8.5,12.1
			c-4.7,2.5-10.2,3.2-16.5,2.2c-4.7-0.8-8.9-2.6-12.4-5.4c-0.8,2.7-2.7,3.8-5.8,3.3c-3.7-0.6-5.2-2.8-4.6-6.5
			c0.3-1.1,0.6-1.9,0.8-2.5c0.2-0.6,0.4-1.2,0.6-1.7s0.3-1,0.4-1.5c0.1-0.5,0.3-1.3,0.4-2.3c0.1-0.8,0.2-1.6,0.2-2.6
			c0-0.9,0.1-1.8,0-2.6c-0.1-1,0-2,0.2-3c0.5-3.3,2.5-4.7,5.9-4.1c2.3,0.4,3.6,1.2,3.9,2.5c0.3,1.2,0.3,3.2-0.1,6.1
			c-0.3,2.5,0.7,4.8,3,6.8c2.4,2,5.7,3.4,9.9,4.1c2.8,0.5,5.2,0.1,7.3-1c2.1-1.1,3.3-2.8,3.6-5c0.6-3.8-2.2-6.6-8.4-8.2
			c-3.7-1-6.9-2.1-9.6-3.3c-2.8-1.2-5-2.5-6.8-4c-1.7-1.5-3-3.3-3.7-5.3c-0.7-2-0.8-4.4-0.4-7.3c0.4-2.6,1.3-4.9,2.7-6.9
			c1.4-2,3.2-3.6,5.3-4.8c2.1-1.2,4.5-2,7.3-2.5C875.3,1704.1,878.3,1704.1,881.4,1704.7z"/>
		<path class="st5" d="M952.1,1701.1l-1.2,16.2c2.3-1.6,4.5-2.6,6.7-3.2c2.2-0.6,4.7-0.8,7.4-0.7c3.3,0.2,6.2,0.8,8.8,1.9
			c2.6,1.1,4.7,2.5,6.5,4.4s3.1,4,4,6.5c0.9,2.5,1.3,5.2,1.1,8.2l-0.9,17.2c-0.1,2.1-0.2,3.7-0.2,4.9c-0.1,1.2,0,1.8,0,2
			c0.1,2.3,0.4,3.5,0.8,3.5c0.2,0,0.5,0,0.8,0c0.3,0,0.7,0,1.1-0.2s0.8-0.2,1.1-0.2c0.3,0,0.7,0,1.1,0.1c3.7,0.2,5.5,1.9,5.3,5.1
			c-0.2,3.3-2.5,4.8-7,4.6c-0.9,0-2.3-0.2-4-0.5c-1.5-0.2-2.8-0.4-3.9-0.6c-1.2-0.2-2.1-0.3-2.9-0.3c-0.7,0-1.4-0.1-2.1,0
			c-0.7,0-1.3,0-1.8,0.1c-2.8,0.3-4.7,0.4-5.6,0.4c-1.7-0.1-3.2-0.7-4.3-1.7c-1.1-1.1-1.6-2.4-1.6-3.9c0.1-1.2,0.6-2.3,1.7-3.1
			c1.1-0.9,2.4-1.2,3.8-1.2c0.9,0,2,0.3,3.2,0.8c0.1,0,0.3,0,0.5,0.1c0.2,0,0.4,0.1,0.7,0.1c0.8,0,1.4-1.7,1.7-5.2
			c0-0.4,0-1,0.1-1.9c0-0.9,0.1-1.9,0.3-3c0-0.6,0.1-1.3,0.2-2.2c0.1-0.9,0.1-1.6,0.2-2.2l0.3-5.6c0.3-6.7-0.1-11.2-1.2-13.5
			c-1.5-3.2-4.4-4.9-8.7-5.1c-4.8-0.2-8.4,1.2-10.7,4.4c-1.6,2.2-2.6,6-3,11.4c-0.1,1.2-0.1,2.5-0.2,3.7c-0.1,1.2-0.2,2.5-0.2,3.7
			c0,0.2,0,0.6-0.1,1c0,0.5-0.1,0.9-0.2,1.2l-0.1,1.7c-0.1,1.9-0.2,3.4-0.2,4.5c-0.1,1.1-0.1,1.8,0,2.1c0.1,2.5,0.5,3.7,1.1,3.8
			c0.1,0,0.4,0,0.8-0.1c0.4-0.1,0.8-0.1,1.3-0.2c0.4-0.1,0.8-0.2,1.3-0.2c0.5,0,0.9,0,1.2,0c3.4,0.2,5,1.8,4.9,4.8
			c-0.2,3.4-2.4,5-6.6,4.8c-1.1,0-2.6-0.2-4.6-0.5c-1.2-0.2-2.4-0.4-3.5-0.5c-1.1-0.1-2.1-0.2-2.9-0.3c-1.1,0-2.7,0-4.7,0.1
			c-1.5,0.1-2.7,0.1-3.6,0.2c-0.9,0-1.5,0-1.9,0c-4-0.2-5.9-2-5.7-5.5c0.2-3,2.1-4.4,5.9-4.2c1,0,1.8,0.2,2.4,0.3h-0.1
			c0.6,0.2,1,0.3,1.4,0.3c0.4,0,0.6,0,0.8,0c0.1,0,0.3-0.6,0.4-1.8c0.5-1.9,0.9-6.1,1.4-12.6c0.2-3.1,0.3-6.1,0.5-9.3
			c0.2-3.1,0.4-6.2,0.5-9.3c0.5-10.1,0.6-16.6,0.3-19.3c-0.1-1.8-0.4-2.7-0.8-2.9c-0.1,0.1-0.3,0.1-0.7,0.1c-0.4,0-0.7,0.1-1,0.1
			c-0.4,0.1-0.9,0.2-1.4,0.1c-0.5,0-1,0-1.4-0.1c-3.5-0.2-5.2-1.8-5-4.9c0.1-1.5,0.7-2.6,1.9-3.5c1.2-0.9,2.7-1.3,4.3-1.2
			c0.5,0,1.7,0.2,3.7,0.5l-0.1,0c0.7,0.1,1.3,0.2,2,0.3c0.7,0.1,1.4,0.1,2.2,0.2c0.1,0,0.5,0,1,0c0.5,0,1.1,0,1.6-0.1
			c0.4-0.1,0.7-0.1,1.2-0.1c0.4,0,0.8,0,1.2,0c2.8,0.1,4.1,1.8,3.9,5.1L952.1,1701.1z"/>
		<path class="st5" d="M1073.9,1735.5c0.1,1.7,0.2,3,0.1,3.9c0,0.9-0.2,1.7-0.5,2.2c-0.3,0.5-0.8,0.9-1.5,1
			c-0.7,0.2-1.6,0.3-2.9,0.3l-32.8,2.1c-0.3,0-0.4,0.1-0.4,0.1c0.3,4.9,2,8.7,5,11.6c2.9,3,6.4,4.3,10.4,4c2.7-0.2,5.1-1.1,7.2-2.7
			s3.4-3.5,3.9-5.8l0.8-3c0.4-1.1,0.9-2,1.7-2.7c0.8-0.7,1.8-1.1,3-1.2c3.8-0.2,5.8,1.5,6,5.1c0.3,4.9-1.9,9.5-6.8,13.6
			c-4.6,3.9-10,6.1-16.1,6.5c-7.9,0.5-14.2-1.7-19.1-6.5c-4.8-4.9-7.5-11.6-8.1-20.1c-0.6-8.6,1.4-15.9,5.8-21.8
			c4.5-5.9,10.7-9.1,18.5-9.6c3.6-0.2,6.9,0.1,9.8,1.1s5.6,2.5,8,4.6C1070.8,1722.9,1073.4,1728.6,1073.9,1735.5z M1061.8,1733.7
			c-0.2-3.3-1.6-6-4.2-8.3c-2.7-2.2-5.6-3.2-8.7-3c-3.2,0.2-6.2,1.7-9.1,4.5c-2.6,2.7-3.8,5.5-3.6,8.4L1061.8,1733.7z"/>
		<path class="st5" d="M1124.6,1703.7c2.7-0.5,5.3-0.5,7.7-0.1c2.4,0.4,4.6,1.2,6.6,2.3l-1-5.7c-0.2-1.3-0.4-2.3-0.6-3.1
			c-0.2-0.7-0.3-1.3-0.5-1.6c-0.4-0.9-0.8-1.5-1.2-1.7c-0.3,0.1-0.7,0.2-1.2,0.4c-0.5,0.1-0.9,0.2-1.2,0.3l0.2,0
			c-0.4,0.2-0.8,0.4-1.3,0.5c-0.5,0.1-0.9,0.2-1.2,0.3c-3.7,0.7-5.9-0.6-6.4-3.7c-0.6-3.2,1.4-5.3,6-6.1c0.1,0,0.4-0.1,0.8-0.1
			c0.4-0.1,0.7-0.1,1.1-0.1c0.2,0,0.4-0.1,0.7-0.1c0.2,0,0.4,0,0.7-0.1l3.3-0.2c0.1,0,0.5-0.1,0.9-0.2c0.5-0.1,0.9-0.3,1.4-0.4
			c0.6-0.2,1.1-0.3,1.5-0.4c0.5-0.1,0.9-0.2,1.3-0.3c3.1-0.6,5,1,5.6,4.8l0.3,1.6c-0.1,0.1,0,0.8,0.3,2.2c0.1,0.4,0.1,0.8,0.2,1.2
			c0,0.5,0.1,1,0.2,1.5c0.1,0.6,0.5,3.2,1.1,8c0.1,0.4,0.1,0.8,0.2,1.2c0,0.4,0.1,0.8,0.1,1.1c0.1,1.2,0.3,2.2,0.4,3.1
			c0.2,0.9,0.3,1.7,0.4,2.3l1.8,10l3.3,17c0.5,2.3,0.9,4.1,1.2,5.3c0.3,1.3,0.6,2.1,0.8,2.5c0.1,0.4,0.4,0.6,0.9,0.5
			c0.4-0.1,0.7-0.1,0.9-0.2c0.2-0.1,0.5-0.2,0.8-0.3c0.2,0,0.4-0.1,0.6-0.2c0.2-0.1,0.4-0.1,0.5-0.2c0.1-0.1,0.4-0.2,0.7-0.2
			c0.3-0.1,0.6-0.1,0.7-0.1c3.7-0.7,5.8,0.6,6.3,3.7c0.6,3.3-1.2,5.3-5.5,6.1c-0.4,0.1-0.8,0.1-1.5,0.2c-0.6,0.1-1.2,0.1-1.8,0.2
			c-0.3,0-0.6,0.1-0.9,0.1c-0.3,0-0.7,0-1,0c-0.4,0-0.8,0-1.2,0.1c-0.1,0-0.1,0-0.2,0.1c-0.1,0-0.2,0.1-0.3,0.1
			c-0.1,0-0.3,0.1-0.5,0.1c-0.2,0-0.5,0.1-0.8,0.3l0.2,0c-0.8,0.4-1.7,0.6-2.5,0.8c-2.3,0.4-3.9-0.4-4.9-2.6
			c-3,3.7-7.4,6.1-13.3,7.1c-7.6,1.4-14.1-0.2-19.4-4.9c-5.4-4.4-8.9-10.9-10.5-19.4c-0.7-4.2-0.8-8.1-0.3-11.8
			c0.6-3.7,1.6-7,3.3-9.9C1111.7,1708.7,1117.1,1705,1124.6,1703.7z M1144.1,1738.6c-0.1-1.2-0.2-2.5-0.4-3.9
			c-0.2-1.4-0.4-3-0.7-4.7c-0.4-2.2-0.8-4.1-1.2-5.5c-0.4-1.5-0.7-2.6-1-3.3c-1.2-3.2-2.8-5.4-5.1-6.5c-2.9-1.5-5.9-2.1-8.8-1.5
			c-4.2,0.8-7.2,3-9,6.8c-1.8,3.8-2.1,8.5-1.1,14.3c1.1,6.1,3.2,10.6,6.3,13.6c3.1,3,6.8,4.1,11.1,3.3c3.2-0.6,5.7-2,7.5-4.3
			S1144.3,1741.8,1144.1,1738.6z"/>
		<path class="st5" d="M1352.4,1663c-0.7,1-1.2,2.1-1.6,3.2s-0.7,2.2-0.8,3.3c1.3-1.8,3.2-3.4,5.5-4.7c3.8-2,8.4-2.5,13.9-1.5
			c5.3,1,8.9,0.9,10.8-0.1c1.1-0.6,1.8-1.4,2.1-2.5c0.3-1.1,0.1-2.3-0.4-3.6c-0.4,0.5-1,1-1.7,1.4c-3.4,1.8-5.9,1.2-7.6-2
			c-0.9-1.6-1-3.3-0.3-5c0.7-1.7,2-3.1,4-4.2c2.5-1.4,5-1.6,7.4-0.8c2.4,0.8,4.4,2.7,6,5.6c2,3.8,2.6,7.6,1.6,11.5
			c-1,4.1-3.3,7.1-6.9,9c-3.3,1.8-8.1,2.2-14.2,1.2c-5.5-0.9-9.7-0.6-12.6,0.9c-1.6,0.8-2.6,1.9-3,3.1c1.9-0.6,3.4,0.1,4.5,2
			c1.8,3.3,0.8,6-2.9,8c-2.3,1.2-4.6,1.3-7,0.3c-2.4-1-4.4-3-6.1-6.1c-5.6-10.4-2.5-21.7,9.3-33.7l4.9-5.3c2.3-2.5,3.8-5.1,4.6-7.6
			c0.7-2.6,0.5-5-0.7-7.2c-1.7-3.1-4.1-5-7.3-5.6c-3.1-0.6-6.6,0.1-10.4,2.2c-3.2,1.7-5.5,3.7-7,5.9c-1.5,2.2-2.1,4.5-1.7,6.9
			c3.2-1,5.5-0.1,7,2.7c1,1.8,1.1,3.7,0.5,5.7c-0.6,2-2,3.5-3.9,4.5c-2.3,1.3-4.6,1.5-6.9,0.7c-2.3-0.8-4.1-2.4-5.4-4.9
			c-2.6-4.8-2.6-10.2,0.1-16.1c2.6-5.5,7.1-10,13.6-13.5c6.2-3.4,12.3-4.5,18.1-3.5c6,1.2,10.4,4.4,13.2,9.6c2,3.7,2.7,7.4,2.2,11.2
			c-0.5,3.8-2.2,7.4-4.9,10.7l0.1,0c-0.4,0.4-1.3,1.4-2.7,2.9c-1.4,1.5-3.3,3.6-5.7,6.1l0.1,0c-1.6,1.7-3,3.3-4.3,4.9
			C1354.3,1660.3,1353.2,1661.8,1352.4,1663z"/>
		<path class="st5" d="M1447.7,1633c-7.2,5-14.5,6.3-22.1,4c-7.4-2.3-14.2-7.9-20.4-16.8c-6.3-9-9.1-17.5-8.6-25.6
			c0.5-8.2,4.4-14.9,11.6-19.9c7-4.9,14.3-6.1,21.8-3.8c3.8,1.1,7.4,3,10.7,5.6c3.3,2.7,6.5,6.2,9.4,10.4c6.4,9.2,9.4,18,9,26.2
			C1458.8,1621.2,1454.9,1627.9,1447.7,1633z M1413.6,1582.7c-8.7,6.1-8.5,16,0.6,29.9l0.9,1.2c4.5,6.5,9.2,10.7,13.9,12.7
			c4.7,1.9,9.2,1.4,13.4-1.5c2.1-1.5,3.7-3.3,4.7-5.5c1-2.2,1.4-4.6,1.3-7.3c-0.1-2.7-0.8-5.6-2-8.7c-1.2-3.1-3.1-6.4-5.4-9.8
			c-4.5-6.5-9.1-10.7-13.8-12.5C1422.3,1579.2,1417.8,1579.8,1413.6,1582.7z"/>
		<path class="st5" d="M1494.4,1567.2c-0.4,1.2-0.7,2.3-0.9,3.5c-0.2,1.2-0.2,2.3-0.1,3.4c0.9-2.1,2.3-4,4.3-5.8
			c3.2-2.8,7.6-4.4,13.2-4.6c5.4-0.2,8.9-1.1,10.5-2.5c0.9-0.8,1.4-1.8,1.5-2.9c0-1.1-0.4-2.2-1.2-3.4c-0.3,0.6-0.7,1.2-1.4,1.7
			c-2.9,2.5-5.5,2.5-7.9-0.2c-1.2-1.4-1.7-3-1.4-4.8c0.3-1.8,1.2-3.5,2.9-4.9c2.1-1.9,4.5-2.7,7-2.4c2.5,0.3,4.9,1.7,7.1,4.2
			c2.8,3.2,4.2,6.9,4.1,10.9c0,4.2-1.6,7.6-4.7,10.3c-2.8,2.5-7.4,3.9-13.6,4.4c-5.6,0.3-9.6,1.6-12.1,3.7c-1.3,1.2-2.1,2.4-2.2,3.7
			c1.8-1,3.4-0.7,4.8,0.9c2.5,2.8,2.1,5.7-1.1,8.4c-1.9,1.7-4.2,2.3-6.7,1.9c-2.5-0.5-5-2-7.3-4.6c-7.8-8.9-7.3-20.5,1.5-34.9
			l3.7-6.2c1.7-3,2.6-5.8,2.7-8.5c0.1-2.7-0.6-4.9-2.3-6.8c-2.4-2.7-5.1-4-8.3-3.9c-3.2,0.1-6.4,1.6-9.7,4.4
			c-2.7,2.4-4.5,4.8-5.5,7.3c-1,2.5-1,4.9-0.1,7.1c2.9-1.6,5.3-1.3,7.4,1c1.4,1.5,1.9,3.3,1.7,5.4c-0.2,2-1.1,3.8-2.8,5.3
			c-2,1.7-4.2,2.5-6.6,2.2c-2.4-0.2-4.5-1.5-6.4-3.6c-3.6-4.1-4.8-9.4-3.5-15.7c1.3-6,4.7-11.4,10.2-16.2c5.3-4.7,11-7.1,16.9-7.4
			c6.1-0.2,11.1,2,15,6.4c2.7,3.1,4.3,6.6,4.6,10.4c0.3,3.8-0.5,7.7-2.4,11.6l0.1-0.1c-0.3,0.5-0.9,1.6-2,3.4
			c-1,1.8-2.4,4.2-4.2,7.2l0.1-0.1c-1.2,2-2.2,3.9-3.1,5.7C1495.7,1564.2,1494.9,1565.8,1494.4,1567.2z"/>
		<path class="st5" d="M1580.5,1516.9c-5.9,6.5-12.8,9.4-20.7,8.8c-7.8-0.6-15.6-4.6-23.6-11.9c-8.1-7.4-12.8-15.1-14.1-23
			c-1.4-8.1,1-15.5,6.9-22c5.8-6.3,12.6-9.1,20.4-8.5c3.9,0.2,7.8,1.2,11.7,3.1c3.8,1.9,7.7,4.6,11.5,8c8.3,7.6,13.2,15.4,14.6,23.5
			C1588.7,1503,1586.4,1510.4,1580.5,1516.9z M1536.1,1475.5c-7.1,7.8-4.7,17.5,7.2,29l1.1,1c5.9,5.4,11.3,8.4,16.4,9.3
			c5,0.8,9.3-0.7,12.7-4.4c1.7-1.9,2.9-4,3.3-6.4c0.5-2.3,0.4-4.8-0.3-7.4c-0.7-2.6-2-5.3-3.9-8.1c-1.9-2.8-4.4-5.6-7.5-8.4
			c-5.9-5.4-11.3-8.4-16.2-9.2C1543.8,1470.1,1539.6,1471.7,1536.1,1475.5z"/>
	</g>
	<g>
		<path class="st5" d="M1217.7,1722c-0.5,0-1.1-0.1-1.6-0.3c-2.6-0.9-3.9-3.7-3-6.3c5.6-15.8,25.6-16.6,43.3-17.3
			c13.5-0.5,27.5-1.1,29.2-8.3c0.6-2.6,3.2-4.3,5.9-3.7c2.6,0.6,4.3,3.2,3.7,5.9c-3.3,14.6-21.1,15.3-38.4,16
			c-15.3,0.6-31,1.3-34.4,10.8C1221.6,1720.8,1219.7,1722,1217.7,1722z"/>
	</g>
	<g>
		<path class="st5" d="M1248.9,1732c-1,0-2.1-0.3-3-1c-8.6-6.5-5.4-18.6-2.7-28.3c1.4-5.3,3.6-13.2,1.5-14.5
			c-2.3-1.4-3.1-4.4-1.7-6.7c1.4-2.3,4.4-3.1,6.7-1.7c8.6,5.1,5.7,16,3,25.6c-2,7.2-4.2,15.3-0.9,17.8c2.2,1.6,2.6,4.7,1,6.9
			C1251.9,1731.3,1250.4,1732,1248.9,1732z"/>
	</g>
	<g>
		<path class="st5" d="M1265.9,1729.3c-0.9,0-1.9-0.3-2.7-0.8c-9-6-6.4-18.3-4.3-28.1c1.1-5.3,2.9-13.4,0.7-14.6
			c-2.4-1.2-3.4-4.2-2.1-6.6c1.2-2.4,4.2-3.4,6.6-2.1c8.9,4.6,6.5,15.6,4.4,25.4c-1.6,7.3-3.3,15.5,0.1,17.8
			c2.3,1.5,2.9,4.6,1.4,6.8C1269,1728.5,1267.5,1729.3,1265.9,1729.3z"/>
	</g>
	<g>
		<path class="st6" d="M1000,365.1"/>
	</g>
	<g>
		<path class="st7" d="M1000,1724.4"/>
	</g>
	<g>
		<path class="st5" d="M401.2,1447.8c-3,0-6-1.4-7.9-4c-94.8-129.4-145-282.9-145-443.8c0-80.5,12.6-159.5,37.5-234.6
			c1.7-5.2,7.2-8,12.4-6.2c5.2,1.7,8,7.3,6.2,12.4c-24.2,73.2-36.5,150-36.5,228.5c0,156.7,48.8,306.2,141.2,432.2
			c3.2,4.4,2.3,10.5-2.1,13.8C405.2,1447.2,403.2,1447.8,401.2,1447.8z"/>
	</g>
	<g>
		<path class="st5" d="M1598.8,1447.8c-2,0-4.1-0.6-5.8-1.9c-4.4-3.2-5.3-9.4-2.1-13.8c92.4-126,141.2-275.4,141.2-432.2
			c0-78.3-12.2-155.2-36.4-228.5c-1.7-5.2,1.1-10.7,6.3-12.4c5.2-1.7,10.7,1.1,12.4,6.3c24.8,75.3,37.4,154.2,37.4,234.6
			c0,160.9-50.1,314.4-145,443.8C1604.8,1446.4,1601.9,1447.8,1598.8,1447.8z"/>
	</g>
	<g>
		<g>
			<path class="st5" d="M1000,112.7c-489.2,0-887.2,398-887.2,887.3s398,887.3,887.2,887.3c489.3,0,887.3-398,887.3-887.3
				S1489.2,112.7,1000,112.7z M1000,1849.2c-469,0-849.2-380.1-849.2-849.2c0-469,380.2-849.2,849.2-849.2
				c469,0,849.2,380.2,849.2,849.2C1849.3,1469.1,1469,1849.2,1000,1849.2z"/>
		</g>
	</g>
	<g>
		<path class="st5" d="M401.2,1439.2c-0.4,0-0.7-0.2-1-0.5c-93.8-127.9-143.3-279.6-143.3-438.7c0-79.6,12.5-157.7,37.1-231.9
			c0.2-0.6,0.9-1,1.6-0.8c0.6,0.2,1,0.9,0.8,1.6c-24.5,74-36.9,151.8-36.9,231.2c0,158.6,49.4,309.8,142.8,437.3
			c0.4,0.5,0.3,1.3-0.3,1.7C401.7,1439.1,401.4,1439.2,401.2,1439.2z"/>
	</g>
	<g>
		<path class="st5" d="M1598.8,1439.2c-0.3,0-0.5-0.1-0.7-0.2c-0.5-0.4-0.7-1.2-0.3-1.7c93.4-127.5,142.8-278.7,142.8-437.3
			c0-79.3-12.4-157-36.8-231.2c-0.2-0.6,0.1-1.3,0.8-1.6c0.6-0.2,1.3,0.1,1.6,0.8c24.5,74.4,37,152.4,37,231.9
			c0,159.1-49.6,310.8-143.3,438.7C1599.6,1439.1,1599.2,1439.2,1598.8,1439.2z"/>
	</g>
</g>
</svg>
