<?xml version="1.0" encoding="utf-8"?>
<!-- Generator: Adobe Illustrator 24.3.0, SVG Export Plug-In . SVG Version: 6.00 Build 0)  -->
<svg version="1.1" id="Layer_1" xmlns="http://www.w3.org/2000/svg" xmlns:xlink="http://www.w3.org/1999/xlink" x="0px" y="0px"
	 viewBox="0 0 446.6 446.5" style="enable-background:new 0 0 446.6 446.5;" xml:space="preserve">
<style type="text/css">
	.st0{fill:#F8982D;}
	.st1{fill:#FFFFFF;stroke:#005236;stroke-width:9.000000e-02;stroke-linecap:round;stroke-linejoin:bevel;}
	.st2{fill:#005236;}
</style>
<path class="st0" d="M446.6,223.3c0,15.8-1.6,31.5-4.9,46.9l-12.1-17.5l-7.9-21.5l-5.2-3.8l-3.3,4.8h-6.3l-5.3-5.8l-4.6-6.7h-7.2
	l-4.3-6.3h-6.6l-4-12.3l-11.9-19.6l-8.2-12l-8.9-6.7l-4.3-13.9l-11.7-11.2l-8.4-12.2h-4l-3.3-9.1l-11.2-11.5l-21.9-45.2l-7.4-10.8
	l-13.2-7.7l-16.5,17.7l-5.3,14.4l-15.2,25.8l-5.3,20.1l-9.7,22.2l-7.4,10.8l-2.6-6.7H194l-11.2,20.1l-7.6,17.2l-10.9,7.6h-5.6
	l-3.9,5.7h-18.1l-4.4,6.4l-6.3,3.1l-11.2,18.9h-8.2l-4.3,9.4l-15.8,9.4L75.5,256l-9.9-3.4l-16.1,9.4l-5,7.3l-2.3,9.6l-11.6,4.8
	l-10.2,22.5l-3.3,2.8C5.8,281.8,0,252.7,0,223.3C0,100,100,0,223.3,0S446.6,100,446.6,223.3z"/>
<path class="st1" d="M223.3,0"/>
<g>
	<path class="st2" d="M403.9,346.1c0,0,2.2,0.2,5.1,0.2h0.6c-6.7,10.1-14.1,19.6-22.3,28.4c-2,2.2-4,4.3-6.1,6.4s-4.2,4.2-6.5,6.2
		c-3.5,3.2-7,6.3-10.7,9.3c-4.9,4-10,7.8-15.3,11.4c-2.9,2-5.9,3.9-8.9,5.8l-0.9,0.5c-2.3,1.4-4.6,2.7-6.9,4
		c-2.1,1.2-4.3,2.4-6.5,3.5l-2.3,1.2c-1.3,0.6-2.6,1.3-3.9,1.9c-2.5,1.2-5,2.3-7.5,3.4l0,0l-0.2,0.1c-3.3,1.4-6.7,2.8-10.1,4.1
		c-4.2,1.6-8.5,3-12.8,4.3c-7.6,2.3-15.3,4.2-23,5.7l0,0c-1.5,0.3-3,0.5-4.5,0.8c-4,0.7-8,1.3-12,1.7c-6.4,0.7-12.9,1.2-19.4,1.4
		l-2.1,0c-1.4,0-2.9,0-4.3,0c-8.5,0-17-0.5-25.4-1.4l0,0c-5.4-0.6-10.7-1.4-15.9-2.4c-4.9-0.9-9.7-2-14.5-3.2
		c-6.9-1.8-13.7-3.9-20.3-6.3c-12-4.3-23.6-9.7-34.6-16.1c-2.5-1.4-5-2.9-7.5-4.5c-1.5-0.9-3-1.9-4.5-2.9
		c-13.3-8.8-25.7-19-36.8-30.4l0.6-0.5v-4.5l-5.6-3.1l1-3.3h6.4l6.9-2.4V363h-6.6l2.1-1.8l-5.9-5.2l4.5-2.2l7.6,3.6v-3.8l-5.9-2.3
		l4.5-3.9l-6.1-1.2l2.6-2.3l4.2-0.7v-4.7l3.2-2.8v-4.4h-4.2v-2.4l4.2-1.8l-2.2-1.9l2.2-1.9v-5.8l3.7,1.3c0,0,1.7,4,1.7,5.8
		s0,0-0.4,1.6c-0.1,1.1,0.2,2.3,1,3.1c0,0,3.1,1.6,3.1,2.7s0,1.4-1.6,2.8s-1.2,1-1.2,3.4c0,1.4,0.3,2.8,0.8,4.2l2.3,0.5v3.3
		c0,1.3,0,0.9,1.2,2s1.4,1.3,1.2,2s-1.6,0.6-3.8,1.3s0,1.3,0.4,2.7s3.1,1.1,4.2,1.1c1.8,0.3,3.6,0.7,5.4,1.3l-6.8,3.8v0.3
		c1.6,0.4,3.5,0.8,4.2,1c1.4,0.4,6.2,2.7,7.1,2.7h3.5c0.8,0,0.4-1.8,0.4-1.8s-2.9-0.5-3.7-0.7c-0.9,0-1.9,0.3-2.7,0.7l-0.8-2.4
		c0,0,0-2.9-0.5-3.4s-3-2.6-4.5-3.7s-2.5-4-2.5-4l3.8-2l2.9,2.5l5.2,1.5l3.8,2h3.1v-2.2l-5.9-2.8l-3.6-3.2v-2.5l4.6,1.5h8.4
		l-2.6-2.3l-3.1-2.7v-3.3l6.2,2h5v-3.5h-5.3l-5.9-5.2v-2.9l4.6,1.5l7.3,2.2l3.3-2.9v-4.5l-5.6-3.1l1-3.3h6.5l6.9-2.4v-2.6h-6.5
		l2.1-1.8l-5.9-5.2l4.5-2.2l7.6,3.6v-3.8l-5.9-2.3l4.4-3.9l-6.1-1.2l2.6-2.3l4.2-0.7v-4.7l3.1-2.8v-4.5H129v-2.4l4.2-1.7l-2.2-1.9
		l2.2-1.9v-5.8l3.7,1.3c0,0,1.7,4,1.7,5.8s0,0-0.4,1.6c-0.1,1.1,0.2,2.3,1,3.1c0,0,3.1,1.6,3.1,2.7s0,1.5-1.6,2.8s-1.1,1-1.1,3.3
		c0,1.4,0.3,2.9,0.8,4.2l2.3,0.5v3.3c0,1.3,0,0.9,1.2,2s1.4,1.3,1.2,2s-1.6,0.6-3.8,1.3s0,1.3,0.4,2.7s3.1,1.1,4.2,1.1
		c1.8,0.3,3.6,0.7,5.4,1.3l-6.9,3.8v2.5c0,2.5,0,0,1.2,1.5s0,2,0,2l6.9,0.4l-0.4,2l-3.9,2.4c-4,2.4,0,0-1,1.6s0.2,1.1,0.2,2.7h6
		c3.1,0,3.7-0.2,4.6,0s-0.8,2.5-0.8,2.5s-4.8,2-5.6,2.2s-3.5,0.5-3.7,1.8s2.1,2.2,3.5,2.5l2.3,0.5c0,0,5.8,0,6.4,0.2
		s-0.4,0.9-1.9,2.2s0,0-1,1.6s-2.3,0.7-2.3,0.7s-5.2,1.8-5.4,2.5s1.5,1.5,1.5,1.5l7.1,1.6c7.1,1.6,1.4,0,5.4,0l-3.5,3.6
		c0,0-3.8,1.1-5,1.3s-2.7,2.7-2.7,2.7s2.3,0.2,5.4,0.2s2.7,0,5.6,0.2s6.4,0.2,6.4,0.2l-1.2,2c-1.2,2-2.5,1.8-5,2s-6.2,0.9-8.7,4.2
		s7.5,0.7,7.5,0.7s1.9-0.2,6.4-0.2s1.9,0,1,2.7c-0.3,0.8-0.7,1.6-1.2,2.4l0.1,0.1l5.8,2.2l2.6-2.9v-4.5l-4.4-3.1l0.8-3.3h5.1
		l5.4-2.4V349h-5.2l1.6-1.8l-4.7-5.2l3.5-2.2l6,3.6v-3.8l-4.7-2.3l3.5-3.9l-4.8-1.2l2.1-2.3l3.3-0.7v-4.7l2.5-2.8v-4.6h-3.3v-2.4
		l3.3-1.7l-1.8-1.9l1.8-1.9v-5.8l2.9,1.3c0.6,1.9,1.1,3.8,1.3,5.8c0,1.8,0,0-0.3,1.6c-0.1,1.1,0.2,2.2,0.8,3.1c0,0,2.5,1.6,2.5,2.7
		s0,1.5-1.2,2.8s-0.9,1-0.9,3.3c0,1.4,0.2,2.8,0.7,4.2l1.8,0.5v3.3c0,1.3,0,0.9,1,2s1.1,1.3,1,2s-1.2,0.6-3,1.3s0,1.3,0.3,2.7
		s2.5,1.1,3.3,1.1c1.5,0.3,2.9,0.7,4.3,1.3l-5.4,3.8v2.5c0,2.5,0,0,1,1.4s0,2,0,2l2.2,0.1c0.4-0.4,0.6-0.7,0.6-0.7h7
		c3.3,0,0,0,2-0.7s0-1.1,0-1.7s-2.9-1.2-5.7-4.6s0,0-1-1.7s0.6-2,0.6-2l0.9-0.2c0.9-0.2,3,0.2,4.2,0s-1.3-5.4,0.2-5s5.3,0,5.3,0h4.8
		l1.8-1.5c-1.5-0.7-3-1.3-4.6-1.7c-2.2-0.6-1.3-0.2-6.4-2s-4.1-7.4-4.1-7.4c-1.2-1.6-2-3.4-2.6-5.3c-1.1-3.6,2.2,1,2.2,1
		s1.3,0,7.2,1.6s1.8-0.1,7.9-0.1c2.6,0,3.5,0,3.7,0.1c0.1,0,0.2-0.1,0.3-0.1c1.3-0.2,2.6-2.5,2.6-2.5l-6.6-2.5l2.4-5.2l-4.2-2.6
		c-2.1-1.3-4.1-2.6-6.1-4.1c-0.6-0.6-1.6-0.6-2.2,0c0,0,0,0,0,0c0,0-1.7-3.5-1.8-4.1s1.1-2.4,1.1-2.4h2c0,0,5,1.5,6.2,2
		s5.5,3.3,6.3,3.3h3.1c0.7,0,0.4-2.2,0.4-2.2s-2.6-0.6-3.3-0.9s-2.4,0.9-2.4,0.9l-0.7-2.8c0,0,0-3.5-0.5-4s-2.7-3.1-4-4.5
		s-2.2-4.8-2.2-4.8l3.3-2.4l2.6,3l4.6,1.7l3.3,2.4h2.9v-2.6l-5.2-3.4l-3.2-3.8v-3l4,1.9h7.4l-2.3-2.7l-2.7-3.3v-3.9l5.5,2.4h4.4
		v-4.2h-4.7l-5.2-6.2v-3.5l4,1.7l6.4,2.6l2.9-3.5v-5.4l-5-3.7l0.9-3.9h5.7l6.1-2.8V238h-5.8l1.8-2.2l-5.2-6.2l4-2.6l6.7,4.3v-4.6
		l-5.2-2.7l4-4.7l-5.4-1.4l2.3-2.7l3.7-0.9v-5.6l2.8-3.3v-5.4h-3.7v-2.8l3.7-2.1l-2-2.3l2-2.3v-7l3.2,1.5c0,0,1.5,4.8,1.5,7
		s0,0-0.3,2c-0.1,1.3,0.2,2.6,0.9,3.7c0,0,2.8,2,2.8,3.3s0,1.7-1.4,3.4s-1,1.2-1,4c0,1.7,0.2,3.4,0.7,5l2,0.6v3.9
		c0,1.5,0,1.1,1.1,2.4s1.3,1.5,1.1,2.4s-1.4,0.8-3.3,1.5s0,1.5,0.4,3.3c0.4,1.7,2.8,1.3,3.7,1.3c1.6,0.4,3.2,0.9,4.8,1.5l-6.1,4.6v3
		c0,3,0,0,1.1,1.7s0,2.4,0,2.4l6.1,0.4l-0.4,2.4l-3.5,2.9c-3.5,2.8,0,0-0.9,2s0.2,1.3,0.2,3.3h5.3c2.8,0,3.3-0.2,4,0s-0.7,3-0.7,3
		s-4.2,2.4-5,2.6s-3.1,0.6-3.3,2.2s1.8,2.6,3.1,3s2,0.6,2,0.6c1.9,0,3.8,0,5.7,0.2c0.5,0.2-0.4,1.1-1.7,2.6s0,0-0.9,2s-2,0.9-2,0.9
		s-4.6,2.2-4.8,3s1.3,1.7,1.3,1.7l6.2,2c6.2,2,1.3,0,4.8,0l-3.1,4.3c-1.4,0.6-2.9,1.1-4.4,1.5c-1.1,0.2-2.4,3.3-2.4,3.3
		s2,0.2,4.8,0.2c1.7,0,3.3,0,5,0.2c2.6,0.2,5.7,0.2,5.7,0.2l-1.1,2.4c-1.1,2.4-2.2,2.2-4.4,2.4c-3.3,0.2-6.2,2.1-7.7,5
		c-2.2,3.9,6.6,0.9,6.6,0.9c1.9-0.2,3.8-0.3,5.7-0.2c4,0,1.7,0,0.9,3.3c-0.2,0.9-0.6,1.8-1,2.7l4.4,0.9c1.4,0.3,5.9,2.2,6.7,2.2h3.3
		c0.8,0,0.4-1.5,0.4-1.5s-2.8-0.4-3.5-0.6c-0.9,0-1.7,0.2-2.5,0.6l-0.8-2c0,0,0-2.4-0.5-2.7s-2.9-2.1-4.2-3c-1-0.9-1.8-2-2.4-3.2
		l3.5-1.6l2.8,2l4.9,1.2l3.5,1.6h2.9v-1.8l-5.6-2.3l-3.4-2.6v-2l4.3,1.2h8l-2.5-1.8l-3-2.2v-2.6l5.9,1.6h4.7v-2.8h-5l-5.6-4.2v-2.4
		l4.3,1.2l6.9,1.8l3.1-2.4v-3.7l-5.3-2.5l1-2.6h6.1l6.5-1.9v-2.1h-6.2l2-1.5l-5.6-4.2l4.2-1.8l7.2,2.9v-3.1l-5.6-1.9l4.2-3.1l-5.8-1
		l2.5-1.8l4-0.6v-3.8l3-2.2v-3.7h-4v-1.9l4-1.4l-2.1-1.6l2.1-1.6V226l3.5,1c0,0,1.6,3.2,1.6,4.7s0,0-0.4,1.3
		c-0.1,0.9,0.2,1.9,0.9,2.5c0,0,3,1.3,3,2.2s0,1.2-1.5,2.3s-1.1,0.8-1.1,2.7c0,1.2,0.3,2.3,0.8,3.4l2.2,0.4v2.6c0,1,0,0.7,1.2,1.6
		s1.4,1,1.2,1.6s-1.5,0.5-3.5,1s0,1,0.4,2.2c0.4,1.2,2.9,0.9,3.9,0.9c1.7,0.2,3.4,0.6,5.1,1l-6.6,3.2v2c0,2.1,0,0,1.2,1.2
		s0,1.6,0,1.6l6.5,0.3l-0.4,1.6l-3.7,1.9c-3.7,1.9,0,0-1,1.3s0.2,0.9,0.2,2.2h5.7c1.4-0.1,2.9-0.1,4.3,0c0.8,0.1-0.8,2.1-0.8,2.1
		s-4.5,1.6-5.3,1.8s-3.3,0.4-3.5,1.5s2,1.8,3.3,2.1s2.1,0.4,2.1,0.4s5.5,0,6.1,0.1s-0.4,0.7-1.8,1.8s0,0-1,1.3
		c-0.4,0.8-1.4,1-2.2,0.6c0,0-4.9,1.5-5.1,2.1s1.4,1.2,1.4,1.2l6.7,1.3c6.7,1.3,1.4,0,5.1,0l-3.3,2.9c0,0-3.5,0.9-4.7,1
		s-2.5,2.2-2.5,2.2s2.2,0.1,5.1,0.1s2.6,0,5.3,0.1s6.1,0.1,6.1,0.1l-1.2,1.7c-1.2,1.6-2.4,1.5-4.7,1.6s-5.9,0.7-8.2,3.4
		s7.1,0.6,7.1,0.6s1.8-0.1,6.1-0.1s1.8,0,1,2.2c-0.6,1.5-1.6,2.7-3,3.7c0,0-6.1,1.2-7.9,1.3c-0.9,0-1.7,0.3-2.4,0.9l5.7,3.7l6.7,0.1
		l-0.4,2.1l-0.6,2.6c-0.5,1-1,1.9-1.6,2.8c-0.4,0.6,0.1,0.9,1.3,1.2v-2.1l4.3,1.5l6.9,2.2l3.1-2.9v-4.5l-5.3-3.1l1-3.3h6.1l6.5-2.4
		v-2.6H376l2-1.8l-5.6-5.2l4.2-2.2l7.2,3.6v-3.8l-5.6-2.3l4.2-3.9l-5.8-1.2l2.5-2.3l4-0.7v-4.7l3-2.8v-4.5h-4v-2.4l4-1.7l-2.1-1.9
		l2.1-1.9v-5.8l3.5,1.3c0,0,1.6,4,1.6,5.8s0,0-0.3,1.6c-0.1,1.1,0.2,2.2,0.9,3.1c0,0,3,1.6,3,2.7s0,1.5-1.5,2.8s-1.1,1-1.1,3.3
		c0,1.4,0.3,2.8,0.8,4.2l2.2,0.5v3.3c0,1.3,0,0.9,1.2,2s1.4,1.3,1.2,2s-1.5,0.6-3.5,1.3s0,1.3,0.4,2.7s2.9,1.1,3.9,1.1
		c1.7,0.3,3.4,0.7,5.1,1.3l-6.5,3.8v2.5c0,2.5,0,0,1.2,1.5s0,2,0,2l6.5,0.4l-0.4,2l-3.7,2.4c-3.7,2.4,0,0-1,1.6s0.2,1.1,0.2,2.7h5.7
		c2.9,0,3.5-0.2,4.3,0s-0.8,2.5-0.8,2.5s-4.5,2-5.3,2.2s-3.3,0.5-3.5,1.8s2,2.2,3.3,2.5s2.2,0.5,2.2,0.5s5.5,0,6.1,0.2
		s-0.4,0.9-1.8,2.2s0,0-1,1.6s-2.2,0.7-2.2,0.7s-4.9,1.8-5.1,2.5s1.4,1.5,1.4,1.5l6.7,1.6c6.7,1.6,1.4,0,5.1,0l-3.3,3.6
		c0,0-3.5,1.1-4.7,1.3S403.9,346.1,403.9,346.1z"/>
</g>
</svg>
